M48
; DRILL file {KiCad (6.0.0)} date Sun Jun 19 23:03:12 2022
; FORMAT={-:-/ absolute / inch / decimal}
; #@! TF.CreationDate,2022-06-19T23:03:12-07:00
; #@! TF.GenerationSoftware,Kicad,Pcbnew,(6.0.0)
; #@! TF.FileFunction,NonPlated,1,2,NPTH
FMAT,2
INCH
; #@! TA.AperFunction,NonPlated,NPTH,ComponentDrill
T1C0.0256
; #@! TA.AperFunction,NonPlated,NPTH,ComponentDrill
T2C0.0390
; #@! TA.AperFunction,NonPlated,NPTH,ComponentDrill
T3C0.0630
; #@! TA.AperFunction,NonPlated,NPTH,ComponentDrill
T4C0.0670
; #@! TA.AperFunction,NonPlated,NPTH,ComponentDrill
T5C0.0984
; #@! TA.AperFunction,NonPlated,NPTH,ComponentDrill
T6C0.1181
; #@! TA.AperFunction,NonPlated,NPTH,ComponentDrill
T7C0.1350
; #@! TA.AperFunction,NonPlated,NPTH,ComponentDrill
T8C0.1570
%
G90
G05
T1
X0.392Y-1.0726
X0.6196Y-1.0726
T2
X0.522Y-2.2317
X0.5617Y-3.8517
X0.7156Y-1.5091
X1.1603Y-2.8918
X1.3539Y-2.1693
X1.5475Y-1.4467
X2.0102Y-2.6101
X2.2038Y-1.8875
X2.3974Y-1.165
X2.7837Y-2.6135
X2.9773Y-1.891
X3.1709Y-1.1684
X3.3781Y-3.8561
X3.4553Y-2.9973
X3.6489Y-2.2747
X3.8425Y-1.5522
X4.1523Y-3.286
X4.2476Y-4.0943
X4.3459Y-2.5634
X4.5395Y-1.8409
X5.0183Y-4.1115
X6.2221Y-4.0052
X6.7008Y-1.7346
X6.8944Y-2.4571
X6.9927Y-3.9841
X7.088Y-3.1797
X7.3979Y-1.4459
X7.5915Y-2.1684
X7.7851Y-2.891
X7.8622Y-3.7498
X8.0695Y-1.0622
X8.2631Y-1.7847
X8.4567Y-2.5072
X8.843Y-1.0587
X9.0366Y-1.7812
X9.2302Y-2.5038
X9.6929Y-1.3404
X9.8865Y-2.063
X10.0801Y-2.7855
X10.5248Y-1.4028
X10.6597Y-3.8687
X10.7184Y-2.1254
T3
X2.0717Y-3.9776
X9.2478Y-3.8662
T4
X0.0715Y-2.2822
X0.0875Y-2.2864
X0.1396Y-4.0171
X0.1562Y-4.0171
X0.2651Y-1.5596
X0.2811Y-1.5639
X0.4738Y-2.39
X0.4898Y-2.3943
X0.5562Y-4.0171
X0.5727Y-4.0171
X0.6674Y-1.6674
X0.6834Y-1.6717
X0.7098Y-2.9423
X0.7258Y-2.9466
X0.9034Y-2.2198
X0.9194Y-2.224
X1.097Y-1.4972
X1.1121Y-3.0501
X1.113Y-1.5015
X1.1281Y-3.0544
X1.3057Y-2.3276
X1.3217Y-2.3319
X1.4993Y-1.605
X1.5153Y-1.6093
X1.5597Y-2.6606
X1.5757Y-2.6648
X1.7533Y-1.938
X1.7693Y-1.9423
X1.9469Y-1.2155
X1.962Y-2.7684
X1.9629Y-1.2197
X1.978Y-2.7726
X2.1557Y-2.0458
X2.1716Y-2.0501
X2.3332Y-2.664
X2.3492Y-2.6683
X2.3493Y-1.3233
X2.3652Y-1.3276
X2.5268Y-1.9415
X2.5428Y-1.9458
X2.7204Y-1.2189
X2.7355Y-2.7718
X2.7364Y-1.2232
X2.7515Y-2.7761
X2.9276Y-3.9066
X2.9291Y-2.0493
X2.9436Y-3.9108
X2.9451Y-2.0536
X3.0048Y-3.0478
X3.0208Y-3.052
X3.1227Y-1.3267
X3.1387Y-1.331
X3.1984Y-2.3252
X3.2144Y-2.3295
X3.33Y-4.0144
X3.346Y-4.0186
X3.392Y-1.6027
X3.4071Y-3.1556
X3.408Y-1.607
X3.4231Y-3.1599
X3.6007Y-2.433
X3.6167Y-2.4373
X3.7019Y-3.3364
X3.7178Y-3.3407
X3.7943Y-1.7105
X3.7971Y-4.1448
X3.8103Y-1.7148
X3.8131Y-4.1491
X3.8955Y-2.6139
X3.9114Y-2.6182
X4.0891Y-1.8914
X4.1042Y-3.4442
X4.105Y-1.8956
X4.1202Y-3.4485
X4.1995Y-4.2526
X4.2154Y-4.2569
X4.2978Y-2.7217
X4.3138Y-2.726
X4.4914Y-1.9992
X4.5074Y-2.0034
X4.5678Y-4.162
X4.5838Y-4.1663
X4.9701Y-4.2698
X4.9861Y-4.2741
X5.8572Y-4.2741
X5.8732Y-4.2699
X6.2595Y-4.1663
X6.2755Y-4.1621
X6.3359Y-2.0035
X6.3519Y-1.9993
X6.5295Y-2.7261
X6.5455Y-2.7218
X6.6279Y-4.2531
X6.6438Y-4.2488
X6.7231Y-3.4486
X6.7383Y-1.8957
X6.7391Y-3.4443
X6.7542Y-1.8914
X6.9319Y-2.6183
X6.9478Y-2.614
X7.0302Y-4.1453
X7.033Y-1.7149
X7.0462Y-4.141
X7.049Y-1.7106
X7.1255Y-3.3408
X7.1415Y-3.3365
X7.2266Y-2.4374
X7.2426Y-2.4331
X7.4202Y-3.1599
X7.4353Y-1.607
X7.4362Y-3.1557
X7.4513Y-1.6028
X7.4973Y-4.0187
X7.5133Y-4.0144
X7.6289Y-2.3296
X7.6449Y-2.3253
X7.7046Y-1.3311
X7.7206Y-1.3268
X7.8225Y-3.0521
X7.8385Y-3.0479
X7.8982Y-2.0537
X7.8997Y-3.9109
X7.9142Y-2.0494
X7.9157Y-3.9066
X8.0918Y-2.7762
X8.1069Y-1.2233
X8.1078Y-2.7719
X8.1229Y-1.219
X8.3005Y-1.9458
X8.3165Y-1.9416
X8.4781Y-1.3276
X8.4941Y-1.3234
X8.4941Y-2.6684
X8.5101Y-2.6641
X8.6717Y-2.0502
X8.6877Y-2.0459
X8.8653Y-2.7727
X8.8804Y-1.2198
X8.8813Y-2.7685
X8.8964Y-1.2156
X9.074Y-1.9424
X9.09Y-1.9381
X9.2676Y-2.6649
X9.2836Y-2.6606
X9.328Y-1.6094
X9.344Y-1.6051
X9.5216Y-2.3319
X9.5376Y-2.3277
X9.7152Y-3.0545
X9.7303Y-1.5016
X9.7312Y-3.0502
X9.7463Y-1.4973
X9.9239Y-2.2241
X9.9399Y-2.2199
X10.1175Y-2.9467
X10.1335Y-2.9424
X10.1599Y-1.6718
X10.1759Y-1.6675
X10.2377Y-4.034
X10.2542Y-4.034
X10.3535Y-2.3943
X10.3695Y-2.3901
X10.5622Y-1.564
X10.5782Y-1.5597
X10.6542Y-4.034
X10.6707Y-4.034
X10.7558Y-2.2865
X10.7718Y-2.2823
T5
X0.7814Y-2.0198
T6
X0.0523Y-2.4299
X0.1323Y-2.5055
X0.1593Y-4.1647
X0.22Y-2.5645
X0.2459Y-1.7073
X0.2562Y-4.2171
X0.3259Y-1.783
X0.3562Y-4.2513
X0.3997Y-2.4736
X0.4136Y-1.8419
X0.5062Y-4.1171
X0.5933Y-1.7511
X0.6906Y-3.09
X0.7706Y-3.1657
X0.8583Y-3.2246
X0.8842Y-2.3675
X0.9642Y-2.4431
X1.038Y-3.1338
X1.0519Y-2.5021
X1.0778Y-1.6449
X1.1578Y-1.7206
X1.2316Y-2.4112
X1.2455Y-1.7795
X1.4252Y-1.6887
X1.5405Y-2.8083
X1.6205Y-2.8839
X1.7082Y-2.9429
X1.7341Y-2.0857
X1.8141Y-2.1614
X1.8879Y-2.852
X1.9018Y-2.2203
X1.9277Y-1.3632
X2.0077Y-1.4388
X2.0815Y-2.1295
X2.0954Y-1.4978
X2.2751Y-1.4069
X2.314Y-2.8117
X2.394Y-2.8874
X2.4817Y-2.9463
X2.5076Y-2.0892
X2.5876Y-2.1648
X2.6614Y-2.8555
X2.6753Y-2.2238
X2.7012Y-1.3666
X2.7812Y-1.4423
X2.855Y-2.1329
X2.8689Y-1.5012
X2.9084Y-4.0543
X2.9856Y-3.1955
X2.9884Y-4.1299
X3.0486Y-1.4104
X3.0656Y-3.2711
X3.0762Y-4.1889
X3.1533Y-3.3301
X3.1792Y-2.4729
X3.2558Y-4.098
X3.2592Y-2.5486
X3.333Y-3.2392
X3.3469Y-2.6075
X3.3728Y-1.7504
X3.4528Y-1.826
X3.5266Y-2.5167
X3.5405Y-1.885
X3.6827Y-3.4841
X3.7202Y-1.7941
X3.7627Y-3.5598
X3.7779Y-4.2925
X3.8504Y-3.6188
X3.8579Y-4.3682
X3.8763Y-2.7616
X3.9457Y-4.4271
X3.9563Y-2.8372
X4.03Y-3.5279
X4.044Y-2.8962
X4.0699Y-2.0391
X4.1253Y-4.3363
X4.1499Y-2.1147
X4.2236Y-2.8054
X4.2376Y-2.1737
X4.4172Y-2.0828
X4.5486Y-4.3097
X4.6286Y-4.3853
X4.7163Y-4.4443
X4.896Y-4.3535
X5.9144Y-4.4117
X6.0215Y-4.4372
X6.127Y-4.4444
X6.2371Y-4.2759
X6.3932Y-2.141
X6.5003Y-2.1666
X6.5868Y-2.8636
X6.6057Y-2.1738
X6.6851Y-4.3906
X6.6939Y-2.8891
X6.7159Y-2.0053
X6.7804Y-3.5861
X6.7922Y-4.4161
X6.7993Y-2.8963
X6.8875Y-3.6116
X6.8976Y-4.4233
X6.9095Y-2.7278
X6.9929Y-3.6188
X7.0078Y-4.2548
X7.0902Y-1.8524
X7.1031Y-3.4503
X7.1973Y-1.8779
X7.2838Y-2.5749
X7.3028Y-1.8851
X7.3909Y-2.6004
X7.4129Y-1.7166
X7.4774Y-3.2975
X7.4964Y-2.6076
X7.5546Y-4.1562
X7.5845Y-3.323
X7.6065Y-2.4391
X7.6617Y-4.1817
X7.69Y-3.3302
X7.7618Y-1.4686
X7.7671Y-4.1889
X7.8001Y-3.1617
X7.8689Y-1.4941
X7.8773Y-4.0204
X7.9554Y-2.1912
X7.9744Y-1.5013
X8.0625Y-2.2167
X8.0845Y-1.3328
X8.149Y-2.9137
X8.168Y-2.2239
X8.2561Y-2.9392
X8.2781Y-2.0554
X8.3616Y-2.9464
X8.4717Y-2.7779
X8.5353Y-1.4652
X8.6424Y-1.4907
X8.7289Y-2.1877
X8.7479Y-1.4979
X8.836Y-2.2132
X8.858Y-1.3294
X8.9225Y-2.9102
X8.9415Y-2.2204
X9.0296Y-2.9358
X9.0516Y-2.0519
X9.1351Y-2.943
X9.2452Y-2.7745
X9.3852Y-1.7469
X9.4923Y-1.7724
X9.5788Y-2.4695
X9.5978Y-1.7796
X9.6859Y-2.495
X9.7079Y-1.6111
X9.7724Y-3.192
X9.7914Y-2.5022
X9.8795Y-3.2175
X9.9015Y-2.3337
X9.985Y-3.2247
X10.0951Y-3.0562
X10.2171Y-1.8093
X10.2573Y-4.1817
X10.3242Y-1.8348
X10.3542Y-4.234
X10.4107Y-2.5319
X10.4297Y-1.842
X10.4542Y-4.2683
X10.5178Y-2.5574
X10.5398Y-1.6735
X10.6042Y-4.134
X10.6233Y-2.5646
X10.7334Y-2.3961
T7
X0.2807Y-2.3382
X0.3562Y-4.0171
X0.4743Y-1.6157
X0.9189Y-2.9984
X1.1126Y-2.2758
X1.3062Y-1.5533
X1.7689Y-2.7166
X1.9625Y-1.9941
X2.1561Y-1.2715
X2.5424Y-2.7201
X2.736Y-1.9975
X2.9296Y-1.275
X3.1368Y-3.9626
X3.2139Y-3.1038
X3.4076Y-2.3813
X3.6012Y-1.6587
X3.911Y-3.3925
X4.0063Y-4.2009
X4.1046Y-2.6699
X4.2982Y-1.9474
X4.777Y-4.218
X6.0663Y-4.2181
X6.5451Y-1.9475
X6.7387Y-2.67
X6.837Y-4.197
X6.9323Y-3.3926
X7.2422Y-1.6588
X7.4358Y-2.3814
X7.6294Y-3.1039
X7.7065Y-3.9627
X7.9137Y-1.2751
X8.1074Y-1.9976
X8.301Y-2.7201
X8.6872Y-1.2716
X8.8808Y-1.9941
X9.0744Y-2.7167
X9.5372Y-1.5534
X9.7308Y-2.2759
X9.9244Y-2.9984
X10.3691Y-1.6158
X10.4542Y-4.034
X10.5627Y-2.3383
T8
X0.2807Y-2.3382
X0.3562Y-4.0171
X0.4743Y-1.6157
X0.9189Y-2.9984
X1.1126Y-2.2758
X1.3062Y-1.5533
X1.7689Y-2.7166
X1.9625Y-1.9941
X2.1561Y-1.2715
X2.5424Y-2.7201
X2.736Y-1.9975
X2.9296Y-1.275
X3.1368Y-3.9626
X3.2139Y-3.1038
X3.4076Y-2.3813
X3.6012Y-1.6587
X3.911Y-3.3925
X4.0063Y-4.2009
X4.1046Y-2.6699
X4.2982Y-1.9474
X4.777Y-4.218
X6.0663Y-4.2181
X6.5451Y-1.9475
X6.7387Y-2.67
X6.837Y-4.197
X6.9323Y-3.3926
X7.2422Y-1.6588
X7.4358Y-2.3814
X7.6294Y-3.1039
X7.7065Y-3.9627
X7.9137Y-1.2751
X8.1074Y-1.9976
X8.301Y-2.7201
X8.6872Y-1.2716
X8.8808Y-1.9941
X9.0744Y-2.7167
X9.5372Y-1.5534
X9.7308Y-2.2759
X9.9244Y-2.9984
X10.3691Y-1.6158
X10.4542Y-4.034
X10.5627Y-2.3383
T5
G00X-0.2403Y-3.0868
M15
G01X-0.1025Y-3.0868
M16
G05
G00X4.807Y-2.7128
M15
G01X4.866Y-2.7128
M16
G05
G00X7.2597Y-4.2167
M15
G01X7.3188Y-4.2167
M16
G05
G00X9.9979Y-1.9608
M15
G01X10.057Y-1.9608
M16
G05
G00X10.9014Y-3.0868
M15
G01X11.0392Y-3.0868
M16
G05
T0
M30
