%TF.GenerationSoftware,KiCad,Pcbnew,(6.0.0)*%
%TF.CreationDate,2022-07-03T18:01:25-07:00*%
%TF.ProjectId,ffkb,66666b62-2e6b-4696-9361-645f70636258,rev?*%
%TF.SameCoordinates,Original*%
%TF.FileFunction,Copper,L1,Top*%
%TF.FilePolarity,Positive*%
%FSLAX46Y46*%
G04 Gerber Fmt 4.6, Leading zero omitted, Abs format (unit mm)*
G04 Created by KiCad (PCBNEW (6.0.0)) date 2022-07-03 18:01:25*
%MOMM*%
%LPD*%
G01*
G04 APERTURE LIST*
G04 Aperture macros list*
%AMRoundRect*
0 Rectangle with rounded corners*
0 $1 Rounding radius*
0 $2 $3 $4 $5 $6 $7 $8 $9 X,Y pos of 4 corners*
0 Add a 4 corners polygon primitive as box body*
4,1,4,$2,$3,$4,$5,$6,$7,$8,$9,$2,$3,0*
0 Add four circle primitives for the rounded corners*
1,1,$1+$1,$2,$3*
1,1,$1+$1,$4,$5*
1,1,$1+$1,$6,$7*
1,1,$1+$1,$8,$9*
0 Add four rect primitives between the rounded corners*
20,1,$1+$1,$2,$3,$4,$5,0*
20,1,$1+$1,$4,$5,$6,$7,0*
20,1,$1+$1,$6,$7,$8,$9,0*
20,1,$1+$1,$8,$9,$2,$3,0*%
%AMHorizOval*
0 Thick line with rounded ends*
0 $1 width*
0 $2 $3 position (X,Y) of the first rounded end (center of the circle)*
0 $4 $5 position (X,Y) of the second rounded end (center of the circle)*
0 Add line between two ends*
20,1,$1,$2,$3,$4,$5,0*
0 Add two circle primitives to create the rounded ends*
1,1,$1,$2,$3*
1,1,$1,$4,$5*%
%AMRotRect*
0 Rectangle, with rotation*
0 The origin of the aperture is its center*
0 $1 length*
0 $2 width*
0 $3 Rotation angle, in degrees counterclockwise*
0 Add horizontal line*
21,1,$1,$2,0,0,$3*%
G04 Aperture macros list end*
%TA.AperFunction,ComponentPad*%
%ADD10RotRect,2.000000X2.000000X165.000000*%
%TD*%
%TA.AperFunction,ComponentPad*%
%ADD11C,2.000000*%
%TD*%
%TA.AperFunction,ComponentPad*%
%ADD12RotRect,2.000000X2.000000X15.000000*%
%TD*%
%TA.AperFunction,ComponentPad*%
%ADD13HorizOval,2.000000X0.129410X0.482963X-0.129410X-0.482963X0*%
%TD*%
%TA.AperFunction,ComponentPad*%
%ADD14C,1.524000*%
%TD*%
%TA.AperFunction,ComponentPad*%
%ADD15HorizOval,1.524000X0.000000X0.000000X0.000000X0.000000X0*%
%TD*%
%TA.AperFunction,ComponentPad*%
%ADD16HorizOval,2.000000X-0.129410X0.482963X0.129410X-0.482963X0*%
%TD*%
%TA.AperFunction,ComponentPad*%
%ADD17HorizOval,1.524000X0.000000X0.000000X0.000000X0.000000X0*%
%TD*%
%TA.AperFunction,ComponentPad*%
%ADD18R,2.000000X2.000000*%
%TD*%
%TA.AperFunction,SMDPad,CuDef*%
%ADD19R,1.501140X0.899160*%
%TD*%
%TA.AperFunction,ComponentPad*%
%ADD20RoundRect,0.425000X0.425000X-0.425000X0.425000X0.425000X-0.425000X0.425000X-0.425000X-0.425000X0*%
%TD*%
%TA.AperFunction,ComponentPad*%
%ADD21O,1.700000X1.700000*%
%TD*%
%TA.AperFunction,ComponentPad*%
%ADD22O,1.600000X2.000000*%
%TD*%
%TA.AperFunction,ComponentPad*%
%ADD23RoundRect,0.425000X0.300520X-0.520517X0.520517X0.300520X-0.300520X0.520517X-0.520517X-0.300520X0*%
%TD*%
%TA.AperFunction,ComponentPad*%
%ADD24HorizOval,1.700000X0.000000X0.000000X0.000000X0.000000X0*%
%TD*%
%TA.AperFunction,ComponentPad*%
%ADD25R,1.752600X1.752600*%
%TD*%
%TA.AperFunction,ComponentPad*%
%ADD26C,1.752600*%
%TD*%
%TA.AperFunction,ComponentPad*%
%ADD27RoundRect,0.425000X-0.300520X-0.520517X0.520517X-0.300520X0.300520X0.520517X-0.520517X0.300520X0*%
%TD*%
%TA.AperFunction,ComponentPad*%
%ADD28HorizOval,1.700000X0.000000X0.000000X0.000000X0.000000X0*%
%TD*%
%TA.AperFunction,ComponentPad*%
%ADD29RoundRect,0.425000X-0.520517X-0.300520X0.300520X-0.520517X0.520517X0.300520X-0.300520X0.520517X0*%
%TD*%
%TA.AperFunction,ComponentPad*%
%ADD30HorizOval,1.700000X0.000000X0.000000X0.000000X0.000000X0*%
%TD*%
%TA.AperFunction,ComponentPad*%
%ADD31O,1.000000X2.100000*%
%TD*%
%TA.AperFunction,ComponentPad*%
%ADD32O,1.000000X1.600000*%
%TD*%
%TA.AperFunction,ViaPad*%
%ADD33C,0.800000*%
%TD*%
%TA.AperFunction,Conductor*%
%ADD34C,0.254000*%
%TD*%
%TA.AperFunction,Conductor*%
%ADD35C,0.200000*%
%TD*%
G04 APERTURE END LIST*
D10*
%TO.P,SW42,A,A*%
%TO.N,ENC1A*%
X54631885Y-98514605D03*
D11*
%TO.P,SW42,B,B*%
%TO.N,ENC1B*%
X55925980Y-93684976D03*
%TO.P,SW42,C,C*%
%TO.N,GND*%
X55278933Y-96099791D03*
%TO.P,SW42,S1,S1*%
%TO.N,col1*%
X41920056Y-89932100D03*
%TO.P,SW42,S2,S2*%
%TO.N,Net-(D81-Pad2)*%
X40625961Y-94761729D03*
%TD*%
D12*
%TO.P,SW43,A,A*%
%TO.N,ENC2A*%
X219490108Y-93684727D03*
D11*
%TO.P,SW43,B,B*%
%TO.N,ENC2B*%
X220784203Y-98514356D03*
%TO.P,SW43,C,C*%
%TO.N,GND*%
X220137155Y-96099542D03*
%TO.P,SW43,S1,S1*%
%TO.N,col0*%
X234790127Y-94761480D03*
%TO.P,SW43,S2,S2*%
%TO.N,Net-(D82-Pad2)*%
X233496032Y-89931851D03*
%TD*%
D13*
%TO.P,SW44,A,A*%
%TO.N,ENC1A*%
X42808528Y-98400601D03*
%TO.P,SW44,B,B*%
%TO.N,ENC1B*%
X45261979Y-99058001D03*
%TO.P,SW44,C,C*%
%TO.N,GND*%
X47715431Y-99715402D03*
%TO.P,SW44,NC,NC*%
%TO.N,unconnected-(SW44-PadNC)*%
X50168882Y-100372802D03*
D14*
%TO.P,SW44,S1,S1*%
%TO.N,col1*%
X39483699Y-99217921D03*
D15*
%TO.P,SW44,S2,S2*%
%TO.N,Net-(D81-Pad2)*%
X40001337Y-97286070D03*
%TD*%
D16*
%TO.P,SW45,A,A*%
%TO.N,ENC2A*%
X225080283Y-100831400D03*
%TO.P,SW45,B,B*%
%TO.N,ENC2B*%
X227533735Y-100174000D03*
%TO.P,SW45,C,C*%
%TO.N,GND*%
X229987187Y-99516600D03*
%TO.P,SW45,NC,NC*%
%TO.N,unconnected-(SW45-PadNC)*%
X232440638Y-98859199D03*
D14*
%TO.P,SW45,S1,S1*%
%TO.N,col0*%
X222609557Y-103201635D03*
D17*
%TO.P,SW45,S2,S2*%
%TO.N,Net-(D82-Pad2)*%
X222091919Y-101269783D03*
%TD*%
D18*
%TO.P,SW48,A,A*%
%TO.N,sda*%
X130244891Y-80429260D03*
D11*
%TO.P,SW48,B,B*%
%TO.N,scl*%
X130244891Y-85429260D03*
%TO.P,SW48,C,C*%
%TO.N,GND*%
X130244891Y-82929260D03*
%TO.P,SW48,S1,S1*%
%TO.N,col1*%
X144744891Y-85429260D03*
%TO.P,SW48,S2,S2*%
%TO.N,Net-(D87-Pad2)*%
X144744891Y-80429260D03*
%TD*%
D19*
%TO.P,D57,1,VDD*%
%TO.N,+5V*%
X140145990Y-70604385D03*
%TO.P,D57,2,DOUT*%
%TO.N,unconnected-(D57-Pad2)*%
X140145990Y-67403985D03*
%TO.P,D57,3,VSS*%
%TO.N,GND*%
X135147270Y-67403985D03*
%TO.P,D57,4,DIN*%
%TO.N,Net-(D56-Pad2)*%
X135147270Y-70604385D03*
%TD*%
D20*
%TO.P,J5,1,Pin_1*%
%TO.N,+5V*%
X112136636Y-34004178D03*
D21*
%TO.P,J5,2,Pin_2*%
%TO.N,GND*%
X114676636Y-34004178D03*
%TO.P,J5,3,Pin_3*%
%TO.N,3.3V*%
X117216636Y-34004178D03*
%TO.P,J5,4,Pin_4*%
%TO.N,GND*%
X119756636Y-34004178D03*
%TD*%
D22*
%TO.P,Brd1,1,GND*%
%TO.N,GND*%
X141026629Y-79654188D03*
%TO.P,Brd1,2,VCC*%
%TO.N,+5V*%
X138486629Y-79654188D03*
%TO.P,Brd1,3,SCL*%
%TO.N,scl*%
X135946629Y-79654188D03*
%TO.P,Brd1,4,SDA*%
%TO.N,sda*%
X133406629Y-79654188D03*
%TD*%
D23*
%TO.P,J6,1,Pin_1*%
%TO.N,+5V*%
X81374904Y-69505283D03*
D24*
%TO.P,J6,2,Pin_2*%
%TO.N,GND*%
X83828355Y-70162684D03*
%TO.P,J6,3,Pin_3*%
%TO.N,SWC*%
X86281807Y-70820084D03*
%TO.P,J6,4,Pin_4*%
%TO.N,SWD*%
X88735258Y-71477485D03*
%TD*%
D25*
%TO.P,U4,1,TX0/PD3*%
%TO.N,led*%
X130076635Y-25934179D03*
D26*
%TO.P,U4,2,RX1/PD2*%
%TO.N,row0*%
X130076635Y-28474179D03*
%TO.P,U4,3,GND*%
%TO.N,GND*%
X130076635Y-31014179D03*
%TO.P,U4,4,GND*%
X130076635Y-33554179D03*
%TO.P,U4,5,2/PD1*%
%TO.N,sda*%
X130076635Y-36094179D03*
%TO.P,U4,6,3/PD0*%
%TO.N,scl*%
X130076635Y-38634179D03*
%TO.P,U4,7,4/PD4*%
%TO.N,col5*%
X130076635Y-41174179D03*
%TO.P,U4,8,5/PC6*%
%TO.N,col4*%
X130076635Y-43714179D03*
%TO.P,U4,9,6/PD7*%
%TO.N,col3*%
X130076635Y-46254179D03*
%TO.P,U4,10,7/PE6*%
%TO.N,col2*%
X130076635Y-48794179D03*
%TO.P,U4,11,8/PB4*%
%TO.N,col1*%
X130076635Y-51334179D03*
%TO.P,U4,12,9/PB5*%
%TO.N,col0*%
X130305235Y-53874179D03*
%TO.P,U4,13,10/PB6*%
%TO.N,ENC2A*%
X145316635Y-53874179D03*
%TO.P,U4,14,16/PB2*%
%TO.N,col6*%
X145316635Y-51334179D03*
%TO.P,U4,15,14/PB3*%
%TO.N,col7*%
X145316635Y-48794179D03*
%TO.P,U4,16,15/PB1*%
%TO.N,row5*%
X145316635Y-46254179D03*
%TO.P,U4,17,A0/PF7*%
%TO.N,row4*%
X145316635Y-43714179D03*
%TO.P,U4,18,A1/PF6*%
%TO.N,row3*%
X145316635Y-41174179D03*
%TO.P,U4,19,A2/PF5*%
%TO.N,row2*%
X145316635Y-38634179D03*
%TO.P,U4,20,A3/PF4*%
%TO.N,row1*%
X145316635Y-36094179D03*
%TO.P,U4,21,VCC*%
%TO.N,+5V*%
X145316635Y-33554179D03*
%TO.P,U4,22,RST*%
%TO.N,RESET*%
X145316635Y-31014179D03*
%TO.P,U4,23,GND*%
%TO.N,GND*%
X145316635Y-28474179D03*
%TO.P,U4,24,B0*%
%TO.N,RAW*%
X145316635Y-25934179D03*
%TO.P,U4,25,B7*%
%TO.N,ENC1B*%
X132616635Y-53874179D03*
%TO.P,U4,26,D5*%
%TO.N,ENC1A*%
X135156635Y-53874179D03*
%TO.P,U4,27,C7*%
%TO.N,unconnected-(U4-Pad27)*%
X137696635Y-53874179D03*
%TO.P,U4,28,F1*%
%TO.N,ENC2B*%
X140236635Y-53874179D03*
%TO.P,U4,29,F0*%
%TO.N,unconnected-(U4-Pad29)*%
X142776635Y-53874179D03*
%TD*%
D27*
%TO.P,J1,1,Pin_1*%
%TO.N,PA10*%
X154913208Y-69954808D03*
D28*
%TO.P,J1,2,Pin_2*%
%TO.N,PB12*%
X155570609Y-72408259D03*
%TO.P,J1,3,Pin_3*%
%TO.N,PB13*%
X156228009Y-74861711D03*
%TO.P,J1,4,Pin_4*%
%TO.N,PB14*%
X156885410Y-77315162D03*
%TO.P,J1,5,Pin_5*%
%TO.N,PB15*%
X157542810Y-79768614D03*
%TO.P,J1,6,Pin_6*%
%TO.N,PC15*%
X158200210Y-82222066D03*
%TO.P,J1,7,Pin_7*%
%TO.N,PA1*%
X158857611Y-84675517D03*
%TD*%
D29*
%TO.P,J4,1,Pin_1*%
%TO.N,sda*%
X119841103Y-79501908D03*
D30*
%TO.P,J4,2,Pin_2*%
%TO.N,scl*%
X119183702Y-81955359D03*
%TO.P,J4,3,Pin_3*%
%TO.N,+5V*%
X118526302Y-84408811D03*
%TO.P,J4,4,Pin_4*%
%TO.N,3.3V*%
X117868901Y-86862262D03*
%TO.P,J4,5,Pin_5*%
%TO.N,GND*%
X117211501Y-89315714D03*
%TD*%
D31*
%TO.P,J2,S1,SHIELD*%
%TO.N,GND*%
X8556637Y-24274185D03*
D32*
X8556637Y-20094185D03*
D31*
X17196637Y-24274185D03*
D32*
X17196637Y-20094185D03*
%TD*%
D33*
%TO.N,+5V*%
X6940000Y-27450000D03*
%TO.N,PA9*%
X123346628Y-28604187D03*
%TO.N,GND*%
X17190000Y-22580000D03*
%TO.N,USB_DN*%
X13090000Y-27060000D03*
%TO.N,GND*%
X228519566Y-93915842D03*
X92646632Y-115579180D03*
X75896642Y-23104186D03*
X141021632Y-83529184D03*
X228284297Y-115329184D03*
X278496633Y-23054179D03*
X121628824Y-94368468D03*
X142871630Y-115579183D03*
X-742554Y-76614998D03*
X24989685Y-71382760D03*
X72695594Y-71605474D03*
X-4078363Y-86429180D03*
X129246634Y-60329179D03*
X49114922Y-94458230D03*
X121655001Y-88432089D03*
X122946631Y-76404182D03*
X58014032Y-96840469D03*
X132746630Y-76104178D03*
X6489677Y-76707763D03*
X14446629Y-34004178D03*
X132996635Y-58154184D03*
X30846634Y-23104181D03*
X278246635Y-115329184D03*
X18846637Y-34004183D03*
X129246637Y-64204183D03*
X60063442Y-89288566D03*
X125446628Y-58129186D03*
X2346637Y-86404179D03*
X1896630Y-46379185D03*
X164671639Y-23054181D03*
X58096631Y-115754179D03*
X23296635Y-115754184D03*
X194696635Y-114854183D03*
X147228823Y-79568471D03*
X260521629Y-115329183D03*
X-4428368Y-46454177D03*
X71543848Y-75903846D03*
X203296633Y-23054184D03*
X129246628Y-66104181D03*
X119721629Y-31154182D03*
X115946630Y-23104183D03*
X-4078366Y-115279178D03*
X133721552Y-82929256D03*
X255021627Y-23054184D03*
X147046635Y-23604186D03*
X74621968Y-64319546D03*
X-4428365Y-23604178D03*
X11546633Y-33204181D03*
X67031046Y-91103770D03*
X156327288Y-60044285D03*
X114676631Y-31084179D03*
X129489534Y-95129183D03*
%TO.N,+5V*%
X137796632Y-115179185D03*
X130763210Y-87554805D03*
X126255005Y-87832087D03*
X161701772Y-113458239D03*
X52546625Y-115179184D03*
X157496629Y-33254181D03*
X-3253371Y-26379185D03*
X-3453370Y-57929182D03*
X138538209Y-87554808D03*
X72646634Y-24904182D03*
X201257867Y-24008604D03*
X138546629Y-82504178D03*
X255546633Y-114379175D03*
X87471637Y-115179189D03*
X-3378365Y-66663233D03*
X6646628Y-34104178D03*
X18121636Y-115179189D03*
X138588205Y-94929808D03*
X162632872Y-23983607D03*
X27546628Y-24904180D03*
X219421294Y-114379179D03*
X5764684Y-73557759D03*
X276096633Y-114379183D03*
X161648655Y-115179181D03*
X-2180053Y-73652494D03*
X14046631Y-36004186D03*
X142846633Y-82504177D03*
X274582863Y-24158600D03*
X277646632Y-64129182D03*
X-3378364Y-63079176D03*
X141600000Y-73100000D03*
X274571630Y-52779187D03*
X-3178373Y-114529181D03*
X148888209Y-94929807D03*
X155191676Y-110026234D03*
X188721628Y-114379180D03*
X252757865Y-24158605D03*
X112646627Y-24904189D03*
X8646629Y-34004185D03*
%TO.N,row0*%
X4980802Y-35321198D03*
X103364683Y-28382759D03*
X142652287Y-28469284D03*
X175021299Y-40500742D03*
X144246630Y-58654193D03*
X45414688Y-28382768D03*
X23957720Y-34794879D03*
X65264687Y-28382758D03*
X157096639Y-57400656D03*
X27714683Y-28732760D03*
X157341636Y-47929713D03*
X85314686Y-28382758D03*
%TO.N,row1*%
X116898041Y-64419206D03*
X22459791Y-53346009D03*
X107963041Y-99277791D03*
X151068787Y-63547680D03*
X161488672Y-63537994D03*
X79564152Y-54477518D03*
X541132Y-52663024D03*
X43264285Y-45061579D03*
X168997621Y-99117563D03*
X62550483Y-44949400D03*
X97243802Y-61906491D03*
X179305435Y-54553552D03*
%TO.N,row2*%
X160892367Y-64500115D03*
X147888209Y-91629809D03*
X16301808Y-70344681D03*
X74594818Y-73023295D03*
X147888206Y-99604806D03*
X167222036Y-84987628D03*
X4164680Y-70482766D03*
X104994033Y-98540729D03*
X92326246Y-80259073D03*
X109200381Y-82580532D03*
X150068787Y-64544123D03*
X38503871Y-61282202D03*
X57632927Y-63301991D03*
X184261139Y-74984294D03*
%TO.N,row3*%
X238345055Y-48483348D03*
X237953600Y-64409086D03*
X147399133Y-65938779D03*
X196568692Y-48858655D03*
X212827209Y-43466923D03*
X254373848Y-39529703D03*
X221609903Y-67547095D03*
%TO.N,led*%
X154287287Y-57604185D03*
X151846629Y-22704181D03*
X124846635Y-25904177D03*
X123146636Y-22704182D03*
X143921634Y-57604186D03*
%TO.N,Net-(D41-Pad2)*%
X-2378368Y-56954179D03*
X-2353367Y-64504183D03*
X-3278367Y-49329184D03*
X-1078367Y-50404183D03*
%TO.N,Net-(D42-Pad2)*%
X18496631Y-112329180D03*
X-1978370Y-113954185D03*
X-878365Y-90854182D03*
X-2903364Y-89529189D03*
%TO.N,Net-(D43-Pad2)*%
X18321633Y-110729183D03*
X52846639Y-112354180D03*
%TO.N,Net-(D45-Pad2)*%
X51896633Y-110679178D03*
X87771639Y-112379181D03*
%TO.N,Net-(D46-Pad2)*%
X87771630Y-110829182D03*
X137846632Y-112329184D03*
%TO.N,Net-(D47-Pad2)*%
X189421637Y-112454179D03*
X137046631Y-110779183D03*
%TO.N,Net-(D48-Pad2)*%
X189396629Y-110829183D03*
X223471627Y-112304184D03*
%TO.N,Net-(D49-Pad2)*%
X258146630Y-112654178D03*
X222996631Y-110704181D03*
%TO.N,Net-(D50-Pad2)*%
X255696636Y-110779182D03*
X277421633Y-110779181D03*
%TO.N,Net-(D52-Pad2)*%
X276746633Y-54979185D03*
X276721631Y-65004181D03*
%TO.N,Net-(D70-Pad2)*%
X77946635Y-23904180D03*
X109246629Y-23904181D03*
%TO.N,Net-(D77-Pad2)*%
X69446634Y-23904181D03*
X33146632Y-23904179D03*
%TO.N,RESET*%
X51363728Y-79234403D03*
X64089686Y-29232762D03*
X152882869Y-31383604D03*
X22532713Y-73244881D03*
X18839685Y-73107759D03*
X10539685Y-73507761D03*
X138300000Y-61900000D03*
X152637283Y-61704184D03*
%TO.N,col0*%
X210422021Y-106158379D03*
X16261402Y-54515988D03*
X127375754Y-63282002D03*
X127368788Y-53894129D03*
X237403362Y-100024700D03*
X194021686Y-46883353D03*
%TO.N,col1*%
X126418939Y-51357839D03*
X150726064Y-102051686D03*
X28425357Y-86393533D03*
X42716820Y-87095012D03*
X126418937Y-61432846D03*
X37168561Y-88658938D03*
X40389791Y-41703261D03*
%TO.N,col2*%
X129146633Y-71304182D03*
X109473561Y-81410608D03*
X216413595Y-77135941D03*
X199760417Y-86463946D03*
X112482403Y-69961356D03*
X54398383Y-62871265D03*
X208700597Y-36177999D03*
X118218784Y-48819131D03*
%TO.N,col3*%
X113868790Y-72494127D03*
X130046632Y-72004177D03*
X218841279Y-65718574D03*
X134778311Y-46227072D03*
X208978312Y-26627073D03*
X155278310Y-34827073D03*
X88971753Y-95096442D03*
X119893789Y-46269127D03*
X67528205Y-89350659D03*
X155278309Y-26727074D03*
X70035083Y-61324576D03*
X111984258Y-75808252D03*
X134778311Y-34827074D03*
X236131354Y-61085710D03*
%TO.N,col4*%
X111065573Y-101119988D03*
X132478310Y-27227074D03*
X227678312Y-25127074D03*
X116744133Y-73430684D03*
X91984884Y-69417239D03*
X86017141Y-93373005D03*
X129146634Y-73004184D03*
X132478307Y-43727074D03*
X100039936Y-39193456D03*
X121693790Y-43694129D03*
%TO.N,col5*%
X103738329Y-98204263D03*
X133678310Y-29727075D03*
X110340870Y-74322122D03*
X117025752Y-41382003D03*
X130570133Y-101683610D03*
X246878312Y-25227075D03*
X133678311Y-41127077D03*
X130046637Y-73804184D03*
%TO.N,col6*%
X181778962Y-94698473D03*
X273027800Y-94985680D03*
X159959193Y-98267456D03*
X261927799Y-94985678D03*
X184871288Y-89625254D03*
X149343789Y-51319122D03*
X172684382Y-44525510D03*
X257634598Y-67540191D03*
%TO.N,col7*%
X148293787Y-48794126D03*
X200029884Y-90946958D03*
X273624395Y-66550807D03*
X190467568Y-37482912D03*
X178876112Y-96615096D03*
X204609244Y-87942133D03*
%TO.N,sda*%
X125846629Y-79104177D03*
X94453065Y-79151865D03*
X126282462Y-38362814D03*
X136146629Y-100304178D03*
X74386328Y-69426839D03*
X93806017Y-81566681D03*
X126282461Y-35962814D03*
X87557364Y-33408459D03*
X115246636Y-97404181D03*
%TO.N,scl*%
X82009844Y-56043939D03*
X135896560Y-85429258D03*
X125846636Y-83904179D03*
X76435081Y-74531016D03*
X80425473Y-66593336D03*
X114246630Y-98304180D03*
X127346633Y-70604182D03*
X137146633Y-101104177D03*
X81577781Y-45678934D03*
X129146637Y-70204177D03*
%TO.N,3.3V*%
X117146633Y-36104182D03*
X135046636Y-99704184D03*
X124146634Y-98604182D03*
X124284107Y-36193448D03*
X123946634Y-88023715D03*
%TO.N,Net-(D82-Pad2)*%
X220021774Y-103543283D03*
X232297325Y-96423532D03*
%TO.N,ENC1B*%
X119170462Y-55262135D03*
X58012769Y-85882673D03*
X107814662Y-93809549D03*
X92692511Y-95356258D03*
X93578962Y-92047964D03*
X47250555Y-91370486D03*
%TO.N,ENC1A*%
X133339823Y-56335990D03*
X59670790Y-86456351D03*
X119670440Y-56340255D03*
X108257872Y-94860056D03*
X88814716Y-92634888D03*
X89547622Y-89803082D03*
X43541648Y-95553069D03*
%TO.N,ENC2B*%
X165741686Y-95311513D03*
X226629323Y-96906991D03*
X158528824Y-59168469D03*
X214743225Y-79593393D03*
%TO.N,ENC2A*%
X222920415Y-92724412D03*
X143518091Y-63557735D03*
X157840768Y-65438520D03*
X215353739Y-78394530D03*
X166874910Y-94904331D03*
%TO.N,Net-(D41-Pad4)*%
X-2203367Y-25404179D03*
X24246636Y-24504178D03*
%TO.N,Net-(D87-Pad2)*%
X148127286Y-80444285D03*
%TO.N,row4*%
X145635417Y-66675067D03*
X258307896Y-54211777D03*
X256983974Y-83657782D03*
X265001158Y-81509585D03*
X239958522Y-56436755D03*
X149527800Y-87085680D03*
X197930465Y-48338477D03*
X239640510Y-49067982D03*
X215648515Y-46075602D03*
X233770522Y-47638538D03*
X201818325Y-67484614D03*
X150428824Y-68268469D03*
%TO.N,row5*%
X151428824Y-67068469D03*
X152944729Y-100484373D03*
X95422730Y-97680635D03*
X143568787Y-65394124D03*
X113827005Y-102791663D03*
X73424150Y-91784578D03*
X40809486Y-83200795D03*
X185823802Y-95747804D03*
X214658207Y-90635722D03*
X143988209Y-101604808D03*
X163752398Y-101661819D03*
%TO.N,PA10*%
X132546633Y-81704179D03*
X152011563Y-70732302D03*
X152009293Y-82204188D03*
%TO.N,VDD*%
X120827098Y-65104182D03*
X139900000Y-62600000D03*
X23411258Y-49913653D03*
X23575904Y-35995721D03*
X134300000Y-65300000D03*
X134200000Y-73400000D03*
X121705005Y-62382088D03*
X145400000Y-74000000D03*
X128346634Y-65104184D03*
X8525898Y-37545724D03*
%TO.N,/CC1*%
X8546631Y-30904182D03*
X11646633Y-31304182D03*
%TO.N,Net-(D56-Pad2)*%
X153546630Y-24004182D03*
X161246638Y-24004181D03*
X153678442Y-62504179D03*
%TO.N,PA9*%
X100988204Y-27629807D03*
X92074792Y-73174649D03*
X19846634Y-35104185D03*
X21146628Y-29004187D03*
X17946631Y-35104182D03*
X137596628Y-77354180D03*
%TO.N,PB12*%
X142046631Y-74804181D03*
%TO.N,PB13*%
X142046633Y-76004183D03*
%TO.N,PB14*%
X140446635Y-75104177D03*
%TO.N,RAW*%
X10446632Y-30404183D03*
X15746632Y-30504180D03*
X125746629Y-24004177D03*
X125346634Y-27704183D03*
%TO.N,USB_DP*%
X20146634Y-27304180D03*
X122446631Y-26704182D03*
X13146630Y-31304179D03*
X116661711Y-76489025D03*
X135046630Y-75804178D03*
X20146630Y-31404180D03*
%TO.N,USB_DN*%
X121446632Y-25704187D03*
X115607736Y-77138363D03*
X136346630Y-76104181D03*
%TO.N,PB15*%
X139446632Y-74804180D03*
%TO.N,SWD*%
X135446638Y-74704174D03*
%TO.N,SWC*%
X131900000Y-73700000D03*
%TO.N,PC15*%
X159487184Y-60904182D03*
X164471164Y-80582529D03*
X134821636Y-61404183D03*
%TO.N,PA1*%
X165142362Y-82990876D03*
X159527286Y-57444283D03*
X143096629Y-56854185D03*
%TD*%
D34*
%TO.N,Net-(D41-Pad4)*%
X22671637Y-24504184D02*
X24246636Y-24504178D01*
X22071630Y-25104184D02*
X22671637Y-24504184D01*
X18665816Y-25104184D02*
X22071630Y-25104184D01*
X17810000Y-25960000D02*
X18665816Y-25104184D01*
X14730000Y-25960000D02*
X17810000Y-25960000D01*
X14030000Y-25260000D02*
X14730000Y-25960000D01*
X12070000Y-25260000D02*
X14030000Y-25260000D01*
X10930000Y-26400000D02*
X12070000Y-25260000D01*
X-60000Y-26400000D02*
X10930000Y-26400000D01*
X-1055821Y-25404179D02*
X-60000Y-26400000D01*
X-2203367Y-25404179D02*
X-1055821Y-25404179D01*
%TO.N,+5V*%
X-2260815Y-26379185D02*
X-3253371Y-26379185D01*
X-1190000Y-27450000D02*
X-2260815Y-26379185D01*
X6940000Y-27450000D02*
X-1190000Y-27450000D01*
X11190000Y-27450000D02*
X6940000Y-27450000D01*
X12560000Y-26080000D02*
X11190000Y-27450000D01*
X18010000Y-26460000D02*
X14060000Y-26460000D01*
X14060000Y-26460000D02*
X13680000Y-26080000D01*
X13680000Y-26080000D02*
X12560000Y-26080000D01*
X18615819Y-25854181D02*
X18010000Y-26460000D01*
X22596628Y-25854183D02*
X18615819Y-25854181D01*
X27046635Y-25404187D02*
X23046629Y-25404180D01*
X27546628Y-24904180D02*
X27046635Y-25404187D01*
X23046629Y-25404180D02*
X22596628Y-25854183D01*
%TO.N,GND*%
X17190000Y-22580000D02*
X18290000Y-22580000D01*
X8556637Y-20094185D02*
X17196637Y-20094185D01*
X18814182Y-23104182D02*
X30846634Y-23104181D01*
X18290000Y-22580000D02*
X18814182Y-23104182D01*
X7320000Y-22580000D02*
X17190000Y-22580000D01*
X6305820Y-23594180D02*
X7320000Y-22580000D01*
X-4418363Y-23594178D02*
X6305820Y-23594180D01*
X-4428365Y-23604178D02*
X-4418363Y-23594178D01*
D35*
%TO.N,USB_DN*%
X117246639Y-25704180D02*
X121446632Y-25704187D01*
X28146630Y-25704182D02*
X73546638Y-25704186D01*
X27746634Y-26104184D02*
X28146630Y-25704182D01*
X23246634Y-26204177D02*
X23346627Y-26104179D01*
X20046636Y-26504181D02*
X22946629Y-26504181D01*
X18846630Y-26504178D02*
X20046636Y-26504181D01*
X23346627Y-26104179D02*
X27746634Y-26104184D01*
X22946629Y-26504181D02*
X23246634Y-26204177D01*
X13090000Y-27060000D02*
X18290808Y-27060000D01*
X18290808Y-27060000D02*
X18846630Y-26504178D01*
X73546638Y-25704186D02*
X117246639Y-25704180D01*
D34*
%TO.N,GND*%
X152946628Y-23054186D02*
X152396634Y-23604181D01*
X139371633Y-60329181D02*
X148396635Y-60329178D01*
X119721629Y-31154182D02*
X119861632Y-31014185D01*
X24146631Y-116004178D02*
X57271633Y-116004182D01*
X75896642Y-23104186D02*
X115946630Y-23104183D01*
X255021627Y-23054184D02*
X278496633Y-23054179D01*
X278246635Y-115329184D02*
X260521629Y-115329183D01*
X194221633Y-114854174D02*
X194696635Y-114854183D01*
X49126841Y-94451347D02*
X55278937Y-96099787D01*
X81746288Y-71364764D02*
X80413309Y-71007592D01*
X72695594Y-71605474D02*
X71543848Y-75903846D01*
X120771374Y-89315715D02*
X121655001Y-88432089D01*
X141996630Y-116004186D02*
X142421632Y-115579180D01*
X76639546Y-64860154D02*
X74621968Y-64319546D01*
X12346630Y-33204180D02*
X13146638Y-34004179D01*
X187471632Y-115329187D02*
X193746629Y-115329180D01*
X146128824Y-79568469D02*
X147228823Y-79568471D01*
X137396631Y-83529179D02*
X141021632Y-83529184D01*
X30846634Y-23104181D02*
X75896642Y-23104186D01*
X119721629Y-31154182D02*
X119651632Y-31084182D01*
X142643108Y-79654185D02*
X142828823Y-79468468D01*
X22221632Y-116004183D02*
X22471635Y-115754177D01*
X146446632Y-23254180D02*
X124246634Y-23254184D01*
X117211501Y-89315716D02*
X120771374Y-89315715D01*
X58096631Y-115754179D02*
X58646633Y-115754178D01*
X49114922Y-94458230D02*
X49126841Y-94451347D01*
X143271634Y-115579178D02*
X143696630Y-116004178D01*
X-4353372Y-46379180D02*
X-4428368Y-46454177D01*
X148681523Y-60044283D02*
X148396635Y-60329178D01*
X145628824Y-79068467D02*
X146128824Y-79568469D01*
X220137157Y-96099544D02*
X228445795Y-93873254D01*
X21846632Y-116004183D02*
X22221632Y-116004183D01*
X132446632Y-76404184D02*
X122946631Y-76404182D01*
X142871630Y-115579183D02*
X143271634Y-115579178D01*
X147046635Y-23604186D02*
X146796636Y-23604180D01*
X152396634Y-23604181D02*
X147046635Y-23604186D01*
X143528821Y-78768468D02*
X144728823Y-78768469D01*
X-649780Y-76707765D02*
X-742554Y-76614998D01*
X119861632Y-31014185D02*
X130076639Y-31014186D01*
X22471635Y-115754177D02*
X23296635Y-115754184D01*
X93321631Y-115579179D02*
X93746633Y-116004177D01*
X24989685Y-71382760D02*
X11189683Y-71382757D01*
X58646633Y-115754178D02*
X58896634Y-116004182D01*
X130244892Y-82929258D02*
X133721552Y-82929256D01*
X92146631Y-115579187D02*
X92646632Y-115579180D01*
X57271633Y-116004182D02*
X57521631Y-115754182D01*
X83828353Y-70162683D02*
X81746288Y-71364764D01*
X58896634Y-116004182D02*
X91721636Y-116004177D01*
X203296633Y-23054184D02*
X255021627Y-23054184D01*
X139371633Y-60329181D02*
X129246634Y-60329179D01*
X145328822Y-78768469D02*
X145628824Y-79068467D01*
X6489685Y-76082762D02*
X6489677Y-76707763D01*
X132746630Y-76104178D02*
X132446632Y-76404184D01*
X1896630Y-46379185D02*
X-4353372Y-46379180D01*
X195121635Y-114854180D02*
X195596631Y-115329182D01*
X156327288Y-60044285D02*
X148681523Y-60044283D01*
X23296635Y-115754184D02*
X23896626Y-115754184D01*
X133721552Y-82929256D02*
X136796718Y-82929260D01*
X195596631Y-115329182D02*
X228284297Y-115329184D01*
X143696630Y-116004178D02*
X186796634Y-116004179D01*
X135147270Y-67403978D02*
X130546433Y-67403977D01*
X93746633Y-116004177D02*
X141996630Y-116004186D01*
X137346638Y-83479185D02*
X137396631Y-83529179D01*
X13146638Y-34004179D02*
X14446629Y-34004178D01*
X60124676Y-89253214D02*
X60063442Y-89288566D01*
X-3353372Y-116004187D02*
X-4078366Y-115279178D01*
X58014032Y-96840469D02*
X58008701Y-96831228D01*
X228284297Y-115329184D02*
X260521629Y-115329183D01*
X57521631Y-115754182D02*
X58096631Y-115754179D01*
X67031046Y-91103770D02*
X60124676Y-89253214D01*
X128728820Y-94368468D02*
X129489534Y-95129183D01*
X129246628Y-66104181D02*
X129246637Y-64204183D01*
X164671639Y-23054181D02*
X203296633Y-23054184D01*
X6489677Y-76707763D02*
X-649780Y-76707765D01*
X125446628Y-58129186D02*
X132971633Y-58129183D01*
X146796636Y-23604180D02*
X146446632Y-23254180D01*
X130546433Y-67403977D02*
X129246628Y-66104181D01*
X228445795Y-93873254D02*
X228519566Y-93915842D01*
X142828823Y-79468468D02*
X143528821Y-78768468D01*
X-4053367Y-86404182D02*
X-4078363Y-86429180D01*
X194696635Y-114854183D02*
X195121635Y-114854180D01*
X92646632Y-115579180D02*
X93321631Y-115579179D01*
X76674817Y-64921244D02*
X76639546Y-64860154D01*
X80147677Y-70936417D02*
X79334508Y-69527963D01*
X11546633Y-33204181D02*
X12346630Y-33204180D01*
X121628824Y-94368468D02*
X128728820Y-94368468D01*
X122471639Y-23579180D02*
X121996633Y-23104182D01*
X80413309Y-71007592D02*
X80147677Y-70936417D01*
X186796634Y-116004179D02*
X187471632Y-115329187D01*
X121996633Y-23104182D02*
X115946630Y-23104183D01*
X141026631Y-79654184D02*
X142643108Y-79654185D01*
X79334508Y-69527963D02*
X76674817Y-64921244D01*
X21846632Y-116004183D02*
X-3353372Y-116004187D01*
X142421632Y-115579180D02*
X142871630Y-115579183D01*
X132971633Y-58129183D02*
X132996635Y-58154184D01*
X123921627Y-23579183D02*
X122471639Y-23579180D01*
X164671639Y-23054181D02*
X152946628Y-23054186D01*
X193746629Y-115329180D02*
X194221633Y-114854174D01*
X144728823Y-78768469D02*
X145328822Y-78768469D01*
X136796718Y-82929260D02*
X137346638Y-83479185D01*
X124246634Y-23254184D02*
X123921627Y-23579183D01*
X91721636Y-116004177D02*
X92146631Y-115579187D01*
X2346637Y-86404179D02*
X-4053367Y-86404182D01*
X23896626Y-115754184D02*
X24146631Y-116004178D01*
X14446629Y-34004178D02*
X18846637Y-34004183D01*
X119651632Y-31084182D02*
X114676631Y-31084179D01*
X58008701Y-96831228D02*
X55278933Y-96099793D01*
X11189683Y-71382757D02*
X6489685Y-76082762D01*
%TO.N,+5V*%
X158521636Y-115504181D02*
X158846631Y-115179181D01*
X151246635Y-115504184D02*
X158521636Y-115504181D01*
X195696630Y-114379184D02*
X219421294Y-114379179D01*
X8646629Y-34004185D02*
X6746635Y-34004183D01*
X219421294Y-114379179D02*
X255546633Y-114379175D01*
X20676056Y-64059711D02*
X27630724Y-65923209D01*
X52546625Y-115179184D02*
X57246630Y-115179181D01*
X-3378364Y-63079176D02*
X-3378370Y-58004176D01*
X93971634Y-115179182D02*
X116021636Y-115179178D01*
X58646629Y-114904179D02*
X58921636Y-115179182D01*
X24221630Y-115179181D02*
X52546625Y-115179184D01*
X141600000Y-73100000D02*
X141600000Y-71757548D01*
X-3178373Y-114529181D02*
X-2528370Y-115179186D01*
X141421226Y-71578774D02*
X140446833Y-70604384D01*
X-3378370Y-58004176D02*
X-3453370Y-57929182D01*
X11919130Y-69115525D02*
X20676056Y-64059711D01*
X194046629Y-113829187D02*
X195146627Y-113829180D01*
X23896634Y-114854180D02*
X24221630Y-115179181D01*
X277671626Y-64104182D02*
X277646632Y-64129182D01*
X188721628Y-114379180D02*
X193496637Y-114379179D01*
X-3378365Y-66663233D02*
X-3339519Y-66624392D01*
X93396632Y-114604180D02*
X93971634Y-115179182D01*
X27630724Y-65923209D02*
X42878797Y-57119728D01*
X58921636Y-115179182D02*
X87471637Y-115179189D01*
X18121636Y-115179189D02*
X22271635Y-115179181D01*
X77072473Y-64038460D02*
X80018983Y-69141967D01*
X91896629Y-114604179D02*
X93396632Y-114604180D01*
X138588205Y-94929808D02*
X148888209Y-94929807D01*
X50702793Y-59216163D02*
X53356809Y-57683867D01*
X155191676Y-110026234D02*
X155578049Y-109922705D01*
X53356809Y-57683867D02*
X77072473Y-64038460D01*
X57521631Y-114904184D02*
X58646629Y-114904179D01*
X143971635Y-115179182D02*
X150921634Y-115179181D01*
X22271635Y-115179181D02*
X22596637Y-114854180D01*
X-2085316Y-73557763D02*
X-2180053Y-73652494D01*
X141671630Y-115179180D02*
X142196632Y-114654187D01*
X14046631Y-36004186D02*
X13446633Y-36004185D01*
X116021636Y-115179178D02*
X116321629Y-115479182D01*
X155578049Y-109922705D02*
X158027539Y-111336920D01*
X9346636Y-34704178D02*
X8646629Y-34004185D01*
X130763210Y-87554805D02*
X138538209Y-87554808D01*
X80018983Y-69141967D02*
X81374902Y-69505283D01*
X22596637Y-114854180D02*
X23896634Y-114854180D01*
X72646634Y-24904182D02*
X112646627Y-24904189D01*
X116321629Y-115479182D02*
X123171635Y-115479176D01*
X12146631Y-34704184D02*
X9346636Y-34704178D01*
X158846631Y-115179181D02*
X161648655Y-115179181D01*
X150921634Y-115179181D02*
X151246635Y-115504184D01*
X150621630Y-33554175D02*
X145316636Y-33554183D01*
X118526305Y-84408811D02*
X122256731Y-84408812D01*
X137796632Y-115179185D02*
X141671630Y-115179180D01*
X201232863Y-23983595D02*
X201257867Y-24008604D01*
X157471630Y-33229184D02*
X157496629Y-33254181D01*
X162632872Y-23983607D02*
X201232863Y-23983595D01*
X123471631Y-115179180D02*
X137796632Y-115179185D01*
X193496637Y-114379179D02*
X194046629Y-113829187D01*
X276096633Y-114379183D02*
X255546633Y-114379175D01*
X187371633Y-114379183D02*
X188721628Y-114379180D01*
X142196632Y-114654187D02*
X143446636Y-114654181D01*
X27546628Y-24904180D02*
X72646634Y-24904182D01*
X140446833Y-70604384D02*
X140145996Y-70604378D01*
X42878797Y-57119728D02*
X50702793Y-59216163D01*
X5764684Y-73557759D02*
X-2085316Y-73557763D01*
X-3339519Y-66624392D02*
X2622096Y-66624390D01*
X13446633Y-36004185D02*
X12146631Y-34704184D01*
X142846633Y-82504177D02*
X138546629Y-82504178D01*
X91321635Y-115179179D02*
X91896629Y-114604179D01*
X274571630Y-52779187D02*
X275996631Y-52779182D01*
X158027539Y-111336920D02*
X161701772Y-113458239D01*
X201257867Y-24008604D02*
X252607867Y-24008606D01*
X2622096Y-66624390D02*
X11919130Y-69115525D01*
X275996631Y-52779182D02*
X277671632Y-54454178D01*
X143446636Y-114654181D02*
X143971635Y-115179182D01*
X141600000Y-71757548D02*
X141421226Y-71578774D01*
X-2528370Y-115179186D02*
X18121636Y-115179189D01*
X122256731Y-84408812D02*
X123055000Y-85207084D01*
X252607867Y-24008606D02*
X252757865Y-24158605D01*
X150946637Y-33229185D02*
X157471630Y-33229184D01*
X125680008Y-87832082D02*
X126255005Y-87832087D01*
X186571633Y-115179182D02*
X187371633Y-114379183D01*
X277671632Y-54454178D02*
X277671626Y-64104182D01*
X87471637Y-115179189D02*
X91321635Y-115179179D01*
X252757865Y-24158605D02*
X274582863Y-24158600D01*
X161648655Y-115179181D02*
X186571633Y-115179182D01*
X150946637Y-33229185D02*
X150621630Y-33554175D01*
X123055000Y-85207084D02*
X125680008Y-87832082D01*
X123171635Y-115479176D02*
X123471631Y-115179180D01*
X195146627Y-113829180D02*
X195696630Y-114379184D01*
X6746635Y-34004183D02*
X6646628Y-34104178D01*
X57246630Y-115179181D02*
X57521631Y-114904184D01*
%TO.N,row0*%
X45414688Y-28382768D02*
X29289684Y-28382765D01*
X21982714Y-34794884D02*
X23957720Y-34794879D01*
X142652287Y-28469284D02*
X142647390Y-28474178D01*
X120214684Y-29382760D02*
X124289684Y-29382762D01*
X175021299Y-40500742D02*
X167873446Y-42416004D01*
X21157722Y-35619881D02*
X21982714Y-34794884D01*
X154243109Y-58654182D02*
X155043109Y-58654184D01*
X19457717Y-37319884D02*
X21157722Y-35619881D01*
X119214680Y-28382762D02*
X120214684Y-29382760D01*
X8732718Y-35869880D02*
X10182720Y-37319886D01*
X8184036Y-35321195D02*
X8732718Y-35869880D01*
X128064687Y-28632757D02*
X128223266Y-28474179D01*
X13907727Y-37319887D02*
X19457717Y-37319884D01*
X155043109Y-58654184D02*
X156296640Y-57400651D01*
X29289684Y-28382765D02*
X28939686Y-28732762D01*
X103364683Y-28382759D02*
X119214680Y-28382762D01*
X65264687Y-28382758D02*
X85314686Y-28382758D01*
X142647390Y-28474178D02*
X130076635Y-28474176D01*
X156296640Y-57400651D02*
X157096639Y-57400656D01*
X167873446Y-42416004D02*
X167307763Y-43395799D01*
X125039687Y-28632760D02*
X128064687Y-28632757D01*
X124289684Y-29382762D02*
X125039687Y-28632760D01*
X45414688Y-28382768D02*
X65264687Y-28382758D01*
X128223266Y-28474179D02*
X130076634Y-28474180D01*
X144246630Y-58654193D02*
X154243109Y-58654182D01*
X4980802Y-35321198D02*
X8184036Y-35321195D01*
X85314686Y-28382758D02*
X103364683Y-28382759D01*
X27714683Y-28732760D02*
X28939686Y-28732762D01*
X167307763Y-43395799D02*
X166034971Y-45600339D01*
X10182720Y-37319886D02*
X13907727Y-37319887D01*
X166034971Y-45600339D02*
X157341636Y-47929713D01*
%TO.N,row1*%
X107096250Y-64546443D02*
X108565949Y-63697913D01*
X79564152Y-54477518D02*
X89030221Y-57013945D01*
X116897855Y-64419389D02*
X116898041Y-64419206D01*
X178532696Y-54760607D02*
X176835637Y-57699996D01*
X96748834Y-61049170D02*
X97243802Y-61906491D01*
X97243802Y-61906491D02*
X107096250Y-64546443D01*
X129008047Y-102974647D02*
X129613203Y-103579806D01*
X163699046Y-61219936D02*
X162520308Y-63261569D01*
X73368850Y-47848170D02*
X74429512Y-49685291D01*
X26471913Y-49776034D02*
X32364058Y-51354833D01*
X60835844Y-45939345D02*
X62550483Y-44949400D01*
X116172128Y-100734202D02*
X124533588Y-102974647D01*
X129613203Y-103579806D02*
X131113208Y-103579808D01*
X74429512Y-49685291D02*
X77230696Y-50435862D01*
X541132Y-52663024D02*
X11262905Y-55535919D01*
X23646931Y-51407040D02*
X26471913Y-49776034D01*
X107963041Y-99277791D02*
X115292899Y-101241823D01*
X32364058Y-51354833D02*
X43264285Y-45061579D01*
X47795840Y-42445290D02*
X60835844Y-45939345D01*
X162520308Y-63261569D02*
X161488672Y-63537994D01*
X113963118Y-64419391D02*
X116897855Y-64419389D01*
X18034475Y-55900967D02*
X22459791Y-53346009D01*
X16551477Y-55503607D02*
X18034475Y-55900967D01*
X90373717Y-59340967D02*
X96748834Y-61049170D01*
X138188207Y-102754808D02*
X140313206Y-100629807D01*
X133738205Y-102754805D02*
X138188207Y-102754808D01*
X151078479Y-63537993D02*
X151068787Y-63547680D01*
X23249563Y-52890035D02*
X23646931Y-51407040D01*
X162429324Y-100877530D02*
X168997621Y-99117563D01*
X159737367Y-63537996D02*
X151078479Y-63537993D01*
X133538205Y-102554812D02*
X133738205Y-102754805D01*
X115292899Y-101241823D02*
X116172128Y-100734202D01*
X11262905Y-55535919D02*
X12977550Y-54545972D01*
X22459791Y-53346009D02*
X23249563Y-52890035D01*
X140313206Y-100629807D02*
X148563206Y-100629808D01*
X131113208Y-103579808D02*
X131338205Y-103579808D01*
X131338205Y-103579808D02*
X132363206Y-102554806D01*
X159643029Y-99268865D02*
X162429324Y-100877530D01*
X77230696Y-50435862D02*
X79564152Y-54477518D01*
X132363206Y-102554806D02*
X133538205Y-102554812D01*
X89030221Y-57013945D02*
X90373717Y-59340967D01*
X62550483Y-44949400D02*
X73368850Y-47848170D01*
X148563206Y-100629808D02*
X157740880Y-98170658D01*
X12977550Y-54545972D02*
X16551477Y-55503607D01*
X109423272Y-63202939D02*
X113963118Y-64419391D01*
X108565949Y-63697913D02*
X109423272Y-63202939D01*
X179305435Y-54553552D02*
X178532696Y-54760607D01*
X176835637Y-57699996D02*
X163699046Y-61219936D01*
X124533588Y-102974647D02*
X129008047Y-102974647D01*
X43264285Y-45061579D02*
X47795840Y-42445290D01*
X157740880Y-98170658D02*
X159643029Y-99268865D01*
X161488672Y-63537994D02*
X159737367Y-63537996D01*
%TO.N,row2*%
X20986458Y-67639996D02*
X25550466Y-68862921D01*
X147888209Y-91629809D02*
X166223678Y-86716832D01*
X130988210Y-102854807D02*
X130063207Y-102854806D01*
X67509509Y-65948409D02*
X68587851Y-67816148D01*
X56101988Y-64185869D02*
X57632927Y-63301991D01*
X91689852Y-79156802D02*
X92326246Y-80259073D01*
X130063207Y-102854806D02*
X129563207Y-102354806D01*
X184261139Y-74984294D02*
X182846923Y-77433785D01*
X101647430Y-82756683D02*
X103790738Y-81519246D01*
X115078236Y-100304314D02*
X107842918Y-98365618D01*
X74594818Y-73023295D02*
X84254078Y-75611487D01*
X133638208Y-101729805D02*
X132113210Y-101729806D01*
X133913206Y-102004810D02*
X133638208Y-101729805D01*
X182846923Y-77433785D02*
X170772850Y-80669024D01*
X25550466Y-68862921D02*
X38471517Y-61402943D01*
X170772850Y-80669024D02*
X168473034Y-84652429D01*
X131513209Y-102329806D02*
X130988210Y-102854807D01*
X140113210Y-99604806D02*
X137713207Y-102004808D01*
X137713207Y-102004808D02*
X133913206Y-102004810D01*
X147888206Y-99604806D02*
X140113210Y-99604806D01*
X168473034Y-84652429D02*
X167222036Y-84987628D01*
X85314746Y-77448604D02*
X91689852Y-79156802D01*
X92326246Y-80259073D02*
X101647430Y-82756683D01*
X4164680Y-70482766D02*
X16163736Y-70482761D01*
X57632927Y-63301991D02*
X67509509Y-65948409D01*
X107222596Y-98723759D02*
X106732698Y-99006602D01*
X125189013Y-102346815D02*
X115866920Y-99848967D01*
X125197005Y-102354807D02*
X125189013Y-102346815D01*
X103790738Y-81519246D02*
X104250018Y-81254079D01*
X129563207Y-102354806D02*
X125197005Y-102354807D01*
X40647180Y-60044762D02*
X56101988Y-64185869D01*
X115866920Y-99848967D02*
X115078236Y-100304314D01*
X160892367Y-64500115D02*
X150112808Y-64500111D01*
X150112808Y-64500111D02*
X150068787Y-64544123D01*
X38471517Y-61402943D02*
X38503871Y-61282202D01*
X16163736Y-70482761D02*
X16301808Y-70344681D01*
X72137626Y-68767301D02*
X74594818Y-73023295D01*
X84254078Y-75611487D02*
X85314746Y-77448604D01*
X16301808Y-70344681D02*
X20986458Y-67639996D01*
X107842918Y-98365618D02*
X107222596Y-98723759D01*
X166223678Y-86716832D02*
X167222036Y-84987628D01*
X106732698Y-99006602D02*
X104994033Y-98540729D01*
X132113210Y-101729806D02*
X131513209Y-102329806D01*
X38503871Y-61282202D02*
X40647180Y-60044762D01*
X104250018Y-81254079D02*
X109200381Y-82580532D01*
X68587851Y-67816148D02*
X72137626Y-68767301D01*
%TO.N,row3*%
X227443461Y-46435098D02*
X222911907Y-43818801D01*
X178113753Y-57064762D02*
X177335937Y-58411980D01*
X245622315Y-47051049D02*
X243883646Y-47516926D01*
X228668208Y-47142203D02*
X227443461Y-46435098D01*
X238345055Y-48483348D02*
X233691019Y-45796346D01*
X249698151Y-45648352D02*
X245834445Y-46683629D01*
X245834445Y-46683629D02*
X245693024Y-46928576D01*
X245693024Y-46928576D02*
X245622315Y-47051049D01*
X162386752Y-65212850D02*
X160648083Y-65678723D01*
X195189838Y-51246907D02*
X189973837Y-52644532D01*
X221609903Y-67547095D02*
X231172569Y-64984787D01*
X164295938Y-61906040D02*
X163023145Y-64110577D01*
X206530421Y-43342413D02*
X198513240Y-45490604D01*
X251050444Y-45286007D02*
X249698151Y-45648352D01*
X242498536Y-47370425D02*
X238345055Y-48483348D01*
X147628821Y-66168468D02*
X147399133Y-65938779D01*
X159518569Y-65678726D02*
X158828822Y-66368471D01*
X152028823Y-66168468D02*
X147628821Y-66168468D01*
X254373848Y-39529703D02*
X251050444Y-45286007D01*
X217502722Y-45268186D02*
X216440204Y-45552889D01*
X163023145Y-64110577D02*
X162386752Y-65212850D01*
X160648083Y-65678723D02*
X159518569Y-65678726D01*
X222911907Y-43818801D02*
X217502722Y-45268186D01*
X152228824Y-66368468D02*
X152028823Y-66168468D01*
X212827209Y-43466923D02*
X210683902Y-42229489D01*
X210683902Y-42229489D02*
X206530421Y-43342413D01*
X177335937Y-58411980D02*
X166517567Y-61310752D01*
X216440204Y-45552889D02*
X213255866Y-43714411D01*
X229537541Y-46909266D02*
X228668208Y-47142203D01*
X233691019Y-45796346D02*
X229537541Y-46909266D01*
X242865958Y-47582560D02*
X242498536Y-47370425D01*
X231172569Y-64984787D02*
X232641008Y-65832589D01*
X166517567Y-61310752D02*
X164295938Y-61906040D01*
X243110905Y-47723979D02*
X242865958Y-47582560D01*
X232641008Y-65832589D02*
X237953600Y-64409086D01*
X197381868Y-47450196D02*
X196568692Y-48858655D01*
X213255866Y-43714411D02*
X212827209Y-43466923D01*
X158828822Y-66368471D02*
X152228824Y-66368468D01*
X243883646Y-47516926D02*
X243110905Y-47723979D01*
X196568692Y-48858655D02*
X195189838Y-51246907D01*
X198513240Y-45490604D02*
X197381868Y-47450196D01*
X178962277Y-55595068D02*
X178113753Y-57064762D01*
X189973837Y-52644532D02*
X178962277Y-55595068D01*
%TO.N,led*%
X124876631Y-25934187D02*
X124846635Y-25904177D01*
X151846632Y-57604184D02*
X154287287Y-57604185D01*
X151846629Y-22704181D02*
X123146636Y-22704182D01*
X143921634Y-57604186D02*
X151846632Y-57604184D01*
X130076630Y-25934184D02*
X124876631Y-25934187D01*
%TO.N,Net-(D41-Pad2)*%
X-2353370Y-56979182D02*
X-2378368Y-56954179D01*
X-2153370Y-49329181D02*
X-3278367Y-49329184D01*
X-1078367Y-50404183D02*
X-2153370Y-49329181D01*
X-2353367Y-64504183D02*
X-2353370Y-56979182D01*
%TO.N,Net-(D42-Pad2)*%
X-2203365Y-89529177D02*
X-2903364Y-89529189D01*
X18496631Y-112329180D02*
X15596635Y-112329183D01*
X14596630Y-113329180D02*
X13521630Y-114404181D01*
X-1303372Y-114404179D02*
X-1528365Y-114404183D01*
X-1528365Y-114404183D02*
X-1978370Y-113954185D01*
X15596635Y-112329183D02*
X14596630Y-113329180D01*
X-878365Y-90854182D02*
X-2203365Y-89529177D01*
X13521630Y-114404181D02*
X-1303372Y-114404179D01*
%TO.N,Net-(D43-Pad2)*%
X47471629Y-114279186D02*
X25146632Y-114279181D01*
X49396637Y-112354182D02*
X48146628Y-113604181D01*
X52846639Y-112354180D02*
X49396637Y-112354182D01*
X48146628Y-113604181D02*
X47471629Y-114279186D01*
X22746633Y-114279183D02*
X19921631Y-111454181D01*
X19196631Y-110729180D02*
X18321633Y-110729183D01*
X19921631Y-111454181D02*
X19196631Y-110729180D01*
X25146632Y-114279181D02*
X22746633Y-114279183D01*
%TO.N,Net-(D45-Pad2)*%
X79121637Y-114304178D02*
X57121635Y-114304178D01*
X84246632Y-112379180D02*
X82771633Y-113854184D01*
X57121635Y-114304178D02*
X54221634Y-111404180D01*
X82771633Y-113854184D02*
X82321631Y-114304179D01*
X87771639Y-112379181D02*
X84246632Y-112379180D01*
X54221634Y-111404180D02*
X53496632Y-110679180D01*
X53496632Y-110679180D02*
X51896633Y-110679178D01*
X82321631Y-114304179D02*
X79121637Y-114304178D01*
%TO.N,Net-(D46-Pad2)*%
X119721638Y-114854180D02*
X116671628Y-114854179D01*
X116246633Y-114429186D02*
X104896630Y-114429185D01*
X137846632Y-112329184D02*
X134821636Y-112329180D01*
X90396634Y-110829181D02*
X87771630Y-110829182D01*
X93996629Y-114429184D02*
X93546630Y-113979185D01*
X134821636Y-112329180D02*
X132671632Y-114479177D01*
X104896630Y-114429185D02*
X93996629Y-114429184D01*
X123196633Y-114479186D02*
X122921630Y-114754186D01*
X122821632Y-114854175D02*
X119721638Y-114854180D01*
X116446633Y-114629180D02*
X116246633Y-114429186D01*
X122921630Y-114754186D02*
X122821632Y-114854175D01*
X116671628Y-114854179D02*
X116446633Y-114629180D01*
X93546630Y-113979185D02*
X90396634Y-110829181D01*
X131346626Y-114479187D02*
X123196633Y-114479186D01*
X132671632Y-114479177D02*
X131346626Y-114479187D01*
%TO.N,Net-(D47-Pad2)*%
X158146631Y-114804177D02*
X157971632Y-114979182D01*
X186446633Y-114404183D02*
X158746633Y-114404182D01*
X186496628Y-114354182D02*
X186446633Y-114404183D01*
X145046634Y-114354183D02*
X144996633Y-114354179D01*
X151021634Y-114354180D02*
X145046634Y-114354183D01*
X157971632Y-114979182D02*
X156321633Y-114979181D01*
X140571631Y-110779178D02*
X137046631Y-110779183D01*
X189421637Y-112454179D02*
X188396634Y-112454188D01*
X144996633Y-114354179D02*
X144146635Y-114354178D01*
X142871635Y-113079178D02*
X140571631Y-110779178D01*
X151646637Y-114979186D02*
X151371634Y-114704184D01*
X144146635Y-114354178D02*
X142871635Y-113079178D01*
X188396634Y-112454188D02*
X186496628Y-114354182D01*
X158546631Y-114404181D02*
X158146631Y-114804177D01*
X158746633Y-114404182D02*
X158546631Y-114404181D01*
X156321633Y-114979181D02*
X151646637Y-114979186D01*
X151371634Y-114704184D02*
X151021634Y-114354180D01*
%TO.N,Net-(D48-Pad2)*%
X223471627Y-112304184D02*
X190871633Y-112304179D01*
X190871633Y-112304179D02*
X189396629Y-110829183D01*
%TO.N,Net-(D49-Pad2)*%
X223896637Y-110704180D02*
X222996631Y-110704181D01*
X225846634Y-112654182D02*
X224446631Y-111254178D01*
X224446631Y-111254178D02*
X223896637Y-110704180D01*
X258146630Y-112654178D02*
X225846634Y-112654182D01*
%TO.N,Net-(D50-Pad2)*%
X277421633Y-110779181D02*
X255696636Y-110779182D01*
%TO.N,Net-(D52-Pad2)*%
X276746636Y-64979181D02*
X276721631Y-65004181D01*
X276746633Y-54979185D02*
X276746636Y-64979181D01*
%TO.N,Net-(D70-Pad2)*%
X108246634Y-23904181D02*
X109246629Y-23904181D01*
X77946635Y-23904180D02*
X108246634Y-23904181D01*
%TO.N,Net-(D77-Pad2)*%
X68246630Y-23904181D02*
X69446634Y-23904181D01*
X33146632Y-23904179D02*
X68246630Y-23904181D01*
%TO.N,RESET*%
X28180702Y-72349601D02*
X26619145Y-73251163D01*
X138495815Y-61704185D02*
X152637283Y-61704184D01*
X150921638Y-31404189D02*
X152862285Y-31404184D01*
X81189682Y-30757761D02*
X80339685Y-30757764D01*
X138300000Y-61900000D02*
X138495815Y-61704185D01*
X122489680Y-30007762D02*
X119939683Y-30007760D01*
X31544688Y-72448644D02*
X30361435Y-72131584D01*
X29129880Y-71801591D02*
X28180702Y-72349601D01*
X82714679Y-29232760D02*
X81864684Y-30082765D01*
X30361435Y-72131584D02*
X29129880Y-71801591D01*
X32234125Y-73642768D02*
X31544688Y-72448644D01*
X130239683Y-29732756D02*
X124839685Y-29732761D01*
X10539685Y-73507761D02*
X10939683Y-73107760D01*
X132764686Y-30382767D02*
X132114683Y-29732766D01*
X116439683Y-29232766D02*
X82714679Y-29232760D01*
X81864684Y-30082765D02*
X81189682Y-30757761D01*
X119939683Y-30007760D02*
X119539683Y-30007763D01*
X150921638Y-31404189D02*
X150531633Y-31014178D01*
X124564683Y-30007764D02*
X122489680Y-30007762D01*
X124639682Y-29932761D02*
X124564683Y-30007764D01*
X79214688Y-30007760D02*
X78439685Y-29232761D01*
X80339685Y-30757764D02*
X79964681Y-30757764D01*
X119539683Y-30007763D02*
X118914685Y-29382757D01*
X132114683Y-29732766D02*
X130239683Y-29732756D01*
X22538997Y-73251162D02*
X22532713Y-73244881D01*
X150531633Y-31014178D02*
X145316629Y-31014185D01*
X133396103Y-31014179D02*
X132764686Y-30382767D01*
X51363728Y-79234403D02*
X32552321Y-74193903D01*
X118764685Y-29232758D02*
X116439683Y-29232766D01*
X79964681Y-30757764D02*
X79214688Y-30007760D01*
X78439685Y-29232761D02*
X64089686Y-29232762D01*
X152862285Y-31404184D02*
X152882869Y-31383604D01*
X145316630Y-31014181D02*
X133396103Y-31014179D01*
X32552321Y-74193903D02*
X32234125Y-73642768D01*
X10939683Y-73107760D02*
X18839685Y-73107759D01*
X118914685Y-29382757D02*
X118764685Y-29232758D01*
X124839685Y-29732761D02*
X124639682Y-29932761D01*
X26619145Y-73251163D02*
X22538997Y-73251162D01*
%TO.N,col0*%
X24240367Y-50419643D02*
X26475524Y-49129172D01*
X80042984Y-53699177D02*
X80236175Y-53750934D01*
X224030545Y-104022046D02*
X224563483Y-103879246D01*
X109804245Y-62113671D02*
X114150915Y-63278350D01*
X74878999Y-49209660D02*
X75893224Y-49481422D01*
X32367670Y-50707970D02*
X34694686Y-49364475D01*
X145978310Y-52627078D02*
X160578309Y-52627074D01*
X60240486Y-45209636D02*
X61955125Y-44219687D01*
X127388733Y-53874181D02*
X127368788Y-53894129D01*
X97788618Y-61171704D02*
X97981807Y-61223469D01*
X43683620Y-44215524D02*
X44479704Y-43755917D01*
X63513554Y-44585502D02*
X64938288Y-44967263D01*
X21754122Y-52936938D02*
X21786471Y-52816189D01*
X63442841Y-44463024D02*
X63513554Y-44585502D01*
X135178309Y-52027075D02*
X143078312Y-52027073D01*
X143278311Y-52227072D02*
X143678312Y-52627073D01*
X64938288Y-44967263D02*
X73800664Y-47341927D01*
X78387288Y-51184981D02*
X79801505Y-53634464D01*
X143678312Y-52627073D02*
X145978310Y-52627078D01*
X130305236Y-53874178D02*
X132152340Y-52027075D01*
X222609562Y-103201636D02*
X224030545Y-104022046D01*
X34694686Y-49364475D02*
X42196247Y-45033439D01*
X92399312Y-59261766D02*
X97253085Y-60562329D01*
X130305240Y-53874183D02*
X127388733Y-53874181D01*
X98140906Y-61499031D02*
X98176259Y-61560269D01*
X163845684Y-51751584D02*
X165079943Y-52464187D01*
X170144372Y-53591841D02*
X179996814Y-50951886D01*
X22987533Y-51714513D02*
X23168713Y-51038366D01*
X43538728Y-44176706D02*
X43683620Y-44215524D01*
X216797131Y-104450174D02*
X218266825Y-105298703D01*
X81776451Y-54474233D02*
X89479708Y-56538316D01*
X165692320Y-52817740D02*
X167817357Y-52248338D01*
X89479708Y-56538316D02*
X89886293Y-57242546D01*
X73800664Y-47341927D02*
X74207246Y-48046151D01*
X183570741Y-49994256D02*
X184305585Y-50418520D01*
X132152340Y-52027075D02*
X135178309Y-52027075D01*
X21708824Y-53105969D02*
X21754122Y-52936938D01*
X22858124Y-52197473D02*
X22987533Y-51714513D01*
X167817357Y-52248338D02*
X170144372Y-53591841D01*
X97429872Y-60868520D02*
X97571290Y-61113466D01*
X43200660Y-44086118D02*
X43538728Y-44176706D01*
X189578428Y-48073918D02*
X194021686Y-46883353D01*
X108701977Y-62750066D02*
X109804245Y-62113671D01*
X21786471Y-52816189D02*
X22858124Y-52197473D01*
X97571290Y-61113466D02*
X97788618Y-61171704D01*
X184305585Y-50418520D02*
X188362476Y-49331480D01*
X80236175Y-53750934D02*
X80430625Y-54087741D01*
X20698417Y-53689337D02*
X21708824Y-53105969D01*
X106773000Y-63863763D02*
X108701977Y-62750066D01*
X97981807Y-61223469D02*
X98140906Y-61499031D01*
X89886293Y-57242546D02*
X90805533Y-58834709D01*
X44479704Y-43755917D02*
X47755899Y-41864395D01*
X188362476Y-49331480D02*
X188942032Y-49176190D01*
X18313990Y-55065976D02*
X20698417Y-53689337D01*
X90805533Y-58834709D02*
X92399312Y-59261766D01*
X79801505Y-53634464D02*
X80042984Y-53699177D01*
X210422021Y-106158379D02*
X216797131Y-104450174D01*
X188942032Y-49176190D02*
X189578428Y-48073918D01*
X221972009Y-104305900D02*
X222609560Y-103201637D01*
X98176259Y-61560269D02*
X99890778Y-62019673D01*
X63035789Y-44146903D02*
X63301423Y-44218076D01*
X62383789Y-43972196D02*
X63035789Y-44146903D01*
X48745967Y-42129690D02*
X60240486Y-45209636D01*
X97253085Y-60562329D02*
X97429872Y-60868520D01*
X179996814Y-50951886D02*
X183570741Y-49994256D01*
X26475524Y-49129172D02*
X28286628Y-49614460D01*
X16261402Y-54515988D02*
X18313990Y-55065976D01*
X23168713Y-51038366D02*
X24240367Y-50419643D01*
X99890778Y-62019673D02*
X106773000Y-63863763D01*
X80430625Y-54087741D02*
X80448303Y-54118361D01*
X63301423Y-44218076D02*
X63442841Y-44463024D01*
X75893224Y-49481422D02*
X77680181Y-49960231D01*
X47755899Y-41864395D02*
X48745967Y-42129690D01*
X143078312Y-52027073D02*
X143278311Y-52227072D01*
X61955125Y-44219687D02*
X62383789Y-43972196D01*
X218266825Y-105298703D02*
X221972009Y-104305900D01*
X77680181Y-49960231D02*
X78387288Y-51184981D01*
X80448303Y-54118361D02*
X81776451Y-54474233D01*
X42312720Y-44598770D02*
X43200660Y-44086118D01*
X74207246Y-48046151D02*
X74878999Y-49209660D01*
X165079943Y-52464187D02*
X165692320Y-52817740D01*
X127372099Y-63278352D02*
X127375754Y-63282002D01*
X114150915Y-63278350D02*
X127372099Y-63278352D01*
X160578309Y-52627074D02*
X163845684Y-51751584D01*
X224563483Y-103879246D02*
X237120520Y-100514598D01*
X237120520Y-100514598D02*
X237403362Y-100024700D01*
X28286628Y-49614460D02*
X32367670Y-50707970D01*
X42196247Y-45033439D02*
X42312720Y-44598770D01*
%TO.N,col1*%
X109722972Y-102461063D02*
X109652261Y-102338589D01*
X98398588Y-59834862D02*
X98486976Y-59987959D01*
X125747386Y-104288442D02*
X123347386Y-104288445D01*
X106500694Y-62342277D02*
X107664202Y-61670528D01*
X98186456Y-59467437D02*
X98398588Y-59834862D01*
X75132071Y-46017219D02*
X76605105Y-46411924D01*
X68793599Y-91390543D02*
X67446377Y-92168361D01*
X93821310Y-57598993D02*
X94298607Y-58425687D01*
X51989708Y-89579672D02*
X42716820Y-87095012D01*
X132470024Y-104811081D02*
X132392662Y-104888442D01*
X28516835Y-86340715D02*
X28425357Y-86393533D01*
X77636414Y-48551755D02*
X78022790Y-48655281D01*
X126947383Y-105488443D02*
X126347384Y-104888442D01*
X129747386Y-104888442D02*
X128547385Y-104888442D01*
X114185178Y-103967291D02*
X112832881Y-103604944D01*
X93432400Y-56925377D02*
X93821310Y-57598993D01*
X88645523Y-54892166D02*
X90673964Y-55435686D01*
X150726064Y-102051686D02*
X148697620Y-102595206D01*
X81353247Y-52549976D02*
X81401544Y-52562922D01*
X141085898Y-102595207D02*
X140229848Y-103451257D01*
X60105343Y-90201336D02*
X59003073Y-90837732D01*
X126347384Y-104888442D02*
X125747386Y-104288442D01*
X77405339Y-47868672D02*
X77353571Y-48061858D01*
X94298607Y-58425687D02*
X96423640Y-58995090D01*
X132929848Y-104351259D02*
X132470024Y-104811081D01*
X126442600Y-51334176D02*
X130076632Y-51334181D01*
X48320564Y-40696600D02*
X59718494Y-43750663D01*
X96423640Y-58995090D02*
X98186456Y-59467437D01*
X76605105Y-46411924D02*
X76943180Y-46502503D01*
X77508866Y-47482302D02*
X77405339Y-47868672D01*
X114326679Y-61436943D02*
X126414841Y-61436938D01*
X81613676Y-52930339D02*
X81666708Y-53022194D01*
X99280394Y-60407603D02*
X106500694Y-62342277D01*
X135729848Y-104351257D02*
X132929848Y-104351259D01*
X127947386Y-105488442D02*
X127247386Y-105488442D01*
X40389791Y-41703261D02*
X43746380Y-42602660D01*
X59003073Y-90837732D02*
X58268226Y-91261996D01*
X81401544Y-52562922D02*
X81613676Y-52930339D01*
X78022790Y-48655281D02*
X78771379Y-48855865D01*
X126418939Y-51357839D02*
X126442600Y-51334176D01*
X74734026Y-46247029D02*
X75101452Y-46034893D01*
X41920065Y-89932107D02*
X37168561Y-88658938D01*
X115532397Y-103189473D02*
X114185178Y-103967291D01*
X128247385Y-105188445D02*
X127947386Y-105488442D01*
X47451237Y-40463662D02*
X48320564Y-40696600D01*
X63553897Y-42863090D02*
X64133451Y-43018380D01*
X128547385Y-104888442D02*
X128247385Y-105188445D01*
X116709552Y-102509842D02*
X115532397Y-103189473D01*
X64133451Y-43018380D02*
X64398622Y-43477667D01*
X107237447Y-101691541D02*
X68793599Y-91390543D01*
X37168561Y-88658938D02*
X28516835Y-86340715D01*
X77279056Y-47084254D02*
X77508866Y-47482302D01*
X148697620Y-102595206D02*
X141085898Y-102595207D01*
X75101452Y-46034893D02*
X75132071Y-46017219D01*
X61586228Y-42672326D02*
X61984269Y-42442513D01*
X132392662Y-104888442D02*
X129747386Y-104888442D01*
X126414841Y-61436938D02*
X126418937Y-61432846D01*
X80821990Y-52407627D02*
X81353247Y-52549976D01*
X90673964Y-55435686D02*
X91186621Y-56323630D01*
X107664202Y-61670528D02*
X110052448Y-60291664D01*
X91186621Y-56323630D02*
X92611362Y-56705381D01*
X140229848Y-103451257D02*
X139329848Y-104351257D01*
X64398622Y-43477667D02*
X74734026Y-46247029D01*
X98486976Y-59987959D02*
X99018236Y-60130306D01*
X77548028Y-48398664D02*
X77636414Y-48551755D01*
X65611119Y-91676605D02*
X60105343Y-90201336D01*
X43746380Y-42602660D02*
X44909889Y-41930905D01*
X77353571Y-48061858D02*
X77548028Y-48398664D01*
X81666708Y-53022194D02*
X88645523Y-54892166D01*
X123347386Y-104288445D02*
X116709552Y-102509842D01*
X127247386Y-105488442D02*
X126947383Y-105488443D01*
X76943180Y-46502503D02*
X77279056Y-47084254D01*
X99138974Y-60162659D02*
X99280394Y-60407603D01*
X58268226Y-91261996D02*
X51989708Y-89579672D01*
X99018236Y-60130306D02*
X99138974Y-60162659D01*
X92611362Y-56705381D02*
X93432400Y-56925377D01*
X59718494Y-43750663D02*
X61586228Y-42672326D01*
X139329848Y-104351257D02*
X135729848Y-104351257D01*
X67446377Y-92168361D02*
X65611119Y-91676605D01*
X61984269Y-42442513D02*
X63553897Y-42863090D01*
X78771379Y-48855865D02*
X79160290Y-49529474D01*
X44909889Y-41930905D02*
X47451237Y-40463662D01*
X112832881Y-103604944D02*
X109935104Y-102828487D01*
X110052448Y-60291664D02*
X114326679Y-61436943D01*
X109652261Y-102338589D02*
X107237447Y-101691541D01*
X109935104Y-102828487D02*
X109722972Y-102461063D01*
X79160290Y-49529474D02*
X80821990Y-52407627D01*
%TO.N,col2*%
X92776204Y-79395348D02*
X92993538Y-79453585D01*
X75461301Y-72633514D02*
X78479823Y-73442321D01*
X92549390Y-79179284D02*
X92655462Y-79362988D01*
X84992886Y-75601605D02*
X85753019Y-76918206D01*
X118243731Y-48794178D02*
X118218784Y-48819131D01*
X166201219Y-43321038D02*
X165281979Y-44913207D01*
X58364447Y-62643112D02*
X58470515Y-62826822D01*
X94876625Y-80346381D02*
X101469068Y-82112820D01*
X207623666Y-79491200D02*
X216413595Y-77135941D01*
X207713369Y-29402648D02*
X206856047Y-28907672D01*
X72569438Y-68261058D02*
X73806876Y-70404360D01*
X92655462Y-79362988D02*
X92776204Y-79395348D01*
X208515706Y-32397021D02*
X207868660Y-29982202D01*
X208700597Y-36177999D02*
X207950021Y-33376815D01*
X165281979Y-44913207D02*
X155646314Y-47495081D01*
X88650796Y-77694666D02*
X92248874Y-78658768D01*
X101469068Y-82112820D02*
X102969381Y-81246618D01*
X202302322Y-29299619D02*
X201689948Y-28946065D01*
X155646314Y-47495081D02*
X137110309Y-47495076D01*
X203475307Y-29813541D02*
X203282122Y-29865305D01*
X199760417Y-86463946D02*
X204300266Y-85247497D01*
X75266845Y-72296712D02*
X75443621Y-72602895D01*
X207868660Y-29982202D02*
X207713369Y-29402648D01*
X167120457Y-41728875D02*
X166201219Y-43321038D01*
X68942473Y-67211578D02*
X68995512Y-67303430D01*
X137110309Y-47495076D02*
X135811206Y-48794177D01*
X120475442Y-72103077D02*
X118490792Y-71571297D01*
X120476074Y-72104179D02*
X120475442Y-72103077D01*
X78479823Y-73442321D02*
X84710038Y-75111706D01*
X93187986Y-79790387D02*
X93258697Y-79912856D01*
X193403796Y-32408665D02*
X192979528Y-33143510D01*
X74832177Y-72180242D02*
X75194399Y-72277301D01*
X197460685Y-31321624D02*
X195239054Y-31916907D01*
X185859419Y-36707781D02*
X167120457Y-41728875D01*
X197814237Y-30709254D02*
X197460685Y-31321624D01*
X85753019Y-76918206D02*
X88650796Y-77694666D01*
X92248874Y-78658768D02*
X92549390Y-79179284D01*
X75443621Y-72602895D02*
X75461301Y-72633514D01*
X186566528Y-35483036D02*
X185859419Y-36707781D01*
X54398383Y-62871265D02*
X55871419Y-63265971D01*
X58523541Y-62918678D02*
X59972435Y-63306910D01*
X118490792Y-71571297D02*
X114092344Y-71571296D01*
X75194399Y-72277301D02*
X75266845Y-72296712D01*
X71869142Y-68073413D02*
X72569438Y-68261058D01*
X188305195Y-35017163D02*
X186566528Y-35483036D01*
X56571823Y-62861591D02*
X57398516Y-62384295D01*
X203282122Y-29865305D02*
X202302322Y-29299619D01*
X104837113Y-80168280D02*
X109473561Y-81410608D01*
X130076634Y-48794180D02*
X118243731Y-48794178D01*
X195239054Y-31916907D02*
X193403796Y-32408665D01*
X207950021Y-33376815D02*
X208444997Y-32519492D01*
X127246633Y-72104185D02*
X120476074Y-72104179D01*
X192979528Y-33143510D02*
X192555266Y-33878360D01*
X114092344Y-71571296D02*
X112482403Y-69961356D01*
X67917175Y-65435691D02*
X68942473Y-67211578D01*
X199371727Y-29567233D02*
X198309211Y-29851934D01*
X57398516Y-62384295D02*
X58050520Y-62558996D01*
X135811206Y-48794177D02*
X130076634Y-48794177D01*
X58050520Y-62558996D02*
X58364447Y-62643112D01*
X84710038Y-75111706D02*
X84992886Y-75601605D01*
X93258697Y-79912856D02*
X94876625Y-80346381D01*
X92993538Y-79453585D02*
X93187986Y-79790387D01*
X58470515Y-62826822D02*
X58523541Y-62918678D01*
X206856047Y-28907672D02*
X203475307Y-29813541D01*
X205007371Y-84022756D02*
X207623666Y-79491200D01*
X198309211Y-29851934D02*
X197814237Y-30709254D01*
X73806876Y-70404360D02*
X74832177Y-72180242D01*
X208444997Y-32519492D02*
X208515706Y-32397021D01*
X204300266Y-85247497D02*
X205007371Y-84022756D01*
X128046631Y-71304182D02*
X127246633Y-72104185D01*
X55871419Y-63265971D02*
X56571823Y-62861591D01*
X129146633Y-71304182D02*
X128046631Y-71304182D01*
X102969381Y-81246618D02*
X104837113Y-80168280D01*
X201689948Y-28946065D02*
X199371727Y-29567233D01*
X192555266Y-33878360D02*
X188305195Y-35017163D01*
X68995512Y-67303430D02*
X71869142Y-68073413D01*
X59972435Y-63306910D02*
X67917175Y-65435691D01*
%TO.N,col3*%
X130076632Y-46254184D02*
X119908734Y-46254182D01*
X236131354Y-61085710D02*
X218841279Y-65718574D01*
X108965739Y-74999440D02*
X111984258Y-75808252D01*
X129946638Y-72104178D02*
X128546639Y-72104190D01*
X77279528Y-63265719D02*
X70035083Y-61324576D01*
X127546628Y-72704186D02*
X121846630Y-72704180D01*
X208978312Y-26627073D02*
X207278312Y-26627075D01*
X114078840Y-72704180D02*
X113868790Y-72494127D01*
X207278312Y-26627075D02*
X205878312Y-28027074D01*
X127646636Y-72604190D02*
X127546628Y-72704186D01*
X205878312Y-28027074D02*
X204178310Y-28027075D01*
X134751205Y-46254183D02*
X130076633Y-46254183D01*
X79683691Y-67429852D02*
X79330138Y-66817479D01*
X202578306Y-26427074D02*
X200578308Y-26427078D01*
X95135324Y-71267707D02*
X95983851Y-72737403D01*
X134778311Y-46227072D02*
X134751205Y-46254183D01*
X98277336Y-75189556D02*
X105352738Y-77085407D01*
X84996283Y-68853358D02*
X79683691Y-67429852D01*
X87688650Y-69013560D02*
X87269675Y-69255455D01*
X155278310Y-34827073D02*
X134778311Y-34827074D01*
X79330138Y-66817479D02*
X77279528Y-63265719D01*
X203778311Y-27627074D02*
X202578306Y-26427074D01*
X87897115Y-69069418D02*
X87688650Y-69013560D01*
X87269675Y-69255455D02*
X87024727Y-69396878D01*
X200578308Y-26427078D02*
X155578310Y-26427074D01*
X128146632Y-72104184D02*
X127646636Y-72604190D01*
X155578310Y-26427074D02*
X155278309Y-26727074D01*
X121846630Y-72704180D02*
X114078840Y-72704180D01*
X88971753Y-95096442D02*
X67528205Y-89350659D01*
X87024727Y-69396878D02*
X84996283Y-68853358D01*
X204178310Y-28027075D02*
X203778311Y-27627074D01*
X119908734Y-46254182D02*
X119893789Y-46269127D01*
X91175022Y-70206550D02*
X95135324Y-71267707D01*
X130046632Y-72004177D02*
X129946638Y-72104178D01*
X87897115Y-69069418D02*
X90998246Y-69900365D01*
X95983851Y-72737403D02*
X97022219Y-73015631D01*
X105352738Y-77085407D02*
X108965739Y-74999440D01*
X128546639Y-72104190D02*
X128146632Y-72104184D01*
X97022219Y-73015631D02*
X98277336Y-75189556D01*
X90998246Y-69900365D02*
X91175022Y-70206550D01*
%TO.N,col4*%
X109881830Y-73404185D02*
X104979173Y-76234734D01*
X100053743Y-39185486D02*
X100039936Y-39193456D01*
X130089527Y-43727075D02*
X130076636Y-43714180D01*
X95558812Y-70374869D02*
X91984884Y-69417239D01*
X129146634Y-73004184D02*
X128346626Y-73004179D01*
X90170619Y-94485924D02*
X88625140Y-94071819D01*
X98899642Y-74605729D02*
X97573816Y-72309334D01*
X90877724Y-95710670D02*
X90453460Y-94975824D01*
X121446637Y-73404178D02*
X109881830Y-73404185D01*
X121693790Y-43694129D02*
X116880218Y-43694126D01*
X148178312Y-25927073D02*
X146878311Y-27227075D01*
X111065573Y-101119988D02*
X90877724Y-95710670D01*
X96511302Y-72024631D02*
X95558812Y-70374869D01*
X127946632Y-73404181D02*
X126846633Y-73404183D01*
X145578312Y-27227073D02*
X132478310Y-27227074D01*
X128346626Y-73004179D02*
X127946632Y-73404181D01*
X97573816Y-72309334D02*
X96511302Y-72024631D01*
X146878311Y-27227075D02*
X145578312Y-27227073D01*
X116880218Y-43694126D02*
X100053743Y-39185486D01*
X88625140Y-94071819D02*
X86017141Y-93373005D01*
X130076636Y-43714180D02*
X121713844Y-43714183D01*
X104979173Y-76234734D02*
X98899642Y-74605729D01*
X132478307Y-43727074D02*
X130089527Y-43727075D01*
X121713844Y-43714183D02*
X121693790Y-43694129D01*
X126846633Y-73404183D02*
X121446637Y-73404178D01*
X148978311Y-25127074D02*
X148178312Y-25927073D01*
X227678312Y-25127074D02*
X148978311Y-25127074D01*
X90453460Y-94975824D02*
X90170619Y-94485924D01*
%TO.N,col5*%
X104840600Y-97567867D02*
X103738329Y-98204263D01*
X228578311Y-26127074D02*
X228178311Y-26527072D01*
X224278310Y-25727078D02*
X150878310Y-25727078D01*
X229478309Y-25227075D02*
X228578311Y-26127074D01*
X125352224Y-101683604D02*
X125346266Y-101689562D01*
X226478312Y-26127074D02*
X226078311Y-25727075D01*
X107472792Y-97436214D02*
X106605148Y-97937149D01*
X226078311Y-25727075D02*
X224278310Y-25727078D01*
X133678311Y-41127077D02*
X133631206Y-41174180D01*
X146878312Y-29727074D02*
X145078311Y-29727073D01*
X246878312Y-25227075D02*
X229478309Y-25227075D01*
X228178311Y-26527072D02*
X227278309Y-26527073D01*
X148278312Y-28327073D02*
X146878312Y-29727074D01*
X227278309Y-26527073D02*
X226878312Y-26527076D01*
X119831670Y-74204182D02*
X119645173Y-74017688D01*
X115094481Y-99478439D02*
X107553102Y-97457735D01*
X133631206Y-41174180D02*
X130076632Y-41174181D01*
X117233574Y-41174184D02*
X130076632Y-41174181D01*
X119645173Y-74017688D02*
X118093158Y-74017690D01*
X128346631Y-74104183D02*
X128246633Y-74204182D01*
X150878310Y-25727078D02*
X148278312Y-28327073D01*
X130046637Y-73804184D02*
X128646636Y-73804181D01*
X125346266Y-101689562D02*
X115728376Y-99112457D01*
X128246633Y-74204182D02*
X119831670Y-74204182D01*
X130570133Y-101683610D02*
X125352224Y-101683604D01*
X106482674Y-98007859D02*
X105613339Y-97774922D01*
X145078311Y-29727073D02*
X133678310Y-29727075D01*
X115728376Y-99112457D02*
X115094481Y-99478439D01*
X226878312Y-26527076D02*
X226478312Y-26127074D01*
X117025752Y-41382003D02*
X117233574Y-41174184D01*
X117906670Y-74204186D02*
X110458817Y-74204185D01*
X110458817Y-74204185D02*
X110340870Y-74322122D01*
X118093158Y-74017690D02*
X117906670Y-74204186D01*
X105613339Y-97774922D02*
X104840600Y-97567867D01*
X106605148Y-97937149D02*
X106482674Y-98007859D01*
X107553102Y-97457735D02*
X107472792Y-97436214D01*
X128646636Y-73804181D02*
X128346631Y-74104183D01*
%TO.N,col6*%
X154273211Y-51319125D02*
X154275688Y-51321603D01*
X214345399Y-76758364D02*
X206907765Y-78751271D01*
X167951345Y-45793722D02*
X167527081Y-46528570D01*
X159917070Y-49810000D02*
X154275688Y-51321603D01*
X261927799Y-94985678D02*
X273027800Y-94985680D01*
X149343789Y-51319122D02*
X149328736Y-51334180D01*
X197718100Y-86182963D02*
X184871288Y-89625254D01*
X241407051Y-71888353D02*
X239992837Y-74337841D01*
X160482757Y-48830202D02*
X159917070Y-49810000D01*
X149343789Y-51319122D02*
X154273211Y-51319125D01*
X203513652Y-84630044D02*
X197718100Y-86182963D01*
X206907765Y-78751271D02*
X204927869Y-82180559D01*
X223866951Y-77519957D02*
X219947769Y-75257215D01*
X204927869Y-82180559D02*
X203513652Y-84630044D01*
X167527081Y-46528570D02*
X166947523Y-46683862D01*
X239568570Y-75072689D02*
X234062796Y-76547958D01*
X225949016Y-78722039D02*
X223866951Y-77519957D01*
X234062796Y-76547958D02*
X225949016Y-78722039D01*
X219947769Y-75257215D02*
X214345399Y-76758364D01*
X166947523Y-46683862D02*
X160765597Y-48340305D01*
X172684382Y-44525510D02*
X167951345Y-45793722D01*
X239992837Y-74337841D02*
X239568570Y-75072689D01*
X169994670Y-97856065D02*
X181778962Y-94698473D01*
X149328736Y-51334180D02*
X145316628Y-51334181D01*
X257634598Y-67540191D02*
X241407051Y-71888353D01*
X160765597Y-48340305D02*
X160482757Y-48830202D01*
X159959193Y-98267456D02*
X162653633Y-99823090D01*
X162653633Y-99823090D02*
X169994670Y-97856065D01*
%TO.N,col7*%
X157564199Y-48794126D02*
X159979013Y-48147078D01*
X187183422Y-38362896D02*
X190467568Y-37482912D01*
X185958678Y-37655790D02*
X187183422Y-38362896D01*
X218657641Y-76620360D02*
X218174678Y-76749770D01*
X224496664Y-79093376D02*
X219720158Y-76335662D01*
X216124067Y-80301533D02*
X213999032Y-80870933D01*
X166985415Y-46052542D02*
X168682475Y-43113156D01*
X174574620Y-41534357D02*
X174942042Y-41746492D01*
X206444501Y-87450381D02*
X204609244Y-87942133D01*
X178876112Y-96615096D02*
X200029884Y-90946958D01*
X263352762Y-68785445D02*
X261270695Y-67583361D01*
X168682475Y-43113156D02*
X174574620Y-41534357D01*
X148293787Y-48794126D02*
X157564199Y-48794126D01*
X159979013Y-48147078D02*
X160127346Y-47890159D01*
X218174678Y-76749770D02*
X216901886Y-78954311D01*
X207434452Y-85735734D02*
X206444501Y-87450381D01*
X160127346Y-47890159D02*
X166985415Y-46052542D01*
X225476460Y-79659060D02*
X224496664Y-79093376D01*
X261270695Y-67583361D02*
X256247884Y-68929219D01*
X216901886Y-78954311D02*
X216124067Y-80301533D01*
X240351715Y-75673248D02*
X238516459Y-76165004D01*
X256247884Y-68929219D02*
X242048774Y-72733859D01*
X174942042Y-41746492D02*
X176101157Y-41435908D01*
X263965137Y-69138996D02*
X263352762Y-68785445D01*
X176101157Y-41435908D02*
X176878975Y-40088689D01*
X238516459Y-76165004D02*
X225476460Y-79659060D01*
X213999032Y-80870933D02*
X209555769Y-82061501D01*
X242048774Y-72733859D02*
X240917399Y-74693452D01*
X240917399Y-74693452D02*
X240351715Y-75673248D01*
X148293787Y-48794126D02*
X148293736Y-48794181D01*
X209555769Y-82061501D02*
X207434452Y-85735734D01*
X273624395Y-66550807D02*
X263965137Y-69138996D01*
X176878975Y-40088689D02*
X185958678Y-37655790D01*
X148293736Y-48794181D02*
X145316639Y-48794178D01*
X219720158Y-76335662D02*
X218657641Y-76620360D01*
%TO.N,sda*%
X111688518Y-97125155D02*
X107535037Y-96012232D01*
X113672135Y-97449607D02*
X113427186Y-97591028D01*
X125846629Y-79104177D02*
X127846633Y-79104181D01*
X103817833Y-96362069D02*
X102225665Y-97281309D01*
X126271549Y-38351902D02*
X126282462Y-38362814D01*
X76212795Y-71883264D02*
X76071374Y-71638315D01*
X126413827Y-36094179D02*
X130076635Y-36094179D01*
X115246636Y-97404181D02*
X114224971Y-97130427D01*
X125846629Y-79104177D02*
X124657907Y-79104179D01*
X132631547Y-80429263D02*
X133406632Y-79654180D01*
X124260180Y-79501907D02*
X119841102Y-79501911D01*
X101756474Y-37213099D02*
X106006548Y-38351901D01*
X88769831Y-75247912D02*
X87417535Y-74885565D01*
X126456663Y-100304181D02*
X134246628Y-100304184D01*
X88680538Y-90649601D02*
X88326984Y-90037228D01*
X76071374Y-71638315D02*
X76000663Y-71515842D01*
X102225665Y-97281309D02*
X100680184Y-96867197D01*
X130244900Y-80429263D02*
X132631547Y-80429263D01*
X127846633Y-79104181D02*
X129171714Y-80429262D01*
X106310292Y-96719339D02*
X105054590Y-96382874D01*
X126187475Y-100034994D02*
X126456663Y-100304181D01*
X135846634Y-100604178D02*
X136146629Y-100304178D01*
X91095351Y-91296648D02*
X89743056Y-90934302D01*
X88326984Y-90037228D02*
X88611684Y-88974710D01*
X100680184Y-96867197D02*
X95174406Y-95391930D01*
X91061175Y-87560496D02*
X91708223Y-85145682D01*
X124657907Y-79104179D02*
X124260180Y-79501907D01*
X105054590Y-96382874D02*
X104185257Y-96149937D01*
X94453065Y-79151865D02*
X93583732Y-78918928D01*
X114224971Y-97130427D02*
X113672135Y-97449607D01*
X89836429Y-88267603D02*
X91061175Y-87560496D01*
X124600834Y-100034994D02*
X126187475Y-100034994D01*
X89971911Y-77329978D02*
X89194095Y-75982760D01*
X87417535Y-74885565D02*
X76212795Y-71883264D01*
X93159468Y-78184081D02*
X92193542Y-77925262D01*
X95174406Y-95391930D02*
X94891564Y-94902031D01*
X94396589Y-94044709D02*
X93527256Y-93811772D01*
X104185257Y-96149937D02*
X103817833Y-96362069D01*
X88611684Y-88974710D02*
X89836429Y-88267603D01*
X107535037Y-96012232D02*
X106800190Y-96436496D01*
X92225861Y-83213830D02*
X92838233Y-82860277D01*
X75517700Y-71386431D02*
X74386328Y-69426839D01*
X91708223Y-85145682D02*
X92225861Y-83213830D01*
X92014591Y-92888817D02*
X91095351Y-91296648D01*
X92838233Y-82860277D02*
X93573080Y-82436014D01*
X89194095Y-75982760D02*
X88769831Y-75247912D01*
X116385282Y-97709280D02*
X116470224Y-97856404D01*
X106006548Y-38351901D02*
X126271549Y-38351902D01*
X92193542Y-77925262D02*
X89971911Y-77329978D01*
X129171714Y-80429262D02*
X130244900Y-80429263D01*
X76000663Y-71515842D02*
X75517700Y-71386431D01*
X92368145Y-93501189D02*
X92014591Y-92888817D01*
X89743056Y-90934302D02*
X88680538Y-90649601D01*
X134246628Y-100304184D02*
X134546635Y-100604182D01*
X93573080Y-82436014D02*
X93806017Y-81566681D01*
X93583732Y-78918928D02*
X93371600Y-78551504D01*
X93371600Y-78551504D02*
X93159468Y-78184081D01*
X134546635Y-100604182D02*
X135846634Y-100604178D01*
X93527256Y-93811772D02*
X92368145Y-93501189D01*
X116470224Y-97856404D02*
X124600834Y-100034994D01*
X94891564Y-94902031D02*
X94396589Y-94044709D01*
X106800190Y-96436496D02*
X106310292Y-96719339D01*
X115246636Y-97404181D02*
X116385282Y-97709280D01*
X87557364Y-33408459D02*
X101756474Y-37213099D01*
X126282461Y-35962814D02*
X126413827Y-36094179D01*
X113427186Y-97591028D02*
X111688518Y-97125155D01*
%TO.N,scl*%
X72893474Y-78861954D02*
X73514640Y-76543732D01*
X84864784Y-33411676D02*
X86946851Y-32209595D01*
X81577781Y-45678934D02*
X84864784Y-33411676D01*
X100499010Y-97543345D02*
X94413678Y-95912785D01*
X102701693Y-97822969D02*
X102334268Y-98035101D01*
X107547050Y-96740144D02*
X107057152Y-97022987D01*
X90120632Y-93002498D02*
X89837791Y-92512600D01*
X76331553Y-74917386D02*
X76435081Y-74531016D01*
X114246630Y-98304180D02*
X113973221Y-98462031D01*
X105492625Y-37178920D02*
X126898568Y-37178921D01*
X128353827Y-38634179D02*
X130076634Y-38634180D01*
X129146637Y-70204177D02*
X127746631Y-70204182D01*
X137146633Y-101104177D02*
X134146631Y-101104177D01*
X94413678Y-95912785D02*
X93847992Y-94932989D01*
X89484237Y-91900229D02*
X88808089Y-91719054D01*
X79746603Y-57922168D02*
X80481451Y-57497904D01*
X129671715Y-85429260D02*
X130244891Y-85429263D01*
X80481451Y-57497904D02*
X81828671Y-56720087D01*
X126898568Y-37178921D02*
X128353827Y-38634179D01*
X72585612Y-88511058D02*
X71878505Y-87286315D01*
X86946851Y-32209595D02*
X105492625Y-37178920D01*
X134146631Y-101104177D02*
X133946632Y-100904181D01*
X84570026Y-91308162D02*
X84080128Y-91591005D01*
X92811356Y-94551696D02*
X91748837Y-94266995D01*
X128146630Y-83904178D02*
X129671715Y-85429260D01*
X127746631Y-70204182D02*
X127346633Y-70604182D01*
X115939939Y-98352136D02*
X115459913Y-98629278D01*
X104416336Y-96833020D02*
X102701693Y-97822969D01*
X75106807Y-75624493D02*
X76331553Y-74917386D01*
X80425473Y-66593336D02*
X78374862Y-63041575D01*
X88808089Y-91719054D02*
X85427348Y-90813189D01*
X125846636Y-83904179D02*
X124604280Y-83904186D01*
X107057152Y-97022987D02*
X106444780Y-97376540D01*
X71878505Y-87286315D02*
X71029977Y-85816621D01*
X82341463Y-91125131D02*
X72585612Y-88511058D01*
X91536705Y-93899571D02*
X91183152Y-93287199D01*
X91748837Y-94266995D02*
X91536705Y-93899571D01*
X84080128Y-91591005D02*
X82341463Y-91125131D01*
X122655458Y-81955357D02*
X119183704Y-81955357D01*
X130244891Y-85429263D02*
X135896560Y-85429258D01*
X115459913Y-98629278D02*
X114246630Y-98304180D01*
X93847992Y-94932989D02*
X93777280Y-94810515D01*
X125445443Y-100904180D02*
X125438547Y-100897281D01*
X105672039Y-97169486D02*
X104416336Y-96833020D01*
X125846636Y-83904179D02*
X128146630Y-83904178D01*
X78556037Y-62365427D02*
X79746603Y-57922168D01*
X102334268Y-98035101D02*
X100499010Y-97543345D01*
X81828671Y-56720087D02*
X82009844Y-56043939D01*
X124604280Y-83904186D02*
X122655458Y-81955357D01*
X90410411Y-93080145D02*
X90120632Y-93002498D01*
X106444780Y-97376540D02*
X105672039Y-97169486D01*
X89837791Y-92512600D02*
X89484237Y-91900229D01*
X91183152Y-93287199D02*
X90410411Y-93080145D01*
X113973221Y-98462031D02*
X112859642Y-98163650D01*
X85427348Y-90813189D02*
X84570026Y-91308162D01*
X133946632Y-100904181D02*
X125445443Y-100904180D01*
X112859642Y-98163650D02*
X107547050Y-96740144D01*
X78374862Y-63041575D02*
X78556037Y-62365427D01*
X73514640Y-76543732D02*
X75106807Y-75624493D01*
X125438547Y-100897281D02*
X115939939Y-98352136D01*
X71029977Y-85816621D02*
X72893474Y-78861954D01*
X93777280Y-94810515D02*
X92811356Y-94551696D01*
%TO.N,3.3V*%
X124889140Y-99346688D02*
X126174156Y-99346688D01*
X117868903Y-86862257D02*
X122785180Y-86862264D01*
X124889140Y-99346688D02*
X124146634Y-98604182D01*
X122785180Y-86862264D02*
X123946634Y-88023715D01*
X117235898Y-36193446D02*
X117146633Y-36104182D01*
X124284107Y-36193448D02*
X117235898Y-36193446D01*
X135046636Y-99704184D02*
X126531648Y-99704180D01*
X126174156Y-99346688D02*
X126531648Y-99704180D01*
%TO.N,Net-(D82-Pad2)*%
X222091919Y-101269786D02*
X221292325Y-101484034D01*
X223534255Y-98771589D02*
X222091919Y-101269786D01*
X232297325Y-96423532D02*
X223534255Y-98771589D01*
X221292325Y-101484034D02*
X220825474Y-102292651D01*
X220825474Y-102292651D02*
X220118363Y-103517397D01*
X220118363Y-103517397D02*
X220021774Y-103543283D01*
%TO.N,ENC1B*%
X59450791Y-87277387D02*
X65801752Y-88979132D01*
X87079863Y-93024134D02*
X87804301Y-93218254D01*
X66689698Y-88466473D02*
X67026499Y-88272016D01*
X87804301Y-93218254D02*
X90702084Y-93994707D01*
X119170462Y-55262135D02*
X127415965Y-55262133D01*
X68282199Y-88608480D02*
X68423623Y-88853433D01*
X97591365Y-93977181D02*
X98315805Y-94171299D01*
X100459112Y-92933870D02*
X106518987Y-94557608D01*
X91267768Y-94974507D02*
X92692511Y-95356258D01*
X132616636Y-54350613D02*
X132616640Y-53874180D01*
X47250555Y-91370486D02*
X47262486Y-91363599D01*
X127623039Y-55469206D02*
X131498040Y-55469207D01*
X47262486Y-91363599D02*
X55925982Y-93684976D01*
X106518987Y-94557608D02*
X107814662Y-93809549D01*
X90949569Y-94423365D02*
X91267768Y-94974507D01*
X90702084Y-93994707D02*
X90949569Y-94423365D01*
X67026499Y-88272016D02*
X67944129Y-88517902D01*
X85822882Y-92402630D02*
X86619776Y-92616152D01*
X87009148Y-92901658D02*
X87079863Y-93024134D01*
X84506282Y-93162771D02*
X85761654Y-92437983D01*
X58702201Y-87076810D02*
X59450791Y-87277387D01*
X131498040Y-55469207D02*
X132616636Y-54350613D01*
X93578962Y-92047964D02*
X95679847Y-92610895D01*
X65801752Y-88979132D02*
X66689698Y-88466473D01*
X58012769Y-85882673D02*
X58702201Y-87076810D01*
X67944129Y-88517902D02*
X68282199Y-88608480D01*
X85761654Y-92437983D02*
X85822882Y-92402630D01*
X96157149Y-93437596D02*
X96263217Y-93621311D01*
X86885408Y-92687331D02*
X87009148Y-92901658D01*
X98836327Y-93870784D02*
X100459112Y-92933870D01*
X96263217Y-93621311D02*
X97591365Y-93977181D01*
X68423623Y-88853433D02*
X84506282Y-93162771D01*
X127415965Y-55262133D02*
X127623039Y-55469206D01*
X98315805Y-94171299D02*
X98836327Y-93870784D01*
X95679847Y-92610895D02*
X96157149Y-93437596D01*
X86619776Y-92616152D02*
X86885408Y-92687331D01*
%TO.N,ENC1A*%
X91407023Y-90301309D02*
X92131809Y-91556672D01*
X43553575Y-95546183D02*
X54631888Y-98514607D01*
X97714643Y-94579619D02*
X98680568Y-94838444D01*
X85584070Y-91458652D02*
X86767332Y-91775704D01*
X99354177Y-94449530D02*
X100578922Y-93742426D01*
X71864790Y-89050800D02*
X84083760Y-92324856D01*
X69063613Y-88300224D02*
X71864790Y-89050800D01*
X43541648Y-95553069D02*
X43553575Y-95546183D01*
X93758280Y-92924232D02*
X95279612Y-93331870D01*
X98680568Y-94838444D02*
X99354177Y-94449530D01*
X95279612Y-93331870D02*
X95580134Y-93852387D01*
X100578922Y-93742426D02*
X105600432Y-95087936D01*
X133335558Y-56340259D02*
X133339823Y-56335990D01*
X89547622Y-89803082D02*
X91407023Y-90301309D01*
X87540072Y-91982758D02*
X87663812Y-92197087D01*
X86767332Y-91775704D02*
X87540072Y-91982758D01*
X92768205Y-92658947D02*
X93758280Y-92924232D01*
X95580134Y-93852387D02*
X95686199Y-94036106D01*
X95686199Y-94036106D02*
X97714643Y-94579619D01*
X66455609Y-87601413D02*
X66639321Y-87495346D01*
X88753483Y-92670241D02*
X88814716Y-92634888D01*
X68957546Y-88116512D02*
X69063613Y-88300224D01*
X85339124Y-91600073D02*
X85584070Y-91458652D01*
X105600432Y-95087936D02*
X107145913Y-95502048D01*
X87787553Y-92411422D02*
X88753483Y-92670241D01*
X119670440Y-56340255D02*
X133335558Y-56340259D01*
X84083760Y-92324856D02*
X85339124Y-91600073D01*
X68426285Y-87974160D02*
X68957546Y-88116512D01*
X65659525Y-88061033D02*
X66455609Y-87601413D01*
X66639321Y-87495346D02*
X68426285Y-87974160D01*
X92131809Y-91556672D02*
X92768205Y-92658947D01*
X87663812Y-92197087D02*
X87787553Y-92411422D01*
X59670790Y-86456351D02*
X65659525Y-88061033D01*
X107145913Y-95502048D02*
X108257872Y-94860056D01*
%TO.N,ENC2B*%
X198288307Y-87729471D02*
X198165831Y-87658762D01*
X166914665Y-95825429D02*
X166721480Y-95877196D01*
X181165538Y-92213974D02*
X180387720Y-93561195D01*
X148128824Y-59368470D02*
X147828822Y-59668467D01*
X166721480Y-95877196D02*
X165741686Y-95311513D01*
X158528824Y-59168469D02*
X155628824Y-59168469D01*
X155628824Y-59168469D02*
X155428824Y-59368468D01*
X198165831Y-87658762D02*
X193239614Y-88978736D01*
X140236632Y-55276280D02*
X140236636Y-53874180D01*
X167590816Y-95644259D02*
X166914665Y-95825429D01*
X193239614Y-88978736D02*
X181165538Y-92213974D01*
X142228820Y-57268468D02*
X140236632Y-55276280D01*
X170217758Y-94629787D02*
X167802946Y-95276831D01*
X172729168Y-93956856D02*
X170217758Y-94629787D01*
X226601205Y-96955698D02*
X220784207Y-98514355D01*
X174933706Y-95229650D02*
X174443811Y-94946806D01*
X174443811Y-94946806D02*
X172729168Y-93956856D01*
X167802946Y-95276831D02*
X167661522Y-95521786D01*
X205862281Y-86631779D02*
X201998579Y-87667056D01*
X143928824Y-59668468D02*
X142228822Y-57968470D01*
X199390581Y-88365867D02*
X198288307Y-87729471D01*
X180387720Y-93561195D02*
X180246301Y-93806145D01*
X155428824Y-59368468D02*
X148128824Y-59368470D01*
X167661522Y-95521786D02*
X167590816Y-95644259D01*
X180246301Y-93806145D02*
X179183784Y-94090845D01*
X201998579Y-87667056D02*
X199390581Y-88365867D01*
X179183784Y-94090845D02*
X174933706Y-95229650D01*
X209044262Y-81120429D02*
X206781521Y-85039610D01*
X142228822Y-57968470D02*
X142228820Y-57268468D01*
X214743225Y-79593393D02*
X209044262Y-81120429D01*
X147828822Y-59668467D02*
X143928824Y-59668468D01*
X226629323Y-96906991D02*
X226601205Y-96955698D01*
X206781521Y-85039610D02*
X205862281Y-86631779D01*
%TO.N,ENC2A*%
X215353739Y-78394530D02*
X208205888Y-80309796D01*
X180463511Y-92298555D02*
X179827114Y-93400828D01*
X222892294Y-92773118D02*
X222920415Y-92724412D01*
X180887775Y-91563708D02*
X180463511Y-92298555D01*
X204882488Y-86066094D02*
X201694927Y-86920198D01*
X148998871Y-65438520D02*
X147118090Y-63557739D01*
X173991808Y-94032645D02*
X172767063Y-93325536D01*
X175094076Y-94669044D02*
X173991808Y-94032645D01*
X177315708Y-94073755D02*
X175094076Y-94669044D01*
X147118090Y-63557739D02*
X143518091Y-63557735D01*
X198809166Y-86968741D02*
X198564217Y-86827321D01*
X198564217Y-86827321D02*
X192672069Y-88406118D01*
X208205888Y-80309796D02*
X204882488Y-86066094D01*
X199666487Y-87463718D02*
X198809166Y-86968741D01*
X179827114Y-93400828D02*
X177315708Y-94073755D01*
X192672069Y-88406118D02*
X180887775Y-91563708D01*
X219490111Y-93684727D02*
X222892294Y-92773118D01*
X157840768Y-65438520D02*
X148998871Y-65438520D01*
X201694927Y-86920198D02*
X199666487Y-87463718D01*
X172767063Y-93325536D02*
X166874910Y-94904331D01*
%TO.N,Net-(D87-Pad2)*%
X144744895Y-80429258D02*
X148112258Y-80429255D01*
X148112258Y-80429255D02*
X148127286Y-80444285D01*
%TO.N,row4*%
X235196387Y-60300960D02*
X231912240Y-61180941D01*
X236964156Y-57239096D02*
X235408519Y-59933534D01*
X182767419Y-75591590D02*
X182131025Y-76693861D01*
X215403569Y-45934182D02*
X210504589Y-43105754D01*
X199596697Y-68079899D02*
X198465325Y-70039488D01*
X213946018Y-65994980D02*
X213088698Y-65500006D01*
X158316125Y-87112620D02*
X149554737Y-87112620D01*
X168925580Y-81888691D02*
X167935631Y-83603330D01*
X239958522Y-56436755D02*
X236964156Y-57239096D01*
X216260890Y-46429159D02*
X215648515Y-46075602D01*
X170056952Y-79929099D02*
X168925580Y-81888691D01*
X227483216Y-47356192D02*
X222829185Y-44669189D01*
X215648515Y-46075602D02*
X215403569Y-45934182D01*
X231912240Y-61180941D02*
X213946018Y-65994980D01*
X245271115Y-55013258D02*
X239958522Y-56436755D01*
X183615947Y-74121898D02*
X182767419Y-75591590D01*
X228340539Y-47851170D02*
X227483216Y-47356192D01*
X172954730Y-79152639D02*
X170056952Y-79929099D01*
X254211258Y-54377720D02*
X253353933Y-53882745D01*
X199203258Y-46133938D02*
X197930465Y-48338477D01*
X149554737Y-87112620D02*
X149527800Y-87085680D01*
X233770522Y-47638538D02*
X232708010Y-47923239D01*
X220414370Y-45316235D02*
X216260890Y-46429159D01*
X239640510Y-49067982D02*
X238191617Y-49456210D01*
X232708010Y-47923239D02*
X231238316Y-47074710D01*
X248555263Y-54133270D02*
X245271115Y-55013258D01*
X147228824Y-68268469D02*
X145635417Y-66675067D01*
X213088698Y-65500006D02*
X211863951Y-64792897D01*
X164941260Y-84405671D02*
X162236666Y-85130370D01*
X167935631Y-83603330D02*
X164941260Y-84405671D01*
X249780011Y-54840375D02*
X248555263Y-54133270D01*
X201818325Y-67484614D02*
X199596697Y-68079899D01*
X198394613Y-70161965D02*
X189025135Y-72672510D01*
X265001158Y-81509585D02*
X256983974Y-83657782D01*
X258307896Y-54211777D02*
X255313526Y-55014115D01*
X251035714Y-54503911D02*
X249780011Y-54840375D01*
X189025135Y-72672510D02*
X183615947Y-74121898D01*
X210504589Y-43105754D02*
X208379550Y-43675161D01*
X255313526Y-55014115D02*
X254211258Y-54377720D01*
X162236666Y-85130370D02*
X161600269Y-86232635D01*
X161600269Y-86232635D02*
X158316125Y-87112620D01*
X208379550Y-43675161D02*
X199203258Y-46133938D01*
X253353933Y-53882745D02*
X251035714Y-54503911D01*
X238191617Y-49456210D02*
X234639862Y-47405600D01*
X182131025Y-76693861D02*
X172954730Y-79152639D01*
X234639862Y-47405600D02*
X233770522Y-47638538D01*
X150428824Y-68268469D02*
X147228824Y-68268469D01*
X198465325Y-70039488D02*
X198394613Y-70161965D01*
X211863951Y-64792897D02*
X201818325Y-67484614D01*
X231238316Y-47074710D02*
X228340539Y-47851170D01*
X235408519Y-59933534D02*
X235196387Y-60300960D01*
X222829185Y-44669189D02*
X220414370Y-45316235D01*
%TO.N,row5*%
X116351444Y-101610469D02*
X114153861Y-102879244D01*
X114153861Y-102879244D02*
X113827005Y-102791663D01*
X123352774Y-103488442D02*
X123350080Y-103485748D01*
X138813204Y-103479811D02*
X132538209Y-103479807D01*
X132538209Y-103479807D02*
X132488205Y-103529807D01*
X143988209Y-101604808D02*
X148763209Y-101604808D01*
X204221004Y-93121778D02*
X204588430Y-93333910D01*
X129147385Y-104188443D02*
X128447386Y-103488442D01*
X185823802Y-95747804D02*
X201495947Y-91548464D01*
X163752398Y-101661819D02*
X169982615Y-99992437D01*
X55302764Y-86100752D02*
X41972993Y-82529048D01*
X143988209Y-101604808D02*
X140688209Y-101604808D01*
X140688209Y-101604808D02*
X138813204Y-103479811D01*
X57693438Y-86741320D02*
X55302764Y-86100752D01*
X58259119Y-87721121D02*
X57940920Y-87169990D01*
X145554480Y-65394125D02*
X143568787Y-65394124D01*
X123350080Y-103485748D02*
X116351444Y-101610469D01*
X95421671Y-97678792D02*
X95422730Y-97680635D01*
X73424150Y-91784578D02*
X58259119Y-87721121D01*
X73424150Y-91784578D02*
X95421671Y-97678792D01*
X110204788Y-101821088D02*
X113827005Y-102791663D01*
X148763209Y-101604808D02*
X152944729Y-100484373D01*
X57940920Y-87169990D02*
X57693438Y-86741320D01*
X41972993Y-82529048D02*
X40809486Y-83200795D01*
X169982615Y-99992437D02*
X185823802Y-95747804D01*
X131829570Y-104188442D02*
X129147385Y-104188443D01*
X204588430Y-93333910D02*
X214658207Y-90635722D01*
X162472546Y-102004753D02*
X163752398Y-101661819D01*
X157653719Y-99222604D02*
X159716870Y-100413763D01*
X152944729Y-100484373D02*
X157653719Y-99222604D01*
X110082101Y-101608601D02*
X110204788Y-101821088D01*
X147228821Y-67068469D02*
X145554480Y-65394125D01*
X95422730Y-97680635D02*
X110082101Y-101608601D01*
X159716870Y-100413763D02*
X162472546Y-102004753D01*
X151428824Y-67068469D02*
X147228821Y-67068469D01*
X132488205Y-103529807D02*
X131829570Y-104188442D01*
X201495947Y-91548464D02*
X204221004Y-93121778D01*
X128447386Y-103488442D02*
X123352774Y-103488442D01*
%TO.N,PA10*%
X137646630Y-81504180D02*
X143246639Y-81504179D01*
X143946634Y-82204185D02*
X152009293Y-82204188D01*
X132546633Y-81704179D02*
X137446630Y-81704182D01*
X143246639Y-81504179D02*
X143946634Y-82204185D01*
X154913210Y-69954808D02*
X152011563Y-70732302D01*
X137446630Y-81704182D02*
X137646630Y-81504180D01*
%TO.N,VDD*%
X47590458Y-41199777D02*
X60002603Y-44525598D01*
X114275837Y-62382086D02*
X114275752Y-62382005D01*
X139900000Y-62600000D02*
X137200000Y-65300000D01*
X140400000Y-73600000D02*
X140200000Y-73400000D01*
X18425903Y-39470717D02*
X18825904Y-39470724D01*
X106585152Y-63089600D02*
X109860069Y-61198825D01*
X98688707Y-60973756D02*
X106585152Y-63089600D01*
X80254441Y-52980249D02*
X80785704Y-53122594D01*
X75234201Y-46795161D02*
X76345019Y-47092804D01*
X41663854Y-44192839D02*
X43102925Y-43361995D01*
X17325898Y-39145725D02*
X17650903Y-39470720D01*
X98529608Y-60698187D02*
X98688707Y-60973756D01*
X41553852Y-44603360D02*
X41663854Y-44192839D01*
X76554485Y-48339495D02*
X76996427Y-49104964D01*
X19375903Y-38920726D02*
X22300901Y-35995721D01*
X90003361Y-56006567D02*
X91346864Y-58333586D01*
X23411258Y-49913653D02*
X26044456Y-48393377D01*
X60002603Y-44525598D02*
X62207147Y-43252807D01*
X78203835Y-49428489D02*
X80254441Y-52980249D01*
X76345019Y-47092804D02*
X76716252Y-47735798D01*
X140800000Y-74000000D02*
X140400000Y-73600000D01*
X74866776Y-47007298D02*
X75234201Y-46795161D01*
X18825904Y-39470724D02*
X19375903Y-38920726D01*
X80785704Y-53122594D02*
X81068548Y-53612494D01*
X109860069Y-61198825D02*
X114275752Y-62382005D01*
X121705005Y-62382088D02*
X114275837Y-62382086D01*
X22300901Y-35995721D02*
X23575904Y-35995721D01*
X43610035Y-43497874D02*
X47590458Y-41199777D01*
X134200000Y-73400000D02*
X134000000Y-73400000D01*
X16125897Y-37945725D02*
X17325898Y-39145725D01*
X76996427Y-49104964D02*
X78203835Y-49428489D01*
X10600903Y-37945721D02*
X16125897Y-37945725D01*
X81068548Y-53612494D02*
X90003361Y-56006567D01*
X134000000Y-73400000D02*
X130900000Y-70300000D01*
X63927671Y-44076168D02*
X74866776Y-47007298D01*
X32153933Y-50030404D02*
X41553852Y-44603360D01*
X76716252Y-47735798D02*
X76554485Y-48339495D01*
X63680183Y-43647508D02*
X63927671Y-44076168D01*
X91346864Y-58333586D02*
X97770270Y-60054733D01*
X97770270Y-60054733D02*
X98070790Y-60575250D01*
X137200000Y-65300000D02*
X134300000Y-65300000D01*
X120827098Y-65104182D02*
X128346634Y-65104184D01*
X140200000Y-73400000D02*
X134200000Y-73400000D01*
X128346634Y-67046634D02*
X128346634Y-65104184D01*
X8525898Y-37545724D02*
X8925897Y-37945724D01*
X145400000Y-74000000D02*
X140800000Y-74000000D01*
X130900000Y-70300000D02*
X130900000Y-69600000D01*
X8925897Y-37945724D02*
X10600903Y-37945721D01*
X62207147Y-43252807D02*
X63680183Y-43647508D01*
X17650903Y-39470720D02*
X18425903Y-39470717D01*
X26044456Y-48393377D02*
X32153933Y-50030404D01*
X43102925Y-43361995D02*
X43610035Y-43497874D01*
X98070790Y-60575250D02*
X98529608Y-60698187D01*
X130900000Y-69600000D02*
X128346634Y-67046634D01*
%TO.N,/CC1*%
X9446631Y-30904181D02*
X8546631Y-30904182D01*
X11646633Y-31304182D02*
X9846634Y-31304181D01*
X9646631Y-31104188D02*
X9446631Y-30904181D01*
X9846634Y-31304181D02*
X9646631Y-31104188D01*
%TO.N,Net-(D56-Pad2)*%
X138646630Y-65004183D02*
X141146635Y-62504182D01*
X150046632Y-62504187D02*
X153678442Y-62504179D01*
X153546630Y-24004182D02*
X161246638Y-24004181D01*
X141146635Y-62504182D02*
X149146635Y-62504180D01*
X138646629Y-66304181D02*
X138646630Y-65004183D01*
X137446633Y-67504183D02*
X138646629Y-66304181D01*
X149146635Y-62504180D02*
X150046632Y-62504187D01*
X135147272Y-69803541D02*
X137446633Y-67504183D01*
X135147274Y-70604379D02*
X135147272Y-69803541D01*
%TO.N,PA9*%
X121946632Y-78504175D02*
X121646627Y-78204179D01*
X101661951Y-27629810D02*
X101787579Y-27504182D01*
X113677154Y-78417686D02*
X109430401Y-77279772D01*
X114720171Y-78417687D02*
X113677154Y-78417686D01*
X105968389Y-79278563D02*
X104398766Y-78857980D01*
X93716862Y-73614638D02*
X92074792Y-73174649D01*
X100162579Y-27504180D02*
X100288205Y-27629809D01*
X134646630Y-78104188D02*
X133646634Y-78104181D01*
X100988204Y-27629807D02*
X101661951Y-27629810D01*
X107284996Y-78518423D02*
X105968389Y-79278563D01*
X96526466Y-76748605D02*
X96137562Y-76074994D01*
X101787579Y-27504182D02*
X119646632Y-27504180D01*
X95395100Y-74789015D02*
X94284283Y-74491369D01*
X94211838Y-74471960D02*
X93805252Y-73767732D01*
X94284283Y-74491369D02*
X94211838Y-74471960D01*
X100288205Y-27629809D02*
X100988204Y-27629807D01*
X135246630Y-77504179D02*
X134646630Y-78104188D01*
X21146628Y-29004187D02*
X23446637Y-29004179D01*
X109430401Y-77279772D02*
X107284996Y-78518423D01*
X29046636Y-27504177D02*
X32446629Y-27504184D01*
X96137562Y-76074994D02*
X95395100Y-74789015D01*
X117608674Y-77604188D02*
X117420172Y-77792686D01*
X123646633Y-78504185D02*
X121946632Y-78504175D01*
X117420172Y-77792686D02*
X116795175Y-78417687D01*
X124146634Y-78504184D02*
X123646633Y-78504185D01*
X121646627Y-78204179D02*
X121046629Y-77604186D01*
X24546629Y-27904178D02*
X26746634Y-27904178D01*
X124446628Y-78204187D02*
X124346630Y-78304181D01*
X121046629Y-77604186D02*
X118546631Y-77604184D01*
X132446629Y-78204184D02*
X131746633Y-78204183D01*
X133646634Y-78104181D02*
X132546634Y-78104182D01*
X124346630Y-78304181D02*
X124146634Y-78504184D01*
X135396630Y-77354181D02*
X135246630Y-77504179D01*
X137596628Y-77354180D02*
X135396630Y-77354181D01*
X26746634Y-27904178D02*
X28646631Y-27904184D01*
X104398766Y-78857980D02*
X96526466Y-76748605D01*
X120746635Y-28604181D02*
X123346628Y-28604187D01*
X24046631Y-28404176D02*
X24546629Y-27904178D01*
X118546631Y-77604184D02*
X117608674Y-77604188D01*
X131746633Y-78204183D02*
X124446628Y-78204187D01*
X116795175Y-78417687D02*
X114720171Y-78417687D01*
X93805252Y-73767732D02*
X93716862Y-73614638D01*
X23446637Y-29004179D02*
X24046631Y-28404176D01*
X132546634Y-78104182D02*
X132446629Y-78204184D01*
X28646631Y-27904184D02*
X29046636Y-27504177D01*
X17946631Y-35104182D02*
X19846634Y-35104185D01*
X32446629Y-27504184D02*
X100162579Y-27504180D01*
X119646632Y-27504180D02*
X120746635Y-28604181D01*
%TO.N,PB12*%
X142246638Y-75004187D02*
X151546636Y-75004186D01*
X142046631Y-74804181D02*
X142246638Y-75004187D01*
X151546636Y-75004186D02*
X154533997Y-74203727D01*
X154533997Y-74203727D02*
X155570607Y-72408258D01*
%TO.N,PB13*%
X156228007Y-74861710D02*
X151950092Y-76007975D01*
X151946300Y-76004182D02*
X151950092Y-76007975D01*
X142046633Y-76004183D02*
X151946300Y-76004182D01*
%TO.N,PB14*%
X140446635Y-75104177D02*
X141146628Y-75804186D01*
X150846631Y-77104182D02*
X151057614Y-77315159D01*
X141146631Y-76504181D02*
X141746636Y-77104182D01*
X151057614Y-77315159D02*
X156885410Y-77315162D01*
X141746636Y-77104182D02*
X150846631Y-77104182D01*
X141146628Y-75804186D02*
X141146631Y-76504181D01*
%TO.N,RAW*%
X143386639Y-24004182D02*
X145316632Y-25934183D01*
X120046640Y-26804187D02*
X120946632Y-27704184D01*
X120946632Y-27704184D02*
X125346634Y-27704183D01*
X28246628Y-27204185D02*
X28646631Y-26804181D01*
X23146633Y-28204183D02*
X24146634Y-27204185D01*
X125746629Y-24004177D02*
X143386639Y-24004182D01*
X15746632Y-30504180D02*
X17646628Y-30504184D01*
X19946626Y-28204182D02*
X23146633Y-28204183D01*
X10446632Y-30404183D02*
X15646637Y-30404189D01*
X15646637Y-30404189D02*
X15746632Y-30504180D01*
X24146634Y-27204185D02*
X28246628Y-27204185D01*
X17646628Y-30504184D02*
X19946626Y-28204182D01*
X28646631Y-26804181D02*
X120046640Y-26804187D01*
D35*
%TO.N,USB_DP*%
X14946629Y-31104187D02*
X15246631Y-31404182D01*
X122446631Y-77304184D02*
X122146632Y-77004182D01*
X23646631Y-26704182D02*
X23746631Y-26604181D01*
X131846627Y-77104185D02*
X123746634Y-77104179D01*
X116661711Y-76489025D02*
X121631478Y-76489025D01*
X13746631Y-31304180D02*
X13946632Y-31104179D01*
X123546629Y-77304191D02*
X122446631Y-77304184D01*
X13146630Y-31304179D02*
X13746631Y-31304180D01*
X28346629Y-26204189D02*
X29646634Y-26204180D01*
X133746632Y-77104179D02*
X131846627Y-77104185D01*
X135046630Y-75804178D02*
X133746632Y-77104179D01*
X120846627Y-26704181D02*
X122446631Y-26704182D01*
X122146632Y-77004182D02*
X121702652Y-76560204D01*
X27946629Y-26604182D02*
X28346629Y-26204189D01*
X123746634Y-77104179D02*
X123546629Y-77304191D01*
X121631478Y-76489025D02*
X121702652Y-76560204D01*
X15246631Y-31404182D02*
X20146630Y-31404180D01*
X120346631Y-26204180D02*
X120846627Y-26704181D01*
X23046635Y-27304179D02*
X23646631Y-26704182D01*
X20146634Y-27304180D02*
X23046635Y-27304179D01*
X25046629Y-26604179D02*
X27946629Y-26604182D01*
X29646634Y-26204180D02*
X120346631Y-26204180D01*
X13946632Y-31104179D02*
X14946629Y-31104187D01*
X23746631Y-26604181D02*
X25046629Y-26604179D01*
%TO.N,USB_DN*%
X116345171Y-77367688D02*
X116995175Y-77367687D01*
X134246631Y-77604183D02*
X135146635Y-76704176D01*
X121346634Y-77004186D02*
X121746630Y-77404179D01*
X123946635Y-77804176D02*
X124047114Y-77703699D01*
X132247111Y-77703703D02*
X132346633Y-77604183D01*
X118746633Y-77004177D02*
X121346634Y-77004186D01*
X116115846Y-77138362D02*
X116345171Y-77367688D01*
X116995175Y-77367687D02*
X117358676Y-77004181D01*
X121746630Y-77404179D02*
X122246633Y-77904179D01*
X124047114Y-77703699D02*
X132247111Y-77703703D01*
X117358676Y-77004181D02*
X118746633Y-77004177D01*
X135146635Y-76704176D02*
X135246633Y-76704179D01*
X122246633Y-77904179D02*
X123846630Y-77904185D01*
X115607736Y-77138363D02*
X116115846Y-77138362D01*
X123846630Y-77904185D02*
X123946635Y-77804176D01*
X135246633Y-76704179D02*
X135746629Y-76704184D01*
X132346633Y-77604183D02*
X134246631Y-77604183D01*
X135746629Y-76704184D02*
X136346630Y-76104181D01*
D34*
%TO.N,PB15*%
X145646631Y-77604181D02*
X145846634Y-77804183D01*
X150146636Y-78004181D02*
X154492773Y-78004181D01*
X140546635Y-76704184D02*
X140546638Y-77004181D01*
X141146630Y-77604180D02*
X143446633Y-77604182D01*
X154492773Y-78004181D02*
X154501034Y-78012444D01*
X140546638Y-77004181D02*
X141046625Y-77504184D01*
X157542805Y-79768615D02*
X154501034Y-78012444D01*
X145846634Y-77804183D02*
X146046630Y-78004186D01*
X139446636Y-75304184D02*
X140046632Y-75904181D01*
X143446633Y-77604182D02*
X145646631Y-77604181D01*
X140546634Y-76404183D02*
X140546635Y-76704184D01*
X140046632Y-75904181D02*
X140546634Y-76404183D01*
X139446632Y-74804180D02*
X139446636Y-75304184D01*
X146046630Y-78004186D02*
X150146636Y-78004181D01*
X141046625Y-77504184D02*
X141146630Y-77604180D01*
%TO.N,SWD*%
X128946630Y-75404187D02*
X127346636Y-75404178D01*
X94207227Y-72943691D02*
X88735257Y-71477481D01*
X112571560Y-77492690D02*
X109256596Y-76604445D01*
X94755236Y-73892872D02*
X94207227Y-72943691D01*
X135446638Y-74704174D02*
X132446636Y-74704178D01*
X113820173Y-77492684D02*
X112571560Y-77492690D01*
X122646628Y-75404185D02*
X122446636Y-75604177D01*
X132446636Y-74704178D02*
X131846639Y-75304180D01*
X130546630Y-75304181D02*
X129046632Y-75304184D01*
X129046632Y-75304184D02*
X128946630Y-75404187D01*
X97074604Y-76248431D02*
X95890199Y-74196983D01*
X131846639Y-75304180D02*
X130546630Y-75304181D01*
X119946635Y-75604178D02*
X115708680Y-75604181D01*
X115708680Y-75604181D02*
X113820173Y-77492684D01*
X95890199Y-74196983D02*
X94755236Y-73892872D01*
X127346636Y-75404178D02*
X122646628Y-75404185D01*
X122446636Y-75604177D02*
X119946635Y-75604178D01*
X105816229Y-78590746D02*
X97074604Y-76248431D01*
X109256596Y-76604445D02*
X105816229Y-78590746D01*
%TO.N,SWC*%
X95316307Y-73344399D02*
X94432426Y-71813467D01*
X128546634Y-74804185D02*
X127646634Y-74804177D01*
X97616259Y-75772405D02*
X96378827Y-73629097D01*
X131900000Y-73700000D02*
X130995816Y-74604184D01*
X90930945Y-70875248D02*
X90701132Y-70477206D01*
X112245173Y-76717688D02*
X109128195Y-75882496D01*
X115558674Y-74804187D02*
X113645173Y-76717687D01*
X120446643Y-74804186D02*
X115558674Y-74804187D01*
X105609297Y-77914128D02*
X97616259Y-75772405D01*
X127646634Y-74804177D02*
X120446643Y-74804186D01*
X109128195Y-75882496D02*
X105609297Y-77914128D01*
X94432426Y-71813467D02*
X90930945Y-70875248D01*
X128746631Y-74604184D02*
X128546634Y-74804185D01*
X96378827Y-73629097D02*
X95316307Y-73344399D01*
X90701132Y-70477206D02*
X88088305Y-69777100D01*
X130995816Y-74604184D02*
X128746631Y-74604184D01*
X88088305Y-69777100D02*
X86281800Y-70820081D01*
X113645173Y-76717687D02*
X112245173Y-76717688D01*
%TO.N,PC15*%
X134846633Y-61404183D02*
X135346635Y-60904178D01*
X164422940Y-80554688D02*
X164471164Y-80582529D01*
X147846633Y-60904180D02*
X148046630Y-61104183D01*
X149046629Y-60904183D02*
X159487184Y-60904182D01*
X148046630Y-61104183D02*
X148846631Y-61104186D01*
X135346635Y-60904178D02*
X147846633Y-60904180D01*
X158200207Y-82222063D02*
X164422940Y-80554688D01*
X148846631Y-61104186D02*
X149046629Y-60904183D01*
X134821636Y-61404183D02*
X134846633Y-61404183D01*
%TO.N,PA1*%
X158687181Y-56604181D02*
X159527286Y-57444283D01*
X157046629Y-56604181D02*
X158687181Y-56604181D01*
X158857610Y-84675519D02*
X165141919Y-82991643D01*
X144246633Y-56604184D02*
X157046629Y-56604181D01*
X165141919Y-82991643D02*
X165142362Y-82990876D01*
X143096629Y-56854185D02*
X143346634Y-56604180D01*
X143346634Y-56604180D02*
X144246633Y-56604184D01*
%TD*%
M02*
