%TF.GenerationSoftware,KiCad,Pcbnew,(6.0.0)*%
%TF.CreationDate,2022-04-21T03:32:39-07:00*%
%TF.ProjectId,ffkb,66666b62-2e6b-4696-9361-645f70636258,rev?*%
%TF.SameCoordinates,Original*%
%TF.FileFunction,Soldermask,Top*%
%TF.FilePolarity,Negative*%
%FSLAX46Y46*%
G04 Gerber Fmt 4.6, Leading zero omitted, Abs format (unit mm)*
G04 Created by KiCad (PCBNEW (6.0.0)) date 2022-04-21 03:32:39*
%MOMM*%
%LPD*%
G01*
G04 APERTURE LIST*
G04 Aperture macros list*
%AMRoundRect*
0 Rectangle with rounded corners*
0 $1 Rounding radius*
0 $2 $3 $4 $5 $6 $7 $8 $9 X,Y pos of 4 corners*
0 Add a 4 corners polygon primitive as box body*
4,1,4,$2,$3,$4,$5,$6,$7,$8,$9,$2,$3,0*
0 Add four circle primitives for the rounded corners*
1,1,$1+$1,$2,$3*
1,1,$1+$1,$4,$5*
1,1,$1+$1,$6,$7*
1,1,$1+$1,$8,$9*
0 Add four rect primitives between the rounded corners*
20,1,$1+$1,$2,$3,$4,$5,0*
20,1,$1+$1,$4,$5,$6,$7,0*
20,1,$1+$1,$6,$7,$8,$9,0*
20,1,$1+$1,$8,$9,$2,$3,0*%
%AMHorizOval*
0 Thick line with rounded ends*
0 $1 width*
0 $2 $3 position (X,Y) of the first rounded end (center of the circle)*
0 $4 $5 position (X,Y) of the second rounded end (center of the circle)*
0 Add line between two ends*
20,1,$1,$2,$3,$4,$5,0*
0 Add two circle primitives to create the rounded ends*
1,1,$1,$2,$3*
1,1,$1,$4,$5*%
%AMRotRect*
0 Rectangle, with rotation*
0 The origin of the aperture is its center*
0 $1 length*
0 $2 width*
0 $3 Rotation angle, in degrees counterclockwise*
0 Add horizontal line*
21,1,$1,$2,0,0,$3*%
%AMFreePoly0*
4,1,22,0.500000,-0.750000,0.000000,-0.750000,0.000000,-0.745033,-0.079941,-0.743568,-0.215256,-0.701293,-0.333266,-0.622738,-0.424486,-0.514219,-0.481581,-0.384460,-0.499164,-0.250000,-0.500000,-0.250000,-0.500000,0.250000,-0.499164,0.250000,-0.499963,0.256109,-0.478152,0.396186,-0.417904,0.524511,-0.324060,0.630769,-0.204165,0.706417,-0.067858,0.745374,0.000000,0.744959,0.000000,0.750000,
0.500000,0.750000,0.500000,-0.750000,0.500000,-0.750000,$1*%
%AMFreePoly1*
4,1,20,0.000000,0.744959,0.073906,0.744508,0.209726,0.703889,0.328688,0.626782,0.421226,0.519385,0.479903,0.390333,0.500000,0.250000,0.500000,-0.250000,0.499850,-0.262216,0.476331,-0.402017,0.414519,-0.529596,0.319384,-0.634700,0.198574,-0.708877,0.061801,-0.746166,0.000000,-0.745033,0.000000,-0.750000,-0.500000,-0.750000,-0.500000,0.750000,0.000000,0.750000,0.000000,0.744959,
0.000000,0.744959,$1*%
G04 Aperture macros list end*
%ADD10RoundRect,0.425000X-0.425000X-0.425000X0.425000X-0.425000X0.425000X0.425000X-0.425000X0.425000X0*%
%ADD11O,1.700000X1.700000*%
%ADD12RotRect,2.000000X2.000000X165.000000*%
%ADD13C,2.000000*%
%ADD14RotRect,2.000000X2.000000X15.000000*%
%ADD15O,1.600000X2.000000*%
%ADD16C,3.429000*%
%ADD17C,1.701800*%
%ADD18C,3.000000*%
%ADD19C,0.990600*%
%ADD20C,3.987800*%
%ADD21R,2.000000X2.000000*%
%ADD22FreePoly0,75.000000*%
%ADD23FreePoly1,75.000000*%
%ADD24R,1.752600X1.752600*%
%ADD25C,1.752600*%
%ADD26C,3.200000*%
%ADD27RoundRect,0.425000X0.675000X0.425000X-0.675000X0.425000X-0.675000X-0.425000X0.675000X-0.425000X0*%
%ADD28RoundRect,0.425000X0.675000X-0.425000X0.675000X0.425000X-0.675000X0.425000X-0.675000X-0.425000X0*%
%ADD29O,3.800000X3.300000*%
%ADD30HorizOval,2.200000X-0.168232X0.627852X0.168232X-0.627852X0*%
%ADD31RotRect,1.500000X2.500000X195.000000*%
%ADD32HorizOval,1.500000X-0.129410X0.482963X0.129410X-0.482963X0*%
%ADD33RoundRect,0.250000X-0.176312X-0.694290X0.499836X-0.513117X0.176312X0.694290X-0.499836X0.513117X0*%
%ADD34HorizOval,1.200000X-0.071175X0.265630X0.071175X-0.265630X0*%
G04 APERTURE END LIST*
D10*
%TO.C,J4*%
X112650000Y-86990000D03*
D11*
X112650000Y-89530000D03*
X112650000Y-92070000D03*
X112650000Y-94610000D03*
X112650000Y-97150000D03*
%TD*%
D12*
%TO.C,SW42*%
X53585255Y-98010424D03*
D13*
X54879350Y-93180795D03*
X54232303Y-95595610D03*
X40873426Y-89427919D03*
X39579331Y-94257548D03*
%TD*%
D14*
%TO.C,SW43*%
X213443480Y-93180544D03*
D13*
X214737575Y-98010173D03*
X214090527Y-95595359D03*
X228743499Y-94257297D03*
X227449404Y-89427668D03*
%TD*%
D15*
%TO.C,Brd1*%
X138180852Y-90353496D03*
X135640852Y-90353496D03*
X133100852Y-90353496D03*
X130560852Y-90353496D03*
%TD*%
D16*
%TO.C,SW22*%
X43882441Y-68497424D03*
D17*
X38975538Y-67182623D03*
D18*
X38082240Y-70825551D03*
D19*
X50011614Y-65791571D03*
D18*
X42342468Y-74244683D03*
D17*
X48789344Y-69812225D03*
X38569849Y-67073919D03*
D20*
X43882441Y-68497424D03*
D18*
X46905218Y-71936976D03*
D17*
X49195033Y-69920929D03*
D18*
X40114189Y-72746927D03*
%TD*%
%TO.C,SW33*%
X70607714Y-105764260D03*
D17*
X79688558Y-102938262D03*
D19*
X80505139Y-98808904D03*
D20*
X74375966Y-101514757D03*
D17*
X69469063Y-100199956D03*
D16*
X74375966Y-101514757D03*
D17*
X69063374Y-100091252D03*
D18*
X72835993Y-107262016D03*
X77398743Y-104954309D03*
X68575765Y-103842884D03*
D17*
X79282869Y-102829558D03*
%TD*%
%TO.C,SW23*%
X68841711Y-70008851D03*
D18*
X57728918Y-70913473D03*
D19*
X69658292Y-65879493D03*
D17*
X58216527Y-67161841D03*
D18*
X59760867Y-72834849D03*
X61989146Y-74332605D03*
X66551896Y-72024898D03*
D17*
X68436022Y-69900147D03*
D16*
X63529119Y-68585346D03*
D20*
X63529119Y-68585346D03*
D17*
X58622216Y-67270545D03*
%TD*%
%TO.C,SW35*%
X116457335Y-122110955D03*
X108134751Y-116283419D03*
D19*
X118981038Y-118750817D03*
D18*
X106049371Y-119401125D03*
X107301629Y-121901595D03*
X113960128Y-123463159D03*
D17*
X116801379Y-122351857D03*
D18*
X108883263Y-124071142D03*
D17*
X107790707Y-116042517D03*
D16*
X112296043Y-119197187D03*
D20*
X112296043Y-119197187D03*
%TD*%
D18*
%TO.C,SW25*%
X101315944Y-89104468D03*
D16*
X98293167Y-85664916D03*
D20*
X98293167Y-85664916D03*
D18*
X92492966Y-87993043D03*
D17*
X103200070Y-86979717D03*
D18*
X94524915Y-89914419D03*
D17*
X92980575Y-84241411D03*
D19*
X104422340Y-82959063D03*
D17*
X93386264Y-84350115D03*
X103605759Y-87088421D03*
D18*
X96753194Y-91412175D03*
%TD*%
D20*
%TO.C,SW21*%
X22294612Y-75653928D03*
D18*
X18526360Y-79903431D03*
D17*
X16982020Y-74230423D03*
D18*
X25317389Y-79093480D03*
D17*
X27607204Y-77077433D03*
D19*
X28423785Y-72948075D03*
D18*
X20754639Y-81401187D03*
X16494411Y-77982055D03*
D17*
X17387709Y-74339127D03*
D16*
X22294612Y-75653928D03*
D17*
X27201515Y-76968729D03*
%TD*%
D18*
%TO.C,SW14*%
X83965213Y-65727212D03*
D20*
X85505186Y-59979953D03*
D17*
X90817778Y-61403458D03*
D19*
X91634359Y-57274100D03*
D16*
X85505186Y-59979953D03*
D18*
X79704985Y-62308080D03*
D17*
X90412089Y-61294754D03*
D18*
X81736934Y-64229456D03*
D17*
X80598283Y-58665152D03*
X80192594Y-58556448D03*
D18*
X88527963Y-63419505D03*
%TD*%
D17*
%TO.C,SW34*%
X99094199Y-111021587D03*
X98713550Y-110844088D03*
X89505462Y-106550286D03*
D19*
X100615429Y-107096762D03*
D18*
X87993149Y-109982750D03*
X89660583Y-112227780D03*
X91594927Y-114089718D03*
D17*
X89124813Y-106372787D03*
D20*
X94109506Y-108697187D03*
D18*
X96489088Y-112609384D03*
D16*
X94109506Y-108697187D03*
%TD*%
D19*
%TO.C,SW4*%
X96551919Y-38921510D03*
D18*
X86654494Y-45876866D03*
X84622545Y-43955490D03*
D17*
X85515843Y-40312562D03*
D18*
X88882773Y-47374622D03*
D17*
X95735338Y-43050868D03*
D18*
X93445523Y-45066915D03*
D20*
X90422746Y-41627363D03*
D17*
X85110154Y-40203858D03*
D16*
X90422746Y-41627363D03*
D17*
X95329649Y-42942164D03*
%TD*%
D18*
%TO.C,SW24*%
X76819367Y-82582042D03*
D17*
X85494522Y-79647340D03*
D18*
X79047646Y-84079798D03*
X74787418Y-80660666D03*
D17*
X75275027Y-76909034D03*
X75680716Y-77017738D03*
D16*
X80587619Y-78332539D03*
D19*
X86716792Y-75626686D03*
D18*
X83610396Y-81772091D03*
D17*
X85900211Y-79756044D03*
D20*
X80587619Y-78332539D03*
%TD*%
D18*
%TO.C,SW12*%
X47260029Y-55892087D03*
D19*
X54929175Y-47438975D03*
D17*
X43487410Y-48721323D03*
D18*
X42999801Y-52472955D03*
D20*
X48800002Y-50144828D03*
D17*
X43893099Y-48830027D03*
X53706905Y-51459629D03*
D18*
X45031750Y-54394331D03*
D16*
X48800002Y-50144828D03*
D18*
X51822779Y-53584380D03*
D17*
X54112594Y-51568333D03*
%TD*%
%TO.C,SW3*%
X68457345Y-30565364D03*
D18*
X76387025Y-35319717D03*
D17*
X78676840Y-33303670D03*
D16*
X73364248Y-31880165D03*
D18*
X71824275Y-37627424D03*
X69595996Y-36129668D03*
D17*
X68051656Y-30456660D03*
X78271151Y-33194966D03*
D19*
X79493421Y-29174312D03*
D18*
X67564047Y-34208292D03*
D20*
X73364248Y-31880165D03*
%TD*%
D17*
%TO.C,SW15*%
X108523321Y-68735834D03*
D20*
X103210729Y-67312329D03*
D19*
X109339902Y-64606476D03*
D18*
X97410528Y-69640456D03*
X106233506Y-70751881D03*
D17*
X97898137Y-65888824D03*
X98303826Y-65997528D03*
D16*
X103210729Y-67312329D03*
D18*
X101670756Y-73059588D03*
D17*
X108117632Y-68627130D03*
D18*
X99442477Y-71561832D03*
%TD*%
%TO.C,SW5*%
X111151066Y-52399284D03*
X102328088Y-51287859D03*
D17*
X113035192Y-50274533D03*
D20*
X108128289Y-48959732D03*
D17*
X103221386Y-47644931D03*
X113440881Y-50383237D03*
X102815697Y-47536227D03*
D16*
X108128289Y-48959732D03*
D18*
X106588316Y-54706991D03*
X104360037Y-53209235D03*
D19*
X114257462Y-46253879D03*
%TD*%
D18*
%TO.C,SW13*%
X64678432Y-54482257D03*
D17*
X73759276Y-51656259D03*
X63134092Y-48809249D03*
D18*
X66906711Y-55980013D03*
D19*
X74575857Y-47526901D03*
D16*
X68446684Y-50232754D03*
D18*
X62646483Y-52560881D03*
D20*
X68446684Y-50232754D03*
D17*
X73353587Y-51547555D03*
X63539781Y-48917953D03*
D18*
X71469461Y-53672306D03*
%TD*%
D16*
%TO.C,SW1*%
X32129741Y-38948746D03*
D17*
X37036644Y-40263547D03*
D18*
X35152518Y-42388298D03*
X26329540Y-41276873D03*
X30589768Y-44696005D03*
D17*
X37442333Y-40372251D03*
D20*
X32129741Y-38948746D03*
D17*
X27222838Y-37633945D03*
X26817149Y-37525241D03*
D19*
X38258914Y-36242893D03*
D18*
X28361489Y-43198249D03*
%TD*%
D17*
%TO.C,SW2*%
X48810661Y-30477444D03*
D16*
X53717564Y-31792245D03*
D18*
X52177591Y-37539504D03*
X49949312Y-36041748D03*
X56740341Y-35231797D03*
D19*
X59846737Y-29086392D03*
D17*
X48404972Y-30368740D03*
D20*
X53717564Y-31792245D03*
D17*
X58624467Y-33107046D03*
X59030156Y-33215750D03*
D18*
X47917363Y-34120372D03*
%TD*%
D16*
%TO.C,SW11*%
X27212177Y-57301336D03*
D18*
X21411976Y-59629463D03*
X25672204Y-63048595D03*
X23443925Y-61550839D03*
D17*
X32524769Y-58724841D03*
D19*
X33341350Y-54595483D03*
D17*
X32119080Y-58616137D03*
D20*
X27212177Y-57301336D03*
D17*
X21899585Y-55877831D03*
X22305274Y-55986535D03*
D18*
X30234954Y-60740888D03*
%TD*%
%TO.C,SW36*%
X160608593Y-119094777D03*
X156863862Y-124817634D03*
D16*
X156030740Y-119199457D03*
D17*
X160192032Y-116285689D03*
X151869448Y-122113225D03*
D20*
X156030740Y-119199457D03*
D17*
X151525404Y-122354127D03*
D18*
X159443520Y-124073412D03*
X154085891Y-125139159D03*
D17*
X160536076Y-116044787D03*
D19*
X157897693Y-112764949D03*
%TD*%
%TO.C,SW29*%
X228399431Y-63091771D03*
D17*
X219537435Y-69814496D03*
D16*
X224444338Y-68499695D03*
D17*
X229756930Y-67076190D03*
D20*
X224444338Y-68499695D03*
D17*
X219131746Y-69923200D03*
D18*
X228781916Y-69967046D03*
X223305687Y-74063999D03*
X220585280Y-73416012D03*
D17*
X229351241Y-67184894D03*
D18*
X225984311Y-74246954D03*
%TD*%
D20*
%TO.C,SW37*%
X174217273Y-108699458D03*
D17*
X169232580Y-111023858D03*
X169613229Y-110846359D03*
X179201966Y-106375058D03*
D18*
X174062152Y-114376952D03*
X176731852Y-114091989D03*
D19*
X177173203Y-102686898D03*
D17*
X178821317Y-106552557D03*
D16*
X174217273Y-108699458D03*
D18*
X178743756Y-109391304D03*
X171270553Y-114211204D03*
%TD*%
D17*
%TO.C,SW38*%
X198857716Y-100202237D03*
X188638221Y-102940543D03*
X199263405Y-100093533D03*
D18*
X192812162Y-107081342D03*
X198288391Y-102984389D03*
X195490786Y-107264297D03*
D17*
X189043910Y-102831839D03*
D20*
X193950813Y-101517038D03*
D16*
X193950813Y-101517038D03*
D18*
X190091755Y-106433355D03*
D19*
X197905906Y-96109114D03*
%TD*%
D18*
%TO.C,SW30*%
X250369748Y-77123559D03*
D17*
X250939073Y-74341407D03*
D16*
X246032170Y-75656208D03*
D19*
X249987263Y-70248284D03*
D17*
X251344762Y-74232703D03*
X240719578Y-77079713D03*
X241125267Y-76971009D03*
D18*
X242173112Y-80572525D03*
X244893519Y-81220512D03*
D20*
X246032170Y-75656208D03*
D18*
X247572143Y-81403467D03*
%TD*%
%TO.C,SW26*%
X171573589Y-91414454D03*
D17*
X164721024Y-87090700D03*
X175346208Y-84243690D03*
X174940519Y-84352394D03*
D18*
X166174558Y-90583512D03*
D17*
X165126713Y-86981996D03*
D20*
X170033616Y-85667195D03*
D19*
X173988709Y-80259271D03*
D18*
X174371194Y-87134546D03*
X168894965Y-91231499D03*
D16*
X170033616Y-85667195D03*
%TD*%
D18*
%TO.C,SW27*%
X186600511Y-83899123D03*
X192076740Y-79802170D03*
D19*
X191694255Y-72926895D03*
D20*
X187739162Y-78334819D03*
D17*
X182426570Y-79758324D03*
X182832259Y-79649620D03*
D16*
X187739162Y-78334819D03*
D17*
X193051754Y-76911314D03*
X192646065Y-77020018D03*
D18*
X183880104Y-83251136D03*
X189279135Y-84082078D03*
%TD*%
D17*
%TO.C,SW28*%
X199485062Y-70011128D03*
D20*
X204797654Y-68587623D03*
D17*
X210110246Y-67164118D03*
D18*
X200938596Y-73503940D03*
X206337627Y-74334882D03*
D17*
X209704557Y-67272822D03*
D16*
X204797654Y-68587623D03*
D19*
X208752747Y-63179699D03*
D18*
X209135232Y-70054974D03*
X203659003Y-74151927D03*
D17*
X199890751Y-69902424D03*
%TD*%
%TO.C,SW20*%
X235802009Y-58727119D03*
X246021504Y-55988813D03*
X246427193Y-55880109D03*
D19*
X245069694Y-51895690D03*
D18*
X237255543Y-62219931D03*
D16*
X241114601Y-57303614D03*
D18*
X242654574Y-63050873D03*
D17*
X236207698Y-58618415D03*
D18*
X245452179Y-58770965D03*
X239975950Y-62867918D03*
D20*
X241114601Y-57303614D03*
%TD*%
D18*
%TO.C,SW7*%
X174044982Y-46545957D03*
D17*
X183216632Y-40206135D03*
D19*
X181859133Y-36221716D03*
D16*
X177904040Y-41629640D03*
D18*
X179444013Y-47376899D03*
X176765389Y-47193944D03*
D17*
X172591448Y-43053145D03*
X182810943Y-40314839D03*
D18*
X182241618Y-43096991D03*
D17*
X172997137Y-42944441D03*
D20*
X177904040Y-41629640D03*
%TD*%
D17*
%TO.C,SW9*%
X209702313Y-33109316D03*
X219516119Y-30479714D03*
D18*
X213470565Y-37358819D03*
X216149189Y-37541774D03*
D20*
X214609216Y-31794515D03*
D17*
X219921808Y-30371010D03*
D19*
X218564309Y-26386591D03*
D18*
X218946794Y-33261866D03*
X210750158Y-36710832D03*
D17*
X209296624Y-33218020D03*
D16*
X214609216Y-31794515D03*
%TD*%
D20*
%TO.C,SW8*%
X194962528Y-31882449D03*
D18*
X196502501Y-37629708D03*
D17*
X200275120Y-30458944D03*
D18*
X199300106Y-33349800D03*
D16*
X194962528Y-31882449D03*
D17*
X199869431Y-30567648D03*
D18*
X193823877Y-37446753D03*
D17*
X190055625Y-33197250D03*
D18*
X191103470Y-36798766D03*
D19*
X198917621Y-26474525D03*
D17*
X189649936Y-33305954D03*
%TD*%
D18*
%TO.C,SW16*%
X163977407Y-72878909D03*
D17*
X170022961Y-65999804D03*
D18*
X169453636Y-68781956D03*
D20*
X165116058Y-67314605D03*
D17*
X170428650Y-65891100D03*
X160209155Y-68629406D03*
D19*
X169071151Y-61906681D03*
D18*
X161257000Y-72230922D03*
D16*
X165116058Y-67314605D03*
D18*
X166656031Y-73061864D03*
D17*
X159803466Y-68738110D03*
%TD*%
D19*
%TO.C,SW19*%
X223481871Y-44739183D03*
D18*
X221066751Y-55894366D03*
X215667720Y-55063424D03*
D20*
X219526778Y-50147107D03*
D17*
X214619875Y-51461908D03*
X214214186Y-51570612D03*
D18*
X218388127Y-55711411D03*
D17*
X224839370Y-48723602D03*
X224433681Y-48832306D03*
D18*
X223864356Y-51614458D03*
D16*
X219526778Y-50147107D03*
%TD*%
D17*
%TO.C,SW17*%
X187728497Y-58667433D03*
X177509002Y-61405739D03*
D16*
X182821594Y-59982234D03*
D20*
X182821594Y-59982234D03*
D18*
X187159172Y-61449585D03*
D17*
X188134186Y-58558729D03*
D18*
X184361567Y-65729493D03*
X181682943Y-65546538D03*
D19*
X186776687Y-54574310D03*
D18*
X178962536Y-64898551D03*
D17*
X177914691Y-61297035D03*
%TD*%
D16*
%TO.C,SW18*%
X199880092Y-50235037D03*
D17*
X194973189Y-51549838D03*
D18*
X198741441Y-55799341D03*
D19*
X203835185Y-44827113D03*
D17*
X194567500Y-51658542D03*
D18*
X204217670Y-51702388D03*
X196021034Y-55151354D03*
X201420065Y-55982296D03*
D20*
X199880092Y-50235037D03*
D17*
X205192684Y-48811532D03*
X204786995Y-48920236D03*
%TD*%
D18*
%TO.C,SW10*%
X237737014Y-44698285D03*
X240534619Y-40418377D03*
D17*
X231290138Y-40265827D03*
X230884449Y-40374531D03*
X241103944Y-37636225D03*
X241509633Y-37527521D03*
D20*
X236197041Y-38951026D03*
D16*
X236197041Y-38951026D03*
D18*
X232337983Y-43867343D03*
D19*
X240152134Y-33543102D03*
D18*
X235058390Y-44515330D03*
%TD*%
D16*
%TO.C,SW6*%
X160198495Y-48962019D03*
D18*
X164536073Y-50429370D03*
D19*
X164153588Y-43554095D03*
D18*
X159059844Y-54526323D03*
D20*
X160198495Y-48962019D03*
D17*
X165105398Y-47647218D03*
X165511087Y-47538514D03*
D18*
X161738468Y-54709278D03*
D17*
X154885903Y-50385524D03*
X155291592Y-50276820D03*
D18*
X156339437Y-53878336D03*
%TD*%
%TO.C,SW31*%
X9459511Y-46281106D03*
D17*
X6092581Y-39219046D03*
D19*
X17128657Y-37827994D03*
D18*
X5199283Y-42861974D03*
D17*
X15906387Y-41848648D03*
D20*
X10999484Y-40533847D03*
D16*
X10999484Y-40533847D03*
D17*
X5686892Y-39110342D03*
X16312076Y-41957352D03*
D18*
X7231232Y-44783350D03*
X14022261Y-43973399D03*
%TD*%
D16*
%TO.C,SW32*%
X257327289Y-40536123D03*
D17*
X262639881Y-39112618D03*
D18*
X261664867Y-42003474D03*
D17*
X262234192Y-39221322D03*
X252014697Y-41959628D03*
D20*
X257327289Y-40536123D03*
D18*
X253468231Y-45452440D03*
X258867262Y-46283382D03*
D19*
X261282382Y-35128199D03*
D17*
X252420386Y-41850924D03*
D18*
X256188638Y-46100427D03*
%TD*%
D17*
%TO.C,SW39*%
X11394520Y-60309941D03*
D18*
X4541955Y-64633695D03*
X2313676Y-63135939D03*
D16*
X6081928Y-58886436D03*
D20*
X6081928Y-58886436D03*
D18*
X9104705Y-62325988D03*
D19*
X12211101Y-56180583D03*
D17*
X10988831Y-60201237D03*
D18*
X281727Y-61214563D03*
D17*
X1175025Y-57571635D03*
X769336Y-57462931D03*
%TD*%
D18*
%TO.C,SW40*%
X261106200Y-64453027D03*
X266582429Y-60356074D03*
X258385793Y-63805040D03*
D20*
X262244851Y-58888723D03*
D17*
X256932259Y-60312228D03*
X267151754Y-57573922D03*
D19*
X266199944Y-53480799D03*
D17*
X267557443Y-57465218D03*
D16*
X262244851Y-58888723D03*
D17*
X257337948Y-60203524D03*
D18*
X263784824Y-64635982D03*
%TD*%
D20*
%TO.C,SW46*%
X1164369Y-77239030D03*
D16*
X1164369Y-77239030D03*
D17*
X-3742534Y-75924229D03*
D18*
X-4635832Y-79567157D03*
X4187146Y-80678582D03*
D17*
X6071272Y-78553831D03*
D18*
X-375604Y-82986289D03*
D19*
X7293542Y-74533177D03*
D17*
X6476961Y-78662535D03*
D18*
X-2603883Y-81488533D03*
D17*
X-4148223Y-75815525D03*
%TD*%
D20*
%TO.C,SW47*%
X267162411Y-77241302D03*
D17*
X261849819Y-78664807D03*
X272069314Y-75926501D03*
D19*
X271117504Y-71833378D03*
D18*
X268702384Y-82988561D03*
X271499989Y-78708653D03*
X263303353Y-82157619D03*
X266023760Y-82805606D03*
D17*
X272475003Y-75817797D03*
X262255508Y-78556103D03*
D16*
X267162411Y-77241302D03*
%TD*%
D21*
%TO.C,SW48*%
X126698261Y-89925079D03*
D13*
X126698261Y-94925079D03*
X126698261Y-92425079D03*
X141198261Y-94925079D03*
X141198261Y-89925079D03*
%TD*%
D22*
%TO.C,JP1*%
X14367856Y-85222648D03*
D23*
X14704320Y-83966944D03*
%TD*%
D24*
%TO.C,U3*%
X126666088Y-46594796D03*
D25*
X126666088Y-49134796D03*
X126666088Y-51674796D03*
X126666088Y-54214796D03*
X126666088Y-56754796D03*
X126666088Y-59294796D03*
X126666088Y-61834796D03*
X126666088Y-64374796D03*
X126666088Y-66914796D03*
X126666088Y-69454796D03*
X126666088Y-71994796D03*
X126894688Y-74534796D03*
X141906088Y-74534796D03*
X141906088Y-71994796D03*
X141906088Y-69454796D03*
X141906088Y-66914796D03*
X141906088Y-64374796D03*
X141906088Y-61834796D03*
X141906088Y-59294796D03*
X141906088Y-56754796D03*
X141906088Y-54214796D03*
X141906088Y-51674796D03*
X141906088Y-49134796D03*
X141906088Y-46594796D03*
X129206088Y-74534796D03*
X131746088Y-74534796D03*
X134286088Y-74534796D03*
X136826088Y-74534796D03*
X139366088Y-74534796D03*
%TD*%
%TO.C,U1*%
X126676088Y-46584796D03*
X126676088Y-49124796D03*
X126676088Y-51664796D03*
X126676088Y-54204796D03*
X126676088Y-56744796D03*
X126676088Y-59284796D03*
X126676088Y-61824796D03*
X126676088Y-64364796D03*
X126676088Y-66904796D03*
X126676088Y-69444796D03*
X126676088Y-71984796D03*
X126676088Y-74524796D03*
X141916088Y-74524796D03*
X141916088Y-71984796D03*
X141916088Y-69444796D03*
X141916088Y-66904796D03*
X141916088Y-64364796D03*
X141916088Y-61824796D03*
X141916088Y-59284796D03*
X141916088Y-56744796D03*
X141916088Y-54204796D03*
X141916088Y-51664796D03*
X141916088Y-49124796D03*
X141916088Y-46584796D03*
X129216088Y-69444796D03*
X131756088Y-69444796D03*
X134296088Y-69444796D03*
%TD*%
D26*
%TO.C,*%
X42178255Y-38695085D03*
%TD*%
%TO.C,*%
X172658260Y-59115085D03*
%TD*%
%TO.C,*%
X95398258Y-59725083D03*
%TD*%
%TO.C,*%
X181178258Y-97175084D03*
%TD*%
%TO.C,*%
X13758262Y-90045087D03*
%TD*%
%TO.C,*%
X254598254Y-89985084D03*
%TD*%
%TO.C,*%
X226328259Y-38915089D03*
%TD*%
%TO.C,*%
X87138257Y-97125081D03*
%TD*%
%TO.C,*%
X134248258Y-128885089D03*
%TD*%
D27*
%TO.C,J1*%
X120336846Y-71473492D03*
D28*
X120336846Y-74013492D03*
X120336846Y-76553492D03*
X120336846Y-79093492D03*
X120336846Y-81633492D03*
D29*
X128660846Y-86353492D03*
X139660846Y-86353492D03*
%TD*%
D30*
%TO.C,SW49*%
X240299024Y-97238122D03*
X248219616Y-95115806D03*
D31*
X246191172Y-95659326D03*
D32*
X244259320Y-96176964D03*
X242327469Y-96694602D03*
%TD*%
D33*
%TO.C,J2*%
X234344218Y-92347329D03*
D34*
X236276070Y-91829691D03*
X238207921Y-91312053D03*
%TD*%
M02*
