%TF.GenerationSoftware,KiCad,Pcbnew,(6.0.0)*%
%TF.CreationDate,2022-04-21T03:32:39-07:00*%
%TF.ProjectId,ffkb,66666b62-2e6b-4696-9361-645f70636258,rev?*%
%TF.SameCoordinates,Original*%
%TF.FileFunction,Copper,L1,Top*%
%TF.FilePolarity,Positive*%
%FSLAX46Y46*%
G04 Gerber Fmt 4.6, Leading zero omitted, Abs format (unit mm)*
G04 Created by KiCad (PCBNEW (6.0.0)) date 2022-04-21 03:32:39*
%MOMM*%
%LPD*%
G01*
G04 APERTURE LIST*
G04 Aperture macros list*
%AMRoundRect*
0 Rectangle with rounded corners*
0 $1 Rounding radius*
0 $2 $3 $4 $5 $6 $7 $8 $9 X,Y pos of 4 corners*
0 Add a 4 corners polygon primitive as box body*
4,1,4,$2,$3,$4,$5,$6,$7,$8,$9,$2,$3,0*
0 Add four circle primitives for the rounded corners*
1,1,$1+$1,$2,$3*
1,1,$1+$1,$4,$5*
1,1,$1+$1,$6,$7*
1,1,$1+$1,$8,$9*
0 Add four rect primitives between the rounded corners*
20,1,$1+$1,$2,$3,$4,$5,0*
20,1,$1+$1,$4,$5,$6,$7,0*
20,1,$1+$1,$6,$7,$8,$9,0*
20,1,$1+$1,$8,$9,$2,$3,0*%
%AMHorizOval*
0 Thick line with rounded ends*
0 $1 width*
0 $2 $3 position (X,Y) of the first rounded end (center of the circle)*
0 $4 $5 position (X,Y) of the second rounded end (center of the circle)*
0 Add line between two ends*
20,1,$1,$2,$3,$4,$5,0*
0 Add two circle primitives to create the rounded ends*
1,1,$1,$2,$3*
1,1,$1,$4,$5*%
%AMRotRect*
0 Rectangle, with rotation*
0 The origin of the aperture is its center*
0 $1 length*
0 $2 width*
0 $3 Rotation angle, in degrees counterclockwise*
0 Add horizontal line*
21,1,$1,$2,0,0,$3*%
%AMFreePoly0*
4,1,22,0.500000,-0.750000,0.000000,-0.750000,0.000000,-0.745033,-0.079941,-0.743568,-0.215256,-0.701293,-0.333266,-0.622738,-0.424486,-0.514219,-0.481581,-0.384460,-0.499164,-0.250000,-0.500000,-0.250000,-0.500000,0.250000,-0.499164,0.250000,-0.499963,0.256109,-0.478152,0.396186,-0.417904,0.524511,-0.324060,0.630769,-0.204165,0.706417,-0.067858,0.745374,0.000000,0.744959,0.000000,0.750000,
0.500000,0.750000,0.500000,-0.750000,0.500000,-0.750000,$1*%
%AMFreePoly1*
4,1,20,0.000000,0.744959,0.073906,0.744508,0.209726,0.703889,0.328688,0.626782,0.421226,0.519385,0.479903,0.390333,0.500000,0.250000,0.500000,-0.250000,0.499850,-0.262216,0.476331,-0.402017,0.414519,-0.529596,0.319384,-0.634700,0.198574,-0.708877,0.061801,-0.746166,0.000000,-0.745033,0.000000,-0.750000,-0.500000,-0.750000,-0.500000,0.750000,0.000000,0.750000,0.000000,0.744959,
0.000000,0.744959,$1*%
G04 Aperture macros list end*
%TA.AperFunction,ComponentPad*%
%ADD10RoundRect,0.425000X-0.425000X-0.425000X0.425000X-0.425000X0.425000X0.425000X-0.425000X0.425000X0*%
%TD*%
%TA.AperFunction,ComponentPad*%
%ADD11O,1.700000X1.700000*%
%TD*%
%TA.AperFunction,ComponentPad*%
%ADD12RotRect,2.000000X2.000000X165.000000*%
%TD*%
%TA.AperFunction,ComponentPad*%
%ADD13C,2.000000*%
%TD*%
%TA.AperFunction,ComponentPad*%
%ADD14RotRect,2.000000X2.000000X15.000000*%
%TD*%
%TA.AperFunction,ComponentPad*%
%ADD15HorizOval,2.000000X0.129410X0.482963X-0.129410X-0.482963X0*%
%TD*%
%TA.AperFunction,ComponentPad*%
%ADD16C,1.524000*%
%TD*%
%TA.AperFunction,ComponentPad*%
%ADD17HorizOval,1.524000X0.000000X0.000000X0.000000X0.000000X0*%
%TD*%
%TA.AperFunction,ComponentPad*%
%ADD18HorizOval,2.000000X-0.129410X0.482963X0.129410X-0.482963X0*%
%TD*%
%TA.AperFunction,ComponentPad*%
%ADD19HorizOval,1.524000X0.000000X0.000000X0.000000X0.000000X0*%
%TD*%
%TA.AperFunction,ComponentPad*%
%ADD20O,1.600000X2.000000*%
%TD*%
%TA.AperFunction,ComponentPad*%
%ADD21R,2.000000X2.000000*%
%TD*%
%TA.AperFunction,SMDPad,CuDef*%
%ADD22FreePoly0,75.000000*%
%TD*%
%TA.AperFunction,SMDPad,CuDef*%
%ADD23FreePoly1,75.000000*%
%TD*%
%TA.AperFunction,ComponentPad*%
%ADD24R,1.752600X1.752600*%
%TD*%
%TA.AperFunction,ComponentPad*%
%ADD25C,1.752600*%
%TD*%
%TA.AperFunction,ComponentPad*%
%ADD26RoundRect,0.425000X0.675000X0.425000X-0.675000X0.425000X-0.675000X-0.425000X0.675000X-0.425000X0*%
%TD*%
%TA.AperFunction,ComponentPad*%
%ADD27RoundRect,0.425000X0.675000X-0.425000X0.675000X0.425000X-0.675000X0.425000X-0.675000X-0.425000X0*%
%TD*%
%TA.AperFunction,ComponentPad*%
%ADD28O,3.800000X3.300000*%
%TD*%
%TA.AperFunction,ComponentPad*%
%ADD29HorizOval,2.200000X-0.168232X0.627852X0.168232X-0.627852X0*%
%TD*%
%TA.AperFunction,ComponentPad*%
%ADD30RotRect,1.500000X2.500000X195.000000*%
%TD*%
%TA.AperFunction,ComponentPad*%
%ADD31HorizOval,1.500000X-0.129410X0.482963X0.129410X-0.482963X0*%
%TD*%
%TA.AperFunction,ComponentPad*%
%ADD32RoundRect,0.250000X-0.176312X-0.694290X0.499836X-0.513117X0.176312X0.694290X-0.499836X0.513117X0*%
%TD*%
%TA.AperFunction,ComponentPad*%
%ADD33HorizOval,1.200000X-0.071175X0.265630X0.071175X-0.265630X0*%
%TD*%
%TA.AperFunction,ViaPad*%
%ADD34C,0.800000*%
%TD*%
%TA.AperFunction,Conductor*%
%ADD35C,0.254000*%
%TD*%
%TA.AperFunction,Conductor*%
%ADD36C,0.381000*%
%TD*%
G04 APERTURE END LIST*
D10*
%TO.P,J4,1,Pin_1*%
%TO.N,sda*%
X112650000Y-86990000D03*
D11*
%TO.P,J4,2,Pin_2*%
%TO.N,scl*%
X112650000Y-89530000D03*
%TO.P,J4,3,Pin_3*%
%TO.N,+5V*%
X112650000Y-92070000D03*
%TO.P,J4,4,Pin_4*%
%TO.N,3.3V*%
X112650000Y-94610000D03*
%TO.P,J4,5,Pin_5*%
%TO.N,GND*%
X112650000Y-97150000D03*
%TD*%
D12*
%TO.P,SW42,A,A*%
%TO.N,ENC1A*%
X53585255Y-98010424D03*
D13*
%TO.P,SW42,B,B*%
%TO.N,ENC1B*%
X54879350Y-93180795D03*
%TO.P,SW42,C,C*%
%TO.N,GND*%
X54232303Y-95595610D03*
%TO.P,SW42,S1,S1*%
%TO.N,col1*%
X40873426Y-89427919D03*
%TO.P,SW42,S2,S2*%
%TO.N,Net-(D81-Pad2)*%
X39579331Y-94257548D03*
%TD*%
D14*
%TO.P,SW43,A,A*%
%TO.N,ENC2A*%
X213443480Y-93180544D03*
D13*
%TO.P,SW43,B,B*%
%TO.N,ENC2B*%
X214737575Y-98010173D03*
%TO.P,SW43,C,C*%
%TO.N,GND*%
X214090527Y-95595359D03*
%TO.P,SW43,S1,S1*%
%TO.N,col0*%
X228743499Y-94257297D03*
%TO.P,SW43,S2,S2*%
%TO.N,Net-(D82-Pad2)*%
X227449404Y-89427668D03*
%TD*%
D15*
%TO.P,SW44,A,A*%
%TO.N,ENC1A*%
X41761892Y-97896424D03*
%TO.P,SW44,B,B*%
%TO.N,ENC1B*%
X44215343Y-98553824D03*
%TO.P,SW44,C,C*%
%TO.N,GND*%
X46668795Y-99211225D03*
%TO.P,SW44,NC,NC*%
%TO.N,unconnected-(SW44-PadNC)*%
X49122246Y-99868625D03*
D16*
%TO.P,SW44,S1,S1*%
%TO.N,col1*%
X38437063Y-98713744D03*
D17*
%TO.P,SW44,S2,S2*%
%TO.N,Net-(D81-Pad2)*%
X38954701Y-96781893D03*
%TD*%
D18*
%TO.P,SW45,A,A*%
%TO.N,ENC2A*%
X219033655Y-100327217D03*
%TO.P,SW45,B,B*%
%TO.N,ENC2B*%
X221487107Y-99669817D03*
%TO.P,SW45,C,C*%
%TO.N,GND*%
X223940559Y-99012417D03*
%TO.P,SW45,NC,NC*%
%TO.N,unconnected-(SW45-PadNC)*%
X226394010Y-98355016D03*
D16*
%TO.P,SW45,S1,S1*%
%TO.N,col0*%
X216562929Y-102697452D03*
D19*
%TO.P,SW45,S2,S2*%
%TO.N,Net-(D82-Pad2)*%
X216045291Y-100765600D03*
%TD*%
D20*
%TO.P,Brd1,1,GND*%
%TO.N,GND*%
X138180852Y-90353496D03*
%TO.P,Brd1,2,VCC*%
%TO.N,+5V*%
X135640852Y-90353496D03*
%TO.P,Brd1,3,SCL*%
%TO.N,scl*%
X133100852Y-90353496D03*
%TO.P,Brd1,4,SDA*%
%TO.N,sda*%
X130560852Y-90353496D03*
%TD*%
D21*
%TO.P,SW48,A,A*%
%TO.N,sda*%
X126698261Y-89925079D03*
D13*
%TO.P,SW48,B,B*%
%TO.N,scl*%
X126698261Y-94925079D03*
%TO.P,SW48,C,C*%
%TO.N,GND*%
X126698261Y-92425079D03*
%TO.P,SW48,S1,S1*%
%TO.N,col1*%
X141198261Y-94925079D03*
%TO.P,SW48,S2,S2*%
%TO.N,Net-(D87-Pad2)*%
X141198261Y-89925079D03*
%TD*%
D22*
%TO.P,JP1,1,A*%
%TO.N,led*%
X14367856Y-85222648D03*
D23*
%TO.P,JP1,2,B*%
%TO.N,Net-(D41-Pad4)*%
X14704320Y-83966944D03*
%TD*%
D24*
%TO.P,U3,1,TX0/PD3*%
%TO.N,led*%
X126666088Y-46594796D03*
D25*
%TO.P,U3,2,RX1/PD2*%
%TO.N,row0*%
X126666088Y-49134796D03*
%TO.P,U3,3,GND*%
%TO.N,GND*%
X126666088Y-51674796D03*
%TO.P,U3,4,GND*%
X126666088Y-54214796D03*
%TO.P,U3,5,2/PD1*%
%TO.N,sda*%
X126666088Y-56754796D03*
%TO.P,U3,6,3/PD0*%
%TO.N,scl*%
X126666088Y-59294796D03*
%TO.P,U3,7,4/PD4*%
%TO.N,col5*%
X126666088Y-61834796D03*
%TO.P,U3,8,5/PC6*%
%TO.N,col4*%
X126666088Y-64374796D03*
%TO.P,U3,9,6/PD7*%
%TO.N,col3*%
X126666088Y-66914796D03*
%TO.P,U3,10,7/PE6*%
%TO.N,col2*%
X126666088Y-69454796D03*
%TO.P,U3,11,8/PB4*%
%TO.N,col1*%
X126666088Y-71994796D03*
%TO.P,U3,12,9/PB5*%
%TO.N,col0*%
X126894688Y-74534796D03*
%TO.P,U3,13,10/PB6*%
%TO.N,ENC2A*%
X141906088Y-74534796D03*
%TO.P,U3,14,16/PB2*%
%TO.N,col6*%
X141906088Y-71994796D03*
%TO.P,U3,15,14/PB3*%
%TO.N,col7*%
X141906088Y-69454796D03*
%TO.P,U3,16,15/PB1*%
%TO.N,row5*%
X141906088Y-66914796D03*
%TO.P,U3,17,A0/PF7*%
%TO.N,row4*%
X141906088Y-64374796D03*
%TO.P,U3,18,A1/PF6*%
%TO.N,row3*%
X141906088Y-61834796D03*
%TO.P,U3,19,A2/PF5*%
%TO.N,row2*%
X141906088Y-59294796D03*
%TO.P,U3,20,A3/PF4*%
%TO.N,row1*%
X141906088Y-56754796D03*
%TO.P,U3,21,VCC*%
%TO.N,+5V*%
X141906088Y-54214796D03*
%TO.P,U3,22,RST*%
%TO.N,RESET*%
X141906088Y-51674796D03*
%TO.P,U3,23,GND*%
%TO.N,B-*%
X141906088Y-49134796D03*
%TO.P,U3,24,B0*%
%TO.N,B+*%
X141906088Y-46594796D03*
%TO.P,U3,25,B7*%
%TO.N,ENC1B*%
X129206088Y-74534796D03*
%TO.P,U3,26,D5*%
%TO.N,ENC1A*%
X131746088Y-74534796D03*
%TO.P,U3,27,C7*%
%TO.N,unconnected-(U3-Pad27)*%
X134286088Y-74534796D03*
%TO.P,U3,28,F1*%
%TO.N,ENC2B*%
X136826088Y-74534796D03*
%TO.P,U3,29,F0*%
%TO.N,unconnected-(U3-Pad29)*%
X139366088Y-74534796D03*
%TD*%
%TO.P,U1,1,TX0/P0.06*%
%TO.N,led*%
X126676088Y-46584796D03*
%TO.P,U1,2,RX1/P0.08*%
%TO.N,row0*%
X126676088Y-49124796D03*
%TO.P,U1,3,GND*%
%TO.N,GND*%
X126676088Y-51664796D03*
%TO.P,U1,4,GND*%
X126676088Y-54204796D03*
%TO.P,U1,5,P0.17*%
%TO.N,sda*%
X126676088Y-56744796D03*
%TO.P,U1,6,P0.20*%
%TO.N,scl*%
X126676088Y-59284796D03*
%TO.P,U1,7,P0.22*%
%TO.N,col5*%
X126676088Y-61824796D03*
%TO.P,U1,8,P0.24*%
%TO.N,col4*%
X126676088Y-64364796D03*
%TO.P,U1,9,P1.00*%
%TO.N,col3*%
X126676088Y-66904796D03*
%TO.P,U1,10,P0.11*%
%TO.N,col2*%
X126676088Y-69444796D03*
%TO.P,U1,11,P1.04*%
%TO.N,col1*%
X126676088Y-71984796D03*
%TO.P,U1,12,P1.06*%
%TO.N,col0*%
X126676088Y-74524796D03*
%TO.P,U1,13,NFC1/P0.09*%
%TO.N,ENC2A*%
X141916088Y-74524796D03*
%TO.P,U1,14,NFC2/P0.10*%
%TO.N,col6*%
X141916088Y-71984796D03*
%TO.P,U1,15,P1.11*%
%TO.N,col7*%
X141916088Y-69444796D03*
%TO.P,U1,16,P1.13*%
%TO.N,row5*%
X141916088Y-66904796D03*
%TO.P,U1,17,P1.15*%
%TO.N,row4*%
X141916088Y-64364796D03*
%TO.P,U1,18,AIN0/P0.02*%
%TO.N,row3*%
X141916088Y-61824796D03*
%TO.P,U1,19,AIN5/P0.29*%
%TO.N,row2*%
X141916088Y-59284796D03*
%TO.P,U1,20,AIN7/P0.31*%
%TO.N,row1*%
X141916088Y-56744796D03*
%TO.P,U1,21,VCC*%
%TO.N,+5V*%
X141916088Y-54204796D03*
%TO.P,U1,22,RST*%
%TO.N,RESET*%
X141916088Y-51664796D03*
%TO.P,U1,23,GND*%
%TO.N,B-*%
X141916088Y-49124796D03*
%TO.P,U1,24,BATIN/P0.04*%
%TO.N,B+*%
X141916088Y-46584796D03*
%TO.P,U1,31,P1.01*%
%TO.N,ENC1B*%
X129216088Y-69444796D03*
%TO.P,U1,32,P1.02*%
%TO.N,ENC1A*%
X131756088Y-69444796D03*
%TO.P,U1,33,P1.07*%
%TO.N,ENC2B*%
X134296088Y-69444796D03*
%TD*%
D26*
%TO.P,J1,1,Pin_1*%
%TO.N,+5V*%
X120336846Y-71473492D03*
D27*
%TO.P,J1,2,Pin_2*%
%TO.N,sda*%
X120336846Y-74013492D03*
%TO.P,J1,3,Pin_3*%
%TO.N,scl*%
X120336846Y-76553492D03*
%TO.P,J1,4,Pin_4*%
%TO.N,unconnected-(J1-Pad4)*%
X120336846Y-79093492D03*
%TO.P,J1,5,Pin_5*%
%TO.N,GND*%
X120336846Y-81633492D03*
D28*
%TO.P,J1,6*%
%TO.N,N/C*%
X128660846Y-86353492D03*
%TO.P,J1,7*%
X139660846Y-86353492D03*
%TD*%
D29*
%TO.P,SW49,*%
%TO.N,*%
X240299024Y-97238122D03*
X248219616Y-95115806D03*
D30*
%TO.P,SW49,1*%
%TO.N,B+*%
X246191172Y-95659326D03*
D31*
%TO.P,SW49,2*%
%TO.N,Net-(J2-Pad2)*%
X244259320Y-96176964D03*
%TO.P,SW49,3*%
%TO.N,N/C*%
X242327469Y-96694602D03*
%TD*%
D32*
%TO.P,J2,1,Pin_1*%
%TO.N,B-*%
X234344218Y-92347329D03*
D33*
%TO.P,J2,2,Pin_2*%
%TO.N,Net-(J2-Pad2)*%
X236276070Y-91829691D03*
%TO.P,J2,3,Pin_3*%
%TO.N,B-*%
X238207921Y-91312053D03*
%TD*%
D34*
%TO.N,scl*%
X116450000Y-91450000D03*
%TO.N,+5V*%
X107794304Y-91994304D03*
%TO.N,3.3V*%
X120223145Y-107826855D03*
X118450000Y-96000000D03*
%TO.N,GND*%
X120700000Y-97150000D03*
X268816123Y-50283591D03*
X67726671Y-24576659D03*
X123016088Y-51354798D03*
X147996083Y-48044800D03*
X158487523Y-81297055D03*
X128433994Y-115474700D03*
X153549251Y-62867184D03*
X147744519Y-61325756D03*
X36775452Y-55632772D03*
X126706882Y-125707723D03*
X273620745Y-67507065D03*
X-5523949Y-68006512D03*
X109677069Y-81683584D03*
X242650438Y-29581934D03*
X69782064Y-94233960D03*
X230655747Y-54189884D03*
X146812627Y-116669434D03*
X103418178Y-105003444D03*
X122987609Y-117871088D03*
X32023428Y-72125367D03*
X48078252Y-94025089D03*
X10782109Y-31398676D03*
X122633996Y-115424700D03*
X122876085Y-45224794D03*
X-695272Y-49992457D03*
X222430004Y-93327446D03*
X252455049Y-32793752D03*
X148366577Y-44575286D03*
X114849473Y-62959470D03*
X25082656Y-31462890D03*
X57641714Y-91477892D03*
X234633330Y-72685639D03*
X62541490Y-43984610D03*
X120837014Y-91931332D03*
X164833065Y-104940328D03*
X71651474Y-94714161D03*
X148154834Y-126357224D03*
X127979093Y-119229603D03*
%TO.N,+5V*%
X123483997Y-109024699D03*
X124043739Y-121714957D03*
X109497724Y-85637053D03*
X133395365Y-82526855D03*
X243293391Y-34492860D03*
X441552Y-48816614D03*
X59976131Y-44166858D03*
X236077424Y-74752305D03*
X25943550Y-32981072D03*
X268304808Y-52763984D03*
X113736092Y-71354795D03*
X145896091Y-52874797D03*
X231390338Y-55619772D03*
X32112717Y-75275275D03*
X115468447Y-64088123D03*
X135708255Y-88625084D03*
X102992956Y-109372257D03*
X273695754Y-70851493D03*
X145891866Y-49709016D03*
X-4417040Y-66936541D03*
X164854337Y-108265208D03*
X150178993Y-119637029D03*
X152984627Y-64198690D03*
X61536339Y-28137369D03*
X149574831Y-129207231D03*
X37038005Y-57882874D03*
X124394518Y-71515750D03*
X133295366Y-88426854D03*
X17289824Y-34002485D03*
X146810022Y-62363493D03*
X158110269Y-83095992D03*
X263149657Y-34550216D03*
%TO.N,row0*%
X22217482Y-42735431D03*
X82537081Y-39434827D03*
X83714574Y-34615360D03*
X28004461Y-30785357D03*
X116289905Y-56500977D03*
X46431261Y-26126471D03*
X26087242Y-35479764D03*
X47995252Y-21835032D03*
X118406087Y-49144794D03*
X43107814Y-34936502D03*
X60452146Y-24800941D03*
X149987852Y-49898822D03*
X167413090Y-42486262D03*
X170727156Y-54600638D03*
X62678420Y-29165084D03*
X153120999Y-61346202D03*
%TO.N,row1*%
X39109110Y-46514285D03*
X46862972Y-40549667D03*
X98845833Y-57852913D03*
X37823548Y-50967742D03*
X133657579Y-63097743D03*
X79720434Y-49985318D03*
X156220223Y-66344371D03*
X175098508Y-70459293D03*
X97197077Y-63426614D03*
X177395574Y-72634031D03*
X79215990Y-54881599D03*
X21237691Y-46789023D03*
X17056471Y-61333924D03*
X61785979Y-42850431D03*
X19902199Y-52033001D03*
X59841057Y-47868007D03*
X159382398Y-79266236D03*
X133803714Y-56741791D03*
%TO.N,row2*%
X92378181Y-75769972D03*
X10232977Y-77146127D03*
X54957656Y-66209050D03*
X38715159Y-57411439D03*
X146424290Y-81557768D03*
X57707819Y-58456694D03*
X177229348Y-79014356D03*
X145665512Y-59370691D03*
X16607013Y-65219450D03*
X160405504Y-78370801D03*
X74448688Y-72943874D03*
X91252105Y-79972545D03*
X175701977Y-73804830D03*
X75595572Y-68663670D03*
X14838416Y-69849471D03*
X161248843Y-84377329D03*
X37019906Y-61288767D03*
X116884838Y-80777229D03*
X131760847Y-84081212D03*
X116914827Y-88497231D03*
%TO.N,row3*%
X132564521Y-80515748D03*
X251412009Y-52505370D03*
X217504123Y-67873238D03*
X219098911Y-81900223D03*
X205790564Y-30592704D03*
X189409405Y-50562927D03*
X226945101Y-34410818D03*
X144484524Y-57673615D03*
X231933787Y-51367434D03*
X233958375Y-56643709D03*
X188894070Y-46932301D03*
X216299495Y-61769729D03*
X139099614Y-62012287D03*
X144382926Y-61864612D03*
X140610911Y-78577927D03*
X247327675Y-47346687D03*
X129464827Y-99257233D03*
X208734836Y-43566926D03*
%TO.N,led*%
X124134521Y-46835747D03*
X124064517Y-50105754D03*
X16353057Y-86191468D03*
X119056217Y-50076288D03*
X107399972Y-97108121D03*
X29059464Y-89616848D03*
X8617422Y-75960589D03*
X34184075Y-75265504D03*
%TO.N,Net-(D41-Pad2)*%
X37711075Y-34671222D03*
X24130195Y-51167801D03*
%TO.N,Net-(D42-Pad2)*%
X18981317Y-69572291D03*
X32858218Y-52782332D03*
%TO.N,Net-(D43-Pad2)*%
X40647670Y-61929533D03*
X37125883Y-74454821D03*
%TO.N,Net-(D45-Pad2)*%
X49965622Y-63898280D03*
X45716507Y-43669242D03*
%TO.N,Net-(D46-Pad2)*%
X50666132Y-25428769D03*
X54815762Y-45372328D03*
%TO.N,Net-(D47-Pad2)*%
X70455447Y-25834449D03*
X70460831Y-29407592D03*
X58265488Y-29825997D03*
X59580137Y-26658320D03*
%TO.N,Net-(D48-Pad2)*%
X65467870Y-44023336D03*
X78961998Y-27348223D03*
%TO.N,Net-(D49-Pad2)*%
X74092732Y-45713755D03*
X60465639Y-62073717D03*
%TO.N,Net-(D50-Pad2)*%
X68931334Y-67841321D03*
X77779968Y-75502564D03*
X77585690Y-72054809D03*
X69175171Y-64066343D03*
%TO.N,Net-(D52-Pad2)*%
X82573826Y-53400190D03*
X86233665Y-73813531D03*
%TO.N,Net-(D53-Pad2)*%
X87341834Y-35142116D03*
X91199524Y-55473884D03*
%TO.N,Net-(D55-Pad2)*%
X113757926Y-44695150D03*
X100071995Y-61236050D03*
%TO.N,Net-(D56-Pad2)*%
X95437562Y-78763815D03*
X108905067Y-62806259D03*
%TO.N,Net-(D57-Pad2)*%
X103987507Y-81158850D03*
X90062310Y-97935874D03*
%TO.N,Net-(D63-Pad2)*%
X199024716Y-83464605D03*
X201496000Y-93170212D03*
X176702411Y-88753037D03*
X163848922Y-81910313D03*
%TO.N,Net-(D64-Pad2)*%
X159171784Y-63141307D03*
X173160217Y-78680320D03*
%TO.N,Net-(D65-Pad2)*%
X168070176Y-60456761D03*
X154602003Y-45275278D03*
%TO.N,Net-(D67-Pad2)*%
X180552338Y-34882326D03*
X176988809Y-56379521D03*
%TO.N,Net-(D68-Pad2)*%
X182081347Y-75616979D03*
X185469901Y-53234918D03*
%TO.N,Net-(D70-Pad2)*%
X5549508Y-71056454D03*
X2608163Y-53403676D03*
%TO.N,Net-(D71-Pad2)*%
X207336426Y-61817902D03*
X193798562Y-46554040D03*
%TO.N,Net-(D72-Pad2)*%
X189228412Y-28377536D03*
X202977348Y-42945437D03*
%TO.N,Net-(D74-Pad2)*%
X217209224Y-25060143D03*
X213352768Y-46159600D03*
%TO.N,Net-(D75-Pad2)*%
X222164312Y-43396621D03*
X218453161Y-64421796D03*
%TO.N,Net-(D76-Pad2)*%
X227743482Y-61963519D03*
X227795891Y-75998174D03*
%TO.N,Net-(D77-Pad2)*%
X7181782Y-35021040D03*
X10463790Y-52754754D03*
%TO.N,Net-(D78-Pad2)*%
X249037173Y-68795083D03*
X234953724Y-53519643D03*
%TO.N,Net-(D79-Pad2)*%
X230514316Y-35328818D03*
X244208445Y-50387630D03*
%TO.N,Net-(D80-Pad2)*%
X239379200Y-32094195D03*
X244364982Y-43398984D03*
%TO.N,RESET*%
X152904827Y-100257237D03*
X138124831Y-126357232D03*
X144299532Y-100340233D03*
X138104831Y-117337231D03*
X148526091Y-51674800D03*
X141984831Y-117137228D03*
%TO.N,col0*%
X164489413Y-99385571D03*
X18244514Y-42968220D03*
X182493328Y-112625582D03*
X36087054Y-49846770D03*
X17040638Y-47373597D03*
X114357159Y-78789686D03*
X55679453Y-57975449D03*
X57523466Y-56257177D03*
X12211580Y-65511788D03*
X231107170Y-99553791D03*
X35634120Y-51537141D03*
X114537815Y-103539132D03*
X7294012Y-83864386D03*
%TO.N,col1*%
X123326994Y-72575754D03*
X107976006Y-98049282D03*
X28407726Y-82109212D03*
X33330463Y-63737295D03*
X111763126Y-83915535D03*
X123351616Y-79942530D03*
X42849329Y-77562176D03*
X27871632Y-86003142D03*
X38115704Y-45608066D03*
X122945327Y-86883614D03*
%TO.N,col2*%
X128685727Y-55489216D03*
X206799870Y-100656236D03*
X59897086Y-38192847D03*
X150825181Y-56186176D03*
X211693897Y-66711533D03*
X213702491Y-74403981D03*
X116944513Y-79685746D03*
X204438190Y-39927293D03*
X166224879Y-45392833D03*
X149687923Y-52256794D03*
X207092438Y-48459143D03*
X118584522Y-69435752D03*
X167611419Y-52112953D03*
X55025420Y-56412795D03*
X200767345Y-78093461D03*
X50061270Y-74939248D03*
%TO.N,col3*%
X74572228Y-56525724D03*
X79377999Y-38474465D03*
X159205430Y-102254164D03*
X203886131Y-34579353D03*
X123774525Y-66925747D03*
X159213033Y-98628734D03*
X67249809Y-83853406D03*
X82353016Y-109977512D03*
X121694837Y-101397230D03*
X69654673Y-74878325D03*
X231928779Y-65891745D03*
X234824356Y-77027641D03*
X83221782Y-106735239D03*
X61429268Y-105611806D03*
X215840927Y-83954961D03*
X214654324Y-79526480D03*
%TO.N,col4*%
X222241002Y-29477113D03*
X99431837Y-120547668D03*
X96546212Y-48044002D03*
X226945472Y-48359298D03*
X112594832Y-78007234D03*
X79862904Y-111350147D03*
X233900102Y-99732090D03*
X91701626Y-66240151D03*
X116428804Y-64518367D03*
X90134269Y-72089599D03*
X86698655Y-84911502D03*
X101816674Y-115607666D03*
%TO.N,col5*%
X158116972Y-98041502D03*
X110411389Y-69824727D03*
X248634650Y-55406451D03*
X217393822Y-83420530D03*
X232773986Y-72712270D03*
X102566714Y-99101454D03*
X113280044Y-59118756D03*
X233345409Y-76464122D03*
X242774447Y-42172029D03*
X157998933Y-103727362D03*
X217555209Y-80195466D03*
X98493065Y-118902321D03*
X251247298Y-66776261D03*
X104300668Y-92630246D03*
X115599834Y-50654392D03*
%TO.N,col6*%
X178171270Y-90002132D03*
X150444519Y-61125743D03*
X150354516Y-69455750D03*
X172444795Y-65423779D03*
X162042238Y-113804693D03*
X158417495Y-88320793D03*
X177385654Y-83863295D03*
X169583140Y-54937103D03*
X167692034Y-46811443D03*
%TO.N,col7*%
X190199700Y-58430164D03*
X197670185Y-86447621D03*
X152347429Y-96767761D03*
X196806871Y-83088457D03*
X230479510Y-90946623D03*
X256722355Y-71948973D03*
X180449346Y-104917770D03*
X148459509Y-69416388D03*
X270129252Y-61874640D03*
X270939805Y-67205910D03*
X195070674Y-76608884D03*
X185015558Y-39082672D03*
X178399966Y-91611061D03*
X224927108Y-77879542D03*
X265162179Y-43680768D03*
X256141520Y-83569667D03*
%TO.N,sda*%
X115178258Y-74035092D03*
X118776763Y-54287461D03*
X115208259Y-89965085D03*
X120983998Y-108774698D03*
X114883997Y-107774701D03*
X121916509Y-129289944D03*
%TO.N,scl*%
X116058254Y-94925088D03*
X120827181Y-129878044D03*
X115998260Y-76545087D03*
X115283997Y-106024699D03*
X119693919Y-56003306D03*
X132798251Y-94915096D03*
%TO.N,3.3V*%
X126133998Y-115374700D03*
X125293351Y-125380728D03*
%TO.N,Net-(D82-Pad2)*%
X226998119Y-95809712D03*
%TO.N,ENC1B*%
X58787326Y-78596029D03*
X46298254Y-90865082D03*
%TO.N,ENC1A*%
X61793340Y-80002046D03*
X42568254Y-95105091D03*
%TO.N,ENC2B*%
X201950461Y-88607100D03*
X220525803Y-96498332D03*
X202947739Y-92367617D03*
%TO.N,ENC2A*%
X216894171Y-92295041D03*
X141995213Y-77582487D03*
%TO.N,Net-(D41-Pad4)*%
X18305991Y-41801221D03*
X29018918Y-33231945D03*
X15394860Y-34313116D03*
X21927979Y-43792542D03*
%TO.N,Net-(D84-Pad2)*%
X256336498Y-55119910D03*
X259988540Y-33837109D03*
%TO.N,Net-(D85-Pad2)*%
X261599582Y-73680139D03*
X264941456Y-52128462D03*
%TO.N,Net-(D87-Pad2)*%
X145718262Y-89895087D03*
%TO.N,B-*%
X194533894Y-81697497D03*
X187618731Y-81583384D03*
X181846024Y-78005561D03*
X203806588Y-80211104D03*
X205841447Y-87590578D03*
X171827925Y-54292540D03*
X145830612Y-57821291D03*
X231477671Y-81497101D03*
%TO.N,B+*%
X204304167Y-78614814D03*
X236937238Y-87397101D03*
X182148226Y-31803030D03*
X243799237Y-86656369D03*
X200020249Y-79604911D03*
X234904982Y-79763583D03*
X207759948Y-86997629D03*
%TO.N,row4*%
X261235899Y-88975447D03*
X251638582Y-63667051D03*
X146452909Y-64412594D03*
X150402616Y-77726799D03*
X194617574Y-70353607D03*
X232821391Y-48403499D03*
X184858290Y-34471234D03*
X256154688Y-70376871D03*
X229910673Y-49131659D03*
X192461599Y-63239715D03*
X150402610Y-93216187D03*
X228427540Y-42437421D03*
X237645417Y-67312988D03*
%TO.N,row5*%
X36144282Y-90376423D03*
X37716740Y-86014775D03*
X142444830Y-118137224D03*
X147583216Y-66850988D03*
X142454835Y-122707231D03*
X106427798Y-105295485D03*
X104605514Y-111924254D03*
%TO.N,Net-(J2-Pad2)*%
X243154835Y-92119651D03*
%TD*%
D35*
%TO.N,scl*%
X116450000Y-91450000D02*
X116450000Y-91846514D01*
X116450000Y-91100000D02*
X116450000Y-91450000D01*
X116450000Y-91846514D02*
X115998257Y-92298257D01*
X115998257Y-90648257D02*
X116450000Y-91100000D01*
X115998257Y-90551743D02*
X115998257Y-90648257D01*
X115998257Y-92298257D02*
X115998256Y-94865081D01*
X115998260Y-76545087D02*
X115998257Y-90551743D01*
D36*
%TO.N,+5V*%
X107794304Y-91994304D02*
X103164421Y-109273261D01*
X109497724Y-85637053D02*
X107794304Y-91994304D01*
D35*
%TO.N,3.3V*%
X120223145Y-105473145D02*
X120223145Y-107826855D01*
X118450000Y-96000000D02*
X118450000Y-103700000D01*
X118450000Y-103700000D02*
X120223145Y-105473145D01*
D36*
%TO.N,GND*%
X120700000Y-97150000D02*
X120700000Y-92068346D01*
X120700000Y-92068346D02*
X120837014Y-91931332D01*
X158487523Y-81297055D02*
X164820817Y-104933261D01*
X128368259Y-94055092D02*
X137740015Y-94055083D01*
X246701829Y-42731415D02*
X248131399Y-42348362D01*
X126676086Y-51664797D02*
X126676088Y-54204792D01*
D35*
X127979093Y-119229603D02*
X126706884Y-120501813D01*
D36*
X114849473Y-62959470D02*
X110268373Y-80056360D01*
X20475778Y-40957523D02*
X20067432Y-40250240D01*
X147744519Y-61325756D02*
X147744520Y-53005754D01*
X103430428Y-104996370D02*
X103418178Y-105003444D01*
X148154834Y-126357224D02*
X146812627Y-125015027D01*
X71626979Y-94728299D02*
X71651474Y-94714161D01*
X232182602Y-64951659D02*
X232630269Y-65210119D01*
X48078252Y-94025089D02*
X54232307Y-95595614D01*
D35*
X126706884Y-120501813D02*
X126706882Y-125707723D01*
D36*
X246346651Y-42526361D02*
X246701829Y-42731415D01*
X252455049Y-32793752D02*
X262171505Y-30190238D01*
X36775452Y-55632772D02*
X36594275Y-55632768D01*
D35*
X128029094Y-119229604D02*
X127979093Y-119229603D01*
D36*
X229987524Y-55347271D02*
X229949634Y-55357424D01*
X-5521796Y-68005270D02*
X-5523949Y-68006512D01*
X242932141Y-29744569D02*
X243452366Y-31686083D01*
X122876085Y-45224794D02*
X122876086Y-51214791D01*
X32003276Y-72090468D02*
X32023428Y-72125367D01*
X109677069Y-81683584D02*
X103430428Y-104996370D01*
X137740015Y-94055083D02*
X138180848Y-93614252D01*
X147744520Y-53005754D02*
X147434514Y-52695754D01*
X120837017Y-84018508D02*
X120336848Y-83518339D01*
X147996087Y-44945774D02*
X148366577Y-44575286D01*
X268578009Y-49394949D02*
X268816123Y-50283591D01*
X3988494Y-32512382D02*
X-695272Y-49992457D01*
X36594275Y-55632768D02*
X36346793Y-55880263D01*
X10782109Y-31398676D02*
X6326178Y-30204711D01*
X164820817Y-104933261D02*
X164833065Y-104940328D01*
X222421305Y-93342503D02*
X222430004Y-93327446D01*
X127698256Y-93425088D02*
X127738256Y-93425080D01*
X269174109Y-50912004D02*
X268949798Y-50782495D01*
X6296177Y-30204704D02*
X3988494Y-32512382D01*
X243452366Y-31686083D02*
X243445291Y-31698328D01*
D35*
X128433996Y-118824700D02*
X128433994Y-115474700D01*
D36*
X36346793Y-55880263D02*
X32003276Y-72090468D01*
D35*
X128433996Y-118824700D02*
X128029094Y-119229604D01*
D36*
X264317251Y-32785956D02*
X268707509Y-49170644D01*
X138180848Y-93614252D02*
X138180848Y-90353492D01*
X22549561Y-40916520D02*
X21843693Y-41324055D01*
X223940563Y-99012414D02*
X222421305Y-93342503D01*
X62541490Y-43984610D02*
X67737023Y-24594602D01*
X138180849Y-90353489D02*
X138336660Y-90353495D01*
X56570200Y-95476828D02*
X57641714Y-91477892D01*
X-695272Y-49992457D02*
X-5521796Y-68005270D01*
X243445291Y-31698328D02*
X246346651Y-42526361D01*
X18716255Y-33534972D02*
X21201004Y-36019709D01*
X147996083Y-48044800D02*
X147996087Y-44945774D01*
X250593782Y-33292487D02*
X250593771Y-33317107D01*
X263887139Y-31180761D02*
X264317251Y-32785956D01*
X250593782Y-33292487D02*
X252291575Y-32837556D01*
X230655747Y-54189884D02*
X229987524Y-55347271D01*
X21843693Y-41324055D02*
X20475778Y-40957523D01*
X25082656Y-31462890D02*
X22549561Y-40916520D01*
X18716266Y-33524628D02*
X18716255Y-33534972D01*
X248131399Y-42348362D02*
X248400101Y-41882962D01*
X122876086Y-51214791D02*
X123016088Y-51354798D01*
X6326178Y-30204711D02*
X6296177Y-30204704D01*
X20067432Y-40250240D02*
X21201004Y-36019709D01*
X147434514Y-52695754D02*
X147434521Y-48606368D01*
X273620745Y-67507065D02*
X269174109Y-50912004D01*
X252455049Y-32793752D02*
X252291575Y-32837556D01*
X55688598Y-95985821D02*
X56570200Y-95476828D01*
X120336848Y-83518339D02*
X120336849Y-81633492D01*
X268949798Y-50782495D02*
X268816123Y-50283591D01*
X232630269Y-65210119D02*
X234633330Y-72685639D01*
X122633998Y-117517472D02*
X122987609Y-117871088D01*
X262171505Y-30190238D02*
X263887139Y-31180761D01*
X126676088Y-54204792D02*
X126666086Y-54214800D01*
X127738256Y-93425080D02*
X128368259Y-94055092D01*
X69782064Y-94233960D02*
X71626979Y-94728299D01*
X229718914Y-55757045D02*
X232182602Y-64951659D01*
X147434521Y-48606368D02*
X147996083Y-48044800D01*
X67737023Y-24594602D02*
X67726671Y-24576659D01*
X110268373Y-80056360D02*
X110084663Y-80162420D01*
X120837014Y-91931332D02*
X120837017Y-84018508D01*
X18716266Y-33524628D02*
X10782109Y-31398676D01*
X122633996Y-115424700D02*
X122633998Y-117517472D01*
X153549251Y-62867184D02*
X158487523Y-81297055D01*
X229949634Y-55357424D02*
X229718914Y-55757045D01*
X250593771Y-33317107D02*
X247053497Y-36857378D01*
X54232301Y-95595602D02*
X55688598Y-95985821D01*
X126698257Y-92425089D02*
X127698256Y-93425088D01*
X110084663Y-80162420D02*
X109677069Y-81683584D01*
X242650438Y-29581934D02*
X242932141Y-29744569D01*
X248400101Y-41882962D02*
X247053497Y-36857378D01*
X268707509Y-49170644D02*
X268578009Y-49394949D01*
X146812627Y-125015027D02*
X146812627Y-116669434D01*
%TO.N,+5V*%
X158110269Y-83095992D02*
X153058114Y-64241123D01*
X269066966Y-53204011D02*
X272376977Y-65557146D01*
X6272225Y-31050328D02*
X17289824Y-34002485D01*
X441552Y-48816614D02*
X4810288Y-32512269D01*
X-4417040Y-66936541D02*
X437564Y-48818925D01*
X146810021Y-53788738D02*
X145896091Y-52874797D01*
X273356731Y-69586215D02*
X273695754Y-70851493D01*
X124183997Y-109724700D02*
X124183996Y-109924700D01*
X25412019Y-33287944D02*
X25943550Y-32981072D01*
X245586532Y-43050960D02*
X246529583Y-43595436D01*
X135510027Y-88426856D02*
X135708255Y-88625084D01*
X124183996Y-109924700D02*
X124183997Y-121574703D01*
X125745365Y-82026855D02*
X126245366Y-82526854D01*
X232785669Y-64304558D02*
X233368050Y-64640797D01*
X123483997Y-109024699D02*
X124183997Y-109724700D01*
X267686765Y-48464274D02*
X264330057Y-35936843D01*
X233368050Y-64640797D02*
X236077424Y-74752305D01*
X149574831Y-129207231D02*
X150178995Y-128603072D01*
X149646926Y-122654529D02*
X150178993Y-119637029D01*
X23305061Y-41151226D02*
X21925778Y-41947556D01*
X62964306Y-33014842D02*
X59976131Y-44166858D01*
X124183997Y-121574703D02*
X124043739Y-121714957D01*
X23305061Y-41151226D02*
X25412019Y-33287944D01*
X109497724Y-85637053D02*
X115235744Y-64222476D01*
X124799416Y-81080908D02*
X125745365Y-82026855D01*
X273697624Y-70848253D02*
X273695754Y-70851493D01*
X21925778Y-41947556D02*
X20092940Y-41456448D01*
X124799418Y-71920651D02*
X124394518Y-71515750D01*
X231390338Y-55619772D02*
X230753939Y-56722041D01*
X263373170Y-35384389D02*
X264330057Y-35936843D01*
X247904834Y-36827726D02*
X250462899Y-34269652D01*
X19303231Y-36015884D02*
X17289824Y-34002485D01*
X103164421Y-109273261D02*
X102992956Y-109372257D01*
X33357639Y-70629173D02*
X33258997Y-70458323D01*
X145891871Y-52870586D02*
X145896091Y-52874797D01*
X133295366Y-88426854D02*
X135510027Y-88426856D01*
X36584986Y-58335900D02*
X36507191Y-58335894D01*
X126245366Y-82526854D02*
X133395365Y-82526855D01*
X33258997Y-70458323D02*
X36507191Y-58335894D01*
X124799418Y-81022803D02*
X124799416Y-81080908D01*
X272188392Y-65883786D02*
X273148198Y-69465821D01*
X135708255Y-88625084D02*
X135617754Y-88534588D01*
X243293391Y-34492860D02*
X245586532Y-43050960D01*
X124799418Y-81022803D02*
X124799418Y-71920651D01*
X248731896Y-43005326D02*
X249297583Y-42025532D01*
X261936639Y-31195288D02*
X262308182Y-31409795D01*
X230753939Y-56722041D02*
X232785669Y-64304558D01*
X115235744Y-64222476D02*
X115468447Y-64088123D01*
X164854337Y-108265208D02*
X158110269Y-83095992D01*
X113587795Y-71206511D02*
X113364374Y-71206509D01*
X19303226Y-40088612D02*
X19303231Y-36015884D01*
X273148198Y-69465821D02*
X273356731Y-69586215D01*
X262308182Y-31409795D02*
X263149657Y-34550216D01*
X146810022Y-62363493D02*
X146810021Y-53788738D01*
X267115449Y-49453821D02*
X267686765Y-48464274D01*
X37038005Y-57882874D02*
X36584986Y-58335900D01*
X124434520Y-71555748D02*
X124394518Y-71515750D01*
X246529583Y-43595436D02*
X248731896Y-43005326D01*
X150178994Y-123414401D02*
X149646926Y-122654529D01*
X267693962Y-51612859D02*
X267947059Y-52557441D01*
X61096345Y-29779442D02*
X61536339Y-28137369D01*
X268304808Y-52763984D02*
X269066966Y-53204011D01*
X20092940Y-41456448D02*
X19303226Y-40088612D01*
X267693962Y-51612859D02*
X267115449Y-49453821D01*
X62964306Y-33014842D02*
X61096345Y-29779442D01*
X153058114Y-64241123D02*
X152984627Y-64198690D01*
X145891866Y-49709016D02*
X145891871Y-52870586D01*
X4810288Y-32512269D02*
X6272225Y-31050328D01*
X437564Y-48818925D02*
X441552Y-48816614D01*
X267947059Y-52557441D02*
X268304808Y-52763984D01*
X113736092Y-71354795D02*
X113587795Y-71206511D01*
X249297583Y-42025532D02*
X247904834Y-36827726D01*
X32112717Y-75275275D02*
X33357639Y-70629173D01*
X150178995Y-128603072D02*
X150178994Y-123414401D01*
X263149657Y-34550216D02*
X263373170Y-35384389D01*
X250462899Y-34269652D02*
X261936639Y-31195288D01*
X272376977Y-65557146D02*
X272188392Y-65883786D01*
D35*
%TO.N,row0*%
X47505357Y-22117876D02*
X47995252Y-21835032D01*
X26633957Y-35164119D02*
X27771147Y-30920061D01*
X149987852Y-49898822D02*
X153043119Y-61301239D01*
X60452146Y-24800941D02*
X61910564Y-25191722D01*
X26087242Y-35479764D02*
X26633957Y-35164119D01*
X167413090Y-42486262D02*
X170646679Y-54554172D01*
X46431261Y-26126471D02*
X47505357Y-22117876D01*
X83714574Y-34615360D02*
X82459296Y-39300103D01*
X62643057Y-29103851D02*
X62678420Y-29165084D01*
X45978101Y-26388105D02*
X46431261Y-26126471D01*
X82459296Y-39300103D02*
X82537081Y-39434827D01*
X44878116Y-30493293D02*
X45978101Y-26388105D01*
X26079726Y-35507808D02*
X25306295Y-35954347D01*
X170646679Y-54554172D02*
X170727156Y-54600638D01*
X43107814Y-34936502D02*
X43793670Y-34540521D01*
X153043119Y-61301239D02*
X153120999Y-61346202D01*
X61910564Y-25191722D02*
X63126836Y-27298365D01*
X26087242Y-35479764D02*
X26079726Y-35507808D01*
X27771147Y-30920061D02*
X28004461Y-30785357D01*
X116289905Y-56500977D02*
X118234432Y-49243898D01*
X63126836Y-27298365D02*
X62643057Y-29103851D01*
X23722068Y-41866759D02*
X22217482Y-42735431D01*
X118234432Y-49243898D02*
X118406087Y-49144794D01*
X25306295Y-35954347D02*
X23722068Y-41866759D01*
X43793670Y-34540521D02*
X44878116Y-30493293D01*
%TO.N,row1*%
X37823548Y-50967742D02*
X38585798Y-48122982D01*
X177395574Y-72634031D02*
X175367479Y-71463105D01*
X133803714Y-62951608D02*
X133657579Y-63097743D01*
X79720434Y-49985318D02*
X78664450Y-53926300D01*
X61785979Y-42850431D02*
X60551411Y-47457889D01*
X19902199Y-52033001D02*
X19605212Y-51518599D01*
X159382398Y-79266236D02*
X156015168Y-66699547D01*
X39109110Y-46514285D02*
X39580764Y-44754053D01*
X46816381Y-40723540D02*
X46862972Y-40549667D01*
X175367479Y-71463105D02*
X175098508Y-70459293D01*
X38694946Y-48059966D02*
X39109110Y-46514285D01*
X156015168Y-66699547D02*
X156220223Y-66344371D01*
X60551411Y-47457889D02*
X59841057Y-47868007D01*
X19605212Y-51518599D02*
X20679311Y-47510014D01*
X78664450Y-53926300D02*
X79215990Y-54881599D01*
X39580764Y-44754053D02*
X46862972Y-40549667D01*
X20805667Y-47038452D02*
X21237691Y-46789023D01*
X20679311Y-47510014D02*
X20805667Y-47038452D01*
X97380789Y-63320543D02*
X97197077Y-63426614D01*
X98845833Y-57852913D02*
X97380789Y-63320543D01*
X19014703Y-55345184D02*
X18596445Y-55586668D01*
X38585798Y-48122982D02*
X38694946Y-48059966D01*
X133803714Y-56741791D02*
X133803714Y-62951608D01*
X18596445Y-55586668D02*
X17056471Y-61333924D01*
X19902199Y-52033001D02*
X19014703Y-55345184D01*
%TO.N,row2*%
X37019906Y-61288767D02*
X37938713Y-57859720D01*
X175857522Y-73894630D02*
X175701977Y-73804830D01*
X10481100Y-78113298D02*
X10150962Y-77541467D01*
X14838416Y-69849471D02*
X15982392Y-65580074D01*
X161772104Y-83471016D02*
X161248843Y-84377329D01*
X116884838Y-80777229D02*
X116914827Y-88497231D01*
X10249311Y-77174423D02*
X10232977Y-77146127D01*
X55753735Y-65749424D02*
X54957656Y-66209050D01*
X37938713Y-57859720D02*
X38715159Y-57411439D01*
X131796867Y-84117231D02*
X131760847Y-84081212D01*
X10150962Y-77541467D02*
X10249311Y-77174423D01*
X145424214Y-71105484D02*
X145424215Y-63320392D01*
X14838416Y-69849471D02*
X12622923Y-78117801D01*
X92378181Y-75769972D02*
X91252105Y-79972545D01*
X11949310Y-78506706D02*
X10481100Y-78113298D01*
X146424290Y-81557768D02*
X146424292Y-72105568D01*
X15982392Y-65580074D02*
X16607013Y-65219450D01*
X160405504Y-78370801D02*
X161772104Y-83471016D01*
X145424215Y-63320392D02*
X145665515Y-63079092D01*
X146424290Y-81557768D02*
X143864833Y-84117235D01*
X177229348Y-79014356D02*
X175857522Y-73894630D01*
X75595572Y-68663670D02*
X74448688Y-72943874D01*
X145665515Y-63079092D02*
X145665512Y-59370691D01*
X143864833Y-84117235D02*
X131796867Y-84117231D01*
X146424292Y-72105568D02*
X145424214Y-71105484D01*
X12622923Y-78117801D02*
X11949310Y-78506706D01*
X57707819Y-58456694D02*
X55753735Y-65749424D01*
%TO.N,row3*%
X205480706Y-31422341D02*
X205427094Y-31222254D01*
X140610914Y-79778720D02*
X140610911Y-78577927D01*
X140623611Y-73569291D02*
X139125014Y-72070688D01*
X140623616Y-75372690D02*
X140623611Y-73569291D01*
X231581602Y-50323511D02*
X229583520Y-42866568D01*
X249349219Y-44806935D02*
X248773592Y-44474601D01*
X147504829Y-99467233D02*
X129674834Y-99467228D01*
X219098911Y-81900223D02*
X216275198Y-71361963D01*
X229024462Y-40780166D02*
X229180033Y-40510722D01*
X205427094Y-31222254D02*
X205790564Y-30592704D01*
X247454957Y-47126247D02*
X247327675Y-47346687D01*
X229180033Y-40510722D02*
X228268989Y-37110661D01*
X217504123Y-67873238D02*
X217608115Y-68261336D01*
X231848050Y-51317931D02*
X231581602Y-50323511D01*
X139125014Y-72070688D02*
X139125013Y-66977991D01*
X188863726Y-48526425D02*
X189409405Y-50562927D01*
X227558637Y-36700538D02*
X226945101Y-34410818D01*
X129674834Y-99467228D02*
X129464827Y-99257233D01*
X139873877Y-80515751D02*
X140610914Y-79778720D01*
X216275198Y-71361963D02*
X217753048Y-68802256D01*
X189176197Y-47985211D02*
X189034603Y-48230455D01*
X248773592Y-44474601D02*
X247450274Y-44829182D01*
X139125011Y-62037689D02*
X139099614Y-62012287D01*
X189034603Y-48230455D02*
X188863726Y-48526425D01*
X251412009Y-52505370D02*
X249349219Y-44806935D01*
X140610912Y-75385386D02*
X140623616Y-75372690D01*
X247033082Y-45551786D02*
X247454957Y-47126247D01*
X229583520Y-42866568D02*
X229024462Y-40780166D01*
X231933787Y-51367434D02*
X231848050Y-51317931D01*
X217753048Y-68802256D02*
X217608115Y-68261336D01*
X144484526Y-61763014D02*
X144382926Y-61864612D01*
X216005252Y-62279375D02*
X217504123Y-67873238D01*
X247450274Y-44829182D02*
X247033082Y-45551786D01*
X140610911Y-78577927D02*
X140610912Y-75385386D01*
X216299495Y-61769729D02*
X216005252Y-62279375D01*
X233958375Y-56643709D02*
X232656390Y-51784627D01*
X132564521Y-80515748D02*
X139873877Y-80515751D01*
X232656390Y-51784627D02*
X231933787Y-51367434D01*
X144484524Y-57673615D02*
X144484526Y-61763014D01*
X188894070Y-46932301D02*
X189176197Y-47985211D01*
X205480706Y-31422341D02*
X208734836Y-43566926D01*
X139125013Y-66977991D02*
X139125011Y-62037689D01*
X228268989Y-37110661D02*
X227558637Y-36700538D01*
%TO.N,led*%
X114626391Y-73138275D02*
X115078522Y-72877225D01*
X113274827Y-78577235D02*
X114094833Y-75407231D01*
X7862473Y-85075939D02*
X8509915Y-84702143D01*
X29059464Y-89616848D02*
X32536022Y-76642161D01*
X111331437Y-82435708D02*
X112254834Y-79227234D01*
X9152397Y-82304500D02*
X9616749Y-82036410D01*
X10835927Y-82363087D02*
X11267265Y-83110178D01*
X118837703Y-58847786D02*
X117381655Y-56325830D01*
X32536022Y-76642161D02*
X32670787Y-76139203D01*
X14720008Y-85574798D02*
X14367852Y-85222646D01*
X124064517Y-50105754D02*
X124064522Y-46905758D01*
X6674381Y-84757591D02*
X7862473Y-85075939D01*
X16338916Y-86166972D02*
X16353057Y-86191468D01*
X9616749Y-82036410D02*
X10835927Y-82363087D01*
X124064522Y-46905758D02*
X124134521Y-46835747D01*
X114344971Y-74188542D02*
X114626391Y-73138275D01*
X11142235Y-84774528D02*
X11924638Y-84984176D01*
X14367852Y-85222646D02*
X12163108Y-85222645D01*
X11267265Y-83110178D02*
X10923033Y-84394860D01*
X10923033Y-84394860D02*
X11142235Y-84774528D01*
X6391538Y-84267689D02*
X6674381Y-84757591D01*
X114397158Y-74278921D02*
X114344971Y-74188542D01*
X117381655Y-56325830D02*
X119056217Y-50076288D01*
X8617422Y-75960589D02*
X6391538Y-84267689D01*
X32670787Y-76139203D02*
X34184075Y-75265504D01*
X8509915Y-84702143D02*
X9152397Y-82304500D01*
X107399972Y-97108121D02*
X111331437Y-82435708D01*
X12163108Y-85222645D02*
X11924638Y-84984176D01*
X15736386Y-85574797D02*
X14720008Y-85574798D01*
X112254834Y-79227234D02*
X113274827Y-78577235D01*
X115078522Y-72877225D02*
X118837703Y-58847786D01*
X16353057Y-86191468D02*
X15736386Y-85574797D01*
X114094833Y-75407231D02*
X114397158Y-74278921D01*
%TO.N,Net-(D41-Pad2)*%
X25023370Y-47834422D02*
X24130195Y-51167801D01*
X29450692Y-36836514D02*
X28803114Y-39253303D01*
X27593493Y-46350561D02*
X25023370Y-47834422D01*
X35089504Y-36918755D02*
X31140834Y-35860711D01*
X32753577Y-46024998D02*
X30732750Y-47191723D01*
X37711075Y-34671222D02*
X37478413Y-35539518D01*
X30195054Y-41664212D02*
X32175201Y-42194791D01*
X28803114Y-39253303D02*
X30195054Y-41664212D01*
X32175201Y-42194791D02*
X33271218Y-44093142D01*
X33271218Y-44093142D02*
X32753577Y-46024998D01*
X30732750Y-47191723D02*
X27593493Y-46350561D01*
X31140834Y-35860711D02*
X29450692Y-36836514D01*
X37478413Y-35539518D02*
X35089504Y-36918755D01*
%TO.N,Net-(D42-Pad2)*%
X24885156Y-55459429D02*
X24624001Y-56434088D01*
X26967230Y-54257356D02*
X24885156Y-55459429D01*
X19133299Y-59910636D02*
X19354137Y-60293143D01*
X20958566Y-57203109D02*
X19657500Y-57954277D01*
X18991787Y-61645435D02*
X20435353Y-64145761D01*
X24624001Y-56434088D02*
X22552344Y-57630161D01*
X29970328Y-55062028D02*
X26967230Y-54257356D01*
X32858218Y-52782332D02*
X32599399Y-53748257D01*
X30211808Y-55126731D02*
X29970328Y-55062028D01*
X32599399Y-53748257D02*
X30211808Y-55126731D01*
X19354137Y-60293143D02*
X18991787Y-61645435D01*
X20435353Y-64145761D02*
X18981317Y-69572291D01*
X22552344Y-57630161D02*
X20958566Y-57203109D01*
X19657500Y-57954277D02*
X19133299Y-59910636D01*
%TO.N,Net-(D43-Pad2)*%
X37693426Y-68396017D02*
X36223732Y-69244544D01*
X39915054Y-68991302D02*
X37693426Y-68396017D01*
X36223732Y-69244544D02*
X35680210Y-71272990D01*
X40008388Y-64315374D02*
X41542815Y-66973072D01*
X41200955Y-68248886D02*
X39915054Y-68991302D01*
X41542815Y-66973072D02*
X41200955Y-68248886D01*
X40647670Y-61929533D02*
X40008388Y-64315374D01*
X37249940Y-73991837D02*
X37125883Y-74454821D01*
X35680210Y-71272990D02*
X37249940Y-73991837D01*
%TO.N,Net-(D45-Pad2)*%
X47131740Y-53318845D02*
X45806251Y-51023042D01*
X48771838Y-53758310D02*
X47131740Y-53318845D01*
X49965622Y-63898280D02*
X47628296Y-59849907D01*
X45806251Y-51023042D02*
X47123643Y-46106487D01*
X47628296Y-59849907D02*
X47938880Y-58690795D01*
X49886252Y-55688534D02*
X48771838Y-53758310D01*
X47938880Y-58690795D02*
X49290970Y-57910168D01*
X47123643Y-46106487D02*
X45716507Y-43669242D01*
X49290970Y-57910168D02*
X49886252Y-55688534D01*
%TO.N,Net-(D46-Pad2)*%
X54813876Y-37070531D02*
X53666916Y-35083936D01*
X53666916Y-35083936D02*
X51746700Y-34569416D01*
X54815762Y-45372328D02*
X53295137Y-42738537D01*
X53295137Y-42738537D02*
X54813876Y-37070531D01*
X51746700Y-34569416D02*
X50467181Y-32353223D01*
X51797508Y-27388358D02*
X50666132Y-25428769D01*
X50467181Y-32353223D02*
X51797508Y-27388358D01*
%TO.N,Net-(D47-Pad2)*%
X59580137Y-26658320D02*
X59029002Y-26976518D01*
X59029002Y-26976518D02*
X58265488Y-29825997D01*
X71113055Y-26973455D02*
X70455447Y-25834449D01*
X70460831Y-29407592D02*
X71113055Y-26973455D01*
%TO.N,Net-(D48-Pad2)*%
X74029457Y-39381611D02*
X72682235Y-40159428D01*
X69756412Y-39375459D02*
X65972613Y-41560035D01*
X65972613Y-41560035D02*
X65361796Y-43839626D01*
X73052893Y-28890857D02*
X70738128Y-30227292D01*
X74547092Y-37449762D02*
X74029457Y-39381611D01*
X76278148Y-29755065D02*
X73052893Y-28890857D01*
X70256721Y-32023910D02*
X71469068Y-34123757D01*
X70738128Y-30227292D02*
X70256721Y-32023910D01*
X71469068Y-34123757D02*
X72838708Y-34490751D01*
X78961998Y-27348223D02*
X78690237Y-28362443D01*
X72838708Y-34490751D02*
X74547092Y-37449762D01*
X72682235Y-40159428D02*
X69756412Y-39375459D01*
X78690237Y-28362443D02*
X76278148Y-29755065D01*
X65361796Y-43839626D02*
X65467870Y-44023336D01*
%TO.N,Net-(D49-Pad2)*%
X69430340Y-55386633D02*
X68517449Y-53805452D01*
X64459053Y-57522754D02*
X67307595Y-58286019D01*
X73911560Y-46389901D02*
X74092732Y-45713755D01*
X65963932Y-48276653D02*
X67948017Y-47131139D01*
X67307595Y-58286019D02*
X68899763Y-57366779D01*
X65342761Y-50594867D02*
X65963932Y-48276653D01*
X67948017Y-47131139D02*
X71144294Y-47987581D01*
X61177389Y-59417425D02*
X64459053Y-57522754D01*
X66954628Y-53386700D02*
X65342761Y-50594867D01*
X71144294Y-47987581D02*
X73911560Y-46389901D01*
X60465639Y-62073717D02*
X61177389Y-59417425D01*
X68517449Y-53805452D02*
X66954628Y-53386700D01*
X68899763Y-57366779D02*
X69430340Y-55386633D01*
%TO.N,Net-(D50-Pad2)*%
X78349366Y-73377529D02*
X77585690Y-72054809D01*
X69175171Y-64066343D02*
X68624034Y-64384543D01*
X68088812Y-66382033D02*
X68931334Y-67841321D01*
X68624034Y-64384543D02*
X68088812Y-66382033D01*
X77779968Y-75502564D02*
X78349366Y-73377529D01*
X68895977Y-67780085D02*
X68931334Y-67841321D01*
%TO.N,Net-(D52-Pad2)*%
X81895727Y-55930922D02*
X82573826Y-53400190D01*
X84019822Y-63456621D02*
X82139258Y-60199389D01*
X86233665Y-73813531D02*
X84925519Y-71547753D01*
X82843247Y-57572075D02*
X81895727Y-55930922D01*
X85553665Y-63867611D02*
X84019822Y-63456621D01*
X82139258Y-60199389D02*
X82843247Y-57572075D01*
X85553665Y-63867611D02*
X86530197Y-65559017D01*
X86530197Y-65559017D02*
X84925519Y-71547753D01*
%TO.N,Net-(D53-Pad2)*%
X88851767Y-44786034D02*
X87087881Y-41730892D01*
X91199524Y-55473884D02*
X89856023Y-53146868D01*
X86738783Y-37392720D02*
X87341834Y-35142116D01*
X91460701Y-47158127D02*
X90317998Y-45178914D01*
X89856023Y-53146868D02*
X91460701Y-47158127D01*
X90317998Y-45178914D02*
X88851767Y-44786034D01*
X87087881Y-41730892D02*
X87771155Y-39180850D01*
X87771155Y-39180850D02*
X86738783Y-37392720D01*
%TO.N,Net-(D55-Pad2)*%
X108179037Y-52568485D02*
X109169710Y-54284380D01*
X107426076Y-45844989D02*
X105711434Y-46834936D01*
X113757926Y-44695150D02*
X113589969Y-45321960D01*
X113589969Y-45321960D02*
X111017348Y-46807266D01*
X106683824Y-52167842D02*
X108179037Y-52568485D01*
X105043681Y-49327028D02*
X106683824Y-52167842D01*
X100933859Y-58019523D02*
X100071995Y-61236050D01*
X105711434Y-46834936D02*
X105043681Y-49327028D01*
X107256559Y-56981108D02*
X104166532Y-56153138D01*
X104166532Y-56153138D02*
X100933859Y-58019523D01*
X109169710Y-54284380D02*
X108665013Y-56167936D01*
X111017348Y-46807266D02*
X107426076Y-45844989D01*
X108665013Y-56167936D02*
X107256559Y-56981108D01*
%TO.N,Net-(D56-Pad2)*%
X99544155Y-74947668D02*
X95895670Y-77054125D01*
X103120775Y-70677376D02*
X104322859Y-72759443D01*
X100655177Y-65357417D02*
X100075419Y-67521090D01*
X103856985Y-74498107D02*
X101958040Y-75594468D01*
X106002849Y-65216705D02*
X102516784Y-64282616D01*
X101958040Y-75594468D02*
X99544155Y-74947668D01*
X104322859Y-72759443D02*
X103856985Y-74498107D01*
X108905067Y-62806259D02*
X108672129Y-63675591D01*
X108672129Y-63675591D02*
X106002849Y-65216705D01*
X101673862Y-70289675D02*
X103120775Y-70677376D01*
X95895670Y-77054125D02*
X95437562Y-78763815D01*
X100075419Y-67521090D02*
X101673862Y-70289675D01*
X102516784Y-64282616D02*
X100655177Y-65357417D01*
%TO.N,Net-(D57-Pad2)*%
X103987507Y-81158850D02*
X103731555Y-82114067D01*
X103731555Y-82114067D02*
X101305897Y-83514527D01*
X91924588Y-91024407D02*
X90074562Y-97928796D01*
X95215099Y-85080505D02*
X93633335Y-85993736D01*
X93633335Y-85993736D02*
X91942966Y-85540805D01*
X95621197Y-83564932D02*
X95215099Y-85080505D01*
X90656985Y-86283266D02*
X90191109Y-88021935D01*
X101305897Y-83514527D02*
X97482806Y-82490130D01*
X97482806Y-82490130D02*
X95621197Y-83564932D01*
X91942966Y-85540805D02*
X90656985Y-86283266D01*
X90191109Y-88021935D02*
X91924588Y-91024407D01*
X90074562Y-97928796D02*
X90062310Y-97935874D01*
%TO.N,Net-(D63-Pad2)*%
X173466558Y-89620081D02*
X176702411Y-88753037D01*
X167052377Y-87336080D02*
X169637059Y-88828345D01*
X199938270Y-87074658D02*
X201547615Y-93080803D01*
X199938270Y-87074658D02*
X198988001Y-83528200D01*
X166493326Y-85249677D02*
X167052377Y-87336080D01*
X201547615Y-93080803D02*
X201496000Y-93170212D01*
X164423507Y-84054670D02*
X166493326Y-85249677D01*
X172548001Y-89089750D02*
X173466558Y-89620081D01*
X169637059Y-88828345D02*
X171316023Y-88378468D01*
X171316023Y-88378468D02*
X172548001Y-89089750D01*
X163848922Y-81910313D02*
X164423507Y-84054670D01*
X198988001Y-83528200D02*
X199024716Y-83464605D01*
%TO.N,Net-(D64-Pad2)*%
X172029178Y-74459223D02*
X173160217Y-78680320D01*
X169541828Y-73023149D02*
X172029178Y-74459223D01*
X165806354Y-70866475D02*
X167250081Y-70479629D01*
X159171784Y-63141307D02*
X159865418Y-65729991D01*
X159865418Y-65729991D02*
X161629053Y-66748219D01*
X169154983Y-71579426D02*
X169541828Y-73023149D01*
X167250081Y-70479629D02*
X169154983Y-71579426D01*
X162169985Y-68767014D02*
X165806354Y-70866475D01*
X161629053Y-66748219D02*
X162169985Y-68767014D01*
%TO.N,Net-(D65-Pad2)*%
X154602003Y-45275278D02*
X155246463Y-47680440D01*
X156801889Y-48578464D02*
X157417878Y-50877371D01*
X155246463Y-47680440D02*
X156801889Y-48578464D01*
X164308794Y-54855836D02*
X166983141Y-56399865D01*
X166983141Y-56399865D02*
X168070176Y-60456761D01*
X157417878Y-50877371D02*
X160641121Y-52738308D01*
X162519503Y-52234993D02*
X163805487Y-52977458D01*
X160641121Y-52738308D02*
X162519503Y-52234993D01*
X163805487Y-52977458D02*
X164308794Y-54855836D01*
%TO.N,Net-(D67-Pad2)*%
X182010588Y-45971432D02*
X182398818Y-47420319D01*
X179377386Y-44451151D02*
X182010588Y-45971432D01*
X181288931Y-49342696D02*
X178284157Y-50147824D01*
X180386013Y-37159360D02*
X179752452Y-38256720D01*
X180022010Y-35800884D02*
X180386013Y-37159360D01*
X176258931Y-53655610D02*
X176988809Y-56379521D01*
X174477951Y-41367869D02*
X175039586Y-43463929D01*
X182398818Y-47420319D02*
X181288931Y-49342696D01*
X180552338Y-34882326D02*
X180022010Y-35800884D01*
X177582510Y-44932087D02*
X179377386Y-44451151D01*
X178284157Y-50147824D02*
X176258931Y-53655610D01*
X179752452Y-38256720D02*
X175637602Y-39359288D01*
X175039586Y-43463929D02*
X177582510Y-44932087D01*
X175637602Y-39359288D02*
X174477951Y-41367869D01*
%TO.N,Net-(D68-Pad2)*%
X183313216Y-68279012D02*
X181128897Y-72062372D01*
X180437171Y-57619261D02*
X179383583Y-59444130D01*
X186936942Y-66288691D02*
X186240716Y-67494592D01*
X181128897Y-72062372D02*
X182081347Y-75616979D01*
X184504543Y-63006400D02*
X186341660Y-64067060D01*
X186341660Y-64067060D02*
X186936942Y-66288691D01*
X185469901Y-53234918D02*
X184974926Y-54092239D01*
X179383583Y-59444130D02*
X179965927Y-61617462D01*
X183047738Y-63396748D02*
X184504543Y-63006400D01*
X181338113Y-62409696D02*
X183047738Y-63396748D01*
X179965927Y-61617462D02*
X181338113Y-62409696D01*
X184714667Y-56473116D02*
X180437171Y-57619261D01*
X186240716Y-67494592D02*
X183313216Y-68279012D01*
X185328159Y-55410515D02*
X184714667Y-56473116D01*
X184974926Y-54092239D02*
X185328159Y-55410515D01*
%TO.N,Net-(D70-Pad2)*%
X6877255Y-66101252D02*
X5549508Y-71056454D01*
X2608163Y-53403676D02*
X3859739Y-55571473D01*
X2889170Y-59193691D02*
X4776804Y-62463170D01*
X4776804Y-62463170D02*
X6310651Y-62874163D01*
X7288246Y-64567409D02*
X6877255Y-66101252D01*
X6310651Y-62874163D02*
X7288246Y-64567409D01*
X3859739Y-55571473D02*
X2889170Y-59193691D01*
%TO.N,Net-(D71-Pad2)*%
X207336426Y-61817902D02*
X206489668Y-58657757D01*
X194316204Y-48485890D02*
X196398268Y-49687975D01*
X203492424Y-54332316D02*
X204315001Y-57402214D01*
X196398268Y-49687975D02*
X197011671Y-51977217D01*
X193798562Y-46554040D02*
X194316204Y-48485890D01*
X199726059Y-53544371D02*
X201366385Y-53104848D01*
X204315001Y-57402214D02*
X205982392Y-58364882D01*
X206489668Y-58657757D02*
X205982392Y-58364882D01*
X197011671Y-51977217D02*
X199726059Y-53544371D01*
X201366385Y-53104848D02*
X203492424Y-54332316D01*
%TO.N,Net-(D72-Pad2)*%
X189751225Y-30328709D02*
X191257661Y-31198447D01*
X199587234Y-39510299D02*
X202508882Y-41197115D01*
X191257661Y-31198447D02*
X191788244Y-33178593D01*
X196584238Y-34871263D02*
X198666306Y-36073345D01*
X198666306Y-36073345D02*
X199587234Y-39510299D01*
X202508882Y-41197115D02*
X202977348Y-42945437D01*
X191788244Y-33178593D02*
X195310964Y-35212436D01*
X195310964Y-35212436D02*
X196584238Y-34871263D01*
X189228412Y-28377536D02*
X189751225Y-30328709D01*
%TO.N,Net-(D74-Pad2)*%
X215627355Y-40027862D02*
X212951597Y-44662415D01*
X217209224Y-25060143D02*
X216289985Y-26652311D01*
X215706529Y-34317272D02*
X218199989Y-35756871D01*
X212570631Y-29369942D02*
X211347341Y-31488749D01*
X218769392Y-37881908D02*
X217878711Y-39424613D01*
X216289985Y-26652311D02*
X216542275Y-27593865D01*
X212951597Y-44662415D02*
X213352768Y-46159600D01*
X211347341Y-31488749D02*
X211828737Y-33285371D01*
X218199989Y-35756871D02*
X218769392Y-37881908D01*
X216056058Y-28436020D02*
X212570631Y-29369942D01*
X217878711Y-39424613D02*
X215627355Y-40027862D01*
X214278702Y-34699857D02*
X215706529Y-34317272D01*
X216542275Y-27593865D02*
X216056058Y-28436020D01*
X211828737Y-33285371D02*
X214278702Y-34699857D01*
%TO.N,Net-(D75-Pad2)*%
X219566115Y-53559916D02*
X221341672Y-53084158D01*
X221341672Y-53084158D02*
X223546211Y-54356949D01*
X221810759Y-44008994D02*
X222155459Y-45295440D01*
X216729252Y-51922051D02*
X219566115Y-53559916D01*
X223921500Y-55757542D02*
X222709084Y-57857508D01*
X217383331Y-47833451D02*
X216188319Y-49903267D01*
X217844934Y-62151863D02*
X218453161Y-64421796D01*
X219887836Y-58613459D02*
X217844934Y-62151863D01*
X222155459Y-45295440D02*
X221295326Y-46785232D01*
X221295326Y-46785232D02*
X217383331Y-47833451D01*
X216188319Y-49903267D02*
X216729252Y-51922051D01*
X222164312Y-43396621D02*
X221810759Y-44008994D01*
X222709084Y-57857508D02*
X219887836Y-58613459D01*
X223546211Y-54356949D02*
X223921500Y-55757542D01*
%TO.N,Net-(D76-Pad2)*%
X221988514Y-66217981D02*
X221147056Y-67675426D01*
X228118766Y-72387875D02*
X228677148Y-74471787D01*
X227743482Y-61963519D02*
X225890855Y-65172347D01*
X228677148Y-74471787D02*
X227795891Y-75998174D01*
X225890855Y-65172347D02*
X221988514Y-66217981D01*
X221856218Y-70322064D02*
X223497848Y-71269860D01*
X221147056Y-67675426D02*
X221856218Y-70322064D01*
X224264419Y-71712438D02*
X226097937Y-71221147D01*
X226097937Y-71221147D02*
X228118766Y-72387875D01*
X223497848Y-71269860D02*
X224264419Y-71712438D01*
%TO.N,Net-(D77-Pad2)*%
X7515563Y-40845906D02*
X8996613Y-43411157D01*
X11418456Y-47605907D02*
X11708711Y-48108640D01*
X11216270Y-44005910D02*
X12013212Y-45386253D01*
X11708711Y-48108640D02*
X10463790Y-52754754D01*
X12013212Y-45386253D02*
X11418456Y-47605907D01*
X7181782Y-35021040D02*
X6910015Y-36035259D01*
X8996613Y-43411157D02*
X11216270Y-44005910D01*
X8204023Y-38276539D02*
X7515563Y-40845906D01*
X6910015Y-36035259D02*
X8204023Y-38276539D01*
%TO.N,Net-(D78-Pad2)*%
X238233748Y-58883479D02*
X241817713Y-60952682D01*
X245282630Y-62953152D02*
X247872492Y-64448409D01*
X235611122Y-55973104D02*
X237791171Y-57231747D01*
X241817713Y-60952682D02*
X243322805Y-60549394D01*
X244879343Y-61448060D02*
X245282630Y-62953152D01*
X243322805Y-60549394D02*
X244879343Y-61448060D01*
X247872492Y-64448409D02*
X249037173Y-68795083D01*
X237791171Y-57231747D02*
X238233748Y-58883479D01*
X234953724Y-53519643D02*
X235611122Y-55973104D01*
%TO.N,Net-(D79-Pad2)*%
X242922107Y-45586975D02*
X244208445Y-50387630D01*
X232803406Y-38887613D02*
X233372806Y-41012654D01*
X240026064Y-43914942D02*
X242922107Y-45586975D01*
X231223483Y-37975449D02*
X232803406Y-38887613D01*
X230514316Y-35328818D02*
X231223483Y-37975449D01*
X239674538Y-42603032D02*
X240026064Y-43914942D01*
X233372806Y-41012654D02*
X235405881Y-42186455D01*
X235405881Y-42186455D02*
X237828612Y-41537285D01*
X237828612Y-41537285D02*
X239674538Y-42603032D01*
%TO.N,Net-(D80-Pad2)*%
X240140716Y-31890148D02*
X241489918Y-32669109D01*
X244364982Y-43398984D02*
X242462658Y-36299429D01*
X241489918Y-32669109D02*
X242462658Y-36299429D01*
X239379200Y-32094195D02*
X240140716Y-31890148D01*
%TO.N,RESET*%
X153304836Y-99857232D02*
X152904827Y-100257237D01*
X141984831Y-117137228D02*
X142634833Y-116487238D01*
X144033996Y-100605767D02*
X144299532Y-100340233D01*
X149586087Y-55627288D02*
X149586084Y-70918489D01*
X144033998Y-115088075D02*
X144033996Y-100605767D01*
X149586084Y-70918489D02*
X153304832Y-74637231D01*
X142634833Y-116487238D02*
X144033998Y-115088075D01*
X153304832Y-74637231D02*
X153304836Y-99857232D01*
X138124831Y-126357232D02*
X138124833Y-117357234D01*
X149584987Y-55626652D02*
X149586087Y-55627288D01*
X148526091Y-51674800D02*
X149584987Y-55626652D01*
X138124833Y-117357234D02*
X138104831Y-117337231D01*
%TO.N,col0*%
X12211580Y-65511788D02*
X17061852Y-47410346D01*
X171745266Y-110845739D02*
X174613923Y-111889844D01*
X55886645Y-57202195D02*
X57523466Y-56257177D01*
X175928069Y-111277048D02*
X181239502Y-113210250D01*
X174613923Y-111889844D02*
X175928069Y-111277048D01*
X114194915Y-90699428D02*
X114194915Y-89365931D01*
X164489413Y-99385571D02*
X166497770Y-106880865D01*
X17040638Y-47373597D02*
X18216760Y-42984243D01*
X181239502Y-113210250D02*
X182493328Y-112625582D01*
X231220304Y-99357826D02*
X231107170Y-99553791D01*
X166497770Y-106880865D02*
X171148495Y-109565960D01*
X114537814Y-91042334D02*
X114194915Y-90699428D01*
X7294012Y-83864386D02*
X12211580Y-65511788D01*
X114537815Y-103539132D02*
X114537814Y-91042334D01*
X18216760Y-42984243D02*
X18244514Y-42968220D01*
X114357161Y-89203689D02*
X114357159Y-78789686D01*
X17061852Y-47410346D02*
X17040638Y-47373597D01*
X55679453Y-57975449D02*
X55886645Y-57202195D01*
X230056787Y-95015521D02*
X231220304Y-99357826D01*
X114194915Y-89365931D02*
X114357161Y-89203689D01*
X228743502Y-94257295D02*
X230056787Y-95015521D01*
X171148495Y-109565960D02*
X171745266Y-110845739D01*
X35634120Y-51537141D02*
X36087054Y-49846770D01*
%TO.N,col1*%
X28407726Y-82109212D02*
X27525149Y-85403014D01*
X42151218Y-77965225D02*
X42849329Y-77562176D01*
X124469327Y-88407615D02*
X122945327Y-86883614D01*
X139782955Y-96340388D02*
X128596712Y-96340388D01*
X27525149Y-85403014D02*
X27871632Y-86003142D01*
X124469325Y-95951413D02*
X124469327Y-88407615D01*
X33330463Y-63737295D02*
X38165206Y-45693804D01*
X127822128Y-96675313D02*
X125193227Y-96675315D01*
X125193227Y-96675315D02*
X124469325Y-95951413D01*
X128157051Y-96340389D02*
X127822128Y-96675313D01*
X28407726Y-82109212D02*
X33330463Y-63737295D01*
X123351616Y-79942530D02*
X123351618Y-72600375D01*
X128596712Y-96340388D02*
X128157051Y-96340389D01*
X39648362Y-87306030D02*
X42151218Y-77965225D01*
X40873420Y-89427915D02*
X39648362Y-87306030D01*
X38165206Y-45693804D02*
X38115704Y-45608066D01*
X107976006Y-98049282D02*
X111763126Y-83915535D01*
X141198258Y-94925084D02*
X139782955Y-96340388D01*
X123351618Y-72600375D02*
X123326994Y-72575754D01*
%TO.N,col2*%
X118295365Y-70426856D02*
X118584520Y-70137699D01*
X166224879Y-45392833D02*
X166408591Y-45498897D01*
X126670843Y-69454797D02*
X126666087Y-69454794D01*
X211693897Y-66711533D02*
X206894874Y-48801338D01*
X167456809Y-49410897D02*
X167350742Y-49594611D01*
X55025420Y-56412795D02*
X59904158Y-38205088D01*
X118584520Y-70137699D02*
X118584522Y-69435752D01*
X166732114Y-46706304D02*
X167456809Y-49410897D01*
X128685725Y-67439912D02*
X126670843Y-69454797D01*
X116944513Y-79685746D02*
X116944522Y-75101580D01*
X213702491Y-74403981D02*
X211657973Y-66773747D01*
X116944522Y-75101580D02*
X118295365Y-73750735D01*
X150825181Y-56186176D02*
X149787749Y-52314431D01*
X200758360Y-78109019D02*
X200767345Y-78093461D01*
X59904158Y-38205088D02*
X59897086Y-38192847D01*
X149787749Y-52314431D02*
X149687923Y-52256794D01*
X118295365Y-73750735D02*
X118295365Y-70426856D01*
X206799870Y-100656236D02*
X200758360Y-78109019D01*
X211657973Y-66773747D02*
X211693897Y-66711533D01*
X166408591Y-45498897D02*
X166732114Y-46706304D01*
X206499142Y-47618865D02*
X204438190Y-39927293D01*
X50061270Y-74939248D02*
X55025420Y-56412795D01*
X206934662Y-47870314D02*
X206499142Y-47618865D01*
X128685727Y-55489216D02*
X128685725Y-67439912D01*
X167350742Y-49594611D02*
X167067897Y-50084506D01*
X167067897Y-50084506D02*
X167611419Y-52112953D01*
X207092438Y-48459143D02*
X206934662Y-47870314D01*
X206894874Y-48801338D02*
X207092438Y-48459143D01*
%TO.N,col3*%
X67249809Y-83853406D02*
X61825398Y-104097570D01*
X231961369Y-66342862D02*
X231868479Y-65996187D01*
X122204523Y-85052025D02*
X123199215Y-84057327D01*
X212849250Y-66901582D02*
X212624744Y-67290433D01*
X123199215Y-84057327D02*
X123199217Y-81745929D01*
X124113615Y-72271728D02*
X124074533Y-72271734D01*
X212624744Y-67290433D02*
X214281391Y-73473138D01*
X234824356Y-77027641D02*
X231961369Y-66342862D01*
X122204523Y-85057543D02*
X122204523Y-85052025D01*
X212277615Y-65700507D02*
X212573143Y-65871128D01*
X61825398Y-104097570D02*
X61683042Y-104628832D01*
X82353016Y-109977512D02*
X83221782Y-106735239D01*
X212573143Y-65871128D02*
X212849250Y-66901582D01*
X74572228Y-56525724D02*
X79399212Y-38511214D01*
X123544522Y-81405750D02*
X123544523Y-81400628D01*
X61422702Y-105600437D02*
X61429268Y-105611806D01*
X214808368Y-74949139D02*
X214512017Y-75462429D01*
X79399212Y-38511214D02*
X79377999Y-38474465D01*
X124074533Y-72271734D02*
X123544519Y-71741715D01*
X123544523Y-81400628D02*
X124113615Y-80831531D01*
X207252021Y-47141023D02*
X207874192Y-47500234D01*
X121694831Y-85567230D02*
X121694837Y-101397230D01*
X122204523Y-85057543D02*
X121694831Y-85567230D01*
X159213033Y-98628734D02*
X159213032Y-102246560D01*
X123199217Y-81745929D02*
X123544523Y-81400628D01*
X207928907Y-49470923D02*
X212277615Y-65700507D01*
X203886131Y-34579353D02*
X207252021Y-47141023D01*
X123544519Y-71741715D02*
X123544519Y-70905755D01*
X213865438Y-76582334D02*
X214654324Y-79526480D01*
X214608033Y-73661724D02*
X214907152Y-74778037D01*
X208252200Y-48910971D02*
X207928907Y-49470923D01*
X124113615Y-80831531D02*
X124113615Y-72271728D01*
X207874192Y-47500234D02*
X208252200Y-48910971D01*
X231868479Y-65996187D02*
X231928779Y-65891745D01*
X69654673Y-74878325D02*
X67249809Y-83853406D01*
X214512017Y-75462429D02*
X213865438Y-76582334D01*
X123774525Y-66925747D02*
X123774521Y-70675753D01*
X214281391Y-73473138D02*
X214608033Y-73661724D01*
X69654673Y-74878325D02*
X74572228Y-56525724D01*
X159213032Y-102246560D02*
X159205430Y-102254164D01*
X214907152Y-74778037D02*
X214808368Y-74949139D01*
X61683042Y-104628832D02*
X61422702Y-105600437D01*
X123774521Y-70675753D02*
X123544519Y-70905755D01*
X214654324Y-79526480D02*
X215840927Y-83954961D01*
%TO.N,col4*%
X90134269Y-72089599D02*
X91701626Y-66240151D01*
X225206647Y-41869919D02*
X226945472Y-48359298D01*
X231034501Y-63619763D02*
X226945472Y-48359298D01*
X222241002Y-29477113D02*
X221765048Y-30301485D01*
X99431837Y-120547668D02*
X101718784Y-115643295D01*
X222479584Y-37433466D02*
X223386799Y-40819226D01*
X101718784Y-115643295D02*
X101816674Y-115607666D01*
X114373780Y-72187824D02*
X116428804Y-64518367D01*
X114053020Y-72373013D02*
X114373780Y-72187824D01*
X223296789Y-36018029D02*
X222479584Y-37433466D01*
X223254056Y-35858554D02*
X223296789Y-36018029D01*
X230610152Y-64354764D02*
X231503541Y-67688937D01*
X113274833Y-75277233D02*
X114053020Y-72373013D01*
X232047216Y-71079439D02*
X231254374Y-68120508D01*
X230610152Y-64354764D02*
X231034501Y-63619763D01*
X91701626Y-66240151D02*
X92845606Y-61970756D01*
X112594832Y-78007234D02*
X113274833Y-75277233D01*
X92845606Y-61970756D02*
X92555687Y-61468611D01*
X92555687Y-61468611D02*
X93629790Y-57460023D01*
X231503541Y-67688937D02*
X231254374Y-68120508D01*
X93629790Y-57460023D02*
X94095189Y-57191324D01*
X94095189Y-57191324D02*
X96546212Y-48044002D01*
X221765048Y-30301485D02*
X223254056Y-35858554D01*
X233900102Y-99732090D02*
X228068962Y-77969972D01*
X223386799Y-40819226D02*
X225206647Y-41869919D01*
X86698655Y-84911502D02*
X90134269Y-72089599D01*
X228068962Y-77969972D02*
X232047216Y-71079439D01*
X79693195Y-111056212D02*
X79862904Y-111350147D01*
X86698655Y-84911502D02*
X79693195Y-111056212D01*
%TO.N,col5*%
X248634650Y-55406451D02*
X250636436Y-62877210D01*
X104300668Y-92630246D02*
X110411389Y-69824727D01*
X158116970Y-103609320D02*
X157998933Y-103727362D01*
X250636436Y-62877210D02*
X250340090Y-63390501D01*
X98493065Y-118902321D02*
X101828513Y-111749431D01*
X113590774Y-57959102D02*
X115538595Y-50689748D01*
X158116972Y-98041502D02*
X158116970Y-103609320D01*
X101828513Y-111749431D02*
X100946166Y-109325203D01*
X102171759Y-106696910D02*
X101229645Y-104108474D01*
X242774447Y-42172029D02*
X243306945Y-44159327D01*
X101229645Y-104108474D02*
X101225594Y-104106585D01*
X110411389Y-69824727D02*
X113280044Y-59118756D01*
X246028937Y-45730870D02*
X248619098Y-55397472D01*
X100946166Y-109325203D02*
X102171759Y-106696910D01*
X248619098Y-55397472D02*
X248634650Y-55406451D01*
X101225594Y-104106585D02*
X102566714Y-99101454D01*
X243306945Y-44159327D02*
X246028937Y-45730870D01*
X250340090Y-63390501D02*
X251247298Y-66776261D01*
X216854755Y-81408696D02*
X217393822Y-83420530D01*
X217555209Y-80195466D02*
X216854755Y-81408696D01*
X233641755Y-75950830D02*
X233345409Y-76464122D01*
X113280044Y-59118756D02*
X113590774Y-57959102D01*
X104300668Y-92630246D02*
X102566714Y-99101454D01*
X232773986Y-72712270D02*
X233641755Y-75950830D01*
X115538595Y-50689748D02*
X115599834Y-50654392D01*
%TO.N,col6*%
X158485479Y-88360044D02*
X158417495Y-88320793D01*
X150444519Y-61125743D02*
X150254519Y-61315747D01*
X169128480Y-52172330D02*
X168933031Y-52510860D01*
X162042238Y-113804693D02*
X159782747Y-105372161D01*
X159782747Y-105372161D02*
X162010136Y-101514218D01*
X160537448Y-96018096D02*
X158485479Y-88360044D01*
X177385654Y-83863295D02*
X172444795Y-65423779D01*
X160700514Y-96626632D02*
X160537448Y-96018096D01*
X150254521Y-62285748D02*
X150354520Y-62385747D01*
X150354520Y-62385747D02*
X150354516Y-69455750D01*
X177385654Y-83863295D02*
X178758158Y-88985593D01*
X167692034Y-46811443D02*
X169128480Y-52172330D01*
X170801630Y-61184610D02*
X169867291Y-57697620D01*
X168933031Y-52510860D02*
X169583140Y-54937103D01*
X171401758Y-61531097D02*
X170801630Y-61184610D01*
X162010136Y-101514218D02*
X160700514Y-96626632D01*
X170178423Y-57158728D02*
X169583140Y-54937103D01*
X172444795Y-65423779D02*
X171401758Y-61531097D01*
X178758158Y-88985593D02*
X178171270Y-90002132D01*
X150254519Y-61315747D02*
X150254521Y-62285748D01*
X169867291Y-57697620D02*
X170178423Y-57158728D01*
%TO.N,col7*%
X190199700Y-58430164D02*
X185015558Y-39082672D01*
X258440291Y-80126893D02*
X256293518Y-80702118D01*
X230479510Y-90946623D02*
X228510595Y-83598535D01*
X226084132Y-82197616D02*
X224927108Y-77879542D01*
X180449346Y-104917770D02*
X179200105Y-104196526D01*
X177044340Y-96151102D02*
X178801134Y-93108245D01*
X152347431Y-84519836D02*
X152204832Y-84377233D01*
X270129252Y-61874640D02*
X271361873Y-66474859D01*
X179200105Y-104196526D02*
X177044340Y-96151102D01*
X152347429Y-96767761D02*
X152347431Y-84519836D01*
X196806871Y-83088457D02*
X197695301Y-86404121D01*
X256722355Y-71948973D02*
X258201503Y-77469238D01*
X148744522Y-71315753D02*
X148744520Y-69701392D01*
X258201503Y-77469238D02*
X258763580Y-79566941D01*
X271361873Y-66474859D02*
X270939805Y-67205910D01*
X266325780Y-48023372D02*
X265162179Y-43680768D01*
X258763580Y-79566941D02*
X258440291Y-80126893D01*
X228510595Y-83598535D02*
X226084132Y-82197616D01*
X255664901Y-81790918D02*
X256141520Y-83569667D01*
X268137327Y-54440677D02*
X267375168Y-54000646D01*
X256293518Y-80702118D02*
X255664901Y-81790918D01*
X178801134Y-93108245D02*
X178399966Y-91611061D01*
X265948613Y-48676657D02*
X266325780Y-48023372D01*
X270129252Y-61874640D02*
X268137327Y-54440677D01*
X148744522Y-71315753D02*
X152204834Y-74776069D01*
X197695301Y-86404121D02*
X197670185Y-86447621D01*
X152204834Y-74776069D02*
X152204832Y-84377233D01*
X195070674Y-76608884D02*
X190199700Y-58430164D01*
X148744520Y-69701392D02*
X148459509Y-69416388D01*
X195070674Y-76608884D02*
X196806871Y-83088457D01*
X267375168Y-54000646D02*
X265948613Y-48676657D01*
%TO.N,sda*%
X121916509Y-129289944D02*
X121916510Y-118407211D01*
X115838470Y-73367099D02*
X119785460Y-58636724D01*
X121916510Y-118407211D02*
X121483997Y-117974700D01*
X115178258Y-74035092D02*
X115178255Y-89935086D01*
X115178258Y-74035092D02*
X115269172Y-73695775D01*
X115178255Y-89935086D02*
X115208259Y-89965085D01*
X119785460Y-58636724D02*
X118286389Y-56040263D01*
X114283997Y-105224698D02*
X114283995Y-107174700D01*
X121483997Y-117974700D02*
X120983995Y-117474699D01*
X118752264Y-54301600D02*
X118776763Y-54287461D01*
X130560846Y-90353485D02*
X127126659Y-90353494D01*
X115208259Y-89965085D02*
X115183995Y-89989348D01*
X114283995Y-107174700D02*
X114883997Y-107774701D01*
X115269172Y-73695775D02*
X115838470Y-73367099D01*
X115383998Y-102674701D02*
X115383997Y-104124701D01*
X120983995Y-117474699D02*
X120983998Y-108774698D01*
X115183995Y-89989348D02*
X115183997Y-102474699D01*
X127126659Y-90353494D02*
X126698254Y-89925087D01*
X115183997Y-102474699D02*
X115383998Y-102674701D01*
X115383997Y-104124701D02*
X114283997Y-105224698D01*
X118286389Y-56040263D02*
X118752264Y-54301600D01*
%TO.N,scl*%
X115998256Y-94865081D02*
X116058254Y-94925088D01*
X115283997Y-106024699D02*
X115283997Y-106674699D01*
X115833996Y-95149347D02*
X116058254Y-94925088D01*
X116083998Y-102374701D02*
X115833996Y-102124698D01*
X116083995Y-105224701D02*
X116083998Y-102374701D01*
X126708255Y-94915085D02*
X126698256Y-94925087D01*
X120083997Y-129134861D02*
X120827181Y-129878044D01*
X119283996Y-117424699D02*
X120083995Y-118224700D01*
X115283997Y-106674699D02*
X117284000Y-108674701D01*
X126758262Y-94865085D02*
X126698256Y-94925087D01*
X117283999Y-111974699D02*
X119283995Y-113974701D01*
X120775792Y-57877157D02*
X119693919Y-56003306D01*
X116616570Y-73399588D02*
X120775792Y-57877157D01*
X115998260Y-76545087D02*
X116769924Y-73665204D01*
X117284000Y-108674701D02*
X117283999Y-111974699D01*
X133100848Y-90353486D02*
X133100852Y-90762494D01*
X115283997Y-106024699D02*
X116083995Y-105224701D01*
X115833996Y-102124698D02*
X115833996Y-95149347D01*
X116769924Y-73665204D02*
X116616570Y-73399588D01*
X132798251Y-94915096D02*
X126708255Y-94915085D01*
X119283995Y-113974701D02*
X119283996Y-117424699D01*
X120083995Y-118224700D02*
X120083997Y-129134861D01*
%TO.N,3.3V*%
X125293351Y-125380728D02*
X125293350Y-120265343D01*
X125293350Y-120265343D02*
X126133997Y-119424700D01*
X126133997Y-119424700D02*
X126133998Y-115374700D01*
%TO.N,Net-(D82-Pad2)*%
X226126156Y-89782226D02*
X227449404Y-89427662D01*
X226998119Y-95809712D02*
X225618605Y-90661329D01*
X225618605Y-90661329D02*
X226126156Y-89782226D01*
%TO.N,ENC1B*%
X54879347Y-93180785D02*
X58787326Y-78596029D01*
X129216088Y-74524800D02*
X129206094Y-74534797D01*
X46298254Y-90865082D02*
X54879350Y-93180788D01*
X129216086Y-69444796D02*
X129216088Y-74524800D01*
%TO.N,ENC1A*%
X131756085Y-69444793D02*
X131756088Y-74524798D01*
X53585259Y-98010424D02*
X54780746Y-98330749D01*
X131756088Y-74524798D02*
X131746092Y-74534799D01*
X57266765Y-96895452D02*
X61793340Y-80002046D01*
X42568254Y-95105091D02*
X53585259Y-98010424D01*
X54780746Y-98330749D02*
X57266765Y-96895452D01*
%TO.N,ENC2B*%
X220525803Y-96498332D02*
X221355188Y-99593658D01*
X136826087Y-74534790D02*
X136826085Y-71974790D01*
X136826085Y-71974790D02*
X134296089Y-69444792D01*
X221355188Y-99593658D02*
X221487107Y-99669820D01*
X201943395Y-88619343D02*
X201950461Y-88607100D01*
X202947739Y-92367617D02*
X201943395Y-88619343D01*
%TO.N,ENC2A*%
X216885476Y-92310095D02*
X216894171Y-92295041D01*
X141995213Y-74623922D02*
X141906089Y-74534794D01*
X219033657Y-100327219D02*
X216885476Y-92310095D01*
X141995213Y-77582487D02*
X141995213Y-74623922D01*
%TO.N,Net-(D41-Pad4)*%
X27418417Y-39259098D02*
X28430080Y-38675014D01*
X22317273Y-47606018D02*
X23593597Y-42842733D01*
X17226403Y-65854551D02*
X18688728Y-60397060D01*
X26219732Y-38937909D02*
X27418417Y-39259098D01*
X28787246Y-37342036D02*
X28193283Y-36313240D01*
X16638525Y-66193963D02*
X17226403Y-65854551D01*
X24039383Y-42573528D02*
X24792797Y-39761752D01*
X28430080Y-38675014D02*
X28787246Y-37342036D01*
X15394860Y-34313116D02*
X18305986Y-37224250D01*
X28193283Y-36313240D02*
X29018918Y-33231945D01*
X21895551Y-47849503D02*
X22317273Y-47606018D01*
X18582663Y-60213361D02*
X21895551Y-47849503D01*
X23593597Y-42842733D02*
X23588477Y-42833860D01*
X18305986Y-37224250D02*
X18305991Y-41801221D01*
X23588477Y-42833860D02*
X24039383Y-42573528D01*
X14704323Y-83966947D02*
X14704316Y-82975380D01*
X12511979Y-80783036D02*
X15273535Y-70476766D01*
X15273535Y-70476766D02*
X15530737Y-70328280D01*
X15530737Y-70328280D02*
X16638525Y-66193963D01*
X18688728Y-60397060D02*
X18582663Y-60213361D01*
X24792797Y-39761752D02*
X26219732Y-38937909D01*
X14704316Y-82975380D02*
X12511979Y-80783036D01*
X23588477Y-42833860D02*
X21927979Y-43792542D01*
%TO.N,Net-(D84-Pad2)*%
X257315234Y-44066236D02*
X259168070Y-43569771D01*
X259988540Y-33837109D02*
X259422854Y-34816904D01*
X258110886Y-49246430D02*
X255824039Y-53207373D01*
X254551864Y-42470802D02*
X257315234Y-44066236D01*
X253966929Y-40287805D02*
X254551864Y-42470802D01*
X261803129Y-46642466D02*
X260700316Y-48552595D01*
X260700316Y-48552595D02*
X258110886Y-49246430D01*
X255824039Y-53207373D02*
X256336498Y-55119910D01*
X255126580Y-38279220D02*
X253966929Y-40287805D01*
X259422854Y-34816904D02*
X259707556Y-35879423D01*
X261311375Y-44807207D02*
X261803129Y-46642466D01*
X258906840Y-37266305D02*
X255126580Y-38279220D01*
X259168070Y-43569771D02*
X261311375Y-44807207D01*
X259707556Y-35879423D02*
X258906840Y-37266305D01*
%TO.N,Net-(D85-Pad2)*%
X259589655Y-56867485D02*
X258797698Y-58239185D01*
X264092930Y-53598156D02*
X264456931Y-54956630D01*
X258797698Y-58239185D02*
X259460267Y-60711956D01*
X263698594Y-67781804D02*
X261185471Y-72134663D01*
X262113427Y-62243757D02*
X263840684Y-61780941D01*
X261185471Y-72134663D02*
X261599582Y-73680139D01*
X264042571Y-55674324D02*
X259589655Y-56867485D01*
X259460267Y-60711956D02*
X262113427Y-62243757D01*
X264941456Y-52128462D02*
X264092930Y-53598156D01*
X265998243Y-67165614D02*
X263698594Y-67781804D01*
X263840684Y-61780941D02*
X266106463Y-63089087D01*
X264456931Y-54956630D02*
X264042571Y-55674324D01*
X266818213Y-65745384D02*
X265998243Y-67165614D01*
X266106463Y-63089087D02*
X266818213Y-65745384D01*
%TO.N,Net-(D87-Pad2)*%
X145688256Y-89925080D02*
X145718262Y-89895087D01*
X141198251Y-89925084D02*
X145688256Y-89925080D01*
%TO.N,B-*%
X174482422Y-57280530D02*
X174503823Y-57292888D01*
X204592385Y-82929021D02*
X204338114Y-81980083D01*
X143862419Y-49134792D02*
X141906090Y-49134795D01*
X176016632Y-70495403D02*
X173840720Y-62374770D01*
X181478601Y-77793428D02*
X181846024Y-78005561D01*
X145830613Y-54430390D02*
X144903517Y-53503288D01*
X203806588Y-80211104D02*
X204270057Y-81940786D01*
X235873276Y-93987290D02*
X234584226Y-93243056D01*
X176105458Y-70826909D02*
X176016632Y-70495403D01*
X231449829Y-81545325D02*
X231477671Y-81497101D01*
X181375074Y-77407057D02*
X181478601Y-77793428D01*
X175223675Y-59979409D02*
X174503823Y-57292888D01*
X145830612Y-57821291D02*
X145830613Y-54430390D01*
X173840720Y-62374770D02*
X175223675Y-59979409D01*
X238456987Y-92241598D02*
X237737516Y-93487770D01*
X191684414Y-82461015D02*
X194533894Y-81697497D01*
X231486256Y-81502060D02*
X231477671Y-81497101D01*
X180197446Y-73012095D02*
X181375074Y-77407057D01*
X144903513Y-50175887D02*
X143862419Y-49134792D01*
X237737516Y-93487770D02*
X235873276Y-93987290D01*
X234344218Y-92347329D02*
X231449829Y-81545325D01*
X204270057Y-81940786D02*
X204338114Y-81980083D01*
X144903517Y-53503288D02*
X144903513Y-50175887D01*
X171827925Y-54292540D02*
X174021069Y-55558756D01*
X189357400Y-81117508D02*
X191684414Y-82461015D01*
X189357400Y-81117508D02*
X187618731Y-81583384D01*
X174021069Y-55558756D02*
X174482422Y-57280530D01*
X176016632Y-70495403D02*
X176049250Y-70617133D01*
X179095176Y-72375698D02*
X180197446Y-73012095D01*
X234584226Y-93243056D02*
X234344218Y-92347329D01*
X176049250Y-70617133D02*
X179095176Y-72375698D01*
X205841447Y-87590578D02*
X204592385Y-82929021D01*
X238207921Y-91312054D02*
X238456987Y-92241598D01*
%TO.N,B+*%
X206328958Y-86171452D02*
X204304167Y-78614814D01*
X188113067Y-41300316D02*
X190928763Y-42925960D01*
X243785306Y-86680499D02*
X243799237Y-86656369D01*
X182148226Y-31803030D02*
X183862869Y-32792982D01*
X190928763Y-42925960D02*
X191441374Y-44839064D01*
X234896004Y-79779134D02*
X234904982Y-79763583D01*
X243785302Y-86680493D02*
X243799237Y-86656369D01*
X184994184Y-32489847D02*
X185891050Y-33007653D01*
X236937238Y-87397101D02*
X234896004Y-79779134D01*
X191441374Y-44839064D02*
X190938266Y-45710469D01*
X246191172Y-95659326D02*
X243785306Y-86680499D01*
X207759948Y-86997629D02*
X206328958Y-86171452D01*
X185891050Y-33007653D02*
X188113067Y-41300316D01*
X190938266Y-45710469D02*
X200020249Y-79604911D01*
X183862869Y-32792982D02*
X184994184Y-32489847D01*
%TO.N,row4*%
X251361651Y-62633512D02*
X251638582Y-63667051D01*
X194617574Y-70353607D02*
X192757132Y-63410341D01*
X228427540Y-42437421D02*
X230122804Y-48764236D01*
X150402613Y-75004388D02*
X146452911Y-71054690D01*
X187738405Y-46257851D02*
X187578121Y-46535469D01*
X236985898Y-64851619D02*
X235252248Y-63850697D01*
X234840853Y-60062290D02*
X234410265Y-58455282D01*
X150402616Y-77726799D02*
X150402612Y-75118686D01*
X257600199Y-72673555D02*
X257779803Y-72362476D01*
X261235899Y-88975447D02*
X258980142Y-80556840D01*
X235155624Y-57164275D02*
X234442344Y-54502281D01*
X253301723Y-61451098D02*
X251814198Y-61849677D01*
X184858290Y-34471234D02*
X184668348Y-34800230D01*
X190959438Y-57633582D02*
X192461599Y-63239715D01*
X257447807Y-71123455D02*
X256154688Y-70376871D01*
X256154688Y-70376871D02*
X253847459Y-61766180D01*
X233882092Y-53245565D02*
X234322123Y-52483402D01*
X257779803Y-72362476D02*
X257447807Y-71123455D01*
X233028444Y-49176240D02*
X232821391Y-48403499D01*
X234177924Y-54349616D02*
X233882092Y-53245565D01*
X251814198Y-61849677D02*
X251361651Y-62633512D01*
X146452911Y-71054690D02*
X146452909Y-64412594D01*
X237024720Y-64996509D02*
X236985898Y-64851619D01*
X234410265Y-58455282D02*
X235155624Y-57164275D01*
X233089682Y-49211594D02*
X233028444Y-49176240D01*
X192757132Y-63410341D02*
X192461599Y-63239715D01*
X150402612Y-75118686D02*
X150402613Y-75004388D01*
X253847459Y-61766180D02*
X253301723Y-61451098D01*
X233510554Y-49454585D02*
X233089682Y-49211594D01*
X187578121Y-46535469D02*
X190477259Y-57355191D01*
X258980142Y-80556840D02*
X259480366Y-79690426D01*
X234322123Y-52483402D02*
X233510554Y-49454585D01*
X259480366Y-79690426D02*
X257600199Y-72673555D01*
X235082245Y-60963172D02*
X234840853Y-60062290D01*
X237645417Y-67312988D02*
X237024720Y-64996509D01*
X234442344Y-54502281D02*
X234177924Y-54349616D01*
X230122804Y-48764236D02*
X229910673Y-49131659D01*
X184668348Y-34800230D02*
X187738405Y-46257851D01*
X234669907Y-61677363D02*
X235082245Y-60963172D01*
X150402610Y-93216187D02*
X150402616Y-77726799D01*
X235252248Y-63850697D02*
X234669907Y-61677363D01*
X190477259Y-57355191D02*
X190959438Y-57633582D01*
%TO.N,row5*%
X106373248Y-105326984D02*
X106427798Y-105295485D01*
X142444833Y-122697230D02*
X142454835Y-122707231D01*
X37239091Y-86290556D02*
X37716740Y-86014775D01*
X144933997Y-103788061D02*
X147504829Y-101217231D01*
X36144282Y-90376423D02*
X37239091Y-86290556D01*
X147506970Y-101217232D02*
X151278915Y-97445285D01*
X151278915Y-97445285D02*
X151278914Y-74877387D01*
X142444830Y-118137224D02*
X142444833Y-122697230D01*
X143295679Y-117286382D02*
X144933997Y-115648064D01*
X142444830Y-118137224D02*
X143295679Y-117286382D01*
X147504829Y-101217231D02*
X147506970Y-101217232D01*
X147595915Y-66863687D02*
X147583216Y-66850988D01*
X151278914Y-74877387D02*
X147595911Y-71194390D01*
X144933997Y-115648064D02*
X144933997Y-103788061D01*
X147595911Y-71194390D02*
X147595915Y-66863687D01*
X104605514Y-111924254D02*
X106373248Y-105326984D01*
%TO.N,Net-(J2-Pad2)*%
X243175340Y-92131489D02*
X243154835Y-92119651D01*
X244259323Y-96176961D02*
X243175340Y-92131489D01*
X243175341Y-92131496D02*
X243154835Y-92119651D01*
%TD*%
M02*
