%TF.GenerationSoftware,KiCad,Pcbnew,(6.0.0)*%
%TF.CreationDate,2022-04-21T03:32:39-07:00*%
%TF.ProjectId,ffkb,66666b62-2e6b-4696-9361-645f70636258,rev?*%
%TF.SameCoordinates,Original*%
%TF.FileFunction,Copper,L2,Bot*%
%TF.FilePolarity,Positive*%
%FSLAX46Y46*%
G04 Gerber Fmt 4.6, Leading zero omitted, Abs format (unit mm)*
G04 Created by KiCad (PCBNEW (6.0.0)) date 2022-04-21 03:32:39*
%MOMM*%
%LPD*%
G01*
G04 APERTURE LIST*
G04 Aperture macros list*
%AMRoundRect*
0 Rectangle with rounded corners*
0 $1 Rounding radius*
0 $2 $3 $4 $5 $6 $7 $8 $9 X,Y pos of 4 corners*
0 Add a 4 corners polygon primitive as box body*
4,1,4,$2,$3,$4,$5,$6,$7,$8,$9,$2,$3,0*
0 Add four circle primitives for the rounded corners*
1,1,$1+$1,$2,$3*
1,1,$1+$1,$4,$5*
1,1,$1+$1,$6,$7*
1,1,$1+$1,$8,$9*
0 Add four rect primitives between the rounded corners*
20,1,$1+$1,$2,$3,$4,$5,0*
20,1,$1+$1,$4,$5,$6,$7,0*
20,1,$1+$1,$6,$7,$8,$9,0*
20,1,$1+$1,$8,$9,$2,$3,0*%
%AMHorizOval*
0 Thick line with rounded ends*
0 $1 width*
0 $2 $3 position (X,Y) of the first rounded end (center of the circle)*
0 $4 $5 position (X,Y) of the second rounded end (center of the circle)*
0 Add line between two ends*
20,1,$1,$2,$3,$4,$5,0*
0 Add two circle primitives to create the rounded ends*
1,1,$1,$2,$3*
1,1,$1,$4,$5*%
%AMRotRect*
0 Rectangle, with rotation*
0 The origin of the aperture is its center*
0 $1 length*
0 $2 width*
0 $3 Rotation angle, in degrees counterclockwise*
0 Add horizontal line*
21,1,$1,$2,0,0,$3*%
G04 Aperture macros list end*
%TA.AperFunction,ComponentPad*%
%ADD10RoundRect,0.425000X-0.425000X-0.425000X0.425000X-0.425000X0.425000X0.425000X-0.425000X0.425000X0*%
%TD*%
%TA.AperFunction,ComponentPad*%
%ADD11O,1.700000X1.700000*%
%TD*%
%TA.AperFunction,ComponentPad*%
%ADD12RotRect,2.000000X2.000000X165.000000*%
%TD*%
%TA.AperFunction,ComponentPad*%
%ADD13C,2.000000*%
%TD*%
%TA.AperFunction,ComponentPad*%
%ADD14RotRect,2.000000X2.000000X15.000000*%
%TD*%
%TA.AperFunction,ComponentPad*%
%ADD15HorizOval,2.000000X0.129410X0.482963X-0.129410X-0.482963X0*%
%TD*%
%TA.AperFunction,ComponentPad*%
%ADD16C,1.524000*%
%TD*%
%TA.AperFunction,ComponentPad*%
%ADD17HorizOval,1.524000X0.000000X0.000000X0.000000X0.000000X0*%
%TD*%
%TA.AperFunction,ComponentPad*%
%ADD18HorizOval,2.000000X-0.129410X0.482963X0.129410X-0.482963X0*%
%TD*%
%TA.AperFunction,ComponentPad*%
%ADD19HorizOval,1.524000X0.000000X0.000000X0.000000X0.000000X0*%
%TD*%
%TA.AperFunction,ComponentPad*%
%ADD20O,1.600000X2.000000*%
%TD*%
%TA.AperFunction,SMDPad,CuDef*%
%ADD21RoundRect,0.082000X0.608642X-0.502656X0.778427X0.130992X-0.608642X0.502656X-0.778427X-0.130992X0*%
%TD*%
%TA.AperFunction,SMDPad,CuDef*%
%ADD22RoundRect,0.082000X0.400018X-0.680510X0.776284X-0.143146X-0.400018X0.680510X-0.776284X0.143146X0*%
%TD*%
%TA.AperFunction,SMDPad,CuDef*%
%ADD23RotRect,2.600000X2.600000X345.000000*%
%TD*%
%TA.AperFunction,SMDPad,CuDef*%
%ADD24RotRect,2.550000X2.500000X165.000000*%
%TD*%
%TA.AperFunction,SMDPad,CuDef*%
%ADD25RotRect,2.550000X2.500000X145.000000*%
%TD*%
%TA.AperFunction,SMDPad,CuDef*%
%ADD26RotRect,2.600000X2.600000X325.000000*%
%TD*%
%TA.AperFunction,SMDPad,CuDef*%
%ADD27RotRect,2.600000X2.600000X335.000000*%
%TD*%
%TA.AperFunction,SMDPad,CuDef*%
%ADD28RotRect,2.550000X2.500000X155.000000*%
%TD*%
%TA.AperFunction,SMDPad,CuDef*%
%ADD29RoundRect,0.082000X0.512110X-0.600709X0.789348X-0.006171X-0.512110X0.600709X-0.789348X0.006171X0*%
%TD*%
%TA.AperFunction,SMDPad,CuDef*%
%ADD30RoundRect,0.082000X0.778427X-0.130992X0.608642X0.502656X-0.778427X0.130992X-0.608642X-0.502656X0*%
%TD*%
%TA.AperFunction,SMDPad,CuDef*%
%ADD31RoundRect,0.082000X0.789348X0.006171X0.512110X0.600709X-0.789348X-0.006171X-0.512110X-0.600709X0*%
%TD*%
%TA.AperFunction,SMDPad,CuDef*%
%ADD32RoundRect,0.082000X0.776284X0.143146X0.400018X0.680510X-0.776284X-0.143146X-0.400018X-0.680510X0*%
%TD*%
%TA.AperFunction,SMDPad,CuDef*%
%ADD33RotRect,2.550000X2.500000X215.000000*%
%TD*%
%TA.AperFunction,SMDPad,CuDef*%
%ADD34RotRect,2.600000X2.600000X35.000000*%
%TD*%
%TA.AperFunction,SMDPad,CuDef*%
%ADD35RotRect,2.550000X2.500000X195.000000*%
%TD*%
%TA.AperFunction,SMDPad,CuDef*%
%ADD36RotRect,2.600000X2.600000X15.000000*%
%TD*%
%TA.AperFunction,SMDPad,CuDef*%
%ADD37RotRect,2.550000X2.500000X205.000000*%
%TD*%
%TA.AperFunction,SMDPad,CuDef*%
%ADD38RotRect,2.600000X2.600000X25.000000*%
%TD*%
%TA.AperFunction,ComponentPad*%
%ADD39R,2.000000X2.000000*%
%TD*%
%TA.AperFunction,ComponentPad*%
%ADD40R,1.752600X1.752600*%
%TD*%
%TA.AperFunction,ComponentPad*%
%ADD41C,1.752600*%
%TD*%
%TA.AperFunction,SMDPad,CuDef*%
%ADD42RotRect,0.900000X1.200000X255.000000*%
%TD*%
%TA.AperFunction,SMDPad,CuDef*%
%ADD43RotRect,0.900000X1.200000X285.000000*%
%TD*%
%TA.AperFunction,SMDPad,CuDef*%
%ADD44RoundRect,0.249998X0.262502X0.450002X-0.262502X0.450002X-0.262502X-0.450002X0.262502X-0.450002X0*%
%TD*%
%TA.AperFunction,SMDPad,CuDef*%
%ADD45R,1.800000X1.100000*%
%TD*%
%TA.AperFunction,ComponentPad*%
%ADD46RoundRect,0.425000X0.675000X0.425000X-0.675000X0.425000X-0.675000X-0.425000X0.675000X-0.425000X0*%
%TD*%
%TA.AperFunction,ComponentPad*%
%ADD47RoundRect,0.425000X0.675000X-0.425000X0.675000X0.425000X-0.675000X0.425000X-0.675000X-0.425000X0*%
%TD*%
%TA.AperFunction,ComponentPad*%
%ADD48O,3.800000X3.300000*%
%TD*%
%TA.AperFunction,SMDPad,CuDef*%
%ADD49RotRect,0.900000X1.200000X245.000000*%
%TD*%
%TA.AperFunction,SMDPad,CuDef*%
%ADD50RotRect,0.900000X1.200000X235.000000*%
%TD*%
%TA.AperFunction,SMDPad,CuDef*%
%ADD51RotRect,0.900000X1.200000X15.000000*%
%TD*%
%TA.AperFunction,SMDPad,CuDef*%
%ADD52RotRect,0.900000X1.200000X305.000000*%
%TD*%
%TA.AperFunction,SMDPad,CuDef*%
%ADD53RotRect,0.900000X1.200000X295.000000*%
%TD*%
%TA.AperFunction,SMDPad,CuDef*%
%ADD54RotRect,0.900000X1.200000X195.000000*%
%TD*%
%TA.AperFunction,SMDPad,CuDef*%
%ADD55R,1.200000X0.900000*%
%TD*%
%TA.AperFunction,ComponentPad*%
%ADD56HorizOval,2.200000X-0.168232X0.627852X0.168232X-0.627852X0*%
%TD*%
%TA.AperFunction,ComponentPad*%
%ADD57RotRect,1.500000X2.500000X195.000000*%
%TD*%
%TA.AperFunction,ComponentPad*%
%ADD58HorizOval,1.500000X-0.129410X0.482963X0.129410X-0.482963X0*%
%TD*%
%TA.AperFunction,ComponentPad*%
%ADD59RoundRect,0.250000X-0.176312X-0.694290X0.499836X-0.513117X0.176312X0.694290X-0.499836X0.513117X0*%
%TD*%
%TA.AperFunction,ComponentPad*%
%ADD60HorizOval,1.200000X-0.071175X0.265630X0.071175X-0.265630X0*%
%TD*%
%TA.AperFunction,SMDPad,CuDef*%
%ADD61R,2.000000X1.500000*%
%TD*%
%TA.AperFunction,SMDPad,CuDef*%
%ADD62R,2.000000X3.800000*%
%TD*%
%TA.AperFunction,SMDPad,CuDef*%
%ADD63RotRect,0.280000X1.250000X345.000000*%
%TD*%
%TA.AperFunction,SMDPad,CuDef*%
%ADD64RotRect,1.800000X2.000000X345.000000*%
%TD*%
%TA.AperFunction,SMDPad,CuDef*%
%ADD65RoundRect,0.250000X-0.262500X-0.450000X0.262500X-0.450000X0.262500X0.450000X-0.262500X0.450000X0*%
%TD*%
%TA.AperFunction,SMDPad,CuDef*%
%ADD66RoundRect,0.250000X-0.325000X-0.650000X0.325000X-0.650000X0.325000X0.650000X-0.325000X0.650000X0*%
%TD*%
%TA.AperFunction,ViaPad*%
%ADD67C,0.800000*%
%TD*%
%TA.AperFunction,Conductor*%
%ADD68C,0.254000*%
%TD*%
%TA.AperFunction,Conductor*%
%ADD69C,0.381000*%
%TD*%
G04 APERTURE END LIST*
D10*
%TO.P,J4,1,Pin_1*%
%TO.N,sda*%
X112650000Y-86990000D03*
D11*
%TO.P,J4,2,Pin_2*%
%TO.N,scl*%
X112650000Y-89530000D03*
%TO.P,J4,3,Pin_3*%
%TO.N,+5V*%
X112650000Y-92070000D03*
%TO.P,J4,4,Pin_4*%
%TO.N,3.3V*%
X112650000Y-94610000D03*
%TO.P,J4,5,Pin_5*%
%TO.N,GND*%
X112650000Y-97150000D03*
%TD*%
D12*
%TO.P,SW42,A,A*%
%TO.N,ENC1A*%
X53585255Y-98010424D03*
D13*
%TO.P,SW42,B,B*%
%TO.N,ENC1B*%
X54879350Y-93180795D03*
%TO.P,SW42,C,C*%
%TO.N,GND*%
X54232303Y-95595610D03*
%TO.P,SW42,S1,S1*%
%TO.N,col1*%
X40873426Y-89427919D03*
%TO.P,SW42,S2,S2*%
%TO.N,Net-(D81-Pad2)*%
X39579331Y-94257548D03*
%TD*%
D14*
%TO.P,SW43,A,A*%
%TO.N,ENC2A*%
X213443480Y-93180544D03*
D13*
%TO.P,SW43,B,B*%
%TO.N,ENC2B*%
X214737575Y-98010173D03*
%TO.P,SW43,C,C*%
%TO.N,GND*%
X214090527Y-95595359D03*
%TO.P,SW43,S1,S1*%
%TO.N,col0*%
X228743499Y-94257297D03*
%TO.P,SW43,S2,S2*%
%TO.N,Net-(D82-Pad2)*%
X227449404Y-89427668D03*
%TD*%
D15*
%TO.P,SW44,A,A*%
%TO.N,ENC1A*%
X41761892Y-97896424D03*
%TO.P,SW44,B,B*%
%TO.N,ENC1B*%
X44215343Y-98553824D03*
%TO.P,SW44,C,C*%
%TO.N,GND*%
X46668795Y-99211225D03*
%TO.P,SW44,NC,NC*%
%TO.N,unconnected-(SW44-PadNC)*%
X49122246Y-99868625D03*
D16*
%TO.P,SW44,S1,S1*%
%TO.N,col1*%
X38437063Y-98713744D03*
D17*
%TO.P,SW44,S2,S2*%
%TO.N,Net-(D81-Pad2)*%
X38954701Y-96781893D03*
%TD*%
D18*
%TO.P,SW45,A,A*%
%TO.N,ENC2A*%
X219033655Y-100327217D03*
%TO.P,SW45,B,B*%
%TO.N,ENC2B*%
X221487107Y-99669817D03*
%TO.P,SW45,C,C*%
%TO.N,GND*%
X223940559Y-99012417D03*
%TO.P,SW45,NC,NC*%
%TO.N,unconnected-(SW45-PadNC)*%
X226394010Y-98355016D03*
D16*
%TO.P,SW45,S1,S1*%
%TO.N,col0*%
X216562929Y-102697452D03*
D19*
%TO.P,SW45,S2,S2*%
%TO.N,Net-(D82-Pad2)*%
X216045291Y-100765600D03*
%TD*%
D20*
%TO.P,Brd1,1,GND*%
%TO.N,GND*%
X138180852Y-90353496D03*
%TO.P,Brd1,2,VCC*%
%TO.N,+5V*%
X135640852Y-90353496D03*
%TO.P,Brd1,3,SCL*%
%TO.N,scl*%
X133100852Y-90353496D03*
%TO.P,Brd1,4,SDA*%
%TO.N,sda*%
X130560852Y-90353496D03*
%TD*%
D21*
%TO.P,D43,1,VDD*%
%TO.N,+5V*%
X25926705Y-72144400D03*
%TO.P,D43,2,DOUT*%
%TO.N,Net-(D43-Pad2)*%
X26314934Y-70695511D03*
%TO.P,D43,3,VSS*%
%TO.N,GND*%
X21292120Y-69349652D03*
%TO.P,D43,4,DIN*%
%TO.N,Net-(D42-Pad2)*%
X20903891Y-70798541D03*
%TD*%
%TO.P,D49,1,VDD*%
%TO.N,+5V*%
X72078777Y-46723226D03*
%TO.P,D49,2,DOUT*%
%TO.N,Net-(D49-Pad2)*%
X72467006Y-45274337D03*
%TO.P,D49,3,VSS*%
%TO.N,GND*%
X67444192Y-43928478D03*
%TO.P,D49,4,DIN*%
%TO.N,Net-(D48-Pad2)*%
X67055963Y-45377367D03*
%TD*%
%TO.P,D50,1,VDD*%
%TO.N,+5V*%
X67161212Y-65075818D03*
%TO.P,D50,2,DOUT*%
%TO.N,Net-(D50-Pad2)*%
X67549441Y-63626929D03*
%TO.P,D50,3,VSS*%
%TO.N,GND*%
X62526627Y-62281070D03*
%TO.P,D50,4,DIN*%
%TO.N,Net-(D49-Pad2)*%
X62138398Y-63729959D03*
%TD*%
%TO.P,D42,1,VDD*%
%TO.N,+5V*%
X30844270Y-53791808D03*
%TO.P,D42,2,DOUT*%
%TO.N,Net-(D42-Pad2)*%
X31232499Y-52342919D03*
%TO.P,D42,3,VSS*%
%TO.N,GND*%
X26209685Y-50997060D03*
%TO.P,D42,4,DIN*%
%TO.N,Net-(D41-Pad2)*%
X25821456Y-52445949D03*
%TD*%
%TO.P,D46,1,VDD*%
%TO.N,+5V*%
X52432095Y-46635300D03*
%TO.P,D46,2,DOUT*%
%TO.N,Net-(D46-Pad2)*%
X52820324Y-45186411D03*
%TO.P,D46,3,VSS*%
%TO.N,GND*%
X47797510Y-43840552D03*
%TO.P,D46,4,DIN*%
%TO.N,Net-(D45-Pad2)*%
X47409281Y-45289441D03*
%TD*%
%TO.P,D58,1,VDD*%
%TO.N,+5V*%
X78008059Y-98005229D03*
%TO.P,D58,2,DOUT*%
%TO.N,Net-(D58-Pad2)*%
X78396288Y-96556340D03*
%TO.P,D58,3,VSS*%
%TO.N,GND*%
X73373474Y-95210481D03*
%TO.P,D58,4,DIN*%
%TO.N,Net-(D57-Pad2)*%
X72985245Y-96659370D03*
%TD*%
D22*
%TO.P,D60,1,VDD*%
%TO.N,+5V*%
X116909424Y-117141558D03*
%TO.P,D60,2,DOUT*%
%TO.N,Net-(D60-Pad2)*%
X117769788Y-115912830D03*
%TO.P,D60,3,VSS*%
%TO.N,GND*%
X113510198Y-112930233D03*
%TO.P,D60,4,DIN*%
%TO.N,Net-(D59-Pad2)*%
X112649833Y-114158961D03*
%TD*%
D23*
%TO.P,SW22,1,1*%
%TO.N,Net-(D22-Pad2)*%
X34918833Y-69977918D03*
D24*
X36491967Y-71776355D03*
D23*
%TO.P,SW22,2,2*%
%TO.N,col2*%
X45505875Y-75092315D03*
D24*
X50527440Y-72907548D03*
%TD*%
D23*
%TO.P,SW33,1,1*%
%TO.N,Net-(D33-Pad2)*%
X65412358Y-102995251D03*
D24*
X66985492Y-104793688D03*
%TO.P,SW33,2,2*%
%TO.N,col3*%
X81020965Y-105924881D03*
D23*
X75999400Y-108109648D03*
%TD*%
%TO.P,SW23,1,1*%
%TO.N,Net-(D23-Pad2)*%
X54565511Y-70065840D03*
D24*
X56138645Y-71864277D03*
D23*
%TO.P,SW23,2,2*%
%TO.N,col3*%
X65152553Y-75180237D03*
D24*
X70174118Y-72995470D03*
%TD*%
D25*
%TO.P,SW35,1,1*%
%TO.N,Net-(D35-Pad2)*%
X104229808Y-119750684D03*
D26*
X103366648Y-117522662D03*
D25*
%TO.P,SW35,2,2*%
%TO.N,col5*%
X117031948Y-125614071D03*
D26*
X111565986Y-125949604D03*
%TD*%
D24*
%TO.P,SW25,1,1*%
%TO.N,Net-(D25-Pad2)*%
X90902693Y-88943847D03*
D23*
X89329559Y-87145410D03*
%TO.P,SW25,2,2*%
%TO.N,col5*%
X99916601Y-92259807D03*
D24*
X104938166Y-90075040D03*
%TD*%
%TO.P,SW21,1,1*%
%TO.N,Net-(D21-Pad2)*%
X14904138Y-78932859D03*
D23*
X13331004Y-77134422D03*
%TO.P,SW21,2,2*%
%TO.N,col1*%
X23918046Y-82248819D03*
D24*
X28939611Y-80064052D03*
%TD*%
D23*
%TO.P,SW14,1,1*%
%TO.N,Net-(D14-Pad2)*%
X76541578Y-61460447D03*
D24*
X78114712Y-63258884D03*
%TO.P,SW14,2,2*%
%TO.N,col4*%
X92150185Y-64390077D03*
D23*
X87128620Y-66574844D03*
%TD*%
D21*
%TO.P,D52,1,VDD*%
%TO.N,+5V*%
X84219712Y-74823011D03*
%TO.P,D52,2,DOUT*%
%TO.N,Net-(D52-Pad2)*%
X84607941Y-73374122D03*
%TO.P,D52,3,VSS*%
%TO.N,GND*%
X79585127Y-72028263D03*
%TO.P,D52,4,DIN*%
%TO.N,Net-(D50-Pad2)*%
X79196898Y-73477152D03*
%TD*%
D27*
%TO.P,SW34,1,1*%
%TO.N,Net-(D34-Pad2)*%
X85024991Y-108598675D03*
D28*
X86261929Y-110642962D03*
%TO.P,SW34,2,2*%
%TO.N,col4*%
X99887742Y-114194203D03*
D27*
X94563085Y-115473793D03*
%TD*%
D21*
%TO.P,D56,1,VDD*%
%TO.N,+5V*%
X106842822Y-63802801D03*
%TO.P,D56,2,DOUT*%
%TO.N,Net-(D56-Pad2)*%
X107231051Y-62353912D03*
%TO.P,D56,3,VSS*%
%TO.N,GND*%
X102208237Y-61008053D03*
%TO.P,D56,4,DIN*%
%TO.N,Net-(D55-Pad2)*%
X101820008Y-62456942D03*
%TD*%
D24*
%TO.P,SW4,1,1*%
%TO.N,Net-(D4-Pad2)*%
X83032272Y-44906294D03*
D23*
X81459138Y-43107857D03*
%TO.P,SW4,2,2*%
%TO.N,col4*%
X92046180Y-48222254D03*
D24*
X97067745Y-46037487D03*
%TD*%
D21*
%TO.P,D54,1,VDD*%
%TO.N,+5V*%
X94054839Y-38117835D03*
%TO.P,D54,2,DOUT*%
%TO.N,Net-(D54-Pad2)*%
X94443068Y-36668946D03*
%TO.P,D54,3,VSS*%
%TO.N,GND*%
X89420254Y-35323087D03*
%TO.P,D54,4,DIN*%
%TO.N,Net-(D53-Pad2)*%
X89032025Y-36771976D03*
%TD*%
D24*
%TO.P,SW24,1,1*%
%TO.N,Net-(D24-Pad2)*%
X73197145Y-81611470D03*
D23*
X71624011Y-79813033D03*
%TO.P,SW24,2,2*%
%TO.N,col4*%
X82211053Y-84927430D03*
D24*
X87232618Y-82742663D03*
%TD*%
D21*
%TO.P,D53,1,VDD*%
%TO.N,+5V*%
X89137279Y-56470425D03*
%TO.P,D53,2,DOUT*%
%TO.N,Net-(D53-Pad2)*%
X89525508Y-55021536D03*
%TO.P,D53,3,VSS*%
%TO.N,GND*%
X84502694Y-53675677D03*
%TO.P,D53,4,DIN*%
%TO.N,Net-(D52-Pad2)*%
X84114465Y-55124566D03*
%TD*%
%TO.P,D45,1,VDD*%
%TO.N,+5V*%
X47514534Y-64987896D03*
%TO.P,D45,2,DOUT*%
%TO.N,Net-(D45-Pad2)*%
X47902763Y-63539007D03*
%TO.P,D45,3,VSS*%
%TO.N,GND*%
X42879949Y-62193148D03*
%TO.P,D45,4,DIN*%
%TO.N,Net-(D43-Pad2)*%
X42491720Y-63642037D03*
%TD*%
D29*
%TO.P,D59,1,VDD*%
%TO.N,+5V*%
X98295843Y-105871683D03*
%TO.P,D59,2,DOUT*%
%TO.N,Net-(D59-Pad2)*%
X98929770Y-104512221D03*
%TO.P,D59,3,VSS*%
%TO.N,GND*%
X94216970Y-102314606D03*
%TO.P,D59,4,DIN*%
%TO.N,Net-(D58-Pad2)*%
X93583042Y-103674068D03*
%TD*%
D24*
%TO.P,SW12,1,1*%
%TO.N,Net-(D12-Pad2)*%
X41409528Y-53423759D03*
D23*
X39836394Y-51625322D03*
%TO.P,SW12,2,2*%
%TO.N,col2*%
X50423436Y-56739719D03*
D24*
X55445001Y-54554952D03*
%TD*%
%TO.P,SW3,1,1*%
%TO.N,Net-(D3-Pad2)*%
X65973774Y-35159096D03*
D23*
X64400640Y-33360659D03*
%TO.P,SW3,2,2*%
%TO.N,col3*%
X74987682Y-38475056D03*
D24*
X80009247Y-36290289D03*
%TD*%
%TO.P,SW15,1,1*%
%TO.N,Net-(D15-Pad2)*%
X95820255Y-70591260D03*
D23*
X94247121Y-68792823D03*
%TO.P,SW15,2,2*%
%TO.N,col5*%
X104834163Y-73907220D03*
D24*
X109855728Y-71722453D03*
%TD*%
D23*
%TO.P,SW5,1,1*%
%TO.N,Net-(D5-Pad2)*%
X99164681Y-50440226D03*
D24*
X100737815Y-52238663D03*
D23*
%TO.P,SW5,2,2*%
%TO.N,col5*%
X109751723Y-55554623D03*
D24*
X114773288Y-53369856D03*
%TD*%
D23*
%TO.P,SW13,1,1*%
%TO.N,Net-(D13-Pad2)*%
X59483076Y-51713248D03*
D24*
X61056210Y-53511685D03*
%TO.P,SW13,2,2*%
%TO.N,col3*%
X75091683Y-54642878D03*
D23*
X70070118Y-56827645D03*
%TD*%
D24*
%TO.P,SW1,1,1*%
%TO.N,Net-(D1-Pad2)*%
X24739267Y-42227677D03*
D23*
X23166133Y-40429240D03*
D24*
%TO.P,SW1,2,2*%
%TO.N,col1*%
X38774740Y-43358870D03*
D23*
X33753175Y-45543637D03*
%TD*%
%TO.P,SW2,1,1*%
%TO.N,Net-(D2-Pad2)*%
X44753956Y-33272739D03*
D24*
X46327090Y-35071176D03*
D23*
%TO.P,SW2,2,2*%
%TO.N,col2*%
X55340998Y-38387136D03*
D24*
X60362563Y-36202369D03*
%TD*%
%TO.P,SW11,1,1*%
%TO.N,Net-(D11-Pad2)*%
X19821703Y-60580267D03*
D23*
X18248569Y-58781830D03*
D24*
%TO.P,SW11,2,2*%
%TO.N,col1*%
X33857176Y-61711460D03*
D23*
X28835611Y-63896227D03*
%TD*%
D21*
%TO.P,D41,1,VDD*%
%TO.N,+5V*%
X35761834Y-35439218D03*
%TO.P,D41,2,DOUT*%
%TO.N,Net-(D41-Pad2)*%
X36150063Y-33990329D03*
%TO.P,D41,3,VSS*%
%TO.N,GND*%
X31127249Y-32644470D03*
%TO.P,D41,4,DIN*%
%TO.N,Net-(D41-Pad4)*%
X30739020Y-34093359D03*
%TD*%
%TO.P,D48,1,VDD*%
%TO.N,+5V*%
X76996341Y-28370637D03*
%TO.P,D48,2,DOUT*%
%TO.N,Net-(D48-Pad2)*%
X77384570Y-26921748D03*
%TO.P,D48,3,VSS*%
%TO.N,GND*%
X72361756Y-25575889D03*
%TO.P,D48,4,DIN*%
%TO.N,Net-(D47-Pad2)*%
X71973527Y-27024778D03*
%TD*%
%TO.P,D55,1,VDD*%
%TO.N,+5V*%
X111760382Y-45450204D03*
%TO.P,D55,2,DOUT*%
%TO.N,Net-(D55-Pad2)*%
X112148611Y-44001315D03*
%TO.P,D55,3,VSS*%
%TO.N,GND*%
X107125797Y-42655456D03*
%TO.P,D55,4,DIN*%
%TO.N,Net-(D54-Pad2)*%
X106737568Y-44104345D03*
%TD*%
%TO.P,D47,1,VDD*%
%TO.N,+5V*%
X57349657Y-28282717D03*
%TO.P,D47,2,DOUT*%
%TO.N,Net-(D47-Pad2)*%
X57737886Y-26833828D03*
%TO.P,D47,3,VSS*%
%TO.N,GND*%
X52715072Y-25487969D03*
%TO.P,D47,4,DIN*%
%TO.N,Net-(D46-Pad2)*%
X52326843Y-26936858D03*
%TD*%
D30*
%TO.P,D72,1,VDD*%
%TO.N,+5V*%
X201270813Y-45379650D03*
%TO.P,D72,2,DOUT*%
%TO.N,Net-(D72-Pad2)*%
X200882584Y-43930761D03*
%TO.P,D72,3,VSS*%
%TO.N,GND*%
X195859770Y-45276620D03*
%TO.P,D72,4,DIN*%
%TO.N,Net-(D71-Pad2)*%
X196247999Y-46725509D03*
%TD*%
%TO.P,D78,1,VDD*%
%TO.N,+5V*%
X247422891Y-70800821D03*
%TO.P,D78,2,DOUT*%
%TO.N,Net-(D78-Pad2)*%
X247034662Y-69351932D03*
%TO.P,D78,3,VSS*%
%TO.N,GND*%
X242011848Y-70697791D03*
%TO.P,D78,4,DIN*%
%TO.N,Net-(D76-Pad2)*%
X242400077Y-72146680D03*
%TD*%
%TO.P,D64,1,VDD*%
%TO.N,+5V*%
X171424337Y-80811808D03*
%TO.P,D64,2,DOUT*%
%TO.N,Net-(D64-Pad2)*%
X171036108Y-79362919D03*
%TO.P,D64,3,VSS*%
%TO.N,GND*%
X166013294Y-80708778D03*
%TO.P,D64,4,DIN*%
%TO.N,Net-(D63-Pad2)*%
X166401523Y-82157667D03*
%TD*%
%TO.P,D69,1,VDD*%
%TO.N,+5V*%
X189129883Y-73479432D03*
%TO.P,D69,2,DOUT*%
%TO.N,Net-(D69-Pad2)*%
X188741654Y-72030543D03*
%TO.P,D69,3,VSS*%
%TO.N,GND*%
X183718840Y-73376402D03*
%TO.P,D69,4,DIN*%
%TO.N,Net-(D68-Pad2)*%
X184107069Y-74825291D03*
%TD*%
%TO.P,D71,1,VDD*%
%TO.N,+5V*%
X206188375Y-63732236D03*
%TO.P,D71,2,DOUT*%
%TO.N,Net-(D71-Pad2)*%
X205800146Y-62283347D03*
%TO.P,D71,3,VSS*%
%TO.N,GND*%
X200777332Y-63629206D03*
%TO.P,D71,4,DIN*%
%TO.N,Net-(D69-Pad2)*%
X201165561Y-65078095D03*
%TD*%
%TO.P,D73,1,VDD*%
%TO.N,+5V*%
X196353249Y-27027062D03*
%TO.P,D73,2,DOUT*%
%TO.N,Net-(D73-Pad2)*%
X195965020Y-25578173D03*
%TO.P,D73,3,VSS*%
%TO.N,GND*%
X190942206Y-26924032D03*
%TO.P,D73,4,DIN*%
%TO.N,Net-(D72-Pad2)*%
X191330435Y-28372921D03*
%TD*%
%TO.P,D74,1,VDD*%
%TO.N,+5V*%
X215999937Y-26939128D03*
%TO.P,D74,2,DOUT*%
%TO.N,Net-(D74-Pad2)*%
X215611708Y-25490239D03*
%TO.P,D74,3,VSS*%
%TO.N,GND*%
X210588894Y-26836098D03*
%TO.P,D74,4,DIN*%
%TO.N,Net-(D73-Pad2)*%
X210977123Y-28284987D03*
%TD*%
%TO.P,D80,1,VDD*%
%TO.N,+5V*%
X237587762Y-34095639D03*
%TO.P,D80,2,DOUT*%
%TO.N,Net-(D80-Pad2)*%
X237199533Y-32646750D03*
%TO.P,D80,3,VSS*%
%TO.N,GND*%
X232176719Y-33992609D03*
%TO.P,D80,4,DIN*%
%TO.N,Net-(D79-Pad2)*%
X232564948Y-35441498D03*
%TD*%
%TO.P,D76,1,VDD*%
%TO.N,+5V*%
X225835059Y-63644308D03*
%TO.P,D76,2,DOUT*%
%TO.N,Net-(D76-Pad2)*%
X225446830Y-62195419D03*
%TO.P,D76,3,VSS*%
%TO.N,GND*%
X220424016Y-63541278D03*
%TO.P,D76,4,DIN*%
%TO.N,Net-(D75-Pad2)*%
X220812245Y-64990167D03*
%TD*%
%TO.P,D75,1,VDD*%
%TO.N,+5V*%
X220917499Y-45291720D03*
%TO.P,D75,2,DOUT*%
%TO.N,Net-(D75-Pad2)*%
X220529270Y-43842831D03*
%TO.P,D75,3,VSS*%
%TO.N,GND*%
X215506456Y-45188690D03*
%TO.P,D75,4,DIN*%
%TO.N,Net-(D74-Pad2)*%
X215894685Y-46637579D03*
%TD*%
%TO.P,D79,1,VDD*%
%TO.N,+5V*%
X242505322Y-52448227D03*
%TO.P,D79,2,DOUT*%
%TO.N,Net-(D79-Pad2)*%
X242117093Y-50999338D03*
%TO.P,D79,3,VSS*%
%TO.N,GND*%
X237094279Y-52345197D03*
%TO.P,D79,4,DIN*%
%TO.N,Net-(D78-Pad2)*%
X237482508Y-53794086D03*
%TD*%
%TO.P,D68,1,VDD*%
%TO.N,+5V*%
X184212315Y-55126847D03*
%TO.P,D68,2,DOUT*%
%TO.N,Net-(D68-Pad2)*%
X183824086Y-53677958D03*
%TO.P,D68,3,VSS*%
%TO.N,GND*%
X178801272Y-55023817D03*
%TO.P,D68,4,DIN*%
%TO.N,Net-(D67-Pad2)*%
X179189501Y-56472706D03*
%TD*%
%TO.P,D63,1,VDD*%
%TO.N,+5V*%
X195341534Y-96661651D03*
%TO.P,D63,2,DOUT*%
%TO.N,Net-(D63-Pad2)*%
X194953305Y-95212762D03*
%TO.P,D63,3,VSS*%
%TO.N,GND*%
X189930491Y-96558621D03*
%TO.P,D63,4,DIN*%
%TO.N,Net-(D62-Pad2)*%
X190318720Y-98007510D03*
%TD*%
D31*
%TO.P,D62,1,VDD*%
%TO.N,+5V*%
X174743737Y-103676339D03*
%TO.P,D62,2,DOUT*%
%TO.N,Net-(D62-Pad2)*%
X174109809Y-102316877D03*
%TO.P,D62,3,VSS*%
%TO.N,GND*%
X169397009Y-104514492D03*
%TO.P,D62,4,DIN*%
%TO.N,Net-(D61-Pad2)*%
X170030936Y-105873954D03*
%TD*%
D32*
%TO.P,D61,1,VDD*%
%TO.N,+5V*%
X155676950Y-114161231D03*
%TO.P,D61,2,DOUT*%
%TO.N,Net-(D61-Pad2)*%
X154816585Y-112932503D03*
%TO.P,D61,3,VSS*%
%TO.N,GND*%
X150556995Y-115915100D03*
%TO.P,D61,4,DIN*%
%TO.N,Net-(D60-Pad2)*%
X151417359Y-117143828D03*
%TD*%
D33*
%TO.P,SW36,1,1*%
%TO.N,Net-(D36-Pad2)*%
X153792042Y-126968545D03*
D34*
X151403168Y-127017622D03*
D33*
%TO.P,SW36,2,2*%
%TO.N,col6*%
X163680414Y-116943865D03*
D34*
X162126243Y-122194949D03*
%TD*%
D35*
%TO.P,SW29,1,1*%
%TO.N,Net-(D29-Pad2)*%
X219683465Y-75034570D03*
D36*
X217421873Y-74263644D03*
D35*
%TO.P,SW29,2,2*%
%TO.N,col3*%
X232404138Y-68996475D03*
D36*
X229147718Y-73399321D03*
%TD*%
D37*
%TO.P,SW37,1,1*%
%TO.N,Net-(D37-Pad2)*%
X170663498Y-115961770D03*
D38*
X168302395Y-115595278D03*
D37*
%TO.P,SW37,2,2*%
%TO.N,col7*%
X182142410Y-107806486D03*
D38*
X179700010Y-112707915D03*
%TD*%
D35*
%TO.P,SW38,1,1*%
%TO.N,Net-(D38-Pad2)*%
X189189940Y-108051913D03*
D36*
X186928348Y-107280987D03*
%TO.P,SW38,2,2*%
%TO.N,col2*%
X198654193Y-106416664D03*
D35*
X201910613Y-102013818D03*
%TD*%
%TO.P,SW30,1,1*%
%TO.N,Net-(D30-Pad2)*%
X241271297Y-82191083D03*
D36*
X239009705Y-81420157D03*
D35*
%TO.P,SW30,2,2*%
%TO.N,col6*%
X253991970Y-76152988D03*
D36*
X250735550Y-80555834D03*
%TD*%
D35*
%TO.P,SW26,1,1*%
%TO.N,Net-(D26-Pad2)*%
X165272743Y-92202070D03*
D36*
X163011151Y-91431144D03*
D35*
%TO.P,SW26,2,2*%
%TO.N,col6*%
X177993416Y-86163975D03*
D36*
X174736996Y-90566821D03*
%TD*%
D35*
%TO.P,SW27,1,1*%
%TO.N,Net-(D27-Pad2)*%
X182978289Y-84869694D03*
D36*
X180716697Y-84098768D03*
D35*
%TO.P,SW27,2,2*%
%TO.N,col7*%
X195698962Y-78831599D03*
D36*
X192442542Y-83234445D03*
%TD*%
%TO.P,SW28,1,1*%
%TO.N,Net-(D28-Pad2)*%
X197775189Y-74351572D03*
D35*
X200036781Y-75122498D03*
D36*
%TO.P,SW28,2,2*%
%TO.N,col2*%
X209501034Y-73487249D03*
D35*
X212757454Y-69084403D03*
%TD*%
D36*
%TO.P,SW20,1,1*%
%TO.N,Net-(D20-Pad2)*%
X234092136Y-63067563D03*
D35*
X236353728Y-63838489D03*
D36*
%TO.P,SW20,2,2*%
%TO.N,col5*%
X245817981Y-62203240D03*
D35*
X249074401Y-57800394D03*
%TD*%
D30*
%TO.P,D65,1,VDD*%
%TO.N,+5V*%
X166506779Y-62459218D03*
%TO.P,D65,2,DOUT*%
%TO.N,Net-(D65-Pad2)*%
X166118550Y-61010329D03*
%TO.P,D65,3,VSS*%
%TO.N,GND*%
X161095736Y-62356188D03*
%TO.P,D65,4,DIN*%
%TO.N,Net-(D64-Pad2)*%
X161483965Y-63805077D03*
%TD*%
D35*
%TO.P,SW7,1,1*%
%TO.N,Net-(D7-Pad2)*%
X173143167Y-48164515D03*
D36*
X170881575Y-47393589D03*
%TO.P,SW7,2,2*%
%TO.N,col7*%
X182607420Y-46529266D03*
D35*
X185863840Y-42126420D03*
%TD*%
%TO.P,SW9,1,1*%
%TO.N,Net-(D9-Pad2)*%
X209848343Y-38329390D03*
D36*
X207586751Y-37558464D03*
D35*
%TO.P,SW9,2,2*%
%TO.N,col4*%
X222569016Y-32291295D03*
D36*
X219312596Y-36694141D03*
%TD*%
%TO.P,SW8,1,1*%
%TO.N,Net-(D8-Pad2)*%
X187940063Y-37646398D03*
D35*
X190201655Y-38417324D03*
D36*
%TO.P,SW8,2,2*%
%TO.N,col3*%
X199665908Y-36782075D03*
D35*
X202922328Y-32379229D03*
%TD*%
%TO.P,SW16,1,1*%
%TO.N,Net-(D16-Pad2)*%
X160355185Y-73849480D03*
D36*
X158093593Y-73078554D03*
D35*
%TO.P,SW16,2,2*%
%TO.N,col6*%
X173075858Y-67811385D03*
D36*
X169819438Y-72214231D03*
%TD*%
%TO.P,SW19,1,1*%
%TO.N,Net-(D19-Pad2)*%
X212504313Y-55911056D03*
D35*
X214765905Y-56681982D03*
%TO.P,SW19,2,2*%
%TO.N,col4*%
X227486578Y-50643887D03*
D36*
X224230158Y-55046733D03*
%TD*%
%TO.P,SW17,1,1*%
%TO.N,Net-(D17-Pad2)*%
X175799129Y-65746183D03*
D35*
X178060721Y-66517109D03*
%TO.P,SW17,2,2*%
%TO.N,col7*%
X190781394Y-60479014D03*
D36*
X187524974Y-64881860D03*
%TD*%
D35*
%TO.P,SW18,1,1*%
%TO.N,Net-(D18-Pad2)*%
X195119219Y-56769912D03*
D36*
X192857627Y-55998986D03*
%TO.P,SW18,2,2*%
%TO.N,col2*%
X204583472Y-55134663D03*
D35*
X207839892Y-50731817D03*
%TD*%
D36*
%TO.P,SW10,1,1*%
%TO.N,Net-(D10-Pad2)*%
X229174576Y-44714975D03*
D35*
X231436168Y-45485901D03*
%TO.P,SW10,2,2*%
%TO.N,col5*%
X244156841Y-39447806D03*
D36*
X240900421Y-43850652D03*
%TD*%
D35*
%TO.P,SW6,1,1*%
%TO.N,Net-(D6-Pad2)*%
X155437622Y-55496894D03*
D36*
X153176030Y-54725968D03*
%TO.P,SW6,2,2*%
%TO.N,col6*%
X164901875Y-53861645D03*
D35*
X168158295Y-49458799D03*
%TD*%
D30*
%TO.P,D67,1,VDD*%
%TO.N,+5V*%
X179294761Y-36774253D03*
%TO.P,D67,2,DOUT*%
%TO.N,Net-(D67-Pad2)*%
X178906532Y-35325364D03*
%TO.P,D67,3,VSS*%
%TO.N,GND*%
X173883718Y-36671223D03*
%TO.P,D67,4,DIN*%
%TO.N,Net-(D66-Pad2)*%
X174271947Y-38120112D03*
%TD*%
%TO.P,D66,1,VDD*%
%TO.N,+5V*%
X161589216Y-44106632D03*
%TO.P,D66,2,DOUT*%
%TO.N,Net-(D66-Pad2)*%
X161200987Y-42657743D03*
%TO.P,D66,3,VSS*%
%TO.N,GND*%
X156178173Y-44003602D03*
%TO.P,D66,4,DIN*%
%TO.N,Net-(D65-Pad2)*%
X156566402Y-45452491D03*
%TD*%
D21*
%TO.P,D83,1,VDD*%
%TO.N,+5V*%
X14631577Y-37024319D03*
%TO.P,D83,2,DOUT*%
%TO.N,Net-(D41-Pad4)*%
X15019806Y-35575430D03*
%TO.P,D83,3,VSS*%
%TO.N,GND*%
X9996992Y-34229571D03*
%TO.P,D83,4,DIN*%
%TO.N,Net-(D77-Pad2)*%
X9608763Y-35678460D03*
%TD*%
%TO.P,D70,1,VDD*%
%TO.N,+5V*%
X4796462Y-73729502D03*
%TO.P,D70,2,DOUT*%
%TO.N,Net-(D70-Pad2)*%
X5184691Y-72280613D03*
%TO.P,D70,3,VSS*%
%TO.N,GND*%
X161877Y-70934754D03*
%TO.P,D70,4,DIN*%
%TO.N,led*%
X-226352Y-72383643D03*
%TD*%
%TO.P,D77,1,VDD*%
%TO.N,+5V*%
X9714021Y-55376908D03*
%TO.P,D77,2,DOUT*%
%TO.N,Net-(D77-Pad2)*%
X10102250Y-53928019D03*
%TO.P,D77,3,VSS*%
%TO.N,GND*%
X5079436Y-52582160D03*
%TO.P,D77,4,DIN*%
%TO.N,Net-(D70-Pad2)*%
X4691207Y-54031049D03*
%TD*%
D30*
%TO.P,D84,1,VDD*%
%TO.N,+5V*%
X258718010Y-35680736D03*
%TO.P,D84,2,DOUT*%
%TO.N,Net-(D84-Pad2)*%
X258329781Y-34231847D03*
%TO.P,D84,3,VSS*%
%TO.N,GND*%
X253306967Y-35577706D03*
%TO.P,D84,4,DIN*%
%TO.N,Net-(D80-Pad2)*%
X253695196Y-37026595D03*
%TD*%
%TO.P,D85,1,VDD*%
%TO.N,+5V*%
X263635572Y-54033336D03*
%TO.P,D85,2,DOUT*%
%TO.N,Net-(D85-Pad2)*%
X263247343Y-52584447D03*
%TO.P,D85,3,VSS*%
%TO.N,GND*%
X258224529Y-53930306D03*
%TO.P,D85,4,DIN*%
%TO.N,Net-(D84-Pad2)*%
X258612758Y-55379195D03*
%TD*%
%TO.P,D86,1,VDD*%
%TO.N,+5V*%
X268553132Y-72385915D03*
%TO.P,D86,2,DOUT*%
%TO.N,unconnected-(D86-Pad2)*%
X268164903Y-70937026D03*
%TO.P,D86,3,VSS*%
%TO.N,GND*%
X263142089Y-72282885D03*
%TO.P,D86,4,DIN*%
%TO.N,Net-(D85-Pad2)*%
X263530318Y-73731774D03*
%TD*%
D24*
%TO.P,SW31,1,1*%
%TO.N,Net-(D31-Pad2)*%
X3609010Y-43812778D03*
D23*
X2035876Y-42014341D03*
D24*
%TO.P,SW31,2,2*%
%TO.N,col0*%
X17644483Y-44943971D03*
D23*
X12622918Y-47128738D03*
%TD*%
D36*
%TO.P,SW32,1,1*%
%TO.N,Net-(D32-Pad2)*%
X250304824Y-46300072D03*
D35*
X252566416Y-47070998D03*
D36*
%TO.P,SW32,2,2*%
%TO.N,col7*%
X262030669Y-45435749D03*
D35*
X265287089Y-41032903D03*
%TD*%
D23*
%TO.P,SW39,1,1*%
%TO.N,Net-(D39-Pad2)*%
X-2881680Y-60366930D03*
D24*
X-1308546Y-62165367D03*
%TO.P,SW39,2,2*%
%TO.N,col0*%
X12726927Y-63296560D03*
D23*
X7705362Y-65481327D03*
%TD*%
D35*
%TO.P,SW40,1,1*%
%TO.N,Net-(D40-Pad2)*%
X257483978Y-65423598D03*
D36*
X255222386Y-64652672D03*
D35*
%TO.P,SW40,2,2*%
%TO.N,col7*%
X270204651Y-59385503D03*
D36*
X266948231Y-63788349D03*
%TD*%
D23*
%TO.P,SW46,1,1*%
%TO.N,Net-(D44-Pad2)*%
X-7799239Y-78719524D03*
D24*
X-6226105Y-80517961D03*
D23*
%TO.P,SW46,2,2*%
%TO.N,col0*%
X2787803Y-83833921D03*
D24*
X7809368Y-81649154D03*
%TD*%
D36*
%TO.P,SW47,1,1*%
%TO.N,Net-(D51-Pad2)*%
X260139946Y-83005251D03*
D35*
X262401538Y-83776177D03*
D36*
%TO.P,SW47,2,2*%
%TO.N,col6*%
X271865791Y-82140928D03*
D35*
X275122211Y-77738082D03*
%TD*%
D39*
%TO.P,SW48,A,A*%
%TO.N,sda*%
X126698261Y-89925079D03*
D13*
%TO.P,SW48,B,B*%
%TO.N,scl*%
X126698261Y-94925079D03*
%TO.P,SW48,C,C*%
%TO.N,GND*%
X126698261Y-92425079D03*
%TO.P,SW48,S1,S1*%
%TO.N,col1*%
X141198261Y-94925079D03*
%TO.P,SW48,S2,S2*%
%TO.N,Net-(D87-Pad2)*%
X141198261Y-89925079D03*
%TD*%
D21*
%TO.P,D57,1,VDD*%
%TO.N,+5V*%
X101925260Y-82155388D03*
%TO.P,D57,2,DOUT*%
%TO.N,Net-(D57-Pad2)*%
X102313489Y-80706499D03*
%TO.P,D57,3,VSS*%
%TO.N,GND*%
X97290675Y-79360640D03*
%TO.P,D57,4,DIN*%
%TO.N,Net-(D56-Pad2)*%
X96902446Y-80809529D03*
%TD*%
D40*
%TO.P,U3,1,TX0/PD3*%
%TO.N,led*%
X126666088Y-46594796D03*
D41*
%TO.P,U3,2,RX1/PD2*%
%TO.N,row0*%
X126666088Y-49134796D03*
%TO.P,U3,3,GND*%
%TO.N,GND*%
X126666088Y-51674796D03*
%TO.P,U3,4,GND*%
X126666088Y-54214796D03*
%TO.P,U3,5,2/PD1*%
%TO.N,sda*%
X126666088Y-56754796D03*
%TO.P,U3,6,3/PD0*%
%TO.N,scl*%
X126666088Y-59294796D03*
%TO.P,U3,7,4/PD4*%
%TO.N,col5*%
X126666088Y-61834796D03*
%TO.P,U3,8,5/PC6*%
%TO.N,col4*%
X126666088Y-64374796D03*
%TO.P,U3,9,6/PD7*%
%TO.N,col3*%
X126666088Y-66914796D03*
%TO.P,U3,10,7/PE6*%
%TO.N,col2*%
X126666088Y-69454796D03*
%TO.P,U3,11,8/PB4*%
%TO.N,col1*%
X126666088Y-71994796D03*
%TO.P,U3,12,9/PB5*%
%TO.N,col0*%
X126894688Y-74534796D03*
%TO.P,U3,13,10/PB6*%
%TO.N,ENC2A*%
X141906088Y-74534796D03*
%TO.P,U3,14,16/PB2*%
%TO.N,col6*%
X141906088Y-71994796D03*
%TO.P,U3,15,14/PB3*%
%TO.N,col7*%
X141906088Y-69454796D03*
%TO.P,U3,16,15/PB1*%
%TO.N,row5*%
X141906088Y-66914796D03*
%TO.P,U3,17,A0/PF7*%
%TO.N,row4*%
X141906088Y-64374796D03*
%TO.P,U3,18,A1/PF6*%
%TO.N,row3*%
X141906088Y-61834796D03*
%TO.P,U3,19,A2/PF5*%
%TO.N,row2*%
X141906088Y-59294796D03*
%TO.P,U3,20,A3/PF4*%
%TO.N,row1*%
X141906088Y-56754796D03*
%TO.P,U3,21,VCC*%
%TO.N,+5V*%
X141906088Y-54214796D03*
%TO.P,U3,22,RST*%
%TO.N,RESET*%
X141906088Y-51674796D03*
%TO.P,U3,23,GND*%
%TO.N,B-*%
X141906088Y-49134796D03*
%TO.P,U3,24,B0*%
%TO.N,B+*%
X141906088Y-46594796D03*
%TO.P,U3,25,B7*%
%TO.N,ENC1B*%
X129206088Y-74534796D03*
%TO.P,U3,26,D5*%
%TO.N,ENC1A*%
X131746088Y-74534796D03*
%TO.P,U3,27,C7*%
%TO.N,unconnected-(U3-Pad27)*%
X134286088Y-74534796D03*
%TO.P,U3,28,F1*%
%TO.N,ENC2B*%
X136826088Y-74534796D03*
%TO.P,U3,29,F0*%
%TO.N,unconnected-(U3-Pad29)*%
X139366088Y-74534796D03*
%TD*%
%TO.P,U1,1,TX0/P0.06*%
%TO.N,led*%
X126676088Y-46584796D03*
%TO.P,U1,2,RX1/P0.08*%
%TO.N,row0*%
X126676088Y-49124796D03*
%TO.P,U1,3,GND*%
%TO.N,GND*%
X126676088Y-51664796D03*
%TO.P,U1,4,GND*%
X126676088Y-54204796D03*
%TO.P,U1,5,P0.17*%
%TO.N,sda*%
X126676088Y-56744796D03*
%TO.P,U1,6,P0.20*%
%TO.N,scl*%
X126676088Y-59284796D03*
%TO.P,U1,7,P0.22*%
%TO.N,col5*%
X126676088Y-61824796D03*
%TO.P,U1,8,P0.24*%
%TO.N,col4*%
X126676088Y-64364796D03*
%TO.P,U1,9,P1.00*%
%TO.N,col3*%
X126676088Y-66904796D03*
%TO.P,U1,10,P0.11*%
%TO.N,col2*%
X126676088Y-69444796D03*
%TO.P,U1,11,P1.04*%
%TO.N,col1*%
X126676088Y-71984796D03*
%TO.P,U1,12,P1.06*%
%TO.N,col0*%
X126676088Y-74524796D03*
%TO.P,U1,13,NFC1/P0.09*%
%TO.N,ENC2A*%
X141916088Y-74524796D03*
%TO.P,U1,14,NFC2/P0.10*%
%TO.N,col6*%
X141916088Y-71984796D03*
%TO.P,U1,15,P1.11*%
%TO.N,col7*%
X141916088Y-69444796D03*
%TO.P,U1,16,P1.13*%
%TO.N,row5*%
X141916088Y-66904796D03*
%TO.P,U1,17,P1.15*%
%TO.N,row4*%
X141916088Y-64364796D03*
%TO.P,U1,18,AIN0/P0.02*%
%TO.N,row3*%
X141916088Y-61824796D03*
%TO.P,U1,19,AIN5/P0.29*%
%TO.N,row2*%
X141916088Y-59284796D03*
%TO.P,U1,20,AIN7/P0.31*%
%TO.N,row1*%
X141916088Y-56744796D03*
%TO.P,U1,21,VCC*%
%TO.N,+5V*%
X141916088Y-54204796D03*
%TO.P,U1,22,RST*%
%TO.N,RESET*%
X141916088Y-51664796D03*
%TO.P,U1,23,GND*%
%TO.N,B-*%
X141916088Y-49124796D03*
%TO.P,U1,24,BATIN/P0.04*%
%TO.N,B+*%
X141916088Y-46584796D03*
%TO.P,U1,31,P1.01*%
%TO.N,ENC1B*%
X129216088Y-69444796D03*
%TO.P,U1,32,P1.02*%
%TO.N,ENC1A*%
X131756088Y-69444796D03*
%TO.P,U1,33,P1.07*%
%TO.N,ENC2B*%
X134296088Y-69444796D03*
%TD*%
D42*
%TO.P,D81,1,K*%
%TO.N,row5*%
X37378744Y-91690516D03*
%TO.P,D81,2,A*%
%TO.N,Net-(D81-Pad2)*%
X36524642Y-94878072D03*
%TD*%
D43*
%TO.P,D82,1,K*%
%TO.N,row5*%
X211363431Y-100361366D03*
%TO.P,D82,2,A*%
%TO.N,Net-(D82-Pad2)*%
X212217533Y-103548922D03*
%TD*%
D44*
%TO.P,R4,1*%
%TO.N,+5V*%
X144030755Y-130525088D03*
%TO.P,R4,2*%
%TO.N,RESET*%
X142205755Y-130525088D03*
%TD*%
D45*
%TO.P,SW41,1,1*%
%TO.N,GND*%
X146168257Y-124535086D03*
%TO.P,SW41,2,2*%
%TO.N,RESET*%
X139968257Y-128235086D03*
%TO.P,SW41,3*%
%TO.N,N/C*%
X146168257Y-128235086D03*
%TO.P,SW41,4*%
X139968257Y-124535086D03*
%TD*%
D46*
%TO.P,J1,1,Pin_1*%
%TO.N,+5V*%
X120336846Y-71473492D03*
D47*
%TO.P,J1,2,Pin_2*%
%TO.N,sda*%
X120336846Y-74013492D03*
%TO.P,J1,3,Pin_3*%
%TO.N,scl*%
X120336846Y-76553492D03*
%TO.P,J1,4,Pin_4*%
%TO.N,unconnected-(J1-Pad4)*%
X120336846Y-79093492D03*
%TO.P,J1,5,Pin_5*%
%TO.N,GND*%
X120336846Y-81633492D03*
D48*
%TO.P,J1,6*%
%TO.N,N/C*%
X128660846Y-86353492D03*
%TO.P,J1,7*%
X139660846Y-86353492D03*
%TD*%
D42*
%TO.P,D3,1,K*%
%TO.N,row0*%
X65951821Y-27668173D03*
%TO.P,D3,2,A*%
%TO.N,Net-(D3-Pad2)*%
X65097719Y-30855729D03*
%TD*%
%TO.P,D5,1,K*%
%TO.N,row0*%
X100715858Y-44747739D03*
%TO.P,D5,2,A*%
%TO.N,Net-(D5-Pad2)*%
X99861756Y-47935295D03*
%TD*%
%TO.P,D4,1,K*%
%TO.N,row0*%
X83010319Y-37415361D03*
%TO.P,D4,2,A*%
%TO.N,Net-(D4-Pad2)*%
X82156217Y-40602917D03*
%TD*%
%TO.P,D1,1,K*%
%TO.N,row0*%
X24717304Y-34736754D03*
%TO.P,D1,2,A*%
%TO.N,Net-(D1-Pad2)*%
X23863202Y-37924310D03*
%TD*%
%TO.P,D2,1,K*%
%TO.N,row0*%
X46305139Y-27580239D03*
%TO.P,D2,2,A*%
%TO.N,Net-(D2-Pad2)*%
X45451037Y-30767795D03*
%TD*%
%TO.P,D12,1,K*%
%TO.N,row1*%
X41387569Y-45932825D03*
%TO.P,D12,2,A*%
%TO.N,Net-(D12-Pad2)*%
X40533467Y-49120381D03*
%TD*%
%TO.P,D14,1,K*%
%TO.N,row1*%
X78092751Y-55767951D03*
%TO.P,D14,2,A*%
%TO.N,Net-(D14-Pad2)*%
X77238649Y-58955507D03*
%TD*%
%TO.P,D13,1,K*%
%TO.N,row1*%
X61034259Y-46020760D03*
%TO.P,D13,2,A*%
%TO.N,Net-(D13-Pad2)*%
X60180157Y-49208316D03*
%TD*%
%TO.P,D15,1,K*%
%TO.N,row1*%
X95798297Y-63100333D03*
%TO.P,D15,2,A*%
%TO.N,Net-(D15-Pad2)*%
X94944195Y-66287889D03*
%TD*%
%TO.P,D22,1,K*%
%TO.N,row2*%
X37044717Y-62368346D03*
%TO.P,D22,2,A*%
%TO.N,Net-(D22-Pad2)*%
X36190615Y-65555902D03*
%TD*%
%TO.P,D25,1,K*%
%TO.N,row2*%
X90880742Y-81452922D03*
%TO.P,D25,2,A*%
%TO.N,Net-(D25-Pad2)*%
X90026640Y-84640478D03*
%TD*%
%TO.P,D24,1,K*%
%TO.N,row2*%
X73175192Y-74120546D03*
%TO.P,D24,2,A*%
%TO.N,Net-(D24-Pad2)*%
X72321090Y-77308102D03*
%TD*%
%TO.P,D23,1,K*%
%TO.N,row2*%
X56116699Y-64373360D03*
%TO.P,D23,2,A*%
%TO.N,Net-(D23-Pad2)*%
X55262597Y-67560916D03*
%TD*%
%TO.P,D21,1,K*%
%TO.N,row2*%
X14882182Y-71441928D03*
%TO.P,D21,2,A*%
%TO.N,Net-(D21-Pad2)*%
X14028080Y-74629484D03*
%TD*%
%TO.P,D11,1,K*%
%TO.N,row1*%
X19799749Y-53089341D03*
%TO.P,D11,2,A*%
%TO.N,Net-(D11-Pad2)*%
X18945647Y-56276897D03*
%TD*%
%TO.P,D33,1,K*%
%TO.N,row5*%
X66963537Y-97302766D03*
%TO.P,D33,2,A*%
%TO.N,Net-(D33-Pad2)*%
X66109435Y-100490322D03*
%TD*%
D49*
%TO.P,D34,1,K*%
%TO.N,row5*%
X87541100Y-103262020D03*
%TO.P,D34,2,A*%
%TO.N,Net-(D34-Pad2)*%
X86146460Y-106252836D03*
%TD*%
D50*
%TO.P,D35,1,K*%
%TO.N,row5*%
X106771226Y-112703994D03*
%TO.P,D35,2,A*%
%TO.N,Net-(D35-Pad2)*%
X104878424Y-115407196D03*
%TD*%
D43*
%TO.P,D9,1,K*%
%TO.N,row3*%
X206083867Y-31853033D03*
%TO.P,D9,2,A*%
%TO.N,Net-(D9-Pad2)*%
X206937969Y-35040589D03*
%TD*%
D51*
%TO.P,D10,1,K*%
%TO.N,row4*%
X231217950Y-48787042D03*
%TO.P,D10,2,A*%
%TO.N,Net-(D10-Pad2)*%
X234405506Y-47932940D03*
%TD*%
D43*
%TO.P,D7,1,K*%
%TO.N,row0*%
X169378696Y-41688158D03*
%TO.P,D7,2,A*%
%TO.N,Net-(D7-Pad2)*%
X170232798Y-44875714D03*
%TD*%
%TO.P,D8,1,K*%
%TO.N,row4*%
X186437184Y-31940968D03*
%TO.P,D8,2,A*%
%TO.N,Net-(D8-Pad2)*%
X187291286Y-35128524D03*
%TD*%
%TO.P,D6,1,K*%
%TO.N,row0*%
X151673147Y-49020533D03*
%TO.P,D6,2,A*%
%TO.N,Net-(D6-Pad2)*%
X152527249Y-52208089D03*
%TD*%
%TO.P,D19,1,K*%
%TO.N,row4*%
X210990222Y-50163800D03*
%TO.P,D19,2,A*%
%TO.N,Net-(D19-Pad2)*%
X211844324Y-53351356D03*
%TD*%
D51*
%TO.P,D17,1,K*%
%TO.N,row1*%
X179475290Y-69737420D03*
%TO.P,D17,2,A*%
%TO.N,Net-(D17-Pad2)*%
X182662846Y-68883318D03*
%TD*%
D43*
%TO.P,D26,1,K*%
%TO.N,row2*%
X161508267Y-85725711D03*
%TO.P,D26,2,A*%
%TO.N,Net-(D26-Pad2)*%
X162362369Y-88913267D03*
%TD*%
%TO.P,D16,1,K*%
%TO.N,row1*%
X156590709Y-67373118D03*
%TO.P,D16,2,A*%
%TO.N,Net-(D16-Pad2)*%
X157444811Y-70560674D03*
%TD*%
%TO.P,D18,1,K*%
%TO.N,row3*%
X191037439Y-50143313D03*
%TO.P,D18,2,A*%
%TO.N,Net-(D18-Pad2)*%
X191891541Y-53330869D03*
%TD*%
%TO.P,D28,1,K*%
%TO.N,row4*%
X196272309Y-68646144D03*
%TO.P,D28,2,A*%
%TO.N,Net-(D28-Pad2)*%
X197126411Y-71833700D03*
%TD*%
%TO.P,D27,1,K*%
%TO.N,row2*%
X179213811Y-78393336D03*
%TO.P,D27,2,A*%
%TO.N,Net-(D27-Pad2)*%
X180067913Y-81580892D03*
%TD*%
%TO.P,D20,1,K*%
%TO.N,row3*%
X232589256Y-57362134D03*
%TO.P,D20,2,A*%
%TO.N,Net-(D20-Pad2)*%
X233443358Y-60549690D03*
%TD*%
D52*
%TO.P,D36,1,K*%
%TO.N,row5*%
X148039545Y-122170293D03*
%TO.P,D36,2,A*%
%TO.N,Net-(D36-Pad2)*%
X149932347Y-124873495D03*
%TD*%
D43*
%TO.P,D38,1,K*%
%TO.N,row5*%
X185425468Y-101575559D03*
%TO.P,D38,2,A*%
%TO.N,Net-(D38-Pad2)*%
X186279570Y-104763115D03*
%TD*%
%TO.P,D29,1,K*%
%TO.N,row3*%
X215918995Y-68558211D03*
%TO.P,D29,2,A*%
%TO.N,Net-(D29-Pad2)*%
X216773097Y-71745767D03*
%TD*%
%TO.P,D30,1,K*%
%TO.N,row3*%
X237506817Y-75714719D03*
%TO.P,D30,2,A*%
%TO.N,Net-(D30-Pad2)*%
X238360919Y-78902275D03*
%TD*%
D53*
%TO.P,D37,1,K*%
%TO.N,row5*%
X165831602Y-110237500D03*
%TO.P,D37,2,A*%
%TO.N,Net-(D37-Pad2)*%
X167226242Y-113228316D03*
%TD*%
D42*
%TO.P,D31,1,K*%
%TO.N,row0*%
X3527059Y-36271015D03*
%TO.P,D31,2,A*%
%TO.N,Net-(D31-Pad2)*%
X2672957Y-39458571D03*
%TD*%
D54*
%TO.P,D32,1,K*%
%TO.N,row3*%
X257677956Y-49119223D03*
%TO.P,D32,2,A*%
%TO.N,Net-(D32-Pad2)*%
X254490400Y-49973325D03*
%TD*%
D42*
%TO.P,D39,1,K*%
%TO.N,row1*%
X-1252943Y-54391011D03*
%TO.P,D39,2,A*%
%TO.N,Net-(D39-Pad2)*%
X-2107045Y-57578567D03*
%TD*%
D54*
%TO.P,D40,1,K*%
%TO.N,row4*%
X262647964Y-67439223D03*
%TO.P,D40,2,A*%
%TO.N,Net-(D40-Pad2)*%
X259460408Y-68293325D03*
%TD*%
D42*
%TO.P,D44,1,K*%
%TO.N,row2*%
X-6072935Y-72241005D03*
%TO.P,D44,2,A*%
%TO.N,Net-(D44-Pad2)*%
X-6927037Y-75428561D03*
%TD*%
D54*
%TO.P,D51,1,K*%
%TO.N,row4*%
X267417960Y-85839217D03*
%TO.P,D51,2,A*%
%TO.N,Net-(D51-Pad2)*%
X264230404Y-86693319D03*
%TD*%
D55*
%TO.P,D87,1,K*%
%TO.N,row4*%
X147478254Y-93215083D03*
%TO.P,D87,2,A*%
%TO.N,Net-(D87-Pad2)*%
X147478254Y-89915083D03*
%TD*%
D56*
%TO.P,SW49,*%
%TO.N,*%
X240299024Y-97238122D03*
X248219616Y-95115806D03*
D57*
%TO.P,SW49,1*%
%TO.N,B+*%
X246191172Y-95659326D03*
D58*
%TO.P,SW49,2*%
%TO.N,Net-(J2-Pad2)*%
X244259320Y-96176964D03*
%TO.P,SW49,3*%
%TO.N,N/C*%
X242327469Y-96694602D03*
%TD*%
D59*
%TO.P,J2,1,Pin_1*%
%TO.N,B-*%
X234344218Y-92347329D03*
D60*
%TO.P,J2,2,Pin_2*%
%TO.N,Net-(J2-Pad2)*%
X236276070Y-91829691D03*
%TO.P,J2,3,Pin_3*%
%TO.N,B-*%
X238207921Y-91312053D03*
%TD*%
D61*
%TO.P,U2,1,GND*%
%TO.N,GND*%
X130295366Y-115526856D03*
%TO.P,U2,2,VO*%
%TO.N,3.3V*%
X130295366Y-113226856D03*
D62*
X136595366Y-113226856D03*
D61*
%TO.P,U2,3,VI*%
%TO.N,+5V*%
X130295366Y-110926856D03*
%TD*%
D63*
%TO.P,J3,1,Pin_1*%
%TO.N,3.3V*%
X123390483Y-128145467D03*
%TO.P,J3,2,Pin_2*%
%TO.N,GND*%
X123873446Y-128274877D03*
%TO.P,J3,3,Pin_3*%
%TO.N,sda*%
X124356409Y-128404287D03*
%TO.P,J3,4,Pin_4*%
%TO.N,scl*%
X124839372Y-128533696D03*
%TO.P,J3,5,Pin_5*%
%TO.N,unconnected-(J3-Pad5)*%
X125322334Y-128663106D03*
%TO.P,J3,6,Pin_6*%
%TO.N,unconnected-(J3-Pad6)*%
X125805297Y-128792515D03*
%TO.P,J3,7,Pin_7*%
%TO.N,unconnected-(J3-Pad7)*%
X126288260Y-128921925D03*
%TO.P,J3,8,Pin_8*%
%TO.N,unconnected-(J3-Pad8)*%
X126771223Y-129051334D03*
%TO.P,J3,9,Pin_9*%
%TO.N,unconnected-(J3-Pad9)*%
X127254186Y-129180744D03*
%TO.P,J3,10,Pin_10*%
%TO.N,unconnected-(J3-Pad10)*%
X127737149Y-129310153D03*
%TO.P,J3,11,Pin_11*%
%TO.N,unconnected-(J3-Pad11)*%
X128220112Y-129439563D03*
%TO.P,J3,12,Pin_12*%
%TO.N,unconnected-(J3-Pad12)*%
X128703075Y-129568972D03*
D64*
%TO.P,J3,13*%
%TO.N,N/C*%
X131146764Y-127403665D03*
%TO.P,J3,14*%
X122356839Y-125048411D03*
%TD*%
D65*
%TO.P,R2,1*%
%TO.N,sda*%
X116682865Y-107826853D03*
%TO.P,R2,2*%
%TO.N,3.3V*%
X118507865Y-107826853D03*
%TD*%
%TO.P,R1,1*%
%TO.N,scl*%
X116682863Y-105676857D03*
%TO.P,R1,2*%
%TO.N,3.3V*%
X118507863Y-105676857D03*
%TD*%
D66*
%TO.P,C1,1*%
%TO.N,GND*%
X122670365Y-110926854D03*
%TO.P,C1,2*%
%TO.N,+5V*%
X125620365Y-110926854D03*
%TD*%
%TO.P,C2,1*%
%TO.N,GND*%
X122620364Y-113576854D03*
%TO.P,C2,2*%
%TO.N,3.3V*%
X125570364Y-113576854D03*
%TD*%
D67*
%TO.N,scl*%
X116450000Y-91450000D03*
%TO.N,+5V*%
X107794304Y-91994304D03*
%TO.N,3.3V*%
X120223145Y-107826855D03*
X118450000Y-96000000D03*
%TO.N,GND*%
X120700000Y-97150000D03*
X268816123Y-50283591D03*
X67726671Y-24576659D03*
X123016088Y-51354798D03*
X147996083Y-48044800D03*
X158487523Y-81297055D03*
X128433994Y-115474700D03*
X153549251Y-62867184D03*
X147744519Y-61325756D03*
X36775452Y-55632772D03*
X126706882Y-125707723D03*
X273620745Y-67507065D03*
X-5523949Y-68006512D03*
X109677069Y-81683584D03*
X242650438Y-29581934D03*
X69782064Y-94233960D03*
X230655747Y-54189884D03*
X146812627Y-116669434D03*
X103418178Y-105003444D03*
X122987609Y-117871088D03*
X32023428Y-72125367D03*
X48078252Y-94025089D03*
X10782109Y-31398676D03*
X122633996Y-115424700D03*
X122876085Y-45224794D03*
X-695272Y-49992457D03*
X222430004Y-93327446D03*
X252455049Y-32793752D03*
X148366577Y-44575286D03*
X114849473Y-62959470D03*
X25082656Y-31462890D03*
X57641714Y-91477892D03*
X234633330Y-72685639D03*
X62541490Y-43984610D03*
X120837014Y-91931332D03*
X164833065Y-104940328D03*
X71651474Y-94714161D03*
X148154834Y-126357224D03*
X127979093Y-119229603D03*
%TO.N,+5V*%
X123483997Y-109024699D03*
X124043739Y-121714957D03*
X109497724Y-85637053D03*
X133395365Y-82526855D03*
X243293391Y-34492860D03*
X441552Y-48816614D03*
X59976131Y-44166858D03*
X236077424Y-74752305D03*
X25943550Y-32981072D03*
X268304808Y-52763984D03*
X113736092Y-71354795D03*
X145896091Y-52874797D03*
X231390338Y-55619772D03*
X32112717Y-75275275D03*
X115468447Y-64088123D03*
X135708255Y-88625084D03*
X102992956Y-109372257D03*
X273695754Y-70851493D03*
X145891866Y-49709016D03*
X-4417040Y-66936541D03*
X164854337Y-108265208D03*
X150178993Y-119637029D03*
X152984627Y-64198690D03*
X61536339Y-28137369D03*
X149574831Y-129207231D03*
X37038005Y-57882874D03*
X124394518Y-71515750D03*
X133295366Y-88426854D03*
X17289824Y-34002485D03*
X146810022Y-62363493D03*
X158110269Y-83095992D03*
X263149657Y-34550216D03*
%TO.N,row0*%
X22217482Y-42735431D03*
X82537081Y-39434827D03*
X83714574Y-34615360D03*
X28004461Y-30785357D03*
X116289905Y-56500977D03*
X46431261Y-26126471D03*
X26087242Y-35479764D03*
X47995252Y-21835032D03*
X118406087Y-49144794D03*
X43107814Y-34936502D03*
X60452146Y-24800941D03*
X149987852Y-49898822D03*
X167413090Y-42486262D03*
X170727156Y-54600638D03*
X62678420Y-29165084D03*
X153120999Y-61346202D03*
%TO.N,row1*%
X39109110Y-46514285D03*
X46862972Y-40549667D03*
X98845833Y-57852913D03*
X37823548Y-50967742D03*
X133657579Y-63097743D03*
X79720434Y-49985318D03*
X156220223Y-66344371D03*
X175098508Y-70459293D03*
X97197077Y-63426614D03*
X177395574Y-72634031D03*
X79215990Y-54881599D03*
X21237691Y-46789023D03*
X17056471Y-61333924D03*
X61785979Y-42850431D03*
X19902199Y-52033001D03*
X59841057Y-47868007D03*
X159382398Y-79266236D03*
X133803714Y-56741791D03*
%TO.N,row2*%
X92378181Y-75769972D03*
X10232977Y-77146127D03*
X54957656Y-66209050D03*
X38715159Y-57411439D03*
X146424290Y-81557768D03*
X57707819Y-58456694D03*
X177229348Y-79014356D03*
X145665512Y-59370691D03*
X16607013Y-65219450D03*
X160405504Y-78370801D03*
X74448688Y-72943874D03*
X91252105Y-79972545D03*
X175701977Y-73804830D03*
X75595572Y-68663670D03*
X14838416Y-69849471D03*
X161248843Y-84377329D03*
X37019906Y-61288767D03*
X116884838Y-80777229D03*
X131760847Y-84081212D03*
X116914827Y-88497231D03*
%TO.N,row3*%
X132564521Y-80515748D03*
X251412009Y-52505370D03*
X217504123Y-67873238D03*
X219098911Y-81900223D03*
X205790564Y-30592704D03*
X189409405Y-50562927D03*
X226945101Y-34410818D03*
X144484524Y-57673615D03*
X231933787Y-51367434D03*
X233958375Y-56643709D03*
X188894070Y-46932301D03*
X216299495Y-61769729D03*
X139099614Y-62012287D03*
X144382926Y-61864612D03*
X140610911Y-78577927D03*
X247327675Y-47346687D03*
X129464827Y-99257233D03*
X208734836Y-43566926D03*
%TO.N,led*%
X124134521Y-46835747D03*
X124064517Y-50105754D03*
X16353057Y-86191468D03*
X119056217Y-50076288D03*
X107399972Y-97108121D03*
X29059464Y-89616848D03*
X8617422Y-75960589D03*
X34184075Y-75265504D03*
%TO.N,Net-(D41-Pad2)*%
X37711075Y-34671222D03*
X24130195Y-51167801D03*
%TO.N,Net-(D42-Pad2)*%
X18981317Y-69572291D03*
X32858218Y-52782332D03*
%TO.N,Net-(D43-Pad2)*%
X40647670Y-61929533D03*
X37125883Y-74454821D03*
%TO.N,Net-(D45-Pad2)*%
X49965622Y-63898280D03*
X45716507Y-43669242D03*
%TO.N,Net-(D46-Pad2)*%
X50666132Y-25428769D03*
X54815762Y-45372328D03*
%TO.N,Net-(D47-Pad2)*%
X70455447Y-25834449D03*
X70460831Y-29407592D03*
X58265488Y-29825997D03*
X59580137Y-26658320D03*
%TO.N,Net-(D48-Pad2)*%
X65467870Y-44023336D03*
X78961998Y-27348223D03*
%TO.N,Net-(D49-Pad2)*%
X74092732Y-45713755D03*
X60465639Y-62073717D03*
%TO.N,Net-(D50-Pad2)*%
X68931334Y-67841321D03*
X77779968Y-75502564D03*
X77585690Y-72054809D03*
X69175171Y-64066343D03*
%TO.N,Net-(D52-Pad2)*%
X82573826Y-53400190D03*
X86233665Y-73813531D03*
%TO.N,Net-(D53-Pad2)*%
X87341834Y-35142116D03*
X91199524Y-55473884D03*
%TO.N,Net-(D55-Pad2)*%
X113757926Y-44695150D03*
X100071995Y-61236050D03*
%TO.N,Net-(D56-Pad2)*%
X95437562Y-78763815D03*
X108905067Y-62806259D03*
%TO.N,Net-(D57-Pad2)*%
X103987507Y-81158850D03*
X90062310Y-97935874D03*
%TO.N,Net-(D63-Pad2)*%
X199024716Y-83464605D03*
X201496000Y-93170212D03*
X176702411Y-88753037D03*
X163848922Y-81910313D03*
%TO.N,Net-(D64-Pad2)*%
X159171784Y-63141307D03*
X173160217Y-78680320D03*
%TO.N,Net-(D65-Pad2)*%
X168070176Y-60456761D03*
X154602003Y-45275278D03*
%TO.N,Net-(D67-Pad2)*%
X180552338Y-34882326D03*
X176988809Y-56379521D03*
%TO.N,Net-(D68-Pad2)*%
X182081347Y-75616979D03*
X185469901Y-53234918D03*
%TO.N,Net-(D70-Pad2)*%
X5549508Y-71056454D03*
X2608163Y-53403676D03*
%TO.N,Net-(D71-Pad2)*%
X207336426Y-61817902D03*
X193798562Y-46554040D03*
%TO.N,Net-(D72-Pad2)*%
X189228412Y-28377536D03*
X202977348Y-42945437D03*
%TO.N,Net-(D74-Pad2)*%
X217209224Y-25060143D03*
X213352768Y-46159600D03*
%TO.N,Net-(D75-Pad2)*%
X222164312Y-43396621D03*
X218453161Y-64421796D03*
%TO.N,Net-(D76-Pad2)*%
X227743482Y-61963519D03*
X227795891Y-75998174D03*
%TO.N,Net-(D77-Pad2)*%
X7181782Y-35021040D03*
X10463790Y-52754754D03*
%TO.N,Net-(D78-Pad2)*%
X249037173Y-68795083D03*
X234953724Y-53519643D03*
%TO.N,Net-(D79-Pad2)*%
X230514316Y-35328818D03*
X244208445Y-50387630D03*
%TO.N,Net-(D80-Pad2)*%
X239379200Y-32094195D03*
X244364982Y-43398984D03*
%TO.N,RESET*%
X152904827Y-100257237D03*
X138124831Y-126357232D03*
X144299532Y-100340233D03*
X138104831Y-117337231D03*
X148526091Y-51674800D03*
X141984831Y-117137228D03*
%TO.N,col0*%
X164489413Y-99385571D03*
X18244514Y-42968220D03*
X182493328Y-112625582D03*
X36087054Y-49846770D03*
X17040638Y-47373597D03*
X114357159Y-78789686D03*
X55679453Y-57975449D03*
X57523466Y-56257177D03*
X12211580Y-65511788D03*
X231107170Y-99553791D03*
X35634120Y-51537141D03*
X114537815Y-103539132D03*
X7294012Y-83864386D03*
%TO.N,col1*%
X123326994Y-72575754D03*
X107976006Y-98049282D03*
X28407726Y-82109212D03*
X33330463Y-63737295D03*
X111763126Y-83915535D03*
X123351616Y-79942530D03*
X42849329Y-77562176D03*
X27871632Y-86003142D03*
X38115704Y-45608066D03*
X122945327Y-86883614D03*
%TO.N,col2*%
X128685727Y-55489216D03*
X206799870Y-100656236D03*
X59897086Y-38192847D03*
X150825181Y-56186176D03*
X211693897Y-66711533D03*
X213702491Y-74403981D03*
X116944513Y-79685746D03*
X204438190Y-39927293D03*
X166224879Y-45392833D03*
X149687923Y-52256794D03*
X207092438Y-48459143D03*
X118584522Y-69435752D03*
X167611419Y-52112953D03*
X55025420Y-56412795D03*
X200767345Y-78093461D03*
X50061270Y-74939248D03*
%TO.N,col3*%
X74572228Y-56525724D03*
X79377999Y-38474465D03*
X159205430Y-102254164D03*
X203886131Y-34579353D03*
X123774525Y-66925747D03*
X159213033Y-98628734D03*
X67249809Y-83853406D03*
X82353016Y-109977512D03*
X121694837Y-101397230D03*
X69654673Y-74878325D03*
X231928779Y-65891745D03*
X234824356Y-77027641D03*
X83221782Y-106735239D03*
X61429268Y-105611806D03*
X215840927Y-83954961D03*
X214654324Y-79526480D03*
%TO.N,col4*%
X222241002Y-29477113D03*
X99431837Y-120547668D03*
X96546212Y-48044002D03*
X226945472Y-48359298D03*
X112594832Y-78007234D03*
X79862904Y-111350147D03*
X233900102Y-99732090D03*
X91701626Y-66240151D03*
X116428804Y-64518367D03*
X90134269Y-72089599D03*
X86698655Y-84911502D03*
X101816674Y-115607666D03*
%TO.N,col5*%
X158116972Y-98041502D03*
X110411389Y-69824727D03*
X248634650Y-55406451D03*
X217393822Y-83420530D03*
X232773986Y-72712270D03*
X102566714Y-99101454D03*
X113280044Y-59118756D03*
X233345409Y-76464122D03*
X242774447Y-42172029D03*
X157998933Y-103727362D03*
X217555209Y-80195466D03*
X98493065Y-118902321D03*
X251247298Y-66776261D03*
X104300668Y-92630246D03*
X115599834Y-50654392D03*
%TO.N,col6*%
X178171270Y-90002132D03*
X150444519Y-61125743D03*
X150354516Y-69455750D03*
X172444795Y-65423779D03*
X162042238Y-113804693D03*
X158417495Y-88320793D03*
X177385654Y-83863295D03*
X169583140Y-54937103D03*
X167692034Y-46811443D03*
%TO.N,col7*%
X190199700Y-58430164D03*
X197670185Y-86447621D03*
X152347429Y-96767761D03*
X196806871Y-83088457D03*
X230479510Y-90946623D03*
X256722355Y-71948973D03*
X180449346Y-104917770D03*
X148459509Y-69416388D03*
X270129252Y-61874640D03*
X270939805Y-67205910D03*
X195070674Y-76608884D03*
X185015558Y-39082672D03*
X178399966Y-91611061D03*
X224927108Y-77879542D03*
X265162179Y-43680768D03*
X256141520Y-83569667D03*
%TO.N,sda*%
X115178258Y-74035092D03*
X118776763Y-54287461D03*
X115208259Y-89965085D03*
X120983998Y-108774698D03*
X114883997Y-107774701D03*
X121916509Y-129289944D03*
%TO.N,scl*%
X116058254Y-94925088D03*
X120827181Y-129878044D03*
X115998260Y-76545087D03*
X115283997Y-106024699D03*
X119693919Y-56003306D03*
X132798251Y-94915096D03*
%TO.N,3.3V*%
X126133998Y-115374700D03*
X125293351Y-125380728D03*
%TO.N,Net-(D82-Pad2)*%
X226998119Y-95809712D03*
%TO.N,ENC1B*%
X58787326Y-78596029D03*
X46298254Y-90865082D03*
%TO.N,ENC1A*%
X61793340Y-80002046D03*
X42568254Y-95105091D03*
%TO.N,ENC2B*%
X201950461Y-88607100D03*
X220525803Y-96498332D03*
X202947739Y-92367617D03*
%TO.N,ENC2A*%
X216894171Y-92295041D03*
X141995213Y-77582487D03*
%TO.N,Net-(D41-Pad4)*%
X18305991Y-41801221D03*
X29018918Y-33231945D03*
X15394860Y-34313116D03*
X21927979Y-43792542D03*
%TO.N,Net-(D84-Pad2)*%
X256336498Y-55119910D03*
X259988540Y-33837109D03*
%TO.N,Net-(D85-Pad2)*%
X261599582Y-73680139D03*
X264941456Y-52128462D03*
%TO.N,Net-(D87-Pad2)*%
X145718262Y-89895087D03*
%TO.N,B-*%
X194533894Y-81697497D03*
X187618731Y-81583384D03*
X181846024Y-78005561D03*
X203806588Y-80211104D03*
X205841447Y-87590578D03*
X171827925Y-54292540D03*
X145830612Y-57821291D03*
X231477671Y-81497101D03*
%TO.N,B+*%
X204304167Y-78614814D03*
X236937238Y-87397101D03*
X182148226Y-31803030D03*
X243799237Y-86656369D03*
X200020249Y-79604911D03*
X234904982Y-79763583D03*
X207759948Y-86997629D03*
%TO.N,row4*%
X261235899Y-88975447D03*
X251638582Y-63667051D03*
X146452909Y-64412594D03*
X150402616Y-77726799D03*
X194617574Y-70353607D03*
X232821391Y-48403499D03*
X184858290Y-34471234D03*
X256154688Y-70376871D03*
X229910673Y-49131659D03*
X192461599Y-63239715D03*
X150402610Y-93216187D03*
X228427540Y-42437421D03*
X237645417Y-67312988D03*
%TO.N,row5*%
X36144282Y-90376423D03*
X37716740Y-86014775D03*
X142444830Y-118137224D03*
X147583216Y-66850988D03*
X142454835Y-122707231D03*
X106427798Y-105295485D03*
X104605514Y-111924254D03*
%TO.N,Net-(J2-Pad2)*%
X243154835Y-92119651D03*
%TD*%
D68*
%TO.N,scl*%
X112650000Y-89530000D02*
X114570000Y-91450000D01*
X114570000Y-91450000D02*
X116450000Y-91450000D01*
%TO.N,sda*%
X115208259Y-89758259D02*
X115208259Y-89965085D01*
X112650000Y-87200000D02*
X115208259Y-89758259D01*
X112650000Y-86990000D02*
X112650000Y-87200000D01*
D69*
%TO.N,+5V*%
X107870000Y-92070000D02*
X107794304Y-91994304D01*
X112650000Y-92070000D02*
X107870000Y-92070000D01*
D68*
%TO.N,3.3V*%
X120223145Y-107826855D02*
X124036150Y-107826855D01*
X118507865Y-107826855D02*
X120223145Y-107826855D01*
X114800000Y-96000000D02*
X118450000Y-96000000D01*
X113410000Y-94610000D02*
X114200000Y-95400000D01*
X112650000Y-94610000D02*
X113410000Y-94610000D01*
X114200000Y-95400000D02*
X114800000Y-96000000D01*
D69*
%TO.N,GND*%
X112650000Y-97150000D02*
X120700000Y-97150000D01*
X114849473Y-62959470D02*
X101229914Y-59310119D01*
X62541490Y-43984610D02*
X59389373Y-43140005D01*
X153570468Y-62830439D02*
X153549251Y-62867184D01*
X36775452Y-55632772D02*
X34399575Y-51517633D01*
X122620362Y-113576857D02*
X122620366Y-115411067D01*
X122670364Y-110926853D02*
X122670365Y-113526855D01*
X97143055Y-77885296D02*
X88633241Y-75605095D01*
X152534828Y-63077227D02*
X151214827Y-63077227D01*
X21292123Y-69349654D02*
X21399910Y-68947382D01*
X101229285Y-59312470D02*
X101229914Y-59310119D01*
X190774494Y-26298115D02*
X189694768Y-25674739D01*
X200467268Y-62472044D02*
X199999916Y-62202209D01*
X97143055Y-77885296D02*
X109376666Y-81163284D01*
X47684740Y-42312428D02*
X46641531Y-42032901D01*
D68*
X128433994Y-115474700D02*
X130243209Y-115474702D01*
D69*
X190942209Y-26924032D02*
X190774494Y-26298115D01*
X81466311Y-27513887D02*
X80877164Y-29712607D01*
X42879950Y-62193141D02*
X43061751Y-61514648D01*
X220424017Y-63541279D02*
X220209716Y-62741496D01*
X177972282Y-53558869D02*
X186607654Y-51245030D01*
X148366577Y-44575286D02*
X155091147Y-42773442D01*
X165713588Y-79590250D02*
X165295218Y-79348704D01*
X37969128Y-32979840D02*
X32483930Y-31510084D01*
X165295218Y-79348704D02*
X176828366Y-76258399D01*
X71651474Y-94714161D02*
X73349622Y-95169169D01*
X125699570Y-92425081D02*
X125205816Y-91931330D01*
X72361759Y-25575894D02*
X72618623Y-24617281D01*
X82192015Y-31989994D02*
X89448062Y-33934249D01*
X94170261Y-100746894D02*
X95239699Y-101245585D01*
X89420256Y-35323085D02*
X89683240Y-34341590D01*
X122670365Y-113526855D02*
X122620362Y-113576857D01*
X195614413Y-44360928D02*
X194840868Y-43914328D01*
X25600879Y-31163687D02*
X25082656Y-31462890D01*
X194840868Y-43914328D02*
X203495562Y-41595306D01*
X214113308Y-95555896D02*
X214090530Y-95595361D01*
X109727159Y-81633489D02*
X109677069Y-81683584D01*
X97290669Y-79360646D02*
X97513885Y-78527594D01*
X186607654Y-51245030D02*
X188494438Y-47977021D01*
X83207008Y-51809875D02*
X78705786Y-50603784D01*
X177120972Y-98987135D02*
X167320499Y-103557164D01*
X150556992Y-115915103D02*
X148920579Y-115626561D01*
X124927776Y-119229604D02*
X127979093Y-119229603D01*
X113598905Y-111297047D02*
X122987609Y-117871088D01*
X22382268Y-68123136D02*
X29122457Y-69929163D01*
X203495562Y-41595306D02*
X209680528Y-45166195D01*
X42429287Y-60419187D02*
X39009911Y-59502970D01*
X31127245Y-32644473D02*
X25600879Y-31163687D01*
X29122457Y-69929163D02*
X29631956Y-70811647D01*
X67444190Y-43928481D02*
X66502320Y-42297108D01*
X161095735Y-62356187D02*
X159954759Y-61697448D01*
X93867535Y-56881852D02*
X92354320Y-54260895D01*
X26320985Y-50581699D02*
X26209681Y-50997063D01*
X56658191Y-44716852D02*
X47684740Y-42312428D01*
X221561410Y-41982724D02*
X225188873Y-35699785D01*
X172702501Y-35321364D02*
X182971031Y-32569922D01*
X167730939Y-59036155D02*
X169597703Y-55802831D01*
X258224528Y-53930300D02*
X257965409Y-52963234D01*
X109376666Y-81163284D02*
X109677069Y-81683584D01*
X52966465Y-24549745D02*
X53757116Y-24093261D01*
X88973484Y-99011381D02*
X89629087Y-98772751D01*
X96890885Y-57691952D02*
X93867535Y-56881852D01*
X191094718Y-47280281D02*
X192708114Y-44485792D01*
X58239246Y-91141062D02*
X69782064Y-94233960D01*
X156178176Y-44003603D02*
X155987167Y-43290756D01*
X87452665Y-99567412D02*
X88972082Y-99014381D01*
X146332684Y-124535085D02*
X148154834Y-126357224D01*
X46668794Y-99211216D02*
X48078252Y-94025089D01*
X190900647Y-69816725D02*
X194436184Y-63693018D01*
X185026128Y-30566025D02*
X187512520Y-26259469D01*
X79331953Y-70483219D02*
X73130704Y-68821601D01*
X75265620Y-44645230D02*
X66359780Y-42258919D01*
X84692447Y-97469347D02*
X85047939Y-98446064D01*
X89995080Y-34080823D02*
X89448062Y-33934249D01*
X106988169Y-106668163D02*
X113598905Y-111297047D01*
X47797513Y-43840545D02*
X48041423Y-42930230D01*
X10028427Y-34211420D02*
X9996992Y-34229570D01*
X34399575Y-51517633D02*
X27774575Y-49742467D01*
X125205816Y-91931330D02*
X120837014Y-91931332D01*
X52715074Y-25487965D02*
X52966465Y-24549745D01*
X85047939Y-98446064D02*
X87452665Y-99567412D01*
X73349622Y-95169169D02*
X73373472Y-95210481D01*
X200777332Y-63629210D02*
X200467268Y-62472044D01*
X173883717Y-36671223D02*
X173672003Y-35881096D01*
X234640693Y-72672882D02*
X234633330Y-72685639D01*
X273620745Y-67507065D02*
X263229479Y-70291388D01*
X88633241Y-75605095D02*
X86837194Y-72494243D01*
X69785874Y-23387776D02*
X67726671Y-24576659D01*
X62449901Y-25035581D02*
X65511089Y-25855825D01*
X232176722Y-33992606D02*
X231900302Y-32961005D01*
X120286755Y-81683586D02*
X120336849Y-81633492D01*
X43061751Y-61514648D02*
X42429287Y-60419187D01*
X231261486Y-32592183D02*
X242601456Y-29553654D01*
X84502690Y-53675675D02*
X83465451Y-51879132D01*
X97202007Y-58230845D02*
X96890885Y-57691952D01*
X89991622Y-98941802D02*
X90164380Y-98878916D01*
X57641714Y-91477892D02*
X57651371Y-91480477D01*
X97140953Y-35995541D02*
X98506977Y-38361562D01*
X10782109Y-31398676D02*
X10028427Y-34211420D01*
X203419634Y-27132141D02*
X208666547Y-25726227D01*
X185791145Y-96146329D02*
X203940890Y-91283118D01*
X88972082Y-99014381D02*
X88973484Y-99011381D01*
X161032551Y-106712535D02*
X148717068Y-115335928D01*
X72297279Y-24060704D02*
X80785793Y-26335198D01*
X94216974Y-102314605D02*
X94511204Y-101683621D01*
X95306937Y-101221118D02*
X103418178Y-105003444D01*
X107125793Y-42655455D02*
X106493326Y-41560002D01*
X95239699Y-101245585D02*
X95306937Y-101221118D01*
X69496179Y-62526415D02*
X62386970Y-60621511D01*
X72618623Y-24617281D02*
X72297279Y-24060704D01*
X53757116Y-24093261D02*
X60904296Y-26008352D01*
X48041423Y-42930230D02*
X47684740Y-42312428D01*
D68*
X130243209Y-115474702D02*
X130295364Y-115526855D01*
D69*
X203940890Y-91283118D02*
X212259626Y-96085945D01*
X96022458Y-35695844D02*
X89995080Y-34080823D01*
X89629087Y-98772751D02*
X89991622Y-98941802D01*
X170732008Y-35849340D02*
X172702501Y-35321364D01*
X212259626Y-96085945D02*
X214090530Y-95595361D01*
X149501086Y-61363488D02*
X147782258Y-61363488D01*
X103418178Y-105003444D02*
X106988169Y-106668163D01*
X73130704Y-68821601D02*
X69496179Y-62526415D01*
X127979093Y-119229603D02*
X143329280Y-119229601D01*
X179362498Y-95104699D02*
X177120972Y-98987135D01*
X183963610Y-30850727D02*
X185026128Y-30566025D01*
X123016088Y-51354798D02*
X126366091Y-51354796D01*
X101229914Y-59310119D02*
X97202007Y-58230845D01*
X266439950Y-50920292D02*
X268816123Y-50283591D01*
X187512520Y-26259469D02*
X188632248Y-25959438D01*
X80877164Y-29712607D02*
X82192015Y-31989994D01*
X252306085Y-34576823D02*
X252306090Y-32942717D01*
X43014080Y-35749958D02*
X38937872Y-34657746D01*
X62972683Y-44100150D02*
X62541490Y-43984610D01*
X80785793Y-26335198D02*
X81466311Y-27513887D01*
X155987167Y-43290756D02*
X155091147Y-42773442D01*
X173672003Y-35881096D02*
X172702501Y-35321364D01*
X242011848Y-70697791D02*
X234640693Y-72672882D01*
X178488623Y-53856984D02*
X177972282Y-53558869D01*
X182521079Y-94258357D02*
X179362498Y-95104699D01*
X230655747Y-54189884D02*
X231790649Y-52224178D01*
X242601456Y-29553654D02*
X242650438Y-29581934D01*
X122987609Y-117871088D02*
X124927776Y-119229604D01*
X126698262Y-92425080D02*
X125699570Y-92425081D01*
X92354320Y-54260895D02*
X83207008Y-51809875D01*
X66224551Y-42222680D02*
X62972683Y-44100150D01*
X46641531Y-42032901D02*
X43014080Y-35749958D01*
X66359780Y-42258919D02*
X66224551Y-42222680D01*
X222430004Y-93327446D02*
X214113308Y-95555896D01*
X5051106Y-52598516D02*
X5079432Y-52582161D01*
X73606750Y-94339883D02*
X74409642Y-93876336D01*
X62526629Y-62281074D02*
X62786086Y-61312802D01*
X56977783Y-59172121D02*
X50890796Y-62686439D01*
X185791145Y-96146329D02*
X182521079Y-94258357D01*
X60929784Y-25913219D02*
X62449901Y-25035581D01*
X164930933Y-104671443D02*
X164833065Y-104940328D01*
X257965409Y-52963234D02*
X258282476Y-52414051D01*
X192708114Y-44485792D02*
X194840868Y-43914328D01*
X57651371Y-91480477D02*
X58239246Y-91141062D01*
X114357998Y-43214328D02*
X106708136Y-41164555D01*
X164833065Y-104940328D02*
X161032551Y-106712535D01*
X166013293Y-80708777D02*
X165713588Y-79590250D01*
X168865248Y-39082681D02*
X170732008Y-35849340D01*
X60904296Y-26008352D02*
X60929784Y-25913219D01*
X153478708Y-62937732D02*
X152674330Y-62937732D01*
X159812939Y-61168133D02*
X159800686Y-61161061D01*
X183718841Y-73376406D02*
X183483829Y-72499351D01*
X83465451Y-51879132D02*
X83207008Y-51809875D01*
X215506455Y-45188698D02*
X215294743Y-44398572D01*
X65511089Y-25855825D02*
X67726671Y-24576659D01*
X236040721Y-51085364D02*
X236887751Y-51574398D01*
X126366091Y-51354796D02*
X126676086Y-51664797D01*
X167433685Y-103799914D02*
X167320499Y-103557164D01*
X219362687Y-62252474D02*
X227215672Y-60148263D01*
X62386970Y-60621511D02*
X56977783Y-59172121D01*
X-4564499Y-69668322D02*
X161875Y-70934748D01*
X187591017Y-97185478D02*
X185791145Y-96146329D01*
X182971031Y-32569922D02*
X183963610Y-30850727D01*
X214423227Y-43895396D02*
X221561410Y-41982724D01*
X258282476Y-52414051D02*
X265621266Y-50447626D01*
X253306976Y-35577708D02*
X252306085Y-34576823D01*
X208666547Y-25726227D02*
X210588891Y-26836098D01*
X-695272Y-49992457D02*
X33042Y-51253928D01*
X262805322Y-71026052D02*
X263142095Y-72282887D01*
X30091574Y-71607727D02*
X32023428Y-72125367D01*
X169597703Y-55802831D02*
X177972282Y-53558869D01*
X202178725Y-26415705D02*
X203419634Y-27132141D01*
X148920579Y-115626561D02*
X148717068Y-115335928D01*
X33042Y-51253928D02*
X5051106Y-52598516D01*
X231900302Y-32961005D02*
X231261486Y-32592183D01*
X147782258Y-61363488D02*
X147744519Y-61325756D01*
X89683240Y-34341590D02*
X89448062Y-33934249D01*
X74409642Y-93876336D02*
X80469053Y-95499950D01*
X102208232Y-61008056D02*
X101229285Y-59312470D01*
X79787638Y-71272498D02*
X79331953Y-70483219D01*
X188494438Y-47977021D02*
X191094718Y-47280281D01*
X113811106Y-112500488D02*
X113598905Y-111297047D01*
X79585126Y-72028268D02*
X79787638Y-71272498D01*
X158487523Y-81297055D02*
X163616583Y-79922723D01*
X228212222Y-34889676D02*
X229223383Y-33138290D01*
X122856522Y-45244364D02*
X122876085Y-45224794D01*
X227215672Y-60148263D02*
X230655747Y-54189884D01*
X122620366Y-115411067D02*
X122633996Y-115424700D01*
X225188873Y-35699785D02*
X228212222Y-34889676D01*
X96022458Y-35695844D02*
X97140953Y-35995541D01*
X59389373Y-43140005D02*
X56658191Y-44716852D01*
X178652704Y-73098564D02*
X182661298Y-72024462D01*
X198541086Y-23304376D02*
X201858207Y-25219516D01*
X199999916Y-62202209D02*
X210219403Y-59463905D01*
X183483829Y-72499351D02*
X182661298Y-72024462D01*
X109677069Y-81683584D02*
X120286755Y-81683586D01*
X86837194Y-72494243D02*
X79331953Y-70483219D01*
X90164380Y-98878916D02*
X94170261Y-100746894D01*
X104853561Y-40667616D02*
X104440003Y-39951308D01*
X-5523949Y-68006512D02*
X-4564499Y-69668322D01*
X159800686Y-61161061D02*
X167730939Y-59036155D01*
X188632248Y-25959438D02*
X189694768Y-25674739D01*
X146168260Y-124535084D02*
X146332684Y-124535085D01*
X151214827Y-63077227D02*
X149501086Y-61363488D01*
X216416611Y-63041869D02*
X219362687Y-62252474D01*
X66502320Y-42297108D02*
X66359780Y-42258919D01*
X178801275Y-55023814D02*
X178488623Y-53856984D01*
X21406720Y-68943441D02*
X21488199Y-68639325D01*
X106493326Y-41560002D02*
X106579371Y-41238890D01*
X236887751Y-51574398D02*
X237094280Y-52345198D01*
X106579371Y-41238890D02*
X106708136Y-41164555D01*
X220209716Y-62741496D02*
X219362687Y-62252474D01*
X73373472Y-95210481D02*
X73606750Y-94339883D01*
X72297279Y-24060704D02*
X69785874Y-23387776D01*
X263229479Y-70291388D02*
X262805322Y-71026052D01*
X231790649Y-52224178D02*
X236040721Y-51085364D01*
X167320499Y-103557164D02*
X164930933Y-104671443D01*
X146812627Y-116669434D02*
X143733245Y-118825636D01*
X159800686Y-61161061D02*
X153570468Y-62830439D01*
X120156517Y-45244361D02*
X114683335Y-43777830D01*
X265621266Y-50447626D02*
X266439950Y-50920292D01*
X113510196Y-112930236D02*
X113811106Y-112500488D01*
X78705786Y-50603784D02*
X75265620Y-44645230D01*
X159954759Y-61697448D02*
X159812939Y-61168133D01*
X194436184Y-63693018D02*
X199999916Y-62202209D01*
X215294743Y-44398572D02*
X214423227Y-43895396D01*
X148717068Y-115335928D02*
X146812627Y-116669434D01*
X189694768Y-25674739D02*
X198541086Y-23304376D01*
X32483930Y-31510084D02*
X31238544Y-32229117D01*
X80469053Y-95499950D02*
X84692447Y-97469347D01*
X62786086Y-61312802D02*
X62386970Y-60621511D01*
X201858207Y-25219516D02*
X202178725Y-26415705D01*
D68*
X124168644Y-127173175D02*
X126706882Y-125707723D01*
D69*
X109727161Y-81633493D02*
X109677069Y-81683584D01*
X229223383Y-33138290D02*
X231261486Y-32592183D01*
X94511204Y-101683621D02*
X94170261Y-100746894D01*
X176828366Y-76258399D02*
X178652704Y-73098564D01*
X21399910Y-68947382D02*
X21406720Y-68943441D01*
X152674330Y-62937732D02*
X152534828Y-63077227D01*
X189930496Y-96558624D02*
X187591017Y-97185478D01*
X143329280Y-119229601D02*
X143733245Y-118825636D01*
X163616583Y-79922723D02*
X163701440Y-79775753D01*
X39009911Y-59502970D02*
X36775452Y-55632772D01*
X163701440Y-79775753D02*
X165295218Y-79348704D01*
X104440003Y-39951308D02*
X98506977Y-38361562D01*
X120156517Y-45244361D02*
X122856522Y-45244364D01*
X114683335Y-43777830D02*
X114357998Y-43214328D01*
X252306090Y-32942717D02*
X252455049Y-32793752D01*
X169397006Y-104514495D02*
X167433685Y-103799914D01*
X210219403Y-59463905D02*
X216416611Y-63041869D01*
X155091147Y-42773442D02*
X168865248Y-39082681D01*
X21488199Y-68639325D02*
X22382268Y-68123136D01*
X29631956Y-70811647D02*
X30091574Y-71607727D01*
X147786080Y-48254796D02*
X147996083Y-48044800D01*
X31238544Y-32229117D02*
X31127245Y-32644473D01*
X209680528Y-45166195D02*
X214423227Y-43895396D01*
X50890796Y-62686439D02*
X42429287Y-60419187D01*
X195859772Y-45276620D02*
X195614413Y-44360928D01*
X27774575Y-49742467D02*
X26320985Y-50581699D01*
X106708136Y-41164555D02*
X104853561Y-40667616D01*
D68*
X123873447Y-128274877D02*
X124168644Y-127173175D01*
D69*
X182661298Y-72024462D02*
X190900647Y-69816725D01*
X38937872Y-34657746D02*
X37969128Y-32979840D01*
X97513885Y-78527594D02*
X97143055Y-77885296D01*
X153549251Y-62867184D02*
X153478708Y-62937732D01*
%TO.N,+5V*%
X37038005Y-57882874D02*
X40944437Y-64649003D01*
X61614739Y-27844778D02*
X64479685Y-26190699D01*
X165716717Y-43303151D02*
X165548484Y-42675299D01*
X267349218Y-54583077D02*
X268334814Y-52875972D01*
X10842884Y-55679383D02*
X9714021Y-55376904D01*
X15404320Y-37231376D02*
X14631583Y-37024326D01*
X84219713Y-74823018D02*
X84065054Y-75400215D01*
X59706193Y-27646985D02*
X61536339Y-28137369D01*
X116418795Y-117842239D02*
X116574084Y-118722956D01*
X55048432Y-48788967D02*
X57191072Y-47551914D01*
X171424341Y-80811806D02*
X171696624Y-81827974D01*
X67161219Y-65075819D02*
X66980672Y-65749620D01*
X171696624Y-81827974D02*
X172209051Y-82123827D01*
X16611381Y-36534480D02*
X15404320Y-37231376D01*
X230955670Y-55736240D02*
X231390338Y-55619772D01*
X161757964Y-44736421D02*
X162735808Y-45300975D01*
X177017076Y-77177156D02*
X179994609Y-76379329D01*
X183181542Y-34933650D02*
X184250799Y-33081641D01*
X67465441Y-66589260D02*
X71849130Y-67763870D01*
X226542505Y-64977035D02*
X229564089Y-64167404D01*
X195242594Y-98075855D02*
X189669202Y-99569251D01*
X201517212Y-46299215D02*
X202139882Y-46658719D01*
X238713142Y-35326731D02*
X242827990Y-34224155D01*
X110923881Y-46657985D02*
X103999123Y-44802508D01*
X189371100Y-74379684D02*
X189969273Y-74725042D01*
X156626174Y-63222947D02*
X160667828Y-65556396D01*
X111760379Y-45450206D02*
X111530620Y-46307687D01*
X124483997Y-109424700D02*
X124083998Y-109024700D01*
X184010298Y-32184076D02*
X184505271Y-31326755D01*
X195107933Y-48542921D02*
X202139882Y-46658719D01*
X152984627Y-64198690D02*
X151246291Y-64198693D01*
X57984022Y-63168036D02*
X58585543Y-64209898D01*
X86500908Y-37546385D02*
X84372516Y-33859914D01*
X188985369Y-30368266D02*
X189156841Y-30467263D01*
X214629744Y-48529856D02*
X221671348Y-46643073D01*
X161012339Y-112051433D02*
X161080964Y-111662240D01*
X40747125Y-40733023D02*
X42997729Y-41336066D01*
X155951549Y-114553409D02*
X157139905Y-114762947D01*
X441552Y-48816614D02*
X382028Y-49038776D01*
X94047266Y-78929633D02*
X95815035Y-81991496D01*
X102245496Y-41765144D02*
X94402176Y-39663531D01*
X195568990Y-97510528D02*
X195242594Y-98075855D01*
X209050177Y-30333945D02*
X216265643Y-28400572D01*
X101817461Y-82557672D02*
X102529279Y-83790565D01*
X149652553Y-48701341D02*
X150262088Y-47645594D01*
X31165218Y-55320088D02*
X30666312Y-54455948D01*
X169417285Y-107629817D02*
X168960083Y-107463404D01*
X263635575Y-54033334D02*
X263660769Y-54127368D01*
X109473226Y-85651195D02*
X109497724Y-85637053D01*
X106842822Y-63802800D02*
X106614874Y-64653514D01*
X224726384Y-44686551D02*
X224359335Y-43316699D01*
X162735808Y-45300975D02*
X164271633Y-44889457D01*
X247730581Y-71949138D02*
X247422884Y-70800823D01*
X240086017Y-73678204D02*
X240086020Y-73678200D01*
X242827990Y-34224155D02*
X243293391Y-34492860D01*
X382028Y-49038776D02*
X452739Y-49161250D01*
X189669202Y-99569251D02*
X188481200Y-98883351D01*
X202139882Y-46658719D02*
X206757002Y-45421562D01*
X4796460Y-73729503D02*
X5750523Y-73985142D01*
X166506780Y-62459219D02*
X166742820Y-63340154D01*
X205412685Y-28233839D02*
X209050177Y-30333945D01*
X47243402Y-65999768D02*
X47473610Y-66398491D01*
X188699136Y-30203011D02*
X188985369Y-30368266D01*
X65831981Y-26553046D02*
X66873013Y-25952004D01*
X124394518Y-71515750D02*
X124352259Y-71473495D01*
X78156872Y-51222807D02*
X77209349Y-49581645D01*
X189129876Y-73479430D02*
X189371100Y-74379684D01*
X151246291Y-64198693D02*
X149411094Y-62363496D01*
X164854337Y-108265208D02*
X163812194Y-108751167D01*
X164897714Y-44721699D02*
X165716717Y-43303151D01*
X196353255Y-27027064D02*
X196573767Y-27850035D01*
X149411094Y-62363496D02*
X146810022Y-62363493D01*
X109894992Y-66021492D02*
X110777641Y-65511895D01*
X213046182Y-63406623D02*
X219182154Y-66949232D01*
X188191425Y-98960999D02*
X182492460Y-100488030D01*
X17289824Y-34002485D02*
X16611381Y-36534480D01*
X195341539Y-96661651D02*
X195568990Y-97510528D01*
X260583455Y-36673947D02*
X262168767Y-36249163D01*
X199493176Y-66686145D02*
X199909588Y-66926570D01*
X11831344Y-52210139D02*
X12531379Y-53422637D01*
X135640854Y-90353486D02*
X135640848Y-88692499D01*
X229564089Y-64167404D02*
X230054926Y-63317247D01*
X225301678Y-41684508D02*
X227948318Y-40975342D01*
X112232028Y-115394806D02*
X112289923Y-115723152D01*
X45882725Y-46333022D02*
X52730209Y-48167801D01*
X39014708Y-37732394D02*
X40747125Y-40733023D01*
X234415432Y-54809199D02*
X235142574Y-55229015D01*
X135640848Y-88692499D02*
X135708255Y-88625084D01*
X216265643Y-28400572D02*
X216351626Y-28251646D01*
X157811606Y-114292611D02*
X161012339Y-112051433D01*
X98032213Y-106437032D02*
X98400732Y-107449492D01*
X124043739Y-121714957D02*
X145189412Y-121714956D01*
X192894265Y-73941287D02*
X193257823Y-73311586D01*
X73256266Y-70201109D02*
X74919280Y-70646706D01*
X175670811Y-104713750D02*
X178986632Y-103167556D01*
X175060170Y-79193745D02*
X175383794Y-78633208D01*
X175383794Y-78633208D02*
X176321483Y-78381957D01*
X193486733Y-47606914D02*
X194458825Y-48168150D01*
X98295847Y-105871674D02*
X98032213Y-106437032D01*
X98807123Y-62750470D02*
X98927199Y-62958447D01*
X82565996Y-56172638D02*
X79992128Y-51714563D01*
X93774644Y-61402021D02*
X98807123Y-62750470D01*
X262168767Y-36249163D02*
X263149657Y-34550216D01*
X36468449Y-56896371D02*
X36467964Y-56896242D01*
X112686576Y-63342730D02*
X115468447Y-64088123D01*
X153394576Y-47698667D02*
X155048058Y-47255621D01*
X120847109Y-121714958D02*
X124043739Y-121714957D01*
X102992956Y-109372257D02*
X102729628Y-109468098D01*
X58207127Y-28512471D02*
X59706193Y-27646985D01*
X120336848Y-71473491D02*
X113854789Y-71473493D01*
X202563202Y-28997358D02*
X205412685Y-28233839D01*
X206188377Y-63732235D02*
X206450302Y-64709762D01*
X184250799Y-33081641D02*
X184010298Y-32184076D01*
X12125037Y-54939143D02*
X10842884Y-55679383D01*
X258718011Y-35680733D02*
X258817153Y-35654167D01*
X179419508Y-37239834D02*
X180581060Y-37910462D01*
X148256976Y-130525089D02*
X149574831Y-129207231D01*
X237587764Y-34095637D02*
X237772042Y-34783376D01*
X178986632Y-103167556D02*
X179444612Y-101909269D01*
X230709542Y-59046442D02*
X230181751Y-57076701D01*
X272668956Y-71126622D02*
X273695754Y-70851493D01*
X103999123Y-44802508D02*
X102245496Y-41765144D01*
X187955491Y-55625442D02*
X188488754Y-54701801D01*
X157811606Y-114292611D02*
X157139905Y-114762947D01*
X235142574Y-55229015D02*
X236048882Y-55752276D01*
X452739Y-49161250D02*
X11831344Y-52210139D01*
X51846980Y-64387919D02*
X55235482Y-62431566D01*
X201270813Y-45379643D02*
X201517212Y-46299215D01*
X71849130Y-67763870D02*
X73256266Y-70201109D01*
X144566086Y-54204798D02*
X141916086Y-54204800D01*
X199909588Y-66926570D02*
X206999482Y-65026840D01*
X124352259Y-71473495D02*
X120336848Y-71473491D01*
X76764035Y-29237622D02*
X77107381Y-29832313D01*
X150262088Y-47645594D02*
X152338829Y-47089131D01*
X36732780Y-37120955D02*
X28775896Y-34988910D01*
X158110269Y-83095992D02*
X160843832Y-82363534D01*
X175136862Y-104519406D02*
X175670811Y-104713750D01*
X183052069Y-37248356D02*
X183564120Y-36361457D01*
X188481200Y-98883351D02*
X188191425Y-98960999D01*
X174743739Y-103676345D02*
X175136862Y-104519406D01*
X165715330Y-107863720D02*
X164854337Y-108265208D01*
X73345649Y-48546372D02*
X63425590Y-45888303D01*
X27922875Y-33511427D02*
X25943550Y-32981072D01*
X263660769Y-54127368D02*
X265369072Y-55113656D01*
X172806104Y-39993758D02*
X180581060Y-37910462D01*
X174815291Y-81425492D02*
X175390986Y-80428360D01*
X164162891Y-84279789D02*
X172209051Y-82123827D01*
X125620365Y-110561068D02*
X124483997Y-109424700D01*
X59558332Y-44054904D02*
X59976131Y-44166858D01*
X7163761Y-71787661D02*
X7125591Y-71721551D01*
X47473610Y-66398491D02*
X48082140Y-66561546D01*
X106740934Y-110754402D02*
X108704219Y-112129106D01*
X197318908Y-28280243D02*
X200052477Y-27547786D01*
X55235482Y-62431566D02*
X57984022Y-63168036D01*
X79120430Y-99931915D02*
X78008061Y-98005235D01*
X105833382Y-110914428D02*
X106740934Y-110754402D01*
X90246663Y-103647192D02*
X89902027Y-102700310D01*
X166742820Y-63340154D02*
X167438972Y-63742070D01*
X173077078Y-56578745D02*
X176665584Y-58650562D01*
X152338829Y-47089131D02*
X153394576Y-47698667D01*
X229836291Y-37705280D02*
X238713142Y-35326731D01*
X224359335Y-43316699D02*
X225301678Y-41684508D01*
X247460748Y-72416493D02*
X240931091Y-74166105D01*
X206757002Y-45421562D02*
X211068108Y-47910578D01*
X92254231Y-58768590D02*
X93774644Y-61402021D01*
X98400732Y-107449492D02*
X90246663Y-103647192D01*
X155676944Y-114161234D02*
X155951549Y-114553409D01*
X63425590Y-45888303D02*
X62881118Y-44945245D01*
X167974568Y-40725469D02*
X172140191Y-39609293D01*
X73092150Y-48478443D02*
X73345649Y-48546372D01*
X219182154Y-66949232D02*
X226542505Y-64977035D01*
X84648810Y-76411325D02*
X94047266Y-78929633D01*
X52730209Y-48167801D02*
X55048432Y-48788967D01*
X95815035Y-81991496D02*
X102529279Y-83790565D01*
X66980672Y-65749620D02*
X67465441Y-66589260D01*
X28775896Y-34988910D02*
X27922875Y-33511427D01*
X101925259Y-82155388D02*
X101817461Y-82557672D01*
X194458825Y-48168150D02*
X195107933Y-48542921D01*
X57349662Y-28282715D02*
X58207127Y-28512471D01*
X70356352Y-28023383D02*
X76759644Y-29739138D01*
X84065054Y-75400215D02*
X84648810Y-76411325D01*
X89137276Y-56470425D02*
X90136514Y-58201143D01*
X152984627Y-64198690D02*
X156626174Y-63222947D01*
X40944437Y-64649003D02*
X47473610Y-66398491D01*
X108864245Y-113036661D02*
X112232028Y-115394806D01*
X167438972Y-63742070D02*
X167863977Y-63628191D01*
X172140191Y-39609293D02*
X172806104Y-39993758D01*
X167438972Y-63742070D02*
X160667828Y-65556396D01*
X51249361Y-66618272D02*
X51846980Y-64387919D01*
X190693715Y-74530923D02*
X192894265Y-73941287D01*
X48082140Y-66561546D02*
X50312497Y-67159171D01*
X227948318Y-40975342D02*
X229836291Y-37705280D01*
X258817153Y-35654167D02*
X260583455Y-36673947D01*
X167590104Y-41391381D02*
X167974568Y-40725469D01*
X66873013Y-25952004D02*
X69579071Y-26677092D01*
X84372516Y-33859914D02*
X82276457Y-33298271D01*
X82276457Y-33298271D02*
X80855178Y-30836535D01*
X36361897Y-56712528D02*
X31165218Y-55320088D01*
X179294755Y-36774249D02*
X179419508Y-37239834D01*
X171009998Y-57132611D02*
X173077078Y-56578745D01*
X111530620Y-46307687D02*
X110923881Y-46657985D01*
X200052477Y-27547786D02*
X202563202Y-28997358D01*
X36758355Y-57398515D02*
X37038005Y-57882874D01*
X113854789Y-71473493D02*
X113736092Y-71354795D01*
X175390986Y-80428360D02*
X175060170Y-79193745D01*
X163324400Y-110091370D02*
X161080964Y-111662240D01*
X52246129Y-47329346D02*
X52730209Y-48167801D01*
X184505271Y-31326755D02*
X188699136Y-30203011D01*
X30666312Y-54455948D02*
X30844267Y-53791813D01*
X183564120Y-36361457D02*
X183181542Y-34933650D01*
X157139905Y-114762947D02*
X150178993Y-119637029D01*
X271619731Y-70520855D02*
X272668956Y-71126622D01*
X223949164Y-46032732D02*
X224726384Y-44686551D01*
X93494208Y-39420236D02*
X86500908Y-37546385D01*
X77075953Y-74382183D02*
X84648810Y-76411325D01*
X145891866Y-49709016D02*
X149652553Y-48701341D01*
X133395364Y-88326855D02*
X133295366Y-88426854D01*
X79992128Y-51714563D02*
X78156872Y-51222807D01*
X69579071Y-26677092D02*
X70356352Y-28023383D01*
X94402176Y-39663531D02*
X93494208Y-39420236D01*
X148540939Y-119348183D02*
X145256133Y-121648234D01*
X85832338Y-100802583D02*
X84364144Y-101336962D01*
X176665584Y-58650562D02*
X185223686Y-56357425D01*
X25926706Y-72144401D02*
X25777222Y-72702294D01*
X26375117Y-73737884D02*
X32112717Y-75275275D01*
X216351626Y-28251646D02*
X215999936Y-26939130D01*
X184212319Y-55126842D02*
X184417302Y-55891863D01*
X98400732Y-107449492D02*
X102729628Y-109468098D01*
X242616617Y-52863592D02*
X242505329Y-52448230D01*
X5750523Y-73985142D02*
X6725825Y-73422053D01*
X93882061Y-38762648D02*
X94402176Y-39663531D01*
X181199409Y-77074919D02*
X189969273Y-74725042D01*
X52432093Y-46635300D02*
X52246129Y-47329346D01*
X269554803Y-72117522D02*
X270267438Y-70883200D01*
X104902804Y-110262831D02*
X105833382Y-110914428D01*
X225835055Y-63644308D02*
X226128045Y-64737746D01*
X36467964Y-56896242D02*
X36361897Y-56712528D01*
X116574084Y-118722956D02*
X120847109Y-121714958D01*
X50312497Y-67159171D02*
X51249361Y-66618272D01*
X161589219Y-44106624D02*
X161757964Y-44736421D01*
X221207896Y-46375499D02*
X221671348Y-46643073D01*
X64479685Y-26190699D02*
X65831981Y-26553046D01*
X175670811Y-104713750D02*
X169417285Y-107629817D01*
X229480822Y-61174653D02*
X230709542Y-59046442D01*
X144030759Y-130525092D02*
X148256976Y-130525089D01*
X7125591Y-71721551D02*
X6351651Y-70381055D01*
X98927199Y-62958447D02*
X99012056Y-63105406D01*
X164271633Y-44889457D02*
X164897714Y-44721699D01*
X236048882Y-55752276D02*
X241845588Y-54199057D01*
X108704219Y-112129106D02*
X108864245Y-113036661D01*
X168960083Y-107463404D02*
X167055532Y-108351510D01*
X230181751Y-57076701D02*
X230955670Y-55736240D01*
X187580971Y-51313910D02*
X189032067Y-48800538D01*
X247460748Y-72416493D02*
X247730581Y-71949138D01*
X212768136Y-47455062D02*
X214629744Y-48529856D01*
X166051773Y-41803575D02*
X167590104Y-41391381D01*
X61536339Y-28137369D02*
X61614739Y-27844778D01*
X-4035201Y-67597898D02*
X-4417040Y-66936541D01*
X169794070Y-63111022D02*
X170352082Y-62144519D01*
X57866341Y-45031778D02*
X59558332Y-44054904D01*
X57191072Y-47551914D02*
X57866341Y-45031778D01*
X125620364Y-110926856D02*
X125620366Y-110511068D01*
X36758355Y-57398515D02*
X36468449Y-56896371D01*
X116909421Y-117141552D02*
X116418795Y-117842239D01*
X80855178Y-30836535D02*
X77107381Y-29832313D01*
X90274086Y-58238006D02*
X92254231Y-58768590D01*
X206999482Y-65026840D02*
X213046182Y-63406623D01*
X170303501Y-59402826D02*
X170111970Y-58688037D01*
X76759644Y-29739138D02*
X77107381Y-29832313D01*
X173580670Y-81756306D02*
X174815291Y-81425492D01*
X150178993Y-119637029D02*
X148540939Y-119348183D01*
X189969273Y-74725042D02*
X190693715Y-74530923D01*
X170352082Y-62144519D02*
X169834918Y-60214434D01*
X167055532Y-108351510D02*
X165715330Y-107863720D01*
X133395365Y-82526855D02*
X133395364Y-88326855D01*
X179994609Y-76379329D02*
X181199409Y-77074919D01*
X268553134Y-72385918D02*
X269554803Y-72117522D01*
X193257823Y-73311586D02*
X192668187Y-71111040D01*
X72078783Y-46723229D02*
X73092150Y-48478443D01*
X125620364Y-110926856D02*
X130295367Y-110926854D01*
X189156841Y-30467263D02*
X197318908Y-28280243D01*
X240931091Y-74166105D02*
X240086020Y-73678200D01*
X237772042Y-34783376D02*
X238713142Y-35326731D01*
X167863977Y-63628191D02*
X169794070Y-63111022D01*
X182492460Y-100488030D02*
X179444612Y-101909269D01*
X106614874Y-64653514D02*
X106948918Y-65232093D01*
X220917503Y-45291715D02*
X221207896Y-46375499D01*
X270267438Y-70883200D02*
X271619731Y-70520855D01*
X155172605Y-47327533D02*
X162735808Y-45300975D01*
X211068108Y-47910578D02*
X212768136Y-47455062D01*
X42997729Y-41336066D02*
X45882725Y-46333022D01*
X145896091Y-52874797D02*
X144566086Y-54204798D01*
X268334814Y-52875972D02*
X268304808Y-52763984D01*
X89902027Y-102700310D02*
X85832338Y-100802583D01*
X58585543Y-64209898D02*
X67465441Y-66589260D01*
X90136514Y-58201143D02*
X90274086Y-58238006D01*
X74919280Y-70646706D02*
X77075953Y-74382183D01*
X112289923Y-115723152D02*
X116574084Y-118722956D01*
X226128045Y-64737746D02*
X226542505Y-64977035D01*
X77209349Y-49581645D02*
X73345649Y-48546372D01*
X169834918Y-60214434D02*
X170303501Y-59402826D01*
X145189412Y-121714956D02*
X145256133Y-121648234D01*
X165548484Y-42675299D02*
X166051773Y-41803575D01*
X6351651Y-70381055D02*
X-4035201Y-67597898D01*
X180581060Y-37910462D02*
X183052069Y-37248356D01*
X76996348Y-28370648D02*
X76764035Y-29237622D01*
X221671348Y-46643073D02*
X223949164Y-46032732D01*
X189032067Y-48800538D02*
X193486733Y-47606914D01*
X102529279Y-83790565D02*
X109473226Y-85651195D01*
X236077424Y-74752305D02*
X240086017Y-73678204D01*
X230054926Y-63317247D02*
X229480822Y-61174653D01*
X25777222Y-72702294D02*
X26375117Y-73737884D01*
X172209051Y-82123827D02*
X173580670Y-81756306D01*
X94054836Y-38117836D02*
X93882061Y-38762648D01*
X36732780Y-37120955D02*
X35761832Y-35439220D01*
X124083998Y-109024700D02*
X123483997Y-109024699D01*
X192668187Y-71111040D02*
X194441383Y-68039778D01*
X196573767Y-27850035D02*
X197318908Y-28280243D01*
X102992956Y-109372257D02*
X104902804Y-110262831D01*
X160843832Y-82363534D02*
X164162891Y-84279789D01*
X163812194Y-108751167D02*
X163324400Y-110091370D01*
X241845588Y-54199057D02*
X242616617Y-52863592D01*
X47514533Y-64987885D02*
X47243402Y-65999768D01*
X84364144Y-101336962D02*
X79120430Y-99931915D01*
X231390338Y-55619772D02*
X234415432Y-54809199D01*
X194441383Y-68039778D02*
X199493176Y-66686145D01*
X106948918Y-65232093D02*
X109894992Y-66021492D01*
X185223686Y-56357425D02*
X187955491Y-55625442D01*
X111115880Y-64249573D02*
X112686576Y-63342730D01*
X170111970Y-58688037D02*
X171009998Y-57132611D01*
X184417302Y-55891863D02*
X185223686Y-56357425D01*
X155048058Y-47255621D02*
X155172605Y-47327533D01*
X110777641Y-65511895D02*
X111115880Y-64249573D01*
X62881118Y-44945245D02*
X59976131Y-44166858D01*
X90274086Y-58238006D02*
X82565996Y-56172638D01*
X265369072Y-55113656D02*
X267349218Y-54583077D01*
X36732780Y-37120955D02*
X39014708Y-37732394D01*
X6725825Y-73422053D02*
X7163761Y-71787661D01*
X206450302Y-64709762D02*
X206999482Y-65026840D01*
X125620364Y-110926856D02*
X125620365Y-110561068D01*
X188488754Y-54701801D02*
X187580971Y-51313910D01*
X12531379Y-53422637D02*
X12125037Y-54939143D01*
X176321483Y-78381957D02*
X177017076Y-77177156D01*
X99012056Y-63105406D02*
X106948918Y-65232093D01*
D68*
%TO.N,Net-(D1-Pad2)*%
X23166131Y-40429242D02*
X23171374Y-40448804D01*
X24546734Y-41942005D02*
X24718568Y-42239631D01*
X23166132Y-40429241D02*
X22911645Y-41379007D01*
X23196743Y-40411567D02*
X23166132Y-40429241D01*
X23863202Y-37924311D02*
X23196743Y-40411567D01*
X22911645Y-41379007D02*
X22996936Y-41526738D01*
X22996936Y-41526738D02*
X24546734Y-41942005D01*
%TO.N,row0*%
X10348482Y-37691635D02*
X13178642Y-38449979D01*
X101237190Y-42802102D02*
X100710332Y-41889556D01*
X39553207Y-33984049D02*
X43107814Y-34936502D01*
X80342113Y-31234820D02*
X82040926Y-34177269D01*
X82040926Y-34177269D02*
X83702324Y-34622427D01*
X124796087Y-60534797D02*
X146077273Y-60534798D01*
X126676085Y-49124796D02*
X118426090Y-49124798D01*
X100715857Y-44747741D02*
X101237190Y-42802102D01*
X83056680Y-37495659D02*
X83010318Y-37415360D01*
X25830472Y-35035029D02*
X26087242Y-35479764D01*
X31212690Y-30633688D02*
X38791290Y-32664368D01*
X107889607Y-51920758D02*
X110520646Y-50401729D01*
X167413090Y-42486262D02*
X169193314Y-42009251D01*
X13178642Y-38449979D02*
X13963533Y-39809445D01*
X110727702Y-49628986D02*
X113734460Y-47893036D01*
X153120999Y-61346202D02*
X152112034Y-60337234D01*
X104750347Y-51079596D02*
X107889607Y-51920758D01*
X47997623Y-21826181D02*
X48426370Y-21578644D01*
X120764366Y-56883071D02*
X117715885Y-56883065D01*
X113734460Y-47893036D02*
X118406087Y-49144794D01*
X85572500Y-37833387D02*
X100710332Y-41889556D01*
X101349098Y-47766964D02*
X101219688Y-48249926D01*
X30016295Y-31324425D02*
X31212690Y-30633688D01*
X100715857Y-44747741D02*
X100364031Y-46060778D01*
X151381695Y-49525345D02*
X151673145Y-49020534D01*
X65951822Y-27668171D02*
X65486912Y-27543601D01*
X170658128Y-54343025D02*
X170727156Y-54600638D01*
X100364031Y-46060778D02*
X101349098Y-47766964D01*
X152112034Y-60337234D02*
X146274834Y-60337238D01*
X24717306Y-34736756D02*
X25830472Y-35035029D01*
X149987852Y-49898822D02*
X151381695Y-49525345D01*
X150095416Y-49960921D02*
X149987852Y-49898822D01*
X101219688Y-48249926D02*
X101599086Y-48907062D01*
X110520646Y-50401729D02*
X110727702Y-49628986D01*
X9866794Y-37969742D02*
X10348482Y-37691635D01*
X102264684Y-49085407D02*
X103843203Y-49508373D01*
X19464589Y-41997786D02*
X21773151Y-42616367D01*
X118426090Y-49124798D02*
X118406087Y-49144794D01*
X28004461Y-30785357D02*
X30016295Y-31324425D01*
X65486912Y-27543601D02*
X62678420Y-29165084D01*
X46431261Y-26126471D02*
X46125222Y-27268618D01*
X18976692Y-41152719D02*
X19464589Y-41997786D01*
X3527059Y-36271014D02*
X9866794Y-37969742D01*
X22217482Y-42735431D02*
X21773151Y-42616367D01*
X38791290Y-32664368D02*
X39553207Y-33984049D01*
X101599086Y-48907062D02*
X102264684Y-49085407D01*
X67258629Y-27729109D02*
X80342113Y-31234820D01*
X66916477Y-27926651D02*
X67258629Y-27729109D01*
X121144366Y-56883072D02*
X124796087Y-60534797D01*
X166972375Y-57634732D02*
X168931063Y-54242193D01*
X65951822Y-27668171D02*
X66916477Y-27926651D01*
X48426370Y-21578644D02*
X60452146Y-24800941D01*
X13963533Y-39809445D02*
X18976692Y-41152719D01*
X146077273Y-60534798D02*
X146274834Y-60337238D01*
X116289905Y-56500977D02*
X117715885Y-56883065D01*
X169966847Y-53964651D02*
X169991379Y-53958079D01*
X82537081Y-39434827D02*
X83056680Y-37495659D01*
X169193314Y-42009251D02*
X169378697Y-41688159D01*
X168931063Y-54242193D02*
X169966847Y-53964651D01*
X169991379Y-53958079D02*
X170658128Y-54343025D01*
X83714574Y-34615360D02*
X85572500Y-37833387D01*
X47995252Y-21835032D02*
X47997623Y-21826181D01*
X83702324Y-34622427D02*
X83714574Y-34615360D01*
X120764366Y-56883071D02*
X121144366Y-56883072D01*
X153120999Y-61346202D02*
X166972375Y-57634732D01*
X103843203Y-49508373D02*
X104750347Y-51079596D01*
X46125222Y-27268618D02*
X46305137Y-27580239D01*
%TO.N,Net-(D2-Pad2)*%
X44726187Y-34615176D02*
X46275975Y-35030439D01*
X44753958Y-33272739D02*
X44499470Y-34222494D01*
X46275975Y-35030439D02*
X46306392Y-35083128D01*
X44784573Y-33255064D02*
X44753958Y-33272739D01*
X45451035Y-30767797D02*
X44784573Y-33255064D01*
X44499470Y-34222494D02*
X44726187Y-34615176D01*
%TO.N,Net-(D3-Pad2)*%
X64431262Y-33342982D02*
X64400642Y-33360661D01*
X64517759Y-34741931D02*
X65922664Y-35118374D01*
X64400642Y-33360661D02*
X64184976Y-34165531D01*
X65097719Y-30855726D02*
X64431262Y-33342982D01*
X64184976Y-34165531D02*
X64517759Y-34741931D01*
X65922664Y-35118374D02*
X65953076Y-35171050D01*
%TO.N,Net-(D4-Pad2)*%
X81217592Y-44009317D02*
X81479665Y-44463240D01*
X82981155Y-44865563D02*
X83011571Y-44918246D01*
X81489756Y-43090181D02*
X81459137Y-43107857D01*
X82156216Y-40602914D02*
X81489756Y-43090181D01*
X81459137Y-43107857D02*
X81217592Y-44009317D01*
X81479665Y-44463240D02*
X82981155Y-44865563D01*
%TO.N,Net-(D5-Pad2)*%
X100650332Y-52134945D02*
X100717116Y-52250617D01*
X99147777Y-51732336D02*
X100650332Y-52134945D01*
X99164681Y-50440228D02*
X98922850Y-51342755D01*
X98922850Y-51342755D02*
X99147777Y-51732336D01*
X99861754Y-47935295D02*
X99195298Y-50422552D01*
X99195298Y-50422552D02*
X99164681Y-50440228D01*
%TO.N,Net-(D6-Pad2)*%
X155192722Y-55383099D02*
X155425672Y-55517594D01*
X153193707Y-54695349D02*
X153176030Y-54725967D01*
X153341369Y-55343015D02*
X153975646Y-55709215D01*
X152527248Y-52208089D02*
X153193707Y-54695349D01*
X153176030Y-54725967D02*
X153341369Y-55343015D01*
X153975646Y-55709215D02*
X155192722Y-55383099D01*
%TO.N,Net-(D7-Pad2)*%
X170232798Y-44875713D02*
X170899255Y-47362967D01*
X172775793Y-47980012D02*
X173131215Y-48185218D01*
X170899255Y-47362967D02*
X170881576Y-47393590D01*
X170881576Y-47393590D02*
X171098677Y-48203827D01*
X171098677Y-48203827D02*
X171365528Y-48357892D01*
X171365528Y-48357892D02*
X172775793Y-47980012D01*
%TO.N,Net-(D8-Pad2)*%
X189834285Y-38232821D02*
X190189706Y-38438024D01*
X187940062Y-37646399D02*
X188195987Y-38601519D01*
X187291286Y-35128525D02*
X187957742Y-37615777D01*
X188195987Y-38601519D02*
X188279135Y-38649524D01*
X188279135Y-38649524D02*
X189834285Y-38232821D01*
X187957742Y-37615777D02*
X187940062Y-37646399D01*
%TO.N,Net-(D9-Pad2)*%
X206937970Y-35040590D02*
X207604430Y-37527849D01*
X209603448Y-38215600D02*
X209836394Y-38350090D01*
X207586752Y-37558465D02*
X207816795Y-38416995D01*
X208144887Y-38606420D02*
X209603448Y-38215600D01*
X207604430Y-37527849D02*
X207586752Y-37558465D01*
X207816795Y-38416995D02*
X208144887Y-38606420D01*
%TO.N,Net-(D10-Pad2)*%
X234405506Y-47932938D02*
X234264041Y-47970846D01*
X234264041Y-47970846D02*
X232787643Y-47118445D01*
X230646253Y-46854074D02*
X231424217Y-45506601D01*
X232787643Y-47118445D02*
X230855791Y-47636084D01*
X230855791Y-47636084D02*
X230131347Y-47830198D01*
X228869030Y-45244199D02*
X229174576Y-44714976D01*
X229457737Y-47441289D02*
X228869030Y-45244199D01*
X230855791Y-47636084D02*
X230646253Y-46854074D01*
X230131347Y-47830198D02*
X229457737Y-47441289D01*
%TO.N,Net-(D11-Pad2)*%
X17466673Y-59731579D02*
X17478739Y-59686547D01*
X18279188Y-58764152D02*
X18248571Y-58781831D01*
X18294975Y-60040626D02*
X19699878Y-60417068D01*
X18248571Y-58781831D02*
X18032904Y-59586706D01*
X18945649Y-56276896D02*
X18279188Y-58764152D01*
X19699878Y-60417068D02*
X19801004Y-60592219D01*
X18032904Y-59586706D02*
X18294975Y-60040626D01*
%TO.N,row1*%
X178924155Y-69419222D02*
X175108748Y-70441559D01*
X147857130Y-63359527D02*
X146920825Y-63359528D01*
X141916090Y-56744792D02*
X133806717Y-56744794D01*
X149581792Y-65084190D02*
X147857130Y-63359527D01*
X142789140Y-63161499D02*
X142725379Y-63097736D01*
X116994618Y-63047502D02*
X116541596Y-62594483D01*
X39109110Y-46514285D02*
X39977453Y-46746956D01*
X155924792Y-65241807D02*
X155651794Y-65084192D01*
X66151440Y-41667325D02*
X75606610Y-44200828D01*
X15216955Y-59774134D02*
X16327767Y-60071777D01*
X177395574Y-72634031D02*
X175903541Y-75218318D01*
X95798296Y-63100334D02*
X97139677Y-63459755D01*
X97299902Y-57170031D02*
X97483397Y-57487853D01*
X75606610Y-44200828D02*
X78804603Y-49739924D01*
X8022185Y-56728193D02*
X8785867Y-58050925D01*
X79140593Y-55162980D02*
X78092753Y-55767952D01*
X59841057Y-47868007D02*
X60078837Y-46980629D01*
X159830646Y-79525032D02*
X159382398Y-79266236D01*
X94266894Y-56357345D02*
X97299902Y-57170031D01*
X97139677Y-63459755D02*
X97197077Y-63426614D01*
X133806717Y-56744794D02*
X133803714Y-56741791D01*
X63254184Y-43243828D02*
X63368020Y-43274334D01*
X39977453Y-46746956D02*
X41387570Y-45932825D01*
X37557357Y-51121421D02*
X37823548Y-50967742D01*
X60208250Y-46497655D02*
X61034260Y-46020759D01*
X16327767Y-60071777D02*
X17056471Y-61333924D01*
X98845833Y-57852913D02*
X116541596Y-62594483D01*
X21237691Y-46789023D02*
X21285536Y-46761401D01*
X8785867Y-58050925D02*
X15216955Y-59774134D01*
X175903541Y-75218318D02*
X159830646Y-79525032D01*
X133657579Y-63097743D02*
X117044851Y-63097738D01*
X63368020Y-43274334D02*
X66151440Y-41667325D01*
X156478519Y-67308347D02*
X156590711Y-67373120D01*
X21757093Y-46887754D02*
X37269859Y-51044387D01*
X78804603Y-49739924D02*
X79720434Y-49985318D01*
X146920825Y-63359528D02*
X146722793Y-63161497D01*
X37269859Y-51044387D02*
X37557357Y-51121421D01*
X156220223Y-66344371D02*
X155924792Y-65241807D01*
X146722793Y-63161497D02*
X142789140Y-63161499D01*
X5269297Y-55990564D02*
X8022185Y-56728193D01*
X92576908Y-53430205D02*
X94266894Y-56357345D01*
X19676402Y-52875693D02*
X19799752Y-53089341D01*
X142725379Y-63097736D02*
X133657579Y-63097743D01*
X59380824Y-42205968D02*
X61785979Y-42850431D01*
X5094121Y-56091702D02*
X5269297Y-55990564D01*
X19902199Y-52033001D02*
X19676402Y-52875693D01*
X79215990Y-54881599D02*
X79140593Y-55162980D01*
X155651794Y-65084192D02*
X149581792Y-65084190D01*
X179475291Y-69737420D02*
X178924155Y-69419222D01*
X60078837Y-46980629D02*
X60208250Y-46497655D01*
X56367950Y-43945448D02*
X59380824Y-42205968D01*
X46862972Y-40549667D02*
X47442798Y-41553954D01*
X117044851Y-63097738D02*
X116994618Y-63047502D01*
X175108748Y-70441559D02*
X175098508Y-70459293D01*
X47442798Y-41553954D02*
X56367950Y-43945448D01*
X61785979Y-42850431D02*
X63254184Y-43243828D01*
X21285536Y-46761401D02*
X21757093Y-46887754D01*
X79720434Y-49985318D02*
X92576908Y-53430205D01*
X97483397Y-57487853D02*
X98845833Y-57852913D01*
X156220223Y-66344371D02*
X156478519Y-67308347D01*
X-1252941Y-54391012D02*
X5094121Y-56091702D01*
%TO.N,Net-(D12-Pad2)*%
X39953514Y-53006589D02*
X41358413Y-53383030D01*
X39620731Y-52430191D02*
X39953514Y-53006589D01*
X39867007Y-51607648D02*
X39836394Y-51625323D01*
X41358413Y-53383030D02*
X41388828Y-53435712D01*
X39836394Y-51625323D02*
X39620731Y-52430191D01*
X40533469Y-49120382D02*
X39867007Y-51607648D01*
%TO.N,Net-(D13-Pad2)*%
X60180156Y-49208314D02*
X59513698Y-51695570D01*
X59503605Y-53068639D02*
X61005100Y-53470964D01*
X59483079Y-51713249D02*
X59241533Y-52614714D01*
X59513698Y-51695570D02*
X59483079Y-51713249D01*
X59241533Y-52614714D02*
X59503605Y-53068639D01*
X61005100Y-53470964D02*
X61035515Y-53523639D01*
%TO.N,Net-(D14-Pad2)*%
X76572188Y-61442775D02*
X76541577Y-61460447D01*
X76541577Y-61460447D02*
X76274149Y-62458505D01*
X77992885Y-63095679D02*
X78094012Y-63270837D01*
X76274149Y-62458505D02*
X76394800Y-62667474D01*
X77238649Y-58955507D02*
X76572188Y-61442775D01*
X76394800Y-62667474D02*
X77992885Y-63095679D01*
%TO.N,Net-(D15-Pad2)*%
X94277735Y-68775146D02*
X94247121Y-68792824D01*
X95698428Y-70428056D02*
X95799554Y-70603211D01*
X94247121Y-68792824D02*
X94031456Y-69597696D01*
X94031456Y-69597696D02*
X94293527Y-70051616D01*
X94944192Y-66287887D02*
X94277735Y-68775146D01*
X94293527Y-70051616D02*
X95698428Y-70428056D01*
%TO.N,Net-(D16-Pad2)*%
X158111271Y-73047932D02*
X158093590Y-73078555D01*
X157444813Y-70560674D02*
X158111271Y-73047932D01*
X158362456Y-74081978D02*
X158629311Y-74236044D01*
X158093590Y-73078555D02*
X158362456Y-74081978D01*
X158629311Y-74236044D02*
X160232762Y-73806400D01*
X160232762Y-73806400D02*
X160343233Y-73870179D01*
%TO.N,Net-(D17-Pad2)*%
X177393836Y-66695801D02*
X178028070Y-66525860D01*
X176585630Y-68681445D02*
X176478425Y-68281344D01*
X178028070Y-66525860D02*
X178048770Y-66537811D01*
X176478425Y-68281344D02*
X175799128Y-65746185D01*
X181009442Y-67928724D02*
X177097440Y-68976941D01*
X182662846Y-68883318D02*
X181009442Y-67928724D01*
X176478425Y-68281344D02*
X177393836Y-66695801D01*
X177097440Y-68976941D02*
X176585630Y-68681445D01*
%TO.N,Net-(D18-Pad2)*%
X194874321Y-56656123D02*
X195107267Y-56790617D01*
X192857627Y-55998990D02*
X193087668Y-56857515D01*
X192560499Y-55827444D02*
X192857627Y-55998990D01*
X193415764Y-57046943D02*
X194874321Y-56656123D01*
X191891543Y-53330872D02*
X192560499Y-55827444D01*
X193087668Y-56857515D02*
X193415764Y-57046943D01*
%TO.N,Net-(D19-Pad2)*%
X213062450Y-56959012D02*
X214521009Y-56568191D01*
X214521009Y-56568191D02*
X214753954Y-56702682D01*
X212734355Y-56769585D02*
X213062450Y-56959012D01*
X211844325Y-53351356D02*
X212521990Y-55880438D01*
X212504312Y-55911056D02*
X212734355Y-56769585D01*
X212521990Y-55880438D02*
X212504312Y-55911056D01*
%TO.N,Net-(D20-Pad2)*%
X234092137Y-63067564D02*
X234322178Y-63926094D01*
X234589040Y-64080167D02*
X236047601Y-63689347D01*
X234109815Y-63036942D02*
X234092137Y-63067564D01*
X233443360Y-60549690D02*
X234109815Y-63036942D01*
X234322178Y-63926094D02*
X234589040Y-64080167D01*
X236047601Y-63689347D02*
X236341778Y-63859191D01*
%TO.N,Net-(D21-Pad2)*%
X14853023Y-78892132D02*
X14883437Y-78944810D01*
X14028080Y-74629484D02*
X13361622Y-77116746D01*
X13331004Y-77134420D02*
X13024752Y-78277368D01*
X13361622Y-77116746D02*
X13331004Y-77134420D01*
X13110048Y-78425102D02*
X14853023Y-78892132D01*
X13024752Y-78277368D02*
X13110048Y-78425102D01*
%TO.N,row2*%
X131478090Y-88376855D02*
X131611728Y-88243220D01*
X145665512Y-59370691D02*
X142001987Y-59370687D01*
X51237149Y-61888911D02*
X57348625Y-58360442D01*
X116914827Y-88497231D02*
X123774987Y-88497232D01*
X87050967Y-71733145D02*
X88833232Y-74820109D01*
X37044717Y-62368345D02*
X37234429Y-61660329D01*
X75595572Y-68663670D02*
X87050967Y-71733145D01*
X123895366Y-88376856D02*
X131478090Y-88376855D01*
X175701977Y-73804830D02*
X175217046Y-74644753D01*
X57348625Y-58360442D02*
X57707819Y-58456694D01*
X15159747Y-70406044D02*
X14882182Y-71441930D01*
X15159753Y-70406041D02*
X14838416Y-69849471D01*
X132106835Y-84427197D02*
X131760847Y-84081212D01*
X152494291Y-81557771D02*
X154466977Y-79585084D01*
X36773143Y-63381865D02*
X37044717Y-62368345D01*
X15159753Y-70406041D02*
X15159747Y-70406044D01*
X-6189839Y-72745641D02*
X-6202351Y-72723963D01*
X179213811Y-78393337D02*
X177290329Y-78908733D01*
X28206853Y-68327616D02*
X36773143Y-63381865D01*
X154466977Y-79585084D02*
X159959574Y-78113342D01*
X38715159Y-57411439D02*
X39481641Y-58739036D01*
X92378181Y-75769972D02*
X110784832Y-80737235D01*
X-6072936Y-72241005D02*
X-1802149Y-73385359D01*
X57707819Y-58456694D02*
X70052350Y-61764392D01*
X159959574Y-78113342D02*
X160405504Y-78370801D01*
X88833232Y-74820109D02*
X92378181Y-75769972D01*
X10232977Y-77146127D02*
X-1436078Y-74019411D01*
X142001987Y-59370687D02*
X141916089Y-59284794D01*
X37234429Y-61660329D02*
X37019906Y-61288767D01*
X123774987Y-88497232D02*
X123895366Y-88376856D01*
X175217046Y-74644753D02*
X160692613Y-78536568D01*
X73315114Y-73598341D02*
X74448688Y-72943874D01*
X37019906Y-61288767D02*
X37017316Y-61298424D01*
X110784832Y-80737235D02*
X116884838Y-80777229D01*
X146424290Y-81557768D02*
X152494291Y-81557771D01*
X161248843Y-84377329D02*
X161577848Y-85605194D01*
X132106832Y-87748111D02*
X132106835Y-84427197D01*
X54957656Y-66209050D02*
X55327427Y-64829047D01*
X90863461Y-81422989D02*
X90880742Y-81452922D01*
X-1802149Y-73385359D02*
X-1436078Y-74019411D01*
X55327427Y-64829047D02*
X56116700Y-64373359D01*
X39481641Y-58739036D02*
X51237149Y-61888911D01*
X177290329Y-78908733D02*
X177229348Y-79014356D01*
X73175192Y-74120549D02*
X73315114Y-73598341D01*
X160692613Y-78536568D02*
X160405504Y-78370801D01*
X161577848Y-85605194D02*
X161508266Y-85725711D01*
X70052350Y-61764392D02*
X73750170Y-68169207D01*
X73750170Y-68169207D02*
X75595572Y-68663670D01*
X131611728Y-88243220D02*
X132106832Y-87748111D01*
X16607013Y-65219450D02*
X28206853Y-68327616D01*
X91252105Y-79972545D02*
X90863461Y-81422989D01*
%TO.N,Net-(D22-Pad2)*%
X34918835Y-69977918D02*
X35518864Y-70138694D01*
X35021644Y-69918561D02*
X34918835Y-69977918D01*
X35518864Y-70138694D02*
X36471267Y-71788306D01*
X35021643Y-69918562D02*
X34918832Y-69977919D01*
X34651406Y-70975970D02*
X34842766Y-71307415D01*
X36440847Y-71735621D02*
X36471269Y-71788307D01*
X34918832Y-69977919D02*
X34651406Y-70975970D01*
X36190613Y-65555901D02*
X35021643Y-69918562D01*
X34842766Y-71307415D02*
X36440847Y-71735621D01*
%TO.N,Net-(D23-Pad2)*%
X54576570Y-71263402D02*
X55981467Y-71639842D01*
X55981467Y-71639842D02*
X56117945Y-71876230D01*
X54349848Y-70870706D02*
X54576570Y-71263402D01*
X54565512Y-70065840D02*
X54349848Y-70870706D01*
X55262596Y-67560915D02*
X54596144Y-70048156D01*
X54596144Y-70048156D02*
X54565512Y-70065840D01*
%TO.N,Net-(D24-Pad2)*%
X71624012Y-79813033D02*
X71382466Y-80714496D01*
X71654632Y-79795356D02*
X71624012Y-79813033D01*
X72321090Y-77308103D02*
X71654632Y-79795356D01*
X73146034Y-81570744D02*
X73176445Y-81623421D01*
X71644539Y-81168422D02*
X73146034Y-81570744D01*
X71382466Y-80714496D02*
X71644539Y-81168422D01*
%TO.N,Net-(D25-Pad2)*%
X89329559Y-87145413D02*
X89100954Y-87998580D01*
X89363023Y-88452501D02*
X90816224Y-88841885D01*
X89360179Y-87127732D02*
X89329559Y-87145413D01*
X90816224Y-88841885D02*
X90881992Y-88955802D01*
X89100954Y-87998580D02*
X89363023Y-88452501D01*
X90026639Y-84640475D02*
X89360179Y-87127732D01*
%TO.N,Net-(D26-Pad2)*%
X163028828Y-91400526D02*
X163011152Y-91431143D01*
X163202370Y-92144786D02*
X163652939Y-92404923D01*
X162362368Y-88913269D02*
X163028828Y-91400526D01*
X163652939Y-92404923D02*
X164966613Y-92052925D01*
X163011152Y-91431143D02*
X163202370Y-92144786D01*
X164966613Y-92052925D02*
X165260793Y-92222769D01*
%TO.N,Net-(D27-Pad2)*%
X181239475Y-85207962D02*
X182794632Y-84791259D01*
X182794632Y-84791259D02*
X182966340Y-84890394D01*
X180716698Y-84098769D02*
X180972623Y-85053895D01*
X180067914Y-81580891D02*
X180734373Y-84068154D01*
X180734373Y-84068154D02*
X180716698Y-84098769D01*
X180972623Y-85053895D02*
X181239475Y-85207962D01*
%TO.N,Net-(D28-Pad2)*%
X197792868Y-74320952D02*
X197775190Y-74351572D01*
X199485707Y-74831933D02*
X200024832Y-75143200D01*
X197126414Y-71833700D02*
X197792868Y-74320952D01*
X197914648Y-74872036D02*
X198365211Y-75132170D01*
X197775190Y-74351572D02*
X197914648Y-74872036D01*
X198365211Y-75132170D02*
X199485707Y-74831933D01*
%TO.N,Net-(D29-Pad2)*%
X217439553Y-74233022D02*
X217421875Y-74263645D01*
X219499811Y-74956137D02*
X219671515Y-75055270D01*
X218137841Y-75321074D02*
X219499811Y-74956137D01*
X217421875Y-74263645D02*
X217626035Y-75025585D01*
X217626035Y-75025585D02*
X218137841Y-75321074D01*
X216773096Y-71745770D02*
X217439553Y-74233022D01*
%TO.N,Net-(D30-Pad2)*%
X238360918Y-78902274D02*
X239027379Y-81389542D01*
X239239747Y-82278687D02*
X239506603Y-82432757D01*
X240965164Y-82041938D02*
X241259347Y-82211784D01*
X239027379Y-81389542D02*
X239009705Y-81420157D01*
X239506603Y-82432757D02*
X240965164Y-82041938D01*
X239009705Y-81420157D02*
X239239747Y-82278687D01*
%TO.N,Net-(D31-Pad2)*%
X2672956Y-39458570D02*
X2003273Y-41957865D01*
X3487188Y-43649577D02*
X3588312Y-43824729D01*
X1807272Y-42867509D02*
X2033987Y-43260193D01*
X2035878Y-42014339D02*
X1807272Y-42867509D01*
X2003273Y-41957865D02*
X2035878Y-42014339D01*
X2033987Y-43260193D02*
X3487188Y-43649577D01*
%TO.N,row3*%
X154518769Y-78705113D02*
X140738100Y-78705119D01*
X166354112Y-55917016D02*
X168024440Y-53023927D01*
X205790564Y-30592704D02*
X206114194Y-31800507D01*
X173483355Y-53993593D02*
X170605821Y-52332247D01*
X177846622Y-71455189D02*
X175515845Y-72079721D01*
X161218279Y-77554242D02*
X160456119Y-77114207D01*
X146923799Y-57141082D02*
X150647166Y-57141088D01*
X129803217Y-88908730D02*
X131682818Y-88908727D01*
X206114194Y-31800507D02*
X206083868Y-31853035D01*
X185885558Y-50670436D02*
X173483355Y-53993593D01*
X170605821Y-52332247D02*
X168024440Y-53023927D01*
X257677960Y-49119220D02*
X257678007Y-49119398D01*
X232056869Y-51438500D02*
X231933787Y-51367434D01*
X132560845Y-88030702D02*
X132560846Y-86141476D01*
X226436011Y-59461245D02*
X216781673Y-62048118D01*
X188894070Y-46932301D02*
X187851352Y-47211700D01*
X140738100Y-78705119D02*
X140610911Y-78577927D01*
X187861212Y-47248495D02*
X185885558Y-50670436D01*
X219098911Y-81900223D02*
X219503086Y-82133568D01*
X230958022Y-51628889D02*
X226436011Y-59461245D01*
X174393313Y-74024002D02*
X161218279Y-77554242D01*
X193793921Y-62961614D02*
X190273656Y-69058881D01*
X216299495Y-61769729D02*
X210575525Y-58464993D01*
X256512101Y-51138807D02*
X251412009Y-52505370D01*
X208734836Y-43566926D02*
X203773445Y-40702467D01*
X190273656Y-69058881D02*
X178950978Y-72092789D01*
X221158587Y-41252093D02*
X209934527Y-44259561D01*
X129464827Y-99257233D02*
X128914834Y-98707233D01*
X219503086Y-82133568D02*
X236417571Y-77601344D01*
X191017782Y-50131965D02*
X191037441Y-50143315D01*
X132560843Y-80519424D02*
X132564521Y-80515748D01*
X141728596Y-62012284D02*
X141916088Y-61824792D01*
X190439741Y-46518141D02*
X188894070Y-46932301D01*
X154177981Y-59179604D02*
X166354112Y-55917016D01*
X224772254Y-34993028D02*
X221158587Y-41252093D01*
X236417571Y-77601344D02*
X237506817Y-75714718D01*
X129696862Y-89015087D02*
X129803217Y-88908730D01*
X257678007Y-49119398D02*
X256512101Y-51138807D01*
X145373526Y-56784613D02*
X146567327Y-56784612D01*
X203773445Y-40702467D02*
X191971684Y-43864740D01*
X231933787Y-51367434D02*
X230958022Y-51628889D01*
X146567327Y-56784612D02*
X146923799Y-57141082D01*
X129687236Y-89015085D02*
X129696862Y-89015087D01*
X144484524Y-57673615D02*
X145373526Y-56784613D01*
X128914833Y-89787492D02*
X129687236Y-89015085D01*
X233718248Y-57059622D02*
X233958375Y-56643709D01*
X160456119Y-77114207D02*
X154518769Y-78705113D01*
X150647166Y-57141088D02*
X154177981Y-59179604D01*
X247327675Y-47346687D02*
X232056869Y-51438500D01*
X132560846Y-86141476D02*
X132560849Y-82483494D01*
X216781673Y-62048118D02*
X216299495Y-61769729D01*
X232589256Y-57362133D02*
X233718248Y-57059622D01*
X139099614Y-62012287D02*
X141728596Y-62012284D01*
X191971684Y-43864740D02*
X190439741Y-46518141D01*
X210575525Y-58464993D02*
X193793921Y-62961614D01*
X209934527Y-44259561D02*
X208954728Y-43693879D01*
X216096739Y-68250347D02*
X215918994Y-68558213D01*
X178950978Y-72092789D02*
X177846622Y-71455189D01*
X208954728Y-43693879D02*
X208734836Y-43566926D01*
X175515845Y-72079721D02*
X174393313Y-74024002D01*
X226945101Y-34410818D02*
X224772254Y-34993028D01*
X144382926Y-61864612D02*
X141935906Y-61864611D01*
X189409405Y-50562927D02*
X191017782Y-50131965D01*
X132560849Y-82483494D02*
X132560843Y-80519424D01*
X141935906Y-61864611D02*
X141906088Y-61834797D01*
X131682818Y-88908727D02*
X132560845Y-88030702D01*
X128914834Y-98707233D02*
X128914833Y-89787492D01*
X217504123Y-67873238D02*
X216096739Y-68250347D01*
X187851352Y-47211700D02*
X187861212Y-47248495D01*
%TO.N,Net-(D32-Pad2)*%
X252444003Y-47027921D02*
X252554468Y-47091699D01*
X252843364Y-49716159D02*
X252271478Y-47581848D01*
X254490400Y-49973324D02*
X253669683Y-50193234D01*
X251033737Y-47405801D02*
X252444003Y-47027921D01*
X253669683Y-50193234D02*
X252843364Y-49716159D01*
X252271478Y-47581848D02*
X252554467Y-47091696D01*
X250304827Y-46300071D02*
X250521927Y-47110307D01*
X250521927Y-47110307D02*
X251033737Y-47405801D01*
%TO.N,Net-(D33-Pad2)*%
X66109437Y-100490322D02*
X65442978Y-102977573D01*
X66899025Y-104691729D02*
X66964792Y-104805641D01*
X65442978Y-102977573D02*
X65412360Y-102995251D01*
X65542416Y-104328227D02*
X66899025Y-104691729D01*
X65209634Y-103751830D02*
X65542416Y-104328227D01*
X65412360Y-102995251D02*
X65209634Y-103751830D01*
%TO.N,Net-(D34-Pad2)*%
X86213465Y-110579693D02*
X86239468Y-110651137D01*
X84680217Y-109338042D02*
X84911102Y-109972392D01*
X84911102Y-109972392D02*
X86213465Y-110579693D01*
X85058218Y-108586581D02*
X85024992Y-108598675D01*
X86146462Y-106252837D02*
X85058218Y-108586581D01*
X85024992Y-108598675D02*
X84680217Y-109338042D01*
%TO.N,Net-(D35-Pad2)*%
X102943110Y-118127536D02*
X103073741Y-118868384D01*
X103401455Y-117516524D02*
X103366648Y-117522663D01*
X103073741Y-118868384D02*
X104187471Y-119648225D01*
X104187471Y-119648225D02*
X104206269Y-119754835D01*
X104878424Y-115407195D02*
X103401455Y-117516524D01*
X103366648Y-117522663D02*
X102943110Y-118127536D01*
%TO.N,Net-(D36-Pad2)*%
X151409305Y-126982812D02*
X151403169Y-127017621D01*
X153498517Y-126941060D02*
X153787892Y-126992084D01*
X151997423Y-127866307D02*
X152140979Y-127891620D01*
X149932348Y-124873495D02*
X151409305Y-126982812D01*
X152140979Y-127891620D02*
X153498517Y-126941060D01*
X151403169Y-127017621D02*
X151997423Y-127866307D01*
%TO.N,Net-(D37-Pad2)*%
X168757410Y-116571069D02*
X168992086Y-116656481D01*
X168302396Y-115595278D02*
X168757410Y-116571069D01*
X167226243Y-113228315D02*
X168314485Y-115562060D01*
X168992086Y-116656481D02*
X170530871Y-115938934D01*
X170530871Y-115938934D02*
X170655323Y-115984233D01*
X168314485Y-115562060D02*
X168302396Y-115595278D01*
%TO.N,Net-(D38-Pad2)*%
X187535892Y-108275667D02*
X188897681Y-107910776D01*
X186279571Y-104763115D02*
X186946028Y-107250367D01*
X188897681Y-107910776D02*
X189177991Y-108072613D01*
X187132461Y-108042744D02*
X187535892Y-108275667D01*
X186946028Y-107250367D02*
X186928349Y-107280988D01*
X186928349Y-107280988D02*
X187132461Y-108042744D01*
%TO.N,Net-(D39-Pad2)*%
X-1359658Y-62124643D02*
X-1329246Y-62177320D01*
X-2849155Y-60348153D02*
X-2881679Y-60366931D01*
X-2881678Y-60366932D02*
X-3136168Y-61316698D01*
X-2909455Y-61709378D02*
X-1359658Y-62124643D01*
X-3136168Y-61316698D02*
X-2909455Y-61709378D01*
X-2849153Y-60348152D02*
X-2881678Y-60366932D01*
X-2107044Y-57578566D02*
X-2849153Y-60348152D01*
%TO.N,Net-(D40-Pad2)*%
X259460406Y-68293325D02*
X258999981Y-68416696D01*
X257533013Y-65479509D02*
X257472028Y-65444297D01*
X255758115Y-65810154D02*
X257361555Y-65380516D01*
X258999981Y-68416696D02*
X258195591Y-67952281D01*
X257361555Y-65380516D02*
X257472029Y-65444299D01*
X258195591Y-67952281D02*
X257533013Y-65479509D01*
X255491251Y-65656083D02*
X255758115Y-65810154D01*
X255222387Y-64652672D02*
X255491251Y-65656083D01*
%TO.N,led*%
X124134521Y-46835747D02*
X126425134Y-46835754D01*
X38314240Y-76372185D02*
X39234417Y-75840922D01*
X-226348Y-72383639D02*
X-463966Y-73270419D01*
X39671361Y-75591943D02*
X49488247Y-78222361D01*
X119056217Y-50076288D02*
X124035061Y-50076291D01*
X16353057Y-86191468D02*
X29045322Y-89592355D01*
X39238312Y-75841963D02*
X39671361Y-75591943D01*
X8477574Y-76041332D02*
X8617422Y-75960589D01*
X54640039Y-75247984D02*
X67428896Y-78674747D01*
X88661010Y-92087024D02*
X107399972Y-97108121D01*
X29045322Y-89592355D02*
X29059464Y-89616848D01*
X-463966Y-73270419D02*
X-207808Y-73714093D01*
X49488247Y-78222361D02*
X49610728Y-78151653D01*
X86815464Y-88890451D02*
X88661010Y-92087024D01*
X70858369Y-84614762D02*
X86815464Y-88890451D01*
X124035061Y-50076291D02*
X124064517Y-50105754D01*
X126425134Y-46835754D02*
X126666087Y-46594797D01*
X39234417Y-75840922D02*
X39238312Y-75841963D01*
X-207808Y-73714093D02*
X8477574Y-76041332D01*
X67428896Y-78674747D02*
X70858369Y-84614762D01*
X34184075Y-75265504D02*
X38314240Y-76372185D01*
X49610728Y-78151653D02*
X54640039Y-75247984D01*
%TO.N,Net-(D41-Pad2)*%
X37531705Y-34360540D02*
X37711075Y-34671222D01*
X36150063Y-33990329D02*
X37531705Y-34360540D01*
X24130195Y-51167801D02*
X24693667Y-52143763D01*
X24693667Y-52143763D02*
X25821461Y-52445947D01*
%TO.N,Net-(D42-Pad2)*%
X19419724Y-70331629D02*
X20856604Y-70716643D01*
X32855622Y-52777835D02*
X32858218Y-52782332D01*
X20856604Y-70716643D02*
X20903896Y-70798539D01*
X18981317Y-69572291D02*
X19419724Y-70331629D01*
X31232502Y-52342923D02*
X32855622Y-52777835D01*
%TO.N,Net-(D43-Pad2)*%
X26314937Y-70695511D02*
X28587208Y-71304364D01*
X41479845Y-63370893D02*
X42491720Y-63642028D01*
X29176322Y-72324740D02*
X37125883Y-74454821D01*
X40647670Y-61929533D02*
X41479845Y-63370893D01*
X28587208Y-71304364D02*
X29176322Y-72324740D01*
%TO.N,Net-(D44-Pad2)*%
X-7814075Y-80013673D02*
X-6312574Y-80415997D01*
X-7799238Y-78719524D02*
X-8040787Y-79620994D01*
X-8040787Y-79620994D02*
X-7814075Y-80013673D01*
X-6927039Y-75428560D02*
X-7805805Y-78708155D01*
X-6312574Y-80415997D02*
X-6246806Y-80529914D01*
X-7805805Y-78708155D02*
X-7799238Y-78719524D01*
%TO.N,Net-(D45-Pad2)*%
X49736753Y-64030418D02*
X49965622Y-63898280D01*
X47902766Y-63538995D02*
X49736753Y-64030418D01*
X46513321Y-45049367D02*
X47409288Y-45289440D01*
X45716507Y-43669242D02*
X46513321Y-45049367D01*
%TO.N,Net-(D46-Pad2)*%
X54403172Y-45610535D02*
X54815762Y-45372328D01*
X50666132Y-25428769D02*
X51392246Y-26686420D01*
X51392246Y-26686420D02*
X52326844Y-26936845D01*
X52820320Y-45186408D02*
X54403172Y-45610535D01*
%TO.N,Net-(D47-Pad2)*%
X58265488Y-29825997D02*
X61830683Y-30781289D01*
X61830683Y-30781289D02*
X65033628Y-28932069D01*
X70992840Y-26765248D02*
X71969703Y-27026997D01*
X70455447Y-25834449D02*
X70992840Y-26765248D01*
X66588769Y-29348768D02*
X67746575Y-28680308D01*
X71969703Y-27026997D02*
X71973526Y-27024784D01*
X58788539Y-27115348D02*
X59580137Y-26658320D01*
X67746575Y-28680308D02*
X70460831Y-29407592D01*
X57737886Y-26833827D02*
X58788539Y-27115348D01*
X65033628Y-28932069D02*
X66588769Y-29348768D01*
%TO.N,Net-(D48-Pad2)*%
X66102046Y-45121772D02*
X67055963Y-45377377D01*
X78959403Y-27343725D02*
X78961998Y-27348223D01*
X77384570Y-26921751D02*
X78959403Y-27343725D01*
X65467870Y-44023336D02*
X66102046Y-45121772D01*
%TO.N,Net-(D49-Pad2)*%
X74090134Y-45709256D02*
X74092732Y-45713755D01*
X60465639Y-62073717D02*
X61290744Y-63502832D01*
X72467008Y-45274337D02*
X74090134Y-45709256D01*
X61290744Y-63502832D02*
X62138401Y-63729963D01*
%TO.N,Net-(D50-Pad2)*%
X77585690Y-72054809D02*
X78262300Y-73226732D01*
X68931334Y-67841321D02*
X71539330Y-68540134D01*
X67549440Y-63626929D02*
X69172576Y-64061846D01*
X72819191Y-70756926D02*
X74671963Y-71253371D01*
X78262300Y-73226732D02*
X79196903Y-73477157D01*
X77005423Y-75295024D02*
X77779968Y-75502564D01*
X71539330Y-68540134D02*
X72819191Y-70756926D01*
X69172576Y-64061846D02*
X69175171Y-64066343D01*
X74671963Y-71253371D02*
X77005423Y-75295024D01*
%TO.N,Net-(D51-Pad2)*%
X260651011Y-84912573D02*
X260139949Y-83005254D01*
X260965275Y-86085413D02*
X260651011Y-84912573D01*
X260651011Y-84912573D02*
X261106814Y-84123101D01*
X262368888Y-83784928D02*
X262389589Y-83796879D01*
X261106814Y-84123101D02*
X262368888Y-83784928D01*
X264230403Y-86693319D02*
X262719440Y-87098182D01*
X262719440Y-87098182D02*
X260965275Y-86085413D01*
%TO.N,Net-(D52-Pad2)*%
X86231070Y-73809039D02*
X86233665Y-73813531D01*
X84607944Y-73374125D02*
X86231070Y-73809039D01*
X83469643Y-54951789D02*
X84114463Y-55124562D01*
X82573826Y-53400190D02*
X83469643Y-54951789D01*
%TO.N,Net-(D53-Pad2)*%
X87341834Y-35142116D02*
X88145723Y-36534491D01*
X91196932Y-55469397D02*
X91199524Y-55473884D01*
X89525504Y-55021537D02*
X91196932Y-55469397D01*
X88145723Y-36534491D02*
X89032023Y-36771973D01*
%TO.N,Net-(D54-Pad2)*%
X95681806Y-37000863D02*
X97023500Y-37360367D01*
X104952960Y-43626164D02*
X106737564Y-44104354D01*
X98178298Y-39360539D02*
X103279325Y-40727355D01*
X103279325Y-40727355D02*
X104952960Y-43626164D01*
X97023500Y-37360367D02*
X98178298Y-39360539D01*
X94443063Y-36668945D02*
X95681806Y-37000863D01*
%TO.N,Net-(D55-Pad2)*%
X113578554Y-44384472D02*
X113757926Y-44695150D01*
X100071995Y-61236050D02*
X100574041Y-62105619D01*
X101808076Y-62436274D02*
X101820003Y-62456940D01*
X112148608Y-44001318D02*
X113578554Y-44384472D01*
X100574041Y-62105619D02*
X101808076Y-62436274D01*
%TO.N,Net-(D56-Pad2)*%
X107231049Y-62353911D02*
X108902474Y-62801769D01*
X96566723Y-80719572D02*
X96902442Y-80809530D01*
X108902474Y-62801769D02*
X108905067Y-62806259D01*
X95437562Y-78763815D02*
X96566723Y-80719572D01*
%TO.N,Net-(D57-Pad2)*%
X70442076Y-95518547D02*
X71083943Y-93123055D01*
X72985246Y-96659377D02*
X70755838Y-96062009D01*
X87129561Y-94683251D02*
X88999858Y-95555382D01*
X103984911Y-81154358D02*
X103987507Y-81158850D01*
X88999858Y-95555382D02*
X89826214Y-97825773D01*
X72215174Y-92469943D02*
X84308014Y-95710215D01*
X71083943Y-93123055D02*
X72215174Y-92469943D01*
X89826214Y-97825773D02*
X90062310Y-97935874D01*
X84308014Y-95710215D02*
X87129561Y-94683251D01*
X102313488Y-80706499D02*
X103984911Y-81154358D01*
X72212501Y-96452314D02*
X72985246Y-96659377D01*
X70755838Y-96062009D02*
X70442076Y-95518547D01*
%TO.N,Net-(D58-Pad2)*%
X84410480Y-99396830D02*
X93583042Y-103674068D01*
X84083092Y-98497336D02*
X84410480Y-99396830D01*
X78396288Y-96556340D02*
X79828332Y-97224115D01*
X79828332Y-97224115D02*
X80684437Y-96912518D01*
X80684437Y-96912518D02*
X84083092Y-98497336D01*
%TO.N,Net-(D59-Pad2)*%
X98929770Y-104512220D02*
X112641815Y-114113493D01*
X112641815Y-114113493D02*
X112649834Y-114158956D01*
%TO.N,Net-(D60-Pad2)*%
X151417355Y-117143829D02*
X150175156Y-118013640D01*
X122346167Y-120489207D02*
X117769783Y-115912823D01*
X143895224Y-120489207D02*
X122346167Y-120489207D01*
X147982796Y-117627060D02*
X143895224Y-120489207D01*
X150175156Y-118013640D02*
X147982796Y-117627060D01*
%TO.N,Net-(D61-Pad2)*%
X170030937Y-105873955D02*
X166694221Y-107429896D01*
X154859965Y-112948301D02*
X154816588Y-112932505D01*
X160397169Y-109024938D02*
X160397401Y-109023614D01*
X166694221Y-107429896D02*
X165077248Y-106841364D01*
X154816585Y-112932504D02*
X160397169Y-109024938D01*
X165077248Y-106841364D02*
X160397401Y-109023614D01*
%TO.N,Net-(D62-Pad2)*%
X182302827Y-99741684D02*
X178503543Y-101513318D01*
X177003723Y-100967429D02*
X178503543Y-101513318D01*
X175586891Y-101628108D02*
X177003723Y-100967429D01*
X188388162Y-98111122D02*
X182302827Y-99741684D01*
X190318726Y-98007517D02*
X188877546Y-98393670D01*
X175586891Y-101628108D02*
X174109810Y-102316878D01*
X188877546Y-98393670D02*
X188388162Y-98111122D01*
%TO.N,Net-(D63-Pad2)*%
X199024716Y-83464605D02*
X195257950Y-84473906D01*
X189197353Y-86387098D02*
X195060382Y-84816103D01*
X177792396Y-88460976D02*
X178580893Y-88916216D01*
X189197353Y-86387098D02*
X178954195Y-89131737D01*
X166401521Y-82157665D02*
X164950692Y-82546419D01*
X176702411Y-88753037D02*
X177792396Y-88460976D01*
X195060382Y-84816103D02*
X195257950Y-84473906D01*
X164950692Y-82546419D02*
X163848922Y-81910313D01*
X178954195Y-89131737D02*
X178580893Y-88916216D01*
X195151005Y-94870342D02*
X194953307Y-95212766D01*
X201496000Y-93170212D02*
X195151005Y-94870342D01*
%TO.N,Net-(D64-Pad2)*%
X173160217Y-78680320D02*
X171113596Y-79228707D01*
X160689961Y-64017832D02*
X159171784Y-63141307D01*
X161483964Y-63805073D02*
X160689961Y-64017832D01*
X171113596Y-79228707D02*
X171036111Y-79362917D01*
%TO.N,Net-(D65-Pad2)*%
X166139468Y-60974098D02*
X166118548Y-61010326D01*
X168070176Y-60456761D02*
X166139468Y-60974098D01*
X156566399Y-45452483D02*
X155434329Y-45755823D01*
X155434329Y-45755823D02*
X154602003Y-45275278D01*
%TO.N,Net-(D66-Pad2)*%
X164889677Y-41669362D02*
X165235867Y-41069738D01*
X167419606Y-40484609D02*
X167613151Y-40149381D01*
X173911030Y-38745238D02*
X174271946Y-38120111D01*
X167613151Y-40149381D02*
X172249595Y-38907048D01*
X172584822Y-39100593D02*
X173911030Y-38745238D01*
X161200981Y-42657739D02*
X164889677Y-41669362D01*
X165235867Y-41069738D02*
X167419606Y-40484609D01*
X172249595Y-38907048D02*
X172584822Y-39100593D01*
%TO.N,Net-(D67-Pad2)*%
X178906533Y-35325364D02*
X180550943Y-34884745D01*
X177833877Y-56867425D02*
X179168001Y-56509949D01*
X180550943Y-34884745D02*
X180552338Y-34882326D01*
X179168001Y-56509949D02*
X179189502Y-56472704D01*
X176988809Y-56379521D02*
X177833877Y-56867425D01*
%TO.N,Net-(D68-Pad2)*%
X185468502Y-53237338D02*
X185469901Y-53234918D01*
X183937068Y-75119738D02*
X184107068Y-74825297D01*
X183824087Y-53677959D02*
X185468502Y-53237338D01*
X182081347Y-75616979D02*
X183937068Y-75119738D01*
%TO.N,Net-(D69-Pad2)*%
X188741656Y-72030545D02*
X191425780Y-71311338D01*
X193900657Y-67024725D02*
X201165561Y-65078100D01*
X191425780Y-71311338D02*
X193900657Y-67024725D01*
%TO.N,Net-(D70-Pad2)*%
X4691206Y-54031046D02*
X2655450Y-53485571D01*
X5228232Y-72255473D02*
X5184690Y-72280613D01*
X2655450Y-53485571D02*
X2608163Y-53403676D01*
X5549508Y-71056454D02*
X5228232Y-72255473D01*
%TO.N,Net-(D71-Pad2)*%
X194777854Y-47119434D02*
X196248000Y-46725512D01*
X207299678Y-61881549D02*
X207336426Y-61817902D01*
X205800148Y-62283347D02*
X207299678Y-61881549D01*
X193798562Y-46554040D02*
X194777854Y-47119434D01*
%TO.N,Net-(D72-Pad2)*%
X202687730Y-43447083D02*
X202977348Y-42945437D01*
X189228412Y-28377536D02*
X189914267Y-28773516D01*
X200882585Y-43930762D02*
X202687730Y-43447083D01*
X189914267Y-28773516D02*
X191316009Y-28397924D01*
X191316009Y-28397924D02*
X191330435Y-28372929D01*
%TO.N,Net-(D73-Pad2)*%
X195965022Y-25578175D02*
X198820663Y-24813008D01*
X198820663Y-24813008D02*
X200876806Y-26000123D01*
X202975037Y-28100197D02*
X206056337Y-27274567D01*
X200876806Y-26000123D02*
X201158499Y-27051417D01*
X208811514Y-28865262D02*
X210977120Y-28284981D01*
X201158499Y-27051417D02*
X202975037Y-28100197D01*
X206056337Y-27274567D02*
X208811514Y-28865262D01*
%TO.N,Net-(D74-Pad2)*%
X213352768Y-46159600D02*
X214723979Y-46951266D01*
X217207828Y-25062561D02*
X217209224Y-25060143D01*
X215611709Y-25490241D02*
X217207828Y-25062561D01*
X214723979Y-46951266D02*
X215894685Y-46637583D01*
%TO.N,Net-(D75-Pad2)*%
X218453161Y-64421796D02*
X219873362Y-65241746D01*
X219873362Y-65241746D02*
X220812248Y-64990167D01*
X220529269Y-43842829D02*
X222158779Y-43406204D01*
X222158779Y-43406204D02*
X222164312Y-43396621D01*
%TO.N,Net-(D76-Pad2)*%
X227289811Y-61701596D02*
X227743482Y-61963519D01*
X225446834Y-62195426D02*
X227289811Y-61701596D01*
X227795891Y-75998174D02*
X242327094Y-72104550D01*
X242327094Y-72104550D02*
X242400072Y-72146683D01*
%TO.N,Net-(D77-Pad2)*%
X9603908Y-35670043D02*
X9608765Y-35678463D01*
X10407997Y-52786963D02*
X10463790Y-52754754D01*
X7181782Y-35021040D02*
X9603908Y-35670043D01*
X10102250Y-53928027D02*
X10407997Y-52786963D01*
%TO.N,Net-(D78-Pad2)*%
X236079978Y-54169894D02*
X234953724Y-53519643D01*
X237482510Y-53794089D02*
X236079978Y-54169894D01*
X249037173Y-68795083D02*
X247048509Y-69327943D01*
X247048509Y-69327943D02*
X247034657Y-69351931D01*
%TO.N,Net-(D79-Pad2)*%
X242152161Y-50938609D02*
X242117097Y-50999341D01*
X231297647Y-35781074D02*
X230514316Y-35328818D01*
X232564953Y-35441497D02*
X231297647Y-35781074D01*
X244208445Y-50387630D02*
X242152161Y-50938609D01*
%TO.N,Net-(D80-Pad2)*%
X248915323Y-41796668D02*
X248980024Y-42038154D01*
X254125487Y-36963326D02*
X248374909Y-38504193D01*
X244756902Y-43625257D02*
X244364982Y-43398984D01*
X248141453Y-38908550D02*
X248915323Y-41796668D01*
X237236781Y-32668259D02*
X237199540Y-32646748D01*
X248980024Y-42038154D02*
X248668901Y-42577040D01*
X248668901Y-42577040D02*
X244756902Y-43625257D01*
X248374909Y-38504193D02*
X248141453Y-38908550D01*
X239379200Y-32094195D02*
X237236781Y-32668259D01*
%TO.N,RESET*%
X139968256Y-128235091D02*
X139968255Y-128200661D01*
X144299532Y-100340233D02*
X152821826Y-100340229D01*
X141784828Y-117337230D02*
X141984831Y-117137228D01*
X142205758Y-130525090D02*
X142205753Y-130472587D01*
X139968255Y-128200661D02*
X138124831Y-126357232D01*
X141906089Y-51674799D02*
X148526091Y-51674800D01*
X142205753Y-130472587D02*
X139968256Y-128235091D01*
X141704834Y-117337232D02*
X141784828Y-117337230D01*
X138104831Y-117337231D02*
X141704834Y-117337232D01*
X152821826Y-100340229D02*
X152904827Y-100257237D01*
%TO.N,col0*%
X124993648Y-76783494D02*
X123932057Y-77845081D01*
X10819199Y-66315679D02*
X12211580Y-65511788D01*
X164489413Y-99385571D02*
X160980978Y-100325651D01*
X5901639Y-84668271D02*
X7294012Y-83864386D01*
X12158153Y-65419258D02*
X12211580Y-65511788D01*
X189055025Y-110867381D02*
X189855293Y-111329414D01*
X17040638Y-47373597D02*
X17676705Y-44999764D01*
X231107170Y-99553791D02*
X217454271Y-103212068D01*
X160105416Y-101202331D02*
X160105418Y-102777130D01*
X40367531Y-58275666D02*
X40336269Y-58267287D01*
X36087054Y-49846770D02*
X35072831Y-49575011D01*
X217454271Y-103212068D02*
X216562931Y-102697456D01*
X89088914Y-72562500D02*
X112329088Y-78789688D01*
X189855293Y-111329414D02*
X202936990Y-107824185D01*
X216017058Y-103642924D02*
X216562930Y-102697451D01*
X40336269Y-58267287D02*
X39357763Y-56572466D01*
X114357159Y-78789686D02*
X117503657Y-78789685D01*
X203399025Y-107023917D02*
X214542949Y-104037914D01*
X55521676Y-58564282D02*
X55679453Y-57975449D01*
X18244514Y-42968220D02*
X19818968Y-43390094D01*
X183610498Y-112869243D02*
X186347993Y-111592728D01*
X12622918Y-47128736D02*
X15929948Y-48014854D01*
X23103427Y-46703064D02*
X34676234Y-49803986D01*
X70660062Y-59777114D02*
X74803709Y-66954119D01*
X182493328Y-112625582D02*
X182689595Y-112534062D01*
X12726930Y-63296567D02*
X12158153Y-65419258D01*
X38391838Y-56313646D02*
X35634120Y-51537141D01*
X159140215Y-103742329D02*
X159140216Y-104059827D01*
X214542949Y-104037914D02*
X216017058Y-103642924D01*
X57523466Y-56257177D02*
X70660062Y-59777114D01*
X40115372Y-58208100D02*
X40367531Y-58275666D01*
X160980976Y-100326771D02*
X160105416Y-101202331D01*
X125347388Y-76783490D02*
X124993648Y-76783494D01*
X158517917Y-104682130D02*
X122322916Y-104682130D01*
X40367531Y-58275666D02*
X51088291Y-61148291D01*
X17676705Y-44999764D02*
X17644485Y-44943968D01*
X51088291Y-61148291D02*
X51096021Y-61119430D01*
X126676088Y-74524802D02*
X126676087Y-75454794D01*
X74803709Y-66954119D02*
X87872689Y-70455940D01*
X51096021Y-61119430D02*
X55521676Y-58564282D01*
X160980978Y-100325651D02*
X160980976Y-100326771D01*
X87872689Y-70455940D02*
X89088914Y-72562500D01*
X2787803Y-83833922D02*
X5901639Y-84668271D01*
X123932057Y-77845081D02*
X118448258Y-77845088D01*
X126676087Y-75454794D02*
X125347388Y-76783490D01*
X7240593Y-83771848D02*
X7294012Y-83864386D01*
X19818968Y-43390094D02*
X20363444Y-44333146D01*
X7809358Y-81649153D02*
X7240593Y-83771848D01*
X15929948Y-48014854D02*
X17040638Y-47373597D01*
X7705364Y-65481330D02*
X10819199Y-66315679D01*
X35072831Y-49575011D02*
X34676234Y-49803986D01*
X39357763Y-56572466D02*
X38536725Y-56352470D01*
X160105418Y-102777130D02*
X159140215Y-103742329D01*
X159140216Y-104059827D02*
X158517917Y-104682130D01*
X182689595Y-112534062D02*
X183610498Y-112869243D01*
X117503657Y-78789685D02*
X118448258Y-77845088D01*
X202936990Y-107824185D02*
X203399025Y-107023917D01*
X38536725Y-56352470D02*
X38391838Y-56313646D01*
X122322916Y-104682130D02*
X121179915Y-103539128D01*
X112329088Y-78789688D02*
X114357159Y-78789686D01*
X21986197Y-44767968D02*
X23103427Y-46703064D01*
X121179915Y-103539128D02*
X114537815Y-103539132D01*
X186347993Y-111592728D02*
X189055025Y-110867381D01*
X20363444Y-44333146D02*
X21986197Y-44767968D01*
%TO.N,col1*%
X39868251Y-98105088D02*
X41398257Y-94015084D01*
X33319456Y-63718239D02*
X33330463Y-63737295D01*
X40803572Y-89468246D02*
X40873430Y-89427915D01*
X70277373Y-85121660D02*
X86562884Y-89485353D01*
X23918045Y-82248820D02*
X26819392Y-83026234D01*
X54799021Y-75891040D02*
X66805477Y-79108157D01*
X26819392Y-83026234D02*
X28407726Y-82109212D01*
X121581255Y-85519544D02*
X121581257Y-83830027D01*
X86562884Y-89485353D02*
X88493279Y-92828902D01*
X88493279Y-92828902D02*
X107976006Y-98049282D01*
X33753173Y-45543638D02*
X36809058Y-46362459D01*
X42849329Y-77562176D02*
X49034146Y-79219390D01*
X31717630Y-64668464D02*
X33330463Y-63737295D01*
X28396721Y-82090149D02*
X28407726Y-82109212D01*
X28939615Y-80064053D02*
X28396721Y-82090149D01*
X38708060Y-43397369D02*
X38774735Y-43358869D01*
X27871632Y-86003142D02*
X40803572Y-89468246D01*
X122945327Y-86883614D02*
X121581255Y-85519544D01*
X123224617Y-80069529D02*
X123351616Y-79942530D01*
X121581257Y-83830027D02*
X121902520Y-83830029D01*
X124654523Y-72575748D02*
X125235477Y-71994798D01*
X41398257Y-94015084D02*
X40873430Y-89427915D01*
X49034146Y-79219390D02*
X54799021Y-75891040D01*
X123326994Y-72575754D02*
X124654523Y-72575748D01*
X125235477Y-71994798D02*
X126666092Y-71994796D01*
X38115704Y-45608066D02*
X38708060Y-43397369D01*
X33857178Y-61711463D02*
X33319456Y-63718239D01*
X121902520Y-83830029D02*
X123224618Y-82507931D01*
X36809058Y-46362459D02*
X38115704Y-45608066D01*
X123224618Y-82507931D02*
X123224617Y-80069529D01*
X38437058Y-98713742D02*
X39868251Y-98105088D01*
X111848646Y-83830021D02*
X111763126Y-83915535D01*
X28835613Y-63896229D02*
X31717630Y-64668464D01*
X121581257Y-83830027D02*
X111848646Y-83830021D01*
X66805477Y-79108157D02*
X70277373Y-85121660D01*
%TO.N,col2*%
X150288960Y-51215762D02*
X152558888Y-50607539D01*
X54971992Y-56320250D02*
X55025420Y-56412795D01*
X161549180Y-51511481D02*
X162928038Y-49123227D01*
X128698424Y-55476513D02*
X128685727Y-55489216D01*
X116729074Y-79901202D02*
X116944513Y-79685746D01*
X45505874Y-75092315D02*
X48436190Y-75877488D01*
X158002748Y-51219413D02*
X158737593Y-51643676D01*
X50527444Y-72907542D02*
X50007843Y-74846702D01*
X59897086Y-38192847D02*
X60408922Y-36282652D01*
X213549826Y-74668407D02*
X213702491Y-74403981D01*
X126666090Y-69454798D02*
X118603556Y-69454800D01*
X190042077Y-45770076D02*
X187429151Y-46470204D01*
X207092438Y-48459143D02*
X207676054Y-50637234D01*
X205428656Y-54908199D02*
X207839889Y-50731819D01*
X210633361Y-75449870D02*
X213549826Y-74668407D01*
X158737593Y-51643676D02*
X159472440Y-52067940D01*
X55444998Y-54554949D02*
X54971992Y-56320250D01*
X173713965Y-53234954D02*
X170743105Y-51519728D01*
X212199930Y-67003693D02*
X212757455Y-69084404D01*
X204583472Y-55134667D02*
X205428656Y-54908199D01*
X200767345Y-78093461D02*
X210633361Y-75449870D01*
X149687923Y-52256794D02*
X150288960Y-51215762D01*
X55340998Y-38387134D02*
X58223018Y-39159367D01*
X167611419Y-52112953D02*
X167902334Y-52280912D01*
X74252388Y-67427558D02*
X87553188Y-70991502D01*
X89151253Y-73759426D02*
X112072664Y-79901195D01*
X163352304Y-48388380D02*
X163145250Y-47615639D01*
X159472440Y-52067940D02*
X161549180Y-51511481D01*
X167902334Y-52280912D02*
X170743105Y-51519728D01*
X154947139Y-51986395D02*
X155008376Y-52021752D01*
X199499379Y-106190198D02*
X201910613Y-102013817D01*
X87553188Y-70991502D02*
X89151253Y-73759426D01*
X207676054Y-50637234D02*
X207839888Y-50731820D01*
X70247947Y-60491654D02*
X74252388Y-67427558D01*
X191398094Y-43421377D02*
X190042077Y-45770076D01*
X157230006Y-51426467D02*
X158002748Y-51219413D01*
X187429151Y-46470204D02*
X185318792Y-50125456D01*
X163145250Y-47615639D02*
X164099841Y-45962234D01*
X50007843Y-74846702D02*
X50061270Y-74939248D01*
X201910612Y-102013817D02*
X206767425Y-100712438D01*
X146872123Y-55476513D02*
X128698424Y-55476513D01*
X48436190Y-75877488D02*
X50061270Y-74939248D01*
X185318792Y-50125456D02*
X173713965Y-53234954D01*
X206767425Y-100712438D02*
X206799870Y-100656236D01*
X60408922Y-36282652D02*
X60362560Y-36202357D01*
X198654194Y-106416665D02*
X199499379Y-106190198D01*
X211693897Y-66711533D02*
X212199930Y-67003693D01*
X53179893Y-57478311D02*
X55025420Y-56412795D01*
X112072664Y-79901195D02*
X116729074Y-79901202D01*
X209501036Y-73487251D02*
X209915932Y-75035661D01*
X164099841Y-45962234D02*
X166224879Y-45392833D01*
X162928038Y-49123227D02*
X163352304Y-48388380D01*
X55025420Y-56412795D02*
X70247947Y-60491654D01*
X58223018Y-39159367D02*
X59897086Y-38192847D01*
X50423433Y-56739720D02*
X53179893Y-57478311D01*
X204438190Y-39927293D02*
X191398094Y-43421377D01*
X152558888Y-50607539D02*
X154947139Y-51986395D01*
X118603556Y-69454800D02*
X118584522Y-69435752D01*
X150825181Y-56186176D02*
X147581786Y-56186175D01*
X209915932Y-75035661D02*
X210633361Y-75449870D01*
X147581786Y-56186175D02*
X146872123Y-55476513D01*
X155008376Y-52021752D02*
X157230006Y-51426467D01*
%TO.N,col3*%
X159213033Y-98628734D02*
X159213033Y-98628734D01*
X229992903Y-73172853D02*
X232404138Y-68996474D01*
X234824356Y-77027641D02*
X219968700Y-81008203D01*
X158672031Y-102787566D02*
X123085165Y-102787564D01*
X77271343Y-110545529D02*
X79554137Y-109227552D01*
X159205430Y-102254164D02*
X158672031Y-102787566D01*
X199665908Y-36782075D02*
X203154000Y-35847444D01*
X215840927Y-83954961D02*
X208284298Y-85979748D01*
X123085165Y-102787564D02*
X121694837Y-101397230D01*
X219968700Y-81008203D02*
X219455414Y-80711853D01*
X174929861Y-95114263D02*
X172905765Y-95656619D01*
X175531538Y-94072130D02*
X174929861Y-95114263D01*
X67249809Y-83853406D02*
X68711444Y-86385042D01*
X203443350Y-34323717D02*
X203886131Y-34579353D01*
X65152555Y-75180235D02*
X67870391Y-75908478D01*
X70174124Y-72995468D02*
X69672352Y-74868104D01*
X76160528Y-110247885D02*
X77271343Y-110545529D01*
X83221782Y-106735239D02*
X81171672Y-106185912D01*
X109968784Y-101405023D02*
X121687040Y-101405024D01*
X172905765Y-95656619D02*
X172081382Y-95180667D01*
X160268015Y-98346048D02*
X159213033Y-98628734D01*
X69672352Y-74868104D02*
X69654673Y-74878325D01*
X203194202Y-86659943D02*
X175531538Y-94072130D01*
X208113198Y-85880968D02*
X205119992Y-86682993D01*
X106955096Y-100597505D02*
X109968784Y-101405023D01*
X79554137Y-109227552D02*
X82353016Y-109977512D01*
X74987683Y-38475056D02*
X77985625Y-39278354D01*
X172081382Y-95180667D02*
X160268015Y-98346048D01*
X126676089Y-66904792D02*
X123795476Y-66904799D01*
X219455414Y-80711853D02*
X217578519Y-81214768D01*
X231685249Y-66313546D02*
X232404139Y-68996475D01*
X75999396Y-108109647D02*
X75659150Y-109379472D01*
X203154000Y-35847444D02*
X203886131Y-34579353D01*
X70070120Y-56827646D02*
X72787941Y-57555884D01*
X67870391Y-75908478D02*
X69654673Y-74878325D01*
X208284298Y-85979748D02*
X208113198Y-85880968D01*
X77985625Y-39278354D02*
X79377999Y-38474465D01*
X106127783Y-99164556D02*
X106955096Y-100597505D01*
X61429268Y-105611806D02*
X69894477Y-107880050D01*
X70364972Y-108694971D02*
X76160528Y-110247885D01*
X229147718Y-73399320D02*
X229992903Y-73172853D01*
X79377999Y-38474465D02*
X79954814Y-36321723D01*
X75659150Y-109379472D02*
X76160528Y-110247885D01*
X202922331Y-32379228D02*
X203443350Y-34323717D01*
X87166659Y-94083935D02*
X106127783Y-99164556D01*
X232407762Y-68990195D02*
X232404141Y-68996476D01*
X74589911Y-56515516D02*
X74572228Y-56525724D01*
X75091687Y-54642889D02*
X74589911Y-56515516D01*
X203411962Y-86785664D02*
X203287531Y-86713822D01*
X217578519Y-81214768D02*
X214654324Y-79526480D01*
X205119992Y-86682993D02*
X203831926Y-87028133D01*
X123795476Y-66904799D02*
X123774525Y-66925747D01*
X69894477Y-107880050D02*
X70364972Y-108694971D01*
X81171672Y-106185912D02*
X81020959Y-105924883D01*
X72787941Y-57555884D02*
X74572228Y-56525724D01*
X85285748Y-90826114D02*
X87166659Y-94083935D01*
X203831926Y-87028133D02*
X203411962Y-86785664D01*
X231928779Y-65891745D02*
X231685249Y-66313546D01*
X79954814Y-36321723D02*
X80009246Y-36290297D01*
X121687040Y-101405024D02*
X121694837Y-101397230D01*
X203287531Y-86713822D02*
X203194202Y-86659943D01*
X68711444Y-86385042D02*
X85285748Y-90826114D01*
%TO.N,col4*%
X148433980Y-131890790D02*
X148992780Y-131331989D01*
X224230160Y-55046734D02*
X225075344Y-54820266D01*
X126522518Y-64518372D02*
X126676091Y-64364799D01*
X112586044Y-77998443D02*
X112594832Y-78007234D01*
X214053676Y-105352330D02*
X215390807Y-104994050D01*
X112186352Y-77998440D02*
X112586044Y-77998443D01*
X85257296Y-85743668D02*
X86698655Y-84911502D01*
X87376552Y-114060170D02*
X88978953Y-114489530D01*
X90134269Y-72089599D02*
X112186352Y-77998440D01*
X96662463Y-116452749D02*
X99278577Y-115500561D01*
X221950010Y-29981129D02*
X222241002Y-29477113D01*
X225075344Y-54820266D02*
X227486579Y-50643887D01*
X99278577Y-115500561D02*
X99887742Y-114194203D01*
X92046179Y-48222255D02*
X94908883Y-48989311D01*
X82211056Y-84927432D02*
X85257296Y-85743668D01*
X94563085Y-115473793D02*
X96662463Y-116452749D01*
X149437278Y-131331992D02*
X149805905Y-130963368D01*
X189224903Y-112067730D02*
X203568901Y-108224268D01*
X140369480Y-131458989D02*
X140801283Y-131890791D01*
X89856098Y-67305671D02*
X91701626Y-66240151D01*
X231998677Y-100241573D02*
X233900102Y-99732090D01*
X149805905Y-130963368D02*
X153740213Y-130963370D01*
X92340062Y-116757258D02*
X94563085Y-115473792D01*
X219312598Y-36694143D02*
X220157783Y-36467676D01*
X153740213Y-130963370D02*
X168861917Y-120375029D01*
X88978953Y-114489530D02*
X89912708Y-116106849D01*
X96546212Y-48044002D02*
X97078745Y-46056548D01*
X83540184Y-112335474D02*
X84016064Y-113159731D01*
X87232617Y-82742669D02*
X86666432Y-84855691D01*
X99431837Y-120547668D02*
X111031440Y-128669795D01*
X231863973Y-100474896D02*
X231998677Y-100241573D01*
X222569015Y-32291294D02*
X221950010Y-29981129D01*
X97078745Y-46056548D02*
X97067739Y-46037488D01*
X99887742Y-114194203D02*
X101591356Y-114988611D01*
X99901435Y-114271846D02*
X99887744Y-114194199D01*
X101804040Y-115536007D02*
X101816674Y-115607666D01*
X227535102Y-50559830D02*
X227486580Y-50643886D01*
X79862904Y-111350147D02*
X83540184Y-112335474D01*
X188419857Y-111602936D02*
X189224903Y-112067730D01*
X220157783Y-36467676D02*
X222569015Y-32291293D01*
X101591356Y-114988611D02*
X101816674Y-115607666D01*
X94908883Y-48989311D02*
X96546212Y-48044002D01*
X87128618Y-66574844D02*
X89856098Y-67305671D01*
X204033696Y-107419219D02*
X213322625Y-104930256D01*
X215390807Y-104994050D02*
X215579394Y-104667405D01*
X168861917Y-120375029D02*
X186665873Y-112072914D01*
X148992780Y-131331989D02*
X149437278Y-131331992D01*
X186665873Y-112072914D02*
X188419857Y-111602936D01*
X230103825Y-100775599D02*
X230306034Y-100892344D01*
X215579394Y-104667405D02*
X230103825Y-100775599D01*
X86666432Y-84855691D02*
X86698655Y-84911502D01*
X226945472Y-48359298D02*
X227535102Y-50559830D01*
X111031440Y-128669795D02*
X111999597Y-128499086D01*
X91669405Y-66184348D02*
X91701626Y-66240151D01*
X92150182Y-64390073D02*
X91669405Y-66184348D01*
X213322625Y-104930256D02*
X214053676Y-105352330D01*
X230306034Y-100892344D02*
X231863973Y-100474896D01*
X84016064Y-113159731D02*
X87376552Y-114060170D01*
X116226781Y-131458990D02*
X140369480Y-131458989D01*
X116428804Y-64518367D02*
X126522518Y-64518372D01*
X203568901Y-108224268D02*
X204033696Y-107419219D01*
X89912708Y-116106849D02*
X92340062Y-116757258D01*
X111999597Y-128499086D02*
X116226781Y-131458990D01*
X140801283Y-131890791D02*
X148433980Y-131890790D01*
%TO.N,col5*%
X249217913Y-67004484D02*
X236116483Y-70514997D01*
X111565987Y-125949602D02*
X113667129Y-127420842D01*
X174462760Y-94450545D02*
X172966151Y-94851561D01*
X249212167Y-57561776D02*
X249074404Y-57800399D01*
X246663166Y-61976774D02*
X249074401Y-57800392D01*
X217393822Y-83420530D02*
X216460565Y-82881710D01*
X99916597Y-92259809D02*
X103349207Y-93179572D01*
X122591328Y-103727363D02*
X121359432Y-102495462D01*
X110526330Y-102495461D02*
X106384563Y-101385678D01*
X126676087Y-61824803D02*
X125296088Y-61824798D01*
X125296088Y-61824798D02*
X122590048Y-59118756D01*
X244217206Y-39673101D02*
X242774447Y-42172029D01*
X175100359Y-93346192D02*
X174462760Y-94450545D01*
X219619637Y-79852676D02*
X217804080Y-80339153D01*
X245817982Y-62203241D02*
X246663166Y-61976774D01*
X104938163Y-90075043D02*
X104268449Y-92574442D01*
X122590048Y-59118756D02*
X113280044Y-59118756D01*
X105381557Y-123725696D02*
X105452991Y-124130839D01*
X109855725Y-71722452D02*
X110355584Y-69856953D01*
X172032899Y-94312747D02*
X158116972Y-98041502D01*
X217804080Y-80339153D02*
X217555209Y-80195466D01*
X203997034Y-86221307D02*
X203265981Y-85799233D01*
X251247298Y-66776261D02*
X249591219Y-67220014D01*
X248634650Y-55406451D02*
X249212167Y-57561776D01*
X233345409Y-76464122D02*
X219961829Y-80050238D01*
X114890325Y-53302289D02*
X114773288Y-53369862D01*
X113667129Y-127420842D02*
X116062593Y-126998455D01*
X104834163Y-73907220D02*
X105679344Y-74133689D01*
X105523123Y-99893620D02*
X102566714Y-99101454D01*
X111236446Y-58571174D02*
X113280044Y-59118756D01*
X108757656Y-126444790D02*
X111565987Y-125949602D01*
X235514804Y-71557138D02*
X233466174Y-72106066D01*
X157998933Y-103727362D02*
X122591328Y-103727363D01*
X241970898Y-43563820D02*
X242774447Y-42172029D01*
X233466174Y-72106066D02*
X233178807Y-72603802D01*
X110355584Y-69856953D02*
X110411389Y-69824727D01*
X106384563Y-101385678D02*
X105523123Y-99893620D01*
X244156837Y-39447806D02*
X244217206Y-39673101D01*
X116062593Y-126998455D02*
X117031947Y-125614068D01*
X121359432Y-102495462D02*
X110526330Y-102495461D01*
X98493065Y-118902321D02*
X105381557Y-123725696D01*
X219961829Y-80050238D02*
X219619637Y-79852676D01*
X240900422Y-43850653D02*
X241970898Y-43563820D01*
X172966151Y-94851561D02*
X172032899Y-94312747D01*
X105679344Y-74133689D02*
X109855726Y-71722453D01*
X109751721Y-55554627D02*
X109670294Y-55858522D01*
X109670294Y-55858522D02*
X111236446Y-58571174D01*
X105452991Y-124130839D02*
X108757656Y-126444790D01*
X203265981Y-85799233D02*
X175100359Y-93346192D01*
X249591219Y-67220014D02*
X249217913Y-67004484D01*
X104268449Y-92574442D02*
X104300668Y-92630246D01*
X115599834Y-50654392D02*
X114890325Y-53302289D01*
X216460565Y-82881710D02*
X203997034Y-86221307D01*
X236116483Y-70514997D02*
X235514804Y-71557138D01*
X233178807Y-72603802D02*
X232773986Y-72712270D01*
X103349207Y-93179572D02*
X104300668Y-92630246D01*
%TO.N,col6*%
X236680181Y-78489426D02*
X237075811Y-77804179D01*
X272710978Y-81914463D02*
X275122212Y-77738084D01*
X150353567Y-69454794D02*
X150354516Y-69455750D01*
X158417495Y-88320793D02*
X162377791Y-87259633D01*
X258670003Y-76567970D02*
X257816877Y-78045628D01*
X152020199Y-62351433D02*
X150914525Y-61245752D01*
X255720401Y-78607377D02*
X255657841Y-78624139D01*
X239508436Y-78186943D02*
X240550286Y-78788457D01*
X164585799Y-88738553D02*
X167676760Y-87910334D01*
X141957044Y-72045752D02*
X141906089Y-71994794D01*
X240550286Y-78788457D02*
X242558496Y-78250358D01*
X177993420Y-86163976D02*
X177379707Y-83873591D01*
X235192084Y-78743532D02*
X235363185Y-78842314D01*
X272397062Y-72889815D02*
X258670003Y-76567970D01*
X218901169Y-83108671D02*
X235192084Y-78743532D01*
X164502140Y-118117413D02*
X164016547Y-120871346D01*
X169513877Y-88970994D02*
X171193447Y-88520953D01*
X164901874Y-53861644D02*
X165311991Y-53751753D01*
X171193447Y-88520953D02*
X174736996Y-90566820D01*
X254470415Y-77938580D02*
X253991970Y-76152985D01*
X275122214Y-77738085D02*
X274084109Y-73863834D01*
X169583140Y-54937103D02*
X169245063Y-55027689D01*
X177379707Y-83873591D02*
X177385654Y-83863295D01*
X214110456Y-80342756D02*
X218901169Y-83108671D01*
X162609337Y-115414210D02*
X163680414Y-116943867D01*
X168107353Y-49429386D02*
X168158290Y-49458797D01*
X167307589Y-58383486D02*
X152499028Y-62351431D01*
X172438854Y-65434069D02*
X172444795Y-65423779D01*
X246731383Y-79111459D02*
X247757566Y-78836495D01*
X163680414Y-116943867D02*
X164502140Y-118117413D01*
X163789716Y-88278933D02*
X164585799Y-88738553D01*
X242558496Y-78250358D02*
X243917726Y-79035110D01*
X271865791Y-82140929D02*
X272710978Y-81914463D01*
X274084109Y-73863834D02*
X272397062Y-72889815D01*
X243917726Y-79035110D02*
X245749163Y-78544376D01*
X237075811Y-77804179D02*
X238717885Y-77364185D01*
X162721968Y-114775448D02*
X162609337Y-115414210D01*
X239392312Y-77753566D02*
X239508436Y-78186943D01*
X170664619Y-71987764D02*
X173075854Y-67811386D01*
X178171270Y-90002132D02*
X178191418Y-89967227D01*
X149339778Y-70470491D02*
X145665511Y-70470488D01*
X168158293Y-49458798D02*
X167525996Y-47099031D01*
X162042238Y-113804693D02*
X162721968Y-114775448D01*
X247757566Y-78836495D02*
X250735549Y-80555834D01*
X162377791Y-87259633D02*
X163725010Y-88037453D01*
X178171270Y-90002132D02*
X177750684Y-89759304D01*
X178191418Y-89967227D02*
X214110456Y-80342756D01*
X235363185Y-78842314D02*
X236680181Y-78489426D01*
X177750684Y-89759304D02*
X174736996Y-90566820D01*
X150564521Y-61245754D02*
X150444519Y-61125743D01*
X145665511Y-70470488D02*
X144151210Y-71984795D01*
X144151210Y-71984795D02*
X141916091Y-71984790D01*
X245749163Y-78544376D02*
X246731383Y-79111459D01*
X250735549Y-80555834D02*
X255301870Y-79332291D01*
X150914525Y-61245752D02*
X150564521Y-61245754D01*
X257816877Y-78045628D02*
X255720401Y-78607377D01*
X164016547Y-120871346D02*
X162126242Y-122194951D01*
X255301870Y-79332291D02*
X255720401Y-78607377D01*
X165311991Y-53751753D02*
X167723228Y-49575373D01*
X255657841Y-78624139D02*
X254470415Y-77938580D01*
X167676760Y-87910334D02*
X169513877Y-88970994D01*
X169819437Y-72214231D02*
X170664619Y-71987764D01*
X238717885Y-77364185D02*
X239392312Y-77753566D01*
X152499028Y-62351431D02*
X152020199Y-62351433D01*
X167525996Y-47099031D02*
X167692034Y-46811443D01*
X163725010Y-88037453D02*
X163789716Y-88278933D01*
X167723228Y-49575373D02*
X168158294Y-49458799D01*
X169245063Y-55027689D02*
X167307589Y-58383486D01*
X173075857Y-67811385D02*
X172438854Y-65434069D01*
X150354516Y-69455750D02*
X149339778Y-70470491D01*
%TO.N,col7*%
X266948233Y-63788350D02*
X269404332Y-63130239D01*
X244459221Y-87567702D02*
X243330632Y-87870104D01*
X185015558Y-39082672D02*
X185825142Y-42104074D01*
X264717182Y-42020012D02*
X265287094Y-41032905D01*
X269404332Y-63130239D02*
X270129252Y-61874640D01*
X213763065Y-78806702D02*
X213098529Y-79957717D01*
X265162179Y-43680768D02*
X264717182Y-42020012D01*
X178399966Y-91611061D02*
X197670185Y-86447621D01*
X179883583Y-112658726D02*
X182314411Y-108448407D01*
X195109374Y-76631225D02*
X195070674Y-76608884D01*
X217650799Y-78987751D02*
X216546744Y-79283580D01*
X242879557Y-87609680D02*
X230489322Y-90929632D01*
X181681508Y-106086397D02*
X180594281Y-105458691D01*
X148459509Y-69416388D02*
X141944489Y-69416389D01*
X213098529Y-79957717D02*
X200769935Y-83261155D01*
X162202447Y-96217241D02*
X159614052Y-96910791D01*
X199309390Y-82417908D02*
X196806871Y-83088457D01*
X256141520Y-83569667D02*
X245051916Y-86541119D01*
X230489322Y-90929632D02*
X230479510Y-90946623D01*
X270204652Y-59385505D02*
X270636295Y-60996417D01*
X195698958Y-78831601D02*
X195109374Y-76631225D01*
X215100200Y-78448417D02*
X213763065Y-78806702D01*
X152490463Y-96910794D02*
X152347429Y-96767761D01*
X219530568Y-78839065D02*
X218070765Y-79230217D01*
X216546744Y-79283580D02*
X215100200Y-78448417D01*
X218070765Y-79230217D02*
X217650799Y-78987751D01*
X182142408Y-107806484D02*
X181681508Y-106086397D01*
X243330632Y-87870104D02*
X242879557Y-87609680D01*
X190238395Y-58452510D02*
X190199700Y-58430164D01*
X182607418Y-46529267D02*
X183452606Y-46302801D01*
X172001541Y-93591582D02*
X162202447Y-96217241D01*
X262904750Y-69358891D02*
X262509618Y-70043283D01*
X188370159Y-64655394D02*
X190781393Y-60479015D01*
X192453344Y-83231552D02*
X193664074Y-83930568D01*
X141944489Y-69416389D02*
X141906087Y-69454792D01*
X185825142Y-42104074D02*
X185863839Y-42126418D01*
X180594281Y-105458691D02*
X180449346Y-104917770D01*
X264536612Y-44764284D02*
X265162179Y-43680768D01*
X197528763Y-86692569D02*
X197670185Y-86447621D01*
X159614052Y-96910791D02*
X152490463Y-96910794D01*
X193664074Y-83930568D02*
X196806871Y-83088457D01*
X270939805Y-67205910D02*
X262904750Y-69358891D01*
X173034000Y-94187672D02*
X172001541Y-93591582D01*
X190781395Y-60479010D02*
X190238395Y-58452510D01*
X200769935Y-83261155D02*
X199309390Y-82417908D01*
X262030671Y-45435749D02*
X264536612Y-44764284D01*
X174684619Y-92813639D02*
X178258544Y-91856011D01*
X187524974Y-64881861D02*
X188370159Y-64655394D01*
X270636295Y-60996417D02*
X270129252Y-61874640D01*
X245051916Y-86541119D02*
X244459221Y-87567702D01*
X178258544Y-91856011D02*
X178399966Y-91611061D01*
X183452606Y-46302801D02*
X185863840Y-42126421D01*
X256964819Y-71529007D02*
X256722355Y-71948973D01*
X174048221Y-93915911D02*
X173034000Y-94187672D01*
X174684619Y-92813639D02*
X174048221Y-93915911D01*
X182314411Y-108448407D02*
X182142410Y-107806486D01*
X262509618Y-70043283D02*
X256964819Y-71529007D01*
X224927108Y-77879542D02*
X220106075Y-79171333D01*
X192442545Y-83234446D02*
X192453344Y-83231552D01*
X220106075Y-79171333D02*
X219530568Y-78839065D01*
X179700009Y-112707916D02*
X179883583Y-112658726D01*
%TO.N,sda*%
X119283998Y-109274700D02*
X117133996Y-109274702D01*
X121315249Y-74035091D02*
X121336850Y-74013491D01*
X120983998Y-108774698D02*
X119783997Y-108774700D01*
X124118807Y-129291027D02*
X123421989Y-129693336D01*
X123173566Y-56754794D02*
X126666084Y-56754798D01*
X115248254Y-89925089D02*
X115208259Y-89965085D01*
X120706224Y-54287456D02*
X123173566Y-56754794D01*
X123421989Y-129693336D02*
X121916509Y-129289944D01*
X117133996Y-109274702D02*
X116682866Y-108823568D01*
X118776763Y-54287461D02*
X120706224Y-54287456D01*
X114936151Y-107826856D02*
X114883997Y-107774701D01*
X115178258Y-74035092D02*
X120315248Y-74035093D01*
X119783997Y-108774700D02*
X119283998Y-109274700D01*
X126698254Y-89925087D02*
X115248254Y-89925089D01*
X116682865Y-107826857D02*
X114936151Y-107826856D01*
X116682866Y-108823568D02*
X116682865Y-107826857D01*
X124356408Y-128404288D02*
X124118807Y-129291027D01*
X120315248Y-74035093D02*
X120336849Y-74013494D01*
%TO.N,scl*%
X115998260Y-76545087D02*
X115998260Y-76545087D01*
X115631842Y-105676856D02*
X115283997Y-106024699D01*
X133100848Y-90353486D02*
X133100850Y-94612494D01*
X124663562Y-59284795D02*
X126676084Y-59284790D01*
X120328443Y-76545086D02*
X120336849Y-76553494D01*
X123561122Y-130300019D02*
X123193697Y-130512150D01*
X124839373Y-128533696D02*
X124513404Y-129750215D01*
X126698256Y-94925087D02*
X116058254Y-94925088D01*
X115998260Y-76545087D02*
X120328443Y-76545086D01*
X121382073Y-56003305D02*
X124663562Y-59284795D01*
X119693919Y-56003306D02*
X121382073Y-56003305D01*
X116682865Y-105676855D02*
X115631842Y-105676856D01*
X133100850Y-94612494D02*
X132798251Y-94915096D01*
X116006665Y-76553484D02*
X115998260Y-76545087D01*
X116058254Y-94925088D02*
X116038260Y-94905084D01*
X124513404Y-129750215D02*
X123561122Y-130300019D01*
X116006664Y-76553488D02*
X115998260Y-76545087D01*
X123193697Y-130512150D02*
X120827181Y-129878044D01*
%TO.N,3.3V*%
X136595364Y-110336067D02*
X136595365Y-113226856D01*
X124036150Y-107826855D02*
X124833997Y-108624701D01*
X130295363Y-113226858D02*
X136595365Y-113226856D01*
X126133995Y-114140488D02*
X125570363Y-113576855D01*
X134883998Y-108624701D02*
X136595364Y-110336067D01*
X123390481Y-128145467D02*
X123918620Y-126174433D01*
X118507866Y-105676856D02*
X118507865Y-107826855D01*
X127281842Y-113576856D02*
X127631841Y-113226857D01*
X125570363Y-113576855D02*
X127281842Y-113576856D01*
X123918620Y-126174433D02*
X125293351Y-125380728D01*
X126133998Y-115374700D02*
X126133995Y-114140488D01*
X124833997Y-108624701D02*
X134883998Y-108624701D01*
X127631841Y-113226857D02*
X130295363Y-113226858D01*
%TO.N,Net-(D81-Pad2)*%
X36524639Y-94878075D02*
X38954700Y-96781894D01*
X38954700Y-96781894D02*
X39579329Y-94257546D01*
%TO.N,Net-(D82-Pad2)*%
X216045288Y-100765601D02*
X217425721Y-98374626D01*
X213502211Y-103204686D02*
X214702724Y-101125336D01*
X212217535Y-103548914D02*
X213502211Y-103204686D01*
X214702724Y-101125336D02*
X216045288Y-100765601D01*
X217425721Y-98374626D02*
X226998119Y-95809712D01*
%TO.N,ENC1B*%
X129206086Y-75814790D02*
X134227863Y-80836567D01*
X69874920Y-85541815D02*
X86237700Y-89926207D01*
X86237700Y-89926207D02*
X88146886Y-93233009D01*
X134288253Y-89445089D02*
X134288251Y-99863808D01*
X127879143Y-99131545D02*
X108576357Y-99131538D01*
X134227863Y-80836567D02*
X134227860Y-89384690D01*
X132898843Y-101253222D02*
X130000820Y-101253221D01*
X106906109Y-98232629D02*
X107214404Y-98766611D01*
X129206094Y-74534797D02*
X129206086Y-75814790D01*
X44215339Y-98553820D02*
X46298254Y-90865082D01*
X61159183Y-78371706D02*
X66572729Y-79822257D01*
X130000820Y-101253221D02*
X127879143Y-99131545D01*
X134288251Y-99863808D02*
X132898843Y-101253222D01*
X66572729Y-79822257D02*
X69874920Y-85541815D01*
X93259489Y-94576027D02*
X106906109Y-98232629D01*
X93227657Y-94594410D02*
X93259489Y-94576027D01*
X58787326Y-78596029D02*
X60934849Y-78596040D01*
X88146886Y-93233009D02*
X93227657Y-94594410D01*
X60934849Y-78596040D02*
X61159183Y-78371706D01*
X134227860Y-89384690D02*
X134288253Y-89445089D01*
X107214404Y-98766611D02*
X108576357Y-99131538D01*
%TO.N,ENC1A*%
X136848260Y-87870950D02*
X136848255Y-101353812D01*
X136848255Y-101353812D02*
X136494829Y-101707226D01*
X106471149Y-98681333D02*
X107058042Y-99697873D01*
X107058042Y-99697873D02*
X109260349Y-100287976D01*
X131746092Y-74534799D02*
X131746088Y-77364799D01*
X41761891Y-97896424D02*
X42568254Y-95105091D01*
X64282540Y-79961243D02*
X66178822Y-80469349D01*
X123924832Y-101707231D02*
X122505574Y-100287977D01*
X87529341Y-93605889D02*
X106471149Y-98681333D01*
X134960854Y-85983536D02*
X136848260Y-87870950D01*
X66178822Y-80469349D02*
X69398283Y-86045617D01*
X122505574Y-100287977D02*
X109260349Y-100287976D01*
X134960850Y-80579564D02*
X134960854Y-85983536D01*
X136494829Y-101707226D02*
X123924832Y-101707231D01*
X85683788Y-90409307D02*
X87529341Y-93605889D01*
X64241735Y-80002048D02*
X64282540Y-79961243D01*
X131746088Y-77364799D02*
X134960850Y-80579564D01*
X69398283Y-86045617D02*
X85683788Y-90409307D01*
X61793340Y-80002046D02*
X64241735Y-80002048D01*
%TO.N,ENC2B*%
X176508049Y-95227671D02*
X201717763Y-88472747D01*
X139578255Y-89655086D02*
X139578251Y-101550664D01*
X160685232Y-99467386D02*
X171662481Y-96526034D01*
X136826088Y-77174801D02*
X135760853Y-78240028D01*
X201717763Y-88472747D02*
X201950461Y-88607100D01*
X160646750Y-99467379D02*
X160685232Y-99467386D01*
X136826087Y-74534800D02*
X136826088Y-77174801D01*
X139578251Y-101550664D02*
X140104828Y-102077232D01*
X135760853Y-86141473D02*
X138414461Y-88795084D01*
X135760846Y-82483490D02*
X135760853Y-86141473D01*
X214737575Y-98010170D02*
X220479530Y-96471619D01*
X171662481Y-96526034D02*
X172771433Y-97166294D01*
X220479530Y-96471619D02*
X220525803Y-96498332D01*
X158036900Y-102077234D02*
X160646750Y-99467379D01*
X203382892Y-92251022D02*
X202947739Y-92367617D01*
X140104828Y-102077232D02*
X158036900Y-102077234D01*
X213795329Y-98262642D02*
X203382892Y-92251022D01*
X135760853Y-78240028D02*
X135760846Y-82483490D01*
X172771433Y-97166294D02*
X175867797Y-96336627D01*
X214737575Y-98010170D02*
X213795329Y-98262642D01*
X175867797Y-96336627D02*
X176508049Y-95227671D01*
X138414461Y-88795084D02*
X138718261Y-88795086D01*
X138718261Y-88795086D02*
X139578255Y-89655086D01*
%TO.N,ENC2A*%
X140224831Y-101317232D02*
X140428839Y-101521245D01*
X142978257Y-95785088D02*
X140224836Y-98538512D01*
X160657409Y-98822617D02*
X171847740Y-95824175D01*
X141906089Y-75224178D02*
X141906091Y-74534799D01*
X172929327Y-96479732D02*
X175372901Y-95824975D01*
X160657397Y-98822611D02*
X160657409Y-98822617D01*
X157950823Y-101521243D02*
X160646542Y-98825521D01*
X141906089Y-74534794D02*
X141916092Y-74524794D01*
X142978258Y-89365084D02*
X142978257Y-95785088D01*
X141943665Y-88330500D02*
X142978258Y-89365084D01*
X138591939Y-88330502D02*
X141943665Y-88330500D01*
X140428839Y-101521245D02*
X157950823Y-101521243D01*
X171857600Y-95860976D02*
X172929327Y-96479732D01*
X140224836Y-98538512D02*
X140224831Y-101317232D01*
X136560850Y-78790037D02*
X136560851Y-83783483D01*
X136560851Y-78686151D02*
X136560850Y-78790037D01*
X171847740Y-95824175D02*
X171857600Y-95860976D01*
X213489754Y-93207255D02*
X216894171Y-92295041D01*
X175372901Y-95824975D02*
X176018604Y-94706591D01*
X160646542Y-98825521D02*
X160657397Y-98822611D01*
X213443481Y-93180545D02*
X213489754Y-93207255D01*
X203138822Y-87439750D02*
X213196698Y-93246668D01*
X141995213Y-77582487D02*
X137664514Y-77582487D01*
X136660849Y-83883489D02*
X136660847Y-86399407D01*
X136560851Y-83783483D02*
X136660849Y-83883489D01*
X176018604Y-94706591D02*
X203138822Y-87439750D01*
X213196698Y-93246668D02*
X213443481Y-93180545D01*
X136660847Y-86399407D02*
X138591939Y-88330502D01*
X137664514Y-77582487D02*
X136560851Y-78686151D01*
%TO.N,Net-(D41-Pad4)*%
X18305991Y-41801221D02*
X18581767Y-42278876D01*
X15019809Y-35575427D02*
X15351309Y-34338265D01*
X18581767Y-42278876D02*
X21506515Y-43062564D01*
X30465459Y-33619550D02*
X30739021Y-34093360D01*
X15351309Y-34338265D02*
X15394860Y-34313116D01*
X21506515Y-43062564D02*
X21927979Y-43792542D01*
X29018918Y-33231945D02*
X30465459Y-33619550D01*
%TO.N,Net-(D84-Pad2)*%
X259929714Y-33803146D02*
X259988540Y-33837109D01*
X257364776Y-55713587D02*
X256336498Y-55119910D01*
X258612762Y-55379187D02*
X257364776Y-55713587D01*
X258329781Y-34231847D02*
X259929714Y-33803146D01*
%TO.N,Net-(D85-Pad2)*%
X262272679Y-74068762D02*
X261599582Y-73680139D01*
X263247343Y-52584447D02*
X264940060Y-52130885D01*
X263530320Y-73731776D02*
X262272679Y-74068762D01*
X264940060Y-52130885D02*
X264941456Y-52128462D01*
%TO.N,Net-(D87-Pad2)*%
X147458256Y-89895088D02*
X147478254Y-89915083D01*
X145718262Y-89895087D02*
X147458256Y-89895088D01*
%TO.N,B-*%
X184832775Y-78913467D02*
X185091597Y-79879392D01*
X168269409Y-53720866D02*
X170440717Y-53139068D01*
X150107903Y-58005181D02*
X146014506Y-58005182D01*
X206759148Y-88120414D02*
X205841447Y-87590578D01*
X185169242Y-80169173D02*
X187618731Y-81583384D01*
X200158057Y-81188725D02*
X203806588Y-80211104D01*
X231477671Y-81497101D02*
X206759148Y-88120414D01*
X166440924Y-56692243D02*
X153732051Y-60097583D01*
X170440717Y-53139068D02*
X171716163Y-53875451D01*
X166574560Y-56656441D02*
X168269409Y-53720866D01*
X153732051Y-60097583D02*
X150107903Y-58005181D01*
X181846024Y-78005561D02*
X182811952Y-77746741D01*
X171716163Y-53875451D02*
X171827925Y-54292540D01*
X182811952Y-77746741D02*
X184281644Y-78595270D01*
X146014506Y-58005182D02*
X145830612Y-57821291D01*
X194533894Y-81697497D02*
X198977154Y-80506929D01*
X184281644Y-78595270D02*
X184832775Y-78913467D01*
X166440924Y-56692243D02*
X166574560Y-56656441D01*
X185091597Y-79879392D02*
X185169242Y-80169173D01*
X198977154Y-80506929D02*
X200158057Y-81188725D01*
%TO.N,B+*%
X243799237Y-86656369D02*
X238236097Y-88147005D01*
X168575611Y-37818234D02*
X145207997Y-44079571D01*
X143650018Y-45637550D02*
X145207997Y-44079571D01*
X182104253Y-31879193D02*
X182148226Y-31803030D01*
X204304167Y-78614814D02*
X200206902Y-79712671D01*
X170156140Y-35080683D02*
X168575611Y-37818234D01*
X207806616Y-87024568D02*
X207759948Y-86997629D01*
X142863332Y-45637546D02*
X141906088Y-46594792D01*
X170156140Y-35080683D02*
X182104253Y-31879193D01*
X142863332Y-45637546D02*
X143650018Y-45637550D01*
X200206902Y-79712671D02*
X200020249Y-79604911D01*
X238236097Y-88147005D02*
X236937238Y-87397101D01*
X234904982Y-79763583D02*
X207806616Y-87024568D01*
%TO.N,row4*%
X237767892Y-67383692D02*
X237645417Y-67312988D01*
X223890505Y-47336417D02*
X222977356Y-47581094D01*
X262761579Y-67863260D02*
X261921592Y-69318179D01*
X161382504Y-76695060D02*
X160558127Y-76219102D01*
X179066133Y-71246753D02*
X177977337Y-70618136D01*
X150401511Y-93215087D02*
X150402610Y-93216187D01*
X189444235Y-68465946D02*
X179066133Y-71246753D01*
X222060869Y-49168494D02*
X222343551Y-50223485D01*
X174898250Y-71443173D02*
X173784698Y-73371901D01*
X216039981Y-60923454D02*
X216716127Y-60742281D01*
X192461599Y-63239715D02*
X189444235Y-68465946D01*
X262647952Y-67439215D02*
X262761579Y-67863260D01*
X227858698Y-43328731D02*
X227811206Y-43301305D01*
X154718912Y-77783719D02*
X150459531Y-77783717D01*
X196272308Y-68646144D02*
X195480955Y-68858189D01*
X227858693Y-43328725D02*
X227811204Y-43301308D01*
X141963884Y-64412586D02*
X141916088Y-64364789D01*
X267417962Y-85839215D02*
X267644740Y-86685562D01*
X226406245Y-42979026D02*
X223890505Y-47336417D01*
X256730272Y-70709185D02*
X256154688Y-70376871D01*
X231272485Y-48818528D02*
X231217951Y-48787041D01*
X186297535Y-31978389D02*
X184858290Y-34471234D01*
X216716695Y-52659293D02*
X214412807Y-53276618D01*
X232821391Y-48403499D02*
X231272485Y-48818528D01*
X195480955Y-68858189D02*
X194617574Y-70353607D01*
X216716127Y-60742281D02*
X217389737Y-61131188D01*
X173784698Y-73371901D02*
X161382504Y-76695060D01*
X251638582Y-63667051D02*
X237767892Y-67383692D01*
X186437183Y-31940970D02*
X186297535Y-31978389D01*
X231211248Y-48783171D02*
X231217951Y-48787041D01*
X177977337Y-70618136D02*
X174898250Y-71443173D01*
X231358386Y-49311152D02*
X231217951Y-48787041D01*
X266560649Y-88563256D02*
X262436155Y-89668416D01*
X229910673Y-49131659D02*
X231211248Y-48783171D01*
X228427540Y-42437421D02*
X226406245Y-42979026D01*
X222977356Y-47581094D02*
X222060869Y-49168494D01*
X222343551Y-50223485D02*
X220969575Y-52603285D01*
X192919593Y-62446448D02*
X210512834Y-57732354D01*
X210990223Y-50163802D02*
X211350569Y-51508634D01*
X220969575Y-52603285D02*
X217998544Y-53399369D01*
X225841590Y-58866522D02*
X231358386Y-49311152D01*
X217389737Y-61131188D02*
X225841590Y-58866522D01*
X267644740Y-86685562D02*
X266560649Y-88563256D01*
X217998544Y-53399369D02*
X216716695Y-52659293D01*
X160558127Y-76219102D02*
X154718912Y-77783719D01*
X147478257Y-93215090D02*
X150401511Y-93215087D01*
X210512834Y-57732354D02*
X216039981Y-60923454D01*
X146452909Y-64412594D02*
X141963884Y-64412586D01*
X261921592Y-69318179D02*
X256730272Y-70709185D01*
X214412807Y-53276618D02*
X211350569Y-51508634D01*
X150459531Y-77783717D02*
X150402616Y-77726799D01*
X262436155Y-89668416D02*
X261235899Y-88975447D01*
X192461599Y-63239715D02*
X192919593Y-62446448D01*
%TO.N,row5*%
X104605514Y-111924254D02*
X104727391Y-111981084D01*
X164340585Y-110932772D02*
X164098740Y-111597235D01*
X211363428Y-100361361D02*
X210928613Y-98738605D01*
X85208322Y-102725917D02*
X85208303Y-102725923D01*
X151248328Y-119923479D02*
X148039545Y-122170295D01*
X37378749Y-91690515D02*
X36815913Y-91539712D01*
X147265976Y-122711953D02*
X147239206Y-122707232D01*
X104929179Y-112150886D02*
X105769655Y-112002687D01*
X85920921Y-103058208D02*
X86585384Y-102816363D01*
X87541101Y-103262020D02*
X88488634Y-103703861D01*
X98306647Y-107976636D02*
X98749581Y-109193585D01*
X142426119Y-118155945D02*
X142444830Y-118137224D01*
X71337087Y-97973860D02*
X77335485Y-99581127D01*
X55808328Y-90862401D02*
X58165633Y-94945374D01*
X169699206Y-108434007D02*
X169859055Y-107994820D01*
X36815913Y-91539712D02*
X36144282Y-90376423D01*
X165831603Y-110237498D02*
X164340585Y-110932772D01*
X186127342Y-101066987D02*
X185554878Y-102058520D01*
X93740194Y-105847266D02*
X98306647Y-107976636D01*
X105769655Y-112002687D02*
X106771223Y-112703994D01*
X70744641Y-98315908D02*
X71337087Y-97973860D01*
X88730477Y-104368324D02*
X92707858Y-106223010D01*
X98749581Y-109193585D02*
X104605514Y-111924254D01*
X185554878Y-102058520D02*
X179507048Y-103679036D01*
X66963540Y-97302766D02*
X70744641Y-98315908D01*
X205821421Y-95789969D02*
X186127342Y-101066987D01*
X163224091Y-112005091D02*
X157233825Y-116199522D01*
X124794441Y-118155948D02*
X142426119Y-118155945D01*
X142454835Y-122707231D02*
X147239206Y-122707232D01*
X141969890Y-66850988D02*
X141906083Y-66914794D01*
X88488634Y-103703861D02*
X88730477Y-104368324D01*
X210928613Y-98738605D02*
X205821421Y-95789969D01*
X92707858Y-106223010D02*
X93740194Y-105847266D01*
X156291226Y-116033324D02*
X151320566Y-119513815D01*
X164098740Y-111597235D02*
X163224091Y-112005091D01*
X179507048Y-103679036D02*
X175074643Y-105745892D01*
X78042588Y-100805875D02*
X85208303Y-102725923D01*
X165831603Y-110237498D02*
X169699206Y-108434007D01*
X106427798Y-105295485D02*
X124794441Y-118155948D01*
X77335485Y-99581127D02*
X78042588Y-100805875D01*
X148039545Y-122170295D02*
X147265976Y-122711953D01*
X175074643Y-105745892D02*
X174854072Y-105665614D01*
X85920921Y-103058208D02*
X85208322Y-102725917D01*
X151320566Y-119513815D02*
X151248328Y-119923479D01*
X37716740Y-86014775D02*
X55808328Y-90862401D01*
X174854072Y-105665614D02*
X169859055Y-107994820D01*
X157233825Y-116199522D02*
X156291226Y-116033324D01*
X104605514Y-111924254D02*
X104929179Y-112150886D01*
X86585384Y-102816363D02*
X87541101Y-103262020D01*
X58165633Y-94945374D02*
X66963540Y-97302766D01*
X147583216Y-66850988D02*
X141969890Y-66850988D01*
%TO.N,Net-(J2-Pad2)*%
X237313465Y-93684839D02*
X236674269Y-93315798D01*
X243154835Y-92119651D02*
X237313465Y-93684839D01*
X236674269Y-93315798D02*
X236276068Y-91829689D01*
%TO.N,unconnected-(U3-Pad27)*%
X134296089Y-74524791D02*
X134286084Y-74534796D01*
%TD*%
M02*
