%TF.GenerationSoftware,KiCad,Pcbnew,(6.0.0)*%
%TF.CreationDate,2022-06-18T03:58:35-07:00*%
%TF.ProjectId,ffkb,66666b62-2e6b-4696-9361-645f70636258,rev?*%
%TF.SameCoordinates,Original*%
%TF.FileFunction,Legend,Top*%
%TF.FilePolarity,Positive*%
%FSLAX46Y46*%
G04 Gerber Fmt 4.6, Leading zero omitted, Abs format (unit mm)*
G04 Created by KiCad (PCBNEW (6.0.0)) date 2022-06-18 03:58:35*
%MOMM*%
%LPD*%
G01*
G04 APERTURE LIST*
%ADD10C,0.500000*%
%ADD11C,0.300000*%
%ADD12C,0.200000*%
%ADD13C,0.150000*%
%ADD14C,0.120000*%
%ADD15C,0.381000*%
%ADD16R,1.752600X1.752600*%
%ADD17C,1.752600*%
G04 APERTURE END LIST*
D10*
X153546410Y-101217525D02*
X153031085Y-100835302D01*
X152552564Y-100398222D01*
X152104821Y-99912868D01*
X151785588Y-99521133D01*
X151477739Y-99108724D01*
X151178731Y-98678419D01*
X150886024Y-98232994D01*
X150597077Y-97775227D01*
X150309347Y-97307896D01*
X150116950Y-96992400D01*
X141851968Y-109093108D02*
X141851968Y-109093108D01*
X127464839Y-89907781D02*
X127590995Y-89399176D01*
X127741445Y-88896374D01*
X127857892Y-88557540D01*
X143728191Y-103563455D02*
X143839780Y-104060111D01*
X144182714Y-104481450D01*
X144687333Y-104695835D01*
X144859610Y-104709034D01*
X134794391Y-110150461D02*
X134460133Y-109756342D01*
X134098896Y-109358447D01*
X133841172Y-109093045D01*
X122133868Y-102847042D02*
X122720922Y-103249422D01*
X123218604Y-103592617D01*
X123834259Y-104019311D01*
X124546397Y-104515747D01*
X125333531Y-105068166D01*
X125748505Y-105361069D01*
X126174170Y-105662808D01*
X126607840Y-105971664D01*
X127046828Y-106285915D01*
X127488448Y-106603844D01*
X127930014Y-106923729D01*
X128368839Y-107243851D01*
X128802239Y-107562490D01*
X129227527Y-107877926D01*
X129642016Y-108188439D01*
X130043021Y-108492310D01*
X130793832Y-109073244D01*
X131458473Y-109606970D01*
X132015454Y-110079729D01*
X132443287Y-110477762D01*
X122146632Y-101204183D02*
X120913204Y-102016118D01*
X141851968Y-109093108D02*
X141501199Y-109458119D01*
X141147057Y-109855442D01*
X140898669Y-110150520D01*
X141708160Y-112318120D02*
X142015087Y-111920007D01*
X142333230Y-111518703D01*
X142669306Y-111116911D01*
X143030034Y-110717335D01*
X143249819Y-110491040D01*
X136724529Y-111604801D02*
X136733267Y-111375536D01*
X138968667Y-111604796D02*
X138987541Y-112114737D01*
X138998304Y-112465559D01*
X131964878Y-103563454D02*
X131853265Y-103066766D01*
X131510470Y-102645437D01*
X131006303Y-102431073D01*
X130834245Y-102417878D01*
X137846571Y-112990631D02*
X137320579Y-112889226D01*
X136868409Y-112615895D01*
X136694903Y-112465558D01*
X149752485Y-96396216D02*
X149922793Y-95880886D01*
X150067372Y-95372491D01*
X150187532Y-94871612D01*
X150284580Y-94378830D01*
X150414588Y-93419875D01*
X150467873Y-92500273D01*
X150454915Y-91624669D01*
X150386194Y-90797707D01*
X150272188Y-90024034D01*
X150123376Y-89308293D01*
X149950238Y-88655130D01*
X149763253Y-88069191D01*
X149572899Y-87555119D01*
X149303975Y-86928927D01*
X149031426Y-86388897D01*
X148937372Y-86225367D01*
X144859614Y-102417875D02*
X144369204Y-102530829D01*
X143953037Y-102878006D01*
X143741232Y-103388979D01*
X143728191Y-103563455D01*
X136694903Y-112465558D02*
X136711454Y-111951622D01*
X136724529Y-111604801D01*
X154779966Y-102029401D02*
X153546410Y-101217525D01*
X129661750Y-91846518D02*
X129251855Y-92189744D01*
X128864959Y-92545310D01*
X128499266Y-92912018D01*
X128152977Y-93288671D01*
X127824296Y-93674070D01*
X127511425Y-94067018D01*
X127390302Y-94226043D01*
X133984976Y-112318117D02*
X134376028Y-112823143D01*
X134772188Y-113306895D01*
X135183994Y-113755175D01*
X135621984Y-114153787D01*
X136096699Y-114488532D01*
X136618676Y-114745212D01*
X137198456Y-114909631D01*
X137846576Y-114967590D01*
X130834245Y-102417878D02*
X130834245Y-102417878D01*
X132443318Y-110491040D02*
X132821116Y-110888139D01*
X133170442Y-111288994D01*
X133498014Y-111690905D01*
X133810549Y-112091171D01*
X133984976Y-112318117D01*
X147836446Y-88556166D02*
X148004555Y-89059250D01*
X148163586Y-89631463D01*
X148302342Y-90267556D01*
X148386370Y-90783388D01*
X148447973Y-91329985D01*
X148482430Y-91905132D01*
X148485016Y-92506615D01*
X148451009Y-93132218D01*
X148375686Y-93779728D01*
X148300186Y-94222478D01*
X126025717Y-99969085D02*
X126308310Y-99549455D01*
X126582850Y-99124311D01*
X126851156Y-98695806D01*
X127115047Y-98266093D01*
X127264559Y-98020831D01*
X145404453Y-91382702D02*
X147836446Y-88556166D01*
X137846576Y-114967590D02*
X138494689Y-114909627D01*
X139074463Y-114745207D01*
X139596438Y-114488526D01*
X140071150Y-114153781D01*
X140509140Y-113755171D01*
X140920946Y-113306892D01*
X141317106Y-112823143D01*
X141708160Y-112318120D01*
X144859614Y-102417875D02*
X144859614Y-102417875D01*
X148428711Y-98020831D02*
X148690889Y-98450237D01*
X148956447Y-98879696D01*
X149227203Y-99307038D01*
X149504978Y-99730096D01*
X149667558Y-99969086D01*
X130288672Y-91382836D02*
X129873763Y-91681716D01*
X129661750Y-91846518D01*
X129702827Y-103563448D02*
X129814415Y-104060103D01*
X130157349Y-104481442D01*
X130661972Y-104695829D01*
X130834251Y-104709029D01*
X137846562Y-89327353D02*
X137230241Y-89336718D01*
X136629723Y-89364864D01*
X136044795Y-89411854D01*
X135475244Y-89477754D01*
X134920856Y-89562628D01*
X134381417Y-89666542D01*
X133856714Y-89789560D01*
X133346535Y-89931747D01*
X132850664Y-90093168D01*
X132368889Y-90273889D01*
X132055432Y-90405124D01*
X127857892Y-88557540D02*
X130288672Y-91382836D01*
X131300182Y-101348497D02*
X131858865Y-101395574D01*
X132359818Y-101537696D01*
X132806376Y-101776197D01*
X133201873Y-102112412D01*
X132055432Y-90405124D02*
X127463526Y-85068092D01*
X148229547Y-85068157D02*
X143637708Y-90405126D01*
X133201873Y-102112412D02*
X133600186Y-102617877D01*
X133928910Y-103219590D01*
X134194300Y-103902002D01*
X134339130Y-104394099D01*
X134460444Y-104910545D01*
X134560095Y-105446735D01*
X134639938Y-105998060D01*
X134701824Y-106559914D01*
X134747607Y-107127691D01*
X134779141Y-107696783D01*
X134798278Y-108262584D01*
X134806872Y-108820487D01*
X134806776Y-109365886D01*
X134799842Y-109894173D01*
X134794391Y-110150461D01*
X138907744Y-109398709D02*
X138907744Y-109398709D01*
X149667558Y-99969086D02*
X149102134Y-99849124D01*
X148506230Y-99737181D01*
X147881673Y-99635716D01*
X147230288Y-99547187D01*
X146725244Y-99490757D01*
X146206907Y-99444024D01*
X145676050Y-99408024D01*
X145133443Y-99383795D01*
X144579856Y-99372373D01*
X144393021Y-99371592D01*
X148300186Y-94222478D02*
X147993456Y-93827436D01*
X147671662Y-93439463D01*
X147333014Y-93059747D01*
X146975723Y-92689474D01*
X146598001Y-92329831D01*
X146198057Y-91982003D01*
X146031458Y-91846447D01*
X130834251Y-104709029D02*
X131324188Y-104596067D01*
X131740102Y-104248873D01*
X131951837Y-103737914D01*
X131964878Y-103563454D01*
X126755693Y-86225309D02*
X126469115Y-86761108D01*
X126213393Y-87326441D01*
X126025286Y-87802844D01*
X125835305Y-88353438D01*
X125653929Y-88973577D01*
X125491638Y-89658616D01*
X125358912Y-90403909D01*
X125266231Y-91204810D01*
X125224073Y-92056674D01*
X125242919Y-92954854D01*
X125333249Y-93894706D01*
X125505541Y-94871582D01*
X125625699Y-95372453D01*
X125770277Y-95880839D01*
X125940586Y-96396158D01*
X147836446Y-88556166D02*
X147836446Y-88556166D01*
X134626261Y-100741538D02*
X134198389Y-100348298D01*
X133735470Y-100020993D01*
X133238214Y-99759918D01*
X132707331Y-99565365D01*
X132143528Y-99437626D01*
X131547516Y-99376996D01*
X131300252Y-99371600D01*
X138959927Y-111375545D02*
X138968667Y-111604796D01*
X144798563Y-93391823D02*
X145228375Y-93757218D01*
X145632555Y-94144118D01*
X146013566Y-94549991D01*
X146373872Y-94972302D01*
X146715937Y-95408520D01*
X147042226Y-95856111D01*
X147355202Y-96312543D01*
X147657331Y-96775283D01*
X147951075Y-97241797D01*
X148238899Y-97709554D01*
X148428711Y-98020831D01*
X148937372Y-86225367D02*
X148229547Y-85068157D01*
X127390302Y-94226043D02*
X127301133Y-93694887D01*
X127240063Y-93160826D01*
X127207112Y-92624081D01*
X127202300Y-92084870D01*
X127225646Y-91543414D01*
X127277171Y-90999934D01*
X127356895Y-90454649D01*
X127464839Y-89907781D01*
X131300252Y-99371600D02*
X130743175Y-99378520D01*
X130196822Y-99398594D01*
X129661961Y-99430784D01*
X129139365Y-99474054D01*
X128629804Y-99527365D01*
X127971997Y-99612276D01*
X127340562Y-99710737D01*
X126737325Y-99820290D01*
X126164114Y-99938477D01*
X126025717Y-99969085D01*
X146031458Y-91846447D02*
X145623468Y-91536708D01*
X145404453Y-91382702D01*
X127463526Y-85068092D02*
X126755693Y-86225309D01*
X127464839Y-89907781D02*
X127464839Y-89907781D01*
X138907744Y-109398709D02*
X136785458Y-109398710D01*
X134794391Y-110150461D02*
X134794391Y-110150461D01*
X133841172Y-109093045D02*
X133332197Y-108620370D01*
X132907026Y-108256531D01*
X132422997Y-107859959D01*
X131888536Y-107436008D01*
X131312065Y-106990033D01*
X130702008Y-106527387D01*
X130066789Y-106053423D01*
X129414832Y-105573496D01*
X128754561Y-105092959D01*
X128094399Y-104617165D01*
X127442770Y-104151470D01*
X126808098Y-103701226D01*
X126198807Y-103271787D01*
X125623320Y-102868507D01*
X125090060Y-102496740D01*
X124841899Y-102324347D01*
X127264559Y-98020831D02*
X127549803Y-97553635D01*
X127839326Y-97086000D01*
X128135590Y-96620457D01*
X128441060Y-96159537D01*
X128758201Y-95705773D01*
X129089475Y-95261697D01*
X129437347Y-94829839D01*
X129804281Y-94412732D01*
X130192742Y-94012907D01*
X130605192Y-93632897D01*
X130894704Y-93391815D01*
X138998304Y-112465559D02*
X138583015Y-112784271D01*
X138080062Y-112971922D01*
X137846571Y-112990631D01*
X136733267Y-111375536D02*
X138959927Y-111375545D01*
X125576099Y-96979048D02*
X125287782Y-97451229D01*
X124999934Y-97915691D01*
X124710013Y-98369657D01*
X124415482Y-98810352D01*
X124113799Y-99234998D01*
X123802428Y-99640820D01*
X123478827Y-100025041D01*
X123023948Y-100498937D01*
X122536796Y-100922916D01*
X122146632Y-101204183D01*
X130834245Y-102417878D02*
X130343840Y-102530834D01*
X129927677Y-102878009D01*
X129715871Y-103388975D01*
X129702827Y-103563448D01*
X153546410Y-101217525D02*
X153546410Y-101217525D01*
X150116950Y-96992400D02*
X149855564Y-96564139D01*
X149752485Y-96396216D01*
X125940586Y-96396158D02*
X125678116Y-96824961D01*
X125576119Y-96992332D01*
X143637708Y-90405126D02*
X143165211Y-90211487D01*
X142678764Y-90037197D01*
X142178152Y-89882190D01*
X141663161Y-89746401D01*
X141133576Y-89629762D01*
X140589181Y-89532207D01*
X140029764Y-89453672D01*
X139455108Y-89394088D01*
X138864999Y-89353391D01*
X138259222Y-89331514D01*
X137846562Y-89327353D01*
X144859610Y-104709034D02*
X145349550Y-104596068D01*
X145765468Y-104248870D01*
X145977201Y-103737908D01*
X145990240Y-103563447D01*
X150848925Y-102325931D02*
X150339859Y-102679996D01*
X149784418Y-103068208D01*
X149191018Y-103485217D01*
X148568075Y-103925675D01*
X147924005Y-104384232D01*
X147267225Y-104855540D01*
X146606151Y-105334249D01*
X145949200Y-105815011D01*
X145304788Y-106292475D01*
X144681331Y-106761295D01*
X144087245Y-107216119D01*
X143530948Y-107651600D01*
X143020855Y-108062389D01*
X142565383Y-108443135D01*
X142172949Y-108788491D01*
X141851968Y-109093108D01*
X124841899Y-102324347D02*
X125437120Y-102153655D01*
X125931006Y-102025056D01*
X126462937Y-101899290D01*
X127030536Y-101779353D01*
X127631424Y-101668245D01*
X128263223Y-101568961D01*
X128923553Y-101484499D01*
X129610037Y-101417858D01*
X130320296Y-101372033D01*
X131051952Y-101350023D01*
X131300182Y-101348497D01*
X142491192Y-102112492D02*
X142886679Y-101776244D01*
X143333223Y-101537742D01*
X143834176Y-101395632D01*
X144392892Y-101348560D01*
X137846635Y-91304183D02*
X138386097Y-91312194D01*
X138910676Y-91336266D01*
X139420560Y-91376457D01*
X140158251Y-91467090D01*
X140863952Y-91594313D01*
X141538306Y-91758318D01*
X142181955Y-91959300D01*
X142795543Y-92197453D01*
X143379712Y-92472969D01*
X143935106Y-92786044D01*
X144462367Y-93136870D01*
X144798563Y-93391823D01*
X143249819Y-110491040D02*
X143677641Y-110093005D01*
X144234613Y-109620244D01*
X144899247Y-109086515D01*
X145650053Y-108505577D01*
X146051055Y-108201704D01*
X146465542Y-107891189D01*
X146890828Y-107575752D01*
X147324226Y-107257111D01*
X147763051Y-106936988D01*
X148204616Y-106617101D01*
X148646236Y-106299172D01*
X149085224Y-105984919D01*
X149518893Y-105676062D01*
X149944559Y-105374323D01*
X150359535Y-105081419D01*
X151146671Y-104529001D01*
X151858814Y-104032566D01*
X152474475Y-103605875D01*
X152972164Y-103262685D01*
X153450496Y-102934565D01*
X153559244Y-102860327D01*
X137846571Y-112990631D02*
X137846571Y-112990631D01*
X141067003Y-100741540D02*
X140727828Y-101132710D01*
X140424966Y-101560086D01*
X140156471Y-102020192D01*
X139920397Y-102509554D01*
X139714795Y-103024695D01*
X139537721Y-103562140D01*
X139387228Y-104118413D01*
X139261369Y-104690040D01*
X139158197Y-105273544D01*
X139075766Y-105865450D01*
X139012130Y-106462283D01*
X138965343Y-107060568D01*
X138933457Y-107656828D01*
X138914526Y-108247588D01*
X138906604Y-108829374D01*
X138907744Y-109398709D01*
X130894704Y-93391815D02*
X131403567Y-93015733D01*
X131940135Y-92677524D01*
X132505050Y-92376996D01*
X133098954Y-92113957D01*
X133722491Y-91888213D01*
X134376304Y-91699573D01*
X135061036Y-91547843D01*
X135777329Y-91432832D01*
X136525827Y-91354346D01*
X137043034Y-91322220D01*
X137575031Y-91306184D01*
X137846635Y-91304183D01*
X144392892Y-101348560D02*
X145128502Y-101361996D01*
X145844229Y-101400295D01*
X146537619Y-101460450D01*
X147206220Y-101539456D01*
X147847577Y-101634305D01*
X148459239Y-101741992D01*
X149038751Y-101859509D01*
X149583660Y-101983851D01*
X150091513Y-102112011D01*
X150706767Y-102283634D01*
X150848925Y-102325931D01*
X145990240Y-103563447D02*
X145878668Y-103066763D01*
X145535885Y-102645438D01*
X145031689Y-102431072D01*
X144859614Y-102417875D01*
X140898669Y-110150520D02*
X140889012Y-109632517D01*
X140885266Y-109095097D01*
X140889284Y-108542869D01*
X140902918Y-107980438D01*
X140928022Y-107412413D01*
X140966450Y-106843399D01*
X141020053Y-106278005D01*
X141090686Y-105720837D01*
X141180202Y-105176502D01*
X141290453Y-104649608D01*
X141423294Y-104144762D01*
X141580576Y-103666570D01*
X141866383Y-103009338D01*
X142217609Y-102437994D01*
X142491192Y-102112492D01*
X144393021Y-99371592D02*
X143784344Y-99405301D01*
X143207580Y-99506234D01*
X142663441Y-99674097D01*
X142152640Y-99908598D01*
X141675891Y-100209446D01*
X141233904Y-100576349D01*
X141067003Y-100741540D01*
X153559244Y-102860327D02*
X154779966Y-102029401D01*
X120913204Y-102016118D02*
X122133868Y-102847042D01*
X136785458Y-109398710D02*
X136786597Y-108829386D01*
X136778673Y-108247611D01*
X136759740Y-107656858D01*
X136727851Y-107060605D01*
X136681061Y-106462326D01*
X136617422Y-105865496D01*
X136534990Y-105273592D01*
X136431818Y-104690088D01*
X136305959Y-104118461D01*
X136155468Y-103562185D01*
X135978399Y-103024736D01*
X135772805Y-102509589D01*
X135536740Y-102020221D01*
X135268259Y-101560106D01*
X134965414Y-101132719D01*
X134626261Y-100741538D01*
D11*
X112303664Y-87345064D02*
X111989384Y-88517974D01*
X111883415Y-88637476D01*
X111795933Y-88687984D01*
X111639457Y-88720004D01*
X111432473Y-88664543D01*
X111312970Y-88558574D01*
X112063332Y-88241995D02*
X111906856Y-88274015D01*
X111630877Y-88200067D01*
X111511375Y-88094098D01*
X111460867Y-88006617D01*
X111428846Y-87850140D01*
X111539769Y-87436172D01*
X111645738Y-87316669D01*
X111733219Y-87266162D01*
X111889696Y-87234141D01*
X112165675Y-87308090D01*
X112285177Y-87414058D01*
X112993611Y-87529935D02*
X112734792Y-88495860D01*
X112956637Y-87667924D02*
X113044119Y-87617416D01*
X113200595Y-87585396D01*
X113407579Y-87640857D01*
X113527082Y-87746826D01*
X113559102Y-87903302D01*
X113355744Y-88662244D01*
X114666644Y-89013498D02*
X115054872Y-87564610D01*
X114685131Y-88944504D02*
X114528654Y-88976524D01*
X114252676Y-88902576D01*
X114133173Y-88796607D01*
X114082666Y-88709125D01*
X114050645Y-88552649D01*
X114161568Y-88138681D01*
X114267536Y-88019178D01*
X114355018Y-87968671D01*
X114511495Y-87936650D01*
X114787473Y-88010598D01*
X114906976Y-88116567D01*
X114225260Y-81056713D02*
X114344762Y-81162682D01*
X114620741Y-81236630D01*
X114777218Y-81204610D01*
X114883186Y-81085107D01*
X114901674Y-81016113D01*
X114869653Y-80859636D01*
X114750151Y-80753667D01*
X114543167Y-80698206D01*
X114423664Y-80592237D01*
X114391644Y-80435761D01*
X114410131Y-80366766D01*
X114516100Y-80247264D01*
X114672576Y-80215243D01*
X114879560Y-80270704D01*
X114999063Y-80376673D01*
X116088117Y-81555864D02*
X115931641Y-81587885D01*
X115655662Y-81513936D01*
X115536159Y-81407967D01*
X115485652Y-81320486D01*
X115453631Y-81164009D01*
X115564554Y-80750041D01*
X115670522Y-80630539D01*
X115758004Y-80580031D01*
X115914481Y-80548010D01*
X116190460Y-80621959D01*
X116309962Y-80727928D01*
X116897566Y-81846704D02*
X116778064Y-81740735D01*
X116746043Y-81584258D01*
X117078811Y-80342354D01*
X111928767Y-84190549D02*
X112825698Y-84430881D01*
X112194839Y-84853429D01*
X112401823Y-84908890D01*
X112521325Y-85014859D01*
X112571833Y-85102341D01*
X112603853Y-85258818D01*
X112511418Y-85603791D01*
X112405449Y-85723293D01*
X112317967Y-85773801D01*
X112161491Y-85805822D01*
X111747523Y-85694899D01*
X111628020Y-85588930D01*
X111577513Y-85501448D01*
X113095396Y-85908164D02*
X113145904Y-85995646D01*
X113058422Y-86046153D01*
X113007914Y-85958672D01*
X113095396Y-85908164D01*
X113058422Y-86046153D01*
X113998608Y-84745161D02*
X114895539Y-84985493D01*
X114264680Y-85408041D01*
X114471664Y-85463503D01*
X114591166Y-85569471D01*
X114641674Y-85656953D01*
X114673694Y-85813430D01*
X114581259Y-86158403D01*
X114475290Y-86277906D01*
X114387808Y-86328413D01*
X114231332Y-86360434D01*
X113817364Y-86249511D01*
X113697861Y-86143542D01*
X113647354Y-86056061D01*
X115309507Y-85096416D02*
X115404242Y-86674714D01*
X116275433Y-85355235D01*
X114921640Y-82404293D02*
X114231693Y-82219422D01*
X113977828Y-82890882D01*
X114065309Y-82840375D01*
X114221786Y-82808354D01*
X114566759Y-82900790D01*
X114686262Y-83006758D01*
X114736769Y-83094240D01*
X114768790Y-83250717D01*
X114676354Y-83595690D01*
X114570386Y-83715192D01*
X114482904Y-83765700D01*
X114326427Y-83797721D01*
X113981454Y-83705285D01*
X113861952Y-83599316D01*
X113811444Y-83511835D01*
X115404603Y-82533703D02*
X115499337Y-84112001D01*
X116370529Y-82792522D01*
X114710191Y-78391407D02*
X114829693Y-78497376D01*
X115105672Y-78571324D01*
X115262148Y-78539304D01*
X115368117Y-78419801D01*
X115386604Y-78350807D01*
X115354584Y-78194330D01*
X115235082Y-78088361D01*
X115028097Y-78032900D01*
X114908595Y-77926931D01*
X114876575Y-77770455D01*
X114895062Y-77701460D01*
X115001030Y-77581958D01*
X115157507Y-77549937D01*
X115364491Y-77605399D01*
X115483993Y-77711367D01*
X116554561Y-78959553D02*
X116942789Y-77510664D01*
X116573048Y-78890558D02*
X116416571Y-78922579D01*
X116140593Y-78848630D01*
X116021090Y-78742662D01*
X115970583Y-78655180D01*
X115938562Y-78498703D01*
X116049484Y-78084735D01*
X116155453Y-77965233D01*
X116242935Y-77914725D01*
X116399412Y-77882705D01*
X116675390Y-77956653D01*
X116794893Y-78062622D01*
X117865460Y-79310807D02*
X118068818Y-78551866D01*
X118036797Y-78395389D01*
X117917295Y-78289420D01*
X117641316Y-78215472D01*
X117484840Y-78247493D01*
X117883947Y-79241813D02*
X117727471Y-79273833D01*
X117382497Y-79181398D01*
X117262995Y-79075429D01*
X117230974Y-78918952D01*
X117267948Y-78780963D01*
X117373917Y-78661461D01*
X117530394Y-78629440D01*
X117875367Y-78721876D01*
X118031844Y-78689855D01*
D12*
%TO.C,D57*%
X136492344Y-72866565D02*
X136492344Y-71866565D01*
X136730439Y-71866565D01*
X136873296Y-71914185D01*
X136968534Y-72009423D01*
X137016153Y-72104661D01*
X137063772Y-72295137D01*
X137063772Y-72437994D01*
X137016153Y-72628470D01*
X136968534Y-72723708D01*
X136873296Y-72818946D01*
X136730439Y-72866565D01*
X136492344Y-72866565D01*
X137968534Y-71866565D02*
X137492344Y-71866565D01*
X137444725Y-72342756D01*
X137492344Y-72295137D01*
X137587582Y-72247518D01*
X137825677Y-72247518D01*
X137920915Y-72295137D01*
X137968534Y-72342756D01*
X138016153Y-72437994D01*
X138016153Y-72676089D01*
X137968534Y-72771327D01*
X137920915Y-72818946D01*
X137825677Y-72866565D01*
X137587582Y-72866565D01*
X137492344Y-72818946D01*
X137444725Y-72771327D01*
X138349487Y-71866565D02*
X139016153Y-71866565D01*
X138587582Y-72866565D01*
D13*
%TO.C,*%
%TO.C,J5*%
X109303016Y-34337511D02*
X110017302Y-34337511D01*
X110160159Y-34385130D01*
X110255397Y-34480368D01*
X110303016Y-34623225D01*
X110303016Y-34718463D01*
X109303016Y-33385130D02*
X109303016Y-33861320D01*
X109779207Y-33908939D01*
X109731588Y-33861320D01*
X109683969Y-33766082D01*
X109683969Y-33527987D01*
X109731588Y-33432749D01*
X109779207Y-33385130D01*
X109874445Y-33337511D01*
X110112540Y-33337511D01*
X110207778Y-33385130D01*
X110255397Y-33432749D01*
X110303016Y-33527987D01*
X110303016Y-33766082D01*
X110255397Y-33861320D01*
X110207778Y-33908939D01*
%TO.C,Brd1*%
X136239962Y-68728759D02*
X136382819Y-68776378D01*
X136430438Y-68823997D01*
X136478057Y-68919235D01*
X136478057Y-69062092D01*
X136430438Y-69157330D01*
X136382819Y-69204949D01*
X136287581Y-69252568D01*
X135906629Y-69252568D01*
X135906629Y-68252568D01*
X136239962Y-68252568D01*
X136335200Y-68300188D01*
X136382819Y-68347807D01*
X136430438Y-68443045D01*
X136430438Y-68538283D01*
X136382819Y-68633521D01*
X136335200Y-68681140D01*
X136239962Y-68728759D01*
X135906629Y-68728759D01*
X136906629Y-69252568D02*
X136906629Y-68585902D01*
X136906629Y-68776378D02*
X136954248Y-68681140D01*
X137001867Y-68633521D01*
X137097105Y-68585902D01*
X137192343Y-68585902D01*
X137954248Y-69252568D02*
X137954248Y-68252568D01*
X137954248Y-69204949D02*
X137859009Y-69252568D01*
X137668533Y-69252568D01*
X137573295Y-69204949D01*
X137525676Y-69157330D01*
X137478057Y-69062092D01*
X137478057Y-68776378D01*
X137525676Y-68681140D01*
X137573295Y-68633521D01*
X137668533Y-68585902D01*
X137859009Y-68585902D01*
X137954248Y-68633521D01*
X138954248Y-69252568D02*
X138382819Y-69252568D01*
X138668533Y-69252568D02*
X138668533Y-68252568D01*
X138573295Y-68395426D01*
X138478057Y-68490664D01*
X138382819Y-68538283D01*
%TO.C,J6*%
X78551564Y-69093864D02*
X79241511Y-69278734D01*
X79367176Y-69361705D01*
X79434519Y-69478347D01*
X79443542Y-69628661D01*
X79418892Y-69720654D01*
X78785734Y-68219931D02*
X78736435Y-68403917D01*
X78757782Y-68508234D01*
X78791454Y-68566555D01*
X78904794Y-68695522D01*
X79076455Y-68790818D01*
X79444427Y-68889416D01*
X79548744Y-68868068D01*
X79607065Y-68834397D01*
X79677711Y-68754728D01*
X79727010Y-68570743D01*
X79705663Y-68466425D01*
X79671991Y-68408104D01*
X79592323Y-68337458D01*
X79362341Y-68275834D01*
X79258023Y-68297181D01*
X79199702Y-68330853D01*
X79129056Y-68410521D01*
X79079757Y-68594507D01*
X79101104Y-68698825D01*
X79134776Y-68757146D01*
X79214444Y-68827792D01*
%TO.C,U4*%
X131934286Y-25496083D02*
X132391429Y-25496083D01*
X132162858Y-26296083D02*
X132162858Y-25496083D01*
X132581905Y-25496083D02*
X133115239Y-26296083D01*
X133115239Y-25496083D02*
X132581905Y-26296083D01*
X133572382Y-25496083D02*
X133648572Y-25496083D01*
X133724763Y-25534179D01*
X133762858Y-25572274D01*
X133800953Y-25648464D01*
X133839048Y-25800845D01*
X133839048Y-25991321D01*
X133800953Y-26143702D01*
X133762858Y-26219893D01*
X133724763Y-26257988D01*
X133648572Y-26296083D01*
X133572382Y-26296083D01*
X133496191Y-26257988D01*
X133458096Y-26219893D01*
X133420001Y-26143702D01*
X133381905Y-25991321D01*
X133381905Y-25800845D01*
X133420001Y-25648464D01*
X133458096Y-25572274D01*
X133496191Y-25534179D01*
X133572382Y-25496083D01*
X134753334Y-25457988D02*
X134067620Y-26486559D01*
X135020001Y-26296083D02*
X135020001Y-25496083D01*
X135210477Y-25496083D01*
X135324763Y-25534179D01*
X135400953Y-25610369D01*
X135439048Y-25686559D01*
X135477143Y-25838940D01*
X135477143Y-25953226D01*
X135439048Y-26105607D01*
X135400953Y-26181798D01*
X135324763Y-26257988D01*
X135210477Y-26296083D01*
X135020001Y-26296083D01*
X135743810Y-25496083D02*
X136239048Y-25496083D01*
X135972382Y-25800845D01*
X136086667Y-25800845D01*
X136162858Y-25838940D01*
X136200953Y-25877036D01*
X136239048Y-25953226D01*
X136239048Y-26143702D01*
X136200953Y-26219893D01*
X136162858Y-26257988D01*
X136086667Y-26296083D01*
X135858096Y-26296083D01*
X135781905Y-26257988D01*
X135743810Y-26219893D01*
X142890968Y-41117036D02*
X142624301Y-41117036D01*
X142624301Y-41536083D02*
X142624301Y-40736083D01*
X143005254Y-40736083D01*
X143652873Y-40736083D02*
X143500492Y-40736083D01*
X143424301Y-40774179D01*
X143386206Y-40812274D01*
X143310015Y-40926559D01*
X143271920Y-41078940D01*
X143271920Y-41383702D01*
X143310015Y-41459893D01*
X143348111Y-41497988D01*
X143424301Y-41536083D01*
X143576682Y-41536083D01*
X143652873Y-41497988D01*
X143690968Y-41459893D01*
X143729063Y-41383702D01*
X143729063Y-41193226D01*
X143690968Y-41117036D01*
X143652873Y-41078940D01*
X143576682Y-41040845D01*
X143424301Y-41040845D01*
X143348111Y-41078940D01*
X143310015Y-41117036D01*
X143271920Y-41193226D01*
X142090968Y-33116083D02*
X142357635Y-33916083D01*
X142624301Y-33116083D01*
X143348111Y-33839893D02*
X143310015Y-33877988D01*
X143195730Y-33916083D01*
X143119539Y-33916083D01*
X143005254Y-33877988D01*
X142929063Y-33801798D01*
X142890968Y-33725607D01*
X142852873Y-33573226D01*
X142852873Y-33458940D01*
X142890968Y-33306559D01*
X142929063Y-33230369D01*
X143005254Y-33154179D01*
X143119539Y-33116083D01*
X143195730Y-33116083D01*
X143310015Y-33154179D01*
X143348111Y-33192274D01*
X144148111Y-33839893D02*
X144110015Y-33877988D01*
X143995730Y-33916083D01*
X143919539Y-33916083D01*
X143805254Y-33877988D01*
X143729063Y-33801798D01*
X143690968Y-33725607D01*
X143652873Y-33573226D01*
X143652873Y-33458940D01*
X143690968Y-33306559D01*
X143729063Y-33230369D01*
X143805254Y-33154179D01*
X143919539Y-33116083D01*
X143995730Y-33116083D01*
X144110015Y-33154179D01*
X144148111Y-33192274D01*
X142896421Y-31307988D02*
X143010707Y-31346083D01*
X143201183Y-31346083D01*
X143277374Y-31307988D01*
X143315469Y-31269893D01*
X143353564Y-31193702D01*
X143353564Y-31117512D01*
X143315469Y-31041321D01*
X143277374Y-31003226D01*
X143201183Y-30965131D01*
X143048802Y-30927036D01*
X142972612Y-30888940D01*
X142934516Y-30850845D01*
X142896421Y-30774655D01*
X142896421Y-30698464D01*
X142934516Y-30622274D01*
X142972612Y-30584179D01*
X143048802Y-30546083D01*
X143239278Y-30546083D01*
X143353564Y-30584179D01*
X143582135Y-30546083D02*
X144039278Y-30546083D01*
X143810707Y-31346083D02*
X143810707Y-30546083D01*
X131683254Y-48737036D02*
X131949920Y-48737036D01*
X132064206Y-49156083D02*
X131683254Y-49156083D01*
X131683254Y-48356083D01*
X132064206Y-48356083D01*
X132749920Y-48356083D02*
X132597539Y-48356083D01*
X132521349Y-48394179D01*
X132483254Y-48432274D01*
X132407063Y-48546559D01*
X132368968Y-48698940D01*
X132368968Y-49003702D01*
X132407063Y-49079893D01*
X132445158Y-49117988D01*
X132521349Y-49156083D01*
X132673730Y-49156083D01*
X132749920Y-49117988D01*
X132788015Y-49079893D01*
X132826111Y-49003702D01*
X132826111Y-48813226D01*
X132788015Y-48737036D01*
X132749920Y-48698940D01*
X132673730Y-48660845D01*
X132521349Y-48660845D01*
X132445158Y-48698940D01*
X132407063Y-48737036D01*
X132368968Y-48813226D01*
X131645158Y-36456083D02*
X131645158Y-35656083D01*
X131835635Y-35656083D01*
X131949920Y-35694179D01*
X132026111Y-35770369D01*
X132064206Y-35846559D01*
X132102301Y-35998940D01*
X132102301Y-36113226D01*
X132064206Y-36265607D01*
X132026111Y-36341798D01*
X131949920Y-36417988D01*
X131835635Y-36456083D01*
X131645158Y-36456083D01*
X132864206Y-36456083D02*
X132407063Y-36456083D01*
X132635635Y-36456083D02*
X132635635Y-35656083D01*
X132559444Y-35770369D01*
X132483254Y-35846559D01*
X132407063Y-35884655D01*
X142833825Y-25877036D02*
X142948111Y-25915131D01*
X142986206Y-25953226D01*
X143024301Y-26029417D01*
X143024301Y-26143702D01*
X142986206Y-26219893D01*
X142948111Y-26257988D01*
X142871920Y-26296083D01*
X142567158Y-26296083D01*
X142567158Y-25496083D01*
X142833825Y-25496083D01*
X142910015Y-25534179D01*
X142948111Y-25572274D01*
X142986206Y-25648464D01*
X142986206Y-25724655D01*
X142948111Y-25800845D01*
X142910015Y-25838940D01*
X142833825Y-25877036D01*
X142567158Y-25877036D01*
X143519539Y-25496083D02*
X143595730Y-25496083D01*
X143671920Y-25534179D01*
X143710015Y-25572274D01*
X143748111Y-25648464D01*
X143786206Y-25800845D01*
X143786206Y-25991321D01*
X143748111Y-26143702D01*
X143710015Y-26219893D01*
X143671920Y-26257988D01*
X143595730Y-26296083D01*
X143519539Y-26296083D01*
X143443349Y-26257988D01*
X143405254Y-26219893D01*
X143367158Y-26143702D01*
X143329063Y-25991321D01*
X143329063Y-25800845D01*
X143367158Y-25648464D01*
X143405254Y-25572274D01*
X143443349Y-25534179D01*
X143519539Y-25496083D01*
X131645158Y-46616083D02*
X131645158Y-45816083D01*
X131835635Y-45816083D01*
X131949920Y-45854179D01*
X132026111Y-45930369D01*
X132064206Y-46006559D01*
X132102301Y-46158940D01*
X132102301Y-46273226D01*
X132064206Y-46425607D01*
X132026111Y-46501798D01*
X131949920Y-46577988D01*
X131835635Y-46616083D01*
X131645158Y-46616083D01*
X132368968Y-45816083D02*
X132902301Y-45816083D01*
X132559444Y-46616083D01*
X132913301Y-52454179D02*
X133013301Y-52487512D01*
X133046635Y-52520845D01*
X133079968Y-52587512D01*
X133079968Y-52687512D01*
X133046635Y-52754179D01*
X133013301Y-52787512D01*
X132946635Y-52820845D01*
X132679968Y-52820845D01*
X132679968Y-52120845D01*
X132913301Y-52120845D01*
X132979968Y-52154179D01*
X133013301Y-52187512D01*
X133046635Y-52254179D01*
X133046635Y-52320845D01*
X133013301Y-52387512D01*
X132979968Y-52420845D01*
X132913301Y-52454179D01*
X132679968Y-52454179D01*
X133313301Y-52120845D02*
X133779968Y-52120845D01*
X133479968Y-52820845D01*
X131645158Y-28836083D02*
X131645158Y-28036083D01*
X131835635Y-28036083D01*
X131949920Y-28074179D01*
X132026111Y-28150369D01*
X132064206Y-28226559D01*
X132102301Y-28378940D01*
X132102301Y-28493226D01*
X132064206Y-28645607D01*
X132026111Y-28721798D01*
X131949920Y-28797988D01*
X131835635Y-28836083D01*
X131645158Y-28836083D01*
X132407063Y-28112274D02*
X132445158Y-28074179D01*
X132521349Y-28036083D01*
X132711825Y-28036083D01*
X132788015Y-28074179D01*
X132826111Y-28112274D01*
X132864206Y-28188464D01*
X132864206Y-28264655D01*
X132826111Y-28378940D01*
X132368968Y-28836083D01*
X132864206Y-28836083D01*
X131626111Y-33154179D02*
X131549920Y-33116083D01*
X131435635Y-33116083D01*
X131321349Y-33154179D01*
X131245158Y-33230369D01*
X131207063Y-33306559D01*
X131168968Y-33458940D01*
X131168968Y-33573226D01*
X131207063Y-33725607D01*
X131245158Y-33801798D01*
X131321349Y-33877988D01*
X131435635Y-33916083D01*
X131511825Y-33916083D01*
X131626111Y-33877988D01*
X131664206Y-33839893D01*
X131664206Y-33573226D01*
X131511825Y-33573226D01*
X132007063Y-33916083D02*
X132007063Y-33116083D01*
X132464206Y-33916083D01*
X132464206Y-33116083D01*
X132845158Y-33916083D02*
X132845158Y-33116083D01*
X133035635Y-33116083D01*
X133149920Y-33154179D01*
X133226111Y-33230369D01*
X133264206Y-33306559D01*
X133302301Y-33458940D01*
X133302301Y-33573226D01*
X133264206Y-33725607D01*
X133226111Y-33801798D01*
X133149920Y-33877988D01*
X133035635Y-33916083D01*
X132845158Y-33916083D01*
X142833825Y-46197036D02*
X142948111Y-46235131D01*
X142986206Y-46273226D01*
X143024301Y-46349417D01*
X143024301Y-46463702D01*
X142986206Y-46539893D01*
X142948111Y-46577988D01*
X142871920Y-46616083D01*
X142567158Y-46616083D01*
X142567158Y-45816083D01*
X142833825Y-45816083D01*
X142910015Y-45854179D01*
X142948111Y-45892274D01*
X142986206Y-45968464D01*
X142986206Y-46044655D01*
X142948111Y-46120845D01*
X142910015Y-46158940D01*
X142833825Y-46197036D01*
X142567158Y-46197036D01*
X143786206Y-46616083D02*
X143329063Y-46616083D01*
X143557635Y-46616083D02*
X143557635Y-45816083D01*
X143481444Y-45930369D01*
X143405254Y-46006559D01*
X143329063Y-46044655D01*
X131461626Y-52839881D02*
X131414486Y-52745600D01*
X131414486Y-52698459D01*
X131438056Y-52627749D01*
X131508767Y-52557038D01*
X131579477Y-52533468D01*
X131626618Y-52533468D01*
X131697328Y-52557038D01*
X131885890Y-52745600D01*
X131390915Y-53240575D01*
X131225924Y-53075583D01*
X131202354Y-53004872D01*
X131202354Y-52957732D01*
X131225924Y-52887021D01*
X131273064Y-52839881D01*
X131343775Y-52816311D01*
X131390915Y-52816311D01*
X131461626Y-52839881D01*
X131626618Y-53004872D01*
X130660238Y-52509898D02*
X130895941Y-52745600D01*
X131155213Y-52533468D01*
X131108073Y-52533468D01*
X131037362Y-52509898D01*
X130919511Y-52392046D01*
X130895941Y-52321336D01*
X130895941Y-52274195D01*
X130919511Y-52203485D01*
X131037362Y-52085634D01*
X131108073Y-52062063D01*
X131155213Y-52062063D01*
X131225924Y-52085634D01*
X131343775Y-52203485D01*
X131367345Y-52274195D01*
X131367345Y-52321336D01*
X141963301Y-52454179D02*
X141729968Y-52454179D01*
X141729968Y-52820845D02*
X141729968Y-52120845D01*
X142063301Y-52120845D01*
X142463301Y-52120845D02*
X142529968Y-52120845D01*
X142596635Y-52154179D01*
X142629968Y-52187512D01*
X142663301Y-52254179D01*
X142696635Y-52387512D01*
X142696635Y-52554179D01*
X142663301Y-52687512D01*
X142629968Y-52754179D01*
X142596635Y-52787512D01*
X142529968Y-52820845D01*
X142463301Y-52820845D01*
X142396635Y-52787512D01*
X142363301Y-52754179D01*
X142329968Y-52687512D01*
X142296635Y-52554179D01*
X142296635Y-52387512D01*
X142329968Y-52254179D01*
X142363301Y-52187512D01*
X142396635Y-52154179D01*
X142463301Y-52120845D01*
X131645158Y-38996083D02*
X131645158Y-38196083D01*
X131835635Y-38196083D01*
X131949920Y-38234179D01*
X132026111Y-38310369D01*
X132064206Y-38386559D01*
X132102301Y-38538940D01*
X132102301Y-38653226D01*
X132064206Y-38805607D01*
X132026111Y-38881798D01*
X131949920Y-38957988D01*
X131835635Y-38996083D01*
X131645158Y-38996083D01*
X132597539Y-38196083D02*
X132673730Y-38196083D01*
X132749920Y-38234179D01*
X132788015Y-38272274D01*
X132826111Y-38348464D01*
X132864206Y-38500845D01*
X132864206Y-38691321D01*
X132826111Y-38843702D01*
X132788015Y-38919893D01*
X132749920Y-38957988D01*
X132673730Y-38996083D01*
X132597539Y-38996083D01*
X132521349Y-38957988D01*
X132483254Y-38919893D01*
X132445158Y-38843702D01*
X132407063Y-38691321D01*
X132407063Y-38500845D01*
X132445158Y-38348464D01*
X132483254Y-38272274D01*
X132521349Y-38234179D01*
X132597539Y-38196083D01*
X142890968Y-43657036D02*
X142624301Y-43657036D01*
X142624301Y-44076083D02*
X142624301Y-43276083D01*
X143005254Y-43276083D01*
X143233825Y-43276083D02*
X143767158Y-43276083D01*
X143424301Y-44076083D01*
X142833825Y-48737036D02*
X142948111Y-48775131D01*
X142986206Y-48813226D01*
X143024301Y-48889417D01*
X143024301Y-49003702D01*
X142986206Y-49079893D01*
X142948111Y-49117988D01*
X142871920Y-49156083D01*
X142567158Y-49156083D01*
X142567158Y-48356083D01*
X142833825Y-48356083D01*
X142910015Y-48394179D01*
X142948111Y-48432274D01*
X142986206Y-48508464D01*
X142986206Y-48584655D01*
X142948111Y-48660845D01*
X142910015Y-48698940D01*
X142833825Y-48737036D01*
X142567158Y-48737036D01*
X143290968Y-48356083D02*
X143786206Y-48356083D01*
X143519539Y-48660845D01*
X143633825Y-48660845D01*
X143710015Y-48698940D01*
X143748111Y-48737036D01*
X143786206Y-48813226D01*
X143786206Y-49003702D01*
X143748111Y-49079893D01*
X143710015Y-49117988D01*
X143633825Y-49156083D01*
X143405254Y-49156083D01*
X143329063Y-49117988D01*
X143290968Y-49079893D01*
X142548111Y-28074179D02*
X142471920Y-28036083D01*
X142357635Y-28036083D01*
X142243349Y-28074179D01*
X142167158Y-28150369D01*
X142129063Y-28226559D01*
X142090968Y-28378940D01*
X142090968Y-28493226D01*
X142129063Y-28645607D01*
X142167158Y-28721798D01*
X142243349Y-28797988D01*
X142357635Y-28836083D01*
X142433825Y-28836083D01*
X142548111Y-28797988D01*
X142586206Y-28759893D01*
X142586206Y-28493226D01*
X142433825Y-28493226D01*
X142929063Y-28836083D02*
X142929063Y-28036083D01*
X143386206Y-28836083D01*
X143386206Y-28036083D01*
X143767158Y-28836083D02*
X143767158Y-28036083D01*
X143957635Y-28036083D01*
X144071920Y-28074179D01*
X144148111Y-28150369D01*
X144186206Y-28226559D01*
X144224301Y-28378940D01*
X144224301Y-28493226D01*
X144186206Y-28645607D01*
X144148111Y-28721798D01*
X144071920Y-28797988D01*
X143957635Y-28836083D01*
X143767158Y-28836083D01*
X139969968Y-52247036D02*
X139703301Y-52247036D01*
X139703301Y-52666083D02*
X139703301Y-51866083D01*
X140084254Y-51866083D01*
X140808063Y-52666083D02*
X140350920Y-52666083D01*
X140579492Y-52666083D02*
X140579492Y-51866083D01*
X140503301Y-51980369D01*
X140427111Y-52056559D01*
X140350920Y-52094655D01*
X131626111Y-30614179D02*
X131549920Y-30576083D01*
X131435635Y-30576083D01*
X131321349Y-30614179D01*
X131245158Y-30690369D01*
X131207063Y-30766559D01*
X131168968Y-30918940D01*
X131168968Y-31033226D01*
X131207063Y-31185607D01*
X131245158Y-31261798D01*
X131321349Y-31337988D01*
X131435635Y-31376083D01*
X131511825Y-31376083D01*
X131626111Y-31337988D01*
X131664206Y-31299893D01*
X131664206Y-31033226D01*
X131511825Y-31033226D01*
X132007063Y-31376083D02*
X132007063Y-30576083D01*
X132464206Y-31376083D01*
X132464206Y-30576083D01*
X132845158Y-31376083D02*
X132845158Y-30576083D01*
X133035635Y-30576083D01*
X133149920Y-30614179D01*
X133226111Y-30690369D01*
X133264206Y-30766559D01*
X133302301Y-30918940D01*
X133302301Y-31033226D01*
X133264206Y-31185607D01*
X133226111Y-31261798D01*
X133149920Y-31337988D01*
X133035635Y-31376083D01*
X132845158Y-31376083D01*
X137563301Y-52589893D02*
X137525206Y-52627988D01*
X137410920Y-52666083D01*
X137334730Y-52666083D01*
X137220444Y-52627988D01*
X137144254Y-52551798D01*
X137106158Y-52475607D01*
X137068063Y-52323226D01*
X137068063Y-52208940D01*
X137106158Y-52056559D01*
X137144254Y-51980369D01*
X137220444Y-51904179D01*
X137334730Y-51866083D01*
X137410920Y-51866083D01*
X137525206Y-51904179D01*
X137563301Y-51942274D01*
X137829968Y-51866083D02*
X138363301Y-51866083D01*
X138020444Y-52666083D01*
X143860932Y-52769170D02*
X143955213Y-52722030D01*
X144002354Y-52722030D01*
X144073064Y-52745600D01*
X144143775Y-52816311D01*
X144167345Y-52887021D01*
X144167345Y-52934162D01*
X144143775Y-53004872D01*
X143955213Y-53193434D01*
X143460238Y-52698459D01*
X143625230Y-52533468D01*
X143695941Y-52509898D01*
X143743081Y-52509898D01*
X143813792Y-52533468D01*
X143860932Y-52580608D01*
X143884502Y-52651319D01*
X143884502Y-52698459D01*
X143860932Y-52769170D01*
X143695941Y-52934162D01*
X144167345Y-51991353D02*
X144073064Y-52085634D01*
X144049494Y-52156344D01*
X144049494Y-52203485D01*
X144073064Y-52321336D01*
X144143775Y-52439187D01*
X144332337Y-52627749D01*
X144403047Y-52651319D01*
X144450188Y-52651319D01*
X144520899Y-52627749D01*
X144615179Y-52533468D01*
X144638750Y-52462757D01*
X144638750Y-52415617D01*
X144615179Y-52344906D01*
X144497328Y-52227055D01*
X144426618Y-52203485D01*
X144379477Y-52203485D01*
X144308767Y-52227055D01*
X144214486Y-52321336D01*
X144190915Y-52392046D01*
X144190915Y-52439187D01*
X144214486Y-52509898D01*
X142890968Y-38577036D02*
X142624301Y-38577036D01*
X142624301Y-38996083D02*
X142624301Y-38196083D01*
X143005254Y-38196083D01*
X143690968Y-38196083D02*
X143310015Y-38196083D01*
X143271920Y-38577036D01*
X143310015Y-38538940D01*
X143386206Y-38500845D01*
X143576682Y-38500845D01*
X143652873Y-38538940D01*
X143690968Y-38577036D01*
X143729063Y-38653226D01*
X143729063Y-38843702D01*
X143690968Y-38919893D01*
X143652873Y-38957988D01*
X143576682Y-38996083D01*
X143386206Y-38996083D01*
X143310015Y-38957988D01*
X143271920Y-38919893D01*
X131645158Y-41536083D02*
X131645158Y-40736083D01*
X131835635Y-40736083D01*
X131949920Y-40774179D01*
X132026111Y-40850369D01*
X132064206Y-40926559D01*
X132102301Y-41078940D01*
X132102301Y-41193226D01*
X132064206Y-41345607D01*
X132026111Y-41421798D01*
X131949920Y-41497988D01*
X131835635Y-41536083D01*
X131645158Y-41536083D01*
X132788015Y-41002750D02*
X132788015Y-41536083D01*
X132597539Y-40697988D02*
X132407063Y-41269417D01*
X132902301Y-41269417D01*
X142890968Y-36037036D02*
X142624301Y-36037036D01*
X142624301Y-36456083D02*
X142624301Y-35656083D01*
X143005254Y-35656083D01*
X143652873Y-35922750D02*
X143652873Y-36456083D01*
X143462396Y-35617988D02*
X143271920Y-36189417D01*
X143767158Y-36189417D01*
X142833825Y-51277036D02*
X142948111Y-51315131D01*
X142986206Y-51353226D01*
X143024301Y-51429417D01*
X143024301Y-51543702D01*
X142986206Y-51619893D01*
X142948111Y-51657988D01*
X142871920Y-51696083D01*
X142567158Y-51696083D01*
X142567158Y-50896083D01*
X142833825Y-50896083D01*
X142910015Y-50934179D01*
X142948111Y-50972274D01*
X142986206Y-51048464D01*
X142986206Y-51124655D01*
X142948111Y-51200845D01*
X142910015Y-51238940D01*
X142833825Y-51277036D01*
X142567158Y-51277036D01*
X143329063Y-50972274D02*
X143367158Y-50934179D01*
X143443349Y-50896083D01*
X143633825Y-50896083D01*
X143710015Y-50934179D01*
X143748111Y-50972274D01*
X143786206Y-51048464D01*
X143786206Y-51124655D01*
X143748111Y-51238940D01*
X143290968Y-51696083D01*
X143786206Y-51696083D01*
X132102301Y-43999893D02*
X132064206Y-44037988D01*
X131949920Y-44076083D01*
X131873730Y-44076083D01*
X131759444Y-44037988D01*
X131683254Y-43961798D01*
X131645158Y-43885607D01*
X131607063Y-43733226D01*
X131607063Y-43618940D01*
X131645158Y-43466559D01*
X131683254Y-43390369D01*
X131759444Y-43314179D01*
X131873730Y-43276083D01*
X131949920Y-43276083D01*
X132064206Y-43314179D01*
X132102301Y-43352274D01*
X132788015Y-43276083D02*
X132635635Y-43276083D01*
X132559444Y-43314179D01*
X132521349Y-43352274D01*
X132445158Y-43466559D01*
X132407063Y-43618940D01*
X132407063Y-43923702D01*
X132445158Y-43999893D01*
X132483254Y-44037988D01*
X132559444Y-44076083D01*
X132711825Y-44076083D01*
X132788015Y-44037988D01*
X132826111Y-43999893D01*
X132864206Y-43923702D01*
X132864206Y-43733226D01*
X132826111Y-43657036D01*
X132788015Y-43618940D01*
X132711825Y-43580845D01*
X132559444Y-43580845D01*
X132483254Y-43618940D01*
X132445158Y-43657036D01*
X132407063Y-43733226D01*
X134566158Y-52666083D02*
X134566158Y-51866083D01*
X134756635Y-51866083D01*
X134870920Y-51904179D01*
X134947111Y-51980369D01*
X134985206Y-52056559D01*
X135023301Y-52208940D01*
X135023301Y-52323226D01*
X134985206Y-52475607D01*
X134947111Y-52551798D01*
X134870920Y-52627988D01*
X134756635Y-52666083D01*
X134566158Y-52666083D01*
X135747111Y-51866083D02*
X135366158Y-51866083D01*
X135328063Y-52247036D01*
X135366158Y-52208940D01*
X135442349Y-52170845D01*
X135632825Y-52170845D01*
X135709015Y-52208940D01*
X135747111Y-52247036D01*
X135785206Y-52323226D01*
X135785206Y-52513702D01*
X135747111Y-52589893D01*
X135709015Y-52627988D01*
X135632825Y-52666083D01*
X135442349Y-52666083D01*
X135366158Y-52627988D01*
X135328063Y-52589893D01*
X131911825Y-51277036D02*
X132026111Y-51315131D01*
X132064206Y-51353226D01*
X132102301Y-51429417D01*
X132102301Y-51543702D01*
X132064206Y-51619893D01*
X132026111Y-51657988D01*
X131949920Y-51696083D01*
X131645158Y-51696083D01*
X131645158Y-50896083D01*
X131911825Y-50896083D01*
X131988015Y-50934179D01*
X132026111Y-50972274D01*
X132064206Y-51048464D01*
X132064206Y-51124655D01*
X132026111Y-51200845D01*
X131988015Y-51238940D01*
X131911825Y-51277036D01*
X131645158Y-51277036D01*
X132788015Y-51162750D02*
X132788015Y-51696083D01*
X132597539Y-50857988D02*
X132407063Y-51429417D01*
X132902301Y-51429417D01*
%TO.C,*%
%TO.C,J1*%
X153857838Y-67304014D02*
X154042709Y-67993961D01*
X154033686Y-68144275D01*
X153966343Y-68260918D01*
X153840678Y-68343888D01*
X153748685Y-68368538D01*
X155082583Y-68011121D02*
X154530625Y-68159018D01*
X154806604Y-68085069D02*
X154547785Y-67119143D01*
X154492766Y-67281782D01*
X154425423Y-67398425D01*
X154345754Y-67469070D01*
%TO.C,J4*%
X120613004Y-77909033D02*
X120797874Y-77219086D01*
X120880845Y-77093421D01*
X120997487Y-77026078D01*
X121147801Y-77017055D01*
X121239794Y-77041705D01*
X119825344Y-77352888D02*
X119997890Y-76708937D01*
X119956728Y-77782483D02*
X120371581Y-77154160D01*
X119773627Y-76993939D01*
%TO.C,*%
D14*
%TO.C,SW42*%
X53927997Y-99982441D02*
X54295420Y-99770309D01*
X47905079Y-94641611D02*
X48163899Y-93675685D01*
X44575605Y-99339972D02*
X40615309Y-98278814D01*
X52399604Y-101436407D02*
X55453669Y-90038482D01*
X54507552Y-100137732D02*
X53927997Y-99982441D01*
X40615309Y-98278814D02*
X41236475Y-95960592D01*
X48517452Y-94288058D02*
X47551526Y-94029238D01*
X43048208Y-89199111D02*
X43669374Y-86880889D01*
X48439308Y-100375248D02*
X52399604Y-101436407D01*
X43669374Y-86880889D02*
X47629670Y-87942048D01*
X41805877Y-93835555D02*
X42478806Y-91324148D01*
X54295420Y-99770309D02*
X54507552Y-100137732D01*
X51493373Y-88977324D02*
X55453669Y-90038482D01*
X51034489Y-94158648D02*
G75*
G03*
X51034489Y-94158648I-3000000J0D01*
G01*
%TO.C,SW43*%
X227252189Y-93675436D02*
X227511009Y-94641362D01*
X223922715Y-88977075D02*
X219962419Y-90038233D01*
X227786418Y-87941799D02*
X231746714Y-86880640D01*
X226898636Y-94287809D02*
X227864562Y-94028989D01*
X218786219Y-92216892D02*
X219365775Y-92061600D01*
X234800779Y-98278565D02*
X230840483Y-99339723D01*
X231746714Y-86880640D02*
X232367880Y-89198862D01*
X232937282Y-91323899D02*
X233610211Y-93835306D01*
X234179613Y-95960343D02*
X234800779Y-98278565D01*
X219153643Y-92429024D02*
X218786219Y-92216892D01*
X226976780Y-100374999D02*
X223016484Y-101436158D01*
X219365775Y-92061600D02*
X219153643Y-92429024D01*
X219962419Y-90038233D02*
X223016484Y-101436158D01*
X230381599Y-94158399D02*
G75*
G03*
X230381599Y-94158399I-3000000J0D01*
G01*
D13*
%TO.C,SW22*%
X49878818Y-77574820D02*
X48912893Y-77316001D01*
X36355857Y-73951353D02*
X36614676Y-72985428D01*
X39720504Y-61394318D02*
X39979324Y-60428392D01*
X48912893Y-77316001D02*
X49878818Y-77574820D01*
X40945249Y-60687211D02*
X39979324Y-60428392D01*
X53502285Y-64051859D02*
X52536359Y-63793039D01*
X50137638Y-76608894D02*
X49878818Y-77574820D01*
X36355857Y-73951353D02*
X37321783Y-74210173D01*
X53502285Y-64051859D02*
X53243466Y-65017784D01*
%TO.C,SW33*%
X88248015Y-95700352D02*
X87989196Y-96666277D01*
X84624548Y-109223313D02*
X83658623Y-108964494D01*
X74466234Y-93042811D02*
X74725054Y-92076885D01*
X71101587Y-105599846D02*
X71360406Y-104633921D01*
X84883368Y-108257387D02*
X84624548Y-109223313D01*
X71101587Y-105599846D02*
X72067513Y-105858666D01*
X75690979Y-92335704D02*
X74725054Y-92076885D01*
X88248015Y-95700352D02*
X87282089Y-95441532D01*
X83658623Y-108964494D02*
X84624548Y-109223313D01*
%TO.C,SW23*%
X73148967Y-64139780D02*
X72183041Y-63880960D01*
X69525500Y-77662741D02*
X68559575Y-77403922D01*
X69784320Y-76696815D02*
X69525500Y-77662741D01*
X56002539Y-74039274D02*
X56261358Y-73073349D01*
X68559575Y-77403922D02*
X69525500Y-77662741D01*
X56002539Y-74039274D02*
X56968465Y-74298094D01*
X60591931Y-60775132D02*
X59626006Y-60516313D01*
X59367186Y-61482239D02*
X59626006Y-60516313D01*
X73148967Y-64139780D02*
X72890148Y-65105705D01*
%TO.C,SW35*%
X116126232Y-99530815D02*
X116385052Y-98564889D01*
X112761585Y-112087850D02*
X113020404Y-111121925D01*
X126284546Y-115711317D02*
X125318621Y-115452498D01*
X112761585Y-112087850D02*
X113727511Y-112346670D01*
X126543366Y-114745391D02*
X126284546Y-115711317D01*
X125318621Y-115452498D02*
X126284546Y-115711317D01*
X117350977Y-98823708D02*
X116385052Y-98564889D01*
X129908013Y-102188356D02*
X128942087Y-101929536D01*
X129908013Y-102188356D02*
X129649194Y-103154281D01*
%TO.C,SW25*%
X95355978Y-77854699D02*
X94390053Y-77595880D01*
X107913014Y-81219347D02*
X107654195Y-82185272D01*
X107913014Y-81219347D02*
X106947088Y-80960527D01*
X94131233Y-78561806D02*
X94390053Y-77595880D01*
X90766586Y-91118841D02*
X91025405Y-90152916D01*
X104289547Y-94742308D02*
X103323622Y-94483489D01*
X104548367Y-93776382D02*
X104289547Y-94742308D01*
X90766586Y-91118841D02*
X91732512Y-91377661D01*
X103323622Y-94483489D02*
X104289547Y-94742308D01*
%TO.C,SW21*%
X28549815Y-83765401D02*
X28290995Y-84731327D01*
X31914462Y-71208366D02*
X31655643Y-72174291D01*
X18132681Y-68550825D02*
X18391501Y-67584899D01*
X28290995Y-84731327D02*
X27325070Y-84472508D01*
X27325070Y-84472508D02*
X28290995Y-84731327D01*
X14768034Y-81107860D02*
X15733960Y-81366680D01*
X19357426Y-67843718D02*
X18391501Y-67584899D01*
X31914462Y-71208366D02*
X30948536Y-70949546D01*
X14768034Y-81107860D02*
X15026853Y-80141935D01*
%TO.C,SW14*%
X91501568Y-69057348D02*
X90535643Y-68798529D01*
X77978607Y-65433881D02*
X78237426Y-64467956D01*
X91760388Y-68091422D02*
X91501568Y-69057348D01*
X90535643Y-68798529D02*
X91501568Y-69057348D01*
X95125035Y-55534387D02*
X94159109Y-55275567D01*
X82567999Y-52169739D02*
X81602074Y-51910920D01*
X81343254Y-52876846D02*
X81602074Y-51910920D01*
X77978607Y-65433881D02*
X78944533Y-65692701D01*
X95125035Y-55534387D02*
X94866216Y-56500312D01*
%TO.C,SW34*%
X93186585Y-111651840D02*
X94152511Y-111910660D01*
X106968366Y-114309381D02*
X106709546Y-115275307D01*
X110333013Y-101752346D02*
X109367087Y-101493526D01*
X110333013Y-101752346D02*
X110074194Y-102718271D01*
X93186585Y-111651840D02*
X93445404Y-110685915D01*
X97775977Y-98387698D02*
X96810052Y-98128879D01*
X106709546Y-115275307D02*
X105743621Y-115016488D01*
X105743621Y-115016488D02*
X106709546Y-115275307D01*
X96551232Y-99094805D02*
X96810052Y-98128879D01*
%TO.C,SW4*%
X100042588Y-37181797D02*
X99076662Y-36922977D01*
X96677941Y-49738832D02*
X96419121Y-50704758D01*
X100042588Y-37181797D02*
X99783769Y-38147722D01*
X82896160Y-47081291D02*
X83862086Y-47340111D01*
X95453196Y-50445939D02*
X96419121Y-50704758D01*
X96419121Y-50704758D02*
X95453196Y-50445939D01*
X82896160Y-47081291D02*
X83154979Y-46115366D01*
X86260807Y-34524256D02*
X86519627Y-33558330D01*
X87485552Y-33817149D02*
X86519627Y-33558330D01*
%TO.C,SW24*%
X85618080Y-87151116D02*
X86584005Y-87409935D01*
X73061044Y-83786468D02*
X73319863Y-82820543D01*
X77650436Y-70522326D02*
X76684511Y-70263507D01*
X76425691Y-71229433D02*
X76684511Y-70263507D01*
X90207472Y-73886974D02*
X89948653Y-74852899D01*
X86842825Y-86444009D02*
X86584005Y-87409935D01*
X73061044Y-83786468D02*
X74026970Y-84045288D01*
X86584005Y-87409935D02*
X85618080Y-87151116D01*
X90207472Y-73886974D02*
X89241546Y-73628154D01*
%TO.C,SW12*%
X45862813Y-42334618D02*
X44896888Y-42075799D01*
X44638068Y-43041725D02*
X44896888Y-42075799D01*
X58419849Y-45699266D02*
X58161030Y-46665191D01*
X53830457Y-58963408D02*
X54796382Y-59222227D01*
X55055202Y-58256301D02*
X54796382Y-59222227D01*
X41273421Y-55598760D02*
X41532240Y-54632835D01*
X58419849Y-45699266D02*
X57453923Y-45440446D01*
X54796382Y-59222227D02*
X53830457Y-58963408D01*
X41273421Y-55598760D02*
X42239347Y-55857580D01*
%TO.C,SW3*%
X78394701Y-40698741D02*
X79360626Y-40957560D01*
X65837665Y-37334093D02*
X66096484Y-36368168D01*
X79619446Y-39991634D02*
X79360626Y-40957560D01*
X65837665Y-37334093D02*
X66803591Y-37592913D01*
X69202312Y-24777058D02*
X69461132Y-23811132D01*
X82984093Y-27434599D02*
X82018167Y-27175779D01*
X70427057Y-24069951D02*
X69461132Y-23811132D01*
X82984093Y-27434599D02*
X82725274Y-28400524D01*
X79360626Y-40957560D02*
X78394701Y-40698741D01*
%TO.C,SW15*%
X108241191Y-76130912D02*
X109207116Y-76389731D01*
X95684155Y-72766264D02*
X95942974Y-71800339D01*
X109465936Y-75423805D02*
X109207116Y-76389731D01*
X112830583Y-62866770D02*
X111864657Y-62607950D01*
X95684155Y-72766264D02*
X96650081Y-73025084D01*
X109207116Y-76389731D02*
X108241191Y-76130912D01*
X99048802Y-60209229D02*
X99307622Y-59243303D01*
X112830583Y-62866770D02*
X112571764Y-63832695D01*
X100273547Y-59502122D02*
X99307622Y-59243303D01*
%TO.C,SW5*%
X117748134Y-44514165D02*
X117489315Y-45480090D01*
X113158742Y-57778307D02*
X114124667Y-58037126D01*
X103966353Y-41856624D02*
X104225173Y-40890698D01*
X117748134Y-44514165D02*
X116782208Y-44255345D01*
X105191098Y-41149517D02*
X104225173Y-40890698D01*
X100601706Y-54413659D02*
X100860525Y-53447734D01*
X114383487Y-57071200D02*
X114124667Y-58037126D01*
X100601706Y-54413659D02*
X101567632Y-54672479D01*
X114124667Y-58037126D02*
X113158742Y-57778307D01*
%TO.C,SW13*%
X74701891Y-58344224D02*
X74443071Y-59310150D01*
X73477146Y-59051331D02*
X74443071Y-59310150D01*
X60920110Y-55686683D02*
X61886036Y-55945503D01*
X74443071Y-59310150D02*
X73477146Y-59051331D01*
X60920110Y-55686683D02*
X61178929Y-54720758D01*
X78066538Y-45787189D02*
X77807719Y-46753114D01*
X78066538Y-45787189D02*
X77100612Y-45528369D01*
X65509502Y-42422541D02*
X64543577Y-42163722D01*
X64284757Y-43129648D02*
X64543577Y-42163722D01*
%TO.C,SW1*%
X37160199Y-47767317D02*
X38126124Y-48026136D01*
X24603163Y-44402669D02*
X25569089Y-44661489D01*
X38126124Y-48026136D02*
X37160199Y-47767317D01*
X27967810Y-31845634D02*
X28226630Y-30879708D01*
X41749591Y-34503175D02*
X40783665Y-34244355D01*
X29192555Y-31138527D02*
X28226630Y-30879708D01*
X38384944Y-47060210D02*
X38126124Y-48026136D01*
X41749591Y-34503175D02*
X41490772Y-35469100D01*
X24603163Y-44402669D02*
X24861982Y-43436744D01*
%TO.C,SW2*%
X63337409Y-27346674D02*
X62371483Y-27087854D01*
X50780373Y-23982026D02*
X49814448Y-23723207D01*
X58748017Y-40610816D02*
X59713942Y-40869635D01*
X59972762Y-39903709D02*
X59713942Y-40869635D01*
X63337409Y-27346674D02*
X63078590Y-28312599D01*
X59713942Y-40869635D02*
X58748017Y-40610816D01*
X46190981Y-37246168D02*
X47156907Y-37504988D01*
X46190981Y-37246168D02*
X46449800Y-36280243D01*
X49555628Y-24689133D02*
X49814448Y-23723207D01*
%TO.C,SW11*%
X19685594Y-62755263D02*
X19944413Y-61789338D01*
X33467375Y-65412804D02*
X33208555Y-66378730D01*
X32242630Y-66119911D02*
X33208555Y-66378730D01*
X24274986Y-49491121D02*
X23309061Y-49232302D01*
X36832022Y-52855769D02*
X36573203Y-53821694D01*
X23050241Y-50198228D02*
X23309061Y-49232302D01*
X36832022Y-52855769D02*
X35866096Y-52596949D01*
X19685594Y-62755263D02*
X20651520Y-63014083D01*
X33208555Y-66378730D02*
X32242630Y-66119911D01*
%TO.C,SW36*%
X159035027Y-98566665D02*
X159293847Y-99532591D01*
X145770885Y-103156057D02*
X145512066Y-102190132D01*
X159035027Y-98566665D02*
X158069102Y-98825484D01*
X146477992Y-101931312D02*
X145512066Y-102190132D01*
X161692568Y-112348446D02*
X162658494Y-112089626D01*
X149135533Y-115713093D02*
X150101458Y-115454274D01*
X162658494Y-112089626D02*
X161692568Y-112348446D01*
X162399675Y-111123701D02*
X162658494Y-112089626D01*
X149135533Y-115713093D02*
X148876713Y-114747167D01*
%TO.C,SW29*%
X239064181Y-73953624D02*
X238098255Y-74212444D01*
X225541220Y-77577091D02*
X226507145Y-77318272D01*
X225541220Y-77577091D02*
X225282400Y-76611165D01*
X238098255Y-74212444D02*
X239064181Y-73953624D01*
X235440714Y-60430663D02*
X235699534Y-61396589D01*
X222883679Y-63795310D02*
X221917753Y-64054130D01*
X235440714Y-60430663D02*
X234474789Y-60689482D01*
X238805362Y-72987699D02*
X239064181Y-73953624D01*
X222176572Y-65020055D02*
X221917753Y-64054130D01*
%TO.C,SW37*%
X166053047Y-101395616D02*
X165087121Y-101654436D01*
X182233549Y-111553930D02*
X181267623Y-111812750D01*
X181267623Y-111812750D02*
X182233549Y-111553930D01*
X168710588Y-115177397D02*
X168451768Y-114211471D01*
X181974730Y-110588005D02*
X182233549Y-111553930D01*
X165345940Y-102620361D02*
X165087121Y-101654436D01*
X178610082Y-98030969D02*
X178868902Y-98996895D01*
X168710588Y-115177397D02*
X169676513Y-114918578D01*
X178610082Y-98030969D02*
X177644157Y-98289788D01*
%TO.C,SW38*%
X188137637Y-95443315D02*
X187171711Y-95702135D01*
X200694672Y-92078668D02*
X200953492Y-93044594D01*
X203352213Y-105860449D02*
X204318139Y-105601629D01*
X187430530Y-96668060D02*
X187171711Y-95702135D01*
X190795178Y-109225096D02*
X191761103Y-108966277D01*
X204318139Y-105601629D02*
X203352213Y-105860449D01*
X190795178Y-109225096D02*
X190536358Y-108259170D01*
X204059320Y-104635704D02*
X204318139Y-105601629D01*
X200694672Y-92078668D02*
X199728747Y-92337487D01*
%TO.C,SW30*%
X244471513Y-70951824D02*
X243505587Y-71210644D01*
X257028548Y-67587177D02*
X256062623Y-67845996D01*
X259686089Y-81368958D02*
X260652015Y-81110138D01*
X247129054Y-84733605D02*
X248094979Y-84474786D01*
X257028548Y-67587177D02*
X257287368Y-68553103D01*
X260393196Y-80144213D02*
X260652015Y-81110138D01*
X260652015Y-81110138D02*
X259686089Y-81368958D01*
X247129054Y-84733605D02*
X246870234Y-83767679D01*
X243764406Y-72176569D02*
X243505587Y-71210644D01*
%TO.C,SW26*%
X184394644Y-90155198D02*
X184653463Y-91121123D01*
X167765854Y-82187554D02*
X167507035Y-81221629D01*
X184653463Y-91121123D02*
X183687537Y-91379943D01*
X171130502Y-94744590D02*
X172096427Y-94485771D01*
X181029996Y-77598162D02*
X181288816Y-78564088D01*
X183687537Y-91379943D02*
X184653463Y-91121123D01*
X171130502Y-94744590D02*
X170871682Y-93778664D01*
X168472961Y-80962809D02*
X167507035Y-81221629D01*
X181029996Y-77598162D02*
X180064071Y-77856981D01*
%TO.C,SW27*%
X186178510Y-73630443D02*
X185212584Y-73889263D01*
X198735545Y-70265796D02*
X198994365Y-71231722D01*
X188836051Y-87412224D02*
X189801976Y-87153405D01*
X185471403Y-74855188D02*
X185212584Y-73889263D01*
X202100193Y-82822832D02*
X202359012Y-83788757D01*
X201393086Y-84047577D02*
X202359012Y-83788757D01*
X198735545Y-70265796D02*
X197769620Y-70524615D01*
X188836051Y-87412224D02*
X188577231Y-86446298D01*
X202359012Y-83788757D02*
X201393086Y-84047577D01*
%TO.C,SW28*%
X205894535Y-77665021D02*
X206860460Y-77406202D01*
X202529887Y-65107985D02*
X202271068Y-64142060D01*
X205894535Y-77665021D02*
X205635715Y-76699095D01*
X219158677Y-73075629D02*
X219417496Y-74041554D01*
X215794029Y-60518593D02*
X216052849Y-61484519D01*
X215794029Y-60518593D02*
X214828104Y-60777412D01*
X203236994Y-63883240D02*
X202271068Y-64142060D01*
X219417496Y-74041554D02*
X218451570Y-74300374D01*
X218451570Y-74300374D02*
X219417496Y-74041554D01*
%TO.C,SW20*%
X255475632Y-61791619D02*
X255734451Y-62757544D01*
X242211490Y-66381011D02*
X243177415Y-66122192D01*
X238846842Y-53823975D02*
X238588023Y-52858050D01*
X242211490Y-66381011D02*
X241952670Y-65415085D01*
X252110984Y-49234583D02*
X252369804Y-50200509D01*
X254768525Y-63016364D02*
X255734451Y-62757544D01*
X239553949Y-52599230D02*
X238588023Y-52858050D01*
X255734451Y-62757544D02*
X254768525Y-63016364D01*
X252110984Y-49234583D02*
X251145059Y-49493402D01*
%TO.C,SW7*%
X179000926Y-50707036D02*
X178742106Y-49741110D01*
X188900420Y-33560608D02*
X189159240Y-34526534D01*
X179000926Y-50707036D02*
X179966851Y-50448217D01*
X175636278Y-38150000D02*
X175377459Y-37184075D01*
X192523887Y-47083569D02*
X191557961Y-47342389D01*
X176343385Y-36925255D02*
X175377459Y-37184075D01*
X191557961Y-47342389D02*
X192523887Y-47083569D01*
X188900420Y-33560608D02*
X187934495Y-33819427D01*
X192265068Y-46117644D02*
X192523887Y-47083569D01*
%TO.C,SW9*%
X225605593Y-23725486D02*
X224639668Y-23984305D01*
X228263134Y-37507267D02*
X229229060Y-37248447D01*
X212341451Y-28314878D02*
X212082632Y-27348953D01*
X215706099Y-40871914D02*
X215447279Y-39905988D01*
X229229060Y-37248447D02*
X228263134Y-37507267D01*
X225605593Y-23725486D02*
X225864413Y-24691412D01*
X213048558Y-27090133D02*
X212082632Y-27348953D01*
X228970241Y-36282522D02*
X229229060Y-37248447D01*
X215706099Y-40871914D02*
X216672024Y-40613095D01*
%TO.C,SW8*%
X196059411Y-40959846D02*
X197025336Y-40701027D01*
X196059411Y-40959846D02*
X195800591Y-39993920D01*
X193401870Y-27178065D02*
X192435944Y-27436885D01*
X208616446Y-37595199D02*
X209582372Y-37336379D01*
X209323553Y-36370454D02*
X209582372Y-37336379D01*
X205958905Y-23813418D02*
X206217725Y-24779344D01*
X209582372Y-37336379D02*
X208616446Y-37595199D01*
X205958905Y-23813418D02*
X204992980Y-24072237D01*
X192694763Y-28402810D02*
X192435944Y-27436885D01*
%TO.C,SW16*%
X166212942Y-76392007D02*
X167178867Y-76133188D01*
X179477084Y-71802615D02*
X179735903Y-72768540D01*
X176112436Y-59245579D02*
X175146511Y-59504398D01*
X166212942Y-76392007D02*
X165954122Y-75426081D01*
X178769977Y-73027360D02*
X179735903Y-72768540D01*
X176112436Y-59245579D02*
X176371256Y-60211505D01*
X179735903Y-72768540D02*
X178769977Y-73027360D01*
X162848294Y-63834971D02*
X162589475Y-62869046D01*
X163555401Y-62610226D02*
X162589475Y-62869046D01*
%TO.C,SW19*%
X220623664Y-59224511D02*
X220364844Y-58258585D01*
X230523158Y-42078083D02*
X230781978Y-43044009D01*
X217966123Y-45442730D02*
X217000197Y-45701550D01*
X230523158Y-42078083D02*
X229557233Y-42336902D01*
X220623664Y-59224511D02*
X221589589Y-58965692D01*
X234146625Y-55601044D02*
X233180699Y-55859864D01*
X217259016Y-46667475D02*
X217000197Y-45701550D01*
X233887806Y-54635119D02*
X234146625Y-55601044D01*
X233180699Y-55859864D02*
X234146625Y-55601044D01*
%TO.C,SW17*%
X193817973Y-51913201D02*
X194076793Y-52879127D01*
X193817973Y-51913201D02*
X192852048Y-52172020D01*
X183918479Y-69059629D02*
X184884404Y-68800810D01*
X197441440Y-65436162D02*
X196475514Y-65694982D01*
X183918479Y-69059629D02*
X183659659Y-68093703D01*
X197182621Y-64470237D02*
X197441440Y-65436162D01*
X196475514Y-65694982D02*
X197441440Y-65436162D01*
X180553831Y-56502593D02*
X180295012Y-55536668D01*
X181260938Y-55277848D02*
X180295012Y-55536668D01*
%TO.C,SW18*%
X214241119Y-54723037D02*
X214499938Y-55688962D01*
X214499938Y-55688962D02*
X213534012Y-55947782D01*
X200976977Y-59312429D02*
X201942902Y-59053610D01*
X210876471Y-42166001D02*
X211135291Y-43131927D01*
X198319436Y-45530648D02*
X197353510Y-45789468D01*
X197612329Y-46755393D02*
X197353510Y-45789468D01*
X213534012Y-55947782D02*
X214499938Y-55688962D01*
X200976977Y-59312429D02*
X200718157Y-58346503D01*
X210876471Y-42166001D02*
X209910546Y-42424820D01*
%TO.C,SW10*%
X234636386Y-34246641D02*
X233670460Y-34505461D01*
X237293927Y-48028422D02*
X237035107Y-47062496D01*
X249850962Y-44663775D02*
X250816888Y-44404955D01*
X247193421Y-30881994D02*
X247452241Y-31847920D01*
X233929279Y-35471386D02*
X233670460Y-34505461D01*
X250816888Y-44404955D02*
X249850962Y-44663775D01*
X250558069Y-43439030D02*
X250816888Y-44404955D01*
X237293927Y-48028422D02*
X238259852Y-47769603D01*
X247193421Y-30881994D02*
X246227496Y-31140813D01*
%TO.C,SW6*%
X157930729Y-45482381D02*
X157671910Y-44516456D01*
X174559519Y-53450025D02*
X174818338Y-54415950D01*
X171194871Y-40892989D02*
X170228946Y-41151808D01*
X171194871Y-40892989D02*
X171453691Y-41858915D01*
X161295377Y-58039417D02*
X162261302Y-57780598D01*
X161295377Y-58039417D02*
X161036557Y-57073491D01*
X158637836Y-44257636D02*
X157671910Y-44516456D01*
X173852412Y-54674770D02*
X174818338Y-54415950D01*
X174818338Y-54415950D02*
X173852412Y-54674770D01*
%TO.C,SW31*%
X16995863Y-49611246D02*
X16029938Y-49352427D01*
X3472902Y-45987779D02*
X3731721Y-45021854D01*
X16029938Y-49352427D02*
X16995863Y-49611246D01*
X20619330Y-36088285D02*
X20360511Y-37054210D01*
X17254683Y-48645320D02*
X16995863Y-49611246D01*
X3472902Y-45987779D02*
X4438828Y-46246599D01*
X8062294Y-32723637D02*
X7096369Y-32464818D01*
X6837549Y-33430744D02*
X7096369Y-32464818D01*
X20619330Y-36088285D02*
X19653404Y-35829465D01*
%TO.C,SW32*%
X258424170Y-49613518D02*
X259390095Y-49354699D01*
X270981205Y-46248871D02*
X271947131Y-45990051D01*
X255059522Y-37056482D02*
X254800703Y-36090557D01*
X255766629Y-35831737D02*
X254800703Y-36090557D01*
X271688312Y-45024126D02*
X271947131Y-45990051D01*
X258424170Y-49613518D02*
X258165350Y-48647592D01*
X271947131Y-45990051D02*
X270981205Y-46248871D01*
X268323664Y-32467090D02*
X268582484Y-33433016D01*
X268323664Y-32467090D02*
X267357739Y-32725909D01*
%TO.C,SW39*%
X3144742Y-51076228D02*
X2178817Y-50817409D01*
X-1444650Y-64340370D02*
X-478724Y-64599190D01*
X12337131Y-66997911D02*
X12078311Y-67963837D01*
X12078311Y-67963837D02*
X11112386Y-67705018D01*
X15701778Y-54440876D02*
X14735852Y-54182056D01*
X1919997Y-51783335D02*
X2178817Y-50817409D01*
X11112386Y-67705018D02*
X12078311Y-67963837D01*
X-1444650Y-64340370D02*
X-1185831Y-63374445D01*
X15701778Y-54440876D02*
X15442959Y-55406801D01*
%TO.C,SW40*%
X260684193Y-54184340D02*
X259718267Y-54443160D01*
X273241228Y-50819693D02*
X272275303Y-51078512D01*
X263341734Y-67966121D02*
X263082914Y-67000195D01*
X276605876Y-63376729D02*
X276864695Y-64342654D01*
X263341734Y-67966121D02*
X264307659Y-67707302D01*
X259977086Y-55409085D02*
X259718267Y-54443160D01*
X276864695Y-64342654D02*
X275898769Y-64601474D01*
X273241228Y-50819693D02*
X273500048Y-51785619D01*
X275898769Y-64601474D02*
X276864695Y-64342654D01*
%TO.C,SW46*%
X15046633Y-109034180D02*
X16046633Y-109034180D01*
X2046633Y-109034180D02*
X3046633Y-109034180D01*
X2046633Y-96034180D02*
X2046633Y-95034180D01*
X16046633Y-108034180D02*
X16046633Y-109034180D01*
X2046633Y-109034180D02*
X2046633Y-108034180D01*
X16046633Y-95034180D02*
X16046633Y-96034180D01*
X16046633Y-95034180D02*
X15046633Y-95034180D01*
X16046633Y-109034180D02*
X15046633Y-109034180D01*
X3046633Y-95034180D02*
X2046633Y-95034180D01*
%TO.C,SW47*%
X258536633Y-109464176D02*
X258536633Y-108464176D01*
X258536633Y-109464176D02*
X259536633Y-109464176D01*
X258536633Y-96464176D02*
X258536633Y-95464176D01*
X259536633Y-95464176D02*
X258536633Y-95464176D01*
X272536633Y-108464176D02*
X272536633Y-109464176D01*
X272536633Y-109464176D02*
X271536633Y-109464176D01*
X271536633Y-109464176D02*
X272536633Y-109464176D01*
X272536633Y-95464176D02*
X271536633Y-95464176D01*
X272536633Y-95464176D02*
X272536633Y-96464176D01*
D14*
%TO.C,SW48*%
X130544891Y-78829260D02*
X130244891Y-79129260D01*
X129944891Y-78829260D02*
X130544891Y-78829260D01*
X130244891Y-79129260D02*
X129944891Y-78829260D01*
X143844891Y-88829260D02*
X139744891Y-88829260D01*
X137744891Y-82429260D02*
X137744891Y-83429260D01*
X143844891Y-77029260D02*
X143844891Y-79429260D01*
X139744891Y-77029260D02*
X143844891Y-77029260D01*
X137244891Y-82929260D02*
X138244891Y-82929260D01*
X131644891Y-77029260D02*
X131644891Y-88829260D01*
X143844891Y-86429260D02*
X143844891Y-88829260D01*
X135744891Y-77029260D02*
X131644891Y-77029260D01*
X143844891Y-81629260D02*
X143844891Y-84229260D01*
X135744891Y-88829260D02*
X131644891Y-88829260D01*
X140744891Y-82929260D02*
G75*
G03*
X140744891Y-82929260I-3000000J0D01*
G01*
D12*
%TO.C,D57*%
X135446630Y-66504185D02*
X135146630Y-66754185D01*
X140145990Y-66504825D02*
X140145990Y-71503545D01*
X135446630Y-66504185D02*
X140146630Y-66504185D01*
X140146630Y-71504185D02*
X135146630Y-71504185D01*
X135146630Y-66754185D02*
X135146630Y-71504185D01*
D13*
X137446630Y-66504185D02*
X135146630Y-68754185D01*
D14*
%TO.C,Brd1*%
X123944629Y-78071188D02*
X124198629Y-78059188D01*
X150806629Y-81354188D02*
X123406629Y-81354188D01*
X142105629Y-80865188D02*
X132326629Y-80865188D01*
X132326629Y-80865188D02*
X132326629Y-78452188D01*
X150806629Y-54054188D02*
X150806629Y-81354188D01*
X132326629Y-78452188D02*
X142105629Y-78452188D01*
X123406629Y-54054188D02*
X150806629Y-54054188D01*
X127284629Y-61459188D02*
X123944629Y-61434188D01*
X127284629Y-78059188D02*
X124198629Y-78059188D01*
X123406629Y-81354188D02*
X123406629Y-54054188D01*
X123944629Y-61434188D02*
X123944629Y-78071188D01*
X150384629Y-78059188D02*
X127284629Y-78059188D01*
X142105629Y-80865188D02*
X142105629Y-78452188D01*
X150384629Y-61459188D02*
X150384629Y-78059188D01*
X127284629Y-61459188D02*
X150384629Y-61459188D01*
D15*
%TO.C,U4*%
X128806635Y-55144179D02*
X146586635Y-55144179D01*
X146586635Y-24664179D02*
X146586635Y-22124179D01*
X146586635Y-55144179D02*
X146586635Y-24664179D01*
X146586635Y-22124179D02*
X128806635Y-22124179D01*
X131346635Y-24664179D02*
X131346635Y-27204179D01*
X131346635Y-27204179D02*
X128806635Y-27204179D01*
X128806635Y-24664179D02*
X128806635Y-55144179D01*
X131346635Y-24664179D02*
X128806635Y-24664179D01*
X128806635Y-22124179D02*
X128806635Y-24664179D01*
D13*
X142628203Y-30543539D02*
X142628203Y-30843539D01*
X142628203Y-30843539D02*
X142528203Y-30843539D01*
X142528203Y-30843539D02*
X142528203Y-30543539D01*
X142528203Y-30543539D02*
X142628203Y-30543539D01*
G36*
X142628203Y-30843539D02*
G01*
X142528203Y-30843539D01*
X142528203Y-30543539D01*
X142628203Y-30543539D01*
X142628203Y-30843539D01*
G37*
X142628203Y-30843539D02*
X142528203Y-30843539D01*
X142528203Y-30543539D01*
X142628203Y-30543539D01*
X142628203Y-30843539D01*
X142628203Y-31143539D02*
X142628203Y-31343539D01*
X142628203Y-31343539D02*
X142528203Y-31343539D01*
X142528203Y-31343539D02*
X142528203Y-31143539D01*
X142528203Y-31143539D02*
X142628203Y-31143539D01*
G36*
X142628203Y-31343539D02*
G01*
X142528203Y-31343539D01*
X142528203Y-31143539D01*
X142628203Y-31143539D01*
X142628203Y-31343539D01*
G37*
X142628203Y-31343539D02*
X142528203Y-31343539D01*
X142528203Y-31143539D01*
X142628203Y-31143539D01*
X142628203Y-31343539D01*
X142228203Y-30543539D02*
X142228203Y-31343539D01*
X142228203Y-31343539D02*
X142128203Y-31343539D01*
X142128203Y-31343539D02*
X142128203Y-30543539D01*
X142128203Y-30543539D02*
X142228203Y-30543539D01*
G36*
X142228203Y-31343539D02*
G01*
X142128203Y-31343539D01*
X142128203Y-30543539D01*
X142228203Y-30543539D01*
X142228203Y-31343539D01*
G37*
X142228203Y-31343539D02*
X142128203Y-31343539D01*
X142128203Y-30543539D01*
X142228203Y-30543539D01*
X142228203Y-31343539D01*
X142628203Y-30543539D02*
X142628203Y-30643539D01*
X142628203Y-30643539D02*
X142128203Y-30643539D01*
X142128203Y-30643539D02*
X142128203Y-30543539D01*
X142128203Y-30543539D02*
X142628203Y-30543539D01*
G36*
X142628203Y-30643539D02*
G01*
X142128203Y-30643539D01*
X142128203Y-30543539D01*
X142628203Y-30543539D01*
X142628203Y-30643539D01*
G37*
X142628203Y-30643539D02*
X142128203Y-30643539D01*
X142128203Y-30543539D01*
X142628203Y-30543539D01*
X142628203Y-30643539D01*
X142428203Y-30943539D02*
X142428203Y-31043539D01*
X142428203Y-31043539D02*
X142328203Y-31043539D01*
X142328203Y-31043539D02*
X142328203Y-30943539D01*
X142328203Y-30943539D02*
X142428203Y-30943539D01*
G36*
X142428203Y-31043539D02*
G01*
X142328203Y-31043539D01*
X142328203Y-30943539D01*
X142428203Y-30943539D01*
X142428203Y-31043539D01*
G37*
X142428203Y-31043539D02*
X142328203Y-31043539D01*
X142328203Y-30943539D01*
X142428203Y-30943539D01*
X142428203Y-31043539D01*
%TD*%
D16*
%TO.C,U4*%
X130076635Y-25934179D03*
D17*
X130076635Y-28474179D03*
X130076635Y-31014179D03*
X130076635Y-33554179D03*
X130076635Y-36094179D03*
X130076635Y-38634179D03*
X130076635Y-41174179D03*
X130076635Y-43714179D03*
X130076635Y-46254179D03*
X130076635Y-48794179D03*
X130076635Y-51334179D03*
X130305235Y-53874179D03*
X145316635Y-53874179D03*
X145316635Y-51334179D03*
X145316635Y-48794179D03*
X145316635Y-46254179D03*
X145316635Y-43714179D03*
X145316635Y-41174179D03*
X145316635Y-38634179D03*
X145316635Y-36094179D03*
X145316635Y-33554179D03*
X145316635Y-31014179D03*
X145316635Y-28474179D03*
X145316635Y-25934179D03*
X132616635Y-53874179D03*
X135156635Y-53874179D03*
X137696635Y-53874179D03*
X140236635Y-53874179D03*
X142776635Y-53874179D03*
%TD*%
M02*
