M48
; DRILL file {KiCad (6.0.0)} date Thu Apr 21 03:32:40 2022
; FORMAT={-:-/ absolute / inch / decimal}
; #@! TF.CreationDate,2022-04-21T03:32:40-07:00
; #@! TF.GenerationSoftware,Kicad,Pcbnew,(6.0.0)
; #@! TF.FileFunction,Plated,1,2,PTH
FMAT,2
INCH
; #@! TA.AperFunction,Plated,PTH,ViaDrill
T1C0.0157
; #@! TA.AperFunction,Plated,PTH,ComponentDrill
T2C0.0295
; #@! TA.AperFunction,Plated,PTH,ComponentDrill
T3C0.0300
; #@! TA.AperFunction,Plated,PTH,ComponentDrill
T4C0.0354
; #@! TA.AperFunction,Plated,PTH,ComponentDrill
T5C0.0394
; #@! TA.AperFunction,Plated,PTH,ComponentDrill
T6C0.0430
; #@! TA.AperFunction,Plated,PTH,ComponentDrill
T7C0.0591
; #@! TA.AperFunction,Plated,PTH,ComponentDrill
T8C0.1181
%
G90
G05
T1
X-0.2175Y-2.6774
X-0.1739Y-2.6353
X-0.0274Y-1.9682
X0.0174Y-1.9219
X0.1027Y-2.1025
X0.2185Y-2.7975
X0.2827Y-1.3788
X0.2872Y-3.3017
X0.3393Y-2.9906
X0.4029Y-3.0372
X0.412Y-2.077
X0.4245Y-1.2362
X0.4808Y-2.5792
X0.5842Y-2.75
X0.6061Y-1.3509
X0.6438Y-3.3934
X0.6538Y-2.5677
X0.6709Y-1.8651
X0.6715Y-2.4147
X0.6807Y-1.3387
X0.7183Y-1.6917
X0.7207Y-1.6457
X0.7473Y-2.7391
X0.7836Y-2.0485
X0.8361Y-1.8421
X0.8633Y-1.7241
X0.8747Y-1.6825
X0.95Y-2.0145
X0.9875Y-1.2387
X1.0214Y-1.2985
X1.0271Y-1.3968
X1.0973Y-3.386
X1.1025Y-1.212
X1.1184Y-3.2326
X1.1425Y-1.3083
X1.1441Y-3.5282
X1.2608Y-2.8396
X1.2643Y-2.9636
X1.2936Y-2.078
X1.3122Y-2.5093
X1.3458Y-2.9632
X1.4029Y-2.029
X1.4208Y-1.9625
X1.423Y-3.5581
X1.4479Y-2.1903
X1.4575Y-2.4129
X1.4582Y-2.2789
X1.4616Y-2.9313
X1.4847Y-1.365
X1.4849Y-3.3864
X1.4891Y-2.0066
X1.5006Y-1.7956
X1.5242Y-2.2603
X1.5397Y-1.8313
X1.6003Y-2.4382
X1.6759Y-3.7443
X1.687Y-3.0536
X1.6972Y-1.3755
X1.7999Y-1.7193
X1.8228Y-3.5774
X1.828Y-1.0286
X1.845Y-1.5964
X1.8896Y-0.8596
X1.8928Y-3.7018
X1.9672Y-2.5157
X1.9709Y-2.9504
X1.9947Y-1.0011
X2.1581Y-1.7863
X2.1637Y-2.6067
X2.1664Y-2.221
X2.1921Y-2.2825
X2.2647Y-2.2148
X2.2694Y-3.6015
X2.272Y-2.3014
X2.2939Y-1.1743
X2.3145Y-3.0943
X2.3457Y-1.0495
X2.3559Y-1.8846
X2.3582Y-1.5037
X2.3613Y-1.7389
X2.38Y-0.9764
X2.3805Y-2.4438
X2.4185Y-4.1579
X2.4227Y-1.1078
X2.4325Y-1.687
X2.4328Y-3.1497
X2.4623Y-1.7317
X2.4677Y-1.1482
X2.5775Y-1.7332
X2.6476Y-3.3013
X2.6664Y-0.9676
X2.7138Y-2.6709
X2.7234Y-2.5223
X2.7423Y-2.948
X2.7473Y-3.71
X2.7738Y-1.0171
X2.774Y-1.1578
X2.8209Y-3.7289
X2.917Y-1.7998
X2.9311Y-2.8718
X2.9359Y-2.2254
X2.9762Y-2.7033
X3.0546Y-2.8368
X3.0622Y-2.9725
X3.1087Y-1.0767
X3.1187Y-2.1607
X3.1251Y-1.5147
X3.1386Y-1.9679
X3.1442Y-4.3839
X3.2422Y-4.3298
X3.2495Y-1.5526
X3.2509Y-2.1024
X3.2764Y-4.2022
X3.2958Y-1.3628
X3.395Y-2.906
X3.4133Y-3.343
X3.4387Y-1.3835
X3.5458Y-3.8557
X3.5486Y-2.8382
X3.5905Y-2.184
X3.5926Y-3.1485
X3.6103Y-2.6079
X3.6369Y-2.9831
X3.7574Y-3.1009
X3.801Y-1.8915
X3.8267Y-2.4971
X3.8777Y-4.6812
X3.8916Y-2.2777
X3.9146Y-4.746
X3.9398Y-2.4109
X4.0085Y-4.5515
X4.0381Y-3.9016
X4.0548Y-4.306
X4.0716Y-4.134
X4.094Y-3.1952
X4.1063Y-3.6469
X4.1183Y-4.4065
X4.1901Y-4.1455
X4.2283Y-3.8232
X4.2439Y-3.6218
X4.251Y-3.8602
X4.2876Y-2.4727
X4.3109Y-3.3715
X4.318Y-3.2159
X4.3469Y-2.749
X4.4001Y-3.3038
X4.4329Y-3.0712
X4.4598Y-2.3275
X4.4778Y-2.8092
X4.4787Y-1.7597
X4.5023Y-3.102
X4.5094Y-4.0763
X4.5216Y-2.4787
X4.523Y-4.2431
X4.5346Y-2.9148
X4.5358Y-3.5419
X4.5387Y-4.1742
X4.546Y-2.5232
X4.5512Y-1.9943
X4.5669Y-3.0136
X4.5692Y-3.7372
X4.5783Y-2.2244
X4.5838Y-2.5401
X4.5846Y-3.6004
X4.6018Y-3.1802
X4.6029Y-3.4841
X4.6041Y-3.1372
X4.6617Y-1.9348
X4.6634Y-3.7795
X4.6687Y-2.7337
X4.6763Y-2.1373
X4.6873Y-1.9715
X4.7124Y-2.2049
X4.7332Y-4.2452
X4.752Y-3.8248
X4.757Y-5.1133
X4.7574Y-3.6193
X4.7631Y-4.2825
X4.7911Y-3.992
X4.7999Y-5.0902
X4.8281Y-4.5443
X4.8376Y-1.7805
X4.8404Y-3.4206
X4.842Y-4.6406
X4.8432Y-2.0218
X4.8554Y-2.8573
X4.8564Y-3.1473
X4.8616Y-4.2923
X4.873Y-2.6349
X4.8836Y-4.7919
X4.8844Y-1.9727
X4.8872Y-1.8439
X4.8974Y-2.8156
X4.9328Y-4.9362
X4.9659Y-4.5423
X4.9885Y-4.9491
X5.0385Y-4.6941
X5.0565Y-4.5462
X5.0664Y-2.1846
X5.097Y-3.9078
X5.1874Y-3.3103
X5.2191Y-3.1699
X5.2283Y-3.7368
X5.2478Y-3.4814
X5.2518Y-3.2491
X5.2621Y-2.4842
X5.2679Y-2.2339
X5.3428Y-3.4892
X5.4372Y-4.6196
X5.438Y-4.9747
X5.4764Y-2.4414
X5.5359Y-3.0936
X5.59Y-4.6117
X5.5904Y-3.0544
X5.6081Y-4.6511
X5.6085Y-4.831
X5.6811Y-3.9504
X5.6844Y-2.4356
X5.6884Y-2.2706
X5.7349Y-2.3374
X5.7369Y-3.5392
X5.7414Y-2.2764
X5.7438Y-1.957
X5.7439Y-2.0817
X5.7647Y-3.2109
X5.7659Y-2.5359
X5.7799Y-2.4553
X5.78Y-4.5933
X5.8104Y-2.6319
X5.8167Y-2.4144
X5.8266Y-1.8915
X5.8329Y-4.9747
X5.8412Y-1.7549
X5.8449Y-2.7329
X5.8475Y-2.0344
X5.8888Y-5.0869
X5.8932Y-2.0574
X5.905Y-1.9645
X5.9126Y-4.7101
X5.9195Y-2.7345
X5.9214Y-3.6699
X5.9214Y-3.0601
X5.923Y-2.4065
X5.938Y-2.2121
X5.9979Y-3.8098
X6.0199Y-3.9471
X6.023Y-2.5275
X6.0284Y-2.4152
X6.0452Y-2.4751
X6.0867Y-1.7825
X6.1504Y-2.612
X6.2204Y-4.0838
X6.2248Y-3.2715
X6.2251Y-3.8599
X6.2369Y-3.4772
X6.2397Y-3.2007
X6.2666Y-2.4859
X6.2679Y-4.0258
X6.2682Y-3.883
X6.2749Y-3.1207
X6.3152Y-3.0855
X6.3484Y-3.3219
X6.3796Y-4.4805
X6.4507Y-3.2248
X6.476Y-3.9128
X6.4895Y-4.1315
X6.4903Y-4.2624
X6.5443Y-1.7871
X6.5911Y-1.6727
X6.5989Y-2.0517
X6.602Y-1.843
X6.6169Y-2.3802
X6.6765Y-2.1629
X6.7215Y-2.1496
X6.7649Y-2.1375
X6.7892Y-2.5757
X6.8173Y-3.0977
X6.8936Y-2.774
X6.9174Y-2.9057
X6.9568Y-3.4942
X6.9681Y-2.2197
X6.9775Y-3.1108
X6.9837Y-3.3017
X6.9841Y-2.8596
X7.0146Y-3.5434
X7.0236Y-3.6067
X7.1043Y-4.1306
X7.1084Y-1.3733
X7.1593Y-3.0711
X7.1686Y-2.977
X7.1712Y-1.2521
X7.1848Y-4.4341
X7.2779Y-1.3571
X7.2841Y-1.5387
X7.302Y-2.0959
X7.3866Y-3.2119
X7.4368Y-1.8477
X7.4499Y-1.1172
X7.4571Y-1.9907
X7.4882Y-2.3004
X7.5772Y-2.4898
X7.6299Y-1.8328
X7.6588Y-3.2164
X7.6621Y-2.7698
X7.6799Y-3.0161
X7.7483Y-3.2712
X7.7823Y-3.4034
X7.8356Y-3.286
X7.8748Y-3.1341
X7.9042Y-3.0745
X7.9329Y-3.6681
X7.9508Y-3.4885
X7.9901Y-3.6365
X7.9912Y-1.6908
X8.0239Y-3.1579
X8.027Y-1.3614
X8.0435Y-3.0951
X8.0487Y-1.5719
X8.102Y-1.2044
X8.104Y-3.4484
X8.1417Y-3.9628
X8.1532Y-1.9078
X8.1629Y-2.4338
X8.1795Y-3.4251
X8.2179Y-1.7152
X8.3344Y-2.6264
X8.3997Y-1.8173
X8.4135Y-2.9293
X8.451Y-3.131
X8.4977Y-3.3053
X8.5157Y-2.4319
X8.5391Y-3.6337
X8.5515Y-0.9866
X8.5588Y-3.2843
X8.5632Y-2.6722
X8.5652Y-3.1573
X8.6005Y-2.5363
X8.6259Y-3.2244
X8.6821Y-3.7991
X8.7466Y-1.7085
X8.7496Y-1.1605
X8.7571Y-3.6743
X8.8554Y-3.0661
X8.9348Y-1.3548
X8.9349Y-1.9039
X8.9369Y-3.772
X8.9663Y-2.4395
X8.9683Y-2.9921
X8.9932Y-1.6708
X9.0516Y-1.9343
X9.074Y-3.5806
X9.0754Y-1.3909
X9.0809Y-2.1335
X9.0987Y-3.9194
X9.1099Y-2.1898
X9.1133Y-3.2085
X9.1311Y-2.5942
X9.1313Y-2.0223
X9.1643Y-2.8627
X9.1662Y-1.9056
X9.1868Y-3.0104
X9.2087Y-3.9265
X9.211Y-2.2301
X9.2375Y-2.8616
X9.2451Y-3.0326
X9.2482Y-3.1403
X9.2501Y-2.1071
X9.2944Y-2.943
X9.3282Y-3.4408
X9.3561Y-2.6501
X9.4244Y-1.2636
X9.5532Y-1.1646
X9.558Y-1.6603
X9.573Y-3.6268
X9.5785Y-1.358
X9.5984Y-3.4117
X9.6145Y-1.9838
X9.6207Y-1.7086
X9.7373Y-1.864
X9.7888Y-2.1814
X9.8046Y-2.7085
X9.8916Y-2.629
X9.8981Y-2.0671
X9.907Y-2.5066
X9.9392Y-1.2911
X10.0843Y-3.2901
X10.0848Y-2.7707
X10.092Y-2.1701
X10.1072Y-2.8326
X10.2358Y-1.3322
X10.2849Y-3.503
X10.2992Y-2.9008
X10.3602Y-1.3602
X10.4308Y-2.0523
X10.4395Y-1.7197
X10.5632Y-2.0773
X10.5833Y-1.9797
X10.635Y-2.436
X10.6669Y-2.6459
X10.7725Y-2.6578
X10.7754Y-2.7894
T2
X9.2262Y-3.6357
X9.3022Y-3.6153
X9.3783Y-3.595
T3
X1.5133Y-3.8864
X1.5336Y-3.8103
X8.5057Y-3.9671
X8.5261Y-4.0432
T4
X9.5405Y-3.8069
X9.6165Y-3.7865
X9.6926Y-3.7661
T5
X1.5582Y-3.7109
X1.6092Y-3.5208
X1.6442Y-3.8542
X1.7408Y-3.8801
X1.8374Y-3.906
X1.9339Y-3.9318
X2.1097Y-3.8587
X2.1351Y-3.7636
X2.1606Y-3.6685
X4.435Y-3.4248
X4.435Y-3.5248
X4.435Y-3.6248
X4.435Y-3.7248
X4.435Y-3.8248
X4.9881Y-3.5404
X4.9881Y-3.6388
X4.9881Y-3.7372
X5.1402Y-3.5572
X5.2402Y-3.5572
X5.3402Y-3.5572
X5.4402Y-3.5572
X5.559Y-3.5404
X5.559Y-3.7372
X8.4033Y-3.6685
X8.4288Y-3.7636
X8.4542Y-3.8587
X8.6234Y-3.9499
X8.72Y-3.924
X8.8166Y-3.8981
X8.9131Y-3.8722
X8.9547Y-3.5208
X9.0056Y-3.7109
T6
X4.9869Y-1.8344
X4.9869Y-1.9344
X4.9869Y-2.0344
X4.9869Y-2.1344
X4.9869Y-2.2344
X4.9869Y-2.3344
X4.9869Y-2.4344
X4.9869Y-2.5344
X4.9869Y-2.6344
X4.9869Y-2.7344
X4.9869Y-2.8344
X4.9872Y-1.834
X4.9872Y-1.934
X4.9872Y-2.034
X4.9872Y-2.134
X4.9872Y-2.234
X4.9872Y-2.334
X4.9872Y-2.434
X4.9872Y-2.534
X4.9872Y-2.634
X4.9872Y-2.734
X4.9872Y-2.834
X4.9872Y-2.934
X4.9959Y-2.9344
X5.0869Y-2.9344
X5.0872Y-2.734
X5.1869Y-2.9344
X5.1872Y-2.734
X5.2869Y-2.9344
X5.2872Y-2.734
X5.3869Y-2.9344
X5.4869Y-2.9344
X5.5869Y-1.8344
X5.5869Y-1.9344
X5.5869Y-2.0344
X5.5869Y-2.1344
X5.5869Y-2.2344
X5.5869Y-2.3344
X5.5869Y-2.4344
X5.5869Y-2.5344
X5.5869Y-2.6344
X5.5869Y-2.7344
X5.5869Y-2.8344
X5.5869Y-2.9344
X5.5872Y-1.834
X5.5872Y-1.934
X5.5872Y-2.034
X5.5872Y-2.134
X5.5872Y-2.234
X5.5872Y-2.334
X5.5872Y-2.434
X5.5872Y-2.534
X5.5872Y-2.634
X5.5872Y-2.734
X5.5872Y-2.834
X5.5872Y-2.934
T7
X9.4606Y-3.8283
X9.7724Y-3.7447
T5
G00X4.7475Y-2.8139
M15
G01X4.7278Y-2.8139
M16
G05
G00X4.7278Y-2.9139
M15
G01X4.7475Y-2.9139
M16
G05
G00X4.7278Y-3.0139
M15
G01X4.7475Y-3.0139
M16
G05
G00X4.7278Y-3.1139
M15
G01X4.7475Y-3.1139
M16
G05
G00X4.7278Y-3.2139
M15
G01X4.7475Y-3.2139
M16
G05
T8
G00X5.0752Y-3.3997
M15
G01X5.0555Y-3.3997
M16
G05
G00X5.5083Y-3.3997
M15
G01X5.4886Y-3.3997
M16
G05
T0
M30
