%TF.GenerationSoftware,KiCad,Pcbnew,(6.0.0)*%
%TF.CreationDate,2022-07-05T02:06:22-07:00*%
%TF.ProjectId,ffkb,66666b62-2e6b-4696-9361-645f70636258,rev?*%
%TF.SameCoordinates,Original*%
%TF.FileFunction,Copper,L2,Bot*%
%TF.FilePolarity,Positive*%
%FSLAX46Y46*%
G04 Gerber Fmt 4.6, Leading zero omitted, Abs format (unit mm)*
G04 Created by KiCad (PCBNEW (6.0.0)) date 2022-07-05 02:06:22*
%MOMM*%
%LPD*%
G01*
G04 APERTURE LIST*
G04 Aperture macros list*
%AMRoundRect*
0 Rectangle with rounded corners*
0 $1 Rounding radius*
0 $2 $3 $4 $5 $6 $7 $8 $9 X,Y pos of 4 corners*
0 Add a 4 corners polygon primitive as box body*
4,1,4,$2,$3,$4,$5,$6,$7,$8,$9,$2,$3,0*
0 Add four circle primitives for the rounded corners*
1,1,$1+$1,$2,$3*
1,1,$1+$1,$4,$5*
1,1,$1+$1,$6,$7*
1,1,$1+$1,$8,$9*
0 Add four rect primitives between the rounded corners*
20,1,$1+$1,$2,$3,$4,$5,0*
20,1,$1+$1,$4,$5,$6,$7,0*
20,1,$1+$1,$6,$7,$8,$9,0*
20,1,$1+$1,$8,$9,$2,$3,0*%
%AMHorizOval*
0 Thick line with rounded ends*
0 $1 width*
0 $2 $3 position (X,Y) of the first rounded end (center of the circle)*
0 $4 $5 position (X,Y) of the second rounded end (center of the circle)*
0 Add line between two ends*
20,1,$1,$2,$3,$4,$5,0*
0 Add two circle primitives to create the rounded ends*
1,1,$1,$2,$3*
1,1,$1,$4,$5*%
%AMRotRect*
0 Rectangle, with rotation*
0 The origin of the aperture is its center*
0 $1 length*
0 $2 width*
0 $3 Rotation angle, in degrees counterclockwise*
0 Add horizontal line*
21,1,$1,$2,0,0,$3*%
%AMFreePoly0*
4,1,22,0.500000,-0.750000,0.000000,-0.750000,0.000000,-0.745033,-0.079941,-0.743568,-0.215256,-0.701293,-0.333266,-0.622738,-0.424486,-0.514219,-0.481581,-0.384460,-0.499164,-0.250000,-0.500000,-0.250000,-0.500000,0.250000,-0.499164,0.250000,-0.499963,0.256109,-0.478152,0.396186,-0.417904,0.524511,-0.324060,0.630769,-0.204165,0.706417,-0.067858,0.745374,0.000000,0.744959,0.000000,0.750000,
0.500000,0.750000,0.500000,-0.750000,0.500000,-0.750000,$1*%
%AMFreePoly1*
4,1,20,0.000000,0.744959,0.073905,0.744508,0.209726,0.703889,0.328688,0.626782,0.421226,0.519385,0.479903,0.390333,0.500000,0.250000,0.500000,-0.250000,0.499851,-0.262216,0.476331,-0.402017,0.414519,-0.529596,0.319384,-0.634700,0.198574,-0.708877,0.061801,-0.746166,0.000000,-0.745033,0.000000,-0.750000,-0.500000,-0.750000,-0.500000,0.750000,0.000000,0.750000,0.000000,0.744959,
0.000000,0.744959,$1*%
G04 Aperture macros list end*
%TA.AperFunction,ComponentPad*%
%ADD10RotRect,2.000000X2.000000X165.000000*%
%TD*%
%TA.AperFunction,ComponentPad*%
%ADD11C,2.000000*%
%TD*%
%TA.AperFunction,ComponentPad*%
%ADD12RotRect,2.000000X2.000000X15.000000*%
%TD*%
%TA.AperFunction,ComponentPad*%
%ADD13HorizOval,2.000000X0.129410X0.482963X-0.129410X-0.482963X0*%
%TD*%
%TA.AperFunction,ComponentPad*%
%ADD14C,1.524000*%
%TD*%
%TA.AperFunction,ComponentPad*%
%ADD15HorizOval,1.524000X0.000000X0.000000X0.000000X0.000000X0*%
%TD*%
%TA.AperFunction,ComponentPad*%
%ADD16HorizOval,2.000000X-0.129410X0.482963X0.129410X-0.482963X0*%
%TD*%
%TA.AperFunction,ComponentPad*%
%ADD17HorizOval,1.524000X0.000000X0.000000X0.000000X0.000000X0*%
%TD*%
%TA.AperFunction,SMDPad,CuDef*%
%ADD18RotRect,2.600000X2.600000X345.000000*%
%TD*%
%TA.AperFunction,SMDPad,CuDef*%
%ADD19RotRect,2.550000X2.500000X165.000000*%
%TD*%
%TA.AperFunction,SMDPad,CuDef*%
%ADD20RotRect,2.550000X2.500000X195.000000*%
%TD*%
%TA.AperFunction,SMDPad,CuDef*%
%ADD21RotRect,2.600000X2.600000X15.000000*%
%TD*%
%TA.AperFunction,SMDPad,CuDef*%
%ADD22R,2.600000X2.600000*%
%TD*%
%TA.AperFunction,SMDPad,CuDef*%
%ADD23R,2.550000X2.500000*%
%TD*%
%TA.AperFunction,ComponentPad*%
%ADD24R,2.000000X2.000000*%
%TD*%
%TA.AperFunction,ComponentPad*%
%ADD25RoundRect,0.425000X0.425000X-0.425000X0.425000X0.425000X-0.425000X0.425000X-0.425000X-0.425000X0*%
%TD*%
%TA.AperFunction,ComponentPad*%
%ADD26O,1.700000X1.700000*%
%TD*%
%TA.AperFunction,ComponentPad*%
%ADD27O,1.600000X2.000000*%
%TD*%
%TA.AperFunction,ComponentPad*%
%ADD28RoundRect,0.425000X0.300520X-0.520517X0.520517X0.300520X-0.300520X0.520517X-0.520517X-0.300520X0*%
%TD*%
%TA.AperFunction,ComponentPad*%
%ADD29HorizOval,1.700000X0.000000X0.000000X0.000000X0.000000X0*%
%TD*%
%TA.AperFunction,ComponentPad*%
%ADD30R,1.752600X1.752600*%
%TD*%
%TA.AperFunction,ComponentPad*%
%ADD31C,1.752600*%
%TD*%
%TA.AperFunction,ComponentPad*%
%ADD32RoundRect,0.425000X-0.300520X-0.520517X0.520517X-0.300520X0.300520X0.520517X-0.520517X0.300520X0*%
%TD*%
%TA.AperFunction,ComponentPad*%
%ADD33HorizOval,1.700000X0.000000X0.000000X0.000000X0.000000X0*%
%TD*%
%TA.AperFunction,ComponentPad*%
%ADD34RoundRect,0.425000X-0.520517X-0.300520X0.300520X-0.520517X0.520517X0.300520X-0.300520X0.520517X0*%
%TD*%
%TA.AperFunction,ComponentPad*%
%ADD35HorizOval,1.700000X0.000000X0.000000X0.000000X0.000000X0*%
%TD*%
%TA.AperFunction,SMDPad,CuDef*%
%ADD36RotRect,0.900000X1.200000X255.000000*%
%TD*%
%TA.AperFunction,SMDPad,CuDef*%
%ADD37RotRect,0.900000X1.200000X285.000000*%
%TD*%
%TA.AperFunction,SMDPad,CuDef*%
%ADD38R,1.800000X1.100000*%
%TD*%
%TA.AperFunction,SMDPad,CuDef*%
%ADD39R,1.501140X0.899160*%
%TD*%
%TA.AperFunction,SMDPad,CuDef*%
%ADD40R,1.200000X0.900000*%
%TD*%
%TA.AperFunction,SMDPad,CuDef*%
%ADD41R,1.500000X2.000000*%
%TD*%
%TA.AperFunction,SMDPad,CuDef*%
%ADD42R,3.800000X2.000000*%
%TD*%
%TA.AperFunction,SMDPad,CuDef*%
%ADD43RoundRect,0.140000X0.140000X0.170000X-0.140000X0.170000X-0.140000X-0.170000X0.140000X-0.170000X0*%
%TD*%
%TA.AperFunction,SMDPad,CuDef*%
%ADD44RoundRect,0.135000X-0.135000X-0.185000X0.135000X-0.185000X0.135000X0.185000X-0.135000X0.185000X0*%
%TD*%
%TA.AperFunction,SMDPad,CuDef*%
%ADD45RoundRect,0.140000X-0.170000X0.140000X-0.170000X-0.140000X0.170000X-0.140000X0.170000X0.140000X0*%
%TD*%
%TA.AperFunction,SMDPad,CuDef*%
%ADD46RoundRect,0.140000X0.170000X-0.140000X0.170000X0.140000X-0.170000X0.140000X-0.170000X-0.140000X0*%
%TD*%
%TA.AperFunction,SMDPad,CuDef*%
%ADD47R,0.280000X1.250000*%
%TD*%
%TA.AperFunction,SMDPad,CuDef*%
%ADD48R,1.800000X2.000000*%
%TD*%
%TA.AperFunction,SMDPad,CuDef*%
%ADD49R,1.200000X1.400000*%
%TD*%
%TA.AperFunction,SMDPad,CuDef*%
%ADD50RoundRect,0.135000X0.135000X0.185000X-0.135000X0.185000X-0.135000X-0.185000X0.135000X-0.185000X0*%
%TD*%
%TA.AperFunction,SMDPad,CuDef*%
%ADD51RoundRect,0.135000X0.185000X-0.135000X0.185000X0.135000X-0.185000X0.135000X-0.185000X-0.135000X0*%
%TD*%
%TA.AperFunction,SMDPad,CuDef*%
%ADD52RoundRect,0.250000X0.262500X0.450000X-0.262500X0.450000X-0.262500X-0.450000X0.262500X-0.450000X0*%
%TD*%
%TA.AperFunction,SMDPad,CuDef*%
%ADD53FreePoly0,180.000000*%
%TD*%
%TA.AperFunction,SMDPad,CuDef*%
%ADD54FreePoly1,180.000000*%
%TD*%
%TA.AperFunction,SMDPad,CuDef*%
%ADD55R,0.900000X1.200000*%
%TD*%
%TA.AperFunction,SMDPad,CuDef*%
%ADD56RoundRect,0.140000X-0.021213X0.219203X-0.219203X0.021213X0.021213X-0.219203X0.219203X-0.021213X0*%
%TD*%
%TA.AperFunction,SMDPad,CuDef*%
%ADD57RoundRect,0.250000X-0.262500X-0.450000X0.262500X-0.450000X0.262500X0.450000X-0.262500X0.450000X0*%
%TD*%
%TA.AperFunction,SMDPad,CuDef*%
%ADD58RoundRect,0.062500X-0.062500X0.375000X-0.062500X-0.375000X0.062500X-0.375000X0.062500X0.375000X0*%
%TD*%
%TA.AperFunction,SMDPad,CuDef*%
%ADD59RoundRect,0.062500X-0.375000X0.062500X-0.375000X-0.062500X0.375000X-0.062500X0.375000X0.062500X0*%
%TD*%
%TA.AperFunction,SMDPad,CuDef*%
%ADD60R,5.600000X5.600000*%
%TD*%
%TA.AperFunction,SMDPad,CuDef*%
%ADD61RoundRect,0.250000X0.325000X0.650000X-0.325000X0.650000X-0.325000X-0.650000X0.325000X-0.650000X0*%
%TD*%
%TA.AperFunction,SMDPad,CuDef*%
%ADD62FreePoly0,0.000000*%
%TD*%
%TA.AperFunction,SMDPad,CuDef*%
%ADD63FreePoly1,0.000000*%
%TD*%
%TA.AperFunction,SMDPad,CuDef*%
%ADD64RoundRect,0.140000X-0.140000X-0.170000X0.140000X-0.170000X0.140000X0.170000X-0.140000X0.170000X0*%
%TD*%
%TA.AperFunction,SMDPad,CuDef*%
%ADD65R,0.600000X1.450000*%
%TD*%
%TA.AperFunction,SMDPad,CuDef*%
%ADD66R,0.300000X1.450000*%
%TD*%
%TA.AperFunction,ComponentPad*%
%ADD67O,1.000000X1.600000*%
%TD*%
%TA.AperFunction,ComponentPad*%
%ADD68O,1.000000X2.100000*%
%TD*%
%TA.AperFunction,SMDPad,CuDef*%
%ADD69RoundRect,0.150000X-0.150000X0.512500X-0.150000X-0.512500X0.150000X-0.512500X0.150000X0.512500X0*%
%TD*%
%TA.AperFunction,SMDPad,CuDef*%
%ADD70RoundRect,0.135000X-0.185000X0.135000X-0.185000X-0.135000X0.185000X-0.135000X0.185000X0.135000X0*%
%TD*%
%TA.AperFunction,SMDPad,CuDef*%
%ADD71RoundRect,0.243750X0.243750X0.456250X-0.243750X0.456250X-0.243750X-0.456250X0.243750X-0.456250X0*%
%TD*%
%TA.AperFunction,SMDPad,CuDef*%
%ADD72RoundRect,0.250000X-0.450000X0.262500X-0.450000X-0.262500X0.450000X-0.262500X0.450000X0.262500X0*%
%TD*%
%TA.AperFunction,SMDPad,CuDef*%
%ADD73RoundRect,0.147500X0.172500X-0.147500X0.172500X0.147500X-0.172500X0.147500X-0.172500X-0.147500X0*%
%TD*%
%TA.AperFunction,ViaPad*%
%ADD74C,0.800000*%
%TD*%
%TA.AperFunction,Conductor*%
%ADD75C,0.254000*%
%TD*%
%TA.AperFunction,Conductor*%
%ADD76C,0.200000*%
%TD*%
G04 APERTURE END LIST*
%TO.C,JP3*%
G36*
X120196633Y-23704185D02*
G01*
X119696633Y-23704185D01*
X119696633Y-23104185D01*
X120196633Y-23104185D01*
X120196633Y-23704185D01*
G37*
%TD*%
D10*
%TO.P,SW42,A,A*%
%TO.N,ENC1A*%
X54631885Y-98514605D03*
D11*
%TO.P,SW42,B,B*%
%TO.N,ENC1B*%
X55925980Y-93684976D03*
%TO.P,SW42,C,C*%
%TO.N,GND*%
X55278933Y-96099791D03*
%TO.P,SW42,S1,S1*%
%TO.N,col1*%
X41920056Y-89932100D03*
%TO.P,SW42,S2,S2*%
%TO.N,Net-(D81-Pad2)*%
X40625961Y-94761729D03*
%TD*%
D12*
%TO.P,SW43,A,A*%
%TO.N,ENC2A*%
X219490108Y-93684727D03*
D11*
%TO.P,SW43,B,B*%
%TO.N,ENC2B*%
X220784203Y-98514356D03*
%TO.P,SW43,C,C*%
%TO.N,GND*%
X220137155Y-96099542D03*
%TO.P,SW43,S1,S1*%
%TO.N,col0*%
X234790127Y-94761480D03*
%TO.P,SW43,S2,S2*%
%TO.N,Net-(D82-Pad2)*%
X233496032Y-89931851D03*
%TD*%
D13*
%TO.P,SW44,A,A*%
%TO.N,ENC1A*%
X42808528Y-98400601D03*
%TO.P,SW44,B,B*%
%TO.N,ENC1B*%
X45261979Y-99058001D03*
%TO.P,SW44,C,C*%
%TO.N,GND*%
X47715431Y-99715402D03*
%TO.P,SW44,NC,NC*%
%TO.N,unconnected-(SW44-PadNC)*%
X50168882Y-100372802D03*
D14*
%TO.P,SW44,S1,S1*%
%TO.N,col1*%
X39483699Y-99217921D03*
D15*
%TO.P,SW44,S2,S2*%
%TO.N,Net-(D81-Pad2)*%
X40001337Y-97286070D03*
%TD*%
D16*
%TO.P,SW45,A,A*%
%TO.N,ENC2A*%
X225080283Y-100831400D03*
%TO.P,SW45,B,B*%
%TO.N,ENC2B*%
X227533735Y-100174000D03*
%TO.P,SW45,C,C*%
%TO.N,GND*%
X229987187Y-99516600D03*
%TO.P,SW45,NC,NC*%
%TO.N,unconnected-(SW45-PadNC)*%
X232440638Y-98859199D03*
D14*
%TO.P,SW45,S1,S1*%
%TO.N,col0*%
X222609557Y-103201635D03*
D17*
%TO.P,SW45,S2,S2*%
%TO.N,Net-(D82-Pad2)*%
X222091919Y-101269783D03*
%TD*%
D18*
%TO.P,SW22,1,1*%
%TO.N,Net-(D22-Pad2)*%
X35965463Y-70482100D03*
D19*
X37538597Y-72280537D03*
D18*
%TO.P,SW22,2,2*%
%TO.N,col2*%
X46552505Y-75596497D03*
D19*
X51574070Y-73411730D03*
%TD*%
D18*
%TO.P,SW33,1,1*%
%TO.N,Net-(D33-Pad2)*%
X70711193Y-102130593D03*
D19*
X72284327Y-103929030D03*
%TO.P,SW33,2,2*%
%TO.N,col3*%
X86319800Y-105060223D03*
D18*
X81298235Y-107244990D03*
%TD*%
%TO.P,SW23,1,1*%
%TO.N,Net-(D23-Pad2)*%
X55612145Y-70570021D03*
D19*
X57185279Y-72368458D03*
D18*
%TO.P,SW23,2,2*%
%TO.N,col3*%
X66199187Y-75684418D03*
D19*
X71220752Y-73499651D03*
%TD*%
%TO.P,SW35,1,1*%
%TO.N,Net-(D35-Pad2)*%
X113944325Y-110417034D03*
D18*
X112371191Y-108618597D03*
D19*
%TO.P,SW35,2,2*%
%TO.N,col5*%
X127979798Y-111548227D03*
D18*
X122958233Y-113732994D03*
%TD*%
D19*
%TO.P,SW25,1,1*%
%TO.N,Net-(D25-Pad2)*%
X91949326Y-89448025D03*
D18*
X90376192Y-87649588D03*
%TO.P,SW25,2,2*%
%TO.N,col5*%
X100963234Y-92763985D03*
D19*
X105984799Y-90579218D03*
%TD*%
%TO.P,SW21,1,1*%
%TO.N,Net-(D21-Pad2)*%
X15950774Y-79437044D03*
D18*
X14377640Y-77638607D03*
%TO.P,SW21,2,2*%
%TO.N,col1*%
X24964682Y-82753004D03*
D19*
X29986247Y-80568237D03*
%TD*%
D18*
%TO.P,SW14,1,1*%
%TO.N,Net-(D14-Pad2)*%
X77588213Y-61964628D03*
D19*
X79161347Y-63763065D03*
%TO.P,SW14,2,2*%
%TO.N,col4*%
X93196820Y-64894258D03*
D18*
X88175255Y-67079025D03*
%TD*%
%TO.P,SW34,1,1*%
%TO.N,Net-(D34-Pad2)*%
X92796191Y-108182587D03*
D19*
X94369325Y-109981024D03*
%TO.P,SW34,2,2*%
%TO.N,col4*%
X108404798Y-111112217D03*
D18*
X103383233Y-113296984D03*
%TD*%
D19*
%TO.P,SW4,1,1*%
%TO.N,Net-(D4-Pad2)*%
X84078900Y-45410475D03*
D18*
X82505766Y-43612038D03*
%TO.P,SW4,2,2*%
%TO.N,col4*%
X93092808Y-48726435D03*
D19*
X98114373Y-46541668D03*
%TD*%
%TO.P,SW24,1,1*%
%TO.N,Net-(D24-Pad2)*%
X74243784Y-82115652D03*
D18*
X72670650Y-80317215D03*
%TO.P,SW24,2,2*%
%TO.N,col4*%
X83257692Y-85431612D03*
D19*
X88279257Y-83246845D03*
%TD*%
%TO.P,SW12,1,1*%
%TO.N,Net-(D12-Pad2)*%
X42456161Y-53927944D03*
D18*
X40883027Y-52129507D03*
%TO.P,SW12,2,2*%
%TO.N,col2*%
X51470069Y-57243904D03*
D19*
X56491634Y-55059137D03*
%TD*%
%TO.P,SW3,1,1*%
%TO.N,Net-(D3-Pad2)*%
X67020405Y-35663277D03*
D18*
X65447271Y-33864840D03*
%TO.P,SW3,2,2*%
%TO.N,col3*%
X76034313Y-38979237D03*
D19*
X81055878Y-36794470D03*
%TD*%
%TO.P,SW15,1,1*%
%TO.N,Net-(D15-Pad2)*%
X96866895Y-71095448D03*
D18*
X95293761Y-69297011D03*
%TO.P,SW15,2,2*%
%TO.N,col5*%
X105880803Y-74411408D03*
D19*
X110902368Y-72226641D03*
%TD*%
D18*
%TO.P,SW5,1,1*%
%TO.N,Net-(D5-Pad2)*%
X100211312Y-50944406D03*
D19*
X101784446Y-52742843D03*
D18*
%TO.P,SW5,2,2*%
%TO.N,col5*%
X110798354Y-56058803D03*
D19*
X115819919Y-53874036D03*
%TD*%
D18*
%TO.P,SW13,1,1*%
%TO.N,Net-(D13-Pad2)*%
X60529716Y-52217430D03*
D19*
X62102850Y-54015867D03*
%TO.P,SW13,2,2*%
%TO.N,col3*%
X76138323Y-55147060D03*
D18*
X71116758Y-57331827D03*
%TD*%
D19*
%TO.P,SW1,1,1*%
%TO.N,Net-(D1-Pad2)*%
X25785903Y-42731853D03*
D18*
X24212769Y-40933416D03*
D19*
%TO.P,SW1,2,2*%
%TO.N,col1*%
X39821376Y-43863046D03*
D18*
X34799811Y-46047813D03*
%TD*%
%TO.P,SW2,1,1*%
%TO.N,Net-(D2-Pad2)*%
X45800587Y-33776915D03*
D19*
X47373721Y-35575352D03*
D18*
%TO.P,SW2,2,2*%
%TO.N,col2*%
X56387629Y-38891312D03*
D19*
X61409194Y-36706545D03*
%TD*%
%TO.P,SW11,1,1*%
%TO.N,Net-(D11-Pad2)*%
X20868334Y-61084447D03*
D18*
X19295200Y-59286010D03*
D19*
%TO.P,SW11,2,2*%
%TO.N,col1*%
X34903807Y-62215640D03*
D18*
X29882242Y-64400407D03*
%TD*%
D20*
%TO.P,SW36,1,1*%
%TO.N,Net-(D36-Pad2)*%
X149324407Y-113674754D03*
D21*
X147062815Y-112903828D03*
D20*
%TO.P,SW36,2,2*%
%TO.N,col6*%
X162045080Y-107636659D03*
D21*
X158788660Y-112039505D03*
%TD*%
D20*
%TO.P,SW29,1,1*%
%TO.N,Net-(D29-Pad2)*%
X225730094Y-75538752D03*
D21*
X223468502Y-74767826D03*
D20*
%TO.P,SW29,2,2*%
%TO.N,col3*%
X238450767Y-69500657D03*
D21*
X235194347Y-73903503D03*
%TD*%
D20*
%TO.P,SW37,1,1*%
%TO.N,Net-(D37-Pad2)*%
X168899462Y-113139058D03*
D21*
X166637870Y-112368132D03*
D20*
%TO.P,SW37,2,2*%
%TO.N,col7*%
X181620135Y-107100963D03*
D21*
X178363715Y-111503809D03*
%TD*%
D20*
%TO.P,SW38,1,1*%
%TO.N,Net-(D38-Pad2)*%
X190984052Y-107186757D03*
D21*
X188722460Y-106415831D03*
%TO.P,SW38,2,2*%
%TO.N,col2*%
X200448305Y-105551508D03*
D20*
X203704725Y-101148662D03*
%TD*%
%TO.P,SW30,1,1*%
%TO.N,Net-(D30-Pad2)*%
X247317928Y-82695266D03*
D21*
X245056336Y-81924340D03*
D20*
%TO.P,SW30,2,2*%
%TO.N,col6*%
X260038601Y-76657171D03*
D21*
X256782181Y-81060017D03*
%TD*%
D20*
%TO.P,SW26,1,1*%
%TO.N,Net-(D26-Pad2)*%
X171319376Y-92706251D03*
D21*
X169057784Y-91935325D03*
D20*
%TO.P,SW26,2,2*%
%TO.N,col6*%
X184040049Y-86668156D03*
D21*
X180783629Y-91071002D03*
%TD*%
D20*
%TO.P,SW27,1,1*%
%TO.N,Net-(D27-Pad2)*%
X189024925Y-85373885D03*
D21*
X186763333Y-84602959D03*
D20*
%TO.P,SW27,2,2*%
%TO.N,col7*%
X201745598Y-79335790D03*
D21*
X198489178Y-83738636D03*
%TD*%
%TO.P,SW28,1,1*%
%TO.N,Net-(D28-Pad2)*%
X203821817Y-74855756D03*
D20*
X206083409Y-75626682D03*
D21*
%TO.P,SW28,2,2*%
%TO.N,col2*%
X215547662Y-73991433D03*
D20*
X218804082Y-69588587D03*
%TD*%
D21*
%TO.P,SW20,1,1*%
%TO.N,Net-(D20-Pad2)*%
X240138772Y-63571746D03*
D20*
X242400364Y-64342672D03*
D21*
%TO.P,SW20,2,2*%
%TO.N,col5*%
X251864617Y-62707423D03*
D20*
X255121037Y-58304577D03*
%TD*%
%TO.P,SW7,1,1*%
%TO.N,Net-(D7-Pad2)*%
X179189800Y-48668697D03*
D21*
X176928208Y-47897771D03*
%TO.P,SW7,2,2*%
%TO.N,col7*%
X188654053Y-47033448D03*
D20*
X191910473Y-42630602D03*
%TD*%
%TO.P,SW9,1,1*%
%TO.N,Net-(D9-Pad2)*%
X215894973Y-38833575D03*
D21*
X213633381Y-38062649D03*
D20*
%TO.P,SW9,2,2*%
%TO.N,col4*%
X228615646Y-32795480D03*
D21*
X225359226Y-37198326D03*
%TD*%
%TO.P,SW8,1,1*%
%TO.N,Net-(D8-Pad2)*%
X193986693Y-38150581D03*
D20*
X196248285Y-38921507D03*
D21*
%TO.P,SW8,2,2*%
%TO.N,col3*%
X205712538Y-37286258D03*
D20*
X208968958Y-32883412D03*
%TD*%
%TO.P,SW16,1,1*%
%TO.N,Net-(D16-Pad2)*%
X166401816Y-74353668D03*
D21*
X164140224Y-73582742D03*
D20*
%TO.P,SW16,2,2*%
%TO.N,col6*%
X179122489Y-68315573D03*
D21*
X175866069Y-72718419D03*
%TD*%
%TO.P,SW19,1,1*%
%TO.N,Net-(D19-Pad2)*%
X218550946Y-56415246D03*
D20*
X220812538Y-57186172D03*
%TO.P,SW19,2,2*%
%TO.N,col4*%
X233533211Y-51148077D03*
D21*
X230276791Y-55550923D03*
%TD*%
%TO.P,SW17,1,1*%
%TO.N,Net-(D17-Pad2)*%
X181845761Y-66250364D03*
D20*
X184107353Y-67021290D03*
%TO.P,SW17,2,2*%
%TO.N,col7*%
X196828026Y-60983195D03*
D21*
X193571606Y-65386041D03*
%TD*%
D20*
%TO.P,SW18,1,1*%
%TO.N,Net-(D18-Pad2)*%
X201165851Y-57274090D03*
D21*
X198904259Y-56503164D03*
%TO.P,SW18,2,2*%
%TO.N,col2*%
X210630104Y-55638841D03*
D20*
X213886524Y-51235995D03*
%TD*%
D21*
%TO.P,SW10,1,1*%
%TO.N,Net-(D10-Pad2)*%
X235221209Y-45219157D03*
D20*
X237482801Y-45990083D03*
%TO.P,SW10,2,2*%
%TO.N,col5*%
X250203474Y-39951988D03*
D21*
X246947054Y-44354834D03*
%TD*%
D20*
%TO.P,SW6,1,1*%
%TO.N,Net-(D6-Pad2)*%
X161484251Y-56001078D03*
D21*
X159222659Y-55230152D03*
%TO.P,SW6,2,2*%
%TO.N,col6*%
X170948504Y-54365829D03*
D20*
X174204924Y-49962983D03*
%TD*%
D19*
%TO.P,SW31,1,1*%
%TO.N,Net-(D31-Pad2)*%
X4655642Y-44316963D03*
D18*
X3082508Y-42518526D03*
D19*
%TO.P,SW31,2,2*%
%TO.N,col0*%
X18691115Y-45448156D03*
D18*
X13669550Y-47632923D03*
%TD*%
D21*
%TO.P,SW32,1,1*%
%TO.N,Net-(D32-Pad2)*%
X256351452Y-46804253D03*
D20*
X258613044Y-47575179D03*
D21*
%TO.P,SW32,2,2*%
%TO.N,col7*%
X268077297Y-45939930D03*
D20*
X271333717Y-41537084D03*
%TD*%
D18*
%TO.P,SW39,1,1*%
%TO.N,Net-(D39-Pad2)*%
X-1835044Y-60871117D03*
D19*
X-261910Y-62669554D03*
%TO.P,SW39,2,2*%
%TO.N,col0*%
X13773563Y-63800747D03*
D18*
X8751998Y-65985514D03*
%TD*%
D20*
%TO.P,SW40,1,1*%
%TO.N,Net-(D40-Pad2)*%
X263530608Y-65927782D03*
D21*
X261269016Y-65156856D03*
D20*
%TO.P,SW40,2,2*%
%TO.N,col7*%
X276251281Y-59889687D03*
D21*
X272994861Y-64292533D03*
%TD*%
D22*
%TO.P,SW46,1,1*%
%TO.N,Net-(D44-Pad2)*%
X771633Y-105784180D03*
D23*
X2756633Y-107114180D03*
D22*
%TO.P,SW46,2,2*%
%TO.N,col0*%
X12321633Y-107984180D03*
D23*
X16606633Y-104574180D03*
%TD*%
D22*
%TO.P,SW47,1,1*%
%TO.N,Net-(D51-Pad2)*%
X257261633Y-106214176D03*
D23*
X259246633Y-107544176D03*
D22*
%TO.P,SW47,2,2*%
%TO.N,col6*%
X268811633Y-108414176D03*
D23*
X273096633Y-105004176D03*
%TD*%
D24*
%TO.P,SW48,A,A*%
%TO.N,sda*%
X130244891Y-80429260D03*
D11*
%TO.P,SW48,B,B*%
%TO.N,scl*%
X130244891Y-85429260D03*
%TO.P,SW48,C,C*%
%TO.N,GND*%
X130244891Y-82929260D03*
%TO.P,SW48,S1,S1*%
%TO.N,col1*%
X144744891Y-85429260D03*
%TO.P,SW48,S2,S2*%
%TO.N,Net-(D87-Pad2)*%
X144744891Y-80429260D03*
%TD*%
D25*
%TO.P,J5,1,Pin_1*%
%TO.N,+5V*%
X112136636Y-34004178D03*
D26*
%TO.P,J5,2,Pin_2*%
%TO.N,GND*%
X114676636Y-34004178D03*
%TO.P,J5,3,Pin_3*%
%TO.N,3.3V*%
X117216636Y-34004178D03*
%TO.P,J5,4,Pin_4*%
%TO.N,GND*%
X119756636Y-34004178D03*
%TD*%
D27*
%TO.P,Brd1,1,GND*%
%TO.N,GND*%
X141026629Y-79654188D03*
%TO.P,Brd1,2,VCC*%
%TO.N,+5V*%
X138486629Y-79654188D03*
%TO.P,Brd1,3,SCL*%
%TO.N,scl*%
X135946629Y-79654188D03*
%TO.P,Brd1,4,SDA*%
%TO.N,sda*%
X133406629Y-79654188D03*
%TD*%
D28*
%TO.P,J6,1,Pin_1*%
%TO.N,+5V*%
X81374904Y-69505283D03*
D29*
%TO.P,J6,2,Pin_2*%
%TO.N,GND*%
X83828355Y-70162684D03*
%TO.P,J6,3,Pin_3*%
%TO.N,SWC*%
X86281807Y-70820084D03*
%TO.P,J6,4,Pin_4*%
%TO.N,SWD*%
X88735258Y-71477485D03*
%TD*%
D30*
%TO.P,U4,1,TX0/PD3*%
%TO.N,led*%
X130076635Y-25934179D03*
D31*
%TO.P,U4,2,RX1/PD2*%
%TO.N,row0*%
X130076635Y-28474179D03*
%TO.P,U4,3,GND*%
%TO.N,GND*%
X130076635Y-31014179D03*
%TO.P,U4,4,GND*%
X130076635Y-33554179D03*
%TO.P,U4,5,2/PD1*%
%TO.N,sda*%
X130076635Y-36094179D03*
%TO.P,U4,6,3/PD0*%
%TO.N,scl*%
X130076635Y-38634179D03*
%TO.P,U4,7,4/PD4*%
%TO.N,col5*%
X130076635Y-41174179D03*
%TO.P,U4,8,5/PC6*%
%TO.N,col4*%
X130076635Y-43714179D03*
%TO.P,U4,9,6/PD7*%
%TO.N,col3*%
X130076635Y-46254179D03*
%TO.P,U4,10,7/PE6*%
%TO.N,col2*%
X130076635Y-48794179D03*
%TO.P,U4,11,8/PB4*%
%TO.N,col1*%
X130076635Y-51334179D03*
%TO.P,U4,12,9/PB5*%
%TO.N,col0*%
X130305235Y-53874179D03*
%TO.P,U4,13,10/PB6*%
%TO.N,ENC2A*%
X145316635Y-53874179D03*
%TO.P,U4,14,16/PB2*%
%TO.N,col6*%
X145316635Y-51334179D03*
%TO.P,U4,15,14/PB3*%
%TO.N,col7*%
X145316635Y-48794179D03*
%TO.P,U4,16,15/PB1*%
%TO.N,row5*%
X145316635Y-46254179D03*
%TO.P,U4,17,A0/PF7*%
%TO.N,row4*%
X145316635Y-43714179D03*
%TO.P,U4,18,A1/PF6*%
%TO.N,row3*%
X145316635Y-41174179D03*
%TO.P,U4,19,A2/PF5*%
%TO.N,row2*%
X145316635Y-38634179D03*
%TO.P,U4,20,A3/PF4*%
%TO.N,row1*%
X145316635Y-36094179D03*
%TO.P,U4,21,VCC*%
%TO.N,+5V*%
X145316635Y-33554179D03*
%TO.P,U4,22,RST*%
%TO.N,RESET*%
X145316635Y-31014179D03*
%TO.P,U4,23,GND*%
%TO.N,GND*%
X145316635Y-28474179D03*
%TO.P,U4,24,B0*%
%TO.N,RAW*%
X145316635Y-25934179D03*
%TO.P,U4,25,B7*%
%TO.N,ENC1B*%
X132616635Y-53874179D03*
%TO.P,U4,26,D5*%
%TO.N,ENC1A*%
X135156635Y-53874179D03*
%TO.P,U4,27,C7*%
%TO.N,unconnected-(U4-Pad27)*%
X137696635Y-53874179D03*
%TO.P,U4,28,F1*%
%TO.N,ENC2B*%
X140236635Y-53874179D03*
%TO.P,U4,29,F0*%
%TO.N,unconnected-(U4-Pad29)*%
X142776635Y-53874179D03*
%TD*%
D32*
%TO.P,J1,1,Pin_1*%
%TO.N,PA10*%
X154913208Y-69954808D03*
D33*
%TO.P,J1,2,Pin_2*%
%TO.N,PB12*%
X155570609Y-72408259D03*
%TO.P,J1,3,Pin_3*%
%TO.N,PB13*%
X156228009Y-74861711D03*
%TO.P,J1,4,Pin_4*%
%TO.N,PB14*%
X156885410Y-77315162D03*
%TO.P,J1,5,Pin_5*%
%TO.N,PB15*%
X157542810Y-79768614D03*
%TO.P,J1,6,Pin_6*%
%TO.N,PC15*%
X158200210Y-82222066D03*
%TO.P,J1,7,Pin_7*%
%TO.N,PA1*%
X158857611Y-84675517D03*
%TD*%
D34*
%TO.P,J4,1,Pin_1*%
%TO.N,sda*%
X119841103Y-79501908D03*
D35*
%TO.P,J4,2,Pin_2*%
%TO.N,scl*%
X119183702Y-81955359D03*
%TO.P,J4,3,Pin_3*%
%TO.N,+5V*%
X118526302Y-84408811D03*
%TO.P,J4,4,Pin_4*%
%TO.N,3.3V*%
X117868901Y-86862262D03*
%TO.P,J4,5,Pin_5*%
%TO.N,GND*%
X117211501Y-89315714D03*
%TD*%
D36*
%TO.P,D81,1,K*%
%TO.N,row5*%
X38425375Y-92194704D03*
%TO.P,D81,2,A*%
%TO.N,Net-(D81-Pad2)*%
X37571273Y-95382260D03*
%TD*%
D37*
%TO.P,D82,1,K*%
%TO.N,row5*%
X217410064Y-100865542D03*
%TO.P,D82,2,A*%
%TO.N,Net-(D82-Pad2)*%
X218264166Y-104053098D03*
%TD*%
D38*
%TO.P,SW41,1,1*%
%TO.N,BOOT0*%
X126196969Y-73348497D03*
%TO.P,SW41,2,2*%
%TO.N,VDD*%
X119996969Y-77048497D03*
%TO.P,SW41,3*%
%TO.N,N/C*%
X126196969Y-77048497D03*
%TO.P,SW41,4*%
X119996969Y-73348497D03*
%TD*%
D36*
%TO.P,D3,1,K*%
%TO.N,row0*%
X66998455Y-28172357D03*
%TO.P,D3,2,A*%
%TO.N,Net-(D3-Pad2)*%
X66144353Y-31359913D03*
%TD*%
%TO.P,D5,1,K*%
%TO.N,row0*%
X101762494Y-45251918D03*
%TO.P,D5,2,A*%
%TO.N,Net-(D5-Pad2)*%
X100908392Y-48439474D03*
%TD*%
%TO.P,D4,1,K*%
%TO.N,row0*%
X84056954Y-37919540D03*
%TO.P,D4,2,A*%
%TO.N,Net-(D4-Pad2)*%
X83202852Y-41107096D03*
%TD*%
%TO.P,D1,1,K*%
%TO.N,row0*%
X25763939Y-35240935D03*
%TO.P,D1,2,A*%
%TO.N,Net-(D1-Pad2)*%
X24909837Y-38428491D03*
%TD*%
%TO.P,D2,1,K*%
%TO.N,row0*%
X47351767Y-28084419D03*
%TO.P,D2,2,A*%
%TO.N,Net-(D2-Pad2)*%
X46497665Y-31271975D03*
%TD*%
%TO.P,D12,1,K*%
%TO.N,row1*%
X42434204Y-46437007D03*
%TO.P,D12,2,A*%
%TO.N,Net-(D12-Pad2)*%
X41580102Y-49624563D03*
%TD*%
%TO.P,D14,1,K*%
%TO.N,row1*%
X79139383Y-56272130D03*
%TO.P,D14,2,A*%
%TO.N,Net-(D14-Pad2)*%
X78285281Y-59459686D03*
%TD*%
%TO.P,D13,1,K*%
%TO.N,row1*%
X62080889Y-46524940D03*
%TO.P,D13,2,A*%
%TO.N,Net-(D13-Pad2)*%
X61226787Y-49712496D03*
%TD*%
%TO.P,D15,1,K*%
%TO.N,row1*%
X96844934Y-63604512D03*
%TO.P,D15,2,A*%
%TO.N,Net-(D15-Pad2)*%
X95990832Y-66792068D03*
%TD*%
%TO.P,D22,1,K*%
%TO.N,row2*%
X38091346Y-62872527D03*
%TO.P,D22,2,A*%
%TO.N,Net-(D22-Pad2)*%
X37237244Y-66060083D03*
%TD*%
%TO.P,D25,1,K*%
%TO.N,row2*%
X91927379Y-81957100D03*
%TO.P,D25,2,A*%
%TO.N,Net-(D25-Pad2)*%
X91073277Y-85144656D03*
%TD*%
%TO.P,D24,1,K*%
%TO.N,row2*%
X74221825Y-74624727D03*
%TO.P,D24,2,A*%
%TO.N,Net-(D24-Pad2)*%
X73367723Y-77812283D03*
%TD*%
%TO.P,D23,1,K*%
%TO.N,row2*%
X57163334Y-64877544D03*
%TO.P,D23,2,A*%
%TO.N,Net-(D23-Pad2)*%
X56309232Y-68065100D03*
%TD*%
%TO.P,D21,1,K*%
%TO.N,row2*%
X15928812Y-71946108D03*
%TO.P,D21,2,A*%
%TO.N,Net-(D21-Pad2)*%
X15074710Y-75133664D03*
%TD*%
%TO.P,D11,1,K*%
%TO.N,row1*%
X20846381Y-53593526D03*
%TO.P,D11,2,A*%
%TO.N,Net-(D11-Pad2)*%
X19992279Y-56781082D03*
%TD*%
D39*
%TO.P,D41,1,VDD*%
%TO.N,+5V*%
X-2652729Y-51004382D03*
%TO.P,D41,2,DOUT*%
%TO.N,Net-(D41-Pad2)*%
X-2652729Y-47803982D03*
%TO.P,D41,3,VSS*%
%TO.N,GND*%
X2345991Y-47803982D03*
%TO.P,D41,4,DIN*%
%TO.N,Net-(D41-Pad4)*%
X2345991Y-51004382D03*
%TD*%
D36*
%TO.P,D33,1,K*%
%TO.N,row5*%
X72332374Y-95762551D03*
%TO.P,D33,2,A*%
%TO.N,Net-(D33-Pad2)*%
X71478272Y-98950107D03*
%TD*%
%TO.P,D34,1,K*%
%TO.N,row5*%
X94673685Y-100710404D03*
%TO.P,D34,2,A*%
%TO.N,Net-(D34-Pad2)*%
X93819583Y-103897960D03*
%TD*%
%TO.P,D35,1,K*%
%TO.N,row5*%
X114273686Y-101210407D03*
%TO.P,D35,2,A*%
%TO.N,Net-(D35-Pad2)*%
X113419584Y-104397963D03*
%TD*%
D37*
%TO.P,D9,1,K*%
%TO.N,row3*%
X212130504Y-32357211D03*
%TO.P,D9,2,A*%
%TO.N,Net-(D9-Pad2)*%
X212984606Y-35544767D03*
%TD*%
%TO.P,D10,1,K*%
%TO.N,row4*%
X233553017Y-39217799D03*
%TO.P,D10,2,A*%
%TO.N,Net-(D10-Pad2)*%
X234407119Y-42405355D03*
%TD*%
%TO.P,D7,1,K*%
%TO.N,row0*%
X175425329Y-42192341D03*
%TO.P,D7,2,A*%
%TO.N,Net-(D7-Pad2)*%
X176279431Y-45379897D03*
%TD*%
%TO.P,D8,1,K*%
%TO.N,row4*%
X192483816Y-32445147D03*
%TO.P,D8,2,A*%
%TO.N,Net-(D8-Pad2)*%
X193337918Y-35632703D03*
%TD*%
%TO.P,D6,1,K*%
%TO.N,row0*%
X157719787Y-49524716D03*
%TO.P,D6,2,A*%
%TO.N,Net-(D6-Pad2)*%
X158573889Y-52712272D03*
%TD*%
%TO.P,D19,1,K*%
%TO.N,row4*%
X217036855Y-50667982D03*
%TO.P,D19,2,A*%
%TO.N,Net-(D19-Pad2)*%
X217890957Y-53855538D03*
%TD*%
%TO.P,D17,1,K*%
%TO.N,row1*%
X180119584Y-60210397D03*
%TO.P,D17,2,A*%
%TO.N,Net-(D17-Pad2)*%
X180973686Y-63397953D03*
%TD*%
%TO.P,D26,1,K*%
%TO.N,row2*%
X167554898Y-86229891D03*
%TO.P,D26,2,A*%
%TO.N,Net-(D26-Pad2)*%
X168409000Y-89417447D03*
%TD*%
%TO.P,D16,1,K*%
%TO.N,row1*%
X162637343Y-67877299D03*
%TO.P,D16,2,A*%
%TO.N,Net-(D16-Pad2)*%
X163491445Y-71064855D03*
%TD*%
%TO.P,D18,1,K*%
%TO.N,row3*%
X197084068Y-50647496D03*
%TO.P,D18,2,A*%
%TO.N,Net-(D18-Pad2)*%
X197938170Y-53835052D03*
%TD*%
%TO.P,D28,1,K*%
%TO.N,row4*%
X202318938Y-69150323D03*
%TO.P,D28,2,A*%
%TO.N,Net-(D28-Pad2)*%
X203173040Y-72337879D03*
%TD*%
%TO.P,D27,1,K*%
%TO.N,row2*%
X185260443Y-78897516D03*
%TO.P,D27,2,A*%
%TO.N,Net-(D27-Pad2)*%
X186114545Y-82085072D03*
%TD*%
%TO.P,D20,1,K*%
%TO.N,row3*%
X238635888Y-57866319D03*
%TO.P,D20,2,A*%
%TO.N,Net-(D20-Pad2)*%
X239489990Y-61053875D03*
%TD*%
%TO.P,D36,1,K*%
%TO.N,row5*%
X144919579Y-105310399D03*
%TO.P,D36,2,A*%
%TO.N,Net-(D36-Pad2)*%
X145773681Y-108497955D03*
%TD*%
%TO.P,D38,1,K*%
%TO.N,row5*%
X187219576Y-100710403D03*
%TO.P,D38,2,A*%
%TO.N,Net-(D38-Pad2)*%
X188073678Y-103897959D03*
%TD*%
%TO.P,D29,1,K*%
%TO.N,row3*%
X221965628Y-69062394D03*
%TO.P,D29,2,A*%
%TO.N,Net-(D29-Pad2)*%
X222819730Y-72249950D03*
%TD*%
%TO.P,D30,1,K*%
%TO.N,row3*%
X243553450Y-76218901D03*
%TO.P,D30,2,A*%
%TO.N,Net-(D30-Pad2)*%
X244407552Y-79406457D03*
%TD*%
%TO.P,D37,1,K*%
%TO.N,row5*%
X165134984Y-106662700D03*
%TO.P,D37,2,A*%
%TO.N,Net-(D37-Pad2)*%
X165989086Y-109850256D03*
%TD*%
D36*
%TO.P,D31,1,K*%
%TO.N,row0*%
X4573689Y-36775195D03*
%TO.P,D31,2,A*%
%TO.N,Net-(D31-Pad2)*%
X3719587Y-39962751D03*
%TD*%
D37*
%TO.P,D32,1,K*%
%TO.N,row3*%
X254786789Y-41189269D03*
%TO.P,D32,2,A*%
%TO.N,Net-(D32-Pad2)*%
X255640891Y-44376825D03*
%TD*%
D36*
%TO.P,D39,1,K*%
%TO.N,row1*%
X139965Y-54160213D03*
%TO.P,D39,2,A*%
%TO.N,Net-(D39-Pad2)*%
X-714137Y-57347769D03*
%TD*%
D37*
%TO.P,D40,1,K*%
%TO.N,row4*%
X259775066Y-59419386D03*
%TO.P,D40,2,A*%
%TO.N,Net-(D40-Pad2)*%
X260629168Y-62606942D03*
%TD*%
D40*
%TO.P,D44,1,K*%
%TO.N,row2*%
X246635Y-99554182D03*
%TO.P,D44,2,A*%
%TO.N,Net-(D44-Pad2)*%
X246635Y-102854182D03*
%TD*%
%TO.P,D51,1,K*%
%TO.N,row4*%
X257197143Y-100095578D03*
%TO.P,D51,2,A*%
%TO.N,Net-(D51-Pad2)*%
X257197143Y-103395578D03*
%TD*%
%TO.P,D87,1,K*%
%TO.N,row4*%
X149524889Y-83719264D03*
%TO.P,D87,2,A*%
%TO.N,Net-(D87-Pad2)*%
X149524889Y-80419264D03*
%TD*%
D41*
%TO.P,U2,1,GND*%
%TO.N,GND*%
X121646629Y-90354181D03*
%TO.P,U2,2,VO*%
%TO.N,3.3V*%
X123946629Y-90354181D03*
D42*
X123946629Y-96654181D03*
D41*
%TO.P,U2,3,VI*%
%TO.N,+5V*%
X126246629Y-90354181D03*
%TD*%
D43*
%TO.P,C14,1*%
%TO.N,GND*%
X145126634Y-71804183D03*
%TO.P,C14,2*%
%TO.N,Net-(C14-Pad2)*%
X144166634Y-71804183D03*
%TD*%
%TO.P,C3,1*%
%TO.N,VDD*%
X134526633Y-64204183D03*
%TO.P,C3,2*%
%TO.N,GND*%
X133566633Y-64204183D03*
%TD*%
D39*
%TO.P,D46,1,VDD*%
%TO.N,+5V*%
X85247273Y-114004378D03*
%TO.P,D46,2,DOUT*%
%TO.N,Net-(D46-Pad2)*%
X85247273Y-110803978D03*
%TO.P,D46,3,VSS*%
%TO.N,GND*%
X90245993Y-110803978D03*
%TO.P,D46,4,DIN*%
%TO.N,Net-(D45-Pad2)*%
X90245993Y-114004378D03*
%TD*%
%TO.P,D55,1,VDD*%
%TO.N,+5V*%
X198347270Y-27504380D03*
%TO.P,D55,2,DOUT*%
%TO.N,Net-(D55-Pad2)*%
X198347270Y-24303980D03*
%TO.P,D55,3,VSS*%
%TO.N,GND*%
X203345990Y-24303980D03*
%TO.P,D55,4,DIN*%
%TO.N,Net-(D54-Pad2)*%
X203345990Y-27504380D03*
%TD*%
D44*
%TO.P,R10,1*%
%TO.N,PA9*%
X15736632Y-36104185D03*
%TO.P,R10,2*%
%TO.N,GND*%
X16756632Y-36104185D03*
%TD*%
D45*
%TO.P,C12,1*%
%TO.N,VDD*%
X131646635Y-65124181D03*
%TO.P,C12,2*%
%TO.N,GND*%
X131646635Y-66084181D03*
%TD*%
D39*
%TO.P,D47,1,VDD*%
%TO.N,+5V*%
X135347273Y-114004377D03*
%TO.P,D47,2,DOUT*%
%TO.N,Net-(D47-Pad2)*%
X135347273Y-110803977D03*
%TO.P,D47,3,VSS*%
%TO.N,GND*%
X140345993Y-110803977D03*
%TO.P,D47,4,DIN*%
%TO.N,Net-(D46-Pad2)*%
X140345993Y-114004377D03*
%TD*%
D46*
%TO.P,C8,1*%
%TO.N,Net-(C8-Pad1)*%
X141221628Y-59134184D03*
%TO.P,C8,2*%
%TO.N,GND*%
X141221628Y-58174184D03*
%TD*%
D43*
%TO.P,C13,1*%
%TO.N,RESET*%
X8626637Y-76704183D03*
%TO.P,C13,2*%
%TO.N,GND*%
X7666637Y-76704183D03*
%TD*%
D39*
%TO.P,D70,1,VDD*%
%TO.N,+5V*%
X110847274Y-27704380D03*
%TO.P,D70,2,DOUT*%
%TO.N,Net-(D70-Pad2)*%
X110847274Y-24503980D03*
%TO.P,D70,3,VSS*%
%TO.N,GND*%
X115845994Y-24503980D03*
%TO.P,D70,4,DIN*%
%TO.N,Net-(D70-Pad4)*%
X115845994Y-27704380D03*
%TD*%
%TO.P,D56,1,VDD*%
%TO.N,+5V*%
X159647277Y-27704376D03*
%TO.P,D56,2,DOUT*%
%TO.N,Net-(D56-Pad2)*%
X159647277Y-24503976D03*
%TO.P,D56,3,VSS*%
%TO.N,GND*%
X164645997Y-24503976D03*
%TO.P,D56,4,DIN*%
%TO.N,Net-(D55-Pad2)*%
X164645997Y-27704376D03*
%TD*%
%TO.P,D83,1,VDD*%
%TO.N,+5V*%
X25847273Y-27704379D03*
%TO.P,D83,2,DOUT*%
%TO.N,Net-(D41-Pad4)*%
X25847273Y-24503979D03*
%TO.P,D83,3,VSS*%
%TO.N,GND*%
X30845993Y-24503979D03*
%TO.P,D83,4,DIN*%
%TO.N,Net-(D77-Pad2)*%
X30845993Y-27704379D03*
%TD*%
D47*
%TO.P,J3,1,Pin_1*%
%TO.N,3.3V*%
X135096632Y-107072184D03*
%TO.P,J3,2,Pin_2*%
%TO.N,GND*%
X135596632Y-107072184D03*
%TO.P,J3,3,Pin_3*%
%TO.N,sda*%
X136096632Y-107072184D03*
%TO.P,J3,4,Pin_4*%
%TO.N,scl*%
X136596632Y-107072184D03*
%TO.P,J3,5,Pin_5*%
%TO.N,unconnected-(J3-Pad5)*%
X137096632Y-107072184D03*
%TO.P,J3,6,Pin_6*%
%TO.N,unconnected-(J3-Pad6)*%
X137596632Y-107072184D03*
%TO.P,J3,7,Pin_7*%
%TO.N,unconnected-(J3-Pad7)*%
X138096632Y-107072184D03*
%TO.P,J3,8,Pin_8*%
%TO.N,unconnected-(J3-Pad8)*%
X138596632Y-107072184D03*
%TO.P,J3,9,Pin_9*%
%TO.N,unconnected-(J3-Pad9)*%
X139096632Y-107072184D03*
%TO.P,J3,10,Pin_10*%
%TO.N,unconnected-(J3-Pad10)*%
X139596632Y-107072184D03*
%TO.P,J3,11,Pin_11*%
%TO.N,unconnected-(J3-Pad11)*%
X140096632Y-107072184D03*
%TO.P,J3,12,Pin_12*%
%TO.N,unconnected-(J3-Pad12)*%
X140596632Y-107072184D03*
D48*
%TO.P,J3,13*%
%TO.N,N/C*%
X142396632Y-104348184D03*
%TO.P,J3,14*%
X133296632Y-104348184D03*
%TD*%
D49*
%TO.P,Y1,1,1*%
%TO.N,HSE_IN*%
X136171638Y-59854185D03*
%TO.P,Y1,2,2*%
%TO.N,GND*%
X136171638Y-57654185D03*
%TO.P,Y1,3,3*%
%TO.N,Net-(C8-Pad1)*%
X137871638Y-57654185D03*
%TO.P,Y1,4,4*%
%TO.N,GND*%
X137871638Y-59854185D03*
%TD*%
D50*
%TO.P,R5,1*%
%TO.N,BOOT0*%
X127856631Y-68304182D03*
%TO.P,R5,2*%
%TO.N,GND*%
X126836631Y-68304182D03*
%TD*%
D51*
%TO.P,R6,1*%
%TO.N,PWR_LED*%
X139446633Y-77214181D03*
%TO.P,R6,2*%
%TO.N,/LED_R*%
X139446633Y-76194181D03*
%TD*%
D52*
%TO.P,R2,1*%
%TO.N,sda*%
X125859128Y-80904187D03*
%TO.P,R2,2*%
%TO.N,3.3V*%
X124034128Y-80904187D03*
%TD*%
D39*
%TO.P,D53,1,VDD*%
%TO.N,+5V*%
X271847275Y-51004388D03*
%TO.P,D53,2,DOUT*%
%TO.N,Net-(D53-Pad2)*%
X271847275Y-47803988D03*
%TO.P,D53,3,VSS*%
%TO.N,GND*%
X276845995Y-47803988D03*
%TO.P,D53,4,DIN*%
%TO.N,Net-(D52-Pad2)*%
X276845995Y-51004388D03*
%TD*%
D46*
%TO.P,C9,1*%
%TO.N,VDD*%
X144146635Y-73984178D03*
%TO.P,C9,2*%
%TO.N,GND*%
X144146635Y-73024178D03*
%TD*%
D53*
%TO.P,JP3,1,A*%
%TO.N,led*%
X120596633Y-23404185D03*
D54*
%TO.P,JP3,2,B*%
%TO.N,Net-(D70-Pad4)*%
X119296633Y-23404185D03*
%TD*%
D52*
%TO.P,R1,1*%
%TO.N,scl*%
X125859131Y-85804183D03*
%TO.P,R1,2*%
%TO.N,3.3V*%
X124034131Y-85804183D03*
%TD*%
D39*
%TO.P,D48,1,VDD*%
%TO.N,+5V*%
X186847275Y-113904390D03*
%TO.P,D48,2,DOUT*%
%TO.N,Net-(D48-Pad2)*%
X186847275Y-110703990D03*
%TO.P,D48,3,VSS*%
%TO.N,GND*%
X191845995Y-110703990D03*
%TO.P,D48,4,DIN*%
%TO.N,Net-(D47-Pad2)*%
X191845995Y-113904390D03*
%TD*%
%TO.P,D42,1,VDD*%
%TO.N,+5V*%
X-2652729Y-91204377D03*
%TO.P,D42,2,DOUT*%
%TO.N,Net-(D42-Pad2)*%
X-2652729Y-88003977D03*
%TO.P,D42,3,VSS*%
%TO.N,GND*%
X2345991Y-88003977D03*
%TO.P,D42,4,DIN*%
%TO.N,Net-(D41-Pad2)*%
X2345991Y-91204377D03*
%TD*%
D55*
%TO.P,D88,1,K*%
%TO.N,+5V*%
X9896632Y-33104180D03*
%TO.P,D88,2,A*%
%TO.N,VBUS_F*%
X13196632Y-33104180D03*
%TD*%
D39*
%TO.P,D49,1,VDD*%
%TO.N,+5V*%
X221247272Y-113904380D03*
%TO.P,D49,2,DOUT*%
%TO.N,Net-(D49-Pad2)*%
X221247272Y-110703980D03*
%TO.P,D49,3,VSS*%
%TO.N,GND*%
X226245992Y-110703980D03*
%TO.P,D49,4,DIN*%
%TO.N,Net-(D48-Pad2)*%
X226245992Y-113904380D03*
%TD*%
%TO.P,D77,1,VDD*%
%TO.N,+5V*%
X70847269Y-27704382D03*
%TO.P,D77,2,DOUT*%
%TO.N,Net-(D77-Pad2)*%
X70847269Y-24503982D03*
%TO.P,D77,3,VSS*%
%TO.N,GND*%
X75845989Y-24503982D03*
%TO.P,D77,4,DIN*%
%TO.N,Net-(D70-Pad2)*%
X75845989Y-27704382D03*
%TD*%
D56*
%TO.P,C7,1*%
%TO.N,VDD*%
X140839411Y-60260589D03*
%TO.P,C7,2*%
%TO.N,GND*%
X140160589Y-60939411D03*
%TD*%
D57*
%TO.P,R11,1*%
%TO.N,+5V*%
X7185382Y-73529882D03*
%TO.P,R11,2*%
%TO.N,RESET*%
X9010382Y-73529882D03*
%TD*%
D58*
%TO.P,U3,1,VBAT*%
%TO.N,VDD*%
X135096634Y-65666678D03*
%TO.P,U3,2,PC13*%
%TO.N,ENC1B*%
X135596634Y-65666678D03*
%TO.P,U3,3,PC14*%
%TO.N,ENC1A*%
X136096634Y-65666678D03*
%TO.P,U3,4,PC15*%
%TO.N,PC15*%
X136596634Y-65666678D03*
%TO.P,U3,5,PH0*%
%TO.N,HSE_IN*%
X137096634Y-65666678D03*
%TO.P,U3,6,PH1*%
%TO.N,HSE_OUT*%
X137596634Y-65666678D03*
%TO.P,U3,7,NRST*%
%TO.N,RESET*%
X138096634Y-65666678D03*
%TO.P,U3,8,VSSA*%
%TO.N,GND*%
X138596634Y-65666678D03*
%TO.P,U3,9,VDDA*%
%TO.N,VDD*%
X139096634Y-65666678D03*
%TO.P,U3,10,PA0*%
%TO.N,ENC2B*%
X139596634Y-65666678D03*
%TO.P,U3,11,PA1*%
%TO.N,PA1*%
X140096634Y-65666678D03*
%TO.P,U3,12,PA2*%
%TO.N,led*%
X140596634Y-65666678D03*
D59*
%TO.P,U3,13,PA3*%
%TO.N,row0*%
X141284134Y-66354178D03*
%TO.P,U3,14,PA4*%
%TO.N,ENC2A*%
X141284134Y-66854178D03*
%TO.P,U3,15,PA5*%
%TO.N,row5*%
X141284134Y-67354178D03*
%TO.P,U3,16,PA6*%
%TO.N,col7*%
X141284134Y-67854178D03*
%TO.P,U3,17,PA7*%
%TO.N,col6*%
X141284134Y-68354178D03*
%TO.P,U3,18,PB0*%
%TO.N,row4*%
X141284134Y-68854178D03*
%TO.P,U3,19,PB1*%
%TO.N,row3*%
X141284134Y-69354178D03*
%TO.P,U3,20,PB2*%
%TO.N,row2*%
X141284134Y-69854178D03*
%TO.P,U3,21,PB10*%
%TO.N,row1*%
X141284134Y-70354178D03*
%TO.P,U3,22,VCAP1*%
%TO.N,Net-(C14-Pad2)*%
X141284134Y-70854178D03*
%TO.P,U3,23,VSS*%
%TO.N,GND*%
X141284134Y-71354178D03*
%TO.P,U3,24,VDD*%
%TO.N,VDD*%
X141284134Y-71854178D03*
D58*
%TO.P,U3,25,PB12*%
%TO.N,PB12*%
X140596634Y-72541678D03*
%TO.P,U3,26,PB13*%
%TO.N,PB13*%
X140096634Y-72541678D03*
%TO.P,U3,27,PB14*%
%TO.N,PB14*%
X139596634Y-72541678D03*
%TO.P,U3,28,PB15*%
%TO.N,PB15*%
X139096634Y-72541678D03*
%TO.P,U3,29,PA8*%
%TO.N,PWR_LED*%
X138596634Y-72541678D03*
%TO.P,U3,30,PA9*%
%TO.N,PA9*%
X138096634Y-72541678D03*
%TO.P,U3,31,PA10*%
%TO.N,PA10*%
X137596634Y-72541678D03*
%TO.P,U3,32,PA11*%
%TO.N,USB_DN*%
X137096634Y-72541678D03*
%TO.P,U3,33,PA12*%
%TO.N,USB_DP*%
X136596634Y-72541678D03*
%TO.P,U3,34,PA13*%
%TO.N,SWD*%
X136096634Y-72541678D03*
%TO.P,U3,35,VSS*%
%TO.N,GND*%
X135596634Y-72541678D03*
%TO.P,U3,36,VDD*%
%TO.N,VDD*%
X135096634Y-72541678D03*
D59*
%TO.P,U3,37,PA14*%
%TO.N,SWC*%
X134409134Y-71854178D03*
%TO.P,U3,38,PA15*%
%TO.N,col5*%
X134409134Y-71354178D03*
%TO.P,U3,39,PB3*%
%TO.N,col4*%
X134409134Y-70854178D03*
%TO.P,U3,40,PB4*%
%TO.N,col3*%
X134409134Y-70354178D03*
%TO.P,U3,41,PB5*%
%TO.N,col2*%
X134409134Y-69854178D03*
%TO.P,U3,42,PB6*%
%TO.N,scl*%
X134409134Y-69354178D03*
%TO.P,U3,43,PB7*%
%TO.N,sda*%
X134409134Y-68854178D03*
%TO.P,U3,44,BOOT0*%
%TO.N,BOOT0*%
X134409134Y-68354178D03*
%TO.P,U3,45,PB8*%
%TO.N,col1*%
X134409134Y-67854178D03*
%TO.P,U3,46,PB9*%
%TO.N,col0*%
X134409134Y-67354178D03*
%TO.P,U3,47,VSS*%
%TO.N,GND*%
X134409134Y-66854178D03*
%TO.P,U3,48,VDD*%
%TO.N,VDD*%
X134409134Y-66354178D03*
D60*
%TO.P,U3,49,VSS*%
%TO.N,GND*%
X137846634Y-69104178D03*
%TD*%
D61*
%TO.P,C1,1*%
%TO.N,GND*%
X133721635Y-90404181D03*
%TO.P,C1,2*%
%TO.N,+5V*%
X130771635Y-90404181D03*
%TD*%
D62*
%TO.P,JP2,1,A*%
%TO.N,led*%
X151896635Y-26004185D03*
D63*
%TO.P,JP2,2,B*%
%TO.N,Net-(D56-Pad2)*%
X153196635Y-26004185D03*
%TD*%
D46*
%TO.P,C10,1*%
%TO.N,VDD*%
X8846639Y-36384180D03*
%TO.P,C10,2*%
%TO.N,GND*%
X8846639Y-35424180D03*
%TD*%
D64*
%TO.P,C11,1*%
%TO.N,VDD*%
X133041632Y-74904185D03*
%TO.P,C11,2*%
%TO.N,GND*%
X134001632Y-74904185D03*
%TD*%
D65*
%TO.P,J2,A1,GND*%
%TO.N,GND*%
X9626637Y-27389185D03*
%TO.P,J2,A4,VBUS*%
%TO.N,RAW*%
X10426637Y-27389185D03*
D66*
%TO.P,J2,A5,CC1*%
%TO.N,/CC1*%
X11626637Y-27389185D03*
%TO.P,J2,A6,D+*%
%TO.N,USB_DP*%
X12626637Y-27389185D03*
%TO.P,J2,A7,D-*%
%TO.N,USB_DN*%
X13126637Y-27389185D03*
%TO.P,J2,A8,SBU1*%
%TO.N,unconnected-(J2-PadA8)*%
X14126637Y-27389185D03*
D65*
%TO.P,J2,A9,VBUS*%
%TO.N,RAW*%
X15326637Y-27389185D03*
%TO.P,J2,A12,GND*%
%TO.N,GND*%
X16126637Y-27389185D03*
%TO.P,J2,B1,GND*%
X16126637Y-27389185D03*
%TO.P,J2,B4,VBUS*%
%TO.N,RAW*%
X15326637Y-27389185D03*
D66*
%TO.P,J2,B5,CC2*%
%TO.N,/CC2*%
X14626637Y-27389185D03*
%TO.P,J2,B6,D+*%
%TO.N,USB_DP*%
X13626637Y-27389185D03*
%TO.P,J2,B7,D-*%
%TO.N,USB_DN*%
X12126637Y-27389185D03*
%TO.P,J2,B8,SBU2*%
%TO.N,unconnected-(J2-PadB8)*%
X11126637Y-27389185D03*
D65*
%TO.P,J2,B9,VBUS*%
%TO.N,RAW*%
X10426637Y-27389185D03*
%TO.P,J2,B12,GND*%
%TO.N,GND*%
X9626637Y-27389185D03*
D67*
%TO.P,J2,S1,SHIELD*%
X17196637Y-22294185D03*
D68*
X17196637Y-26474185D03*
D67*
X8556637Y-22294185D03*
D68*
X8556637Y-26474185D03*
%TD*%
D45*
%TO.P,C6,1*%
%TO.N,VDD*%
X130346634Y-65124183D03*
%TO.P,C6,2*%
%TO.N,GND*%
X130346634Y-66084183D03*
%TD*%
D39*
%TO.P,D54,1,VDD*%
%TO.N,+5V*%
X250047269Y-27404384D03*
%TO.P,D54,2,DOUT*%
%TO.N,Net-(D54-Pad2)*%
X250047269Y-24203984D03*
%TO.P,D54,3,VSS*%
%TO.N,GND*%
X255045989Y-24203984D03*
%TO.P,D54,4,DIN*%
%TO.N,Net-(D53-Pad2)*%
X255045989Y-27404384D03*
%TD*%
D45*
%TO.P,C4,1*%
%TO.N,+5V*%
X7746634Y-35424181D03*
%TO.P,C4,2*%
%TO.N,GND*%
X7746634Y-36384181D03*
%TD*%
D39*
%TO.P,D50,1,VDD*%
%TO.N,+5V*%
X253147273Y-114004381D03*
%TO.P,D50,2,DOUT*%
%TO.N,Net-(D50-Pad2)*%
X253147273Y-110803981D03*
%TO.P,D50,3,VSS*%
%TO.N,GND*%
X258145993Y-110803981D03*
%TO.P,D50,4,DIN*%
%TO.N,Net-(D49-Pad2)*%
X258145993Y-114004381D03*
%TD*%
D69*
%TO.P,U1,1,VIN*%
%TO.N,+5V*%
X10596631Y-35266678D03*
%TO.P,U1,2,GND*%
%TO.N,GND*%
X11546631Y-35266678D03*
%TO.P,U1,3,CE*%
%TO.N,+5V*%
X12496631Y-35266678D03*
%TO.P,U1,4,NC*%
%TO.N,unconnected-(U1-Pad4)*%
X12496631Y-37541678D03*
%TO.P,U1,5,VOUT*%
%TO.N,VDD*%
X10596631Y-37541678D03*
%TD*%
D70*
%TO.P,R4,1*%
%TO.N,Net-(C8-Pad1)*%
X139821633Y-58144181D03*
%TO.P,R4,2*%
%TO.N,HSE_OUT*%
X139821633Y-59164181D03*
%TD*%
D44*
%TO.P,R9,1*%
%TO.N,VBUS_F*%
X15736627Y-34904182D03*
%TO.P,R9,2*%
%TO.N,PA9*%
X16756627Y-34904182D03*
%TD*%
D61*
%TO.P,C2,1*%
%TO.N,GND*%
X133721637Y-93004183D03*
%TO.P,C2,2*%
%TO.N,3.3V*%
X130771637Y-93004183D03*
%TD*%
D70*
%TO.P,R7,1*%
%TO.N,/CC1*%
X8546640Y-31894182D03*
%TO.P,R7,2*%
%TO.N,GND*%
X8546640Y-32914182D03*
%TD*%
D46*
%TO.P,C5,1*%
%TO.N,HSE_IN*%
X134021633Y-59134183D03*
%TO.P,C5,2*%
%TO.N,GND*%
X134021633Y-58174183D03*
%TD*%
D39*
%TO.P,D45,1,VDD*%
%TO.N,+5V*%
X50347269Y-113904382D03*
%TO.P,D45,2,DOUT*%
%TO.N,Net-(D45-Pad2)*%
X50347269Y-110703982D03*
%TO.P,D45,3,VSS*%
%TO.N,GND*%
X55345989Y-110703982D03*
%TO.P,D45,4,DIN*%
%TO.N,Net-(D43-Pad2)*%
X55345989Y-113904382D03*
%TD*%
%TO.P,D43,1,VDD*%
%TO.N,+5V*%
X15847274Y-113904384D03*
%TO.P,D43,2,DOUT*%
%TO.N,Net-(D43-Pad2)*%
X15847274Y-110703984D03*
%TO.P,D43,3,VSS*%
%TO.N,GND*%
X20845994Y-110703984D03*
%TO.P,D43,4,DIN*%
%TO.N,Net-(D42-Pad2)*%
X20845994Y-113904384D03*
%TD*%
D38*
%TO.P,SW49,1,1*%
%TO.N,GND*%
X26896629Y-69554178D03*
%TO.P,SW49,2,2*%
%TO.N,RESET*%
X20696629Y-73254178D03*
%TO.P,SW49,3*%
%TO.N,N/C*%
X26896629Y-73254178D03*
%TO.P,SW49,4*%
X20696629Y-69554178D03*
%TD*%
D39*
%TO.P,D52,1,VDD*%
%TO.N,+5V*%
X271947272Y-91204384D03*
%TO.P,D52,2,DOUT*%
%TO.N,Net-(D52-Pad2)*%
X271947272Y-88003984D03*
%TO.P,D52,3,VSS*%
%TO.N,GND*%
X276945992Y-88003984D03*
%TO.P,D52,4,DIN*%
%TO.N,Net-(D50-Pad2)*%
X276945992Y-91204384D03*
%TD*%
D70*
%TO.P,R8,1*%
%TO.N,/CC2*%
X14400000Y-31990000D03*
%TO.P,R8,2*%
%TO.N,GND*%
X14400000Y-33010000D03*
%TD*%
D71*
%TO.P,F1,1*%
%TO.N,RAW*%
X17584133Y-33304178D03*
%TO.P,F1,2*%
%TO.N,VBUS_F*%
X15709133Y-33304178D03*
%TD*%
D72*
%TO.P,R3,1*%
%TO.N,VDD*%
X131021633Y-75291680D03*
%TO.P,R3,2*%
%TO.N,PA10*%
X131021633Y-77116680D03*
%TD*%
D73*
%TO.P,D89,1,K*%
%TO.N,GND*%
X140646635Y-77189178D03*
%TO.P,D89,2,A*%
%TO.N,/LED_R*%
X140646635Y-76219178D03*
%TD*%
D74*
%TO.N,GND*%
X228519566Y-93915842D03*
X92646632Y-115579180D03*
X75896642Y-23104186D03*
X141021632Y-83529184D03*
X228284297Y-115329184D03*
X278496633Y-23054179D03*
X121628824Y-94368468D03*
X142871630Y-115579183D03*
X-742554Y-76614998D03*
X24989685Y-71382760D03*
X72695594Y-71605474D03*
X-4078363Y-86429180D03*
X129246634Y-60329179D03*
X49114922Y-94458230D03*
X121655001Y-88432089D03*
X122946631Y-76404182D03*
X58014032Y-96840469D03*
X132746630Y-76104178D03*
X6489677Y-76707763D03*
X14446629Y-34004178D03*
X132996635Y-58154184D03*
X30846634Y-23104181D03*
X278246635Y-115329184D03*
X18846637Y-34004183D03*
X129246637Y-64204183D03*
X60063442Y-89288566D03*
X125446628Y-58129186D03*
X2346637Y-86404179D03*
X1896630Y-46379185D03*
X164671639Y-23054181D03*
X58096631Y-115754179D03*
X23296635Y-115754184D03*
X194696635Y-114854183D03*
X147228823Y-79568471D03*
X260521629Y-115329183D03*
X-4428368Y-46454177D03*
X71543848Y-75903846D03*
X203296633Y-23054184D03*
X129246628Y-66104181D03*
X119721629Y-31154182D03*
X115946630Y-23104183D03*
X-4078366Y-115279178D03*
X133721552Y-82929256D03*
X255021627Y-23054184D03*
X147046635Y-23604186D03*
X74621968Y-64319546D03*
X-4428365Y-23604178D03*
X11546633Y-33204181D03*
X67031046Y-91103770D03*
X156327288Y-60044285D03*
X114676631Y-31084179D03*
X129489534Y-95129183D03*
%TO.N,+5V*%
X137796632Y-115179185D03*
X130763210Y-87554805D03*
X126255005Y-87832087D03*
X161701772Y-113458239D03*
X52546625Y-115179184D03*
X157496629Y-33254181D03*
X6420000Y-25450000D03*
X-3253371Y-26379185D03*
X-3453370Y-57929182D03*
X138538209Y-87554808D03*
X72646634Y-24904182D03*
X201257867Y-24008604D03*
X138546629Y-82504178D03*
X255546633Y-114379175D03*
X87471637Y-115179189D03*
X-3378365Y-66663233D03*
X6646628Y-34104178D03*
X18121636Y-115179189D03*
X138588205Y-94929808D03*
X162632872Y-23983607D03*
X27546628Y-24904180D03*
X219421294Y-114379179D03*
X5764684Y-73557759D03*
X276096633Y-114379183D03*
X161648655Y-115179181D03*
X-2180053Y-73652494D03*
X14046631Y-36004186D03*
X142846633Y-82504177D03*
X274582863Y-24158600D03*
X277646632Y-64129182D03*
X-3378364Y-63079176D03*
X141600000Y-73100000D03*
X274571630Y-52779187D03*
X-3178373Y-114529181D03*
X148888209Y-94929807D03*
X155191676Y-110026234D03*
X188721628Y-114379180D03*
X252757865Y-24158605D03*
X112646627Y-24904189D03*
X8646629Y-34004185D03*
%TO.N,row0*%
X4980802Y-35321198D03*
X103364683Y-28382759D03*
X142652287Y-28469284D03*
X175021299Y-40500742D03*
X144246630Y-58654193D03*
X45414688Y-28382768D03*
X23957720Y-34794879D03*
X65264687Y-28382758D03*
X157096639Y-57400656D03*
X27714683Y-28732760D03*
X157341636Y-47929713D03*
X85314686Y-28382758D03*
%TO.N,row1*%
X116898041Y-64419206D03*
X22459791Y-53346009D03*
X107963041Y-99277791D03*
X151068787Y-63547680D03*
X161488672Y-63537994D03*
X79564152Y-54477518D03*
X541132Y-52663024D03*
X43264285Y-45061579D03*
X168997621Y-99117563D03*
X62550483Y-44949400D03*
X97243802Y-61906491D03*
X179305435Y-54553552D03*
%TO.N,row2*%
X160892367Y-64500115D03*
X147888209Y-91629809D03*
X16301808Y-70344681D03*
X74594818Y-73023295D03*
X147888206Y-99604806D03*
X167222036Y-84987628D03*
X4164680Y-70482766D03*
X104994033Y-98540729D03*
X92326246Y-80259073D03*
X109200381Y-82580532D03*
X150068787Y-64544123D03*
X38503871Y-61282202D03*
X57632927Y-63301991D03*
X184261139Y-74984294D03*
%TO.N,row3*%
X238345055Y-48483348D03*
X237953600Y-64409086D03*
X147399133Y-65938779D03*
X196568692Y-48858655D03*
X212827209Y-43466923D03*
X254373848Y-39529703D03*
X221609903Y-67547095D03*
%TO.N,led*%
X154287287Y-57604185D03*
X151846629Y-22704181D03*
X124846635Y-25904177D03*
X123146636Y-22704182D03*
X143921634Y-57604186D03*
%TO.N,Net-(D41-Pad2)*%
X-2378368Y-56954179D03*
X-2353367Y-64504183D03*
X-3278367Y-49329184D03*
X-1078367Y-50404183D03*
%TO.N,Net-(D42-Pad2)*%
X18496631Y-112329180D03*
X-1978370Y-113954185D03*
X-878365Y-90854182D03*
X-2903364Y-89529189D03*
%TO.N,Net-(D43-Pad2)*%
X18321633Y-110729183D03*
X52846639Y-112354180D03*
%TO.N,Net-(D45-Pad2)*%
X51896633Y-110679178D03*
X87771639Y-112379181D03*
%TO.N,Net-(D46-Pad2)*%
X87771630Y-110829182D03*
X137846632Y-112329184D03*
%TO.N,Net-(D47-Pad2)*%
X189421637Y-112454179D03*
X137046631Y-110779183D03*
%TO.N,Net-(D48-Pad2)*%
X189396629Y-110829183D03*
X223471627Y-112304184D03*
%TO.N,Net-(D49-Pad2)*%
X258146630Y-112654178D03*
X222996631Y-110704181D03*
%TO.N,Net-(D50-Pad2)*%
X255696636Y-110779182D03*
X277421633Y-110779181D03*
%TO.N,Net-(D52-Pad2)*%
X276746633Y-54979185D03*
X276721631Y-65004181D03*
%TO.N,Net-(D70-Pad2)*%
X77946635Y-23904180D03*
X109246629Y-23904181D03*
%TO.N,Net-(D77-Pad2)*%
X69446634Y-23904181D03*
X33146632Y-23904179D03*
%TO.N,RESET*%
X51363728Y-79234403D03*
X64089686Y-29232762D03*
X152882869Y-31383604D03*
X22532713Y-73244881D03*
X18839685Y-73107759D03*
X10539685Y-73507761D03*
X138300000Y-61900000D03*
X152637283Y-61704184D03*
%TO.N,col0*%
X210422021Y-106158379D03*
X16261402Y-54515988D03*
X127375754Y-63282002D03*
X127368788Y-53894129D03*
X237403362Y-100024700D03*
X194021686Y-46883353D03*
%TO.N,col1*%
X126418939Y-51357839D03*
X150726064Y-102051686D03*
X28425357Y-86393533D03*
X42716820Y-87095012D03*
X126418937Y-61432846D03*
X37168561Y-88658938D03*
X40389791Y-41703261D03*
%TO.N,col2*%
X129146633Y-71304182D03*
X109473561Y-81410608D03*
X216413595Y-77135941D03*
X199760417Y-86463946D03*
X112482403Y-69961356D03*
X54398383Y-62871265D03*
X208700597Y-36177999D03*
X118218784Y-48819131D03*
%TO.N,col3*%
X113868790Y-72494127D03*
X130046632Y-72004177D03*
X218841279Y-65718574D03*
X134778311Y-46227072D03*
X208978312Y-26627073D03*
X155278310Y-34827073D03*
X88971753Y-95096442D03*
X119893789Y-46269127D03*
X67528205Y-89350659D03*
X155278309Y-26727074D03*
X70035083Y-61324576D03*
X111984258Y-75808252D03*
X134778311Y-34827074D03*
X236131354Y-61085710D03*
%TO.N,col4*%
X111065573Y-101119988D03*
X132478310Y-27227074D03*
X227678312Y-25127074D03*
X116744133Y-73430684D03*
X91984884Y-69417239D03*
X86017141Y-93373005D03*
X129146634Y-73004184D03*
X132478307Y-43727074D03*
X100039936Y-39193456D03*
X121693790Y-43694129D03*
%TO.N,col5*%
X103738329Y-98204263D03*
X133678310Y-29727075D03*
X110340870Y-74322122D03*
X117025752Y-41382003D03*
X130570133Y-101683610D03*
X246878312Y-25227075D03*
X133678311Y-41127077D03*
X130046637Y-73804184D03*
%TO.N,col6*%
X181778962Y-94698473D03*
X273027800Y-94985680D03*
X159959193Y-98267456D03*
X261927799Y-94985678D03*
X184871288Y-89625254D03*
X149343789Y-51319122D03*
X172684382Y-44525510D03*
X257634598Y-67540191D03*
%TO.N,col7*%
X148293787Y-48794126D03*
X200029884Y-90946958D03*
X273624395Y-66550807D03*
X190467568Y-37482912D03*
X178876112Y-96615096D03*
X204609244Y-87942133D03*
%TO.N,sda*%
X125846629Y-79104177D03*
X94453065Y-79151865D03*
X126282462Y-38362814D03*
X136146629Y-100304178D03*
X74386328Y-69426839D03*
X93806017Y-81566681D03*
X126282461Y-35962814D03*
X87557364Y-33408459D03*
X115246636Y-97404181D03*
%TO.N,scl*%
X82009844Y-56043939D03*
X135896560Y-85429258D03*
X125846636Y-83904179D03*
X76435081Y-74531016D03*
X80425473Y-66593336D03*
X114246630Y-98304180D03*
X127346633Y-70604182D03*
X137146633Y-101104177D03*
X81577781Y-45678934D03*
X129146637Y-70204177D03*
%TO.N,3.3V*%
X117146633Y-36104182D03*
X135046636Y-99704184D03*
X124146634Y-98604182D03*
X124284107Y-36193448D03*
X123946634Y-88023715D03*
%TO.N,Net-(D82-Pad2)*%
X220021774Y-103543283D03*
X232297325Y-96423532D03*
%TO.N,ENC1B*%
X119170462Y-55262135D03*
X58012769Y-85882673D03*
X107814662Y-93809549D03*
X92692511Y-95356258D03*
X93578962Y-92047964D03*
X47250555Y-91370486D03*
%TO.N,ENC1A*%
X133339823Y-56335990D03*
X59670790Y-86456351D03*
X119670440Y-56340255D03*
X108257872Y-94860056D03*
X88814716Y-92634888D03*
X89547622Y-89803082D03*
X43541648Y-95553069D03*
%TO.N,ENC2B*%
X165741686Y-95311513D03*
X226629323Y-96906991D03*
X158528824Y-59168469D03*
X214743225Y-79593393D03*
%TO.N,ENC2A*%
X222920415Y-92724412D03*
X143518091Y-63557735D03*
X157840768Y-65438520D03*
X215353739Y-78394530D03*
X166874910Y-94904331D03*
%TO.N,Net-(D41-Pad4)*%
X-2203367Y-25404179D03*
X24246636Y-24504178D03*
%TO.N,Net-(D87-Pad2)*%
X148127286Y-80444285D03*
%TO.N,row4*%
X145635417Y-66675067D03*
X258307896Y-54211777D03*
X256983974Y-83657782D03*
X265001158Y-81509585D03*
X239958522Y-56436755D03*
X149527800Y-87085680D03*
X197930465Y-48338477D03*
X239640510Y-49067982D03*
X215648515Y-46075602D03*
X233770522Y-47638538D03*
X201818325Y-67484614D03*
X150428824Y-68268469D03*
%TO.N,row5*%
X151428824Y-67068469D03*
X152944729Y-100484373D03*
X95422730Y-97680635D03*
X143568787Y-65394124D03*
X113827005Y-102791663D03*
X73424150Y-91784578D03*
X40809486Y-83200795D03*
X185823802Y-95747804D03*
X214658207Y-90635722D03*
X143988209Y-101604808D03*
X163752398Y-101661819D03*
%TO.N,PA10*%
X132546633Y-81704179D03*
X152011563Y-70732302D03*
X152009293Y-82204188D03*
%TO.N,VDD*%
X120827098Y-65104182D03*
X139900000Y-62600000D03*
X23411258Y-49913653D03*
X23575904Y-35995721D03*
X134300000Y-65300000D03*
X134200000Y-73400000D03*
X121705005Y-62382088D03*
X145400000Y-74000000D03*
X128346634Y-65104184D03*
X8525898Y-37545724D03*
%TO.N,/CC1*%
X8546631Y-30904182D03*
X11646633Y-31304182D03*
%TO.N,Net-(D56-Pad2)*%
X153546630Y-24004182D03*
X161246638Y-24004181D03*
X153678442Y-62504179D03*
%TO.N,PA9*%
X100988204Y-27629807D03*
X92074792Y-73174649D03*
X19846634Y-35104185D03*
X21146628Y-29004187D03*
X17946631Y-35104182D03*
X137596628Y-77354180D03*
X123346628Y-28604187D03*
%TO.N,PB12*%
X142046631Y-74804181D03*
%TO.N,PB13*%
X142046633Y-76004183D03*
%TO.N,PB14*%
X140446635Y-75104177D03*
%TO.N,RAW*%
X10446632Y-30404183D03*
X15746632Y-30504180D03*
X125746629Y-24004177D03*
X125346634Y-27704183D03*
%TO.N,USB_DP*%
X20146634Y-27304180D03*
X122446631Y-26704182D03*
X13146630Y-31304179D03*
X116661711Y-76489025D03*
X135046630Y-75804178D03*
X20146630Y-31404180D03*
%TO.N,USB_DN*%
X121446632Y-25704187D03*
X115607736Y-77138363D03*
X12640000Y-25350000D03*
X136346630Y-76104181D03*
%TO.N,PB15*%
X139446632Y-74804180D03*
%TO.N,SWD*%
X135446638Y-74704174D03*
%TO.N,SWC*%
X131900000Y-73700000D03*
%TO.N,PC15*%
X159487184Y-60904182D03*
X164471164Y-80582529D03*
X134821636Y-61404183D03*
%TO.N,PA1*%
X165142362Y-82990876D03*
X159527286Y-57444283D03*
X143096629Y-56854185D03*
%TD*%
D75*
%TO.N,GND*%
X-4428368Y-46454177D02*
X-4428365Y-23604178D01*
X230489865Y-101392621D02*
X230414419Y-101523305D01*
X-2853368Y-74504183D02*
X-4428372Y-72929183D01*
X226245992Y-110703980D02*
X226245994Y-110803873D01*
X14446629Y-33056629D02*
X14400000Y-33010000D01*
X129246628Y-66104181D02*
X130326638Y-66104179D01*
X115845995Y-24503978D02*
X115845998Y-23204820D01*
X137846634Y-69104178D02*
X137846633Y-67604181D01*
X49121178Y-94469075D02*
X49114922Y-94458230D01*
X-4428371Y-51654180D02*
X-4428368Y-46454177D01*
X255045988Y-23078546D02*
X255021627Y-23054184D01*
X2345990Y-86404825D02*
X2346637Y-86404179D01*
X18346629Y-36104183D02*
X16756636Y-36104178D01*
X30845991Y-23104826D02*
X30846634Y-23104181D01*
X137871637Y-59601160D02*
X136171629Y-57901159D01*
X278496633Y-23054179D02*
X278496631Y-45879182D01*
X145126634Y-72226634D02*
X147228825Y-74328825D01*
X125196633Y-71679182D02*
X125846635Y-71029180D01*
X278771643Y-84129186D02*
X278771643Y-87428357D01*
X11546634Y-35266681D02*
X11546633Y-33204181D01*
X2345993Y-47803981D02*
X2345993Y-46828543D01*
X16126637Y-27389185D02*
X16126637Y-29184179D01*
X132996635Y-58154184D02*
X134001639Y-58154182D01*
X276646633Y-82004180D02*
X278771643Y-84129186D01*
X-2003369Y-81504181D02*
X-503370Y-80004185D01*
X136171634Y-56704185D02*
X136171633Y-57654183D01*
X147046637Y-27204174D02*
X147046635Y-23604186D01*
X136246632Y-109004181D02*
X138946628Y-109004183D01*
X125846632Y-69954179D02*
X126836628Y-68964183D01*
X154752287Y-62944283D02*
X154752285Y-61844286D01*
X164645992Y-23079826D02*
X164671639Y-23054181D01*
X154752288Y-61619286D02*
X156327288Y-60044285D01*
X47715426Y-99715404D02*
X47715424Y-102379337D01*
X125421634Y-66179179D02*
X125421639Y-64604181D01*
X121646629Y-94350664D02*
X121628824Y-94368468D01*
X276845994Y-47803986D02*
X276845987Y-47529821D01*
X194696636Y-112479180D02*
X194696635Y-114854183D01*
X278771643Y-87428357D02*
X278196016Y-88003984D01*
X145242389Y-71804179D02*
X149302285Y-67744285D01*
X228519566Y-93915842D02*
X228496961Y-93954992D01*
X122946635Y-72851163D02*
X124118611Y-71679182D01*
X147228825Y-74328825D02*
X147228825Y-75568468D01*
X276845987Y-47529821D02*
X278496631Y-45879182D01*
X258145992Y-110803983D02*
X258896433Y-110803980D01*
X22571632Y-111354180D02*
X23296637Y-112079180D01*
X9166636Y-35424184D02*
X8846634Y-35424183D01*
X135596632Y-72541682D02*
X135596632Y-73254182D01*
X140345993Y-110803982D02*
X140496434Y-110803983D01*
X226245989Y-109067484D02*
X226245992Y-110703980D01*
X57771629Y-112154184D02*
X58096636Y-112479179D01*
X231127800Y-104185679D02*
X226245989Y-109067484D01*
X134409131Y-66854183D02*
X133496636Y-66854177D01*
X16126637Y-29184179D02*
X17166635Y-30224177D01*
X140096630Y-71354187D02*
X137846634Y-69104178D01*
X141284132Y-71354186D02*
X140096630Y-71354187D01*
X135596632Y-66854181D02*
X137846634Y-69104178D01*
X142296630Y-71354186D02*
X143966631Y-73024178D01*
X75845993Y-23154824D02*
X75896642Y-23104186D01*
X135596637Y-108354181D02*
X132646634Y-108354179D01*
X7666639Y-76704179D02*
X6493268Y-76704180D01*
X132646634Y-108354179D02*
X131296638Y-107004180D01*
X60063442Y-89288566D02*
X58044652Y-96822793D01*
X128921632Y-95129179D02*
X129489534Y-95129183D01*
X133046630Y-76104184D02*
X132746630Y-76104178D01*
X126836634Y-67594178D02*
X126046634Y-66804183D01*
X276046638Y-75604182D02*
X274646627Y-77004177D01*
X121655001Y-88432089D02*
X121655000Y-90345806D01*
X8436634Y-32914179D02*
X7646630Y-33704182D01*
X-742554Y-76614998D02*
X-2853368Y-74504183D01*
X121655000Y-90345806D02*
X121646633Y-90354184D01*
X-4078371Y-83579183D02*
X-2003369Y-81504181D01*
X113671630Y-30079181D02*
X113671631Y-27529180D01*
X133721634Y-93979181D02*
X133721633Y-93004180D01*
X135596637Y-108354181D02*
X136246632Y-109004181D01*
X55345989Y-110009901D02*
X55345993Y-110703981D01*
X153727285Y-63669284D02*
X154027282Y-63669287D01*
X134001627Y-74904184D02*
X134001636Y-75149180D01*
X133146645Y-76004184D02*
X133046630Y-76104184D01*
X138596634Y-62803366D02*
X139000000Y-62400000D01*
X125421639Y-64604181D02*
X125421635Y-58154181D01*
X18846633Y-35604181D02*
X18346629Y-36104183D01*
X14446629Y-34004178D02*
X14446629Y-33056629D01*
X11546634Y-35266681D02*
X11546627Y-36104180D01*
X119756634Y-31189184D02*
X119721629Y-31154182D01*
X121646629Y-90354184D02*
X121646629Y-94350664D01*
X138946628Y-109004183D02*
X140345989Y-110403540D01*
X92646632Y-112804176D02*
X92646632Y-115579180D01*
X137871633Y-59854185D02*
X137871637Y-59601160D01*
X145126633Y-71804178D02*
X145126632Y-72044182D01*
X75845994Y-24503983D02*
X75845993Y-23154824D01*
X115845990Y-25354823D02*
X115845995Y-24503978D01*
X90646431Y-110803980D02*
X92646632Y-112804176D01*
X16126637Y-27389185D02*
X16281637Y-27389185D01*
X122946631Y-76404182D02*
X122946635Y-72851163D01*
X154652281Y-63044284D02*
X154752287Y-62944283D01*
X26818263Y-69554184D02*
X24989685Y-71382760D01*
X17166635Y-30224177D02*
X18846637Y-31904189D01*
X2345993Y-46828543D02*
X1896630Y-46379185D01*
X278771643Y-114804171D02*
X278771633Y-114804181D01*
X274646627Y-77004177D02*
X274646641Y-78854179D01*
X133721640Y-90404184D02*
X133721633Y-82929339D01*
X21921429Y-110703980D02*
X22571632Y-111354180D01*
X278496631Y-45879182D02*
X278496631Y-73154180D01*
X135596632Y-72541682D02*
X135596634Y-71354178D01*
X-4428372Y-72929183D02*
X-4428371Y-51654180D01*
X154752285Y-61844286D02*
X154752288Y-61619286D01*
X142871635Y-113179184D02*
X142871630Y-115579183D01*
X74621968Y-64319546D02*
X72677916Y-71574855D01*
X129246637Y-64204183D02*
X133566632Y-64204184D01*
X26896632Y-69554183D02*
X26818263Y-69554184D01*
X129489534Y-95129183D02*
X132571633Y-95129188D01*
X138596630Y-66854182D02*
X138596631Y-65666678D01*
X8556637Y-26474185D02*
X8556637Y-22294185D01*
X2345989Y-88003982D02*
X2345990Y-86404825D01*
X71543848Y-75903846D02*
X68256843Y-88171101D01*
X134001639Y-58154182D02*
X134021634Y-58174175D01*
X153377288Y-63669286D02*
X153727285Y-63669284D01*
X140646629Y-77189186D02*
X141027482Y-77570033D01*
X55345992Y-110703980D02*
X56321430Y-110703978D01*
X133721633Y-93004180D02*
X133721640Y-90404184D01*
X125421635Y-58154181D02*
X125446628Y-58129186D01*
X133721633Y-82929339D02*
X133721552Y-82929256D01*
X7876884Y-36384186D02*
X8836877Y-35424177D01*
X192921431Y-110703985D02*
X194696636Y-112479180D01*
X68256843Y-88171101D02*
X68486652Y-88569143D01*
X140496434Y-110803983D02*
X142871635Y-113179184D01*
X132726631Y-66084186D02*
X131646633Y-66084186D01*
X68462385Y-90012025D02*
X68378268Y-90325954D01*
X141026634Y-83524183D02*
X141026637Y-79654181D01*
X131296638Y-107004180D02*
X131296632Y-99954182D01*
X138596634Y-65666678D02*
X138596634Y-62803366D01*
X115845998Y-23204820D02*
X115946630Y-23104183D01*
X18846637Y-31904189D02*
X18846637Y-34004183D01*
X7646630Y-33704182D02*
X7646638Y-34224186D01*
X258896433Y-110803980D02*
X260521634Y-112429181D01*
X23296637Y-112079180D02*
X23296635Y-115754184D01*
X7646638Y-34224186D02*
X8846634Y-35424183D01*
X114676631Y-31084179D02*
X113671630Y-30079181D01*
X131296632Y-99954182D02*
X130946633Y-99604183D01*
X134409131Y-66854183D02*
X135596632Y-66854181D01*
X6493268Y-76704180D02*
X6489677Y-76707763D01*
X145126632Y-72044182D02*
X144146635Y-73024180D01*
X136171629Y-57901159D02*
X136171633Y-57654183D01*
X7746635Y-36384181D02*
X7876884Y-36384186D01*
X228496961Y-93954992D02*
X229987190Y-99516603D01*
X68734146Y-88997802D02*
X68462385Y-90012025D01*
X136171633Y-57654183D02*
X134541631Y-57654181D01*
X126836630Y-68304184D02*
X126836634Y-67594178D01*
X56321430Y-110703978D02*
X57771629Y-112154184D01*
X47715432Y-99715405D02*
X49121178Y-94469075D01*
X114676634Y-34004191D02*
X114676631Y-31084179D01*
X20845992Y-110703981D02*
X21921429Y-110703980D01*
X191845989Y-110703986D02*
X192921431Y-110703985D01*
X143966631Y-73024178D02*
X144146637Y-73024178D01*
X136921634Y-55954181D02*
X136171634Y-56704185D01*
X8711637Y-26474185D02*
X9626637Y-27389185D01*
X130076635Y-33554183D02*
X130076639Y-31014186D01*
X130346632Y-66084183D02*
X131646633Y-66084186D01*
X90245993Y-110803985D02*
X90646431Y-110803980D01*
X145776634Y-28474185D02*
X147046637Y-27204174D01*
X-503368Y-76854180D02*
X-742554Y-76614998D01*
X147228823Y-79568471D02*
X147228825Y-75568468D01*
X134001636Y-75149180D02*
X133146645Y-76004184D01*
X145126633Y-71804178D02*
X145242389Y-71804179D01*
X274646629Y-80004187D02*
X276646633Y-82004180D01*
X132571633Y-95129188D02*
X133721634Y-93979181D01*
X135596632Y-73254182D02*
X134001633Y-74849186D01*
X129246634Y-60329179D02*
X129246637Y-64204183D01*
X278496631Y-73154180D02*
X276046638Y-75604182D01*
X228284297Y-112842177D02*
X228284297Y-115329184D01*
X128246636Y-99079186D02*
X128246633Y-95804183D01*
X18846637Y-34004183D02*
X18846633Y-35604181D01*
X278196016Y-88003984D02*
X276945992Y-88003984D01*
X126836628Y-68964183D02*
X126836630Y-68304184D01*
X8836877Y-35424177D02*
X8846634Y-35424183D01*
X203345988Y-24303984D02*
X203345989Y-23103542D01*
X128771637Y-99604188D02*
X128246636Y-99079186D01*
X130946633Y-99604183D02*
X128771637Y-99604188D01*
X141027482Y-77570033D02*
X141026635Y-77570886D01*
X135596634Y-71354178D02*
X137846634Y-69104178D01*
X278771633Y-114804181D02*
X278246635Y-115329184D01*
X141021632Y-83529184D02*
X141026634Y-83524183D01*
X141221633Y-58174179D02*
X141221636Y-57354187D01*
X229987190Y-99516603D02*
X230489865Y-101392621D01*
X124118611Y-71679182D02*
X125196633Y-71679182D01*
X203345989Y-23103542D02*
X203296633Y-23054184D01*
X72677916Y-71574855D02*
X72695594Y-71605474D01*
X133998613Y-58151160D02*
X134021634Y-58174175D01*
X274646641Y-78854179D02*
X274646629Y-80004187D01*
X133496636Y-66854177D02*
X132726631Y-66084186D01*
X58096636Y-112479179D02*
X58096631Y-115754179D01*
X8556637Y-26474185D02*
X8711637Y-26474185D01*
X68486652Y-88569143D02*
X68734146Y-88997802D01*
X130326638Y-66104179D02*
X130346632Y-66084183D01*
X-4078366Y-115279178D02*
X-4078363Y-86429180D01*
X139821635Y-55954190D02*
X136921634Y-55954181D01*
X128246633Y-95804183D02*
X128921632Y-95129179D01*
X134001633Y-74849186D02*
X134001627Y-74904184D01*
X47715424Y-102379337D02*
X55345989Y-110009901D01*
X149302285Y-67744285D02*
X153377288Y-63669286D01*
X125846635Y-71029180D02*
X125846632Y-69954179D01*
X113671631Y-27529180D02*
X115845990Y-25354823D01*
X141284132Y-71354186D02*
X142296630Y-71354186D01*
X-503370Y-80004185D02*
X-503365Y-78279183D01*
X68378268Y-90325954D02*
X67031046Y-91103770D01*
X-4078363Y-86429180D02*
X-4078371Y-83579183D01*
X16281637Y-27389185D02*
X17196637Y-26474185D01*
X17196637Y-26474185D02*
X17196637Y-22294185D01*
X230414419Y-101523305D02*
X231127800Y-104185679D01*
X58044652Y-96822793D02*
X58014032Y-96840469D01*
X139000000Y-62400000D02*
X139000000Y-62100000D01*
X126046634Y-66804183D02*
X125421634Y-66179179D01*
X10146631Y-36404185D02*
X9166636Y-35424184D01*
X154027282Y-63669287D02*
X154652281Y-63044284D01*
X145126634Y-71804183D02*
X145126634Y-72226634D01*
X-503365Y-78279183D02*
X-503368Y-76854180D01*
X145316633Y-28474185D02*
X145776634Y-28474185D01*
X8546626Y-32914188D02*
X8436634Y-32914179D01*
X11246626Y-36404184D02*
X10146631Y-36404185D01*
X141221636Y-57354187D02*
X139821635Y-55954190D01*
X135596632Y-107072182D02*
X135596637Y-108354181D01*
X137846633Y-67604181D02*
X138596630Y-66854182D01*
X226245994Y-110803873D02*
X228284297Y-112842177D01*
X141026635Y-77570886D02*
X141026637Y-79654181D01*
X140345989Y-110403540D02*
X140345993Y-110803982D01*
X164645994Y-24503979D02*
X164645992Y-23079826D01*
X260521634Y-112429181D02*
X260521629Y-115329183D01*
X30845995Y-24503984D02*
X30845991Y-23104826D01*
X134541631Y-57654181D02*
X134021634Y-58174175D01*
X119756634Y-34004177D02*
X119756634Y-31189184D01*
X255045995Y-24203980D02*
X255045988Y-23078546D01*
X139000000Y-62100000D02*
X140160589Y-60939411D01*
X278771643Y-87428357D02*
X278771643Y-114804171D01*
X11546627Y-36104180D02*
X11246626Y-36404184D01*
%TO.N,+5V*%
X9546624Y-31104187D02*
X9896633Y-31454181D01*
X274421633Y-84304187D02*
X274521633Y-84404183D01*
X142846633Y-82504177D02*
X142846627Y-75604179D01*
X-3453365Y-52754176D02*
X-2652730Y-51953543D01*
X-3453370Y-57929182D02*
X-3453365Y-52754176D01*
X-2652732Y-50253543D02*
X-1328368Y-48929180D01*
X-978365Y-48579180D02*
X-978365Y-47554182D01*
X6940000Y-28697550D02*
X8246631Y-30004180D01*
X12496635Y-35266685D02*
X13109131Y-35266684D01*
X-928366Y-82154178D02*
X571628Y-80654182D01*
X85247270Y-114004387D02*
X86296834Y-114004384D01*
X-2652721Y-90828536D02*
X-828364Y-89004179D01*
X6646628Y-34104178D02*
X6646632Y-34324181D01*
X273921628Y-83804185D02*
X274421633Y-84304187D01*
X50347273Y-113904380D02*
X51271833Y-113904382D01*
X-2652724Y-91204383D02*
X-2652721Y-90828536D01*
X-3378365Y-66663233D02*
X-3378364Y-63079176D01*
X273921630Y-76604186D02*
X273921627Y-78929182D01*
X-828364Y-89004179D02*
X-828364Y-85179178D01*
X7185380Y-73529883D02*
X5792573Y-73529884D01*
X274582863Y-24158600D02*
X274582868Y-52767949D01*
X86296834Y-114004384D02*
X87471637Y-115179189D01*
X16846834Y-113904384D02*
X18121636Y-115179189D01*
X271847275Y-51004388D02*
X272796831Y-51004388D01*
X273921627Y-78929182D02*
X273921628Y-83804185D01*
X142846633Y-74346633D02*
X141600000Y-73100000D01*
X137796627Y-114654182D02*
X137796632Y-115179185D01*
X221247269Y-113904378D02*
X219896095Y-113904378D01*
X13846640Y-36004180D02*
X14046631Y-36004186D01*
X-828364Y-85179178D02*
X-928370Y-85079181D01*
X6420000Y-26930000D02*
X6940000Y-27450000D01*
X273271435Y-91204378D02*
X274521635Y-89954186D01*
X-2652728Y-111028539D02*
X-2652724Y-91204383D01*
X277646632Y-64129182D02*
X277646632Y-72879178D01*
X-978365Y-47554182D02*
X-978363Y-46479177D01*
X5792573Y-73529884D02*
X5764684Y-73557759D01*
X152543927Y-109803947D02*
X153646197Y-110440343D01*
X198347267Y-26919197D02*
X201257867Y-24008604D01*
X130721634Y-90354180D02*
X126246632Y-90354183D01*
X10596634Y-34654181D02*
X10596636Y-35266682D01*
X9896628Y-33104187D02*
X9546636Y-33104185D01*
X148888209Y-94929807D02*
X148888208Y-98829808D01*
X277646632Y-72879178D02*
X274321626Y-76204185D01*
X110847275Y-26703542D02*
X112646627Y-24904189D01*
X110847270Y-27704386D02*
X110847275Y-26703542D01*
X9546630Y-30604188D02*
X9546624Y-31104187D01*
X157496629Y-33254181D02*
X157496629Y-28729174D01*
X275321628Y-102329187D02*
X276096636Y-103104182D01*
X-3178369Y-111554187D02*
X-2652728Y-111028539D01*
X138538206Y-82512602D02*
X138546629Y-82504178D01*
X138538209Y-87554808D02*
X138538206Y-82512602D01*
X255171833Y-114004383D02*
X255546633Y-114379175D01*
X51271833Y-113904382D02*
X52546625Y-115179184D01*
X135347274Y-114004380D02*
X137146831Y-114004385D01*
X8246631Y-30004180D02*
X8946636Y-30004178D01*
X142846627Y-75604179D02*
X142846633Y-74404185D01*
X-978363Y-46479177D02*
X-1678362Y-45779183D01*
X130763209Y-90395754D02*
X130763210Y-87554805D01*
X274321626Y-76204185D02*
X273921630Y-76604186D01*
X70847272Y-26703543D02*
X72646634Y-24904182D01*
X138588206Y-87604808D02*
X138588205Y-94929808D01*
X-3178373Y-114529181D02*
X-3178369Y-111554187D01*
X138486638Y-82444186D02*
X138486631Y-79654178D01*
X126255001Y-90345811D02*
X126246631Y-90354179D01*
X-2652730Y-51953543D02*
X-2652734Y-51004387D01*
X142846633Y-74404185D02*
X142846633Y-74346633D01*
X-1328368Y-48929180D02*
X-978365Y-48579180D01*
X25847271Y-26603539D02*
X27546628Y-24904180D01*
X198347273Y-27504380D02*
X198347267Y-26919197D01*
X159647275Y-26969201D02*
X162632872Y-23983607D01*
X-128367Y-75704179D02*
X-2180053Y-73652494D01*
X137146831Y-114004385D02*
X137796627Y-114654182D01*
X138538209Y-87554808D02*
X138588206Y-87604808D01*
X-1678362Y-45779183D02*
X-3253371Y-44204185D01*
X253147273Y-114004383D02*
X255171833Y-114004383D01*
X9896630Y-33954179D02*
X10596634Y-34654181D01*
X148888208Y-98829808D02*
X151697824Y-109315451D01*
X274521635Y-89954186D02*
X274521638Y-92229180D01*
X6420000Y-25450000D02*
X6420000Y-26930000D01*
X151697824Y-109315451D02*
X152543927Y-109803947D01*
X-928370Y-85079181D02*
X-928366Y-82154178D01*
X274521634Y-101529187D02*
X275321628Y-102329187D01*
X-3253371Y-44204185D02*
X-3253371Y-26379185D01*
X571634Y-76404181D02*
X-128367Y-75704179D01*
X250047272Y-26869199D02*
X252757865Y-24158605D01*
X6940000Y-27450000D02*
X6940000Y-28697550D01*
X161701771Y-115126063D02*
X161648655Y-115179181D01*
X9546636Y-33104185D02*
X8646629Y-34004185D01*
X8946636Y-30004178D02*
X9546630Y-30604188D01*
X9896633Y-31454181D02*
X9896628Y-33104187D01*
X70847275Y-27704377D02*
X70847272Y-26703543D01*
X138546629Y-82504178D02*
X138486638Y-82444186D01*
X6646632Y-34324181D02*
X7746633Y-35424180D01*
X274582868Y-52767949D02*
X274571630Y-52779187D01*
X250047269Y-27404386D02*
X250047272Y-26869199D01*
X9896628Y-33104187D02*
X9896630Y-33954179D01*
X25847274Y-27704384D02*
X25847271Y-26603539D01*
X161701772Y-113458239D02*
X161701771Y-115126063D01*
X112136631Y-32044185D02*
X112136628Y-34004186D01*
X13646631Y-35804183D02*
X13846640Y-36004180D01*
X126255005Y-87832087D02*
X126255001Y-90345811D01*
X110847275Y-30754821D02*
X112136631Y-32044185D01*
X276096636Y-103104182D02*
X276096633Y-114379183D01*
X130771634Y-90404183D02*
X130763209Y-90395754D01*
X-2180053Y-73652494D02*
X-3378366Y-72454176D01*
X-2652734Y-51004387D02*
X-2652732Y-50253543D01*
X186847272Y-113904377D02*
X188246828Y-113904381D01*
X159647270Y-27704385D02*
X159647275Y-26969201D01*
X158521431Y-27704380D02*
X159647274Y-27704382D01*
X153646197Y-110440343D02*
X155191676Y-110026234D01*
X157496629Y-28729174D02*
X158521431Y-27704380D01*
X13109131Y-35266684D02*
X13646631Y-35804183D01*
X219896095Y-113904378D02*
X219421294Y-114379179D01*
X274521633Y-84404183D02*
X274521635Y-89954186D01*
X-3378366Y-72454176D02*
X-3378365Y-66663233D01*
X271947274Y-91204379D02*
X273271435Y-91204378D01*
X274521638Y-92229180D02*
X274521634Y-101529187D01*
X110847270Y-27704386D02*
X110847275Y-30754821D01*
X571628Y-80654182D02*
X571634Y-76404181D01*
X130771630Y-90404184D02*
X130721634Y-90354180D01*
X272796831Y-51004388D02*
X274571630Y-52779187D01*
X188246828Y-113904381D02*
X188721628Y-114379180D01*
X15847280Y-113904387D02*
X16846834Y-113904384D01*
%TO.N,Net-(D1-Pad2)*%
X24212774Y-40933426D02*
X24212764Y-41271451D01*
X24212764Y-41271451D02*
X25729537Y-42788223D01*
X24243376Y-40915745D02*
X24212769Y-40933422D01*
X24909837Y-38428491D02*
X24243376Y-40915745D01*
%TO.N,row0*%
X103390255Y-28408340D02*
X103364683Y-28382759D01*
X141284138Y-66354179D02*
X141284134Y-65715866D01*
X45713024Y-28084422D02*
X45414688Y-28382768D01*
X144052283Y-53844288D02*
X144052285Y-52844287D01*
X142612906Y-63587094D02*
X142612906Y-63212906D01*
X144052283Y-55369284D02*
X144052283Y-53844288D01*
X47351767Y-28084421D02*
X45713024Y-28084422D01*
X25719079Y-35266841D02*
X25763938Y-35240934D01*
X66788048Y-28382760D02*
X66998451Y-28172357D01*
X156727286Y-51494282D02*
X156727284Y-56094287D01*
X175425327Y-42192340D02*
X174987670Y-40558987D01*
X157341636Y-47929713D02*
X157753410Y-49466473D01*
X144802287Y-57394286D02*
X144802287Y-56119286D01*
X157753410Y-49466473D02*
X157719787Y-49524715D01*
X143252288Y-52044286D02*
X142652285Y-51444284D01*
X26177428Y-30270018D02*
X27714683Y-28732760D01*
X144777287Y-58119283D02*
X144802288Y-58094286D01*
X156727284Y-56094287D02*
X157096637Y-56463637D01*
X84056954Y-37919542D02*
X85348256Y-33100341D01*
X103390257Y-39177010D02*
X103390255Y-28408340D01*
X25763938Y-35240932D02*
X26177423Y-33697777D01*
X65264687Y-28382758D02*
X66788048Y-28382760D01*
X85348256Y-33100341D02*
X85348251Y-28416334D01*
X144246635Y-61579182D02*
X144246630Y-58654193D01*
X142652285Y-51444284D02*
X142652287Y-28469284D01*
X157719787Y-49524715D02*
X157719785Y-50501786D01*
X144802288Y-58094286D02*
X144802287Y-57394286D01*
X23957720Y-34794879D02*
X25719079Y-35266841D01*
X144246630Y-58654193D02*
X144246631Y-58649942D01*
X144202284Y-55519287D02*
X144052283Y-55369284D01*
X142300000Y-64700000D02*
X142300000Y-63900000D01*
X144052285Y-52844287D02*
X143252288Y-52044286D01*
X157719785Y-50501786D02*
X156727286Y-51494282D01*
X157096637Y-56463637D02*
X157096639Y-57400656D01*
X141284134Y-65715866D02*
X142300000Y-64700000D01*
X4573691Y-36775195D02*
X4960084Y-35333155D01*
X144802287Y-56119286D02*
X144202284Y-55519287D01*
X101762490Y-45251921D02*
X103390257Y-39177010D01*
X85348251Y-28416334D02*
X85314686Y-28382758D01*
X4960084Y-35333155D02*
X4980802Y-35321198D01*
X174987670Y-40558987D02*
X175021299Y-40500742D01*
X26177423Y-33697777D02*
X26177428Y-30270018D01*
X142612906Y-63212906D02*
X144246635Y-61579182D01*
X142300000Y-63900000D02*
X142612906Y-63587094D01*
X144246631Y-58649942D02*
X144777287Y-58119283D01*
%TO.N,Net-(D2-Pad2)*%
X45831206Y-33759245D02*
X45800593Y-33776925D01*
X45800589Y-33776919D02*
X45800585Y-34114950D01*
X45800585Y-34114950D02*
X47317361Y-35631720D01*
X46497665Y-31271975D02*
X45831206Y-33759245D01*
%TO.N,Net-(D3-Pad2)*%
X65477896Y-33847160D02*
X65447272Y-33864845D01*
X65447272Y-33864845D02*
X65447271Y-34202872D01*
X65447271Y-34202872D02*
X66964046Y-35719637D01*
X66144348Y-31359910D02*
X65477896Y-33847160D01*
%TO.N,Net-(D4-Pad2)*%
X82505769Y-43950064D02*
X84022540Y-45466839D01*
X82505773Y-43612036D02*
X82505769Y-43950064D01*
X83202848Y-41107105D02*
X82536391Y-43594363D01*
X82536391Y-43594363D02*
X82505773Y-43612036D01*
%TO.N,Net-(D5-Pad2)*%
X100211312Y-51282433D02*
X101728084Y-52799210D01*
X100241936Y-50926728D02*
X100211316Y-50944403D01*
X100211316Y-50944403D02*
X100211312Y-51282433D01*
X100908390Y-48439476D02*
X100241936Y-50926728D01*
%TO.N,Net-(D6-Pad2)*%
X159240337Y-55199535D02*
X159222666Y-55230147D01*
X161381152Y-56104182D02*
X161417540Y-56067793D01*
X160046631Y-56104182D02*
X161381152Y-56104182D01*
X159222663Y-55280208D02*
X160046631Y-56104182D01*
X158573884Y-52712270D02*
X159240337Y-55199535D01*
X159222666Y-55230147D02*
X159222663Y-55280208D01*
%TO.N,Net-(D7-Pad2)*%
X176940223Y-47897772D02*
X177646633Y-48604183D01*
X176279433Y-45379897D02*
X176945886Y-47867148D01*
X177646633Y-48604183D02*
X178991861Y-48604185D01*
X178991861Y-48604185D02*
X179123085Y-48735412D01*
X176945886Y-47867148D02*
X176928206Y-47897770D01*
X176928206Y-47897770D02*
X176940223Y-47897772D01*
%TO.N,Net-(D8-Pad2)*%
X194746639Y-38904181D02*
X196097535Y-38904182D01*
X196097535Y-38904182D02*
X196181572Y-38988222D01*
X193993027Y-38150584D02*
X194746639Y-38904181D01*
X193337922Y-35632706D02*
X194004373Y-38119959D01*
X193986694Y-38150576D02*
X193993027Y-38150584D01*
X194004373Y-38119959D02*
X193986694Y-38150576D01*
%TO.N,Net-(D9-Pad2)*%
X213633383Y-38090928D02*
X214246634Y-38704187D01*
X214246634Y-38704187D02*
X215632149Y-38704186D01*
X215632149Y-38704186D02*
X215828258Y-38900289D01*
X213633383Y-38062649D02*
X213633383Y-38090928D01*
X212984604Y-35544767D02*
X213651057Y-38032027D01*
X213651057Y-38032027D02*
X213633383Y-38062649D01*
%TO.N,Net-(D10-Pad2)*%
X237452331Y-46042852D02*
X237470854Y-46010779D01*
X235221211Y-45278760D02*
X235846632Y-45904186D01*
X235221207Y-45219154D02*
X235221211Y-45278760D01*
X237263469Y-45904180D02*
X237416087Y-46056798D01*
X235150068Y-45178080D02*
X235221211Y-45219158D01*
X234407116Y-42405353D02*
X235150068Y-45178080D01*
X235846632Y-45904186D02*
X237263469Y-45904180D01*
%TO.N,Net-(D11-Pad2)*%
X19992285Y-56781076D02*
X19325824Y-59268336D01*
X19295203Y-59624035D02*
X20811964Y-61140818D01*
X19295200Y-59286017D02*
X19295203Y-59624035D01*
X19325824Y-59268336D02*
X19295208Y-59286015D01*
%TO.N,row1*%
X116576298Y-64911051D02*
X116484446Y-64964083D01*
X160442652Y-66170142D02*
X159937953Y-64286586D01*
X167207156Y-93980943D02*
X165246605Y-86664053D01*
X150593790Y-45294123D02*
X150593790Y-40994126D01*
X116247541Y-71836953D02*
X114953445Y-76666583D01*
X151068787Y-63547680D02*
X151068783Y-62244127D01*
X141284133Y-70354182D02*
X145583734Y-70354181D01*
X79602466Y-54543891D02*
X79564152Y-54477518D01*
X20846382Y-53593521D02*
X21655553Y-53810339D01*
X116801012Y-64781311D02*
X116576298Y-64911051D01*
X114953445Y-76666583D02*
X114187983Y-77108523D01*
X42718275Y-45376820D02*
X43264285Y-45061579D01*
X180119584Y-60210400D02*
X178826233Y-55383555D01*
X150593790Y-40994126D02*
X145693841Y-36094179D01*
X151068791Y-64869122D02*
X151068787Y-63547680D01*
X116415774Y-71209097D02*
X116247541Y-71836953D01*
X165246605Y-86664053D02*
X166431004Y-84612605D01*
X116898041Y-64419206D02*
X116801012Y-64781311D01*
X151068783Y-62244127D02*
X151443784Y-61869128D01*
X116316211Y-65591930D02*
X115319753Y-69310749D01*
X139959Y-54160212D02*
X541132Y-52663024D01*
X97282133Y-61972860D02*
X97243802Y-61906491D01*
X152368786Y-49044126D02*
X152368795Y-47069128D01*
X178826233Y-55383555D02*
X179305435Y-54553552D01*
X96844927Y-63604510D02*
X97282133Y-61972860D01*
X112304982Y-80175682D02*
X110286194Y-87709904D01*
X164651627Y-77971869D02*
X161865330Y-76363196D01*
X115973830Y-70443634D02*
X116415774Y-71209097D01*
X153293789Y-57619128D02*
X153293785Y-49969127D01*
X159937953Y-64286586D02*
X160165449Y-63892552D01*
X145583734Y-70354181D02*
X151068791Y-64869122D01*
X168997621Y-99117563D02*
X167697054Y-94263785D01*
X151443784Y-61869128D02*
X151443791Y-59469128D01*
X161865330Y-76363196D02*
X159548899Y-67718160D01*
X21655553Y-53810339D02*
X22459791Y-53346009D01*
X160165449Y-63892552D02*
X161488672Y-63537994D01*
X166431004Y-84612605D02*
X164651627Y-77971869D01*
X151443791Y-59469128D02*
X153293789Y-57619128D01*
X161479073Y-63554610D02*
X161488672Y-63537994D01*
X115319753Y-69310749D02*
X115973830Y-70443634D01*
X112932615Y-77833311D02*
X112304982Y-80175682D01*
X62080897Y-46524937D02*
X62494377Y-44981789D01*
X110286194Y-87709904D02*
X110993294Y-88934648D01*
X79139383Y-56272135D02*
X79602466Y-54543891D01*
X153293785Y-49969127D02*
X152368786Y-49044126D01*
X111170075Y-89240834D02*
X109727159Y-94625867D01*
X62494377Y-44981789D02*
X62550483Y-44949400D01*
X110993294Y-88934648D02*
X111170075Y-89240834D01*
X109727159Y-94625867D02*
X109720689Y-94650017D01*
X152368795Y-47069128D02*
X150593790Y-45294123D01*
X145693841Y-36094179D02*
X145316634Y-36094175D01*
X114187983Y-77108523D02*
X112932615Y-77833311D01*
X109108318Y-95003568D02*
X107963041Y-99277791D01*
X116484446Y-64964083D02*
X116316211Y-65591930D01*
X42434203Y-46437006D02*
X42718275Y-45376820D01*
X162637344Y-67877300D02*
X161479073Y-63554610D01*
X109720689Y-94650017D02*
X109108318Y-95003568D01*
X167697054Y-94263785D02*
X167207156Y-93980943D01*
X159548899Y-67718160D02*
X160442652Y-66170142D01*
%TO.N,Net-(D12-Pad2)*%
X40883026Y-52467531D02*
X42399794Y-53984305D01*
X40883027Y-52129505D02*
X40883026Y-52467531D01*
X41580098Y-49624564D02*
X40913638Y-52111831D01*
X40913638Y-52111831D02*
X40883025Y-52129504D01*
%TO.N,Net-(D13-Pad2)*%
X60529709Y-52217425D02*
X60529713Y-52555458D01*
X60560334Y-52199754D02*
X60529712Y-52217428D01*
X61226784Y-49712497D02*
X60560334Y-52199754D01*
X60529713Y-52555458D02*
X62046478Y-54072227D01*
%TO.N,Net-(D14-Pad2)*%
X78285283Y-59459691D02*
X77618820Y-61946958D01*
X77588215Y-62302665D02*
X79104984Y-63819429D01*
X77618820Y-61946958D02*
X77588209Y-61964629D01*
X77588217Y-61964627D02*
X77588215Y-62302665D01*
%TO.N,Net-(D15-Pad2)*%
X95324369Y-69279325D02*
X95293751Y-69297007D01*
X95293750Y-69297008D02*
X95293749Y-69635037D01*
X95990820Y-66792070D02*
X95324369Y-69279325D01*
X95293749Y-69635037D02*
X96810521Y-71151809D01*
%TO.N,Net-(D16-Pad2)*%
X164961673Y-74404186D02*
X166318905Y-74404187D01*
X164140235Y-73582742D02*
X164961673Y-74404186D01*
X164157900Y-73552120D02*
X164140235Y-73582742D01*
X166318905Y-74404187D02*
X166335102Y-74420375D01*
X163491444Y-71064852D02*
X164157900Y-73552120D01*
%TO.N,Net-(D17-Pad2)*%
X180973684Y-63397959D02*
X181718260Y-66176749D01*
X181845762Y-66250362D02*
X182699576Y-67104179D01*
X181718260Y-66176749D02*
X181845762Y-66250362D01*
X184024462Y-67104178D02*
X184040638Y-67088004D01*
X182699576Y-67104179D02*
X184024462Y-67104178D01*
%TO.N,Net-(D18-Pad2)*%
X198904259Y-56561809D02*
X199746633Y-57404180D01*
X197938172Y-53835049D02*
X198607128Y-56331619D01*
X198607128Y-56331619D02*
X198904261Y-56503170D01*
X198904261Y-56503170D02*
X198904259Y-56561809D01*
X199746633Y-57404180D02*
X201035762Y-57404182D01*
X201035762Y-57404182D02*
X201099138Y-57340811D01*
%TO.N,Net-(D19-Pad2)*%
X218557686Y-56415238D02*
X219346641Y-57204185D01*
X218550943Y-56415236D02*
X218557686Y-56415238D01*
X219346641Y-57204185D02*
X220697122Y-57204182D01*
X218568622Y-56384620D02*
X218550943Y-56415236D01*
X217890956Y-53855536D02*
X218568622Y-56384620D01*
X220697122Y-57204182D02*
X220745818Y-57252885D01*
%TO.N,Net-(D20-Pad2)*%
X240138769Y-63571744D02*
X240138768Y-63596315D01*
X240846634Y-64304181D02*
X242228441Y-64304183D01*
X240138768Y-63596315D02*
X240846634Y-64304181D01*
X242228441Y-64304183D02*
X242333643Y-64409392D01*
X240156452Y-63541119D02*
X240138770Y-63571742D01*
X239489986Y-61053868D02*
X240156452Y-63541119D01*
%TO.N,Net-(D21-Pad2)*%
X14408257Y-77620929D02*
X14377638Y-77638602D01*
X14377638Y-77638602D02*
X14377633Y-77976639D01*
X15074712Y-75133670D02*
X14408257Y-77620929D01*
X14377633Y-77976639D02*
X15894405Y-79493402D01*
%TO.N,row2*%
X151218783Y-49344126D02*
X151218787Y-47394122D01*
X160629988Y-67288020D02*
X161319419Y-66093885D01*
X4164685Y-90132763D02*
X4164680Y-70482766D01*
X57576820Y-63334370D02*
X57632927Y-63301991D01*
X74633149Y-73089664D02*
X74594818Y-73023295D01*
X162442311Y-75886952D02*
X162131729Y-74727843D01*
X151218787Y-47394122D02*
X149393785Y-45569131D01*
X150443786Y-61369131D02*
X150443788Y-58944127D01*
X163115919Y-76275866D02*
X162442311Y-75886952D01*
X108300018Y-88978465D02*
X107744078Y-88015550D01*
X150068790Y-61744128D02*
X150443786Y-61369131D01*
X149393785Y-45569131D02*
X149393786Y-42119125D01*
X165211989Y-77486023D02*
X163115919Y-76275866D01*
X38091354Y-62872527D02*
X38513170Y-61298293D01*
X246635Y-96300808D02*
X3439684Y-93107759D01*
X107880113Y-92670593D02*
X108261876Y-91245856D01*
X161319419Y-66093885D02*
X160892367Y-64500115D01*
X107744078Y-88015550D02*
X109200381Y-82580532D01*
X246634Y-99554180D02*
X246635Y-96300808D01*
X145908840Y-38634184D02*
X145316629Y-38634181D01*
X104994033Y-98540729D02*
X106326601Y-93567517D01*
X184227509Y-75042545D02*
X184261139Y-74984294D01*
X74221821Y-74624729D02*
X74633149Y-73089664D01*
X149393786Y-42119125D02*
X145908840Y-38634184D01*
X92364571Y-80325461D02*
X92326246Y-80259073D01*
X108688923Y-89652072D02*
X108300018Y-88978465D01*
X16340135Y-70411051D02*
X16301808Y-70344681D01*
X108261876Y-91245856D02*
X108688923Y-89652072D01*
X167222036Y-84987628D02*
X165211989Y-77486023D01*
X152268789Y-57119124D02*
X152268789Y-50394125D01*
X150443788Y-58944127D02*
X152268789Y-57119124D01*
X150068787Y-64544123D02*
X150068790Y-61744128D01*
X15928822Y-71946105D02*
X16340135Y-70411051D01*
X160294114Y-67869770D02*
X160629988Y-67288020D01*
X106326601Y-93567517D02*
X107880113Y-92670593D01*
X57163331Y-64877540D02*
X57576820Y-63334370D01*
X185260443Y-78897514D02*
X184227509Y-75042545D01*
X3439684Y-93107759D02*
X4164684Y-92382755D01*
X162131729Y-74727843D02*
X160294114Y-67869770D01*
X91927375Y-81957104D02*
X92364571Y-80325461D01*
X147888206Y-99604806D02*
X147888209Y-91629809D01*
X152268789Y-50394125D02*
X151218783Y-49344126D01*
X141284129Y-69854178D02*
X144758731Y-69854179D01*
X144758731Y-69854179D02*
X150068787Y-64544123D01*
X167554896Y-86229894D02*
X167222036Y-84987628D01*
X38513170Y-61298293D02*
X38503871Y-61282202D01*
X4164684Y-92382755D02*
X4164685Y-90132763D01*
%TO.N,Net-(D22-Pad2)*%
X36068275Y-70422744D02*
X35965469Y-70482096D01*
X35965469Y-70482096D02*
X35965464Y-70820129D01*
X35965464Y-70820129D02*
X37482232Y-72336899D01*
X37237252Y-66060091D02*
X36068275Y-70422744D01*
%TO.N,Net-(D23-Pad2)*%
X55642776Y-70552331D02*
X55612144Y-70570024D01*
X55612144Y-70570024D02*
X55612143Y-70908051D01*
X55612143Y-70908051D02*
X57128915Y-72424824D01*
X56309230Y-68065098D02*
X55642776Y-70552331D01*
%TO.N,Net-(D24-Pad2)*%
X72670645Y-80317210D02*
X72670636Y-80655249D01*
X72670636Y-80655249D02*
X74187410Y-82172018D01*
X73367722Y-77812282D02*
X72701264Y-80299532D01*
X72701264Y-80299532D02*
X72670645Y-80317217D01*
%TO.N,Net-(D25-Pad2)*%
X90406810Y-87631909D02*
X90376192Y-87649586D01*
X90376192Y-87649586D02*
X90376195Y-87987616D01*
X90376195Y-87987616D02*
X91892965Y-89504391D01*
X91073272Y-85144661D02*
X90406810Y-87631909D01*
%TO.N,Net-(D26-Pad2)*%
X169075460Y-91904702D02*
X169057786Y-91935327D01*
X169746631Y-92704180D02*
X171183871Y-92704186D01*
X169057785Y-92015325D02*
X169746631Y-92704180D01*
X168408995Y-89417450D02*
X169075460Y-91904702D01*
X169057786Y-91935327D02*
X169057785Y-92015325D01*
X171183871Y-92704186D02*
X171252660Y-92772964D01*
%TO.N,Net-(D27-Pad2)*%
X187446631Y-85304180D02*
X188821798Y-85304177D01*
X186763327Y-84602949D02*
X186763338Y-84620877D01*
X188821798Y-85304177D02*
X188958205Y-85440593D01*
X186114546Y-82085070D02*
X186781007Y-84572335D01*
X186781007Y-84572335D02*
X186763321Y-84602950D01*
X186763338Y-84620877D02*
X187446631Y-85304180D01*
%TO.N,Net-(D28-Pad2)*%
X205927491Y-75604183D02*
X206016702Y-75693395D01*
X203839501Y-74825136D02*
X203821819Y-74855753D01*
X203821822Y-74879371D02*
X204546636Y-75604182D01*
X203173040Y-72337883D02*
X203839501Y-74825136D01*
X203821819Y-74855753D02*
X203821822Y-74879371D01*
X204546636Y-75604182D02*
X205927491Y-75604183D01*
%TO.N,Net-(D29-Pad2)*%
X223468503Y-74767825D02*
X223468506Y-74826055D01*
X223468506Y-74826055D02*
X224246637Y-75604184D01*
X222819727Y-72249947D02*
X223486184Y-74737197D01*
X224246637Y-75604184D02*
X225662095Y-75604183D01*
X223486184Y-74737197D02*
X223468503Y-74767828D01*
X225662095Y-75604183D02*
X225663385Y-75605465D01*
%TO.N,Net-(D30-Pad2)*%
X247209009Y-82804185D02*
X247251211Y-82761979D01*
X244407553Y-79406457D02*
X245074014Y-81893724D01*
X245056338Y-81924340D02*
X245936180Y-82804183D01*
X245074014Y-81893724D02*
X245056338Y-81924340D01*
X245936180Y-82804183D02*
X247209009Y-82804185D01*
%TO.N,Net-(D31-Pad2)*%
X3719591Y-39962750D02*
X3049905Y-42462052D01*
X3082509Y-42856550D02*
X4599280Y-44373323D01*
X3049905Y-42462052D02*
X3082506Y-42518523D01*
X3082506Y-42518523D02*
X3082509Y-42856550D01*
%TO.N,row3*%
X240183663Y-66936247D02*
X242098924Y-74084098D01*
X238922929Y-58937569D02*
X237259506Y-61818699D01*
X148343791Y-45944128D02*
X148343787Y-42794124D01*
X238345055Y-48483348D02*
X239794441Y-53892538D01*
X221965628Y-69062393D02*
X221575547Y-67606598D01*
X221575547Y-67606598D02*
X221609903Y-67547095D01*
X237259506Y-61818699D02*
X237953600Y-64409086D01*
X212365778Y-33235274D02*
X210631643Y-36238890D01*
X237953600Y-64409086D02*
X238346546Y-65875590D01*
X147399133Y-65938779D02*
X149193786Y-64144124D01*
X238275880Y-56522756D02*
X238635889Y-57866317D01*
X238635889Y-57866317D02*
X238922929Y-58937569D01*
X197084071Y-50647496D02*
X196611348Y-48883281D01*
X149193786Y-64144124D02*
X149193790Y-61369122D01*
X148343787Y-42794124D02*
X146723840Y-41174178D01*
X238346546Y-65875590D02*
X240183663Y-66936247D01*
X196611348Y-48883281D02*
X196568692Y-48858655D01*
X141284133Y-69354184D02*
X143983738Y-69354177D01*
X212521021Y-43290151D02*
X212827209Y-43466923D01*
X254352167Y-39567249D02*
X254373848Y-39529703D01*
X150293786Y-47894129D02*
X148343791Y-45944128D01*
X143983738Y-69354177D02*
X147399133Y-65938779D01*
X149193790Y-61369122D02*
X149493788Y-61069124D01*
X242098924Y-74084098D02*
X243142943Y-74686862D01*
X254786792Y-41189271D02*
X254352167Y-39567249D01*
X146723840Y-41174178D02*
X145316634Y-41174175D01*
X239794441Y-53892538D02*
X238275880Y-56522756D01*
X212130505Y-32357209D02*
X212365778Y-33235274D01*
X210631643Y-36238890D02*
X212521021Y-43290151D01*
X149493787Y-58519123D02*
X151368792Y-56644123D01*
X243142943Y-74686862D02*
X243553448Y-76218901D01*
X149493788Y-61069124D02*
X149493787Y-58519123D01*
X151368792Y-56644123D02*
X151368788Y-50769130D01*
X150293786Y-49694129D02*
X150293786Y-47894129D01*
X151368788Y-50769130D02*
X150293786Y-49694129D01*
%TO.N,Net-(D32-Pad2)*%
X258408620Y-47504182D02*
X258546330Y-47641899D01*
X256351458Y-46809014D02*
X257046633Y-47504177D01*
X256351454Y-46804252D02*
X256351458Y-46809014D01*
X255640891Y-44376826D02*
X256280314Y-46763181D01*
X257046633Y-47504177D02*
X258408620Y-47504182D01*
X256280314Y-46763181D02*
X256351454Y-46804252D01*
%TO.N,Net-(D33-Pad2)*%
X70711189Y-102130601D02*
X70711191Y-102468621D01*
X70653053Y-102029888D02*
X70711193Y-102130592D01*
X70711191Y-102468621D02*
X72227963Y-103985400D01*
X71478277Y-98950105D02*
X70653053Y-102029888D01*
%TO.N,Net-(D34-Pad2)*%
X92796199Y-108520618D02*
X94312968Y-110037391D01*
X93819581Y-103897961D02*
X92711030Y-108035100D01*
X92711030Y-108035100D02*
X92796188Y-108182588D01*
X92796188Y-108182588D02*
X92796199Y-108520618D01*
%TO.N,Net-(D35-Pad2)*%
X113419582Y-104397954D02*
X112314827Y-108520966D01*
X112371188Y-108956617D02*
X113887960Y-110473392D01*
X112371193Y-108618588D02*
X112371188Y-108956617D01*
X112314827Y-108520966D02*
X112371193Y-108618588D01*
%TO.N,Net-(D36-Pad2)*%
X149220408Y-113704178D02*
X149257690Y-113741471D01*
X145773683Y-108497955D02*
X146934366Y-112829665D01*
X147062818Y-112903827D02*
X147863177Y-113704181D01*
X146934366Y-112829665D02*
X147062818Y-112903827D01*
X147863177Y-113704181D02*
X149220408Y-113704178D01*
%TO.N,Net-(D37-Pad2)*%
X166655543Y-112337514D02*
X166637867Y-112368136D01*
X166637868Y-112395422D02*
X167446629Y-113204186D01*
X165989085Y-109850260D02*
X166655543Y-112337514D01*
X166637870Y-112368126D02*
X166637868Y-112395422D01*
X168831159Y-113204180D02*
X168832749Y-113205770D01*
X167446629Y-113204186D02*
X168831159Y-113204180D01*
%TO.N,Net-(D38-Pad2)*%
X188740141Y-106385214D02*
X188722462Y-106415834D01*
X189346634Y-107104183D02*
X190768051Y-107104187D01*
X190768051Y-107104187D02*
X190917331Y-107253475D01*
X188073686Y-103897963D02*
X188740141Y-106385214D01*
X188722462Y-106480011D02*
X189346634Y-107104183D01*
X188722462Y-106415834D02*
X188722462Y-106480011D01*
%TO.N,Net-(D39-Pad2)*%
X-1835054Y-61209138D02*
X-318277Y-62725912D01*
X-1625860Y-60750337D02*
X-1835048Y-60871114D01*
X-714142Y-57347768D02*
X-1625860Y-60750337D01*
X-1835051Y-60871111D02*
X-1835054Y-61209138D01*
%TO.N,Net-(D40-Pad2)*%
X263373584Y-65904187D02*
X263463897Y-65994490D01*
X261269022Y-65156854D02*
X261548399Y-66199525D01*
X260629175Y-62606938D02*
X261298659Y-65105514D01*
X261298659Y-65105514D02*
X261269022Y-65156854D01*
X261722207Y-66299872D02*
X263364909Y-65859722D01*
X261548399Y-66199525D02*
X261722207Y-66299872D01*
X263364909Y-65859722D02*
X263518664Y-65948488D01*
%TO.N,led*%
X124846635Y-25904177D02*
X124846629Y-24404185D01*
X140596634Y-65666678D02*
X140596634Y-65603366D01*
X153282868Y-48708598D02*
X154287283Y-49713023D01*
X154287283Y-49713023D02*
X154287287Y-57604185D01*
X124846629Y-24404185D02*
X123146636Y-22704182D01*
X151896633Y-22754183D02*
X151846629Y-22704181D01*
X151896635Y-26004181D02*
X151896633Y-22754183D01*
X141800000Y-63300000D02*
X143396632Y-61703368D01*
X151896632Y-45072367D02*
X153282868Y-46458602D01*
X143396632Y-61703368D02*
X143396632Y-61279180D01*
X151896630Y-26004184D02*
X151896632Y-45072367D01*
X123146636Y-22704182D02*
X121296631Y-22704185D01*
X143396625Y-58129185D02*
X143921634Y-57604186D01*
X153282868Y-46458602D02*
X153282868Y-48708598D01*
X140596634Y-65603366D02*
X141800000Y-64400000D01*
X143396632Y-61279180D02*
X143396625Y-58129185D01*
X121296631Y-22704185D02*
X120596633Y-23404183D01*
X141800000Y-64400000D02*
X141800000Y-63300000D01*
%TO.N,Net-(D41-Pad2)*%
X-3278367Y-49329184D02*
X-3278361Y-48429627D01*
X2345990Y-91204385D02*
X2345994Y-91028542D01*
X-1078369Y-52104183D02*
X-1078367Y-50404183D01*
X96639Y-86654178D02*
X96627Y-82429182D01*
X971632Y-89654182D02*
X96632Y-88779182D01*
X2345994Y-91028542D02*
X971632Y-89654182D01*
X96627Y-82429182D02*
X696629Y-81829182D01*
X1496633Y-81029184D02*
X1496631Y-77104184D01*
X696629Y-81829182D02*
X1496633Y-81029184D01*
X-2378362Y-53404181D02*
X-1903367Y-52929183D01*
X-1903367Y-52929183D02*
X-1078369Y-52104183D01*
X-2353368Y-71779177D02*
X-2353367Y-64504183D01*
X-728368Y-73404183D02*
X-2353368Y-71779177D01*
X1496633Y-75629181D02*
X-728368Y-73404183D01*
X-3278361Y-48429627D02*
X-2652726Y-47803985D01*
X96632Y-88779182D02*
X96639Y-86654178D01*
X1496631Y-77104184D02*
X1496633Y-75629181D01*
X-2378368Y-56954179D02*
X-2378362Y-53404181D01*
%TO.N,Net-(D42-Pad2)*%
X20071832Y-113904382D02*
X18496631Y-112329180D01*
X-1978370Y-113954185D02*
X-1978365Y-111654181D01*
X-1803363Y-111479181D02*
X-1778369Y-111454183D01*
X-1778366Y-109129178D02*
X-1778373Y-93979185D01*
X-1203372Y-92404184D02*
X-878365Y-92079180D01*
X-2903361Y-88254624D02*
X-2652724Y-88003983D01*
X-1778369Y-92979189D02*
X-1203372Y-92404184D01*
X-878365Y-92079180D02*
X-878365Y-90854182D01*
X-1778369Y-111454183D02*
X-1778366Y-109129178D01*
X20845991Y-113904386D02*
X20071832Y-113904382D01*
X-2903364Y-89529189D02*
X-2903361Y-88254624D01*
X-1978365Y-111654181D02*
X-1803363Y-111479181D01*
X-1778373Y-93979185D02*
X-1778369Y-92979189D01*
%TO.N,Net-(D43-Pad2)*%
X18321633Y-110729183D02*
X15872471Y-110729180D01*
X54396837Y-113904377D02*
X52846639Y-112354180D01*
X55345990Y-113904385D02*
X54396837Y-113904377D01*
X15872471Y-110729180D02*
X15847273Y-110703982D01*
%TO.N,Net-(D44-Pad2)*%
X946630Y-107004183D02*
X2612840Y-107004186D01*
X771634Y-105784178D02*
X771630Y-106829176D01*
X771630Y-106829176D02*
X946630Y-107004183D01*
X246632Y-102854181D02*
X246632Y-105259178D01*
X2612840Y-107004186D02*
X2739734Y-107131079D01*
X246632Y-105259178D02*
X771631Y-105784185D01*
%TO.N,Net-(D45-Pad2)*%
X90245989Y-114004384D02*
X88620791Y-112379182D01*
X51896633Y-110679178D02*
X50372074Y-110679185D01*
X50372074Y-110679185D02*
X50347269Y-110703980D01*
X88620791Y-112379182D02*
X87771639Y-112379181D01*
%TO.N,Net-(D46-Pad2)*%
X140345989Y-114004383D02*
X138670794Y-112329181D01*
X87771630Y-110829182D02*
X85272468Y-110829183D01*
X85272468Y-110829183D02*
X85247270Y-110803985D01*
X138670794Y-112329181D02*
X137846632Y-112329184D01*
%TO.N,Net-(D47-Pad2)*%
X191845999Y-113904376D02*
X190871832Y-113904379D01*
X135372068Y-110779181D02*
X135347278Y-110803987D01*
X190871832Y-113904379D02*
X189421637Y-112454179D01*
X137046631Y-110779183D02*
X135372068Y-110779181D01*
%TO.N,Net-(D48-Pad2)*%
X225071832Y-113904385D02*
X223471627Y-112304184D01*
X226245992Y-113904386D02*
X225071832Y-113904385D01*
X189271434Y-110703989D02*
X186847272Y-110703984D01*
X189396629Y-110829183D02*
X189271434Y-110703989D01*
%TO.N,Net-(D49-Pad2)*%
X258145998Y-114004377D02*
X258145992Y-112654818D01*
X222996631Y-110704181D02*
X221247472Y-110704182D01*
X258145992Y-112654818D02*
X258146630Y-112654178D01*
X221247472Y-110704182D02*
X221247272Y-110703986D01*
%TO.N,Net-(D50-Pad2)*%
X255671834Y-110803981D02*
X253147270Y-110803984D01*
X277221632Y-101854187D02*
X277421633Y-102054184D01*
X277421633Y-102054184D02*
X277421633Y-110779181D01*
X276945994Y-91204381D02*
X276945993Y-101578540D01*
X276945993Y-101578540D02*
X277221632Y-101854187D01*
X255696636Y-110779182D02*
X255671834Y-110803981D01*
%TO.N,Net-(D51-Pad2)*%
X257261628Y-106214181D02*
X257261636Y-107219182D01*
X257197143Y-103395577D02*
X257197141Y-106149695D01*
X257261636Y-107219182D02*
X257546634Y-107504183D01*
X257546634Y-107504183D02*
X259172830Y-107504181D01*
X257197141Y-106149695D02*
X257261633Y-106214177D01*
X259172830Y-107504181D02*
X259229733Y-107561084D01*
%TO.N,Net-(D52-Pad2)*%
X276721631Y-65004181D02*
X276721633Y-72404185D01*
X276845991Y-51004386D02*
X276845996Y-54879823D01*
X276721633Y-72404185D02*
X271947272Y-77178541D01*
X271947272Y-77178541D02*
X271947272Y-88003983D01*
X276845996Y-54879823D02*
X276746633Y-54979185D01*
%TO.N,Net-(D53-Pad2)*%
X258307870Y-24233597D02*
X272832861Y-24233603D01*
X271847273Y-46553540D02*
X271847274Y-47803980D01*
X255137086Y-27404390D02*
X258307870Y-24233597D01*
X273896637Y-44504182D02*
X271847273Y-46553540D01*
X255045994Y-27404388D02*
X255137086Y-27404390D01*
X272832861Y-24233603D02*
X273896641Y-25297368D01*
X273896641Y-25297368D02*
X273896637Y-44504182D01*
%TO.N,Net-(D54-Pad2)*%
X205937488Y-24203978D02*
X250047276Y-24203981D01*
X203345993Y-27504383D02*
X203345990Y-26795481D01*
X203345990Y-26795481D02*
X205937488Y-24203978D01*
%TO.N,Net-(D55-Pad2)*%
X198347268Y-24303980D02*
X168046398Y-24303981D01*
X168046398Y-24303981D02*
X164645990Y-27704393D01*
%TO.N,Net-(D70-Pad2)*%
X77596633Y-26304183D02*
X77596630Y-24254185D01*
X77596630Y-24254185D02*
X77946635Y-23904180D01*
X109246629Y-23904181D02*
X110247469Y-23904185D01*
X76196430Y-27704386D02*
X77596633Y-26304183D01*
X75846001Y-27704386D02*
X76196430Y-27704386D01*
X110247469Y-23904185D02*
X110847273Y-24503982D01*
%TO.N,Net-(D77-Pad2)*%
X33096634Y-23954187D02*
X33146632Y-23904179D01*
X69446634Y-23904181D02*
X70247480Y-23904182D01*
X33096632Y-25453741D02*
X33096634Y-23954187D01*
X70247480Y-23904182D02*
X70847273Y-24503981D01*
X30845988Y-27704387D02*
X33096632Y-25453741D01*
%TO.N,RESET*%
X10517566Y-73529880D02*
X10539685Y-73507761D01*
X62771635Y-34151793D02*
X63743234Y-35834645D01*
X55196378Y-64034496D02*
X54776252Y-64277054D01*
X54776252Y-64277054D02*
X52995340Y-70923509D01*
X152882869Y-31383604D02*
X152882869Y-44558599D01*
X20705932Y-73244882D02*
X20696631Y-73254183D01*
X9010381Y-73529885D02*
X10517566Y-73529880D01*
X58836881Y-54242006D02*
X58597465Y-55135484D01*
X152637284Y-60829184D02*
X152637283Y-61704184D01*
X52995340Y-70923509D02*
X53949930Y-72576919D01*
X64089686Y-29232762D02*
X62771635Y-34151793D01*
X8626633Y-76704184D02*
X8626632Y-75495819D01*
X152882869Y-44558599D02*
X154132867Y-45808606D01*
X22532713Y-73244881D02*
X20705932Y-73244882D01*
X63743234Y-35834645D02*
X62902071Y-38973900D01*
X53949930Y-72576919D02*
X53141122Y-75595433D01*
X154132867Y-45808606D02*
X154132861Y-48208604D01*
X155207864Y-58258606D02*
X152637284Y-60829184D01*
X62902071Y-38973900D02*
X62565262Y-39168357D01*
X53141122Y-75595433D02*
X52191947Y-76143443D01*
X58086304Y-57043191D02*
X56463510Y-57980100D01*
X138096630Y-62103370D02*
X138300000Y-61900000D01*
X20550208Y-73107765D02*
X20696631Y-73254183D01*
X18839685Y-73107759D02*
X20550208Y-73107765D01*
X8626632Y-75495819D02*
X9010375Y-75112060D01*
X55274474Y-62417653D02*
X55517042Y-62837781D01*
X138096630Y-62879182D02*
X138096630Y-62103370D01*
X154132861Y-48208604D02*
X155207869Y-49283600D01*
X9010375Y-75112060D02*
X9010381Y-73529885D01*
X55517042Y-62837781D02*
X55196378Y-64034496D01*
X61371135Y-39857791D02*
X57935312Y-52680449D01*
X57935312Y-52680449D02*
X58836881Y-54242006D01*
X52191947Y-76143443D02*
X51363728Y-79234403D01*
X58597465Y-55135484D02*
X58086304Y-57043191D01*
X155207869Y-49283600D02*
X155207864Y-58258606D01*
X62565262Y-39168357D02*
X61371135Y-39857791D01*
X138096632Y-65666679D02*
X138096630Y-62879182D01*
X56463510Y-57980100D02*
X55274474Y-62417653D01*
%TO.N,col0*%
X16506348Y-47632922D02*
X18691118Y-45448152D01*
X203218056Y-77340976D02*
X203340533Y-77411682D01*
X127375748Y-64175065D02*
X127371632Y-64179180D01*
X199270139Y-61834397D02*
X198563031Y-63059143D01*
X199063083Y-61061656D02*
X199270139Y-61834397D01*
X11588789Y-65985509D02*
X13773559Y-63800744D01*
X127375754Y-63282002D02*
X127375748Y-64175065D01*
X16261402Y-54515988D02*
X18691117Y-45448157D01*
X8751988Y-65985509D02*
X11588789Y-65985509D01*
X11589685Y-90332761D02*
X11589684Y-71507756D01*
X13669549Y-47632918D02*
X16506348Y-47632922D01*
X10514680Y-70432764D02*
X10514681Y-67748202D01*
X198545445Y-59129802D02*
X199063083Y-61061656D01*
X198350900Y-63426565D02*
X199334412Y-67097082D01*
X203744489Y-81237493D02*
X210422021Y-106158379D01*
X203340533Y-77411682D02*
X203547588Y-78184424D01*
X127371632Y-64179180D02*
X127371630Y-66129182D01*
X10514681Y-67748202D02*
X8751995Y-65985511D01*
X132846633Y-67104183D02*
X133096635Y-67354182D01*
X11589684Y-71507756D02*
X10514680Y-70432764D01*
X16606629Y-104574184D02*
X16606632Y-95349713D01*
X203547588Y-78184424D02*
X204168752Y-80502646D01*
X236213238Y-95583115D02*
X234790132Y-94761480D01*
X12321636Y-107984178D02*
X13196628Y-107984185D01*
X197075749Y-58281276D02*
X198055546Y-58846963D01*
X204168752Y-80502646D02*
X203744489Y-81237493D01*
X132746636Y-67004179D02*
X132846633Y-67104183D01*
X18691117Y-45448157D02*
X18691118Y-45448152D01*
X194021686Y-46883353D02*
X197075749Y-58281276D01*
X198563031Y-63059143D02*
X198350900Y-63426565D01*
X201870837Y-76563155D02*
X203218056Y-77340976D01*
X198055546Y-58846963D02*
X198545445Y-59129802D01*
X16606632Y-95349713D02*
X11589685Y-90332761D01*
X13773559Y-63800744D02*
X16261402Y-54515988D01*
X128246634Y-67004184D02*
X132746636Y-67004179D01*
X133096635Y-67354182D02*
X134409137Y-67354176D01*
X127371630Y-66129182D02*
X128246634Y-67004184D01*
X199334412Y-67097082D02*
X201870837Y-76563155D01*
X13196628Y-107984185D02*
X16606633Y-104574185D01*
X237403362Y-100024700D02*
X236213238Y-95583115D01*
X127368786Y-63275040D02*
X127375754Y-63282002D01*
X127368788Y-53894129D02*
X127368786Y-63275040D01*
%TO.N,col1*%
X39821370Y-43863052D02*
X40396821Y-41715441D01*
X27801478Y-82753005D02*
X29986242Y-80568232D01*
X34903815Y-62215645D02*
X29986248Y-80568230D01*
X149879335Y-95809863D02*
X149879335Y-98909864D01*
X149879335Y-98909864D02*
X150720292Y-102048354D01*
X32719041Y-64400410D02*
X34903808Y-62215641D01*
X149579335Y-94009866D02*
X149879336Y-94309863D01*
X39483694Y-99217921D02*
X37007447Y-98554418D01*
X149179336Y-89863699D02*
X149179334Y-92509866D01*
X149879336Y-94309863D02*
X149879335Y-95809863D01*
X29882244Y-64400411D02*
X32719041Y-64400410D01*
X149179334Y-92509866D02*
X149179336Y-93309862D01*
X132646629Y-67704179D02*
X132446632Y-67504181D01*
X127821639Y-67504177D02*
X127721635Y-67504176D01*
X132446632Y-67504181D02*
X130546638Y-67504186D01*
X42716820Y-87095012D02*
X42673560Y-87119986D01*
X37007447Y-98554418D02*
X35306494Y-95608274D01*
X39821373Y-43863053D02*
X34903815Y-62215645D01*
X149179336Y-93309862D02*
X149179332Y-93609863D01*
X132796628Y-67854179D02*
X132646629Y-67704179D01*
X126418937Y-61432846D02*
X126418939Y-51357839D01*
X144744893Y-85429257D02*
X149179336Y-89863699D01*
X150720292Y-102048354D02*
X150726064Y-102051686D01*
X40396821Y-41715441D02*
X40389791Y-41703261D01*
X126418934Y-66201487D02*
X127721635Y-67504176D01*
X42673560Y-87119986D02*
X41920056Y-89932100D01*
X37636604Y-46047818D02*
X39821373Y-43863053D01*
X130546638Y-67504186D02*
X127821639Y-67504177D01*
X126418937Y-61432846D02*
X126418934Y-66201487D01*
X34799808Y-46047820D02*
X37636604Y-46047818D01*
X29986242Y-80568232D02*
X28425357Y-86393533D01*
X35306494Y-95608274D02*
X37168561Y-88658938D01*
X29986248Y-80568230D02*
X29986242Y-80568232D01*
X24964677Y-82753001D02*
X27801478Y-82753005D01*
X149179332Y-93609863D02*
X149579335Y-94009866D01*
X134409133Y-67854183D02*
X132796628Y-67854179D01*
%TO.N,col2*%
X209068021Y-36390133D02*
X208700597Y-36177999D01*
X212663746Y-48264085D02*
X212173848Y-47981242D01*
X203704727Y-101148660D02*
X199771717Y-86470470D01*
X203704723Y-102295091D02*
X203704726Y-101148665D01*
X215547665Y-73991432D02*
X218804090Y-70735007D01*
X134409135Y-69854181D02*
X130796632Y-69854180D01*
X51470066Y-57243901D02*
X54306866Y-57243899D01*
X56491636Y-55059135D02*
X61409194Y-36706552D01*
X216385960Y-77119986D02*
X215547666Y-73991431D01*
X109473561Y-81410608D02*
X111149413Y-75156237D01*
X112953228Y-70812202D02*
X112475936Y-69985500D01*
X211345629Y-44890278D02*
X209068021Y-36390133D01*
X117429483Y-56081778D02*
X118341822Y-52676891D01*
X200448303Y-105551502D02*
X203704723Y-102295091D01*
X112475936Y-69985500D02*
X112482403Y-69961356D01*
X210630109Y-55638843D02*
X213886521Y-52382426D01*
X54398383Y-62871265D02*
X56491636Y-55059135D01*
X213886523Y-51236000D02*
X213168248Y-48555362D01*
X213886521Y-52382426D02*
X213886527Y-51235999D01*
X112668406Y-73324077D02*
X113218393Y-71271483D01*
X112212935Y-74444367D02*
X112396649Y-74338301D01*
X61409194Y-36706552D02*
X61409195Y-36706553D01*
X56387626Y-38891319D02*
X59224430Y-38891318D01*
X218804090Y-70735007D02*
X218804089Y-69588586D01*
X113218393Y-71271483D02*
X112953228Y-70812202D01*
X212173848Y-47981242D02*
X211345629Y-44890278D01*
X49389303Y-75596497D02*
X51574074Y-73411728D01*
X199771717Y-86470470D02*
X199760417Y-86463946D01*
X111180429Y-75040486D02*
X112212935Y-74444367D01*
X130796632Y-69854180D02*
X130546625Y-70104185D01*
X54306866Y-57243899D02*
X56491636Y-55059135D01*
X216413595Y-77135941D02*
X216385960Y-77119986D01*
X112482403Y-69961356D02*
X115976673Y-56920561D01*
X112396649Y-74338301D02*
X112668406Y-73324077D01*
X46552502Y-75596499D02*
X49389303Y-75596497D01*
X59224430Y-38891318D02*
X61409195Y-36706553D01*
X213886525Y-51235998D02*
X218804085Y-69588583D01*
X130546625Y-70104185D02*
X129346631Y-71304178D01*
X111149413Y-75156237D02*
X111180429Y-75040486D01*
X129346631Y-71304178D02*
X129146633Y-71304182D01*
X51574074Y-73411728D02*
X54398383Y-62871265D01*
X117551770Y-51308474D02*
X118218784Y-48819131D01*
X213168248Y-48555362D02*
X212663746Y-48264085D01*
X118341822Y-52676891D02*
X117551770Y-51308474D01*
X115976673Y-56920561D02*
X117429483Y-56081778D01*
%TO.N,col3*%
X67528205Y-89350659D02*
X67149320Y-88694422D01*
X208968960Y-32883410D02*
X208968958Y-26636425D01*
X112061900Y-75518471D02*
X111984258Y-75808252D01*
X70049067Y-61316503D02*
X71116758Y-57331828D01*
X118452188Y-51649240D02*
X118979293Y-52562215D01*
X113240793Y-74837838D02*
X112061900Y-75518471D01*
X212808259Y-47211867D02*
X215181284Y-48581934D01*
X81055880Y-36794471D02*
X76138316Y-55147058D01*
X81298233Y-107244988D02*
X84135032Y-107244986D01*
X78871115Y-38979240D02*
X81055880Y-36794471D01*
X113243824Y-69427433D02*
X114231927Y-71138878D01*
X215631928Y-53741090D02*
X218841279Y-65718574D01*
X238450774Y-70647081D02*
X238450772Y-69500656D01*
X114231927Y-71138878D02*
X113868790Y-72494127D01*
X84135032Y-107244986D02*
X86319796Y-105060224D01*
X71769001Y-71453592D02*
X71768990Y-71453598D01*
X69035985Y-75684417D02*
X71220754Y-73499648D01*
X134778311Y-34827074D02*
X134778311Y-46227072D01*
X86319804Y-105060224D02*
X88983936Y-95117541D01*
X119893789Y-46269127D02*
X118452188Y-51649240D01*
X215181284Y-48581934D02*
X216268324Y-52638822D01*
X131696638Y-70354182D02*
X130046632Y-72004177D01*
X155278309Y-26727074D02*
X155278310Y-34827073D01*
X118979293Y-52562215D02*
X117911664Y-56546660D01*
X88983936Y-95117541D02*
X88971753Y-95096442D01*
X73953554Y-57331828D02*
X76138310Y-55147057D01*
X235194351Y-73903500D02*
X238450774Y-70647081D01*
X71768990Y-71453598D02*
X71220752Y-73499650D01*
X70035083Y-61324576D02*
X70049067Y-61316503D01*
X71116754Y-57331826D02*
X73953554Y-57331828D01*
X117911664Y-56546660D02*
X116472593Y-57377505D01*
X76138316Y-55147058D02*
X76138310Y-55147057D01*
X236207817Y-61129859D02*
X236131354Y-61085710D01*
X208968958Y-32883411D02*
X212808259Y-47211867D01*
X116472593Y-57377505D02*
X113243824Y-69427433D01*
X208968958Y-26636425D02*
X208978312Y-26627073D01*
X67149320Y-88694422D02*
X71220754Y-73499648D01*
X76034314Y-38979235D02*
X78871115Y-38979240D01*
X205712539Y-37286256D02*
X208968959Y-34029838D01*
X238450769Y-69500655D02*
X236207817Y-61129859D01*
X113868790Y-72494127D02*
X113240793Y-74837838D01*
X66199187Y-75684415D02*
X69035985Y-75684417D01*
X216268324Y-52638822D02*
X215631928Y-53741090D01*
X208968959Y-34029838D02*
X208968959Y-32883408D01*
X134409137Y-70354179D02*
X131696638Y-70354182D01*
X76138323Y-55147060D02*
X71769001Y-71453592D01*
%TO.N,col4*%
X93196818Y-64894253D02*
X98114377Y-46541674D01*
X86017141Y-93373005D02*
X85708974Y-92839251D01*
X95929610Y-48726440D02*
X98114376Y-46541669D01*
X233533207Y-52294493D02*
X233533211Y-51148065D01*
X119984512Y-52288038D02*
X119544514Y-53930114D01*
X116081759Y-69074933D02*
X117331326Y-71239248D01*
X131046632Y-72404180D02*
X130746634Y-72704183D01*
X91012053Y-67079027D02*
X93196818Y-64894253D01*
X108404795Y-111112227D02*
X111076932Y-101139666D01*
X130446635Y-73004180D02*
X129146634Y-73004184D01*
X132196629Y-70854183D02*
X131346632Y-71704180D01*
X228615647Y-33941906D02*
X228615649Y-32795473D01*
X131046636Y-72204179D02*
X131046632Y-72404180D01*
X86094480Y-85431617D02*
X88279251Y-83246847D01*
X130746634Y-72704183D02*
X130446635Y-73004180D01*
X120317817Y-57709020D02*
X118266363Y-58893427D01*
X227690314Y-25139074D02*
X227678312Y-25127074D01*
X100069571Y-39244782D02*
X98114375Y-46541668D01*
X228615647Y-32795479D02*
X227690313Y-29342092D01*
X100039936Y-39193456D02*
X100069571Y-39244782D01*
X93196812Y-64894264D02*
X93196818Y-64894253D01*
X134409130Y-70854174D02*
X132196629Y-70854183D01*
X233533209Y-51148076D02*
X228615648Y-32795479D01*
X88175249Y-67079022D02*
X91012053Y-67079027D01*
X117205202Y-62853721D02*
X118000702Y-64231559D01*
X88279251Y-83246843D02*
X91984884Y-69417239D01*
X132478310Y-27227074D02*
X132478307Y-43727074D01*
X106220037Y-113296995D02*
X108404795Y-111112227D01*
X119579171Y-51585983D02*
X119984512Y-52288038D01*
X83257687Y-85431616D02*
X86094480Y-85431617D01*
X117007039Y-65621745D02*
X116081759Y-69074933D01*
X131346632Y-71704180D02*
X131046630Y-72004182D01*
X230276788Y-55550916D02*
X233533207Y-52294493D01*
X117331326Y-71239248D02*
X116744133Y-73430684D01*
X117741885Y-65197481D02*
X117007039Y-65621745D01*
X118266363Y-58893427D02*
X117205202Y-62853721D01*
X93092816Y-48726431D02*
X95929610Y-48726440D01*
X120764273Y-56042799D02*
X120317817Y-57709020D01*
X98114377Y-46541674D02*
X98114376Y-46541669D01*
X131046630Y-72004182D02*
X131046636Y-72204179D01*
X111076932Y-101139666D02*
X111065573Y-101119988D01*
X119544514Y-53930114D02*
X120764273Y-56042799D01*
X225359230Y-37198320D02*
X228615647Y-33941906D01*
X118000702Y-64231559D02*
X117741885Y-65197481D01*
X85708974Y-92839251D02*
X88279251Y-83246843D01*
X227690313Y-29342092D02*
X227690314Y-25139074D01*
X103383236Y-113296992D02*
X106220037Y-113296995D01*
X121693790Y-43694129D02*
X119579171Y-51585983D01*
X91984884Y-69417239D02*
X93196812Y-64894264D01*
%TO.N,col5*%
X130446636Y-73804181D02*
X130046637Y-73804184D01*
X105880793Y-74411399D02*
X108717590Y-74411406D01*
X130570133Y-101683610D02*
X130606251Y-101746168D01*
X122958240Y-113732992D02*
X125795029Y-113732994D01*
X246878311Y-30227074D02*
X246878312Y-25227075D01*
X115819916Y-53874043D02*
X117002526Y-49460526D01*
X246947057Y-44354837D02*
X250203471Y-41098416D01*
X130606251Y-101746168D02*
X127979797Y-111548226D01*
X248478312Y-31827074D02*
X246878311Y-30227074D01*
X103738329Y-98204263D02*
X103978889Y-98065376D01*
X250203469Y-33552234D02*
X248478312Y-31827074D01*
X133678310Y-29727075D02*
X133678311Y-41127077D01*
X250203472Y-39951989D02*
X252172840Y-47301759D01*
X250203472Y-39951989D02*
X250203469Y-33552234D01*
X251864611Y-62707423D02*
X255121034Y-59450998D01*
X251138742Y-49092868D02*
X251785792Y-51507681D01*
X255121034Y-59450998D02*
X255121032Y-58304580D01*
X250203471Y-41098416D02*
X250203472Y-39951989D01*
X117002521Y-41405239D02*
X117025752Y-41382003D01*
X134409130Y-71354180D02*
X132496639Y-71354181D01*
X131946640Y-71904181D02*
X131646626Y-72204179D01*
X108717590Y-74411406D02*
X110902362Y-72226634D01*
X117002526Y-49460526D02*
X117002521Y-41405239D01*
X251785792Y-51507681D02*
X252398161Y-51861239D01*
X131646629Y-72604180D02*
X130846634Y-73404183D01*
X110902360Y-72226630D02*
X110902362Y-72226634D01*
X252812275Y-53406718D02*
X253991010Y-54087261D01*
X130846634Y-73404183D02*
X130446636Y-73804181D01*
X110340870Y-74322122D02*
X105984794Y-90579220D01*
X252172840Y-47301759D02*
X251138742Y-49092868D01*
X125795029Y-113732994D02*
X127979799Y-111548222D01*
X110798359Y-56058804D02*
X113635156Y-56058803D01*
X253991010Y-54087261D02*
X255121037Y-58304579D01*
X103800033Y-92763990D02*
X105984802Y-90579218D01*
X100963234Y-92763984D02*
X103800033Y-92763990D01*
X115819916Y-53874043D02*
X110902360Y-72226630D01*
X113635156Y-56058803D02*
X115819916Y-53874043D01*
X103978889Y-98065376D02*
X105984799Y-90579218D01*
X131646633Y-72504179D02*
X131646629Y-72604180D01*
X132496639Y-71354181D02*
X131946640Y-71904181D01*
X110902362Y-72226634D02*
X110340870Y-74322122D01*
X131646626Y-72204179D02*
X131646633Y-72504179D01*
X252398161Y-51861239D02*
X252812275Y-53406718D01*
%TO.N,col6*%
X273096631Y-95054514D02*
X273096633Y-105004179D01*
X269686637Y-108414175D02*
X273096631Y-105004181D01*
X184040050Y-87814581D02*
X184040045Y-86668155D01*
X147768790Y-57644126D02*
X149043789Y-56369126D01*
X273027800Y-94985680D02*
X273096631Y-95054514D01*
X260038603Y-76657170D02*
X261904439Y-83620567D01*
X147268787Y-63694130D02*
X147468789Y-63494127D01*
X260038603Y-76657170D02*
X257608038Y-67586197D01*
X147468792Y-61569125D02*
X147468792Y-60719123D01*
X149043789Y-56369126D02*
X149343784Y-56069127D01*
X149343784Y-56069127D02*
X149343789Y-51319122D01*
X162045084Y-108783086D02*
X162045091Y-107636659D01*
X256782183Y-81060013D02*
X260038606Y-77803596D01*
X184825281Y-89598696D02*
X184040045Y-86668158D01*
X147468789Y-63494127D02*
X147468792Y-61569125D01*
X162045079Y-107636658D02*
X159669195Y-98769739D01*
X174204928Y-49962982D02*
X172759598Y-44568936D01*
X159669195Y-98769739D02*
X159959193Y-98267456D01*
X145318789Y-65644126D02*
X147268787Y-63694130D01*
X170948509Y-54365824D02*
X174204928Y-51109406D01*
X184871288Y-89625254D02*
X184825281Y-89598696D01*
X145093789Y-66144125D02*
X145318789Y-65919125D01*
X142996630Y-68354183D02*
X144546635Y-66804180D01*
X181751331Y-94682516D02*
X180783628Y-91071007D01*
X268811629Y-108414182D02*
X269686637Y-108414175D01*
X181778962Y-94698473D02*
X181751331Y-94682516D01*
X147693787Y-60494126D02*
X147768788Y-60419126D01*
X261904439Y-94962319D02*
X261927799Y-94985678D01*
X144646634Y-66704184D02*
X144646628Y-66591278D01*
X141284132Y-68354186D02*
X142996630Y-68354183D01*
X180783630Y-91071003D02*
X184040050Y-87814581D01*
X179122487Y-68315576D02*
X179122492Y-68315568D01*
X174204932Y-49962984D02*
X174204925Y-49962983D01*
X158788661Y-112039508D02*
X162045084Y-108783086D01*
X174204928Y-51109406D02*
X174204927Y-49962977D01*
X260038606Y-77803596D02*
X260038600Y-76657173D01*
X184040045Y-86668158D02*
X179122487Y-68315576D01*
X261904439Y-83620567D02*
X261904439Y-94962319D01*
X144546635Y-66804180D02*
X144646634Y-66704184D01*
X257608038Y-67586197D02*
X257634598Y-67540191D01*
X172759598Y-44568936D02*
X172684382Y-44525510D01*
X147768788Y-60419126D02*
X147768787Y-58794128D01*
X145318789Y-65919125D02*
X145318789Y-65644126D01*
X147468792Y-60719123D02*
X147693787Y-60494126D01*
X147768787Y-58794128D02*
X147768790Y-57644126D01*
X175866070Y-72718418D02*
X179122487Y-69461992D01*
X144646628Y-66591278D02*
X145093789Y-66144125D01*
X179122492Y-68315568D02*
X174204932Y-49962984D01*
X179122487Y-69461992D02*
X179122492Y-68315572D01*
%TO.N,col7*%
X144493784Y-65269127D02*
X146593784Y-63169126D01*
X146718789Y-60119129D02*
X146893782Y-59944124D01*
X272919757Y-56197617D02*
X274175462Y-55861149D01*
X271333721Y-42683507D02*
X271333718Y-41537086D01*
X144493789Y-65644123D02*
X144493784Y-65269127D01*
X272994862Y-64292533D02*
X276251281Y-61036112D01*
X201745589Y-79335781D02*
X201745596Y-79335790D01*
X178831267Y-96692770D02*
X178876112Y-96615096D01*
X146593788Y-60244123D02*
X146718789Y-60119129D01*
X268077305Y-45939931D02*
X271333721Y-42683507D01*
X181620132Y-108247391D02*
X181620134Y-107100961D01*
X202448462Y-81958929D02*
X201745594Y-79335788D01*
X193571605Y-65386040D02*
X196828027Y-62129622D01*
X203108090Y-82339763D02*
X202448462Y-81958929D01*
X196828034Y-60983185D02*
X196828028Y-60983197D01*
X142696634Y-67854183D02*
X143446633Y-67104175D01*
X191910475Y-42630604D02*
X196828034Y-60983185D01*
X275354189Y-56541689D02*
X276251284Y-59889691D01*
X204609244Y-87942133D02*
X203108090Y-82339763D01*
X198489170Y-83738626D02*
X201745597Y-80482209D01*
X200029884Y-90946958D02*
X198222288Y-84200904D01*
X141284134Y-67854181D02*
X142696634Y-67854183D01*
X273595496Y-66534122D02*
X273624395Y-66550807D01*
X148293789Y-55769129D02*
X148293787Y-48794126D01*
X147568789Y-56494123D02*
X148293789Y-55769129D01*
X276251281Y-61036112D02*
X276251283Y-59889680D01*
X268077301Y-45939932D02*
X270442622Y-54767444D01*
X196828027Y-62129622D02*
X196828026Y-60983195D01*
X144318790Y-65819126D02*
X144493789Y-65644123D01*
X146893782Y-59944124D02*
X146893787Y-57994128D01*
X270442622Y-54767444D02*
X272919757Y-56197617D01*
X146893787Y-57169124D02*
X147568789Y-56494123D01*
X201745597Y-80482209D02*
X201745596Y-79335776D01*
X188654056Y-47033448D02*
X191910469Y-43777025D01*
X190467568Y-37482912D02*
X190542789Y-37526339D01*
X144046631Y-66504177D02*
X144046628Y-66091282D01*
X146593789Y-61894126D02*
X146593788Y-60244123D01*
X144046628Y-66091282D02*
X144318790Y-65819126D01*
X191910469Y-43777025D02*
X191910473Y-42630599D01*
X181620136Y-107100960D02*
X178831267Y-96692770D01*
X146593784Y-63169126D02*
X146593789Y-61894126D01*
X272994861Y-64292534D02*
X273595496Y-66534122D01*
X146893787Y-57994128D02*
X146893787Y-57169124D01*
X196828028Y-60983197D02*
X201745589Y-79335781D01*
X274175462Y-55861149D02*
X275354189Y-56541689D01*
X143446633Y-67104175D02*
X144046631Y-66504177D01*
X178363720Y-111503805D02*
X181620132Y-108247391D01*
X198222288Y-84200904D02*
X198489176Y-83738637D01*
X190542789Y-37526339D02*
X191910473Y-42630603D01*
%TO.N,sda*%
X83524002Y-39574656D02*
X84103557Y-39729946D01*
X77956174Y-57649479D02*
X78825507Y-57882417D01*
X131946633Y-68704177D02*
X129046635Y-68704181D01*
X116802328Y-91598258D02*
X118463674Y-90639080D01*
X76241531Y-58639429D02*
X77466276Y-57932322D01*
X79501655Y-58063590D02*
X80481451Y-57497904D01*
X81280572Y-51810954D02*
X79017830Y-47891770D01*
X129471714Y-80429262D02*
X130244900Y-80429263D01*
X86185624Y-38527864D02*
X87557364Y-33408459D01*
X80286043Y-43158735D02*
X81010737Y-40454141D01*
X80603926Y-57427194D02*
X81147445Y-55398750D01*
X84103557Y-39729946D02*
X85083353Y-39164262D01*
X115246636Y-97404181D02*
X116802328Y-91598258D01*
X129046635Y-68704181D02*
X128246630Y-69504186D01*
X93806017Y-81566681D02*
X94453065Y-79151865D01*
X136096636Y-107072176D02*
X136096634Y-100354182D01*
X128246630Y-69504186D02*
X128246631Y-79204180D01*
X128246631Y-79204180D02*
X129471714Y-80429262D01*
X81846257Y-52790750D02*
X81280572Y-51810954D01*
X136096634Y-100354182D02*
X136146629Y-100304178D01*
X79017830Y-47891770D02*
X80286043Y-43158735D01*
X132096634Y-68854179D02*
X131946633Y-68704177D01*
X74386328Y-69426839D02*
X75783952Y-64210840D01*
X126282462Y-38362814D02*
X126282461Y-35962814D01*
X78825507Y-57882417D02*
X79501655Y-58063590D01*
X77466276Y-57932322D02*
X77956174Y-57649479D01*
X75783952Y-64210840D02*
X75501110Y-63720942D01*
X118463674Y-90639080D02*
X120938543Y-81402730D01*
X134409132Y-68854181D02*
X132096634Y-68854179D01*
X81147445Y-55398750D02*
X81846257Y-52790750D01*
X82847854Y-39393481D02*
X83524002Y-39574656D01*
X81990533Y-39888456D02*
X82847854Y-39393481D01*
X85083353Y-39164262D02*
X86185624Y-38527864D01*
X75501110Y-63720942D02*
X75076844Y-62986095D01*
X80481451Y-57497904D02*
X80603926Y-57427194D01*
X120938543Y-81402730D02*
X119841105Y-79501910D01*
X81010737Y-40454141D02*
X81990533Y-39888456D01*
X125859126Y-80904183D02*
X125859131Y-79116679D01*
X75076844Y-62986095D02*
X75361545Y-61923577D01*
X125859131Y-79116679D02*
X125846629Y-79104177D01*
X75361545Y-61923577D02*
X76241531Y-58639429D01*
%TO.N,scl*%
X82009844Y-56043939D02*
X82863946Y-52856385D01*
X134409138Y-69354184D02*
X131896626Y-69354178D01*
X129746632Y-69204183D02*
X129146631Y-69804182D01*
X77263302Y-71440053D02*
X78220932Y-67866129D01*
X135946633Y-85379179D02*
X135946631Y-79654185D01*
X127346634Y-83804189D02*
X128971712Y-85429261D01*
X82863946Y-52856385D02*
X81732576Y-50896792D01*
X125859132Y-83916684D02*
X125846636Y-83904179D01*
X117195968Y-83102989D02*
X119183704Y-81955357D01*
X114246630Y-98304180D02*
X114365650Y-97860001D01*
X127346633Y-72026987D02*
X127682462Y-72362814D01*
X81732576Y-50896792D02*
X80671915Y-49059676D01*
X76435081Y-74531016D02*
X77263302Y-71440053D01*
X136596635Y-101654185D02*
X137146633Y-101104177D01*
X78220932Y-67866129D02*
X80425473Y-66593336D01*
X125859139Y-85804188D02*
X125859132Y-83916684D01*
X127346633Y-78398643D02*
X127346634Y-83804189D01*
X114216784Y-97602163D02*
X115924992Y-91227047D01*
X115306272Y-90155399D02*
X117195968Y-83102989D01*
X131746631Y-69204181D02*
X129746632Y-69204183D01*
X114365650Y-97860001D02*
X114216784Y-97602163D01*
X80671915Y-49059676D02*
X81577781Y-45678934D01*
X128971712Y-85429261D02*
X130244891Y-85429263D01*
X127682461Y-78062814D02*
X127346633Y-78398643D01*
X127682462Y-72362814D02*
X127682461Y-78062814D01*
X131896626Y-69354178D02*
X131746631Y-69204181D01*
X129146631Y-69804182D02*
X129146637Y-70204177D01*
X135896560Y-85429258D02*
X135946633Y-85379179D01*
X115924992Y-91227047D02*
X115306272Y-90155399D01*
X136596637Y-107072182D02*
X136596635Y-101654185D01*
X127346633Y-70604182D02*
X127346633Y-72026987D01*
%TO.N,3.3V*%
X117216633Y-36034177D02*
X117146633Y-36104182D01*
X124293192Y-36202531D02*
X124293189Y-53907521D01*
X124146634Y-98604182D02*
X124146636Y-96854190D01*
X124746630Y-93004181D02*
X130771635Y-93004186D01*
X122546632Y-64604182D02*
X121996632Y-65154182D01*
X122152137Y-76055568D02*
X122152141Y-77559692D01*
X122377141Y-72959684D02*
X122377136Y-75830569D01*
X117216633Y-34004185D02*
X117216633Y-36034177D01*
X135096627Y-99754180D02*
X135046636Y-99704184D01*
X123946634Y-92204180D02*
X123946630Y-96654183D01*
X124034134Y-85804176D02*
X123946632Y-85891681D01*
X122546635Y-60425763D02*
X122546632Y-64604182D01*
X124146636Y-96854190D02*
X123946630Y-96654183D01*
X124034134Y-79441686D02*
X124034134Y-85804176D01*
X123946634Y-88023715D02*
X123946634Y-92204180D01*
X135096630Y-107072183D02*
X135096627Y-99754180D01*
X123946632Y-85891681D02*
X123946634Y-88023715D01*
X122152141Y-77559692D02*
X124034134Y-79441686D01*
X123946634Y-92204180D02*
X124746630Y-93004181D01*
X119671634Y-67479186D02*
X119671636Y-70254179D01*
X124284107Y-36193448D02*
X124293192Y-36202531D01*
X122377136Y-75830569D02*
X122152137Y-76055568D01*
X124293189Y-53907521D02*
X122546635Y-60425763D01*
X121996632Y-65154182D02*
X119671634Y-67479186D01*
X119671636Y-70254179D02*
X122377141Y-72959684D01*
%TO.N,Net-(D81-Pad2)*%
X39965977Y-97224838D02*
X40001337Y-97286073D01*
X37533637Y-95522727D02*
X38286407Y-96826563D01*
X37571280Y-95382253D02*
X37533637Y-95522727D01*
X38286407Y-96826563D02*
X40001336Y-97286069D01*
X40625968Y-94761729D02*
X39965977Y-97224838D01*
%TO.N,Net-(D82-Pad2)*%
X218290722Y-104007113D02*
X218264170Y-104053101D01*
X220021774Y-103543283D02*
X218290722Y-104007113D01*
X233496033Y-89931852D02*
X231489240Y-93407723D01*
X231489240Y-93407723D02*
X232297325Y-96423532D01*
%TO.N,ENC1B*%
X111616978Y-77082378D02*
X113840093Y-75798857D01*
X135596629Y-65666682D02*
X135596637Y-63754178D01*
X131096631Y-60554179D02*
X131096632Y-57354183D01*
X113840093Y-75798857D02*
X115043601Y-71307304D01*
X117027533Y-57914436D02*
X118512440Y-57057117D01*
X118960999Y-55383069D02*
X119170462Y-55262135D01*
X133846634Y-63304177D02*
X131096631Y-60554179D01*
X109503953Y-89508112D02*
X108673107Y-88069039D01*
X118512440Y-57057117D02*
X118960999Y-55383069D01*
X131096632Y-57354183D02*
X132616632Y-55834180D01*
X108902198Y-91753895D02*
X109503953Y-89508112D01*
X55925984Y-93684977D02*
X58015390Y-85887210D01*
X115043601Y-71307304D02*
X113947588Y-69408949D01*
X135146636Y-63304191D02*
X133846634Y-63304177D01*
X92692511Y-95356258D02*
X93578962Y-92047964D01*
X132616632Y-55834180D02*
X132616633Y-53874183D01*
X47299242Y-91454817D02*
X47250555Y-91370486D01*
X108501031Y-93251073D02*
X108902198Y-91753895D01*
X108673107Y-88069039D02*
X111616978Y-77082378D01*
X108449616Y-93442959D02*
X108501031Y-93251073D01*
X107814662Y-93809549D02*
X108449616Y-93442959D01*
X135596637Y-63754178D02*
X135146636Y-63304191D01*
X58015390Y-85887210D02*
X58012769Y-85882673D01*
X113947588Y-69408949D02*
X117027533Y-57914436D01*
X45261977Y-99058003D02*
X47299242Y-91454817D01*
%TO.N,ENC1A*%
X114633671Y-69359848D02*
X117564796Y-58420740D01*
X42808524Y-98400606D02*
X43562049Y-95588409D01*
X88814716Y-92634888D02*
X89565296Y-89833701D01*
X115729689Y-71258206D02*
X114633671Y-69359848D01*
X134196628Y-62554185D02*
X135096630Y-62554184D01*
X112301146Y-77442631D02*
X114396769Y-76232724D01*
X108782708Y-94060459D02*
X109147123Y-93850064D01*
X108257872Y-94860056D02*
X108625297Y-94647924D01*
X110085464Y-88899234D02*
X109502099Y-87888818D01*
X110608555Y-83759489D02*
X112301146Y-77442631D01*
X136096631Y-63554181D02*
X136096633Y-65666683D01*
X109502099Y-87888818D02*
X110608555Y-83759489D01*
X56552013Y-98095760D02*
X59670790Y-86456351D01*
X131871635Y-57804179D02*
X131871632Y-60229184D01*
X135156627Y-53874181D02*
X135156633Y-54519182D01*
X117564796Y-58420740D02*
X119396314Y-57363315D01*
X119396314Y-57363315D02*
X119670440Y-56340255D01*
X114396769Y-76232724D02*
X115729689Y-71258206D01*
X108625297Y-94647924D02*
X108782708Y-94060459D01*
X131871632Y-60229184D02*
X134196628Y-62554185D01*
X109147123Y-93850064D02*
X110350624Y-89358509D01*
X133339823Y-56335990D02*
X131871635Y-57804179D01*
X110350624Y-89358509D02*
X110085464Y-88899234D01*
X54631888Y-98514603D02*
X55447857Y-98733246D01*
X55447857Y-98733246D02*
X56552013Y-98095760D01*
X89565296Y-89833701D02*
X89547622Y-89803082D01*
X43562049Y-95588409D02*
X43541648Y-95553069D01*
X135156633Y-54519182D02*
X133339823Y-56335990D01*
X135096630Y-62554184D02*
X136096631Y-63554181D01*
%TO.N,ENC2B*%
X139596634Y-64803366D02*
X140800000Y-63600000D01*
X156843884Y-64953406D02*
X157528824Y-64268468D01*
X142246633Y-61453367D02*
X142246633Y-60729186D01*
X163464077Y-86811359D02*
X163959054Y-85954040D01*
X157928824Y-63868468D02*
X157928821Y-62968469D01*
X157928822Y-59768470D02*
X158528824Y-59168469D01*
X161541882Y-79251261D02*
X159704766Y-78190599D01*
X217874936Y-91281100D02*
X214743225Y-79593393D01*
X226663659Y-96926815D02*
X226629323Y-96906991D01*
X165741686Y-95311513D02*
X163464077Y-86811359D01*
X220013141Y-98720965D02*
X218862165Y-98056449D01*
X140236630Y-55294183D02*
X140236633Y-53874183D01*
X139596634Y-65666678D02*
X139596634Y-64803366D01*
X163959054Y-85954040D02*
X164241891Y-85464141D01*
X142246633Y-60729186D02*
X142246634Y-57304178D01*
X163465438Y-82566366D02*
X163413675Y-82373178D01*
X157528824Y-64268468D02*
X157928824Y-63868468D01*
X218617213Y-97915026D02*
X217970165Y-95500217D01*
X162678826Y-81948914D02*
X162420009Y-80982989D01*
X140800000Y-63600000D02*
X140800000Y-62900000D01*
X156702461Y-66985857D02*
X156843883Y-66740909D01*
X159445947Y-77224672D02*
X156702461Y-66985857D01*
X162420009Y-80982989D02*
X162031781Y-79534101D01*
X156843883Y-66740909D02*
X156843884Y-64953406D01*
X162031781Y-79534101D02*
X161541882Y-79251261D01*
X163413675Y-82373178D02*
X162923776Y-82090341D01*
X220784207Y-98514355D02*
X220013141Y-98720965D01*
X157928821Y-62968469D02*
X157928822Y-59768470D01*
X162923776Y-82090341D02*
X162678826Y-81948914D01*
X164241891Y-85464141D02*
X163465438Y-82566366D01*
X217167830Y-92505842D02*
X217521384Y-91893471D01*
X142246634Y-57304178D02*
X140236630Y-55294183D01*
X217970165Y-95500217D02*
X217167830Y-92505842D01*
X217521384Y-91893471D02*
X217874936Y-91281100D01*
X218862165Y-98056449D02*
X218617213Y-97915026D01*
X140800000Y-62900000D02*
X142246633Y-61453367D01*
X227533737Y-100174003D02*
X226663659Y-96926815D01*
X159704766Y-78190599D02*
X159445947Y-77224672D01*
%TO.N,ENC2A*%
X162559572Y-79185625D02*
X161824726Y-78761361D01*
X157571798Y-66752920D02*
X157996060Y-66018074D01*
X143518091Y-63557735D02*
X144896630Y-62179186D01*
X163670635Y-81786690D02*
X163180737Y-81503844D01*
X161824726Y-78761361D02*
X160232551Y-77842121D01*
X141284131Y-66854185D02*
X142046628Y-66854185D01*
X145452288Y-58994285D02*
X145452288Y-54009829D01*
X142796639Y-64279190D02*
X143518091Y-63557735D01*
X144896630Y-62179186D02*
X144896637Y-59549935D01*
X164873216Y-85502036D02*
X164277932Y-83280406D01*
X142346638Y-66554178D02*
X142346636Y-65429176D01*
X160232551Y-77842121D02*
X159844328Y-76393231D01*
X142796636Y-64979183D02*
X142796639Y-64279190D01*
X222920415Y-92724412D02*
X222911952Y-92739066D01*
X145452288Y-54009829D02*
X145316637Y-53874180D01*
X159844328Y-76393231D02*
X157359666Y-67120345D01*
X163915581Y-81928108D02*
X163670635Y-81786690D01*
X142046628Y-66854185D02*
X142346638Y-66554178D01*
X162870154Y-80344737D02*
X162559572Y-79185625D01*
X166874910Y-94904331D02*
X166507489Y-94692200D01*
X222911952Y-92739066D02*
X225080288Y-100831400D01*
X144896637Y-59549935D02*
X145452288Y-58994285D01*
X166507489Y-94692200D02*
X166196908Y-93533088D01*
X219490111Y-93684727D02*
X215400319Y-78421429D01*
X142346636Y-65429176D02*
X142796636Y-64979183D01*
X164277932Y-83280406D02*
X163915581Y-81928108D01*
X157359666Y-67120345D02*
X157571798Y-66752920D01*
X163180737Y-81503844D02*
X162870154Y-80344737D01*
X164307529Y-86481832D02*
X164802503Y-85624513D01*
X157996060Y-66018074D02*
X157840768Y-65438520D01*
X166196908Y-93533088D02*
X164307529Y-86481832D01*
X164802503Y-85624513D02*
X164873216Y-85502036D01*
X215400319Y-78421429D02*
X215353739Y-78394530D01*
%TO.N,Net-(D41-Pad4)*%
X-928367Y-45129183D02*
X-2203363Y-43854179D01*
X-153367Y-46804181D02*
X-153370Y-45904181D01*
X25847073Y-24504182D02*
X25847273Y-24503984D01*
X371633Y-48904181D02*
X-153369Y-48379180D01*
X24246636Y-24504178D02*
X25847073Y-24504182D01*
X-2203363Y-43854179D02*
X-2203367Y-25404179D01*
X2345990Y-50878539D02*
X371633Y-48904181D01*
X2345992Y-51004381D02*
X2345990Y-50878539D01*
X-153370Y-45904181D02*
X-928367Y-45129183D01*
X-153369Y-48379180D02*
X-153367Y-46804181D01*
%TO.N,Net-(D87-Pad2)*%
X149499867Y-80444284D02*
X149524889Y-80419261D01*
X148127286Y-80444285D02*
X149499867Y-80444284D01*
%TO.N,row4*%
X261532982Y-68566178D02*
X263577650Y-76196993D01*
X148343788Y-63553503D02*
X148343787Y-63383432D01*
X146228824Y-65668469D02*
X148343788Y-63553503D01*
X145635420Y-66661871D02*
X146228820Y-66068468D01*
X241089895Y-54477167D02*
X239640510Y-49067982D01*
X257197144Y-83870954D02*
X256983974Y-83657782D01*
X258305177Y-62701770D02*
X259573387Y-67434807D01*
X257197144Y-100095576D02*
X257197144Y-83870954D01*
X239958522Y-56436755D02*
X241089895Y-54477167D01*
X259775065Y-59419389D02*
X258170394Y-62198762D01*
X150343790Y-50944129D02*
X149418790Y-50019121D01*
X143456307Y-68854179D02*
X145635417Y-66675067D01*
X151228824Y-81268468D02*
X151228820Y-78668468D01*
X149524890Y-82972401D02*
X151228824Y-81268468D01*
X150428823Y-70868468D02*
X150428824Y-68268469D01*
X190961813Y-35081336D02*
X192483818Y-32445150D01*
X193890168Y-41760027D02*
X193631345Y-40794103D01*
X233403105Y-47426407D02*
X233770522Y-47638538D01*
X201818325Y-67484614D02*
X202254712Y-69113244D01*
X151228821Y-71568469D02*
X150528824Y-70868468D01*
X149524891Y-83719265D02*
X149524890Y-82972401D01*
X148343788Y-61119126D02*
X148668787Y-60794126D01*
X231927834Y-41920630D02*
X232626647Y-44528630D01*
X258170394Y-62198762D02*
X258305177Y-62701770D01*
X232626647Y-44528630D02*
X233403105Y-47426407D01*
X259573387Y-67434807D02*
X260798136Y-68141914D01*
X148343787Y-63383432D02*
X148343788Y-61119126D01*
X147268786Y-46219122D02*
X147268787Y-44394126D01*
X215835209Y-46183391D02*
X215648515Y-46075602D01*
X233553015Y-39217798D02*
X233476473Y-39238309D01*
X151228820Y-78668468D02*
X151228821Y-71568469D01*
X146228820Y-66068468D02*
X146228824Y-65668469D01*
X146588843Y-43714181D02*
X145316632Y-43714179D01*
X193631345Y-40794103D02*
X192284130Y-40016286D01*
X141284130Y-68854178D02*
X143456307Y-68854179D01*
X192284130Y-40016286D02*
X190961813Y-35081336D01*
X147268787Y-44394126D02*
X146588843Y-43714181D01*
X260798136Y-68141914D02*
X261532982Y-68566178D01*
X233476473Y-39238309D02*
X232422811Y-41063308D01*
X259775065Y-59419389D02*
X258392829Y-54260812D01*
X149527800Y-87085680D02*
X149524887Y-87082772D01*
X148668787Y-60794126D02*
X148668787Y-58044124D01*
X217036854Y-50667980D02*
X215835209Y-46183391D01*
X202254712Y-69113244D02*
X202318943Y-69150323D01*
X150528824Y-70868468D02*
X150428823Y-70868468D01*
X149418790Y-50019121D02*
X149418788Y-48369125D01*
X149524887Y-87082772D02*
X149524891Y-83719265D01*
X150343790Y-56369126D02*
X150343790Y-50944129D01*
X149418788Y-48369125D02*
X147268786Y-46219122D01*
X197930465Y-48338477D02*
X196584607Y-43315664D01*
X263577650Y-76196993D02*
X265001158Y-81509585D01*
X145635417Y-66675067D02*
X145635420Y-66661871D01*
X148668787Y-58044124D02*
X150343790Y-56369126D01*
X196584607Y-43315664D02*
X193890168Y-41760027D01*
X232422811Y-41063308D02*
X231927834Y-41920630D01*
X258392829Y-54260812D02*
X258307896Y-54211777D01*
%TO.N,row5*%
X214670969Y-90643089D02*
X217410068Y-100865547D01*
X143146631Y-65816282D02*
X143568787Y-65394124D01*
X163802798Y-101690918D02*
X163752398Y-101661819D01*
X185901944Y-95792921D02*
X185823802Y-95747804D01*
X144919586Y-105310399D02*
X143946176Y-101677601D01*
X145968790Y-56819126D02*
X147343787Y-55444125D01*
X114273685Y-101210405D02*
X113854192Y-102775969D01*
X40827104Y-83231319D02*
X38425377Y-92194696D01*
X95465612Y-97754899D02*
X94673686Y-100710404D01*
X143568788Y-64794129D02*
X144261635Y-64101279D01*
X147343784Y-47519124D02*
X146078844Y-46254180D01*
X187219578Y-100710406D02*
X185901944Y-95792921D01*
X146078844Y-46254180D02*
X145316637Y-46254175D01*
X143946176Y-101677601D02*
X143988209Y-101604808D01*
X143146630Y-66604181D02*
X143146631Y-65816282D01*
X151428819Y-68668469D02*
X151428824Y-67068469D01*
X141284131Y-67354179D02*
X142396635Y-67354177D01*
X73393534Y-91802254D02*
X73424150Y-91784578D01*
X145968785Y-59444125D02*
X145968790Y-56819126D01*
X113854192Y-102775969D02*
X113827005Y-102791663D01*
X152944729Y-70184374D02*
X152528823Y-69768469D01*
X165134983Y-106662699D02*
X163802798Y-101690918D01*
X214658207Y-90635722D02*
X214670969Y-90643089D01*
X143568787Y-65394124D02*
X143568788Y-64794129D01*
X144261635Y-64101279D02*
X145718785Y-62644127D01*
X145718785Y-62644127D02*
X145718786Y-59694124D01*
X152944729Y-100484373D02*
X152944729Y-70184374D01*
X72332375Y-95762553D02*
X73393534Y-91802254D01*
X147343787Y-55444125D02*
X147343784Y-47519124D01*
X95422730Y-97680635D02*
X95465612Y-97754899D01*
X40809486Y-83200795D02*
X40827104Y-83231319D01*
X142396635Y-67354177D02*
X143146630Y-66604181D01*
X145718786Y-59694124D02*
X145968785Y-59444125D01*
X152528823Y-69768469D02*
X151428819Y-68668469D01*
%TO.N,PA10*%
X136534135Y-77116682D02*
X131021634Y-77116685D01*
X137596639Y-72541686D02*
X137596634Y-76054179D01*
X131021634Y-77116685D02*
X131021634Y-77679180D01*
X152011563Y-82201917D02*
X152009293Y-82204188D01*
X131946635Y-78904184D02*
X131946634Y-81104188D01*
X131946631Y-78604180D02*
X131946635Y-78904184D01*
X131946634Y-81104188D02*
X132546633Y-81704179D01*
X131021634Y-77679180D02*
X131446635Y-78104181D01*
X137596634Y-76054179D02*
X136534135Y-77116682D01*
X131446635Y-78104181D02*
X131946631Y-78604180D01*
X152011563Y-70732302D02*
X152011563Y-82201917D01*
%TO.N,VDD*%
X23575904Y-35995721D02*
X22901809Y-38511467D01*
X8529941Y-37541684D02*
X8525898Y-37545724D01*
X133546630Y-73704179D02*
X133041631Y-74209178D01*
X141496634Y-71854182D02*
X143626631Y-73984180D01*
X132866630Y-65124182D02*
X131646630Y-65124179D01*
X133624182Y-65124182D02*
X132866630Y-65124182D01*
X133800000Y-65300000D02*
X133624182Y-65124182D01*
X145384178Y-73984178D02*
X145400000Y-74000000D01*
X22556663Y-38710741D02*
X21993729Y-40811626D01*
X134300000Y-64430816D02*
X134526633Y-64204183D01*
X131646630Y-65124179D02*
X130346636Y-65124177D01*
X119030006Y-70386418D02*
X121652140Y-73008557D01*
X120359210Y-77048499D02*
X119996966Y-77048498D01*
X22679136Y-38640032D02*
X22556663Y-38710741D01*
X132421633Y-74904181D02*
X133041632Y-74904184D01*
X144146635Y-73984178D02*
X145384178Y-73984178D01*
X121705005Y-64226279D02*
X121705005Y-62382088D01*
X139096634Y-65666678D02*
X139096634Y-64503366D01*
X21993729Y-40811626D02*
X21689617Y-41946588D01*
X24323592Y-46508766D02*
X23411258Y-49913653D01*
X139096634Y-64503366D02*
X139096634Y-63403366D01*
X133895821Y-73704179D02*
X134200000Y-73400000D01*
X120827098Y-65104182D02*
X121705005Y-64226279D01*
X135096629Y-65666684D02*
X135096632Y-64734178D01*
X128346634Y-65104184D02*
X130326636Y-65104178D01*
X119030003Y-69983430D02*
X119030001Y-66901277D01*
X134409131Y-66354185D02*
X134096632Y-66354185D01*
X134200000Y-73400000D02*
X134238312Y-73400000D01*
X22901809Y-38511467D02*
X22679136Y-38640032D01*
X134300000Y-65300000D02*
X134300000Y-64430816D01*
X143626631Y-73984180D02*
X144146633Y-73984182D01*
X141200000Y-61300000D02*
X141200000Y-60621178D01*
X134300000Y-65300000D02*
X133800000Y-65300000D01*
X130326636Y-65104178D02*
X130346636Y-65124177D01*
X119030003Y-69983430D02*
X119030006Y-70386418D01*
X10004128Y-37541681D02*
X8529941Y-37541684D01*
X139900000Y-62600000D02*
X141200000Y-61300000D01*
X133546630Y-73704179D02*
X133895821Y-73704179D01*
X141284138Y-71854180D02*
X141496634Y-71854182D01*
X134238312Y-73400000D02*
X135096634Y-72541678D01*
X132421633Y-74904181D02*
X132034136Y-75291681D01*
X134096632Y-66354185D02*
X132866630Y-65124182D01*
X121652143Y-75755568D02*
X120359210Y-77048499D01*
X21689617Y-41946588D02*
X23510422Y-45100309D01*
X139096634Y-63403366D02*
X139900000Y-62600000D01*
X135096632Y-64734178D02*
X134546633Y-64184178D01*
X10004128Y-37541681D02*
X8846631Y-36384181D01*
X10596632Y-37541679D02*
X10004128Y-37541681D01*
X141200000Y-60621178D02*
X140839411Y-60260589D01*
X132034136Y-75291681D02*
X131021631Y-75291682D01*
X121652140Y-73008557D02*
X121652143Y-75755568D01*
X133041631Y-74209178D02*
X133041632Y-74904184D01*
X119030001Y-66901277D02*
X120827098Y-65104182D01*
X23510422Y-45100309D02*
X24323592Y-46508766D01*
%TO.N,Net-(C14-Pad2)*%
X143216628Y-70854179D02*
X144166637Y-71804179D01*
X141284132Y-70854180D02*
X143216628Y-70854179D01*
%TO.N,/LED_R*%
X139446630Y-76194184D02*
X140621634Y-76194180D01*
X140621634Y-76194180D02*
X140646631Y-76219183D01*
%TO.N,/CC2*%
X14626637Y-27389185D02*
X14626637Y-30973363D01*
X14626637Y-30973363D02*
X14400000Y-31200000D01*
X14400000Y-31200000D02*
X14400000Y-31990000D01*
%TO.N,/CC1*%
X11626637Y-31284186D02*
X11646633Y-31304182D01*
X8546631Y-30904182D02*
X8546637Y-31894188D01*
X11626637Y-27389185D02*
X11626637Y-31284186D01*
%TO.N,Net-(D56-Pad2)*%
X153196628Y-26004183D02*
X153196633Y-30097363D01*
X156057869Y-48633605D02*
X156057862Y-58883601D01*
X153857864Y-30758604D02*
X153857864Y-44033602D01*
X153857864Y-44033602D02*
X155082866Y-45258602D01*
X153196633Y-30097363D02*
X153857864Y-30758604D01*
X153196632Y-24354179D02*
X153546630Y-24004182D01*
X155082866Y-45258602D02*
X155082867Y-47658597D01*
X155082867Y-47658597D02*
X156057869Y-48633605D01*
X153678445Y-61338029D02*
X153678442Y-62504179D01*
X156057862Y-58883601D02*
X156057868Y-58958601D01*
X156057868Y-58958601D02*
X153678445Y-61338029D01*
X161246638Y-24004181D02*
X160147069Y-24004184D01*
X153196630Y-26004180D02*
X153196632Y-24354179D01*
X160147069Y-24004184D02*
X159647274Y-24503985D01*
%TO.N,PWR_LED*%
X138956635Y-77214180D02*
X139446636Y-77214182D01*
X138596628Y-76854183D02*
X138956635Y-77214180D01*
X138596633Y-72541677D02*
X138596628Y-76854183D01*
%TO.N,PA9*%
X101194353Y-27835955D02*
X100988204Y-27629807D01*
X16756635Y-35084181D02*
X15736637Y-36104183D01*
X16756630Y-34904180D02*
X17746630Y-34904180D01*
X93588881Y-67523982D02*
X94629916Y-66922941D01*
X94629916Y-66922941D02*
X94785207Y-66343384D01*
X98263230Y-49209749D02*
X99549213Y-48467285D01*
X99549213Y-48467285D02*
X100364491Y-45424622D01*
X94785207Y-66343384D02*
X95451665Y-63856124D01*
X138096632Y-72541683D02*
X138096629Y-76854182D01*
X95451665Y-63856124D02*
X94691526Y-62539527D01*
X17746630Y-34904180D02*
X17946631Y-35104182D01*
X92074792Y-73174649D02*
X93588881Y-67523982D01*
X20746636Y-32404183D02*
X21146631Y-32004181D01*
X101194349Y-38270640D02*
X101194353Y-27835955D01*
X16756630Y-34904180D02*
X16756635Y-35084181D01*
X100364491Y-45424622D02*
X99622030Y-44138640D01*
X99622030Y-44138640D02*
X101194349Y-38270640D01*
X19846634Y-35104185D02*
X19846635Y-33304179D01*
X21146631Y-32004181D02*
X21146628Y-29004187D01*
X19846635Y-33304179D02*
X20746636Y-32404183D01*
X138096629Y-76854182D02*
X137596628Y-77354180D01*
X94691526Y-62539527D02*
X98263230Y-49209749D01*
%TO.N,PB12*%
X140596628Y-73354185D02*
X142046631Y-74804181D01*
X140596627Y-72541677D02*
X140596628Y-73354185D01*
%TO.N,PB13*%
X141246631Y-75204181D02*
X142046633Y-76004183D01*
X140096631Y-73554183D02*
X141246628Y-74704185D01*
X140096635Y-72541680D02*
X140096631Y-73554183D01*
X141246628Y-74704185D02*
X141246631Y-75204181D01*
%TO.N,PB14*%
X140246634Y-74404186D02*
X140446639Y-74604185D01*
X139596633Y-73754183D02*
X140246634Y-74404186D01*
X140446639Y-74604185D02*
X140446635Y-75104177D01*
X139596636Y-72541681D02*
X139596633Y-73754183D01*
%TO.N,BOOT0*%
X134409133Y-68354183D02*
X132396637Y-68354185D01*
X132146637Y-68104179D02*
X128846630Y-68104184D01*
X126196967Y-72153849D02*
X126196965Y-73348501D01*
X132396637Y-68354185D02*
X132146637Y-68104179D01*
X128846630Y-68104184D02*
X128646630Y-68304186D01*
X126446634Y-71904179D02*
X126196967Y-72153849D01*
X126446634Y-70204177D02*
X127856629Y-68794185D01*
X126446634Y-71904179D02*
X126446634Y-70204177D01*
X128646630Y-68304186D02*
X127856634Y-68304179D01*
X127856629Y-68794185D02*
X127856634Y-68304179D01*
%TO.N,Net-(D70-Pad4)*%
X115845996Y-27704377D02*
X115845985Y-26904824D01*
X119296629Y-23454184D02*
X119296633Y-23404180D01*
X115845985Y-26904824D02*
X119296629Y-23454184D01*
%TO.N,HSE_IN*%
X134621629Y-59854182D02*
X134021635Y-59254184D01*
X137096632Y-62596632D02*
X136171633Y-61671633D01*
X136171633Y-61671633D02*
X136171633Y-60929182D01*
X134021635Y-59254184D02*
X134021635Y-59134182D01*
X137096633Y-65666682D02*
X137096632Y-62596632D01*
X136171633Y-60929182D02*
X136171631Y-59854181D01*
X136171631Y-59854181D02*
X134621629Y-59854182D01*
%TO.N,Net-(C8-Pad1)*%
X140011636Y-58144185D02*
X139821635Y-58144182D01*
X139121632Y-57654181D02*
X137871637Y-57654190D01*
X139821635Y-58144182D02*
X139611633Y-58144184D01*
X139611633Y-58144184D02*
X139121632Y-57654181D01*
X141001638Y-59134180D02*
X140011636Y-58144185D01*
X141221630Y-59134184D02*
X141001638Y-59134180D01*
%TO.N,HSE_OUT*%
X137200000Y-62000000D02*
X137200000Y-61600000D01*
X137200000Y-61600000D02*
X137700000Y-61100000D01*
X137596629Y-62396629D02*
X137200000Y-62000000D01*
X137700000Y-61100000D02*
X139025810Y-61100000D01*
X139321625Y-59664191D02*
X139821633Y-59164182D01*
X139025810Y-61100000D02*
X139321631Y-60804179D01*
X137596629Y-62496629D02*
X137596629Y-62396629D01*
X137596637Y-65666686D02*
X137596629Y-62496629D01*
X139321631Y-60804179D02*
X139321625Y-59664191D01*
%TO.N,VBUS_F*%
X13196635Y-34154180D02*
X13946633Y-34904179D01*
X13946633Y-34904179D02*
X15736629Y-34904179D01*
X15709128Y-33304181D02*
X15709130Y-34876679D01*
X13196630Y-33104187D02*
X13196635Y-34154180D01*
X15709130Y-34876679D02*
X15736629Y-34904179D01*
%TO.N,RAW*%
X15326637Y-30084185D02*
X15746632Y-30504180D01*
X10426637Y-27389185D02*
X10426637Y-30384188D01*
X125346637Y-27204180D02*
X125546629Y-27004185D01*
X125346634Y-27704183D02*
X125346637Y-27204180D01*
X10426637Y-30384188D02*
X10446632Y-30404183D01*
X15326637Y-27389185D02*
X15326637Y-30084185D01*
X15746632Y-30504180D02*
X17584130Y-32341684D01*
X125546629Y-27004185D02*
X125746632Y-26804179D01*
X17584130Y-32341684D02*
X17584133Y-33304183D01*
X125746632Y-26804179D02*
X125746629Y-24004177D01*
D76*
%TO.N,USB_DP*%
X118125524Y-73827191D02*
X117957293Y-74455040D01*
X119094790Y-64730987D02*
X118738912Y-66059136D01*
X122446637Y-41855977D02*
X122709108Y-42118448D01*
X122709108Y-42118448D02*
X123009106Y-42418449D01*
X122667917Y-44827591D02*
X122576063Y-44880621D01*
X13626637Y-27389185D02*
X13626637Y-29233363D01*
X121763500Y-56413282D02*
X121181157Y-58586615D01*
X117461812Y-68796880D02*
X117744657Y-69286782D01*
X118279629Y-66324301D02*
X118095920Y-66430363D01*
X118738912Y-66059136D02*
X118279629Y-66324301D01*
X122446634Y-35004179D02*
X122446637Y-41855977D01*
X119275962Y-64054838D02*
X119094790Y-64730987D01*
X136596634Y-72541682D02*
X136596633Y-74754180D01*
X117314302Y-74826271D02*
X117069354Y-74967692D01*
X120813737Y-58798746D02*
X119282805Y-59682626D01*
X119282805Y-59682626D02*
X118991634Y-60769295D01*
X121711396Y-55545218D02*
X121905857Y-55882023D01*
X12626637Y-27389185D02*
X12626637Y-29193377D01*
X118086551Y-72840443D02*
X118240718Y-73107481D01*
X135546642Y-75804185D02*
X135046630Y-75804178D01*
X122846763Y-44724333D02*
X122667917Y-44827591D01*
X13146630Y-29713370D02*
X13146630Y-31304179D01*
X118240718Y-73107481D02*
X118293751Y-73199337D01*
X122576063Y-44880621D02*
X122394883Y-45556769D01*
X123009106Y-42418449D02*
X123009102Y-44118447D01*
X118293751Y-73199337D02*
X118125524Y-73827191D01*
X117957293Y-74455040D02*
X117314302Y-74826271D01*
X121094198Y-51859897D02*
X121200265Y-52043612D01*
X118095920Y-66430363D02*
X117617107Y-68217326D01*
X12626637Y-29193377D02*
X13146630Y-29713370D01*
X117617107Y-68217326D02*
X117461812Y-68796880D01*
X117744657Y-69286782D02*
X118628534Y-70817714D01*
X120721450Y-53830575D02*
X121711396Y-55545218D01*
X122394883Y-45556769D02*
X120829034Y-51400624D01*
X118991634Y-60769295D02*
X118480464Y-62677000D01*
X121200265Y-52043612D02*
X121019090Y-52719756D01*
X136146633Y-75204180D02*
X135546642Y-75804185D01*
X20146630Y-31404180D02*
X20146634Y-27304180D01*
X123009102Y-44118447D02*
X122846763Y-44724333D01*
X136596633Y-74754180D02*
X136146633Y-75204180D01*
X121905857Y-55882023D02*
X121763500Y-56413282D01*
X121181157Y-58586615D02*
X120813737Y-58798746D01*
X118480464Y-62677000D02*
X118922408Y-63442464D01*
X120829034Y-51400624D02*
X121094198Y-51859897D01*
X117069354Y-74967692D02*
X116661711Y-76489025D01*
X122446634Y-35004179D02*
X122446631Y-26704182D01*
X13626637Y-29233363D02*
X13146630Y-29713370D01*
X121019090Y-52719756D02*
X120721450Y-53830575D01*
X118628534Y-70817714D02*
X118486190Y-71348972D01*
X118486190Y-71348972D02*
X118086551Y-72840443D01*
X118922408Y-63442464D02*
X119275962Y-64054838D01*
%TO.N,USB_DN*%
X118833929Y-59329417D02*
X118251586Y-61502749D01*
X118030842Y-71019907D02*
X117946727Y-71333833D01*
X118252944Y-65747749D02*
X117793664Y-66012909D01*
X117946727Y-71333833D02*
X117514732Y-72946048D01*
X117686588Y-73243702D02*
X117550704Y-73750813D01*
X117535866Y-70162585D02*
X118030842Y-71019907D01*
X122164272Y-44485581D02*
X122133654Y-44503260D01*
X117473059Y-74040591D02*
X116768831Y-74447175D01*
X117251076Y-67265148D02*
X116824018Y-68858926D01*
X137096640Y-75354180D02*
X136346630Y-76104181D01*
X13126637Y-25686637D02*
X12790000Y-25350000D01*
X12790000Y-25350000D02*
X12640000Y-25350000D01*
X118692939Y-64105673D02*
X118518234Y-64757671D01*
X12126637Y-27389185D02*
X12126637Y-25693363D01*
X121546631Y-35004180D02*
X121546634Y-41830972D01*
X117548716Y-66154330D02*
X117251076Y-67265148D01*
X121797191Y-45758965D02*
X120263689Y-51482074D01*
X122534105Y-42818447D02*
X122534105Y-43893449D01*
X121057662Y-55473578D02*
X121358181Y-55994092D01*
X121196420Y-56597796D02*
X120762897Y-58215722D01*
X122133654Y-44503260D02*
X121797191Y-45758965D01*
X121546634Y-41830972D02*
X122134107Y-42418446D01*
X116824018Y-68858926D02*
X116811080Y-68907222D01*
X13126637Y-27389185D02*
X13126637Y-25686637D01*
X12470000Y-25350000D02*
X12640000Y-25350000D01*
X137096631Y-72541679D02*
X137096640Y-75354180D01*
X116811080Y-68907222D02*
X117535866Y-70162585D01*
X118518234Y-64757671D02*
X118252944Y-65747749D01*
X121546628Y-25804181D02*
X121446632Y-25704187D01*
X117793664Y-66012909D02*
X117548716Y-66154330D01*
X121546631Y-35004180D02*
X121546628Y-25804181D01*
X117550704Y-73750813D02*
X117473059Y-74040591D01*
X120493497Y-51880116D02*
X120652597Y-52155684D01*
X121358181Y-55994092D02*
X121196420Y-56597796D01*
X117915118Y-62758454D02*
X118410095Y-63615775D01*
X120263689Y-51482074D02*
X120493497Y-51880116D01*
X120426129Y-53000866D02*
X120173782Y-53942646D01*
X116768831Y-74447175D02*
X116248315Y-74747696D01*
X120762897Y-58215722D02*
X120426096Y-58410176D01*
X116248315Y-74747696D02*
X115607736Y-77138363D01*
X117633551Y-73151845D02*
X117686588Y-73243702D01*
X118410095Y-63615775D02*
X118692939Y-64105673D01*
X118251586Y-61502749D02*
X117915118Y-62758454D01*
X122134107Y-42418446D02*
X122534105Y-42818447D01*
X122414089Y-44341352D02*
X122164272Y-44485581D01*
X120173782Y-53942646D02*
X121057662Y-55473578D01*
X117514732Y-72946048D02*
X117633551Y-73151845D01*
X122534105Y-43893449D02*
X122414089Y-44341352D01*
X120652597Y-52155684D02*
X120426129Y-53000866D01*
X120426096Y-58410176D02*
X118833929Y-59329417D01*
X12126637Y-25693363D02*
X12470000Y-25350000D01*
D75*
%TO.N,PB15*%
X139096633Y-72541682D02*
X139096632Y-74454186D01*
X139096632Y-74454186D02*
X139446632Y-74804180D01*
%TO.N,SWD*%
X136096630Y-72541684D02*
X136096636Y-74054181D01*
X136096636Y-74054181D02*
X135446638Y-74704174D01*
%TO.N,SWC*%
X132300000Y-72900000D02*
X132300000Y-73300000D01*
X134409134Y-71854178D02*
X132945822Y-71854178D01*
X132300000Y-72500000D02*
X132300000Y-72900000D01*
X132300000Y-73300000D02*
X131900000Y-73700000D01*
X132500000Y-72300000D02*
X132300000Y-72500000D01*
X132945822Y-71854178D02*
X132500000Y-72300000D01*
%TO.N,PC15*%
X164471164Y-80582529D02*
X163908235Y-78481641D01*
X159256674Y-61134688D02*
X159487184Y-60904182D01*
X160983863Y-75874696D02*
X158770957Y-67616028D01*
X161275034Y-76961360D02*
X160983863Y-75874696D01*
X136596632Y-63179186D02*
X134821636Y-61404183D01*
X159690195Y-66023859D02*
X159256676Y-64405938D01*
X163908235Y-78481641D02*
X161275034Y-76961360D01*
X136596629Y-65666682D02*
X136596632Y-63179186D01*
X158770957Y-67616028D02*
X159690195Y-66023859D01*
X159256676Y-64405938D02*
X159256674Y-61134688D01*
%TO.N,PA1*%
X158046051Y-67422039D02*
X160718352Y-77395219D01*
X141300000Y-63800000D02*
X141300000Y-63100000D01*
X160718352Y-77395219D02*
X163137229Y-78791758D01*
X158982966Y-65799253D02*
X158046051Y-67422039D01*
X159527280Y-59469286D02*
X158594736Y-60401835D01*
X158594736Y-64350362D02*
X158982966Y-65799253D01*
X158594736Y-60401835D02*
X158594736Y-64350362D01*
X163137229Y-78791758D02*
X163777801Y-81182423D01*
X159527286Y-57444283D02*
X159527280Y-59469286D01*
X140096634Y-65003366D02*
X141300000Y-63800000D01*
X142796630Y-59479181D02*
X142796630Y-57154184D01*
X142796633Y-61603367D02*
X142796633Y-60979188D01*
X142796630Y-57154184D02*
X143096629Y-56854185D01*
X163777801Y-81182423D02*
X164818839Y-81783464D01*
X140096634Y-65666678D02*
X140096634Y-65003366D01*
X164818839Y-81783464D02*
X165142362Y-82990876D01*
X141300000Y-63100000D02*
X142796633Y-61603367D01*
X142796633Y-60979188D02*
X142796630Y-59479181D01*
%TD*%
M02*
