M48
; DRILL file {KiCad (6.0.0)} date Sun Jun 19 23:03:12 2022
; FORMAT={-:-/ absolute / inch / decimal}
; #@! TF.CreationDate,2022-06-19T23:03:12-07:00
; #@! TF.GenerationSoftware,Kicad,Pcbnew,(6.0.0)
; #@! TF.FileFunction,Plated,1,2,PTH
FMAT,2
INCH
; #@! TA.AperFunction,Plated,PTH,ViaDrill
T1C0.0157
; #@! TA.AperFunction,Plated,PTH,ComponentDrill
T2C0.0236
; #@! TA.AperFunction,Plated,PTH,ComponentDrill
T3C0.0300
; #@! TA.AperFunction,Plated,PTH,ComponentDrill
T4C0.0394
; #@! TA.AperFunction,Plated,PTH,ComponentDrill
T5C0.0430
%
G90
G05
T1
X-0.1743Y-1.8289
X-0.1743Y-0.9293
X-0.1606Y-4.5386
X-0.1606Y-3.4027
X-0.136Y-2.2807
X-0.133Y-2.6245
X-0.133Y-2.4834
X-0.1291Y-1.9421
X-0.1281Y-1.0386
X-0.1251Y-4.509
X-0.1143Y-3.5248
X-0.0936Y-2.2423
X-0.0927Y-2.5395
X-0.0867Y-1.0002
X-0.0858Y-2.8997
X-0.0779Y-4.4864
X-0.0425Y-1.9844
X-0.0346Y-3.5769
X-0.0292Y-3.0163
X0.0213Y-2.0733
X0.0747Y-1.826
X0.0924Y-3.4017
X0.164Y-2.7749
X0.1961Y-1.3906
X0.227Y-2.896
X0.2555Y-3.02
X0.2617Y-1.3427
X0.2755Y-1.0179
X0.3357Y-1.4782
X0.3365Y-1.2167
X0.3404Y-1.3387
X0.4113Y-1.197
X0.4149Y-2.894
X0.4546Y-1.3073
X0.4585Y-1.2324
X0.5176Y-1.2324
X0.5373Y-1.0198
X0.553Y-1.4175
X0.5688Y-1.3387
X0.6199Y-1.201
X0.6402Y-2.1463
X0.6418Y-2.7695
X0.7066Y-1.3821
X0.7135Y-4.5346
X0.7213Y-4.3594
X0.7282Y-4.4224
X0.7417Y-2.8783
X0.742Y-1.3387
X0.7814Y-1.3821
X0.7932Y-1.2364
X0.7932Y-1.075
X0.8325Y-1.1419
X0.8842Y-2.1002
X0.8871Y-2.8837
X0.9172Y-4.5573
X0.9217Y-1.9651
X0.9282Y-1.4172
X0.9432Y-1.3699
X0.9546Y-0.9647
X0.9838Y-2.8103
X1.0845Y-0.9805
X1.0911Y-1.1312
X1.1191Y-3.4013
X1.2144Y-0.9096
X1.305Y-0.9411
X1.4633Y-3.4905
X1.5159Y-2.4127
X1.5901Y-1.6419
X1.6067Y-3.2756
X1.6818Y-3.4289
X1.7033Y-1.7741
X1.7142Y-3.7619
X1.788Y-1.1174
X1.8603Y-3.5973
X1.9337Y-3.7188
X2.0222Y-3.1195
X2.0432Y-4.3574
X2.0688Y-4.5346
X2.0806Y-4.4234
X2.1417Y-2.4752
X2.269Y-2.4922
X2.284Y-3.3812
X2.284Y-3.8126
X2.2873Y-4.5573
X2.3492Y-3.4038
X2.3647Y-3.5153
X2.4626Y-1.7697
X2.5232Y-1.1509
X2.5695Y-1.1174
X2.639Y-3.5868
X2.6586Y-3.5177
X2.7341Y-0.9411
X2.7573Y-2.4144
X2.8167Y-2.9883
X2.8601Y-0.9805
X2.862Y-2.8191
X2.8907Y-3.6136
X2.9286Y-2.7333
X2.9368Y-2.8749
X2.9379Y-2.5323
X2.9881Y-0.9096
X3.0093Y-2.9343
X3.0688Y-0.9411
X3.1324Y-2.1448
X3.1664Y-2.6218
X3.2117Y-1.7984
X3.2287Y-2.2065
X3.3588Y-1.1174
X3.3865Y-3.6761
X3.4438Y-4.5346
X3.4471Y-1.3153
X3.4556Y-4.3634
X3.4556Y-4.4244
X3.4966Y-3.647
X3.5028Y-3.744
X3.5255Y-3.5356
X3.6215Y-2.733
X3.625Y-2.8809
X3.6349Y-3.1598
X3.6475Y-4.5504
X3.6493Y-3.7542
X3.6842Y-3.6239
X3.6932Y-3.2113
X3.7186Y-3.1162
X3.7568Y-3.8457
X3.8285Y-2.4373
X3.9386Y-1.543
X3.9759Y-1.0878
X4.0695Y-1.1174
X4.0842Y-3.8663
X4.1336Y-3.8796
X4.2447Y-3.6933
X4.2505Y-3.9086
X4.2621Y-3.7346
X4.2992Y-3.2512
X4.301Y-0.9411
X4.31Y-3.2051
X4.3441Y-2.9261
X4.3727Y-3.9811
X4.4088Y-2.9846
X4.4284Y-2.7544
X4.4349Y-0.9805
X4.4814Y-4.0469
X4.483Y-2.8541
X4.4979Y-3.8702
X4.5148Y-1.2238
X4.5373Y-3.8348
X4.5515Y-3.0369
X4.5648Y-0.9096
X4.593Y-3.0114
X4.5962Y-2.891
X4.6023Y-2.5362
X4.6073Y-1.6292
X4.6121Y-1.4214
X4.6543Y-1.922
X4.6918Y-2.1757
X4.7114Y-2.2181
X4.7134Y-1.2265
X4.7202Y-1.8216
X4.757Y-2.5632
X4.7814Y-1.012
X4.7885Y-3.7153
X4.7896Y-3.4816
X4.7911Y-1.7202
X4.7915Y-2.456
X4.8207Y-1.0513
X4.8404Y-3.008
X4.8483Y-0.8939
X4.8562Y-1.1261
X4.8798Y-3.4655
X4.8877Y-3.8821
X4.8931Y-1.4249
X4.9152Y-1.0198
X4.9349Y-1.0907
X4.9388Y-2.2886
X4.9507Y-0.945
X4.9546Y-3.1143
X4.9546Y-3.3033
X4.9707Y-3.458
X4.9718Y-1.4159
X4.9718Y-1.5103
X4.9771Y-2.4186
X4.9771Y-2.022
X5.0136Y-2.7797
X5.0145Y-2.1218
X5.0148Y-2.4914
X5.053Y-2.5632
X5.0845Y-2.8073
X5.0845Y-2.8742
X5.0845Y-2.7639
X5.0884Y-2.6025
X5.0885Y-2.3752
X5.0885Y-2.5277
X5.098Y-3.7452
X5.1199Y-2.8348
X5.1199Y-2.9057
X5.1406Y-4.0033
X5.1482Y-3.447
X5.1929Y-2.9016
X5.2157Y-1.7215
X5.2157Y-1.0719
X5.2184Y-3.2167
X5.2262Y-2.9962
X5.2361Y-2.2895
X5.2496Y-2.218
X5.2629Y-1.1704
X5.2629Y-1.6192
X5.2646Y-3.2649
X5.2835Y-2.8898
X5.2874Y-2.5709
X5.3062Y-1.3711
X5.3062Y-1.82
X5.3079Y-2.4175
X5.3168Y-2.9844
X5.3168Y-3.9254
X5.3325Y-2.9411
X5.3503Y-3.3634
X5.3601Y-3.949
X5.368Y-2.9962
X5.3955Y-4.3614
X5.3995Y-3.9805
X5.4172Y-3.0454
X5.4251Y-4.5346
X5.427Y-4.4224
X5.4449Y-2.437
X5.4543Y-3.447
X5.4546Y-3.2482
X5.4562Y-3.7374
X5.49Y-2.945
X5.5079Y-2.4646
X5.5294Y-2.9569
X5.552Y-3.2886
X5.5748Y-2.878
X5.5924Y-2.945
X5.5924Y-2.9923
X5.6162Y-1.1208
X5.6239Y-3.2482
X5.6249Y-4.5504
X5.6337Y-2.2384
X5.6503Y-2.5023
X5.6523Y-2.5746
X5.6662Y-2.2679
X5.6688Y-4.0002
X5.679Y-2.3092
X5.7244Y-2.9134
X5.7337Y-2.625
X5.7892Y-0.9293
X5.7964Y-3.1326
X5.8031Y-2.596
X5.8224Y-3.9214
X5.8224Y-3.6075
X5.8318Y-3.1671
X5.8383Y-1.921
X5.8617Y-3.7374
X5.8797Y-2.0204
X5.8869Y-3.4286
X5.9082Y-2.5411
X5.9224Y-2.6877
X5.9341Y-4.0178
X5.9476Y-2.5019
X5.9618Y-2.6405
X5.9782Y-0.8939
X5.9846Y-3.2364
X5.9847Y-2.7847
X6.0093Y-2.4293
X6.019Y-1.2356
X6.0214Y-3.9561
X6.0451Y-0.945
X6.0503Y-2.4608
X6.0743Y-2.2679
X6.1099Y-4.3317
X6.1133Y-1.0522
X6.1133Y-1.3711
X6.1546Y-2.3639
X6.1849Y-2.2599
X6.1946Y-1.887
X6.2007Y-1.3092
X6.2142Y-2.5763
X6.2413Y-2.3295
X6.279Y-2.3978
X6.2806Y-2.2616
X6.2976Y-3.8688
X6.3343Y-2.5394
X6.3483Y-0.945
X6.3578Y-2.5015
X6.3641Y-4.5346
X6.3662Y-4.4669
X6.4029Y-0.9442
X6.4469Y-4.0024
X6.4752Y-3.1725
X6.4831Y-0.9076
X6.5017Y-3.2674
X6.5253Y-3.7524
X6.5699Y-3.7364
X6.5835Y-3.346
X6.6534Y-3.9023
X6.7986Y-1.753
X6.8906Y-1.5945
X7.0424Y-3.8037
X7.0593Y-2.1478
X7.1567Y-3.7283
X7.2544Y-2.9521
X7.2784Y-3.5286
X7.3159Y-3.7696
X7.43Y-4.5031
X7.4566Y-4.3634
X7.4575Y-4.4273
X7.4987Y-1.4757
X7.6386Y-1.8458
X7.6652Y-4.5218
X7.7389Y-1.9236
X7.7925Y-1.9031
X7.8646Y-3.4041
X7.8752Y-3.5806
X7.9235Y-0.9452
X7.9456Y-2.6569
X8.0038Y-0.9076
X8.0555Y-3.4623
X8.2166Y-1.4243
X8.2275Y-1.0483
X8.2843Y-4.1795
X8.379Y-1.7113
X8.4511Y-3.5683
X8.4545Y-3.1336
X8.4785Y-3.0864
X8.4901Y-1.814
X8.5202Y-3.0368
X8.6158Y-2.5873
X8.6386Y-4.5031
X8.6623Y-4.0765
X8.7248Y-2.6593
X8.7764Y-3.6506
X8.7794Y-4.3584
X8.7981Y-4.4214
X8.9224Y-3.8152
X8.9637Y-0.9893
X8.9876Y-4.5405
X8.9968Y-3.6975
X9.1456Y-3.7962
X9.2036Y-1.8755
X9.2965Y-2.4049
X9.3466Y-3.938
X9.3683Y-2.5358
X9.3837Y-1.9088
X9.4347Y-1.9318
X9.4472Y-2.2219
X9.7196Y-0.9932
X9.9511Y-0.9511
X10.0147Y-1.5563
X10.0402Y-0.9076
X10.0609Y-4.5031
X10.0668Y-4.3614
X10.1175Y-3.2936
X10.1431Y-2.6591
X10.1633Y-4.4352
X10.1696Y-2.1343
X10.2568Y-4.5405
X10.3121Y-3.7396
X10.4331Y-3.209
X10.7491Y-3.7396
X10.7726Y-2.6201
X10.8099Y-2.0779
X10.8103Y-0.9511
X10.8699Y-4.5031
X10.8946Y-2.5592
X10.8955Y-2.1645
X10.9221Y-4.3614
X10.931Y-2.5248
X10.9546Y-4.5405
X10.9644Y-0.9076
T3
X1.5545Y-3.9062
X1.5749Y-3.8302
X8.7438Y-3.987
X8.7642Y-4.0631
T4
X1.5994Y-3.7308
X1.6504Y-3.5406
X1.6854Y-3.874
X1.782Y-3.8999
X1.8786Y-3.9258
X1.9752Y-3.9517
X2.1509Y-3.8785
X2.1763Y-3.7835
X2.2018Y-3.6884
X3.2037Y-2.7364
X3.3003Y-2.7623
X3.3969Y-2.7882
X3.4935Y-2.8141
X4.4148Y-1.3387
X4.5148Y-1.3387
X4.6146Y-3.5164
X4.6148Y-1.3387
X4.6405Y-3.4198
X4.6664Y-3.3232
X4.6923Y-3.2266
X4.7148Y-1.3387
X4.7182Y-3.13
X5.1278Y-3.1665
X5.1278Y-3.2649
X5.1278Y-3.3634
X5.2522Y-3.136
X5.3522Y-3.136
X5.4522Y-3.136
X5.5522Y-3.136
X5.6986Y-3.1665
X5.6986Y-3.3634
X6.0989Y-2.7541
X6.1248Y-2.8507
X6.1507Y-2.9473
X6.1766Y-3.0439
X6.2025Y-3.1405
X6.2284Y-3.2371
X6.2542Y-3.3337
X8.6413Y-3.6884
X8.6668Y-3.7834
X8.6923Y-3.8785
X8.8614Y-3.9697
X8.958Y-3.9439
X9.0546Y-3.918
X9.1512Y-3.8921
X9.1928Y-3.5406
X9.2437Y-3.7308
T5
X5.1211Y-1.021
X5.1211Y-1.121
X5.1211Y-1.221
X5.1211Y-1.321
X5.1211Y-1.421
X5.1211Y-1.521
X5.1211Y-1.621
X5.1211Y-1.721
X5.1211Y-1.821
X5.1211Y-1.921
X5.1211Y-2.021
X5.1301Y-2.121
X5.2211Y-2.121
X5.3211Y-2.121
X5.4211Y-2.121
X5.5211Y-2.121
X5.6211Y-2.121
X5.7211Y-1.021
X5.7211Y-1.121
X5.7211Y-1.221
X5.7211Y-1.321
X5.7211Y-1.421
X5.7211Y-1.521
X5.7211Y-1.621
X5.7211Y-1.721
X5.7211Y-1.821
X5.7211Y-1.921
X5.7211Y-2.021
X5.7211Y-2.121
T2
G00X0.3357Y-0.9171
M15
G01X0.3357Y-0.9407
M16
G05
G00X0.3357Y-1.0718
M15
G01X0.3357Y-1.1151
M16
G05
G00X0.6759Y-0.9171
M15
G01X0.6759Y-0.9407
M16
G05
G00X0.6759Y-1.0718
M15
G01X0.6759Y-1.1151
M16
G05
T0
M30
