M48
; DRILL file {KiCad (6.0.0)} date Thu Apr 21 03:32:40 2022
; FORMAT={-:-/ absolute / inch / decimal}
; #@! TF.CreationDate,2022-04-21T03:32:40-07:00
; #@! TF.GenerationSoftware,Kicad,Pcbnew,(6.0.0)
; #@! TF.FileFunction,NonPlated,1,2,NPTH
FMAT,2
INCH
; #@! TA.AperFunction,NonPlated,NPTH,ComponentDrill
T1C0.0390
; #@! TA.AperFunction,NonPlated,NPTH,ComponentDrill
T2C0.0630
; #@! TA.AperFunction,NonPlated,NPTH,ComponentDrill
T3C0.0670
; #@! TA.AperFunction,NonPlated,NPTH,ComponentDrill
T4C0.1181
; #@! TA.AperFunction,NonPlated,NPTH,ComponentDrill
T5C0.1260
; #@! TA.AperFunction,NonPlated,NPTH,ComponentDrill
T6C0.1350
; #@! TA.AperFunction,NonPlated,NPTH,ComponentDrill
T7C0.1570
%
G90
G05
T1
X0.2871Y-2.9344
X0.4808Y-2.2118
X0.6744Y-1.4893
X1.119Y-2.872
X1.3127Y-2.1494
X1.5063Y-1.4269
X1.969Y-2.5902
X2.1626Y-1.8677
X2.3562Y-1.1451
X2.7425Y-2.5937
X2.9361Y-1.8711
X3.1297Y-1.1486
X3.1695Y-3.8901
X3.414Y-2.9774
X3.6077Y-2.2549
X3.8013Y-1.5323
X3.9612Y-4.2164
X4.1111Y-3.2661
X4.3047Y-2.5436
X4.4983Y-1.821
X4.6843Y-4.6752
X6.2164Y-4.4396
X6.4627Y-1.7147
X6.6563Y-2.4373
X6.8499Y-3.1598
X6.9753Y-4.0428
X7.1598Y-1.4261
X7.3534Y-2.1486
X7.547Y-2.8711
X7.7916Y-3.7838
X7.8314Y-1.0423
X8.025Y-1.7648
X8.2186Y-2.4874
X8.6049Y-1.0388
X8.7985Y-1.7614
X8.9921Y-2.4839
X9.4548Y-1.3206
X9.6484Y-2.0431
X9.842Y-2.7657
X10.2867Y-1.383
X10.4803Y-2.1055
X10.6739Y-2.8281
T2
X2.0305Y-3.9577
X9.0097Y-3.8464
T3
X-0.1633Y-2.9849
X-0.1473Y-2.9891
X0.0303Y-2.2623
X0.0463Y-2.2666
X0.2239Y-1.5398
X0.239Y-3.0927
X0.2399Y-1.5441
X0.255Y-3.097
X0.4326Y-2.3701
X0.4486Y-2.3744
X0.6262Y-1.6476
X0.6422Y-1.6519
X0.6686Y-2.9225
X0.6846Y-2.9267
X0.8622Y-2.1999
X0.8782Y-2.2042
X1.0558Y-1.4774
X1.0709Y-3.0303
X1.0718Y-1.4817
X1.0869Y-3.0345
X1.2645Y-2.3077
X1.2805Y-2.312
X1.4581Y-1.5852
X1.4741Y-1.5895
X1.5185Y-2.6407
X1.5345Y-2.645
X1.7121Y-1.9182
X1.7281Y-1.9224
X1.9057Y-1.1956
X1.9208Y-2.7485
X1.9217Y-1.1999
X1.9368Y-2.7528
X2.1144Y-2.026
X2.1304Y-2.0302
X2.292Y-2.6442
X2.308Y-2.6484
X2.308Y-1.3034
X2.324Y-1.3077
X2.4856Y-1.9216
X2.5016Y-1.9259
X2.6792Y-1.1991
X2.6943Y-2.752
X2.6952Y-1.2034
X2.7103Y-2.7563
X2.719Y-3.9406
X2.735Y-3.9449
X2.8879Y-2.0294
X2.9039Y-2.0337
X2.9636Y-3.0279
X2.9796Y-3.0322
X3.0815Y-1.3069
X3.0975Y-1.3112
X3.1214Y-4.0484
X3.1373Y-4.0527
X3.1572Y-2.3054
X3.1732Y-2.3097
X3.3508Y-1.5828
X3.3659Y-3.1357
X3.3668Y-1.5871
X3.3819Y-3.14
X3.5089Y-4.1879
X3.5238Y-4.1949
X3.5595Y-2.4132
X3.5755Y-2.4175
X3.6607Y-3.3166
X3.6766Y-3.3209
X3.7531Y-1.6906
X3.7691Y-1.6949
X3.8543Y-2.594
X3.8702Y-2.5983
X3.8864Y-4.3639
X3.9013Y-4.3709
X4.0479Y-1.8715
X4.063Y-3.4244
X4.0638Y-1.8758
X4.079Y-3.4287
X4.2437Y-4.5686
X4.2566Y-2.7019
X4.2573Y-4.5781
X4.2726Y-2.7061
X4.4502Y-1.9793
X4.4662Y-1.9836
X4.5849Y-4.8075
X4.5985Y-4.817
X5.9656Y-4.8171
X5.9791Y-4.8076
X6.0979Y-1.9837
X6.1138Y-1.9794
X6.2915Y-2.7062
X6.3068Y-4.5782
X6.3074Y-2.7019
X6.3203Y-4.5687
X6.4851Y-3.4288
X6.5002Y-1.8759
X6.5011Y-3.4245
X6.5162Y-1.8716
X6.6627Y-4.371
X6.6777Y-4.364
X6.6938Y-2.5984
X6.7098Y-2.5941
X6.7949Y-1.695
X6.8109Y-1.6907
X6.8874Y-3.321
X6.9034Y-3.3167
X6.9885Y-2.4175
X7.0045Y-2.4133
X7.0402Y-4.195
X7.0552Y-4.188
X7.1821Y-3.1401
X7.1973Y-1.5872
X7.1981Y-3.1358
X7.2133Y-1.5829
X7.3909Y-2.3097
X7.4069Y-2.3055
X7.4267Y-4.0528
X7.4427Y-4.0485
X7.4665Y-1.3113
X7.4825Y-1.307
X7.5845Y-3.0323
X7.6005Y-3.028
X7.6601Y-2.0338
X7.6761Y-2.0295
X7.829Y-3.945
X7.845Y-3.9407
X7.8537Y-2.7563
X7.8689Y-1.2035
X7.8697Y-2.7521
X7.8848Y-1.1992
X8.0625Y-1.926
X8.0785Y-1.9217
X8.24Y-1.3078
X8.256Y-1.3035
X8.2561Y-2.6485
X8.2721Y-2.6443
X8.4336Y-2.0303
X8.4496Y-2.0261
X8.6272Y-2.7529
X8.6424Y-1.2
X8.6432Y-2.7486
X8.6583Y-1.1957
X8.836Y-1.9225
X8.8519Y-1.9183
X9.0296Y-2.6451
X9.0455Y-2.6408
X9.0899Y-1.5895
X9.1059Y-1.5853
X9.2835Y-2.3121
X9.2995Y-2.3078
X9.4771Y-3.0346
X9.4923Y-1.4817
X9.4931Y-3.0304
X9.5083Y-1.4775
X9.6859Y-2.2043
X9.7019Y-2.2
X9.8795Y-2.9268
X9.8955Y-2.9225
X9.9218Y-1.652
X9.9378Y-1.6477
X10.1154Y-2.3745
X10.1314Y-2.3702
X10.309Y-3.097
X10.3242Y-1.5441
X10.325Y-3.0928
X10.3402Y-1.5399
X10.5178Y-2.2667
X10.5338Y-2.2624
X10.7114Y-2.9892
X10.7274Y-2.985
T4
X-0.1825Y-3.1326
X-0.1025Y-3.2082
X-0.0148Y-3.2672
X0.0111Y-2.41
X0.0911Y-2.4857
X0.1648Y-3.1763
X0.1788Y-2.5446
X0.2047Y-1.6875
X0.2847Y-1.7631
X0.3585Y-2.4538
X0.3724Y-1.8221
X0.5521Y-1.7312
X0.6494Y-3.0702
X0.7294Y-3.1458
X0.8171Y-3.2048
X0.843Y-2.3476
X0.923Y-2.4233
X0.9967Y-3.1139
X1.0107Y-2.4822
X1.0366Y-1.6251
X1.1166Y-1.7007
X1.1904Y-2.3914
X1.2043Y-1.7597
X1.384Y-1.6688
X1.4993Y-2.7884
X1.5793Y-2.8641
X1.667Y-2.923
X1.6929Y-2.0659
X1.7729Y-2.1415
X1.8467Y-2.8322
X1.8606Y-2.2005
X1.8865Y-1.3433
X1.9665Y-1.419
X2.0403Y-2.1096
X2.0542Y-1.4779
X2.2339Y-1.3871
X2.2728Y-2.7919
X2.3528Y-2.8675
X2.4405Y-2.9265
X2.4664Y-2.0693
X2.5464Y-2.145
X2.6202Y-2.8356
X2.6341Y-2.2039
X2.66Y-1.3468
X2.6998Y-4.0883
X2.74Y-1.4224
X2.7798Y-4.1639
X2.8138Y-2.1131
X2.8277Y-1.4814
X2.8676Y-4.2229
X2.9444Y-3.1756
X3.0074Y-1.3905
X3.0244Y-3.2513
X3.0472Y-4.1321
X3.1121Y-3.3102
X3.138Y-2.4531
X3.218Y-2.5287
X3.2917Y-3.2194
X3.3057Y-2.5877
X3.3316Y-1.7305
X3.4116Y-1.8062
X3.4643Y-4.33
X3.4854Y-2.4968
X3.4993Y-1.8651
X3.5299Y-4.4184
X3.6061Y-4.4917
X3.6415Y-3.4643
X3.679Y-1.7743
X3.7215Y-3.5399
X3.7988Y-4.4334
X3.8092Y-3.5989
X3.8351Y-2.7418
X3.9151Y-2.8174
X3.9888Y-3.508
X4.0028Y-2.8764
X4.0287Y-2.0192
X4.1087Y-2.0949
X4.1752Y-4.7008
X4.1824Y-2.7855
X4.1964Y-2.1538
X4.2245Y-4.7993
X4.2867Y-4.8847
X4.376Y-2.063
X4.4866Y-4.8608
X6.0664Y-4.9267
X6.1551Y-2.1212
X6.1757Y-4.9141
X6.2622Y-2.1467
X6.2773Y-4.8848
X6.3232Y-4.6888
X6.3487Y-2.8437
X6.3677Y-2.1539
X6.4558Y-2.8692
X6.4778Y-1.9854
X6.5423Y-3.5663
X6.5613Y-2.8765
X6.6494Y-3.5918
X6.6714Y-2.708
X6.7429Y-4.4965
X6.7549Y-3.599
X6.8522Y-1.8325
X6.8528Y-4.503
X6.865Y-3.4305
X6.9579Y-4.4918
X6.9593Y-1.858
X7.0372Y-4.3067
X7.0458Y-2.5551
X7.0647Y-1.8652
X7.1529Y-2.5806
X7.1749Y-1.6967
X7.2394Y-3.2776
X7.2583Y-2.5878
X7.3465Y-3.3031
X7.3685Y-2.4193
X7.4519Y-3.3103
X7.4839Y-4.1903
X7.5238Y-1.4488
X7.5621Y-3.1418
X7.591Y-4.2158
X7.6309Y-1.4743
X7.6965Y-4.223
X7.7174Y-2.1713
X7.7363Y-1.4815
X7.8066Y-4.0545
X7.8245Y-2.1968
X7.8465Y-1.313
X7.911Y-2.8939
X7.9299Y-2.204
X8.0181Y-2.9194
X8.0401Y-2.0355
X8.1235Y-2.9266
X8.2337Y-2.7581
X8.2973Y-1.4453
X8.4044Y-1.4708
X8.4909Y-2.1679
X8.5098Y-1.478
X8.598Y-2.1934
X8.62Y-1.3095
X8.6845Y-2.8904
X8.7034Y-2.2006
X8.7916Y-2.9159
X8.8136Y-2.0321
X8.897Y-2.9231
X9.0072Y-2.7546
X9.1472Y-1.7271
X9.2543Y-1.7526
X9.3408Y-2.4496
X9.3597Y-1.7598
X9.4479Y-2.4751
X9.4699Y-1.5913
X9.5344Y-3.1721
X9.5533Y-2.4823
X9.6415Y-3.1977
X9.6635Y-2.3138
X9.7469Y-3.2049
X9.8571Y-3.0364
X9.9791Y-1.7895
X10.0862Y-1.815
X10.1727Y-2.512
X10.1916Y-1.8222
X10.2798Y-2.5375
X10.3018Y-1.6537
X10.3663Y-3.2346
X10.3852Y-2.5447
X10.4734Y-3.2601
X10.4954Y-2.3762
X10.5788Y-3.2673
X10.689Y-3.0988
T5
X0.5417Y-3.5451
X1.6606Y-1.5234
X3.4306Y-3.8238
X3.7558Y-2.3514
X5.2854Y-5.0742
X6.7976Y-2.3274
X7.133Y-3.8258
X8.9106Y-1.5321
X10.0236Y-3.5427
T6
X0.0458Y-3.0409
X0.2394Y-2.3184
X0.4331Y-1.5958
X0.8777Y-2.9785
X1.0713Y-2.256
X1.265Y-1.5334
X1.7277Y-2.6967
X1.9213Y-1.9742
X2.1149Y-1.2517
X2.5011Y-2.7002
X2.6948Y-1.9777
X2.8884Y-1.2551
X2.9282Y-3.9966
X3.1727Y-3.084
X3.3663Y-2.3614
X3.56Y-1.6389
X3.7051Y-4.2794
X3.8698Y-3.3726
X4.0634Y-2.6501
X4.257Y-1.9275
X4.4211Y-4.6928
X6.1429Y-4.6929
X6.307Y-1.9276
X6.5006Y-2.6502
X6.6942Y-3.3727
X6.8589Y-4.2795
X7.0041Y-1.639
X7.1977Y-2.3615
X7.3913Y-3.084
X7.6359Y-3.9967
X7.6757Y-1.2552
X7.8693Y-1.9778
X8.0629Y-2.7003
X8.4492Y-1.2518
X8.6428Y-1.9743
X8.8364Y-2.6968
X9.2991Y-1.5335
X9.4927Y-2.256
X9.6863Y-2.9786
X10.131Y-1.5959
X10.3246Y-2.3185
X10.5182Y-3.041
T7
X0.0458Y-3.0409
X0.2394Y-2.3184
X0.4331Y-1.5958
X0.8777Y-2.9785
X1.0713Y-2.256
X1.265Y-1.5334
X1.7277Y-2.6967
X1.9213Y-1.9742
X2.1149Y-1.2517
X2.5011Y-2.7002
X2.6948Y-1.9777
X2.8884Y-1.2551
X2.9282Y-3.9966
X3.1727Y-3.084
X3.3663Y-2.3614
X3.56Y-1.6389
X3.7051Y-4.2794
X3.8698Y-3.3726
X4.0634Y-2.6501
X4.257Y-1.9275
X4.4211Y-4.6928
X6.1429Y-4.6929
X6.307Y-1.9276
X6.5006Y-2.6502
X6.6942Y-3.3727
X6.8589Y-4.2795
X7.0041Y-1.639
X7.1977Y-2.3615
X7.3913Y-3.084
X7.6359Y-3.9967
X7.6757Y-1.2552
X7.8693Y-1.9778
X8.0629Y-2.7003
X8.4492Y-1.2518
X8.6428Y-1.9743
X8.8364Y-2.6968
X9.2991Y-1.5335
X9.4927Y-2.256
X9.6863Y-2.9786
X10.131Y-1.5959
X10.3246Y-2.3185
X10.5182Y-3.041
T0
M30
