%TF.GenerationSoftware,KiCad,Pcbnew,(6.0.0)*%
%TF.CreationDate,2022-07-05T02:06:22-07:00*%
%TF.ProjectId,ffkb,66666b62-2e6b-4696-9361-645f70636258,rev?*%
%TF.SameCoordinates,Original*%
%TF.FileFunction,Profile,NP*%
%FSLAX46Y46*%
G04 Gerber Fmt 4.6, Leading zero omitted, Abs format (unit mm)*
G04 Created by KiCad (PCBNEW (6.0.0)) date 2022-07-05 02:06:22*
%MOMM*%
%LPD*%
G01*
G04 APERTURE LIST*
%TA.AperFunction,Profile*%
%ADD10C,0.050000*%
%TD*%
G04 APERTURE END LIST*
D10*
X128889754Y-95868573D02*
X147039753Y-95868566D01*
X147039753Y-95868566D02*
X147039754Y-98868574D01*
X147039754Y-98868574D02*
X128889761Y-98868566D01*
X128889761Y-98868566D02*
X128889754Y-95868573D01*
X-5353368Y-116004188D02*
G75*
G03*
X-4853368Y-116504188I500001J1D01*
G01*
X-4853366Y-21904184D02*
X279146633Y-21904184D01*
X279646633Y-22404184D02*
G75*
G03*
X279146633Y-21904184I-500001J-1D01*
G01*
X-4853366Y-21904184D02*
G75*
G03*
X-5353366Y-22404184I1J-500001D01*
G01*
X279646633Y-22404184D02*
X279646631Y-116004178D01*
X279146631Y-116504178D02*
G75*
G03*
X279646631Y-116004178I-1J500001D01*
G01*
X-4853368Y-116504188D02*
X279146631Y-116504178D01*
X-5353366Y-22404184D02*
X-5353368Y-116004188D01*
%TO.C,SW44*%
X56494031Y-87314935D02*
X44130181Y-84002051D01*
X51970339Y-88742770D02*
X53032858Y-89027471D01*
X44967377Y-86866332D02*
X46029896Y-87151032D01*
X56105803Y-88763823D02*
X54029062Y-88207363D01*
X44514693Y-85657995D02*
X43741952Y-85450940D01*
X43353043Y-84777330D02*
X43456571Y-84390960D01*
X51517655Y-87534433D02*
X47026100Y-86330925D01*
X56779390Y-88374884D02*
X56882940Y-87988545D01*
X46781151Y-86472346D02*
X46703505Y-86762124D01*
X51659076Y-87779382D02*
X51581431Y-88069160D01*
X44656114Y-85902944D02*
X44578468Y-86192722D01*
X53784113Y-88348784D02*
X53706467Y-88638562D01*
X44130180Y-84002051D02*
G75*
G03*
X43456571Y-84390960I-354482J-163836D01*
G01*
X47026100Y-86330925D02*
G75*
G03*
X46781151Y-86472346I-51763J-193186D01*
G01*
X44578468Y-86192721D02*
G75*
G03*
X44967377Y-86866332I163836J-354483D01*
G01*
X51659076Y-87779382D02*
G75*
G03*
X51517655Y-87534433I-193186J51763D01*
G01*
X53032858Y-89027471D02*
G75*
G03*
X53706467Y-88638562I354482J163836D01*
G01*
X56105803Y-88763823D02*
G75*
G03*
X56779390Y-88374884I354482J163835D01*
G01*
X51581430Y-88069159D02*
G75*
G03*
X51970339Y-88742770I163836J-354483D01*
G01*
X56882940Y-87988544D02*
G75*
G03*
X56494031Y-87314935I-163836J354482D01*
G01*
X44656114Y-85902944D02*
G75*
G03*
X44514693Y-85657995I-193186J51763D01*
G01*
X54029062Y-88207363D02*
G75*
G03*
X53784113Y-88348784I-51763J-193186D01*
G01*
X46029896Y-87151032D02*
G75*
G03*
X46703505Y-86762124I354482J163835D01*
G01*
X43353043Y-84777331D02*
G75*
G03*
X43741952Y-85450940I163836J-354482D01*
G01*
%TO.C,SW45*%
X231389444Y-84388180D02*
X219025594Y-87701064D01*
X228185730Y-87886567D02*
X229248248Y-87601866D01*
X231777673Y-85837068D02*
X229700932Y-86393530D01*
X229559511Y-86638479D02*
X229637157Y-86928257D01*
X222556549Y-88514917D02*
X222634194Y-88804695D01*
X232166546Y-85163444D02*
X232063054Y-84777089D01*
X220431512Y-89084319D02*
X220509158Y-89374097D01*
X227189525Y-87066459D02*
X222697970Y-88269968D01*
X218740213Y-88761044D02*
X218636685Y-88374674D01*
X227434474Y-87207881D02*
X227512120Y-87497658D01*
X221182767Y-89763005D02*
X222245286Y-89478304D01*
X220186563Y-88942897D02*
X219413822Y-89149953D01*
X218740213Y-88761044D02*
G75*
G03*
X219413822Y-89149953I319127J-225073D01*
G01*
X229700932Y-86393530D02*
G75*
G03*
X229559511Y-86638479I51765J-193186D01*
G01*
X229248248Y-87601866D02*
G75*
G03*
X229637157Y-86928257I225073J319127D01*
G01*
X220509158Y-89374097D02*
G75*
G03*
X221182767Y-89763005I319127J-225073D01*
G01*
X220431513Y-89084319D02*
G75*
G03*
X220186563Y-88942897I-193187J-51765D01*
G01*
X222245286Y-89478304D02*
G75*
G03*
X222634194Y-88804695I225073J319127D01*
G01*
X227512119Y-87497658D02*
G75*
G03*
X228185730Y-87886567I319128J-225073D01*
G01*
X227434475Y-87207881D02*
G75*
G03*
X227189525Y-87066459I-193187J-51765D01*
G01*
X222697970Y-88269968D02*
G75*
G03*
X222556549Y-88514917I51765J-193186D01*
G01*
X232063055Y-84777089D02*
G75*
G03*
X231389444Y-84388180I-319128J225073D01*
G01*
X219025594Y-87701063D02*
G75*
G03*
X218636685Y-88374674I-225073J-319128D01*
G01*
X231777673Y-85837068D02*
G75*
G03*
X232166546Y-85163444I225073J319126D01*
G01*
%TD*%
M02*
