%TF.GenerationSoftware,KiCad,Pcbnew,(6.0.0)*%
%TF.CreationDate,2022-06-18T03:58:35-07:00*%
%TF.ProjectId,ffkb,66666b62-2e6b-4696-9361-645f70636258,rev?*%
%TF.SameCoordinates,Original*%
%TF.FileFunction,Soldermask,Bot*%
%TF.FilePolarity,Negative*%
%FSLAX46Y46*%
G04 Gerber Fmt 4.6, Leading zero omitted, Abs format (unit mm)*
G04 Created by KiCad (PCBNEW (6.0.0)) date 2022-06-18 03:58:35*
%MOMM*%
%LPD*%
G01*
G04 APERTURE LIST*
G04 Aperture macros list*
%AMRoundRect*
0 Rectangle with rounded corners*
0 $1 Rounding radius*
0 $2 $3 $4 $5 $6 $7 $8 $9 X,Y pos of 4 corners*
0 Add a 4 corners polygon primitive as box body*
4,1,4,$2,$3,$4,$5,$6,$7,$8,$9,$2,$3,0*
0 Add four circle primitives for the rounded corners*
1,1,$1+$1,$2,$3*
1,1,$1+$1,$4,$5*
1,1,$1+$1,$6,$7*
1,1,$1+$1,$8,$9*
0 Add four rect primitives between the rounded corners*
20,1,$1+$1,$2,$3,$4,$5,0*
20,1,$1+$1,$4,$5,$6,$7,0*
20,1,$1+$1,$6,$7,$8,$9,0*
20,1,$1+$1,$8,$9,$2,$3,0*%
%AMHorizOval*
0 Thick line with rounded ends*
0 $1 width*
0 $2 $3 position (X,Y) of the first rounded end (center of the circle)*
0 $4 $5 position (X,Y) of the second rounded end (center of the circle)*
0 Add line between two ends*
20,1,$1,$2,$3,$4,$5,0*
0 Add two circle primitives to create the rounded ends*
1,1,$1,$2,$3*
1,1,$1,$4,$5*%
%AMRotRect*
0 Rectangle, with rotation*
0 The origin of the aperture is its center*
0 $1 length*
0 $2 width*
0 $3 Rotation angle, in degrees counterclockwise*
0 Add horizontal line*
21,1,$1,$2,0,0,$3*%
%AMFreePoly0*
4,1,22,0.500000,-0.750000,0.000000,-0.750000,0.000000,-0.745033,-0.079941,-0.743568,-0.215256,-0.701293,-0.333266,-0.622738,-0.424486,-0.514219,-0.481581,-0.384460,-0.499164,-0.250000,-0.500000,-0.250000,-0.500000,0.250000,-0.499164,0.250000,-0.499963,0.256109,-0.478152,0.396186,-0.417904,0.524511,-0.324060,0.630769,-0.204165,0.706417,-0.067858,0.745374,0.000000,0.744959,0.000000,0.750000,
0.500000,0.750000,0.500000,-0.750000,0.500000,-0.750000,$1*%
%AMFreePoly1*
4,1,20,0.000000,0.744959,0.073905,0.744508,0.209726,0.703889,0.328688,0.626782,0.421226,0.519385,0.479903,0.390333,0.500000,0.250000,0.500000,-0.250000,0.499851,-0.262216,0.476331,-0.402017,0.414519,-0.529596,0.319384,-0.634700,0.198574,-0.708877,0.061801,-0.746166,0.000000,-0.745033,0.000000,-0.750000,-0.500000,-0.750000,-0.500000,0.750000,0.000000,0.750000,0.000000,0.744959,
0.000000,0.744959,$1*%
G04 Aperture macros list end*
%ADD10RotRect,2.000000X2.000000X165.000000*%
%ADD11C,2.000000*%
%ADD12RotRect,2.000000X2.000000X15.000000*%
%ADD13HorizOval,2.000000X0.129410X0.482963X-0.129410X-0.482963X0*%
%ADD14C,1.524000*%
%ADD15HorizOval,1.524000X0.000000X0.000000X0.000000X0.000000X0*%
%ADD16HorizOval,2.000000X-0.129410X0.482963X0.129410X-0.482963X0*%
%ADD17HorizOval,1.524000X0.000000X0.000000X0.000000X0.000000X0*%
%ADD18C,3.429000*%
%ADD19C,1.701800*%
%ADD20C,3.000000*%
%ADD21C,0.990600*%
%ADD22C,3.987800*%
%ADD23RotRect,2.600000X2.600000X345.000000*%
%ADD24RotRect,2.550000X2.500000X165.000000*%
%ADD25RotRect,2.550000X2.500000X195.000000*%
%ADD26RotRect,2.600000X2.600000X15.000000*%
%ADD27R,2.600000X2.600000*%
%ADD28R,2.550000X2.500000*%
%ADD29R,2.000000X2.000000*%
%ADD30C,2.500000*%
%ADD31RoundRect,0.425000X0.425000X-0.425000X0.425000X0.425000X-0.425000X0.425000X-0.425000X-0.425000X0*%
%ADD32O,1.700000X1.700000*%
%ADD33O,1.600000X2.000000*%
%ADD34RoundRect,0.425000X0.300520X-0.520517X0.520517X0.300520X-0.300520X0.520517X-0.520517X-0.300520X0*%
%ADD35HorizOval,1.700000X0.000000X0.000000X0.000000X0.000000X0*%
%ADD36R,1.752600X1.752600*%
%ADD37C,1.752600*%
%ADD38O,6.000000X2.500000*%
%ADD39O,4.000000X2.500000*%
%ADD40RoundRect,0.425000X-0.300520X-0.520517X0.520517X-0.300520X0.300520X0.520517X-0.520517X0.300520X0*%
%ADD41HorizOval,1.700000X0.000000X0.000000X0.000000X0.000000X0*%
%ADD42RoundRect,0.425000X-0.520517X-0.300520X0.300520X-0.520517X0.520517X0.300520X-0.300520X0.520517X0*%
%ADD43HorizOval,1.700000X0.000000X0.000000X0.000000X0.000000X0*%
%ADD44RotRect,0.900000X1.200000X255.000000*%
%ADD45RotRect,0.900000X1.200000X285.000000*%
%ADD46RoundRect,0.249998X0.450002X-0.262502X0.450002X0.262502X-0.450002X0.262502X-0.450002X-0.262502X0*%
%ADD47R,1.800000X1.100000*%
%ADD48R,1.501140X0.899160*%
%ADD49R,1.200000X0.900000*%
%ADD50R,1.500000X2.000000*%
%ADD51R,3.800000X2.000000*%
%ADD52RoundRect,0.140000X0.140000X0.170000X-0.140000X0.170000X-0.140000X-0.170000X0.140000X-0.170000X0*%
%ADD53RoundRect,0.135000X-0.135000X-0.185000X0.135000X-0.185000X0.135000X0.185000X-0.135000X0.185000X0*%
%ADD54RoundRect,0.140000X-0.170000X0.140000X-0.170000X-0.140000X0.170000X-0.140000X0.170000X0.140000X0*%
%ADD55RoundRect,0.140000X0.170000X-0.140000X0.170000X0.140000X-0.170000X0.140000X-0.170000X-0.140000X0*%
%ADD56R,0.280000X1.250000*%
%ADD57R,1.800000X2.000000*%
%ADD58R,1.200000X1.400000*%
%ADD59RoundRect,0.135000X0.135000X0.185000X-0.135000X0.185000X-0.135000X-0.185000X0.135000X-0.185000X0*%
%ADD60RoundRect,0.135000X0.185000X-0.135000X0.185000X0.135000X-0.185000X0.135000X-0.185000X-0.135000X0*%
%ADD61RoundRect,0.250000X0.262500X0.450000X-0.262500X0.450000X-0.262500X-0.450000X0.262500X-0.450000X0*%
%ADD62FreePoly0,180.000000*%
%ADD63FreePoly1,180.000000*%
%ADD64R,0.900000X1.200000*%
%ADD65RoundRect,0.140000X-0.021213X0.219203X-0.219203X0.021213X0.021213X-0.219203X0.219203X-0.021213X0*%
%ADD66RoundRect,0.250000X-0.262500X-0.450000X0.262500X-0.450000X0.262500X0.450000X-0.262500X0.450000X0*%
%ADD67RoundRect,0.062500X-0.062500X0.375000X-0.062500X-0.375000X0.062500X-0.375000X0.062500X0.375000X0*%
%ADD68RoundRect,0.062500X-0.375000X0.062500X-0.375000X-0.062500X0.375000X-0.062500X0.375000X0.062500X0*%
%ADD69R,5.600000X5.600000*%
%ADD70RoundRect,0.250000X0.325000X0.650000X-0.325000X0.650000X-0.325000X-0.650000X0.325000X-0.650000X0*%
%ADD71FreePoly0,0.000000*%
%ADD72FreePoly1,0.000000*%
%ADD73RoundRect,0.140000X-0.140000X-0.170000X0.140000X-0.170000X0.140000X0.170000X-0.140000X0.170000X0*%
%ADD74C,0.650000*%
%ADD75R,0.600000X1.450000*%
%ADD76R,0.300000X1.450000*%
%ADD77O,1.000000X1.600000*%
%ADD78O,1.000000X2.100000*%
%ADD79RoundRect,0.150000X-0.150000X0.512500X-0.150000X-0.512500X0.150000X-0.512500X0.150000X0.512500X0*%
%ADD80RoundRect,0.135000X-0.185000X0.135000X-0.185000X-0.135000X0.185000X-0.135000X0.185000X0.135000X0*%
%ADD81RoundRect,0.243750X0.243750X0.456250X-0.243750X0.456250X-0.243750X-0.456250X0.243750X-0.456250X0*%
%ADD82RoundRect,0.250000X-0.450000X0.262500X-0.450000X-0.262500X0.450000X-0.262500X0.450000X0.262500X0*%
%ADD83RoundRect,0.147500X0.172500X-0.147500X0.172500X0.147500X-0.172500X0.147500X-0.172500X-0.147500X0*%
G04 APERTURE END LIST*
D10*
%TO.C,SW42*%
X54631885Y-98514605D03*
D11*
X55925980Y-93684976D03*
X55278933Y-96099791D03*
X41920056Y-89932100D03*
X40625961Y-94761729D03*
%TD*%
D12*
%TO.C,SW43*%
X219490108Y-93684727D03*
D11*
X220784203Y-98514356D03*
X220137155Y-96099542D03*
X234790127Y-94761480D03*
X233496032Y-89931851D03*
%TD*%
D13*
%TO.C,SW44*%
X42808528Y-98400601D03*
X45261979Y-99058001D03*
X47715431Y-99715402D03*
X50168882Y-100372802D03*
D14*
X39483699Y-99217921D03*
D15*
X40001337Y-97286070D03*
%TD*%
D16*
%TO.C,SW45*%
X225080283Y-100831400D03*
X227533735Y-100174000D03*
X229987187Y-99516600D03*
X232440638Y-98859199D03*
D14*
X222609557Y-103201635D03*
D17*
X222091919Y-101269783D03*
%TD*%
D18*
%TO.C,SW22*%
X44929071Y-69001606D03*
D19*
X40022168Y-67686805D03*
D20*
X39128870Y-71329733D03*
D21*
X51058244Y-66295753D03*
D20*
X43389098Y-74748865D03*
D19*
X49835974Y-70316407D03*
X39616479Y-67578101D03*
D22*
X44929071Y-69001606D03*
D20*
X47951848Y-72441158D03*
D19*
X50241663Y-70425111D03*
D20*
X41160819Y-73251109D03*
D23*
X35965463Y-70482100D03*
D24*
X37538597Y-72280537D03*
D23*
X46552505Y-75596497D03*
D24*
X51574070Y-73411730D03*
%TD*%
D20*
%TO.C,SW33*%
X75906549Y-104899602D03*
D19*
X84987393Y-102073604D03*
D21*
X85803974Y-97944246D03*
D22*
X79674801Y-100650099D03*
D19*
X74767898Y-99335298D03*
D18*
X79674801Y-100650099D03*
D19*
X74362209Y-99226594D03*
D20*
X78134828Y-106397358D03*
X82697578Y-104089651D03*
X73874600Y-102978226D03*
D19*
X84581704Y-101964900D03*
D23*
X70711193Y-102130593D03*
D24*
X72284327Y-103929030D03*
X86319800Y-105060223D03*
D23*
X81298235Y-107244990D03*
%TD*%
D19*
%TO.C,SW23*%
X69888345Y-70513032D03*
D20*
X58775552Y-71417654D03*
D21*
X70704926Y-66383674D03*
D19*
X59263161Y-67666022D03*
D20*
X60807501Y-73339030D03*
X63035780Y-74836786D03*
X67598530Y-72529079D03*
D19*
X69482656Y-70404328D03*
D18*
X64575753Y-69089527D03*
D22*
X64575753Y-69089527D03*
D19*
X59668850Y-67774726D03*
D23*
X55612145Y-70570021D03*
D24*
X57185279Y-72368458D03*
D23*
X66199187Y-75684418D03*
D24*
X71220752Y-73499651D03*
%TD*%
D19*
%TO.C,SW35*%
X126241702Y-108452904D03*
X116427896Y-105823302D03*
D21*
X127463972Y-104432250D03*
D20*
X115534598Y-109466230D03*
X117566547Y-111387606D03*
X124357576Y-110577655D03*
D19*
X126647391Y-108561608D03*
D20*
X119794826Y-112885362D03*
D19*
X116022207Y-105714598D03*
D18*
X121334799Y-107138103D03*
D22*
X121334799Y-107138103D03*
D24*
X113944325Y-110417034D03*
D23*
X112371191Y-108618597D03*
D24*
X127979798Y-111548227D03*
D23*
X122958233Y-113732994D03*
%TD*%
D20*
%TO.C,SW25*%
X102362577Y-89608646D03*
D18*
X99339800Y-86169094D03*
D22*
X99339800Y-86169094D03*
D20*
X93539599Y-88497221D03*
D19*
X104246703Y-87483895D03*
D20*
X95571548Y-90418597D03*
D19*
X94027208Y-84745589D03*
D21*
X105468973Y-83463241D03*
D19*
X94432897Y-84854293D03*
X104652392Y-87592599D03*
D20*
X97799827Y-91916353D03*
D24*
X91949326Y-89448025D03*
D23*
X90376192Y-87649588D03*
X100963234Y-92763985D03*
D24*
X105984799Y-90579218D03*
%TD*%
D22*
%TO.C,SW21*%
X23341248Y-76158113D03*
D20*
X19572996Y-80407616D03*
D19*
X18028656Y-74734608D03*
D20*
X26364025Y-79597665D03*
D19*
X28653840Y-77581618D03*
D21*
X29470421Y-73452260D03*
D20*
X21801275Y-81905372D03*
X17541047Y-78486240D03*
D19*
X18434345Y-74843312D03*
D18*
X23341248Y-76158113D03*
D19*
X28248151Y-77472914D03*
D24*
X15950774Y-79437044D03*
D23*
X14377640Y-77638607D03*
X24964682Y-82753004D03*
D24*
X29986247Y-80568237D03*
%TD*%
D20*
%TO.C,SW14*%
X85011848Y-66231393D03*
D22*
X86551821Y-60484134D03*
D19*
X91864413Y-61907639D03*
D21*
X92680994Y-57778281D03*
D18*
X86551821Y-60484134D03*
D20*
X80751620Y-62812261D03*
D19*
X91458724Y-61798935D03*
D20*
X82783569Y-64733637D03*
D19*
X81644918Y-59169333D03*
X81239229Y-59060629D03*
D20*
X89574598Y-63923686D03*
D23*
X77588213Y-61964628D03*
D24*
X79161347Y-63763065D03*
X93196820Y-64894258D03*
D23*
X88175255Y-67079025D03*
%TD*%
D19*
%TO.C,SW34*%
X107072391Y-108125598D03*
X106666702Y-108016894D03*
X96852896Y-105387292D03*
D21*
X107888972Y-103996240D03*
D20*
X95959598Y-109030220D03*
X97991547Y-110951596D03*
X100219826Y-112449352D03*
D19*
X96447207Y-105278588D03*
D22*
X101759799Y-106702093D03*
D20*
X104782576Y-110141645D03*
D18*
X101759799Y-106702093D03*
D23*
X92796191Y-108182587D03*
D24*
X94369325Y-109981024D03*
X108404798Y-111112217D03*
D23*
X103383233Y-113296984D03*
%TD*%
D21*
%TO.C,SW4*%
X97598547Y-39425691D03*
D20*
X87701122Y-46381047D03*
X85669173Y-44459671D03*
D19*
X86562471Y-40816743D03*
D20*
X89929401Y-47878803D03*
D19*
X96781966Y-43555049D03*
D20*
X94492151Y-45571096D03*
D22*
X91469374Y-42131544D03*
D19*
X86156782Y-40708039D03*
D18*
X91469374Y-42131544D03*
D19*
X96376277Y-43446345D03*
D24*
X84078900Y-45410475D03*
D23*
X82505766Y-43612038D03*
X93092808Y-48726435D03*
D24*
X98114373Y-46541668D03*
%TD*%
D20*
%TO.C,SW24*%
X77866006Y-83086224D03*
D19*
X86541161Y-80151522D03*
D20*
X80094285Y-84583980D03*
X75834057Y-81164848D03*
D19*
X76321666Y-77413216D03*
X76727355Y-77521920D03*
D18*
X81634258Y-78836721D03*
D21*
X87763431Y-76130868D03*
D20*
X84657035Y-82276273D03*
D19*
X86946850Y-80260226D03*
D22*
X81634258Y-78836721D03*
D24*
X74243784Y-82115652D03*
D23*
X72670650Y-80317215D03*
X83257692Y-85431612D03*
D24*
X88279257Y-83246845D03*
%TD*%
D20*
%TO.C,SW12*%
X48306662Y-56396272D03*
D21*
X55975808Y-47943160D03*
D19*
X44534043Y-49225508D03*
D20*
X44046434Y-52977140D03*
D22*
X49846635Y-50649013D03*
D19*
X44939732Y-49334212D03*
X54753538Y-51963814D03*
D20*
X46078383Y-54898516D03*
D18*
X49846635Y-50649013D03*
D20*
X52869412Y-54088565D03*
D19*
X55159227Y-52072518D03*
D24*
X42456161Y-53927944D03*
D23*
X40883027Y-52129507D03*
X51470069Y-57243904D03*
D24*
X56491634Y-55059137D03*
%TD*%
D19*
%TO.C,SW3*%
X69503976Y-31069545D03*
D20*
X77433656Y-35823898D03*
D19*
X79723471Y-33807851D03*
D18*
X74410879Y-32384346D03*
D20*
X72870906Y-38131605D03*
X70642627Y-36633849D03*
D19*
X69098287Y-30960841D03*
X79317782Y-33699147D03*
D21*
X80540052Y-29678493D03*
D20*
X68610678Y-34712473D03*
D22*
X74410879Y-32384346D03*
D24*
X67020405Y-35663277D03*
D23*
X65447271Y-33864840D03*
X76034313Y-38979237D03*
D24*
X81055878Y-36794470D03*
%TD*%
D19*
%TO.C,SW15*%
X109569961Y-69240022D03*
D22*
X104257369Y-67816517D03*
D21*
X110386542Y-65110664D03*
D20*
X98457168Y-70144644D03*
X107280146Y-71256069D03*
D19*
X98944777Y-66393012D03*
X99350466Y-66501716D03*
D18*
X104257369Y-67816517D03*
D20*
X102717396Y-73563776D03*
D19*
X109164272Y-69131318D03*
D20*
X100489117Y-72066020D03*
D24*
X96866895Y-71095448D03*
D23*
X95293761Y-69297011D03*
X105880803Y-74411408D03*
D24*
X110902368Y-72226641D03*
%TD*%
D20*
%TO.C,SW5*%
X112197697Y-52903464D03*
X103374719Y-51792039D03*
D19*
X114081823Y-50778713D03*
D22*
X109174920Y-49463912D03*
D19*
X104268017Y-48149111D03*
X114487512Y-50887417D03*
X103862328Y-48040407D03*
D18*
X109174920Y-49463912D03*
D20*
X107634947Y-55211171D03*
X105406668Y-53713415D03*
D21*
X115304093Y-46758059D03*
D23*
X100211312Y-50944406D03*
D24*
X101784446Y-52742843D03*
D23*
X110798354Y-56058803D03*
D24*
X115819919Y-53874036D03*
%TD*%
D20*
%TO.C,SW13*%
X65725072Y-54986439D03*
D19*
X74805916Y-52160441D03*
X64180732Y-49313431D03*
D20*
X67953351Y-56484195D03*
D21*
X75622497Y-48031083D03*
D18*
X69493324Y-50736936D03*
D20*
X63693123Y-53065063D03*
D22*
X69493324Y-50736936D03*
D19*
X74400227Y-52051737D03*
X64586421Y-49422135D03*
D20*
X72516101Y-54176488D03*
D23*
X60529716Y-52217430D03*
D24*
X62102850Y-54015867D03*
X76138323Y-55147060D03*
D23*
X71116758Y-57331827D03*
%TD*%
D18*
%TO.C,SW1*%
X33176377Y-39452922D03*
D19*
X38083280Y-40767723D03*
D20*
X36199154Y-42892474D03*
X27376176Y-41781049D03*
X31636404Y-45200181D03*
D19*
X38488969Y-40876427D03*
D22*
X33176377Y-39452922D03*
D19*
X28269474Y-38138121D03*
X27863785Y-38029417D03*
D21*
X39305550Y-36747069D03*
D20*
X29408125Y-43702425D03*
D24*
X25785903Y-42731853D03*
D23*
X24212769Y-40933416D03*
D24*
X39821376Y-43863046D03*
D23*
X34799811Y-46047813D03*
%TD*%
D19*
%TO.C,SW2*%
X49857292Y-30981620D03*
D18*
X54764195Y-32296421D03*
D20*
X53224222Y-38043680D03*
X50995943Y-36545924D03*
X57786972Y-35735973D03*
D21*
X60893368Y-29590568D03*
D19*
X49451603Y-30872916D03*
D22*
X54764195Y-32296421D03*
D19*
X59671098Y-33611222D03*
X60076787Y-33719926D03*
D20*
X48963994Y-34624548D03*
D23*
X45800587Y-33776915D03*
D24*
X47373721Y-35575352D03*
D23*
X56387629Y-38891312D03*
D24*
X61409194Y-36706545D03*
%TD*%
D18*
%TO.C,SW11*%
X28258808Y-57805516D03*
D20*
X22458607Y-60133643D03*
X26718835Y-63552775D03*
X24490556Y-62055019D03*
D19*
X33571400Y-59229021D03*
D21*
X34387981Y-55099663D03*
D19*
X33165711Y-59120317D03*
D22*
X28258808Y-57805516D03*
D19*
X22946216Y-56382011D03*
X23351905Y-56490715D03*
D20*
X31281585Y-61245068D03*
D24*
X20868334Y-61084447D03*
D23*
X19295200Y-59286010D03*
D24*
X34903807Y-62215640D03*
D23*
X29882242Y-64400407D03*
%TD*%
D20*
%TO.C,SW36*%
X158422858Y-108607230D03*
X152946629Y-112704183D03*
D18*
X154085280Y-107139879D03*
D19*
X158992183Y-105825078D03*
X149178377Y-108454680D03*
D22*
X154085280Y-107139879D03*
D19*
X148772688Y-108563384D03*
D20*
X155625253Y-112887138D03*
X150226222Y-112056196D03*
D19*
X159397872Y-105716374D03*
D21*
X158040373Y-101731955D03*
D25*
X149324407Y-113674754D03*
D26*
X147062815Y-112903828D03*
D25*
X162045080Y-107636659D03*
D26*
X158788660Y-112039505D03*
%TD*%
D21*
%TO.C,SW29*%
X234446060Y-63595953D03*
D19*
X225584064Y-70318678D03*
D18*
X230490967Y-69003877D03*
D19*
X235803559Y-67580372D03*
D22*
X230490967Y-69003877D03*
D19*
X225178375Y-70427382D03*
D20*
X234828545Y-70471228D03*
X229352316Y-74568181D03*
X226631909Y-73920194D03*
D19*
X235397870Y-67689076D03*
D20*
X232030940Y-74751136D03*
D25*
X225730094Y-75538752D03*
D26*
X223468502Y-74767826D03*
D25*
X238450767Y-69500657D03*
D26*
X235194347Y-73903503D03*
%TD*%
D22*
%TO.C,SW37*%
X173660335Y-106604183D03*
D19*
X168347743Y-108027688D03*
X168753432Y-107918984D03*
X178972927Y-105180678D03*
D20*
X172521684Y-112168487D03*
X175200308Y-112351442D03*
D21*
X177615428Y-101196259D03*
D19*
X178567238Y-105289382D03*
D18*
X173660335Y-106604183D03*
D20*
X177997913Y-108071534D03*
X169801277Y-111520500D03*
D25*
X168899462Y-113139058D03*
D26*
X166637870Y-112368132D03*
D25*
X181620135Y-107100963D03*
D26*
X178363715Y-111503809D03*
%TD*%
D19*
%TO.C,SW38*%
X200651828Y-99337081D03*
X190432333Y-102075387D03*
X201057517Y-99228377D03*
D20*
X194606274Y-106216186D03*
X200082503Y-102119233D03*
X197284898Y-106399141D03*
D19*
X190838022Y-101966683D03*
D22*
X195744925Y-100651882D03*
D18*
X195744925Y-100651882D03*
D20*
X191885867Y-105568199D03*
D21*
X199700018Y-95243958D03*
D25*
X190984052Y-107186757D03*
D26*
X188722460Y-106415831D03*
X200448305Y-105551508D03*
D25*
X203704725Y-101148662D03*
%TD*%
D20*
%TO.C,SW30*%
X256416379Y-77627742D03*
D19*
X256985704Y-74845590D03*
D18*
X252078801Y-76160391D03*
D21*
X256033894Y-70752467D03*
D19*
X257391393Y-74736886D03*
X246766209Y-77583896D03*
X247171898Y-77475192D03*
D20*
X248219743Y-81076708D03*
X250940150Y-81724695D03*
D22*
X252078801Y-76160391D03*
D20*
X253618774Y-81907650D03*
D25*
X247317928Y-82695266D03*
D26*
X245056336Y-81924340D03*
D25*
X260038601Y-76657171D03*
D26*
X256782181Y-81060017D03*
%TD*%
D20*
%TO.C,SW26*%
X177620222Y-91918635D03*
D19*
X170767657Y-87594881D03*
X181392841Y-84747871D03*
X180987152Y-84856575D03*
D20*
X172221191Y-91087693D03*
D19*
X171173346Y-87486177D03*
D22*
X176080249Y-86171376D03*
D21*
X180035342Y-80763452D03*
D20*
X180417827Y-87638727D03*
X174941598Y-91735680D03*
D18*
X176080249Y-86171376D03*
D25*
X171319376Y-92706251D03*
D26*
X169057784Y-91935325D03*
D25*
X184040049Y-86668156D03*
D26*
X180783629Y-91071002D03*
%TD*%
D20*
%TO.C,SW27*%
X192647147Y-84403314D03*
X198123376Y-80306361D03*
D21*
X197740891Y-73431086D03*
D22*
X193785798Y-78839010D03*
D19*
X188473206Y-80262515D03*
X188878895Y-80153811D03*
D18*
X193785798Y-78839010D03*
D19*
X199098390Y-77415505D03*
X198692701Y-77524209D03*
D20*
X189926740Y-83755327D03*
X195325771Y-84586269D03*
D25*
X189024925Y-85373885D03*
D26*
X186763333Y-84602959D03*
D25*
X201745598Y-79335790D03*
D26*
X198489178Y-83738636D03*
%TD*%
D19*
%TO.C,SW28*%
X205531690Y-70515312D03*
D22*
X210844282Y-69091807D03*
D19*
X216156874Y-67668302D03*
D20*
X206985224Y-74008124D03*
X212384255Y-74839066D03*
D19*
X215751185Y-67777006D03*
D18*
X210844282Y-69091807D03*
D21*
X214799375Y-63683883D03*
D20*
X215181860Y-70559158D03*
X209705631Y-74656111D03*
D19*
X205937379Y-70406608D03*
D26*
X203821817Y-74855756D03*
D25*
X206083409Y-75626682D03*
D26*
X215547662Y-73991433D03*
D25*
X218804082Y-69588587D03*
%TD*%
D19*
%TO.C,SW20*%
X241848645Y-59231302D03*
X252068140Y-56492996D03*
X252473829Y-56384292D03*
D21*
X251116330Y-52399873D03*
D20*
X243302179Y-62724114D03*
D18*
X247161237Y-57807797D03*
D20*
X248701210Y-63555056D03*
D19*
X242254334Y-59122598D03*
D20*
X251498815Y-59275148D03*
X246022586Y-63372101D03*
D22*
X247161237Y-57807797D03*
D26*
X240138772Y-63571746D03*
D25*
X242400364Y-64342672D03*
D26*
X251864617Y-62707423D03*
D25*
X255121037Y-58304577D03*
%TD*%
D20*
%TO.C,SW7*%
X180091615Y-47050139D03*
D19*
X189263265Y-40710317D03*
D21*
X187905766Y-36725898D03*
D18*
X183950673Y-42133822D03*
D20*
X185490646Y-47881081D03*
X182812022Y-47698126D03*
D19*
X178638081Y-43557327D03*
X188857576Y-40819021D03*
D20*
X188288251Y-43601173D03*
D19*
X179043770Y-43448623D03*
D22*
X183950673Y-42133822D03*
D25*
X179189800Y-48668697D03*
D26*
X176928208Y-47897771D03*
X188654053Y-47033448D03*
D25*
X191910473Y-42630602D03*
%TD*%
D19*
%TO.C,SW9*%
X215748943Y-33613501D03*
X225562749Y-30983899D03*
D20*
X219517195Y-37863004D03*
X222195819Y-38045959D03*
D22*
X220655846Y-32298700D03*
D19*
X225968438Y-30875195D03*
D21*
X224610939Y-26890776D03*
D20*
X224993424Y-33766051D03*
X216796788Y-37215017D03*
D19*
X215343254Y-33722205D03*
D18*
X220655846Y-32298700D03*
D25*
X215894973Y-38833575D03*
D26*
X213633381Y-38062649D03*
D25*
X228615646Y-32795480D03*
D26*
X225359226Y-37198326D03*
%TD*%
D22*
%TO.C,SW8*%
X201009158Y-32386632D03*
D20*
X202549131Y-38133891D03*
D19*
X206321750Y-30963127D03*
D20*
X205346736Y-33853983D03*
D18*
X201009158Y-32386632D03*
D19*
X205916061Y-31071831D03*
D20*
X199870507Y-37950936D03*
D19*
X196102255Y-33701433D03*
D20*
X197150100Y-37302949D03*
D21*
X204964251Y-26978708D03*
D19*
X195696566Y-33810137D03*
D26*
X193986693Y-38150581D03*
D25*
X196248285Y-38921507D03*
D26*
X205712538Y-37286258D03*
D25*
X208968958Y-32883412D03*
%TD*%
D20*
%TO.C,SW16*%
X170024038Y-73383097D03*
D19*
X176069592Y-66503992D03*
D20*
X175500267Y-69286144D03*
D22*
X171162689Y-67818793D03*
D19*
X176475281Y-66395288D03*
X166255786Y-69133594D03*
D21*
X175117782Y-62410869D03*
D20*
X167303631Y-72735110D03*
D18*
X171162689Y-67818793D03*
D20*
X172702662Y-73566052D03*
D19*
X165850097Y-69242298D03*
D25*
X166401816Y-74353668D03*
D26*
X164140224Y-73582742D03*
D25*
X179122489Y-68315573D03*
D26*
X175866069Y-72718419D03*
%TD*%
D21*
%TO.C,SW19*%
X229528504Y-45243373D03*
D20*
X227113384Y-56398556D03*
X221714353Y-55567614D03*
D22*
X225573411Y-50651297D03*
D19*
X220666508Y-51966098D03*
X220260819Y-52074802D03*
D20*
X224434760Y-56215601D03*
D19*
X230886003Y-49227792D03*
X230480314Y-49336496D03*
D20*
X229910989Y-52118648D03*
D18*
X225573411Y-50651297D03*
D26*
X218550946Y-56415246D03*
D25*
X220812538Y-57186172D03*
X233533211Y-51148077D03*
D26*
X230276791Y-55550923D03*
%TD*%
D19*
%TO.C,SW17*%
X193775129Y-59171614D03*
X183555634Y-61909920D03*
D18*
X188868226Y-60486415D03*
D22*
X188868226Y-60486415D03*
D20*
X193205804Y-61953766D03*
D19*
X194180818Y-59062910D03*
D20*
X190408199Y-66233674D03*
X187729575Y-66050719D03*
D21*
X192823319Y-55078491D03*
D20*
X185009168Y-65402732D03*
D19*
X183961323Y-61801216D03*
D26*
X181845761Y-66250364D03*
D25*
X184107353Y-67021290D03*
X196828026Y-60983195D03*
D26*
X193571606Y-65386041D03*
%TD*%
D18*
%TO.C,SW18*%
X205926724Y-50739215D03*
D19*
X201019821Y-52054016D03*
D20*
X204788073Y-56303519D03*
D21*
X209881817Y-45331291D03*
D19*
X200614132Y-52162720D03*
D20*
X210264302Y-52206566D03*
X202067666Y-55655532D03*
X207466697Y-56486474D03*
D22*
X205926724Y-50739215D03*
D19*
X211239316Y-49315710D03*
X210833627Y-49424414D03*
D25*
X201165851Y-57274090D03*
D26*
X198904259Y-56503164D03*
X210630104Y-55638841D03*
D25*
X213886524Y-51235995D03*
%TD*%
D20*
%TO.C,SW10*%
X243783647Y-45202467D03*
X246581252Y-40922559D03*
D19*
X237336771Y-40770009D03*
X236931082Y-40878713D03*
X247150577Y-38140407D03*
X247556266Y-38031703D03*
D22*
X242243674Y-39455208D03*
D18*
X242243674Y-39455208D03*
D20*
X238384616Y-44371525D03*
D21*
X246198767Y-34047284D03*
D20*
X241105023Y-45019512D03*
D26*
X235221209Y-45219157D03*
D25*
X237482801Y-45990083D03*
X250203474Y-39951988D03*
D26*
X246947054Y-44354834D03*
%TD*%
D18*
%TO.C,SW6*%
X166245124Y-49466203D03*
D20*
X170582702Y-50933554D03*
D21*
X170200217Y-44058279D03*
D20*
X165106473Y-55030507D03*
D22*
X166245124Y-49466203D03*
D19*
X171152027Y-48151402D03*
X171557716Y-48042698D03*
D20*
X167785097Y-55213462D03*
D19*
X160932532Y-50889708D03*
X161338221Y-50781004D03*
D20*
X162386066Y-54382520D03*
D25*
X161484251Y-56001078D03*
D26*
X159222659Y-55230152D03*
X170948504Y-54365829D03*
D25*
X174204924Y-49962983D03*
%TD*%
D20*
%TO.C,SW31*%
X10506143Y-46785291D03*
D19*
X7139213Y-39723231D03*
D21*
X18175289Y-38332179D03*
D20*
X6245915Y-43366159D03*
D19*
X16953019Y-42352833D03*
D22*
X12046116Y-41038032D03*
D18*
X12046116Y-41038032D03*
D19*
X6733524Y-39614527D03*
X17358708Y-42461537D03*
D20*
X8277864Y-45287535D03*
X15068893Y-44477584D03*
D24*
X4655642Y-44316963D03*
D23*
X3082508Y-42518526D03*
D24*
X18691115Y-45448156D03*
D23*
X13669550Y-47632923D03*
%TD*%
D18*
%TO.C,SW32*%
X263373917Y-41040304D03*
D19*
X268686509Y-39616799D03*
D20*
X267711495Y-42507655D03*
D19*
X268280820Y-39725503D03*
X258061325Y-42463809D03*
D22*
X263373917Y-41040304D03*
D20*
X259514859Y-45956621D03*
X264913890Y-46787563D03*
D21*
X267329010Y-35632380D03*
D19*
X258467014Y-42355105D03*
D20*
X262235266Y-46604608D03*
D26*
X256351452Y-46804253D03*
D25*
X258613044Y-47575179D03*
D26*
X268077297Y-45939930D03*
D25*
X271333717Y-41537084D03*
%TD*%
D19*
%TO.C,SW39*%
X12441156Y-60814128D03*
D20*
X5588591Y-65137882D03*
X3360312Y-63640126D03*
D18*
X7128564Y-59390623D03*
D22*
X7128564Y-59390623D03*
D20*
X10151341Y-62830175D03*
D21*
X13257737Y-56684770D03*
D19*
X12035467Y-60705424D03*
D20*
X1328363Y-61718750D03*
D19*
X2221661Y-58075822D03*
X1815972Y-57967118D03*
D23*
X-1835044Y-60871117D03*
D24*
X-261910Y-62669554D03*
X13773563Y-63800747D03*
D23*
X8751998Y-65985514D03*
%TD*%
D20*
%TO.C,SW40*%
X267152830Y-64957211D03*
X272629059Y-60860258D03*
X264432423Y-64309224D03*
D22*
X268291481Y-59392907D03*
D19*
X262978889Y-60816412D03*
X273198384Y-58078106D03*
D21*
X272246574Y-53984983D03*
D19*
X273604073Y-57969402D03*
D18*
X268291481Y-59392907D03*
D19*
X263384578Y-60707708D03*
D20*
X269831454Y-65140166D03*
D25*
X263530608Y-65927782D03*
D26*
X261269016Y-65156856D03*
D25*
X276251281Y-59889687D03*
D26*
X272994861Y-64292533D03*
%TD*%
D22*
%TO.C,SW46*%
X9046633Y-102034180D03*
D18*
X9046633Y-102034180D03*
D19*
X3966633Y-102034180D03*
D20*
X4046633Y-105784180D03*
X12856633Y-104574180D03*
D19*
X14126633Y-102034180D03*
D20*
X9046633Y-107984180D03*
D21*
X14266633Y-97834180D03*
D19*
X14546633Y-102034180D03*
D20*
X6506633Y-107114180D03*
D19*
X3546633Y-102034180D03*
D27*
X771633Y-105784180D03*
D28*
X2756633Y-107114180D03*
D27*
X12321633Y-107984180D03*
D28*
X16606633Y-104574180D03*
%TD*%
D22*
%TO.C,SW47*%
X265536633Y-102464176D03*
D19*
X260036633Y-102464176D03*
X270616633Y-102464176D03*
D21*
X270756633Y-98264176D03*
D20*
X265536633Y-108414176D03*
X269346633Y-105004176D03*
X260536633Y-106214176D03*
X262996633Y-107544176D03*
D19*
X271036633Y-102464176D03*
X260456633Y-102464176D03*
D18*
X265536633Y-102464176D03*
D27*
X257261633Y-106214176D03*
D28*
X259246633Y-107544176D03*
D27*
X268811633Y-108414176D03*
D28*
X273096633Y-105004176D03*
%TD*%
D29*
%TO.C,SW48*%
X130244891Y-80429260D03*
D11*
X130244891Y-85429260D03*
X130244891Y-82929260D03*
X144744891Y-85429260D03*
X144744891Y-80429260D03*
%TD*%
D30*
%TO.C,*%
X19846632Y-51304180D03*
%TD*%
D31*
%TO.C,J5*%
X112136636Y-34004178D03*
D32*
X114676636Y-34004178D03*
X117216636Y-34004178D03*
X119756636Y-34004178D03*
%TD*%
D33*
%TO.C,Brd1*%
X141026629Y-79654188D03*
X138486629Y-79654188D03*
X135946629Y-79654188D03*
X133406629Y-79654188D03*
%TD*%
D34*
%TO.C,J6*%
X81374904Y-69505283D03*
D35*
X83828355Y-70162684D03*
X86281807Y-70820084D03*
X88735258Y-71477485D03*
%TD*%
D36*
%TO.C,U4*%
X130076635Y-25934179D03*
D37*
X130076635Y-28474179D03*
X130076635Y-31014179D03*
X130076635Y-33554179D03*
X130076635Y-36094179D03*
X130076635Y-38634179D03*
X130076635Y-41174179D03*
X130076635Y-43714179D03*
X130076635Y-46254179D03*
X130076635Y-48794179D03*
X130076635Y-51334179D03*
X130305235Y-53874179D03*
X145316635Y-53874179D03*
X145316635Y-51334179D03*
X145316635Y-48794179D03*
X145316635Y-46254179D03*
X145316635Y-43714179D03*
X145316635Y-41174179D03*
X145316635Y-38634179D03*
X145316635Y-36094179D03*
X145316635Y-33554179D03*
X145316635Y-31014179D03*
X145316635Y-28474179D03*
X145316635Y-25934179D03*
X132616635Y-53874179D03*
X135156635Y-53874179D03*
X137696635Y-53874179D03*
X140236635Y-53874179D03*
X142776635Y-53874179D03*
%TD*%
D38*
%TO.C,*%
X-4353365Y-78404181D03*
%TD*%
D39*
%TO.C,*%
X122846632Y-68904181D03*
%TD*%
D38*
%TO.C,*%
X278646634Y-78404178D03*
%TD*%
D40*
%TO.C,J1*%
X154913208Y-69954808D03*
D41*
X155570609Y-72408259D03*
X156228009Y-74861711D03*
X156885410Y-77315162D03*
X157542810Y-79768614D03*
X158200210Y-82222066D03*
X158857611Y-84675517D03*
%TD*%
D42*
%TO.C,J4*%
X119841103Y-79501908D03*
D43*
X119183702Y-81955359D03*
X118526302Y-84408811D03*
X117868901Y-86862262D03*
X117211501Y-89315714D03*
%TD*%
D39*
%TO.C,*%
X254696634Y-49804184D03*
%TD*%
%TO.C,*%
X185146632Y-107104178D03*
%TD*%
D44*
%TO.C,D81*%
X38425375Y-92194704D03*
X37571273Y-95382260D03*
%TD*%
D45*
%TO.C,D82*%
X217410064Y-100865542D03*
X218264166Y-104053098D03*
%TD*%
D46*
%TO.C,R4*%
X149246631Y-33216685D03*
X149246631Y-31391685D03*
%TD*%
D47*
%TO.C,SW41*%
X126196969Y-73348497D03*
X119996969Y-77048497D03*
X126196969Y-77048497D03*
X119996969Y-73348497D03*
%TD*%
D44*
%TO.C,D3*%
X66998455Y-28172357D03*
X66144353Y-31359913D03*
%TD*%
%TO.C,D5*%
X101762494Y-45251918D03*
X100908392Y-48439474D03*
%TD*%
%TO.C,D4*%
X84056954Y-37919540D03*
X83202852Y-41107096D03*
%TD*%
%TO.C,D1*%
X25763939Y-35240935D03*
X24909837Y-38428491D03*
%TD*%
%TO.C,D2*%
X47351767Y-28084419D03*
X46497665Y-31271975D03*
%TD*%
%TO.C,D12*%
X42434204Y-46437007D03*
X41580102Y-49624563D03*
%TD*%
%TO.C,D14*%
X79139383Y-56272130D03*
X78285281Y-59459686D03*
%TD*%
%TO.C,D13*%
X62080889Y-46524940D03*
X61226787Y-49712496D03*
%TD*%
%TO.C,D15*%
X96844934Y-63604512D03*
X95990832Y-66792068D03*
%TD*%
%TO.C,D22*%
X38091346Y-62872527D03*
X37237244Y-66060083D03*
%TD*%
%TO.C,D25*%
X91927379Y-81957100D03*
X91073277Y-85144656D03*
%TD*%
%TO.C,D24*%
X74221825Y-74624727D03*
X73367723Y-77812283D03*
%TD*%
%TO.C,D23*%
X57163334Y-64877544D03*
X56309232Y-68065100D03*
%TD*%
%TO.C,D21*%
X15928812Y-71946108D03*
X15074710Y-75133664D03*
%TD*%
%TO.C,D11*%
X20846381Y-53593526D03*
X19992279Y-56781082D03*
%TD*%
D48*
%TO.C,D41*%
X-2652729Y-51004382D03*
X-2652729Y-47803982D03*
X2345991Y-47803982D03*
X2345991Y-51004382D03*
%TD*%
D44*
%TO.C,D33*%
X72332374Y-95762551D03*
X71478272Y-98950107D03*
%TD*%
%TO.C,D34*%
X94673685Y-100710404D03*
X93819583Y-103897960D03*
%TD*%
%TO.C,D35*%
X114273686Y-101210407D03*
X113419584Y-104397963D03*
%TD*%
D45*
%TO.C,D9*%
X212130504Y-32357211D03*
X212984606Y-35544767D03*
%TD*%
%TO.C,D10*%
X233553017Y-39217799D03*
X234407119Y-42405355D03*
%TD*%
%TO.C,D7*%
X175425329Y-42192341D03*
X176279431Y-45379897D03*
%TD*%
%TO.C,D8*%
X192483816Y-32445147D03*
X193337918Y-35632703D03*
%TD*%
%TO.C,D6*%
X157719787Y-49524716D03*
X158573889Y-52712272D03*
%TD*%
%TO.C,D19*%
X217036855Y-50667982D03*
X217890957Y-53855538D03*
%TD*%
%TO.C,D17*%
X180119584Y-60210397D03*
X180973686Y-63397953D03*
%TD*%
%TO.C,D26*%
X167554898Y-86229891D03*
X168409000Y-89417447D03*
%TD*%
%TO.C,D16*%
X162637343Y-67877299D03*
X163491445Y-71064855D03*
%TD*%
%TO.C,D18*%
X197084068Y-50647496D03*
X197938170Y-53835052D03*
%TD*%
%TO.C,D28*%
X202318938Y-69150323D03*
X203173040Y-72337879D03*
%TD*%
%TO.C,D27*%
X185260443Y-78897516D03*
X186114545Y-82085072D03*
%TD*%
%TO.C,D20*%
X238635888Y-57866319D03*
X239489990Y-61053875D03*
%TD*%
%TO.C,D36*%
X144919579Y-105310399D03*
X145773681Y-108497955D03*
%TD*%
%TO.C,D38*%
X187219576Y-100710403D03*
X188073678Y-103897959D03*
%TD*%
%TO.C,D29*%
X221965628Y-69062394D03*
X222819730Y-72249950D03*
%TD*%
%TO.C,D30*%
X243553450Y-76218901D03*
X244407552Y-79406457D03*
%TD*%
%TO.C,D37*%
X165134984Y-106662700D03*
X165989086Y-109850256D03*
%TD*%
D44*
%TO.C,D31*%
X4573689Y-36775195D03*
X3719587Y-39962751D03*
%TD*%
D45*
%TO.C,D32*%
X254786789Y-41189269D03*
X255640891Y-44376825D03*
%TD*%
D44*
%TO.C,D39*%
X139965Y-54160213D03*
X-714137Y-57347769D03*
%TD*%
D45*
%TO.C,D40*%
X259775066Y-59419386D03*
X260629168Y-62606942D03*
%TD*%
D49*
%TO.C,D44*%
X246635Y-99554182D03*
X246635Y-102854182D03*
%TD*%
%TO.C,D51*%
X257197143Y-100095578D03*
X257197143Y-103395578D03*
%TD*%
%TO.C,D87*%
X149524889Y-83719264D03*
X149524889Y-80419264D03*
%TD*%
D50*
%TO.C,U2*%
X121646629Y-90354181D03*
X123946629Y-90354181D03*
D51*
X123946629Y-96654181D03*
D50*
X126246629Y-90354181D03*
%TD*%
D52*
%TO.C,C14*%
X145126634Y-71804183D03*
X144166634Y-71804183D03*
%TD*%
%TO.C,C3*%
X134526633Y-64204183D03*
X133566633Y-64204183D03*
%TD*%
D48*
%TO.C,D46*%
X85247273Y-114004378D03*
X85247273Y-110803978D03*
X90245993Y-110803978D03*
X90245993Y-114004378D03*
%TD*%
%TO.C,D55*%
X198347270Y-27504380D03*
X198347270Y-24303980D03*
X203345990Y-24303980D03*
X203345990Y-27504380D03*
%TD*%
D53*
%TO.C,R10*%
X15736632Y-36104185D03*
X16756632Y-36104185D03*
%TD*%
D54*
%TO.C,C12*%
X131646635Y-65124181D03*
X131646635Y-66084181D03*
%TD*%
D48*
%TO.C,D47*%
X135347273Y-114004377D03*
X135347273Y-110803977D03*
X140345993Y-110803977D03*
X140345993Y-114004377D03*
%TD*%
D55*
%TO.C,C8*%
X141221628Y-59134184D03*
X141221628Y-58174184D03*
%TD*%
D52*
%TO.C,C13*%
X8626637Y-76704183D03*
X7666637Y-76704183D03*
%TD*%
D48*
%TO.C,D70*%
X110847274Y-27704380D03*
X110847274Y-24503980D03*
X115845994Y-24503980D03*
X115845994Y-27704380D03*
%TD*%
%TO.C,D56*%
X159647277Y-27704376D03*
X159647277Y-24503976D03*
X164645997Y-24503976D03*
X164645997Y-27704376D03*
%TD*%
%TO.C,D83*%
X25847273Y-27704379D03*
X25847273Y-24503979D03*
X30845993Y-24503979D03*
X30845993Y-27704379D03*
%TD*%
D56*
%TO.C,J3*%
X135096632Y-107072184D03*
X135596632Y-107072184D03*
X136096632Y-107072184D03*
X136596632Y-107072184D03*
X137096632Y-107072184D03*
X137596632Y-107072184D03*
X138096632Y-107072184D03*
X138596632Y-107072184D03*
X139096632Y-107072184D03*
X139596632Y-107072184D03*
X140096632Y-107072184D03*
X140596632Y-107072184D03*
D57*
X142396632Y-104348184D03*
X133296632Y-104348184D03*
%TD*%
D58*
%TO.C,Y1*%
X136171638Y-59854185D03*
X136171638Y-57654185D03*
X137871638Y-57654185D03*
X137871638Y-59854185D03*
%TD*%
D59*
%TO.C,R5*%
X127856631Y-68304182D03*
X126836631Y-68304182D03*
%TD*%
D60*
%TO.C,R6*%
X139446633Y-77214181D03*
X139446633Y-76194181D03*
%TD*%
D61*
%TO.C,R2*%
X125859128Y-80904187D03*
X124034128Y-80904187D03*
%TD*%
D48*
%TO.C,D53*%
X271847275Y-51004388D03*
X271847275Y-47803988D03*
X276845995Y-47803988D03*
X276845995Y-51004388D03*
%TD*%
D55*
%TO.C,C9*%
X144146635Y-73984178D03*
X144146635Y-73024178D03*
%TD*%
D62*
%TO.C,JP3*%
X120596633Y-23404185D03*
D63*
X119296633Y-23404185D03*
%TD*%
D61*
%TO.C,R1*%
X125859131Y-85804183D03*
X124034131Y-85804183D03*
%TD*%
D48*
%TO.C,D48*%
X186847275Y-113904390D03*
X186847275Y-110703990D03*
X191845995Y-110703990D03*
X191845995Y-113904390D03*
%TD*%
%TO.C,D42*%
X-2652729Y-91204377D03*
X-2652729Y-88003977D03*
X2345991Y-88003977D03*
X2345991Y-91204377D03*
%TD*%
D64*
%TO.C,D88*%
X9896632Y-33104180D03*
X13196632Y-33104180D03*
%TD*%
D48*
%TO.C,D49*%
X221247272Y-113904380D03*
X221247272Y-110703980D03*
X226245992Y-110703980D03*
X226245992Y-113904380D03*
%TD*%
%TO.C,D77*%
X70847269Y-27704382D03*
X70847269Y-24503982D03*
X75845989Y-24503982D03*
X75845989Y-27704382D03*
%TD*%
D65*
%TO.C,C7*%
X140839411Y-60260589D03*
X140160589Y-60939411D03*
%TD*%
D66*
%TO.C,R11*%
X7185382Y-73529882D03*
X9010382Y-73529882D03*
%TD*%
D67*
%TO.C,U3*%
X135096634Y-65666678D03*
X135596634Y-65666678D03*
X136096634Y-65666678D03*
X136596634Y-65666678D03*
X137096634Y-65666678D03*
X137596634Y-65666678D03*
X138096634Y-65666678D03*
X138596634Y-65666678D03*
X139096634Y-65666678D03*
X139596634Y-65666678D03*
X140096634Y-65666678D03*
X140596634Y-65666678D03*
D68*
X141284134Y-66354178D03*
X141284134Y-66854178D03*
X141284134Y-67354178D03*
X141284134Y-67854178D03*
X141284134Y-68354178D03*
X141284134Y-68854178D03*
X141284134Y-69354178D03*
X141284134Y-69854178D03*
X141284134Y-70354178D03*
X141284134Y-70854178D03*
X141284134Y-71354178D03*
X141284134Y-71854178D03*
D67*
X140596634Y-72541678D03*
X140096634Y-72541678D03*
X139596634Y-72541678D03*
X139096634Y-72541678D03*
X138596634Y-72541678D03*
X138096634Y-72541678D03*
X137596634Y-72541678D03*
X137096634Y-72541678D03*
X136596634Y-72541678D03*
X136096634Y-72541678D03*
X135596634Y-72541678D03*
X135096634Y-72541678D03*
D68*
X134409134Y-71854178D03*
X134409134Y-71354178D03*
X134409134Y-70854178D03*
X134409134Y-70354178D03*
X134409134Y-69854178D03*
X134409134Y-69354178D03*
X134409134Y-68854178D03*
X134409134Y-68354178D03*
X134409134Y-67854178D03*
X134409134Y-67354178D03*
X134409134Y-66854178D03*
X134409134Y-66354178D03*
D69*
X137846634Y-69104178D03*
%TD*%
D70*
%TO.C,C1*%
X133721635Y-90404181D03*
X130771635Y-90404181D03*
%TD*%
D71*
%TO.C,JP2*%
X151896635Y-26004185D03*
D72*
X153196635Y-26004185D03*
%TD*%
D55*
%TO.C,C10*%
X8846639Y-36384180D03*
X8846639Y-35424180D03*
%TD*%
D73*
%TO.C,C11*%
X133041632Y-74904185D03*
X134001632Y-74904185D03*
%TD*%
D74*
%TO.C,J2*%
X15736637Y-27244185D03*
X9956637Y-27244185D03*
D75*
X9596637Y-28689185D03*
X10396637Y-28689185D03*
D76*
X11596637Y-28689185D03*
X12596637Y-28689185D03*
X13096637Y-28689185D03*
X14096637Y-28689185D03*
D75*
X15296637Y-28689185D03*
X16096637Y-28689185D03*
X16096637Y-28689185D03*
X15296637Y-28689185D03*
D76*
X14596637Y-28689185D03*
X13596637Y-28689185D03*
X12096637Y-28689185D03*
X11096637Y-28689185D03*
D75*
X10396637Y-28689185D03*
X9596637Y-28689185D03*
D77*
X17166637Y-23594185D03*
D78*
X17166637Y-27774185D03*
D77*
X8526637Y-23594185D03*
D78*
X8526637Y-27774185D03*
%TD*%
D54*
%TO.C,C6*%
X130346634Y-65124183D03*
X130346634Y-66084183D03*
%TD*%
D48*
%TO.C,D54*%
X250047269Y-27404384D03*
X250047269Y-24203984D03*
X255045989Y-24203984D03*
X255045989Y-27404384D03*
%TD*%
D54*
%TO.C,C4*%
X7746634Y-35424181D03*
X7746634Y-36384181D03*
%TD*%
D48*
%TO.C,D50*%
X253147273Y-114004381D03*
X253147273Y-110803981D03*
X258145993Y-110803981D03*
X258145993Y-114004381D03*
%TD*%
D79*
%TO.C,U1*%
X10596631Y-35266678D03*
X11546631Y-35266678D03*
X12496631Y-35266678D03*
X12496631Y-37541678D03*
X10596631Y-37541678D03*
%TD*%
D80*
%TO.C,R4*%
X139821633Y-58144181D03*
X139821633Y-59164181D03*
%TD*%
D53*
%TO.C,R9*%
X15736627Y-34904182D03*
X16756627Y-34904182D03*
%TD*%
D70*
%TO.C,C2*%
X133721637Y-93004183D03*
X130771637Y-93004183D03*
%TD*%
D80*
%TO.C,R7*%
X8546640Y-31894182D03*
X8546640Y-32914182D03*
%TD*%
D55*
%TO.C,C5*%
X134021633Y-59134183D03*
X134021633Y-58174183D03*
%TD*%
D48*
%TO.C,D45*%
X50347269Y-113904382D03*
X50347269Y-110703982D03*
X55345989Y-110703982D03*
X55345989Y-113904382D03*
%TD*%
%TO.C,D43*%
X15847274Y-113904384D03*
X15847274Y-110703984D03*
X20845994Y-110703984D03*
X20845994Y-113904384D03*
%TD*%
D47*
%TO.C,SW49*%
X26896629Y-69554178D03*
X20696629Y-73254178D03*
X26896629Y-73254178D03*
X20696629Y-69554178D03*
%TD*%
D48*
%TO.C,D52*%
X271947272Y-91204384D03*
X271947272Y-88003984D03*
X276945992Y-88003984D03*
X276945992Y-91204384D03*
%TD*%
D80*
%TO.C,R8*%
X14400000Y-31990000D03*
X14400000Y-33010000D03*
%TD*%
D81*
%TO.C,F1*%
X17584133Y-33304178D03*
X15709133Y-33304178D03*
%TD*%
D82*
%TO.C,R3*%
X131021633Y-75291680D03*
X131021633Y-77116680D03*
%TD*%
D83*
%TO.C,D89*%
X140646635Y-77189178D03*
X140646635Y-76219178D03*
%TD*%
M02*
