  0
SECTION
  2
HEADER
  9
$ACADVER
  1
AC1014
  9
$HANDSEED
  5
FFFF
  9
$MEASUREMENT
 70
     1
  0
ENDSEC
  0
SECTION
  2
TABLES
  0
TABLE
  2
VPORT
  5
8
330
0
100
AcDbSymbolTable
 70
     4
  0
VPORT
  5
2E
330
8
100
AcDbSymbolTableRecord
100
AcDbViewportTableRecord
  2
*ACTIVE
 70
     0
 10
0.0
 20
0.0
 11
1.0
 21
1.0
 12
210.0
 22
148.5
 13
0.0
 23
0.0
 14
10.0
 24
10.0
 15
10.0
 25
10.0
 16
0.0
 26
0.0
 36
1.0
 17
0.0
 27
0.0
 37
0.0
 40
341.0
 41
1.24
 42
50.0
 43
0.0
 44
0.0
 50
0.0
 51
0.0
 71
     0
 72
   100
 73
     1
 74
     3
 75
     0
 76
     0
 77
     0
 78
     0
  0
ENDTAB
  0
TABLE
  2
LTYPE
  5
5
330
0
100
AcDbSymbolTable
 70
     1
  0
LTYPE
  5
14
330
5
100
AcDbSymbolTableRecord
100
AcDbLinetypeTableRecord
  2
BYBLOCK
 70
     0
  3

 72
    65
 73
     0
 40
0.0
  0
LTYPE
  5
15
330
5
100
AcDbSymbolTableRecord
100
AcDbLinetypeTableRecord
  2
BYLAYER
 70
     0
  3

 72
    65
 73
     0
 40
0.0
  0
LTYPE
  5
16
330
5
100
AcDbSymbolTableRecord
100
AcDbLinetypeTableRecord
  2
CONTINUOUS
 70
     0
  3
Solid line
 72
    65
 73
     0
 40
0.0
  0
ENDTAB
  0
TABLE
  2
LAYER
  5
2
100
AcDbSymbolTable
 70
1
  0
LAYER
  5
50
100
AcDbSymbolTableRecord
100
AcDbLayerTableRecord
  2
0
 70
0
  6
CONTINUOUS
  0
ENDTAB
  0
TABLE
  2
STYLE
  5
3
330
0
100
AcDbSymbolTable
 70
     1
  0
STYLE
  5
11
330
3
100
AcDbSymbolTableRecord
100
AcDbTextStyleTableRecord
  2
STANDARD
 70
     0
 40
0.0
 41
1.0
 50
0.0
 71
     0
 42
2.5
  3
txt
  4

  0
ENDTAB
  0
TABLE
  2
VIEW
  5
6
330
0
100
AcDbSymbolTable
 70
     0
  0
ENDTAB
  0
TABLE
  2
UCS
  5
7
330
0
100
AcDbSymbolTable
 70
     0
  0
ENDTAB
  0
TABLE
  2
APPID
  5
9
330
0
100
AcDbSymbolTable
 70
     2
  0
APPID
  5
12
330
9
100
AcDbSymbolTableRecord
100
AcDbRegAppTableRecord
  2
ACAD
 70
     0
  0
ENDTAB
  0
TABLE
  2
DIMSTYLE
  5
A
330
0
100
AcDbSymbolTable
 70
     1
  0
DIMSTYLE
105
27
330
A
100
AcDbSymbolTableRecord
100
AcDbDimStyleTableRecord
  2
ISO-25
 70
     0
  3

  4

  5

  6

  7

 40
1.0
 41
2.5
 42
0.625
 43
3.75
 44
1.25
 45
0.0
 46
0.0
 47
0.0
 48
0.0
140
2.5
141
2.5
142
0.0
143
0.03937007874016
144
1.0
145
0.0
146
1.0
147
0.625
 71
     0
 72
     0
 73
     0
 74
     0
 75
     0
 76
     0
 77
     1
 78
     8
170
     0
171
     3
172
     1
173
     0
174
     0
175
     0
176
     0
177
     0
178
     0
270
     2
271
     2
272
     2
273
     2
274
     3
340
11
275
     0
280
     0
281
     0
282
     0
283
     0
284
     8
285
     0
286
     0
287
     3
288
     0
  0
ENDTAB
  0
TABLE
  2
BLOCK_RECORD
  5
1
330
0
100
AcDbSymbolTable
 70
     1
  0
BLOCK_RECORD
  5
1F
330
1
100
AcDbSymbolTableRecord
100
AcDbBlockTableRecord
  2
*MODEL_SPACE
  0
BLOCK_RECORD
  5
1B
330
1
100
AcDbSymbolTableRecord
100
AcDbBlockTableRecord
  2
*PAPER_SPACE
  0
ENDTAB
  0
ENDSEC
  0
SECTION
  2
BLOCKS
  0
BLOCK
  5
20
330
1F
100
AcDbEntity
  8
0
100
AcDbBlockBegin
  2
*MODEL_SPACE
 70
     0
 10
0.0
 20
0.0
 30
0.0
  3
*MODEL_SPACE
  1

  0
ENDBLK
  5
21
330
1F
100
AcDbEntity
  8
0
100
AcDbBlockEnd
  0
BLOCK
  5
1C
330
1B
100
AcDbEntity
 67
     1
  8
0
100
AcDbBlockBegin
  2
*PAPER_SPACE
  1

  0
ENDBLK
  5
1D
330
1B
100
AcDbEntity
 67
     1
  8
0
100
AcDbBlockEnd
  0
ENDSEC
  0
SECTION
  2
ENTITIES
  0
LWPOLYLINE
  5
100
100
AcDbEntity
  8
0
 62
7
100
AcDbPolyline
 90
2
 70
0
 10
55.257186
 20
-55.695278
 30
0.0
 10
54.291261
 20
-55.436459
 30
0.0
  0
LWPOLYLINE
  5
101
100
AcDbEntity
  8
0
 62
7
100
AcDbPolyline
 90
2
 70
0
 10
41.734225
 20
-52.071811
 30
0.0
 10
41.993044
 20
-51.105886
 30
0.0
  0
LWPOLYLINE
  5
102
100
AcDbEntity
  8
0
 62
7
100
AcDbPolyline
 90
2
 70
0
 10
45.098872
 20
-39.514776
 30
0.0
 10
45.357692
 20
-38.548850
 30
0.0
  0
LWPOLYLINE
  5
103
100
AcDbEntity
  8
0
 62
7
100
AcDbPolyline
 90
2
 70
0
 10
54.291261
 20
-55.436459
 30
0.0
 10
55.257186
 20
-55.695278
 30
0.0
  0
LWPOLYLINE
  5
104
100
AcDbEntity
  8
0
 62
7
100
AcDbPolyline
 90
2
 70
0
 10
46.323617
 20
-38.807669
 30
0.0
 10
45.357692
 20
-38.548850
 30
0.0
  0
LWPOLYLINE
  5
105
100
AcDbEntity
  8
0
 62
7
100
AcDbPolyline
 90
2
 70
0
 10
58.880653
 20
-42.172317
 30
0.0
 10
57.914727
 20
-41.913497
 30
0.0
  0
LWPOLYLINE
  5
106
100
AcDbEntity
  8
0
 62
7
100
AcDbPolyline
 90
2
 70
0
 10
55.516006
 20
-54.729352
 30
0.0
 10
55.257186
 20
-55.695278
 30
0.0
  0
LWPOLYLINE
  5
107
100
AcDbEntity
  8
0
 62
7
100
AcDbPolyline
 90
2
 70
0
 10
41.734225
 20
-52.071811
 30
0.0
 10
42.700151
 20
-52.330631
 30
0.0
  0
LWPOLYLINE
  5
108
100
AcDbEntity
  8
0
 62
7
100
AcDbPolyline
 90
2
 70
0
 10
58.880653
 20
-42.172317
 30
0.0
 10
58.621834
 20
-43.138242
 30
0.0
  0
LWPOLYLINE
  5
109
100
AcDbEntity
  8
0
 62
7
100
AcDbPolyline
 90
2
 70
0
 10
93.626383
 20
-73.820810
 30
0.0
 10
93.367564
 20
-74.786735
 30
0.0
  0
LWPOLYLINE
  5
10a
100
AcDbEntity
  8
0
 62
7
100
AcDbPolyline
 90
2
 70
0
 10
90.002916
 20
-87.343771
 30
0.0
 10
89.036991
 20
-87.084952
 30
0.0
  0
LWPOLYLINE
  5
10b
100
AcDbEntity
  8
0
 62
7
100
AcDbPolyline
 90
2
 70
0
 10
79.844602
 20
-71.163269
 30
0.0
 10
80.103422
 20
-70.197343
 30
0.0
  0
LWPOLYLINE
  5
10c
100
AcDbEntity
  8
0
 62
7
100
AcDbPolyline
 90
2
 70
0
 10
76.479955
 20
-83.720304
 30
0.0
 10
76.738774
 20
-82.754379
 30
0.0
  0
LWPOLYLINE
  5
10d
100
AcDbEntity
  8
0
 62
7
100
AcDbPolyline
 90
2
 70
0
 10
90.261736
 20
-86.377845
 30
0.0
 10
90.002916
 20
-87.343771
 30
0.0
  0
LWPOLYLINE
  5
10e
100
AcDbEntity
  8
0
 62
7
100
AcDbPolyline
 90
2
 70
0
 10
76.479955
 20
-83.720304
 30
0.0
 10
77.445881
 20
-83.979124
 30
0.0
  0
LWPOLYLINE
  5
10f
100
AcDbEntity
  8
0
 62
7
100
AcDbPolyline
 90
2
 70
0
 10
81.069347
 20
-70.456162
 30
0.0
 10
80.103422
 20
-70.197343
 30
0.0
  0
LWPOLYLINE
  5
110
100
AcDbEntity
  8
0
 62
7
100
AcDbPolyline
 90
2
 70
0
 10
93.626383
 20
-73.820810
 30
0.0
 10
92.660457
 20
-73.561990
 30
0.0
  0
LWPOLYLINE
  5
111
100
AcDbEntity
  8
0
 62
7
100
AcDbPolyline
 90
2
 70
0
 10
89.036991
 20
-87.084952
 30
0.0
 10
90.002916
 20
-87.343771
 30
0.0
  0
LWPOLYLINE
  5
112
100
AcDbEntity
  8
0
 62
7
100
AcDbPolyline
 90
2
 70
0
 10
78.527335
 20
-42.260238
 30
0.0
 10
77.561409
 20
-42.001418
 30
0.0
  0
LWPOLYLINE
  5
113
100
AcDbEntity
  8
0
 62
7
100
AcDbPolyline
 90
2
 70
0
 10
74.903868
 20
-55.783199
 30
0.0
 10
73.937943
 20
-55.524380
 30
0.0
  0
LWPOLYLINE
  5
114
100
AcDbEntity
  8
0
 62
7
100
AcDbPolyline
 90
2
 70
0
 10
75.162688
 20
-54.817273
 30
0.0
 10
74.903868
 20
-55.783199
 30
0.0
  0
LWPOLYLINE
  5
115
100
AcDbEntity
  8
0
 62
7
100
AcDbPolyline
 90
2
 70
0
 10
61.380907
 20
-52.159732
 30
0.0
 10
61.639726
 20
-51.193807
 30
0.0
  0
LWPOLYLINE
  5
116
100
AcDbEntity
  8
0
 62
7
100
AcDbPolyline
 90
2
 70
0
 10
73.937943
 20
-55.524380
 30
0.0
 10
74.903868
 20
-55.783199
 30
0.0
  0
LWPOLYLINE
  5
117
100
AcDbEntity
  8
0
 62
7
100
AcDbPolyline
 90
2
 70
0
 10
61.380907
 20
-52.159732
 30
0.0
 10
62.346833
 20
-52.418552
 30
0.0
  0
LWPOLYLINE
  5
118
100
AcDbEntity
  8
0
 62
7
100
AcDbPolyline
 90
2
 70
0
 10
65.970299
 20
-38.895590
 30
0.0
 10
65.004374
 20
-38.636771
 30
0.0
  0
LWPOLYLINE
  5
119
100
AcDbEntity
  8
0
 62
7
100
AcDbPolyline
 90
2
 70
0
 10
64.745554
 20
-39.602697
 30
0.0
 10
65.004374
 20
-38.636771
 30
0.0
  0
LWPOLYLINE
  5
11a
100
AcDbEntity
  8
0
 62
7
100
AcDbPolyline
 90
2
 70
0
 10
78.527335
 20
-42.260238
 30
0.0
 10
78.268516
 20
-43.226163
 30
0.0
  0
LWPOLYLINE
  5
11b
100
AcDbEntity
  8
0
 62
7
100
AcDbPolyline
 90
2
 70
0
 10
121.504600
 20
-77.651273
 30
0.0
 10
121.763420
 20
-76.685347
 30
0.0
  0
LWPOLYLINE
  5
11c
100
AcDbEntity
  8
0
 62
7
100
AcDbPolyline
 90
2
 70
0
 10
118.139953
 20
-90.208308
 30
0.0
 10
118.398772
 20
-89.242383
 30
0.0
  0
LWPOLYLINE
  5
11d
100
AcDbEntity
  8
0
 62
7
100
AcDbPolyline
 90
2
 70
0
 10
131.662914
 20
-93.831775
 30
0.0
 10
130.696989
 20
-93.572956
 30
0.0
  0
LWPOLYLINE
  5
11e
100
AcDbEntity
  8
0
 62
7
100
AcDbPolyline
 90
2
 70
0
 10
118.139953
 20
-90.208308
 30
0.0
 10
119.105879
 20
-90.467128
 30
0.0
  0
LWPOLYLINE
  5
11f
100
AcDbEntity
  8
0
 62
7
100
AcDbPolyline
 90
2
 70
0
 10
131.921734
 20
-92.865849
 30
0.0
 10
131.662914
 20
-93.831775
 30
0.0
  0
LWPOLYLINE
  5
120
100
AcDbEntity
  8
0
 62
7
100
AcDbPolyline
 90
2
 70
0
 10
130.696989
 20
-93.572956
 30
0.0
 10
131.662914
 20
-93.831775
 30
0.0
  0
LWPOLYLINE
  5
121
100
AcDbEntity
  8
0
 62
7
100
AcDbPolyline
 90
2
 70
0
 10
122.729345
 20
-76.944166
 30
0.0
 10
121.763420
 20
-76.685347
 30
0.0
  0
LWPOLYLINE
  5
122
100
AcDbEntity
  8
0
 62
7
100
AcDbPolyline
 90
2
 70
0
 10
135.286381
 20
-80.308814
 30
0.0
 10
134.320455
 20
-80.049994
 30
0.0
  0
LWPOLYLINE
  5
123
100
AcDbEntity
  8
0
 62
7
100
AcDbPolyline
 90
2
 70
0
 10
135.286381
 20
-80.308814
 30
0.0
 10
135.027562
 20
-81.274739
 30
0.0
  0
LWPOLYLINE
  5
124
100
AcDbEntity
  8
0
 62
7
100
AcDbPolyline
 90
2
 70
0
 10
100.734346
 20
-55.975157
 30
0.0
 10
99.768421
 20
-55.716338
 30
0.0
  0
LWPOLYLINE
  5
125
100
AcDbEntity
  8
0
 62
7
100
AcDbPolyline
 90
2
 70
0
 10
113.291382
 20
-59.339805
 30
0.0
 10
113.032563
 20
-60.305730
 30
0.0
  0
LWPOLYLINE
  5
126
100
AcDbEntity
  8
0
 62
7
100
AcDbPolyline
 90
2
 70
0
 10
113.291382
 20
-59.339805
 30
0.0
 10
112.325456
 20
-59.080985
 30
0.0
  0
LWPOLYLINE
  5
127
100
AcDbEntity
  8
0
 62
7
100
AcDbPolyline
 90
2
 70
0
 10
99.509601
 20
-56.682264
 30
0.0
 10
99.768421
 20
-55.716338
 30
0.0
  0
LWPOLYLINE
  5
128
100
AcDbEntity
  8
0
 62
7
100
AcDbPolyline
 90
2
 70
0
 10
96.144954
 20
-69.239299
 30
0.0
 10
96.403773
 20
-68.273374
 30
0.0
  0
LWPOLYLINE
  5
129
100
AcDbEntity
  8
0
 62
7
100
AcDbPolyline
 90
2
 70
0
 10
109.667915
 20
-72.862766
 30
0.0
 10
108.701990
 20
-72.603947
 30
0.0
  0
LWPOLYLINE
  5
12a
100
AcDbEntity
  8
0
 62
7
100
AcDbPolyline
 90
2
 70
0
 10
109.926735
 20
-71.896840
 30
0.0
 10
109.667915
 20
-72.862766
 30
0.0
  0
LWPOLYLINE
  5
12b
100
AcDbEntity
  8
0
 62
7
100
AcDbPolyline
 90
2
 70
0
 10
96.144954
 20
-69.239299
 30
0.0
 10
97.110880
 20
-69.498119
 30
0.0
  0
LWPOLYLINE
  5
12c
100
AcDbEntity
  8
0
 62
7
100
AcDbPolyline
 90
2
 70
0
 10
108.701990
 20
-72.603947
 30
0.0
 10
109.667915
 20
-72.862766
 30
0.0
  0
LWPOLYLINE
  5
12d
100
AcDbEntity
  8
0
 62
7
100
AcDbPolyline
 90
2
 70
0
 10
33.928183
 20
-61.885859
 30
0.0
 10
33.669363
 20
-62.851785
 30
0.0
  0
LWPOLYLINE
  5
12e
100
AcDbEntity
  8
0
 62
7
100
AcDbPolyline
 90
2
 70
0
 10
37.292830
 20
-49.328824
 30
0.0
 10
37.034011
 20
-50.294749
 30
0.0
  0
LWPOLYLINE
  5
12f
100
AcDbEntity
  8
0
 62
7
100
AcDbPolyline
 90
2
 70
0
 10
23.511049
 20
-46.671283
 30
0.0
 10
23.769869
 20
-45.705357
 30
0.0
  0
LWPOLYLINE
  5
130
100
AcDbEntity
  8
0
 62
7
100
AcDbPolyline
 90
2
 70
1
 10
33.669363
 20
-62.851785
 30
0.0
 10
32.703438
 20
-62.592966
 30
0.0
  0
LWPOLYLINE
  5
131
100
AcDbEntity
  8
0
 62
7
100
AcDbPolyline
 90
2
 70
0
 10
20.146402
 20
-59.228318
 30
0.0
 10
21.112328
 20
-59.487138
 30
0.0
  0
LWPOLYLINE
  5
132
100
AcDbEntity
  8
0
 62
7
100
AcDbPolyline
 90
2
 70
0
 10
24.735794
 20
-45.964176
 30
0.0
 10
23.769869
 20
-45.705357
 30
0.0
  0
LWPOLYLINE
  5
133
100
AcDbEntity
  8
0
 62
7
100
AcDbPolyline
 90
2
 70
0
 10
37.292830
 20
-49.328824
 30
0.0
 10
36.326904
 20
-49.070004
 30
0.0
  0
LWPOLYLINE
  5
134
100
AcDbEntity
  8
0
 62
7
100
AcDbPolyline
 90
2
 70
0
 10
20.146402
 20
-59.228318
 30
0.0
 10
20.405221
 20
-58.262393
 30
0.0
  0
LWPOLYLINE
  5
135
100
AcDbEntity
  8
0
 62
7
100
AcDbPolyline
 90
2
 70
0
 10
96.879936
 20
-47.177806
 30
0.0
 10
95.914011
 20
-46.918987
 30
0.0
  0
LWPOLYLINE
  5
136
100
AcDbEntity
  8
0
 62
7
100
AcDbPolyline
 90
2
 70
0
 10
83.356975
 20
-43.554339
 30
0.0
 10
83.615794
 20
-42.588414
 30
0.0
  0
LWPOLYLINE
  5
137
100
AcDbEntity
  8
0
 62
7
100
AcDbPolyline
 90
2
 70
0
 10
97.138756
 20
-46.211880
 30
0.0
 10
96.879936
 20
-47.177806
 30
0.0
  0
LWPOLYLINE
  5
138
100
AcDbEntity
  8
0
 62
7
100
AcDbPolyline
 90
2
 70
0
 10
95.914011
 20
-46.918987
 30
0.0
 10
96.879936
 20
-47.177806
 30
0.0
  0
LWPOLYLINE
  5
139
100
AcDbEntity
  8
0
 62
7
100
AcDbPolyline
 90
2
 70
0
 10
100.503403
 20
-33.654845
 30
0.0
 10
99.537477
 20
-33.396025
 30
0.0
  0
LWPOLYLINE
  5
13a
100
AcDbEntity
  8
0
 62
7
100
AcDbPolyline
 90
2
 70
0
 10
87.946367
 20
-30.290197
 30
0.0
 10
86.980442
 20
-30.031378
 30
0.0
  0
LWPOLYLINE
  5
13b
100
AcDbEntity
  8
0
 62
7
100
AcDbPolyline
 90
2
 70
0
 10
86.721622
 20
-30.997304
 30
0.0
 10
86.980442
 20
-30.031378
 30
0.0
  0
LWPOLYLINE
  5
13c
100
AcDbEntity
  8
0
 62
7
100
AcDbPolyline
 90
2
 70
0
 10
83.356975
 20
-43.554339
 30
0.0
 10
84.322901
 20
-43.813159
 30
0.0
  0
LWPOLYLINE
  5
13d
100
AcDbEntity
  8
0
 62
7
100
AcDbPolyline
 90
2
 70
0
 10
100.503403
 20
-33.654845
 30
0.0
 10
100.244584
 20
-34.620770
 30
0.0
  0
LWPOLYLINE
  5
13e
100
AcDbEntity
  8
0
 62
7
100
AcDbPolyline
 90
2
 70
0
 10
98.564953
 20
-89.772298
 30
0.0
 10
99.530879
 20
-90.031118
 30
0.0
  0
LWPOLYLINE
  5
13f
100
AcDbEntity
  8
0
 62
7
100
AcDbPolyline
 90
2
 70
0
 10
112.346734
 20
-92.429839
 30
0.0
 10
112.087914
 20
-93.395765
 30
0.0
  0
LWPOLYLINE
  5
140
100
AcDbEntity
  8
0
 62
7
100
AcDbPolyline
 90
2
 70
0
 10
115.711381
 20
-79.872804
 30
0.0
 10
114.745455
 20
-79.613984
 30
0.0
  0
LWPOLYLINE
  5
141
100
AcDbEntity
  8
0
 62
7
100
AcDbPolyline
 90
2
 70
0
 10
115.711381
 20
-79.872804
 30
0.0
 10
115.452562
 20
-80.838729
 30
0.0
  0
LWPOLYLINE
  5
142
100
AcDbEntity
  8
0
 62
7
100
AcDbPolyline
 90
2
 70
0
 10
98.564953
 20
-89.772298
 30
0.0
 10
98.823772
 20
-88.806373
 30
0.0
  0
LWPOLYLINE
  5
143
100
AcDbEntity
  8
0
 62
7
100
AcDbPolyline
 90
2
 70
0
 10
103.154345
 20
-76.508156
 30
0.0
 10
102.188420
 20
-76.249337
 30
0.0
  0
LWPOLYLINE
  5
144
100
AcDbEntity
  8
0
 62
7
100
AcDbPolyline
 90
2
 70
1
 10
112.087914
 20
-93.395765
 30
0.0
 10
111.121989
 20
-93.136946
 30
0.0
  0
LWPOLYLINE
  5
145
100
AcDbEntity
  8
0
 62
7
100
AcDbPolyline
 90
2
 70
0
 10
101.929600
 20
-77.215263
 30
0.0
 10
102.188420
 20
-76.249337
 30
0.0
  0
LWPOLYLINE
  5
146
100
AcDbEntity
  8
0
 62
7
100
AcDbPolyline
 90
2
 70
0
 10
105.420956
 20
-15.302255
 30
0.0
 10
104.455030
 20
-15.043435
 30
0.0
  0
LWPOLYLINE
  5
147
100
AcDbEntity
  8
0
 62
7
100
AcDbPolyline
 90
2
 70
0
 10
102.056309
 20
-27.859290
 30
0.0
 10
101.797489
 20
-28.825216
 30
0.0
  0
LWPOLYLINE
  5
148
100
AcDbEntity
  8
0
 62
7
100
AcDbPolyline
 90
2
 70
0
 10
105.420956
 20
-15.302255
 30
0.0
 10
105.162137
 20
-16.268180
 30
0.0
  0
LWPOLYLINE
  5
149
100
AcDbEntity
  8
0
 62
7
100
AcDbPolyline
 90
2
 70
0
 10
88.274528
 20
-25.201749
 30
0.0
 10
89.240454
 20
-25.460569
 30
0.0
  0
LWPOLYLINE
  5
14a
100
AcDbEntity
  8
0
 62
7
100
AcDbPolyline
 90
2
 70
1
 10
100.831564
 20
-28.566397
 30
0.0
 10
101.797489
 20
-28.825216
 30
0.0
  0
LWPOLYLINE
  5
14b
100
AcDbEntity
  8
0
 62
7
100
AcDbPolyline
 90
2
 70
0
 10
88.274528
 20
-25.201749
 30
0.0
 10
88.533347
 20
-24.235824
 30
0.0
  0
LWPOLYLINE
  5
14c
100
AcDbEntity
  8
0
 62
7
100
AcDbPolyline
 90
2
 70
0
 10
91.639175
 20
-12.644714
 30
0.0
 10
91.897995
 20
-11.678788
 30
0.0
  0
LWPOLYLINE
  5
14d
100
AcDbEntity
  8
0
 62
7
100
AcDbPolyline
 90
2
 70
0
 10
92.863920
 20
-11.937607
 30
0.0
 10
91.897995
 20
-11.678788
 30
0.0
  0
LWPOLYLINE
  5
14e
100
AcDbEntity
  8
0
 62
7
100
AcDbPolyline
 90
2
 70
0
 10
90.996448
 20
-65.271574
 30
0.0
 10
91.962373
 20
-65.530393
 30
0.0
  0
LWPOLYLINE
  5
14f
100
AcDbEntity
  8
0
 62
7
100
AcDbPolyline
 90
2
 70
0
 10
78.439412
 20
-61.906926
 30
0.0
 10
78.698231
 20
-60.941001
 30
0.0
  0
LWPOLYLINE
  5
150
100
AcDbEntity
  8
0
 62
7
100
AcDbPolyline
 90
2
 70
0
 10
83.028804
 20
-48.642784
 30
0.0
 10
82.062879
 20
-48.383965
 30
0.0
  0
LWPOLYLINE
  5
151
100
AcDbEntity
  8
0
 62
7
100
AcDbPolyline
 90
2
 70
0
 10
81.804059
 20
-49.349891
 30
0.0
 10
82.062879
 20
-48.383965
 30
0.0
  0
LWPOLYLINE
  5
152
100
AcDbEntity
  8
0
 62
7
100
AcDbPolyline
 90
2
 70
0
 10
95.585840
 20
-52.007432
 30
0.0
 10
95.327021
 20
-52.973357
 30
0.0
  0
LWPOLYLINE
  5
153
100
AcDbEntity
  8
0
 62
7
100
AcDbPolyline
 90
2
 70
0
 10
92.221193
 20
-64.564467
 30
0.0
 10
91.962373
 20
-65.530393
 30
0.0
  0
LWPOLYLINE
  5
154
100
AcDbEntity
  8
0
 62
7
100
AcDbPolyline
 90
2
 70
0
 10
78.439412
 20
-61.906926
 30
0.0
 10
79.405338
 20
-62.165746
 30
0.0
  0
LWPOLYLINE
  5
155
100
AcDbEntity
  8
0
 62
7
100
AcDbPolyline
 90
2
 70
0
 10
91.962373
 20
-65.530393
 30
0.0
 10
90.996448
 20
-65.271574
 30
0.0
  0
LWPOLYLINE
  5
156
100
AcDbEntity
  8
0
 62
7
100
AcDbPolyline
 90
2
 70
0
 10
95.585840
 20
-52.007432
 30
0.0
 10
94.619914
 20
-51.748612
 30
0.0
  0
LWPOLYLINE
  5
157
100
AcDbEntity
  8
0
 62
7
100
AcDbPolyline
 90
2
 70
0
 10
51.241181
 20
-20.455076
 30
0.0
 10
50.275256
 20
-20.196257
 30
0.0
  0
LWPOLYLINE
  5
158
100
AcDbEntity
  8
0
 62
7
100
AcDbPolyline
 90
2
 70
0
 10
50.016436
 20
-21.162183
 30
0.0
 10
50.275256
 20
-20.196257
 30
0.0
  0
LWPOLYLINE
  5
159
100
AcDbEntity
  8
0
 62
7
100
AcDbPolyline
 90
2
 70
0
 10
63.798217
 20
-23.819724
 30
0.0
 10
63.539398
 20
-24.785649
 30
0.0
  0
LWPOLYLINE
  5
15a
100
AcDbEntity
  8
0
 62
7
100
AcDbPolyline
 90
2
 70
0
 10
59.208825
 20
-37.083866
 30
0.0
 10
60.174750
 20
-37.342685
 30
0.0
  0
LWPOLYLINE
  5
15b
100
AcDbEntity
  8
0
 62
7
100
AcDbPolyline
 90
2
 70
0
 10
60.433570
 20
-36.376759
 30
0.0
 10
60.174750
 20
-37.342685
 30
0.0
  0
LWPOLYLINE
  5
15c
100
AcDbEntity
  8
0
 62
7
100
AcDbPolyline
 90
2
 70
0
 10
46.651789
 20
-33.719218
 30
0.0
 10
46.910608
 20
-32.753293
 30
0.0
  0
LWPOLYLINE
  5
15d
100
AcDbEntity
  8
0
 62
7
100
AcDbPolyline
 90
2
 70
0
 10
63.798217
 20
-23.819724
 30
0.0
 10
62.832291
 20
-23.560904
 30
0.0
  0
LWPOLYLINE
  5
15e
100
AcDbEntity
  8
0
 62
7
100
AcDbPolyline
 90
2
 70
0
 10
60.174750
 20
-37.342685
 30
0.0
 10
59.208825
 20
-37.083866
 30
0.0
  0
LWPOLYLINE
  5
15f
100
AcDbEntity
  8
0
 62
7
100
AcDbPolyline
 90
2
 70
0
 10
46.651789
 20
-33.719218
 30
0.0
 10
47.617715
 20
-33.978038
 30
0.0
  0
LWPOLYLINE
  5
160
100
AcDbEntity
  8
0
 62
7
100
AcDbPolyline
 90
2
 70
0
 10
83.773069
 20
-18.819199
 30
0.0
 10
84.738994
 20
-19.078018
 30
0.0
  0
LWPOLYLINE
  5
161
100
AcDbEntity
  8
0
 62
7
100
AcDbPolyline
 90
2
 70
0
 10
71.216033
 20
-15.454551
 30
0.0
 10
71.474852
 20
-14.488626
 30
0.0
  0
LWPOLYLINE
  5
162
100
AcDbEntity
  8
0
 62
7
100
AcDbPolyline
 90
2
 70
0
 10
84.997814
 20
-18.112092
 30
0.0
 10
84.738994
 20
-19.078018
 30
0.0
  0
LWPOLYLINE
  5
163
100
AcDbEntity
  8
0
 62
7
100
AcDbPolyline
 90
2
 70
0
 10
71.216033
 20
-15.454551
 30
0.0
 10
72.181959
 20
-15.713371
 30
0.0
  0
LWPOLYLINE
  5
164
100
AcDbEntity
  8
0
 62
7
100
AcDbPolyline
 90
2
 70
0
 10
74.580680
 20
-2.897516
 30
0.0
 10
74.839500
 20
-1.931590
 30
0.0
  0
LWPOLYLINE
  5
165
100
AcDbEntity
  8
0
 62
7
100
AcDbPolyline
 90
2
 70
0
 10
88.362461
 20
-5.555057
 30
0.0
 10
87.396535
 20
-5.296237
 30
0.0
  0
LWPOLYLINE
  5
166
100
AcDbEntity
  8
0
 62
7
100
AcDbPolyline
 90
2
 70
0
 10
75.805425
 20
-2.190409
 30
0.0
 10
74.839500
 20
-1.931590
 30
0.0
  0
LWPOLYLINE
  5
167
100
AcDbEntity
  8
0
 62
7
100
AcDbPolyline
 90
2
 70
0
 10
88.362461
 20
-5.555057
 30
0.0
 10
88.103642
 20
-6.520982
 30
0.0
  0
LWPOLYLINE
  5
168
100
AcDbEntity
  8
0
 62
7
100
AcDbPolyline
 90
2
 70
0
 10
84.738994
 20
-19.078018
 30
0.0
 10
83.773069
 20
-18.819199
 30
0.0
  0
LWPOLYLINE
  5
169
100
AcDbEntity
  8
0
 62
7
100
AcDbPolyline
 90
2
 70
0
 10
113.619559
 20
-54.251370
 30
0.0
 10
114.585484
 20
-54.510189
 30
0.0
  0
LWPOLYLINE
  5
16a
100
AcDbEntity
  8
0
 62
7
100
AcDbPolyline
 90
2
 70
0
 10
101.062523
 20
-50.886722
 30
0.0
 10
101.321342
 20
-49.920797
 30
0.0
  0
LWPOLYLINE
  5
16b
100
AcDbEntity
  8
0
 62
7
100
AcDbPolyline
 90
2
 70
0
 10
114.844304
 20
-53.544263
 30
0.0
 10
114.585484
 20
-54.510189
 30
0.0
  0
LWPOLYLINE
  5
16c
100
AcDbEntity
  8
0
 62
7
100
AcDbPolyline
 90
2
 70
0
 10
118.208951
 20
-40.987228
 30
0.0
 10
117.243025
 20
-40.728408
 30
0.0
  0
LWPOLYLINE
  5
16d
100
AcDbEntity
  8
0
 62
7
100
AcDbPolyline
 90
2
 70
0
 10
101.062523
 20
-50.886722
 30
0.0
 10
102.028449
 20
-51.145542
 30
0.0
  0
LWPOLYLINE
  5
16e
100
AcDbEntity
  8
0
 62
7
100
AcDbPolyline
 90
2
 70
0
 10
114.585484
 20
-54.510189
 30
0.0
 10
113.619559
 20
-54.251370
 30
0.0
  0
LWPOLYLINE
  5
16f
100
AcDbEntity
  8
0
 62
7
100
AcDbPolyline
 90
2
 70
0
 10
104.427170
 20
-38.329687
 30
0.0
 10
104.685990
 20
-37.363761
 30
0.0
  0
LWPOLYLINE
  5
170
100
AcDbEntity
  8
0
 62
7
100
AcDbPolyline
 90
2
 70
0
 10
118.208951
 20
-40.987228
 30
0.0
 10
117.950132
 20
-41.953153
 30
0.0
  0
LWPOLYLINE
  5
171
100
AcDbEntity
  8
0
 62
7
100
AcDbPolyline
 90
2
 70
0
 10
105.651915
 20
-37.622580
 30
0.0
 10
104.685990
 20
-37.363761
 30
0.0
  0
LWPOLYLINE
  5
172
100
AcDbEntity
  8
0
 62
7
100
AcDbPolyline
 90
2
 70
0
 10
123.126502
 20
-22.634623
 30
0.0
 10
122.867683
 20
-23.600548
 30
0.0
  0
LWPOLYLINE
  5
173
100
AcDbEntity
  8
0
 62
7
100
AcDbPolyline
 90
2
 70
0
 10
118.537110
 20
-35.898765
 30
0.0
 10
119.503035
 20
-36.157584
 30
0.0
  0
LWPOLYLINE
  5
174
100
AcDbEntity
  8
0
 62
7
100
AcDbPolyline
 90
2
 70
0
 10
109.344721
 20
-19.977082
 30
0.0
 10
109.603541
 20
-19.011156
 30
0.0
  0
LWPOLYLINE
  5
175
100
AcDbEntity
  8
0
 62
7
100
AcDbPolyline
 90
2
 70
0
 10
123.126502
 20
-22.634623
 30
0.0
 10
122.160576
 20
-22.375803
 30
0.0
  0
LWPOLYLINE
  5
176
100
AcDbEntity
  8
0
 62
7
100
AcDbPolyline
 90
2
 70
0
 10
110.569466
 20
-19.269975
 30
0.0
 10
109.603541
 20
-19.011156
 30
0.0
  0
LWPOLYLINE
  5
177
100
AcDbEntity
  8
0
 62
7
100
AcDbPolyline
 90
2
 70
0
 10
105.980074
 20
-32.534117
 30
0.0
 10
106.238893
 20
-31.568192
 30
0.0
  0
LWPOLYLINE
  5
178
100
AcDbEntity
  8
0
 62
7
100
AcDbPolyline
 90
2
 70
0
 10
119.761855
 20
-35.191658
 30
0.0
 10
119.503035
 20
-36.157584
 30
0.0
  0
LWPOLYLINE
  5
179
100
AcDbEntity
  8
0
 62
7
100
AcDbPolyline
 90
2
 70
0
 10
105.980074
 20
-32.534117
 30
0.0
 10
106.946000
 20
-32.792937
 30
0.0
  0
LWPOLYLINE
  5
17a
100
AcDbEntity
  8
0
 62
7
100
AcDbPolyline
 90
2
 70
0
 10
119.503035
 20
-36.157584
 30
0.0
 10
118.537110
 20
-35.898765
 30
0.0
  0
LWPOLYLINE
  5
17b
100
AcDbEntity
  8
0
 62
7
100
AcDbPolyline
 90
2
 70
0
 10
80.080259
 20
-36.464682
 30
0.0
 10
79.821439
 20
-37.430608
 30
0.0
  0
LWPOLYLINE
  5
17c
100
AcDbEntity
  8
0
 62
7
100
AcDbPolyline
 90
2
 70
0
 10
78.855514
 20
-37.171789
 30
0.0
 10
79.821439
 20
-37.430608
 30
0.0
  0
LWPOLYLINE
  5
17d
100
AcDbEntity
  8
0
 62
7
100
AcDbPolyline
 90
2
 70
0
 10
66.298478
 20
-33.807141
 30
0.0
 10
67.264404
 20
-34.065961
 30
0.0
  0
LWPOLYLINE
  5
17e
100
AcDbEntity
  8
0
 62
7
100
AcDbPolyline
 90
2
 70
0
 10
79.821439
 20
-37.430608
 30
0.0
 10
78.855514
 20
-37.171789
 30
0.0
  0
LWPOLYLINE
  5
17f
100
AcDbEntity
  8
0
 62
7
100
AcDbPolyline
 90
2
 70
0
 10
66.298478
 20
-33.807141
 30
0.0
 10
66.557297
 20
-32.841216
 30
0.0
  0
LWPOLYLINE
  5
180
100
AcDbEntity
  8
0
 62
7
100
AcDbPolyline
 90
2
 70
0
 10
83.444906
 20
-23.907647
 30
0.0
 10
83.186087
 20
-24.873572
 30
0.0
  0
LWPOLYLINE
  5
181
100
AcDbEntity
  8
0
 62
7
100
AcDbPolyline
 90
2
 70
0
 10
83.444906
 20
-23.907647
 30
0.0
 10
82.478980
 20
-23.648827
 30
0.0
  0
LWPOLYLINE
  5
182
100
AcDbEntity
  8
0
 62
7
100
AcDbPolyline
 90
2
 70
0
 10
70.887870
 20
-20.542999
 30
0.0
 10
69.921945
 20
-20.284180
 30
0.0
  0
LWPOLYLINE
  5
183
100
AcDbEntity
  8
0
 62
7
100
AcDbPolyline
 90
2
 70
0
 10
69.663125
 20
-21.250106
 30
0.0
 10
69.921945
 20
-20.284180
 30
0.0
  0
LWPOLYLINE
  5
184
100
AcDbEntity
  8
0
 62
7
100
AcDbPolyline
 90
2
 70
0
 10
42.538567
 20
-25.887775
 30
0.0
 10
43.504492
 20
-26.146594
 30
0.0
  0
LWPOLYLINE
  5
185
100
AcDbEntity
  8
0
 62
7
100
AcDbPolyline
 90
2
 70
0
 10
29.981531
 20
-22.523127
 30
0.0
 10
30.947457
 20
-22.781947
 30
0.0
  0
LWPOLYLINE
  5
186
100
AcDbEntity
  8
0
 62
7
100
AcDbPolyline
 90
2
 70
0
 10
43.504492
 20
-26.146594
 30
0.0
 10
42.538567
 20
-25.887775
 30
0.0
  0
LWPOLYLINE
  5
187
100
AcDbEntity
  8
0
 62
7
100
AcDbPolyline
 90
2
 70
0
 10
33.346178
 20
-9.966092
 30
0.0
 10
33.604998
 20
-9.000166
 30
0.0
  0
LWPOLYLINE
  5
188
100
AcDbEntity
  8
0
 62
7
100
AcDbPolyline
 90
2
 70
0
 10
47.127959
 20
-12.623633
 30
0.0
 10
46.162033
 20
-12.364813
 30
0.0
  0
LWPOLYLINE
  5
189
100
AcDbEntity
  8
0
 62
7
100
AcDbPolyline
 90
2
 70
0
 10
34.570923
 20
-9.258985
 30
0.0
 10
33.604998
 20
-9.000166
 30
0.0
  0
LWPOLYLINE
  5
18a
100
AcDbEntity
  8
0
 62
7
100
AcDbPolyline
 90
2
 70
0
 10
43.763312
 20
-25.180668
 30
0.0
 10
43.504492
 20
-26.146594
 30
0.0
  0
LWPOLYLINE
  5
18b
100
AcDbEntity
  8
0
 62
7
100
AcDbPolyline
 90
2
 70
0
 10
47.127959
 20
-12.623633
 30
0.0
 10
46.869140
 20
-13.589558
 30
0.0
  0
LWPOLYLINE
  5
18c
100
AcDbEntity
  8
0
 62
7
100
AcDbPolyline
 90
2
 70
0
 10
29.981531
 20
-22.523127
 30
0.0
 10
30.240350
 20
-21.557202
 30
0.0
  0
LWPOLYLINE
  5
18d
100
AcDbEntity
  8
0
 62
7
100
AcDbPolyline
 90
2
 70
0
 10
68.715777
 20
-5.467132
 30
0.0
 10
67.749851
 20
-5.208312
 30
0.0
  0
LWPOLYLINE
  5
18e
100
AcDbEntity
  8
0
 62
7
100
AcDbPolyline
 90
2
 70
0
 10
56.158741
 20
-2.102484
 30
0.0
 10
55.192816
 20
-1.843665
 30
0.0
  0
LWPOLYLINE
  5
18f
100
AcDbEntity
  8
0
 62
7
100
AcDbPolyline
 90
2
 70
0
 10
64.126385
 20
-18.731274
 30
0.0
 10
65.092310
 20
-18.990093
 30
0.0
  0
LWPOLYLINE
  5
190
100
AcDbEntity
  8
0
 62
7
100
AcDbPolyline
 90
2
 70
0
 10
65.351130
 20
-18.024167
 30
0.0
 10
65.092310
 20
-18.990093
 30
0.0
  0
LWPOLYLINE
  5
191
100
AcDbEntity
  8
0
 62
7
100
AcDbPolyline
 90
2
 70
0
 10
68.715777
 20
-5.467132
 30
0.0
 10
68.456958
 20
-6.433057
 30
0.0
  0
LWPOLYLINE
  5
192
100
AcDbEntity
  8
0
 62
7
100
AcDbPolyline
 90
2
 70
0
 10
65.092310
 20
-18.990093
 30
0.0
 10
64.126385
 20
-18.731274
 30
0.0
  0
LWPOLYLINE
  5
193
100
AcDbEntity
  8
0
 62
7
100
AcDbPolyline
 90
2
 70
0
 10
51.569349
 20
-15.366626
 30
0.0
 10
52.535275
 20
-15.625446
 30
0.0
  0
LWPOLYLINE
  5
194
100
AcDbEntity
  8
0
 62
7
100
AcDbPolyline
 90
2
 70
0
 10
51.569349
 20
-15.366626
 30
0.0
 10
51.828168
 20
-14.400701
 30
0.0
  0
LWPOLYLINE
  5
195
100
AcDbEntity
  8
0
 62
7
100
AcDbPolyline
 90
2
 70
0
 10
54.933996
 20
-2.809591
 30
0.0
 10
55.192816
 20
-1.843665
 30
0.0
  0
LWPOLYLINE
  5
196
100
AcDbEntity
  8
0
 62
7
100
AcDbPolyline
 90
2
 70
0
 10
25.063962
 20
-40.875721
 30
0.0
 10
25.322781
 20
-39.909796
 30
0.0
  0
LWPOLYLINE
  5
197
100
AcDbEntity
  8
0
 62
7
100
AcDbPolyline
 90
2
 70
0
 10
38.845743
 20
-43.533262
 30
0.0
 10
38.586923
 20
-44.499188
 30
0.0
  0
LWPOLYLINE
  5
198
100
AcDbEntity
  8
0
 62
7
100
AcDbPolyline
 90
2
 70
0
 10
37.620998
 20
-44.240369
 30
0.0
 10
38.586923
 20
-44.499188
 30
0.0
  0
LWPOLYLINE
  5
199
100
AcDbEntity
  8
0
 62
7
100
AcDbPolyline
 90
2
 70
0
 10
29.653354
 20
-27.611579
 30
0.0
 10
28.687429
 20
-27.352760
 30
0.0
  0
LWPOLYLINE
  5
19a
100
AcDbEntity
  8
0
 62
7
100
AcDbPolyline
 90
2
 70
0
 10
42.210390
 20
-30.976227
 30
0.0
 10
41.951571
 20
-31.942152
 30
0.0
  0
LWPOLYLINE
  5
19b
100
AcDbEntity
  8
0
 62
7
100
AcDbPolyline
 90
2
 70
0
 10
28.428609
 20
-28.318686
 30
0.0
 10
28.687429
 20
-27.352760
 30
0.0
  0
LWPOLYLINE
  5
19c
100
AcDbEntity
  8
0
 62
7
100
AcDbPolyline
 90
2
 70
0
 10
42.210390
 20
-30.976227
 30
0.0
 10
41.244464
 20
-30.717407
 30
0.0
  0
LWPOLYLINE
  5
19d
100
AcDbEntity
  8
0
 62
7
100
AcDbPolyline
 90
2
 70
0
 10
25.063962
 20
-40.875721
 30
0.0
 10
26.029888
 20
-41.134541
 30
0.0
  0
LWPOLYLINE
  5
19e
100
AcDbEntity
  8
0
 62
7
100
AcDbPolyline
 90
2
 70
0
 10
38.586923
 20
-44.499188
 30
0.0
 10
37.620998
 20
-44.240369
 30
0.0
  0
LWPOLYLINE
  5
19f
100
AcDbEntity
  8
0
 62
7
100
AcDbPolyline
 90
2
 70
0
 10
164.413395
 20
-76.687123
 30
0.0
 10
164.672215
 20
-77.653049
 30
0.0
  0
LWPOLYLINE
  5
1a0
100
AcDbEntity
  8
0
 62
7
100
AcDbPolyline
 90
2
 70
0
 10
151.149253
 20
-81.276515
 30
0.0
 10
150.890434
 20
-80.310590
 30
0.0
  0
LWPOLYLINE
  5
1a1
100
AcDbEntity
  8
0
 62
7
100
AcDbPolyline
 90
2
 70
0
 10
164.413395
 20
-76.687123
 30
0.0
 10
163.447470
 20
-76.945942
 30
0.0
  0
LWPOLYLINE
  5
1a2
100
AcDbEntity
  8
0
 62
7
100
AcDbPolyline
 90
2
 70
0
 10
151.856360
 20
-80.051770
 30
0.0
 10
150.890434
 20
-80.310590
 30
0.0
  0
LWPOLYLINE
  5
1a3
100
AcDbEntity
  8
0
 62
7
100
AcDbPolyline
 90
2
 70
0
 10
167.070936
 20
-90.468904
 30
0.0
 10
168.036862
 20
-90.210084
 30
0.0
  0
LWPOLYLINE
  5
1a4
100
AcDbEntity
  8
0
 62
7
100
AcDbPolyline
 90
2
 70
0
 10
154.513901
 20
-93.833551
 30
0.0
 10
155.479826
 20
-93.574732
 30
0.0
  0
LWPOLYLINE
  5
1a5
100
AcDbEntity
  8
0
 62
7
100
AcDbPolyline
 90
2
 70
0
 10
168.036862
 20
-90.210084
 30
0.0
 10
167.070936
 20
-90.468904
 30
0.0
  0
LWPOLYLINE
  5
1a6
100
AcDbEntity
  8
0
 62
7
100
AcDbPolyline
 90
2
 70
0
 10
167.778043
 20
-89.244159
 30
0.0
 10
168.036862
 20
-90.210084
 30
0.0
  0
LWPOLYLINE
  5
1a7
100
AcDbEntity
  8
0
 62
7
100
AcDbPolyline
 90
2
 70
0
 10
154.513901
 20
-93.833551
 30
0.0
 10
154.255081
 20
-92.867625
 30
0.0
  0
LWPOLYLINE
  5
1a8
100
AcDbEntity
  8
0
 62
7
100
AcDbPolyline
 90
2
 70
0
 10
244.442549
 20
-52.074082
 30
0.0
 10
243.476623
 20
-52.332902
 30
0.0
  0
LWPOLYLINE
  5
1a9
100
AcDbEntity
  8
0
 62
7
100
AcDbPolyline
 90
2
 70
0
 10
230.919588
 20
-55.697549
 30
0.0
 10
231.885513
 20
-55.438730
 30
0.0
  0
LWPOLYLINE
  5
1aa
100
AcDbEntity
  8
0
 62
7
100
AcDbPolyline
 90
2
 70
0
 10
230.919588
 20
-55.697549
 30
0.0
 10
230.660768
 20
-54.731623
 30
0.0
  0
LWPOLYLINE
  5
1ab
100
AcDbEntity
  8
0
 62
7
100
AcDbPolyline
 90
2
 70
0
 10
243.476623
 20
-52.332902
 30
0.0
 10
244.442549
 20
-52.074082
 30
0.0
  0
LWPOLYLINE
  5
1ac
100
AcDbEntity
  8
0
 62
7
100
AcDbPolyline
 90
2
 70
0
 10
240.819082
 20
-38.551121
 30
0.0
 10
241.077902
 20
-39.517047
 30
0.0
  0
LWPOLYLINE
  5
1ad
100
AcDbEntity
  8
0
 62
7
100
AcDbPolyline
 90
2
 70
0
 10
228.262047
 20
-41.915768
 30
0.0
 10
227.296121
 20
-42.174588
 30
0.0
  0
LWPOLYLINE
  5
1ae
100
AcDbEntity
  8
0
 62
7
100
AcDbPolyline
 90
2
 70
0
 10
240.819082
 20
-38.551121
 30
0.0
 10
239.853157
 20
-38.809940
 30
0.0
  0
LWPOLYLINE
  5
1af
100
AcDbEntity
  8
0
 62
7
100
AcDbPolyline
 90
2
 70
0
 10
244.183730
 20
-51.108157
 30
0.0
 10
244.442549
 20
-52.074082
 30
0.0
  0
LWPOLYLINE
  5
1b0
100
AcDbEntity
  8
0
 62
7
100
AcDbPolyline
 90
2
 70
0
 10
227.554940
 20
-43.140513
 30
0.0
 10
227.296121
 20
-42.174588
 30
0.0
  0
LWPOLYLINE
  5
1b1
100
AcDbEntity
  8
0
 62
7
100
AcDbPolyline
 90
2
 70
0
 10
171.431415
 20
-79.516074
 30
0.0
 10
170.465489
 20
-79.774894
 30
0.0
  0
LWPOLYLINE
  5
1b2
100
AcDbEntity
  8
0
 62
7
100
AcDbPolyline
 90
2
 70
1
 10
187.611917
 20
-89.674388
 30
0.0
 10
186.645991
 20
-89.933208
 30
0.0
  0
LWPOLYLINE
  5
1b3
100
AcDbEntity
  8
0
 62
7
100
AcDbPolyline
 90
2
 70
0
 10
174.088956
 20
-93.297855
 30
0.0
 10
173.830136
 20
-92.331929
 30
0.0
  0
LWPOLYLINE
  5
1b4
100
AcDbEntity
  8
0
 62
7
100
AcDbPolyline
 90
2
 70
0
 10
187.353098
 20
-88.708463
 30
0.0
 10
187.611917
 20
-89.674388
 30
0.0
  0
LWPOLYLINE
  5
1b5
100
AcDbEntity
  8
0
 62
7
100
AcDbPolyline
 90
2
 70
0
 10
170.724308
 20
-80.740819
 30
0.0
 10
170.465489
 20
-79.774894
 30
0.0
  0
LWPOLYLINE
  5
1b6
100
AcDbEntity
  8
0
 62
7
100
AcDbPolyline
 90
2
 70
0
 10
183.988450
 20
-76.151427
 30
0.0
 10
184.247270
 20
-77.117353
 30
0.0
  0
LWPOLYLINE
  5
1b7
100
AcDbEntity
  8
0
 62
7
100
AcDbPolyline
 90
2
 70
0
 10
174.088956
 20
-93.297855
 30
0.0
 10
175.054881
 20
-93.039036
 30
0.0
  0
LWPOLYLINE
  5
1b8
100
AcDbEntity
  8
0
 62
7
100
AcDbPolyline
 90
2
 70
0
 10
183.988450
 20
-76.151427
 30
0.0
 10
183.022525
 20
-76.410246
 30
0.0
  0
LWPOLYLINE
  5
1b9
100
AcDbEntity
  8
0
 62
7
100
AcDbPolyline
 90
2
 70
0
 10
193.516005
 20
-73.563773
 30
0.0
 10
192.550079
 20
-73.822593
 30
0.0
  0
LWPOLYLINE
  5
1ba
100
AcDbEntity
  8
0
 62
7
100
AcDbPolyline
 90
2
 70
0
 10
206.073040
 20
-70.199126
 30
0.0
 10
206.331860
 20
-71.165052
 30
0.0
  0
LWPOLYLINE
  5
1bb
100
AcDbEntity
  8
0
 62
7
100
AcDbPolyline
 90
2
 70
0
 10
208.730581
 20
-83.980907
 30
0.0
 10
209.696507
 20
-83.722087
 30
0.0
  0
LWPOLYLINE
  5
1bc
100
AcDbEntity
  8
0
 62
7
100
AcDbPolyline
 90
2
 70
0
 10
192.808898
 20
-74.788518
 30
0.0
 10
192.550079
 20
-73.822593
 30
0.0
  0
LWPOLYLINE
  5
1bd
100
AcDbEntity
  8
0
 62
7
100
AcDbPolyline
 90
2
 70
0
 10
196.173546
 20
-87.345554
 30
0.0
 10
197.139471
 20
-87.086735
 30
0.0
  0
LWPOLYLINE
  5
1be
100
AcDbEntity
  8
0
 62
7
100
AcDbPolyline
 90
2
 70
0
 10
209.696507
 20
-83.722087
 30
0.0
 10
208.730581
 20
-83.980907
 30
0.0
  0
LWPOLYLINE
  5
1bf
100
AcDbEntity
  8
0
 62
7
100
AcDbPolyline
 90
2
 70
0
 10
196.173546
 20
-87.345554
 30
0.0
 10
195.914726
 20
-86.379628
 30
0.0
  0
LWPOLYLINE
  5
1c0
100
AcDbEntity
  8
0
 62
7
100
AcDbPolyline
 90
2
 70
0
 10
209.437688
 20
-82.756162
 30
0.0
 10
209.696507
 20
-83.722087
 30
0.0
  0
LWPOLYLINE
  5
1c1
100
AcDbEntity
  8
0
 62
7
100
AcDbPolyline
 90
2
 70
0
 10
206.073040
 20
-70.199126
 30
0.0
 10
205.107115
 20
-70.457945
 30
0.0
  0
LWPOLYLINE
  5
1c2
100
AcDbEntity
  8
0
 62
7
100
AcDbPolyline
 90
2
 70
0
 10
249.849881
 20
-49.072282
 30
0.0
 10
248.883955
 20
-49.331102
 30
0.0
  0
LWPOLYLINE
  5
1c3
100
AcDbEntity
  8
0
 62
7
100
AcDbPolyline
 90
2
 70
0
 10
262.406916
 20
-45.707635
 30
0.0
 10
261.440991
 20
-45.966454
 30
0.0
  0
LWPOLYLINE
  5
1c4
100
AcDbEntity
  8
0
 62
7
100
AcDbPolyline
 90
2
 70
0
 10
265.064457
 20
-59.489416
 30
0.0
 10
266.030383
 20
-59.230596
 30
0.0
  0
LWPOLYLINE
  5
1c5
100
AcDbEntity
  8
0
 62
7
100
AcDbPolyline
 90
2
 70
0
 10
252.507422
 20
-62.854063
 30
0.0
 10
253.473347
 20
-62.595244
 30
0.0
  0
LWPOLYLINE
  5
1c6
100
AcDbEntity
  8
0
 62
7
100
AcDbPolyline
 90
2
 70
0
 10
262.406916
 20
-45.707635
 30
0.0
 10
262.665736
 20
-46.673561
 30
0.0
  0
LWPOLYLINE
  5
1c7
100
AcDbEntity
  8
0
 62
7
100
AcDbPolyline
 90
3
 70
0
 10
265.771564
 20
-58.264671
 30
0.0
 10
266.030383
 20
-59.230596
 30
0.0
 10
265.064457
 20
-59.489416
 30
0.0
  0
LWPOLYLINE
  5
1c8
100
AcDbEntity
  8
0
 62
7
100
AcDbPolyline
 90
2
 70
0
 10
252.507422
 20
-62.854063
 30
0.0
 10
252.248602
 20
-61.888137
 30
0.0
  0
LWPOLYLINE
  5
1c9
100
AcDbEntity
  8
0
 62
7
100
AcDbPolyline
 90
2
 70
0
 10
249.142774
 20
-50.297027
 30
0.0
 10
248.883955
 20
-49.331102
 30
0.0
  0
LWPOLYLINE
  5
1ca
100
AcDbEntity
  8
0
 62
7
100
AcDbPolyline
 90
2
 70
0
 10
189.773012
 20
-68.275656
 30
0.0
 10
190.031831
 20
-69.241581
 30
0.0
  0
LWPOLYLINE
  5
1cb
100
AcDbEntity
  8
0
 62
7
100
AcDbPolyline
 90
2
 70
0
 10
173.144222
 20
-60.308012
 30
0.0
 10
172.885403
 20
-59.342087
 30
0.0
  0
LWPOLYLINE
  5
1cc
100
AcDbEntity
  8
0
 62
7
100
AcDbPolyline
 90
2
 70
0
 10
190.031831
 20
-69.241581
 30
0.0
 10
189.065905
 20
-69.500401
 30
0.0
  0
LWPOLYLINE
  5
1cd
100
AcDbEntity
  8
0
 62
7
100
AcDbPolyline
 90
2
 70
0
 10
176.508870
 20
-72.865048
 30
0.0
 10
177.474795
 20
-72.606229
 30
0.0
  0
LWPOLYLINE
  5
1ce
100
AcDbEntity
  8
0
 62
7
100
AcDbPolyline
 90
2
 70
0
 10
186.408364
 20
-55.718620
 30
0.0
 10
186.667184
 20
-56.684546
 30
0.0
  0
LWPOLYLINE
  5
1cf
100
AcDbEntity
  8
0
 62
7
100
AcDbPolyline
 90
2
 70
0
 10
189.065905
 20
-69.500401
 30
0.0
 10
190.031831
 20
-69.241581
 30
0.0
  0
LWPOLYLINE
  5
1d0
100
AcDbEntity
  8
0
 62
7
100
AcDbPolyline
 90
2
 70
0
 10
176.508870
 20
-72.865048
 30
0.0
 10
176.250050
 20
-71.899122
 30
0.0
  0
LWPOLYLINE
  5
1d1
100
AcDbEntity
  8
0
 62
7
100
AcDbPolyline
 90
2
 70
0
 10
173.851329
 20
-59.083267
 30
0.0
 10
172.885403
 20
-59.342087
 30
0.0
  0
LWPOLYLINE
  5
1d2
100
AcDbEntity
  8
0
 62
7
100
AcDbPolyline
 90
2
 70
0
 10
186.408364
 20
-55.718620
 30
0.0
 10
185.442439
 20
-55.977439
 30
0.0
  0
LWPOLYLINE
  5
1d3
100
AcDbEntity
  8
0
 62
7
100
AcDbPolyline
 90
2
 70
0
 10
191.556878
 20
-51.750901
 30
0.0
 10
190.590952
 20
-52.009721
 30
0.0
  0
LWPOLYLINE
  5
1d4
100
AcDbEntity
  8
0
 62
7
100
AcDbPolyline
 90
2
 70
0
 10
204.113913
 20
-48.386254
 30
0.0
 10
204.372733
 20
-49.352180
 30
0.0
  0
LWPOLYLINE
  5
1d5
100
AcDbEntity
  8
0
 62
7
100
AcDbPolyline
 90
2
 70
0
 10
194.214419
 20
-65.532682
 30
0.0
 10
195.180344
 20
-65.273863
 30
0.0
  0
LWPOLYLINE
  5
1d6
100
AcDbEntity
  8
0
 62
7
100
AcDbPolyline
 90
2
 70
0
 10
190.849771
 20
-52.975646
 30
0.0
 10
190.590952
 20
-52.009721
 30
0.0
  0
LWPOLYLINE
  5
1d7
100
AcDbEntity
  8
0
 62
7
100
AcDbPolyline
 90
2
 70
0
 10
207.478561
 20
-60.943290
 30
0.0
 10
207.737380
 20
-61.909215
 30
0.0
  0
LWPOLYLINE
  5
1d8
100
AcDbEntity
  8
0
 62
7
100
AcDbPolyline
 90
2
 70
0
 10
206.771454
 20
-62.168035
 30
0.0
 10
207.737380
 20
-61.909215
 30
0.0
  0
LWPOLYLINE
  5
1d9
100
AcDbEntity
  8
0
 62
7
100
AcDbPolyline
 90
2
 70
0
 10
204.113913
 20
-48.386254
 30
0.0
 10
203.147988
 20
-48.645073
 30
0.0
  0
LWPOLYLINE
  5
1da
100
AcDbEntity
  8
0
 62
7
100
AcDbPolyline
 90
2
 70
0
 10
194.214419
 20
-65.532682
 30
0.0
 10
193.955599
 20
-64.566756
 30
0.0
  0
LWPOLYLINE
  5
1db
100
AcDbEntity
  8
0
 62
7
100
AcDbPolyline
 90
2
 70
0
 10
207.737380
 20
-61.909215
 30
0.0
 10
206.771454
 20
-62.168035
 30
0.0
  0
LWPOLYLINE
  5
1dc
100
AcDbEntity
  8
0
 62
7
100
AcDbPolyline
 90
2
 70
0
 10
211.272903
 20
-55.785479
 30
0.0
 10
212.238828
 20
-55.526660
 30
0.0
  0
LWPOLYLINE
  5
1dd
100
AcDbEntity
  8
0
 62
7
100
AcDbPolyline
 90
2
 70
0
 10
207.908255
 20
-43.228443
 30
0.0
 10
207.649436
 20
-42.262518
 30
0.0
  0
LWPOLYLINE
  5
1de
100
AcDbEntity
  8
0
 62
7
100
AcDbPolyline
 90
2
 70
0
 10
211.272903
 20
-55.785479
 30
0.0
 10
211.014083
 20
-54.819553
 30
0.0
  0
LWPOLYLINE
  5
1df
100
AcDbEntity
  8
0
 62
7
100
AcDbPolyline
 90
2
 70
0
 10
224.537045
 20
-51.196087
 30
0.0
 10
224.795864
 20
-52.162012
 30
0.0
  0
LWPOLYLINE
  5
1e0
100
AcDbEntity
  8
0
 62
7
100
AcDbPolyline
 90
2
 70
0
 10
221.172397
 20
-38.639051
 30
0.0
 10
221.431217
 20
-39.604977
 30
0.0
  0
LWPOLYLINE
  5
1e1
100
AcDbEntity
  8
0
 62
7
100
AcDbPolyline
 90
2
 70
0
 10
221.172397
 20
-38.639051
 30
0.0
 10
220.206472
 20
-38.897870
 30
0.0
  0
LWPOLYLINE
  5
1e2
100
AcDbEntity
  8
0
 62
7
100
AcDbPolyline
 90
2
 70
0
 10
208.615362
 20
-42.003698
 30
0.0
 10
207.649436
 20
-42.262518
 30
0.0
  0
LWPOLYLINE
  5
1e3
100
AcDbEntity
  8
0
 62
7
100
AcDbPolyline
 90
2
 70
1
 10
224.795864
 20
-52.162012
 30
0.0
 10
223.829938
 20
-52.420832
 30
0.0
  0
LWPOLYLINE
  5
1e4
100
AcDbEntity
  8
0
 62
7
100
AcDbPolyline
 90
2
 70
0
 10
260.854000
 20
-39.912077
 30
0.0
 10
261.112819
 20
-40.878002
 30
0.0
  0
LWPOLYLINE
  5
1e5
100
AcDbEntity
  8
0
 62
7
100
AcDbPolyline
 90
2
 70
0
 10
247.589858
 20
-44.501469
 30
0.0
 10
248.555783
 20
-44.242650
 30
0.0
  0
LWPOLYLINE
  5
1e6
100
AcDbEntity
  8
0
 62
7
100
AcDbPolyline
 90
2
 70
0
 10
244.225210
 20
-31.944433
 30
0.0
 10
243.966391
 20
-30.978508
 30
0.0
  0
LWPOLYLINE
  5
1e7
100
AcDbEntity
  8
0
 62
7
100
AcDbPolyline
 90
2
 70
0
 10
247.589858
 20
-44.501469
 30
0.0
 10
247.331038
 20
-43.535543
 30
0.0
  0
LWPOLYLINE
  5
1e8
100
AcDbEntity
  8
0
 62
7
100
AcDbPolyline
 90
2
 70
0
 10
257.489352
 20
-27.355041
 30
0.0
 10
257.748172
 20
-28.320967
 30
0.0
  0
LWPOLYLINE
  5
1e9
100
AcDbEntity
  8
0
 62
7
100
AcDbPolyline
 90
2
 70
0
 10
260.146893
 20
-41.136822
 30
0.0
 10
261.112819
 20
-40.878002
 30
0.0
  0
LWPOLYLINE
  5
1ea
100
AcDbEntity
  8
0
 62
7
100
AcDbPolyline
 90
2
 70
0
 10
244.932317
 20
-30.719688
 30
0.0
 10
243.966391
 20
-30.978508
 30
0.0
  0
LWPOLYLINE
  5
1eb
100
AcDbEntity
  8
0
 62
7
100
AcDbPolyline
 90
2
 70
0
 10
261.112819
 20
-40.878002
 30
0.0
 10
260.146893
 20
-41.136822
 30
0.0
  0
LWPOLYLINE
  5
1ec
100
AcDbEntity
  8
0
 62
7
100
AcDbPolyline
 90
2
 70
0
 10
257.489352
 20
-27.355041
 30
0.0
 10
256.523427
 20
-27.613860
 30
0.0
  0
LWPOLYLINE
  5
1ed
100
AcDbEntity
  8
0
 62
7
100
AcDbPolyline
 90
2
 70
0
 10
184.379294
 20
-28.827494
 30
0.0
 10
184.120474
 20
-27.861568
 30
0.0
  0
LWPOLYLINE
  5
1ee
100
AcDbEntity
  8
0
 62
7
100
AcDbPolyline
 90
2
 70
0
 10
194.278788
 20
-11.681066
 30
0.0
 10
194.537608
 20
-12.646992
 30
0.0
  0
LWPOLYLINE
  5
1ef
100
AcDbEntity
  8
0
 62
7
100
AcDbPolyline
 90
2
 70
0
 10
184.379294
 20
-28.827494
 30
0.0
 10
185.345219
 20
-28.568675
 30
0.0
  0
LWPOLYLINE
  5
1f0
100
AcDbEntity
  8
0
 62
7
100
AcDbPolyline
 90
2
 70
0
 10
181.014646
 20
-16.270458
 30
0.0
 10
180.755827
 20
-15.304533
 30
0.0
  0
LWPOLYLINE
  5
1f1
100
AcDbEntity
  8
0
 62
7
100
AcDbPolyline
 90
2
 70
0
 10
197.902255
 20
-25.204027
 30
0.0
 10
196.936329
 20
-25.462847
 30
0.0
  0
LWPOLYLINE
  5
1f2
100
AcDbEntity
  8
0
 62
7
100
AcDbPolyline
 90
2
 70
0
 10
181.721753
 20
-15.045713
 30
0.0
 10
180.755827
 20
-15.304533
 30
0.0
  0
LWPOLYLINE
  5
1f3
100
AcDbEntity
  8
0
 62
7
100
AcDbPolyline
 90
2
 70
0
 10
196.936329
 20
-25.462847
 30
0.0
 10
197.902255
 20
-25.204027
 30
0.0
  0
LWPOLYLINE
  5
1f4
100
AcDbEntity
  8
0
 62
7
100
AcDbPolyline
 90
2
 70
0
 10
194.278788
 20
-11.681066
 30
0.0
 10
193.312863
 20
-11.939885
 30
0.0
  0
LWPOLYLINE
  5
1f5
100
AcDbEntity
  8
0
 62
7
100
AcDbPolyline
 90
2
 70
0
 10
197.643436
 20
-24.238102
 30
0.0
 10
197.902255
 20
-25.204027
 30
0.0
  0
LWPOLYLINE
  5
1f6
100
AcDbEntity
  8
0
 62
7
100
AcDbPolyline
 90
2
 70
0
 10
230.983961
 20
-1.845944
 30
0.0
 10
230.018036
 20
-2.104763
 30
0.0
  0
LWPOLYLINE
  5
1f7
100
AcDbEntity
  8
0
 62
7
100
AcDbPolyline
 90
2
 70
0
 10
233.641502
 20
-15.627725
 30
0.0
 10
234.607428
 20
-15.368905
 30
0.0
  0
LWPOLYLINE
  5
1f8
100
AcDbEntity
  8
0
 62
7
100
AcDbPolyline
 90
2
 70
0
 10
217.719819
 20
-6.435336
 30
0.0
 10
217.461000
 20
-5.469411
 30
0.0
  0
LWPOLYLINE
  5
1f9
100
AcDbEntity
  8
0
 62
7
100
AcDbPolyline
 90
2
 70
0
 10
221.084467
 20
-18.992372
 30
0.0
 10
220.825647
 20
-18.026446
 30
0.0
  0
LWPOLYLINE
  5
1fa
100
AcDbEntity
  8
0
 62
7
100
AcDbPolyline
 90
2
 70
0
 10
234.607428
 20
-15.368905
 30
0.0
 10
233.641502
 20
-15.627725
 30
0.0
  0
LWPOLYLINE
  5
1fb
100
AcDbEntity
  8
0
 62
7
100
AcDbPolyline
 90
2
 70
0
 10
230.983961
 20
-1.845944
 30
0.0
 10
231.242781
 20
-2.811870
 30
0.0
  0
LWPOLYLINE
  5
1fc
100
AcDbEntity
  8
0
 62
7
100
AcDbPolyline
 90
2
 70
0
 10
218.426926
 20
-5.210591
 30
0.0
 10
217.461000
 20
-5.469411
 30
0.0
  0
LWPOLYLINE
  5
1fd
100
AcDbEntity
  8
0
 62
7
100
AcDbPolyline
 90
2
 70
0
 10
234.348609
 20
-14.402980
 30
0.0
 10
234.607428
 20
-15.368905
 30
0.0
  0
LWPOLYLINE
  5
1fe
100
AcDbEntity
  8
0
 62
7
100
AcDbPolyline
 90
2
 70
0
 10
221.084467
 20
-18.992372
 30
0.0
 10
222.050392
 20
-18.733553
 30
0.0
  0
LWPOLYLINE
  5
1ff
100
AcDbEntity
  8
0
 62
7
100
AcDbPolyline
 90
2
 70
0
 10
201.437779
 20
-19.080304
 30
0.0
 10
202.403704
 20
-18.821485
 30
0.0
  0
LWPOLYLINE
  5
200
100
AcDbEntity
  8
0
 62
7
100
AcDbPolyline
 90
2
 70
0
 10
201.437779
 20
-19.080304
 30
0.0
 10
201.178959
 20
-18.114378
 30
0.0
  0
LWPOLYLINE
  5
201
100
AcDbEntity
  8
0
 62
7
100
AcDbPolyline
 90
2
 70
0
 10
198.780238
 20
-5.298523
 30
0.0
 10
197.814312
 20
-5.557343
 30
0.0
  0
LWPOLYLINE
  5
202
100
AcDbEntity
  8
0
 62
7
100
AcDbPolyline
 90
2
 70
0
 10
213.994814
 20
-15.715657
 30
0.0
 10
214.960740
 20
-15.456837
 30
0.0
  0
LWPOLYLINE
  5
203
100
AcDbEntity
  8
0
 62
7
100
AcDbPolyline
 90
2
 70
0
 10
214.701921
 20
-14.490912
 30
0.0
 10
214.960740
 20
-15.456837
 30
0.0
  0
LWPOLYLINE
  5
204
100
AcDbEntity
  8
0
 62
7
100
AcDbPolyline
 90
2
 70
0
 10
211.337273
 20
-1.933876
 30
0.0
 10
211.596093
 20
-2.899802
 30
0.0
  0
LWPOLYLINE
  5
205
100
AcDbEntity
  8
0
 62
7
100
AcDbPolyline
 90
2
 70
0
 10
214.960740
 20
-15.456837
 30
0.0
 10
213.994814
 20
-15.715657
 30
0.0
  0
LWPOLYLINE
  5
206
100
AcDbEntity
  8
0
 62
7
100
AcDbPolyline
 90
2
 70
0
 10
211.337273
 20
-1.933876
 30
0.0
 10
210.371348
 20
-2.192695
 30
0.0
  0
LWPOLYLINE
  5
207
100
AcDbEntity
  8
0
 62
7
100
AcDbPolyline
 90
2
 70
0
 10
198.073131
 20
-6.523268
 30
0.0
 10
197.814312
 20
-5.557343
 30
0.0
  0
LWPOLYLINE
  5
208
100
AcDbEntity
  8
0
 62
7
100
AcDbPolyline
 90
2
 70
0
 10
171.591310
 20
-54.512465
 30
0.0
 10
172.557235
 20
-54.253646
 30
0.0
  0
LWPOLYLINE
  5
209
100
AcDbEntity
  8
0
 62
7
100
AcDbPolyline
 90
2
 70
0
 10
184.855452
 20
-49.923073
 30
0.0
 10
185.114271
 20
-50.888998
 30
0.0
  0
LWPOLYLINE
  5
20a
100
AcDbEntity
  8
0
 62
7
100
AcDbPolyline
 90
2
 70
0
 10
181.490804
 20
-37.366037
 30
0.0
 10
180.524879
 20
-37.624856
 30
0.0
  0
LWPOLYLINE
  5
20b
100
AcDbEntity
  8
0
 62
7
100
AcDbPolyline
 90
2
 70
0
 10
171.591310
 20
-54.512465
 30
0.0
 10
171.332490
 20
-53.546539
 30
0.0
  0
LWPOLYLINE
  5
20c
100
AcDbEntity
  8
0
 62
7
100
AcDbPolyline
 90
2
 70
0
 10
184.148345
 20
-51.147818
 30
0.0
 10
185.114271
 20
-50.888998
 30
0.0
  0
LWPOLYLINE
  5
20d
100
AcDbEntity
  8
0
 62
7
100
AcDbPolyline
 90
2
 70
0
 10
181.490804
 20
-37.366037
 30
0.0
 10
181.749624
 20
-38.331963
 30
0.0
  0
LWPOLYLINE
  5
20e
100
AcDbEntity
  8
0
 62
7
100
AcDbPolyline
 90
2
 70
0
 10
185.114271
 20
-50.888998
 30
0.0
 10
184.148345
 20
-51.147818
 30
0.0
  0
LWPOLYLINE
  5
20f
100
AcDbEntity
  8
0
 62
7
100
AcDbPolyline
 90
2
 70
0
 10
168.226662
 20
-41.955429
 30
0.0
 10
167.967843
 20
-40.989504
 30
0.0
  0
LWPOLYLINE
  5
210
100
AcDbEntity
  8
0
 62
7
100
AcDbPolyline
 90
2
 70
0
 10
168.933769
 20
-40.730684
 30
0.0
 10
167.967843
 20
-40.989504
 30
0.0
  0
LWPOLYLINE
  5
211
100
AcDbEntity
  8
0
 62
7
100
AcDbPolyline
 90
2
 70
0
 10
226.002032
 20
-37.344969
 30
0.0
 10
225.743212
 20
-36.379043
 30
0.0
  0
LWPOLYLINE
  5
212
100
AcDbEntity
  8
0
 62
7
100
AcDbPolyline
 90
2
 70
0
 10
235.901526
 20
-20.198541
 30
0.0
 10
236.160346
 20
-21.164467
 30
0.0
  0
LWPOLYLINE
  5
213
100
AcDbEntity
  8
0
 62
7
100
AcDbPolyline
 90
2
 70
0
 10
223.344491
 20
-23.563188
 30
0.0
 10
222.378565
 20
-23.822008
 30
0.0
  0
LWPOLYLINE
  5
214
100
AcDbEntity
  8
0
 62
7
100
AcDbPolyline
 90
2
 70
0
 10
235.901526
 20
-20.198541
 30
0.0
 10
234.935601
 20
-20.457360
 30
0.0
  0
LWPOLYLINE
  5
215
100
AcDbEntity
  8
0
 62
7
100
AcDbPolyline
 90
2
 70
0
 10
226.002032
 20
-37.344969
 30
0.0
 10
226.967957
 20
-37.086150
 30
0.0
  0
LWPOLYLINE
  5
216
100
AcDbEntity
  8
0
 62
7
100
AcDbPolyline
 90
2
 70
0
 10
239.524993
 20
-33.721502
 30
0.0
 10
238.559067
 20
-33.980322
 30
0.0
  0
LWPOLYLINE
  5
217
100
AcDbEntity
  8
0
 62
7
100
AcDbPolyline
 90
2
 70
0
 10
222.637384
 20
-24.787933
 30
0.0
 10
222.378565
 20
-23.822008
 30
0.0
  0
LWPOLYLINE
  5
218
100
AcDbEntity
  8
0
 62
7
100
AcDbPolyline
 90
2
 70
0
 10
239.266174
 20
-32.755577
 30
0.0
 10
239.524993
 20
-33.721502
 30
0.0
  0
LWPOLYLINE
  5
219
100
AcDbEntity
  8
0
 62
7
100
AcDbPolyline
 90
2
 70
0
 10
238.559067
 20
-33.980322
 30
0.0
 10
239.524993
 20
-33.721502
 30
0.0
  0
LWPOLYLINE
  5
21a
100
AcDbEntity
  8
0
 62
7
100
AcDbPolyline
 90
2
 70
0
 10
199.196341
 20
-30.033659
 30
0.0
 10
199.455161
 20
-30.999585
 30
0.0
  0
LWPOLYLINE
  5
21b
100
AcDbEntity
  8
0
 62
7
100
AcDbPolyline
 90
2
 70
0
 10
199.196341
 20
-30.033659
 30
0.0
 10
198.230416
 20
-30.292478
 30
0.0
  0
LWPOLYLINE
  5
21c
100
AcDbEntity
  8
0
 62
7
100
AcDbPolyline
 90
2
 70
0
 10
189.296847
 20
-47.180087
 30
0.0
 10
190.262772
 20
-46.921268
 30
0.0
  0
LWPOLYLINE
  5
21d
100
AcDbEntity
  8
0
 62
7
100
AcDbPolyline
 90
2
 70
0
 10
202.819808
 20
-43.556620
 30
0.0
 10
201.853882
 20
-43.815440
 30
0.0
  0
LWPOLYLINE
  5
21e
100
AcDbEntity
  8
0
 62
7
100
AcDbPolyline
 90
2
 70
0
 10
189.296847
 20
-47.180087
 30
0.0
 10
189.038027
 20
-46.214161
 30
0.0
  0
LWPOLYLINE
  5
21f
100
AcDbEntity
  8
0
 62
7
100
AcDbPolyline
 90
2
 70
0
 10
202.560989
 20
-42.590695
 30
0.0
 10
202.819808
 20
-43.556620
 30
0.0
  0
LWPOLYLINE
  5
220
100
AcDbEntity
  8
0
 62
7
100
AcDbPolyline
 90
2
 70
0
 10
201.853882
 20
-43.815440
 30
0.0
 10
202.819808
 20
-43.556620
 30
0.0
  0
LWPOLYLINE
  5
221
100
AcDbEntity
  8
0
 62
7
100
AcDbPolyline
 90
2
 70
0
 10
185.932199
 20
-34.623051
 30
0.0
 10
185.673380
 20
-33.657126
 30
0.0
  0
LWPOLYLINE
  5
222
100
AcDbEntity
  8
0
 62
7
100
AcDbPolyline
 90
2
 70
0
 10
186.639306
 20
-33.398306
 30
0.0
 10
185.673380
 20
-33.657126
 30
0.0
  0
LWPOLYLINE
  5
223
100
AcDbEntity
  8
0
 62
7
100
AcDbPolyline
 90
3
 70
0
 10
219.619487
 20
-32.843495
 30
0.0
 10
219.878306
 20
-33.809420
 30
0.0
 10
218.912380
 20
-34.068240
 30
0.0
  0
LWPOLYLINE
  5
224
100
AcDbEntity
  8
0
 62
7
100
AcDbPolyline
 90
2
 70
0
 10
206.355345
 20
-37.432887
 30
0.0
 10
207.321270
 20
-37.174068
 30
0.0
  0
LWPOLYLINE
  5
225
100
AcDbEntity
  8
0
 62
7
100
AcDbPolyline
 90
2
 70
0
 10
216.254839
 20
-20.286459
 30
0.0
 10
216.513659
 20
-21.252385
 30
0.0
  0
LWPOLYLINE
  5
226
100
AcDbEntity
  8
0
 62
7
100
AcDbPolyline
 90
2
 70
0
 10
203.697804
 20
-23.651106
 30
0.0
 10
202.731878
 20
-23.909926
 30
0.0
  0
LWPOLYLINE
  5
227
100
AcDbEntity
  8
0
 62
7
100
AcDbPolyline
 90
2
 70
0
 10
202.990697
 20
-24.875851
 30
0.0
 10
202.731878
 20
-23.909926
 30
0.0
  0
LWPOLYLINE
  5
228
100
AcDbEntity
  8
0
 62
7
100
AcDbPolyline
 90
2
 70
0
 10
218.912380
 20
-34.068240
 30
0.0
 10
219.878306
 20
-33.809420
 30
0.0
  0
LWPOLYLINE
  5
229
100
AcDbEntity
  8
0
 62
7
100
AcDbPolyline
 90
2
 70
0
 10
206.355345
 20
-37.432887
 30
0.0
 10
206.096525
 20
-36.466961
 30
0.0
  0
LWPOLYLINE
  5
22a
100
AcDbEntity
  8
0
 62
7
100
AcDbPolyline
 90
2
 70
0
 10
216.254839
 20
-20.286459
 30
0.0
 10
215.288914
 20
-20.545278
 30
0.0
  0
LWPOLYLINE
  5
22b
100
AcDbEntity
  8
0
 62
7
100
AcDbPolyline
 90
2
 70
0
 10
240.014754
 20
-12.367099
 30
0.0
 10
239.048828
 20
-12.625919
 30
0.0
  0
LWPOLYLINE
  5
22c
100
AcDbEntity
  8
0
 62
7
100
AcDbPolyline
 90
2
 70
0
 10
242.672295
 20
-26.148880
 30
0.0
 10
242.413475
 20
-25.182954
 30
0.0
  0
LWPOLYLINE
  5
22d
100
AcDbEntity
  8
0
 62
7
100
AcDbPolyline
 90
2
 70
0
 10
255.229330
 20
-22.784233
 30
0.0
 10
256.195256
 20
-22.525413
 30
0.0
  0
LWPOLYLINE
  5
22e
100
AcDbEntity
  8
0
 62
7
100
AcDbPolyline
 90
2
 70
0
 10
252.571789
 20
-9.002452
 30
0.0
 10
252.830609
 20
-9.968378
 30
0.0
  0
LWPOLYLINE
  5
22f
100
AcDbEntity
  8
0
 62
7
100
AcDbPolyline
 90
2
 70
0
 10
239.307647
 20
-13.591844
 30
0.0
 10
239.048828
 20
-12.625919
 30
0.0
  0
LWPOLYLINE
  5
230
100
AcDbEntity
  8
0
 62
7
100
AcDbPolyline
 90
2
 70
0
 10
256.195256
 20
-22.525413
 30
0.0
 10
255.229330
 20
-22.784233
 30
0.0
  0
LWPOLYLINE
  5
231
100
AcDbEntity
  8
0
 62
7
100
AcDbPolyline
 90
2
 70
0
 10
255.936437
 20
-21.559488
 30
0.0
 10
256.195256
 20
-22.525413
 30
0.0
  0
LWPOLYLINE
  5
232
100
AcDbEntity
  8
0
 62
7
100
AcDbPolyline
 90
2
 70
0
 10
242.672295
 20
-26.148880
 30
0.0
 10
243.638220
 20
-25.890061
 30
0.0
  0
LWPOLYLINE
  5
233
100
AcDbEntity
  8
0
 62
7
100
AcDbPolyline
 90
2
 70
0
 10
252.571789
 20
-9.002452
 30
0.0
 10
251.605864
 20
-9.261271
 30
0.0
  0
LWPOLYLINE
  5
234
100
AcDbEntity
  8
0
 62
7
100
AcDbPolyline
 90
2
 70
0
 10
163.309097
 20
-23.602839
 30
0.0
 10
163.050278
 20
-22.636914
 30
0.0
  0
LWPOLYLINE
  5
235
100
AcDbEntity
  8
0
 62
7
100
AcDbPolyline
 90
2
 70
0
 10
179.937887
 20
-31.570483
 30
0.0
 10
180.196706
 20
-32.536408
 30
0.0
  0
LWPOLYLINE
  5
236
100
AcDbEntity
  8
0
 62
7
100
AcDbPolyline
 90
2
 70
0
 10
176.573239
 20
-19.013447
 30
0.0
 10
175.607314
 20
-19.272266
 30
0.0
  0
LWPOLYLINE
  5
237
100
AcDbEntity
  8
0
 62
7
100
AcDbPolyline
 90
2
 70
0
 10
176.573239
 20
-19.013447
 30
0.0
 10
176.832059
 20
-19.979373
 30
0.0
  0
LWPOLYLINE
  5
238
100
AcDbEntity
  8
0
 62
7
100
AcDbPolyline
 90
2
 70
0
 10
166.673745
 20
-36.159875
 30
0.0
 10
167.639670
 20
-35.901056
 30
0.0
  0
LWPOLYLINE
  5
239
100
AcDbEntity
  8
0
 62
7
100
AcDbPolyline
 90
2
 70
0
 10
166.673745
 20
-36.159875
 30
0.0
 10
166.414925
 20
-35.193949
 30
0.0
  0
LWPOLYLINE
  5
23a
100
AcDbEntity
  8
0
 62
7
100
AcDbPolyline
 90
2
 70
0
 10
164.016204
 20
-22.378094
 30
0.0
 10
163.050278
 20
-22.636914
 30
0.0
  0
LWPOLYLINE
  5
23b
100
AcDbEntity
  8
0
 62
7
100
AcDbPolyline
 90
2
 70
1
 10
179.230780
 20
-32.795228
 30
0.0
 10
180.196706
 20
-32.536408
 30
0.0
  0
LWPOLYLINE
  5
23c
100
AcDbEntity
  8
0
 62
7
100
AcDbPolyline
 90
2
 70
0
 10
22.374231
 20
-27.731704
 30
0.0
 10
21.408306
 20
-27.472885
 30
0.0
  0
LWPOLYLINE
  5
23d
100
AcDbEntity
  8
0
 62
7
100
AcDbPolyline
 90
2
 70
0
 10
8.851270
 20
-24.108237
 30
0.0
 10
9.110089
 20
-23.142312
 30
0.0
  0
LWPOLYLINE
  5
23e
100
AcDbEntity
  8
0
 62
7
100
AcDbPolyline
 90
2
 70
0
 10
21.408306
 20
-27.472885
 30
0.0
 10
22.374231
 20
-27.731704
 30
0.0
  0
LWPOLYLINE
  5
23f
100
AcDbEntity
  8
0
 62
7
100
AcDbPolyline
 90
2
 70
0
 10
25.997698
 20
-14.208743
 30
0.0
 10
25.738879
 20
-15.174668
 30
0.0
  0
LWPOLYLINE
  5
240
100
AcDbEntity
  8
0
 62
7
100
AcDbPolyline
 90
2
 70
0
 10
22.633051
 20
-26.765778
 30
0.0
 10
22.374231
 20
-27.731704
 30
0.0
  0
LWPOLYLINE
  5
241
100
AcDbEntity
  8
0
 62
7
100
AcDbPolyline
 90
2
 70
0
 10
8.851270
 20
-24.108237
 30
0.0
 10
9.817196
 20
-24.367057
 30
0.0
  0
LWPOLYLINE
  5
242
100
AcDbEntity
  8
0
 62
7
100
AcDbPolyline
 90
2
 70
0
 10
13.440662
 20
-10.844095
 30
0.0
 10
12.474737
 20
-10.585276
 30
0.0
  0
LWPOLYLINE
  5
243
100
AcDbEntity
  8
0
 62
7
100
AcDbPolyline
 90
2
 70
0
 10
12.215917
 20
-11.551202
 30
0.0
 10
12.474737
 20
-10.585276
 30
0.0
  0
LWPOLYLINE
  5
244
100
AcDbEntity
  8
0
 62
7
100
AcDbPolyline
 90
2
 70
0
 10
25.997698
 20
-14.208743
 30
0.0
 10
25.031772
 20
-13.949923
 30
0.0
  0
LWPOLYLINE
  5
245
100
AcDbEntity
  8
0
 62
7
100
AcDbPolyline
 90
2
 70
0
 10
263.802538
 20
-27.733976
 30
0.0
 10
264.768463
 20
-27.475157
 30
0.0
  0
LWPOLYLINE
  5
246
100
AcDbEntity
  8
0
 62
7
100
AcDbPolyline
 90
2
 70
0
 10
276.359573
 20
-24.369329
 30
0.0
 10
277.325499
 20
-24.110509
 30
0.0
  0
LWPOLYLINE
  5
247
100
AcDbEntity
  8
0
 62
7
100
AcDbPolyline
 90
2
 70
0
 10
260.437890
 20
-15.176940
 30
0.0
 10
260.179071
 20
-14.211015
 30
0.0
  0
LWPOLYLINE
  5
248
100
AcDbEntity
  8
0
 62
7
100
AcDbPolyline
 90
2
 70
0
 10
261.144997
 20
-13.952195
 30
0.0
 10
260.179071
 20
-14.211015
 30
0.0
  0
LWPOLYLINE
  5
249
100
AcDbEntity
  8
0
 62
7
100
AcDbPolyline
 90
2
 70
0
 10
277.066680
 20
-23.144584
 30
0.0
 10
277.325499
 20
-24.110509
 30
0.0
  0
LWPOLYLINE
  5
24a
100
AcDbEntity
  8
0
 62
7
100
AcDbPolyline
 90
2
 70
0
 10
263.802538
 20
-27.733976
 30
0.0
 10
263.543718
 20
-26.768050
 30
0.0
  0
LWPOLYLINE
  5
24b
100
AcDbEntity
  8
0
 62
7
100
AcDbPolyline
 90
2
 70
0
 10
277.325499
 20
-24.110509
 30
0.0
 10
276.359573
 20
-24.369329
 30
0.0
  0
LWPOLYLINE
  5
24c
100
AcDbEntity
  8
0
 62
7
100
AcDbPolyline
 90
2
 70
0
 10
273.702032
 20
-10.587548
 30
0.0
 10
273.960852
 20
-11.553474
 30
0.0
  0
LWPOLYLINE
  5
24d
100
AcDbEntity
  8
0
 62
7
100
AcDbPolyline
 90
2
 70
0
 10
273.702032
 20
-10.587548
 30
0.0
 10
272.736107
 20
-10.846367
 30
0.0
  0
LWPOLYLINE
  5
24e
100
AcDbEntity
  8
0
 62
7
100
AcDbPolyline
 90
2
 70
0
 10
8.523110
 20
-29.196686
 30
0.0
 10
7.557185
 20
-28.937867
 30
0.0
  0
LWPOLYLINE
  5
24f
100
AcDbEntity
  8
0
 62
7
100
AcDbPolyline
 90
2
 70
0
 10
3.933718
 20
-42.460828
 30
0.0
 10
4.899644
 20
-42.719648
 30
0.0
  0
LWPOLYLINE
  5
250
100
AcDbEntity
  8
0
 62
7
100
AcDbPolyline
 90
3
 70
0
 10
17.715499
 20
-45.118369
 30
0.0
 10
17.456679
 20
-46.084295
 30
0.0
 10
16.490754
 20
-45.825476
 30
0.0
  0
LWPOLYLINE
  5
251
100
AcDbEntity
  8
0
 62
7
100
AcDbPolyline
 90
2
 70
0
 10
21.080146
 20
-32.561334
 30
0.0
 10
20.114220
 20
-32.302514
 30
0.0
  0
LWPOLYLINE
  5
252
100
AcDbEntity
  8
0
 62
7
100
AcDbPolyline
 90
2
 70
0
 10
7.298365
 20
-29.903793
 30
0.0
 10
7.557185
 20
-28.937867
 30
0.0
  0
LWPOLYLINE
  5
253
100
AcDbEntity
  8
0
 62
7
100
AcDbPolyline
 90
2
 70
0
 10
16.490754
 20
-45.825476
 30
0.0
 10
17.456679
 20
-46.084295
 30
0.0
  0
LWPOLYLINE
  5
254
100
AcDbEntity
  8
0
 62
7
100
AcDbPolyline
 90
2
 70
0
 10
3.933718
 20
-42.460828
 30
0.0
 10
4.192537
 20
-41.494903
 30
0.0
  0
LWPOLYLINE
  5
255
100
AcDbEntity
  8
0
 62
7
100
AcDbPolyline
 90
2
 70
0
 10
21.080146
 20
-32.561334
 30
0.0
 10
20.821327
 20
-33.527259
 30
0.0
  0
LWPOLYLINE
  5
256
100
AcDbEntity
  8
0
 62
7
100
AcDbPolyline
 90
2
 70
0
 10
266.062561
 20
-32.304798
 30
0.0
 10
265.096635
 20
-32.563618
 30
0.0
  0
LWPOLYLINE
  5
257
100
AcDbEntity
  8
0
 62
7
100
AcDbPolyline
 90
2
 70
0
 10
278.619596
 20
-28.940151
 30
0.0
 10
277.653671
 20
-29.198970
 30
0.0
  0
LWPOLYLINE
  5
258
100
AcDbEntity
  8
0
 62
7
100
AcDbPolyline
 90
2
 70
0
 10
268.720102
 20
-46.086579
 30
0.0
 10
268.461282
 20
-45.120653
 30
0.0
  0
LWPOLYLINE
  5
259
100
AcDbEntity
  8
0
 62
7
100
AcDbPolyline
 90
2
 70
0
 10
281.984244
 20
-41.497187
 30
0.0
 10
282.243063
 20
-42.463112
 30
0.0
  0
LWPOLYLINE
  5
25a
100
AcDbEntity
  8
0
 62
7
100
AcDbPolyline
 90
2
 70
0
 10
268.720102
 20
-46.086579
 30
0.0
 10
269.686027
 20
-45.827760
 30
0.0
  0
LWPOLYLINE
  5
25b
100
AcDbEntity
  8
0
 62
7
100
AcDbPolyline
 90
2
 70
0
 10
265.355454
 20
-33.529543
 30
0.0
 10
265.096635
 20
-32.563618
 30
0.0
  0
LWPOLYLINE
  5
25c
100
AcDbEntity
  8
0
 62
7
100
AcDbPolyline
 90
2
 70
0
 10
282.243063
 20
-42.463112
 30
0.0
 10
281.277137
 20
-42.721932
 30
0.0
  0
LWPOLYLINE
  5
25d
100
AcDbEntity
  8
0
 62
7
100
AcDbPolyline
 90
2
 70
0
 10
278.619596
 20
-28.940151
 30
0.0
 10
278.878416
 20
-29.906077
 30
0.0
  0
LWPOLYLINE
  5
25e
100
AcDbEntity
  8
0
 62
7
100
AcDbPolyline
 90
2
 70
0
 10
281.277137
 20
-42.721932
 30
0.0
 10
282.243063
 20
-42.463112
 30
0.0
  0
LWPOLYLINE
  5
25f
100
AcDbEntity
  8
0
 62
7
100
AcDbPolyline
 90
2
 70
0
 10
20.425001
 20
-87.154638
 30
0.0
 10
21.425001
 20
-87.154638
 30
0.0
  0
LWPOLYLINE
  5
260
100
AcDbEntity
  8
0
 62
7
100
AcDbPolyline
 90
2
 70
0
 10
7.425001
 20
-87.154638
 30
0.0
 10
8.425001
 20
-87.154638
 30
0.0
  0
LWPOLYLINE
  5
261
100
AcDbEntity
  8
0
 62
7
100
AcDbPolyline
 90
2
 70
0
 10
7.425001
 20
-74.154638
 30
0.0
 10
7.425001
 20
-73.154638
 30
0.0
  0
LWPOLYLINE
  5
262
100
AcDbEntity
  8
0
 62
7
100
AcDbPolyline
 90
2
 70
0
 10
21.425001
 20
-86.154638
 30
0.0
 10
21.425001
 20
-87.154638
 30
0.0
  0
LWPOLYLINE
  5
263
100
AcDbEntity
  8
0
 62
7
100
AcDbPolyline
 90
2
 70
0
 10
7.425001
 20
-87.154638
 30
0.0
 10
7.425001
 20
-86.154638
 30
0.0
  0
LWPOLYLINE
  5
264
100
AcDbEntity
  8
0
 62
7
100
AcDbPolyline
 90
2
 70
0
 10
21.425001
 20
-73.154638
 30
0.0
 10
21.425001
 20
-74.154638
 30
0.0
  0
LWPOLYLINE
  5
265
100
AcDbEntity
  8
0
 62
7
100
AcDbPolyline
 90
2
 70
0
 10
21.425001
 20
-73.154638
 30
0.0
 10
20.425001
 20
-73.154638
 30
0.0
  0
LWPOLYLINE
  5
266
100
AcDbEntity
  8
0
 62
7
100
AcDbPolyline
 90
2
 70
0
 10
21.425001
 20
-87.154638
 30
0.0
 10
20.425001
 20
-87.154638
 30
0.0
  0
LWPOLYLINE
  5
267
100
AcDbEntity
  8
0
 62
7
100
AcDbPolyline
 90
2
 70
0
 10
8.425001
 20
-73.154638
 30
0.0
 10
7.425001
 20
-73.154638
 30
0.0
  0
LWPOLYLINE
  5
268
100
AcDbEntity
  8
0
 62
7
100
AcDbPolyline
 90
2
 70
0
 10
263.915001
 20
-87.584634
 30
0.0
 10
263.915001
 20
-86.584634
 30
0.0
  0
LWPOLYLINE
  5
269
100
AcDbEntity
  8
0
 62
7
100
AcDbPolyline
 90
2
 70
0
 10
263.915001
 20
-87.584634
 30
0.0
 10
264.915001
 20
-87.584634
 30
0.0
  0
LWPOLYLINE
  5
26a
100
AcDbEntity
  8
0
 62
7
100
AcDbPolyline
 90
2
 70
0
 10
263.915001
 20
-74.584634
 30
0.0
 10
263.915001
 20
-73.584634
 30
0.0
  0
LWPOLYLINE
  5
26b
100
AcDbEntity
  8
0
 62
7
100
AcDbPolyline
 90
2
 70
0
 10
264.915001
 20
-73.584634
 30
0.0
 10
263.915001
 20
-73.584634
 30
0.0
  0
LWPOLYLINE
  5
26c
100
AcDbEntity
  8
0
 62
7
100
AcDbPolyline
 90
4
 70
0
 10
277.915001
 20
-86.584634
 30
0.0
 10
277.915001
 20
-87.584634
 30
0.0
 10
276.915001
 20
-87.584634
 30
0.0
 10
277.915001
 20
-87.584634
 30
0.0
  0
LWPOLYLINE
  5
26d
100
AcDbEntity
  8
0
 62
7
100
AcDbPolyline
 90
2
 70
0
 10
277.915001
 20
-73.584634
 30
0.0
 10
276.915001
 20
-73.584634
 30
0.0
  0
LWPOLYLINE
  5
26e
100
AcDbEntity
  8
0
 62
7
100
AcDbPolyline
 90
2
 70
0
 10
277.915001
 20
-73.584634
 30
0.0
 10
277.915001
 20
-74.584634
 30
0.0
  0
LWPOLYLINE
  5
26f
100
AcDbEntity
  8
0
 62
7
100
AcDbPolyline
 90
2
 70
0
 10
140.824998
 20
-44.624643
 30
0.0
 10
140.524998
 20
-44.874643
 30
0.0
  0
LWPOLYLINE
  5
270
100
AcDbEntity
  8
0
 62
7
100
AcDbPolyline
 90
2
 70
0
 10
145.524358
 20
-44.625283
 30
0.0
 10
145.524358
 20
-49.624003
 30
0.0
  0
LWPOLYLINE
  5
271
100
AcDbEntity
  8
0
 62
7
100
AcDbPolyline
 90
2
 70
0
 10
140.824998
 20
-44.624643
 30
0.0
 10
145.524998
 20
-44.624643
 30
0.0
  0
LWPOLYLINE
  5
272
100
AcDbEntity
  8
0
 62
7
100
AcDbPolyline
 90
2
 70
0
 10
145.524998
 20
-49.624643
 30
0.0
 10
140.524998
 20
-49.624643
 30
0.0
  0
LWPOLYLINE
  5
273
100
AcDbEntity
  8
0
 62
7
100
AcDbPolyline
 90
2
 70
0
 10
140.524998
 20
-44.874643
 30
0.0
 10
140.524998
 20
-49.624643
 30
0.0
  0
LWPOLYLINE
  5
274
100
AcDbEntity
  8
0
 62
7
100
AcDbPolyline
 90
2
 70
0
 10
129.322997
 20
-56.191646
 30
0.0
 10
129.576997
 20
-56.179646
 30
0.0
  0
LWPOLYLINE
  5
275
100
AcDbEntity
  8
0
 62
7
100
AcDbPolyline
 90
2
 70
0
 10
156.184997
 20
-59.474646
 30
0.0
 10
128.784997
 20
-59.474646
 30
0.0
  0
LWPOLYLINE
  5
276
100
AcDbEntity
  8
0
 62
7
100
AcDbPolyline
 90
2
 70
0
 10
156.184997
 20
-32.174646
 30
0.0
 10
156.184997
 20
-59.474646
 30
0.0
  0
LWPOLYLINE
  5
277
100
AcDbEntity
  8
0
 62
7
100
AcDbPolyline
 90
2
 70
0
 10
128.784997
 20
-32.174646
 30
0.0
 10
156.184997
 20
-32.174646
 30
0.0
  0
LWPOLYLINE
  5
278
100
AcDbEntity
  8
0
 62
7
100
AcDbPolyline
 90
2
 70
0
 10
132.662997
 20
-39.579646
 30
0.0
 10
129.322997
 20
-39.554646
 30
0.0
  0
LWPOLYLINE
  5
279
100
AcDbEntity
  8
0
 62
7
100
AcDbPolyline
 90
2
 70
0
 10
132.662997
 20
-56.179646
 30
0.0
 10
129.576997
 20
-56.179646
 30
0.0
  0
LWPOLYLINE
  5
27a
100
AcDbEntity
  8
0
 62
7
100
AcDbPolyline
 90
2
 70
0
 10
128.784997
 20
-59.474646
 30
0.0
 10
128.784997
 20
-32.174646
 30
0.0
  0
LWPOLYLINE
  5
27b
100
AcDbEntity
  8
0
 62
7
100
AcDbPolyline
 90
2
 70
0
 10
129.322997
 20
-39.554646
 30
0.0
 10
129.322997
 20
-56.191646
 30
0.0
  0
LWPOLYLINE
  5
27c
100
AcDbEntity
  8
0
 62
7
100
AcDbPolyline
 90
2
 70
0
 10
155.762997
 20
-56.179646
 30
0.0
 10
132.662997
 20
-56.179646
 30
0.0
  0
LWPOLYLINE
  5
27d
100
AcDbEntity
  8
0
 62
7
100
AcDbPolyline
 90
2
 70
0
 10
155.762997
 20
-39.579646
 30
0.0
 10
155.762997
 20
-56.179646
 30
0.0
  0
LWPOLYLINE
  5
27e
100
AcDbEntity
  8
0
 62
7
100
AcDbPolyline
 90
2
 70
0
 10
132.662997
 20
-39.579646
 30
0.0
 10
155.762997
 20
-39.579646
 30
0.0
  0
LWPOLYLINE
  5
27f
100
AcDbEntity
  8
0
 62
7
100
AcDbPolyline
 90
2
 70
0
 10
60.268574
 20
-81.466551
 30
0.0
 10
43.364872
 20
-76.937217
 30
0.0
  0
LWPOLYLINE
  5
280
100
AcDbEntity
  8
0
 62
7
100
AcDbPolyline
 90
2
 70
0
 10
47.040103
 20
-63.221071
 30
0.0
 10
43.364872
 20
-76.937217
 30
0.0
  0
LWPOLYLINE
  5
281
100
AcDbEntity
  8
0
 62
7
100
AcDbPolyline
 90
2
 70
0
 10
60.268574
 20
-81.466551
 30
0.0
 10
63.943805
 20
-67.750404
 30
0.0
  0
LWPOLYLINE
  5
282
100
AcDbEntity
  8
0
 62
7
100
AcDbPolyline
 90
2
 70
0
 10
47.040103
 20
-63.221071
 30
0.0
 10
63.943805
 20
-67.750404
 30
0.0
  0
LWPOLYLINE
  5
283
100
AcDbEntity
  8
0
 62
7
100
AcDbPolyline
 90
2
 70
0
 10
222.229019
 20
-67.750155
 30
0.0
 10
225.904250
 20
-81.466302
 30
0.0
  0
LWPOLYLINE
  5
284
100
AcDbEntity
  8
0
 62
7
100
AcDbPolyline
 90
2
 70
0
 10
242.807952
 20
-76.936968
 30
0.0
 10
225.904250
 20
-81.466302
 30
0.0
  0
LWPOLYLINE
  5
285
100
AcDbEntity
  8
0
 62
7
100
AcDbPolyline
 90
2
 70
0
 10
222.229019
 20
-67.750155
 30
0.0
 10
239.132721
 20
-63.220822
 30
0.0
  0
LWPOLYLINE
  5
286
100
AcDbEntity
  8
0
 62
7
100
AcDbPolyline
 90
2
 70
0
 10
242.807952
 20
-76.936968
 30
0.0
 10
239.132721
 20
-63.220822
 30
0.0
  0
LWPOLYLINE
  5
287
100
AcDbEntity
  8
0
 62
7
100
AcDbPolyline
 90
2
 70
0
 10
151.623259
 20
-68.149718
 30
0.0
 10
134.123259
 20
-68.149718
 30
0.0
  0
LWPOLYLINE
  5
288
100
AcDbEntity
  8
0
 62
7
100
AcDbPolyline
 90
2
 70
0
 10
134.123259
 20
-53.949718
 30
0.0
 10
134.123259
 20
-68.149718
 30
0.0
  0
LWPOLYLINE
  5
289
100
AcDbEntity
  8
0
 62
7
100
AcDbPolyline
 90
2
 70
0
 10
151.623259
 20
-68.149718
 30
0.0
 10
151.623259
 20
-53.949718
 30
0.0
  0
LWPOLYLINE
  5
28a
100
AcDbEntity
  8
0
 62
7
100
AcDbPolyline
 90
2
 70
0
 10
134.123259
 20
-53.949718
 30
0.0
 10
151.623259
 20
-53.949718
 30
0.0
  0
LWPOLYLINE
  5
28b
100
AcDbEntity
  8
0
 62
7
100
AcDbPolyline
 90
2
 70
0
 10
58.055499
 20
-81.805297
 30
0.0
 10
62.403658
 20
-65.577743
 30
0.0
  0
LWPOLYLINE
  5
28c
100
AcDbEntity
  8
0
 62
7
100
AcDbPolyline
 90
2
 70
0
 10
44.629130
 20
-78.207713
 30
0.0
 10
48.977289
 20
-61.980159
 30
0.0
  0
LWPOLYLINE
  5
28d
100
AcDbEntity
  8
0
 62
7
100
AcDbPolyline
 90
2
 70
0
 10
58.055499
 20
-81.805297
 30
0.0
 10
44.629130
 20
-78.207713
 30
0.0
  0
LWPOLYLINE
  5
28e
100
AcDbEntity
  8
0
 62
7
100
AcDbPolyline
 90
2
 70
0
 10
62.403658
 20
-65.577743
 30
0.0
 10
48.977289
 20
-61.980159
 30
0.0
  0
LWPOLYLINE
  5
28f
100
AcDbEntity
  8
0
 62
7
100
AcDbPolyline
 90
2
 70
0
 10
228.220862
 20
-82.191426
 30
0.0
 10
223.872703
 20
-65.963872
 30
0.0
  0
LWPOLYLINE
  5
290
100
AcDbEntity
  8
0
 62
7
100
AcDbPolyline
 90
2
 70
0
 10
241.647231
 20
-78.593842
 30
0.0
 10
228.220862
 20
-82.191426
 30
0.0
  0
LWPOLYLINE
  5
291
100
AcDbEntity
  8
0
 62
7
100
AcDbPolyline
 90
2
 70
0
 10
237.299072
 20
-62.366288
 30
0.0
 10
223.872703
 20
-65.963872
 30
0.0
  0
LWPOLYLINE
  5
292
100
AcDbEntity
  8
0
 62
7
100
AcDbPolyline
 90
2
 70
0
 10
241.647231
 20
-78.593842
 30
0.0
 10
237.299072
 20
-62.366288
 30
0.0
  0
LWPOLYLINE
  5
293
100
AcDbEntity
  8
0
 62
7
100
AcDbPolyline
 90
2
 70
0
 10
41.856699
 20
-52.001101
 30
0.0
 10
55.186476
 20
-55.572804
 30
0.0
  0
LWPOLYLINE
  5
294
100
AcDbEntity
  8
0
 62
7
100
AcDbPolyline
 90
2
 70
0
 10
58.758179
 20
-42.243027
 30
0.0
 10
55.186476
 20
-55.572804
 30
0.0
  0
LWPOLYLINE
  5
295
100
AcDbEntity
  8
0
 62
7
100
AcDbPolyline
 90
2
 70
0
 10
58.758179
 20
-42.243027
 30
0.0
 10
45.428402
 20
-38.671324
 30
0.0
  0
LWPOLYLINE
  5
296
100
AcDbEntity
  8
0
 62
7
100
AcDbPolyline
 90
2
 70
0
 10
41.856699
 20
-52.001101
 30
0.0
 10
45.428402
 20
-38.671324
 30
0.0
  0
LWPOLYLINE
  5
297
100
AcDbEntity
  8
0
 62
7
100
AcDbPolyline
 90
2
 70
0
 10
76.602429
 20
-83.649594
 30
0.0
 10
80.174132
 20
-70.319817
 30
0.0
  0
LWPOLYLINE
  5
298
100
AcDbEntity
  8
0
 62
7
100
AcDbPolyline
 90
2
 70
0
 10
93.503909
 20
-73.891520
 30
0.0
 10
80.174132
 20
-70.319817
 30
0.0
  0
LWPOLYLINE
  5
299
100
AcDbEntity
  8
0
 62
7
100
AcDbPolyline
 90
2
 70
0
 10
76.602429
 20
-83.649594
 30
0.0
 10
89.932206
 20
-87.221297
 30
0.0
  0
LWPOLYLINE
  5
29a
100
AcDbEntity
  8
0
 62
7
100
AcDbPolyline
 90
2
 70
0
 10
93.503909
 20
-73.891520
 30
0.0
 10
89.932206
 20
-87.221297
 30
0.0
  0
LWPOLYLINE
  5
29b
100
AcDbEntity
  8
0
 62
7
100
AcDbPolyline
 90
2
 70
0
 10
78.404861
 20
-42.330948
 30
0.0
 10
65.075084
 20
-38.759245
 30
0.0
  0
LWPOLYLINE
  5
29c
100
AcDbEntity
  8
0
 62
7
100
AcDbPolyline
 90
2
 70
0
 10
61.503381
 20
-52.089022
 30
0.0
 10
65.075084
 20
-38.759245
 30
0.0
  0
LWPOLYLINE
  5
29d
100
AcDbEntity
  8
0
 62
7
100
AcDbPolyline
 90
2
 70
0
 10
78.404861
 20
-42.330948
 30
0.0
 10
74.833158
 20
-55.660725
 30
0.0
  0
LWPOLYLINE
  5
29e
100
AcDbEntity
  8
0
 62
7
100
AcDbPolyline
 90
2
 70
0
 10
61.503381
 20
-52.089022
 30
0.0
 10
74.833158
 20
-55.660725
 30
0.0
  0
LWPOLYLINE
  5
29f
100
AcDbEntity
  8
0
 62
7
100
AcDbPolyline
 90
2
 70
0
 10
118.262427
 20
-90.137598
 30
0.0
 10
121.834130
 20
-76.807821
 30
0.0
  0
LWPOLYLINE
  5
2a0
100
AcDbEntity
  8
0
 62
7
100
AcDbPolyline
 90
2
 70
0
 10
135.163907
 20
-80.379524
 30
0.0
 10
131.592204
 20
-93.709301
 30
0.0
  0
LWPOLYLINE
  5
2a1
100
AcDbEntity
  8
0
 62
7
100
AcDbPolyline
 90
2
 70
0
 10
118.262427
 20
-90.137598
 30
0.0
 10
131.592204
 20
-93.709301
 30
0.0
  0
LWPOLYLINE
  5
2a2
100
AcDbEntity
  8
0
 62
7
100
AcDbPolyline
 90
2
 70
0
 10
135.163907
 20
-80.379524
 30
0.0
 10
121.834130
 20
-76.807821
 30
0.0
  0
LWPOLYLINE
  5
2a3
100
AcDbEntity
  8
0
 62
7
100
AcDbPolyline
 90
2
 70
0
 10
96.267428
 20
-69.168589
 30
0.0
 10
99.839131
 20
-55.838812
 30
0.0
  0
LWPOLYLINE
  5
2a4
100
AcDbEntity
  8
0
 62
7
100
AcDbPolyline
 90
2
 70
0
 10
113.168908
 20
-59.410515
 30
0.0
 10
99.839131
 20
-55.838812
 30
0.0
  0
LWPOLYLINE
  5
2a5
100
AcDbEntity
  8
0
 62
7
100
AcDbPolyline
 90
2
 70
0
 10
96.267428
 20
-69.168589
 30
0.0
 10
109.597205
 20
-72.740292
 30
0.0
  0
LWPOLYLINE
  5
2a6
100
AcDbEntity
  8
0
 62
7
100
AcDbPolyline
 90
2
 70
0
 10
113.168908
 20
-59.410515
 30
0.0
 10
109.597205
 20
-72.740292
 30
0.0
  0
LWPOLYLINE
  5
2a7
100
AcDbEntity
  8
0
 62
7
100
AcDbPolyline
 90
2
 70
0
 10
37.170356
 20
-49.399534
 30
0.0
 10
23.840579
 20
-45.827831
 30
0.0
  0
LWPOLYLINE
  5
2a8
100
AcDbEntity
  8
0
 62
7
100
AcDbPolyline
 90
2
 70
0
 10
20.268876
 20
-59.157608
 30
0.0
 10
23.840579
 20
-45.827831
 30
0.0
  0
LWPOLYLINE
  5
2a9
100
AcDbEntity
  8
0
 62
7
100
AcDbPolyline
 90
2
 70
0
 10
20.268876
 20
-59.157608
 30
0.0
 10
33.598653
 20
-62.729311
 30
0.0
  0
LWPOLYLINE
  5
2aa
100
AcDbEntity
  8
0
 62
7
100
AcDbPolyline
 90
2
 70
0
 10
37.170356
 20
-49.399534
 30
0.0
 10
33.598653
 20
-62.729311
 30
0.0
  0
LWPOLYLINE
  5
2ab
100
AcDbEntity
  8
0
 62
7
100
AcDbPolyline
 90
2
 70
0
 10
100.380929
 20
-33.725555
 30
0.0
 10
96.809226
 20
-47.055332
 30
0.0
  0
LWPOLYLINE
  5
2ac
100
AcDbEntity
  8
0
 62
7
100
AcDbPolyline
 90
2
 70
0
 10
100.380929
 20
-33.725555
 30
0.0
 10
87.051152
 20
-30.153852
 30
0.0
  0
LWPOLYLINE
  5
2ad
100
AcDbEntity
  8
0
 62
7
100
AcDbPolyline
 90
2
 70
0
 10
83.479449
 20
-43.483629
 30
0.0
 10
96.809226
 20
-47.055332
 30
0.0
  0
LWPOLYLINE
  5
2ae
100
AcDbEntity
  8
0
 62
7
100
AcDbPolyline
 90
2
 70
0
 10
83.479449
 20
-43.483629
 30
0.0
 10
87.051152
 20
-30.153852
 30
0.0
  0
LWPOLYLINE
  5
2af
100
AcDbEntity
  8
0
 62
7
100
AcDbPolyline
 90
2
 70
0
 10
115.588907
 20
-79.943514
 30
0.0
 10
112.017204
 20
-93.273291
 30
0.0
  0
LWPOLYLINE
  5
2b0
100
AcDbEntity
  8
0
 62
7
100
AcDbPolyline
 90
2
 70
0
 10
98.687427
 20
-89.701588
 30
0.0
 10
102.259130
 20
-76.371811
 30
0.0
  0
LWPOLYLINE
  5
2b1
100
AcDbEntity
  8
0
 62
7
100
AcDbPolyline
 90
2
 70
0
 10
98.687427
 20
-89.701588
 30
0.0
 10
112.017204
 20
-93.273291
 30
0.0
  0
LWPOLYLINE
  5
2b2
100
AcDbEntity
  8
0
 62
7
100
AcDbPolyline
 90
2
 70
0
 10
115.588907
 20
-79.943514
 30
0.0
 10
102.259130
 20
-76.371811
 30
0.0
  0
LWPOLYLINE
  5
2b3
100
AcDbEntity
  8
0
 62
7
100
AcDbPolyline
 90
2
 70
0
 10
88.397002
 20
-25.131039
 30
0.0
 10
91.968705
 20
-11.801262
 30
0.0
  0
LWPOLYLINE
  5
2b4
100
AcDbEntity
  8
0
 62
7
100
AcDbPolyline
 90
2
 70
0
 10
105.298482
 20
-15.372965
 30
0.0
 10
101.726779
 20
-28.702742
 30
0.0
  0
LWPOLYLINE
  5
2b5
100
AcDbEntity
  8
0
 62
7
100
AcDbPolyline
 90
2
 70
0
 10
105.298482
 20
-15.372965
 30
0.0
 10
91.968705
 20
-11.801262
 30
0.0
  0
LWPOLYLINE
  5
2b6
100
AcDbEntity
  8
0
 62
7
100
AcDbPolyline
 90
2
 70
0
 10
88.397002
 20
-25.131039
 30
0.0
 10
101.726779
 20
-28.702742
 30
0.0
  0
LWPOLYLINE
  5
2b7
100
AcDbEntity
  8
0
 62
7
100
AcDbPolyline
 90
2
 70
0
 10
78.561886
 20
-61.836216
 30
0.0
 10
91.891663
 20
-65.407919
 30
0.0
  0
LWPOLYLINE
  5
2b8
100
AcDbEntity
  8
0
 62
7
100
AcDbPolyline
 90
2
 70
0
 10
78.561886
 20
-61.836216
 30
0.0
 10
82.133589
 20
-48.506439
 30
0.0
  0
LWPOLYLINE
  5
2b9
100
AcDbEntity
  8
0
 62
7
100
AcDbPolyline
 90
2
 70
0
 10
95.463366
 20
-52.078142
 30
0.0
 10
91.891663
 20
-65.407919
 30
0.0
  0
LWPOLYLINE
  5
2ba
100
AcDbEntity
  8
0
 62
7
100
AcDbPolyline
 90
2
 70
0
 10
95.463366
 20
-52.078142
 30
0.0
 10
82.133589
 20
-48.506439
 30
0.0
  0
LWPOLYLINE
  5
2bb
100
AcDbEntity
  8
0
 62
7
100
AcDbPolyline
 90
2
 70
0
 10
63.675743
 20
-23.890434
 30
0.0
 10
60.104040
 20
-37.220211
 30
0.0
  0
LWPOLYLINE
  5
2bc
100
AcDbEntity
  8
0
 62
7
100
AcDbPolyline
 90
2
 70
0
 10
63.675743
 20
-23.890434
 30
0.0
 10
50.345966
 20
-20.318731
 30
0.0
  0
LWPOLYLINE
  5
2bd
100
AcDbEntity
  8
0
 62
7
100
AcDbPolyline
 90
2
 70
0
 10
46.774263
 20
-33.648508
 30
0.0
 10
50.345966
 20
-20.318731
 30
0.0
  0
LWPOLYLINE
  5
2be
100
AcDbEntity
  8
0
 62
7
100
AcDbPolyline
 90
2
 70
0
 10
46.774263
 20
-33.648508
 30
0.0
 10
60.104040
 20
-37.220211
 30
0.0
  0
LWPOLYLINE
  5
2bf
100
AcDbEntity
  8
0
 62
7
100
AcDbPolyline
 90
2
 70
0
 10
71.338507
 20
-15.383841
 30
0.0
 10
74.910210
 20
-2.054064
 30
0.0
  0
LWPOLYLINE
  5
2c0
100
AcDbEntity
  8
0
 62
7
100
AcDbPolyline
 90
2
 70
0
 10
71.338507
 20
-15.383841
 30
0.0
 10
84.668284
 20
-18.955544
 30
0.0
  0
LWPOLYLINE
  5
2c1
100
AcDbEntity
  8
0
 62
7
100
AcDbPolyline
 90
2
 70
0
 10
88.239987
 20
-5.625767
 30
0.0
 10
74.910210
 20
-2.054064
 30
0.0
  0
LWPOLYLINE
  5
2c2
100
AcDbEntity
  8
0
 62
7
100
AcDbPolyline
 90
2
 70
0
 10
88.239987
 20
-5.625767
 30
0.0
 10
84.668284
 20
-18.955544
 30
0.0
  0
LWPOLYLINE
  5
2c3
100
AcDbEntity
  8
0
 62
7
100
AcDbPolyline
 90
2
 70
0
 10
118.086477
 20
-41.057938
 30
0.0
 10
104.756700
 20
-37.486235
 30
0.0
  0
LWPOLYLINE
  5
2c4
100
AcDbEntity
  8
0
 62
7
100
AcDbPolyline
 90
2
 70
0
 10
118.086477
 20
-41.057938
 30
0.0
 10
114.514774
 20
-54.387715
 30
0.0
  0
LWPOLYLINE
  5
2c5
100
AcDbEntity
  8
0
 62
7
100
AcDbPolyline
 90
2
 70
0
 10
101.184997
 20
-50.816012
 30
0.0
 10
104.756700
 20
-37.486235
 30
0.0
  0
LWPOLYLINE
  5
2c6
100
AcDbEntity
  8
0
 62
7
100
AcDbPolyline
 90
2
 70
0
 10
101.184997
 20
-50.816012
 30
0.0
 10
114.514774
 20
-54.387715
 30
0.0
  0
LWPOLYLINE
  5
2c7
100
AcDbEntity
  8
0
 62
7
100
AcDbPolyline
 90
2
 70
0
 10
106.102548
 20
-32.463407
 30
0.0
 10
119.432325
 20
-36.035110
 30
0.0
  0
LWPOLYLINE
  5
2c8
100
AcDbEntity
  8
0
 62
7
100
AcDbPolyline
 90
2
 70
0
 10
106.102548
 20
-32.463407
 30
0.0
 10
109.674251
 20
-19.133630
 30
0.0
  0
LWPOLYLINE
  5
2c9
100
AcDbEntity
  8
0
 62
7
100
AcDbPolyline
 90
2
 70
0
 10
123.004028
 20
-22.705333
 30
0.0
 10
119.432325
 20
-36.035110
 30
0.0
  0
LWPOLYLINE
  5
2ca
100
AcDbEntity
  8
0
 62
7
100
AcDbPolyline
 90
2
 70
0
 10
123.004028
 20
-22.705333
 30
0.0
 10
109.674251
 20
-19.133630
 30
0.0
  0
LWPOLYLINE
  5
2cb
100
AcDbEntity
  8
0
 62
7
100
AcDbPolyline
 90
2
 70
0
 10
66.420952
 20
-33.736431
 30
0.0
 10
69.992655
 20
-20.406654
 30
0.0
  0
LWPOLYLINE
  5
2cc
100
AcDbEntity
  8
0
 62
7
100
AcDbPolyline
 90
2
 70
0
 10
83.322432
 20
-23.978357
 30
0.0
 10
69.992655
 20
-20.406654
 30
0.0
  0
LWPOLYLINE
  5
2cd
100
AcDbEntity
  8
0
 62
7
100
AcDbPolyline
 90
2
 70
0
 10
66.420952
 20
-33.736431
 30
0.0
 10
79.750729
 20
-37.308134
 30
0.0
  0
LWPOLYLINE
  5
2ce
100
AcDbEntity
  8
0
 62
7
100
AcDbPolyline
 90
2
 70
0
 10
83.322432
 20
-23.978357
 30
0.0
 10
79.750729
 20
-37.308134
 30
0.0
  0
LWPOLYLINE
  5
2cf
100
AcDbEntity
  8
0
 62
7
100
AcDbPolyline
 90
2
 70
0
 10
47.005485
 20
-12.694343
 30
0.0
 10
43.433782
 20
-26.024120
 30
0.0
  0
LWPOLYLINE
  5
2d0
100
AcDbEntity
  8
0
 62
7
100
AcDbPolyline
 90
2
 70
0
 10
30.104005
 20
-22.452417
 30
0.0
 10
33.675708
 20
-9.122640
 30
0.0
  0
LWPOLYLINE
  5
2d1
100
AcDbEntity
  8
0
 62
7
100
AcDbPolyline
 90
2
 70
0
 10
30.104005
 20
-22.452417
 30
0.0
 10
43.433782
 20
-26.024120
 30
0.0
  0
LWPOLYLINE
  5
2d2
100
AcDbEntity
  8
0
 62
7
100
AcDbPolyline
 90
2
 70
0
 10
47.005485
 20
-12.694343
 30
0.0
 10
33.675708
 20
-9.122640
 30
0.0
  0
LWPOLYLINE
  5
2d3
100
AcDbEntity
  8
0
 62
7
100
AcDbPolyline
 90
2
 70
0
 10
51.691823
 20
-15.295916
 30
0.0
 10
55.263526
 20
-1.966139
 30
0.0
  0
LWPOLYLINE
  5
2d4
100
AcDbEntity
  8
0
 62
7
100
AcDbPolyline
 90
2
 70
0
 10
51.691823
 20
-15.295916
 30
0.0
 10
65.021600
 20
-18.867619
 30
0.0
  0
LWPOLYLINE
  5
2d5
100
AcDbEntity
  8
0
 62
7
100
AcDbPolyline
 90
2
 70
0
 10
68.593303
 20
-5.537842
 30
0.0
 10
55.263526
 20
-1.966139
 30
0.0
  0
LWPOLYLINE
  5
2d6
100
AcDbEntity
  8
0
 62
7
100
AcDbPolyline
 90
2
 70
0
 10
68.593303
 20
-5.537842
 30
0.0
 10
65.021600
 20
-18.867619
 30
0.0
  0
LWPOLYLINE
  5
2d7
100
AcDbEntity
  8
0
 62
7
100
AcDbPolyline
 90
2
 70
0
 10
42.087916
 20
-31.046937
 30
0.0
 10
28.758139
 20
-27.475234
 30
0.0
  0
LWPOLYLINE
  5
2d8
100
AcDbEntity
  8
0
 62
7
100
AcDbPolyline
 90
2
 70
0
 10
25.186436
 20
-40.805011
 30
0.0
 10
28.758139
 20
-27.475234
 30
0.0
  0
LWPOLYLINE
  5
2d9
100
AcDbEntity
  8
0
 62
7
100
AcDbPolyline
 90
2
 70
0
 10
25.186436
 20
-40.805011
 30
0.0
 10
38.516213
 20
-44.376714
 30
0.0
  0
LWPOLYLINE
  5
2da
100
AcDbEntity
  8
0
 62
7
100
AcDbPolyline
 90
2
 70
0
 10
42.087916
 20
-31.046937
 30
0.0
 10
38.516213
 20
-44.376714
 30
0.0
  0
LWPOLYLINE
  5
2db
100
AcDbEntity
  8
0
 62
7
100
AcDbPolyline
 90
2
 70
0
 10
154.584611
 20
-93.711077
 30
0.0
 10
151.012908
 20
-80.381300
 30
0.0
  0
LWPOLYLINE
  5
2dc
100
AcDbEntity
  8
0
 62
7
100
AcDbPolyline
 90
2
 70
0
 10
164.342685
 20
-76.809597
 30
0.0
 10
167.914388
 20
-90.139374
 30
0.0
  0
LWPOLYLINE
  5
2dd
100
AcDbEntity
  8
0
 62
7
100
AcDbPolyline
 90
2
 70
0
 10
164.342685
 20
-76.809597
 30
0.0
 10
151.012908
 20
-80.381300
 30
0.0
  0
LWPOLYLINE
  5
2de
100
AcDbEntity
  8
0
 62
7
100
AcDbPolyline
 90
2
 70
0
 10
154.584611
 20
-93.711077
 30
0.0
 10
167.914388
 20
-90.139374
 30
0.0
  0
LWPOLYLINE
  5
2df
100
AcDbEntity
  8
0
 62
7
100
AcDbPolyline
 90
2
 70
0
 10
240.748372
 20
-38.673595
 30
0.0
 10
244.320075
 20
-52.003372
 30
0.0
  0
LWPOLYLINE
  5
2e0
100
AcDbEntity
  8
0
 62
7
100
AcDbPolyline
 90
2
 70
0
 10
230.990298
 20
-55.575075
 30
0.0
 10
227.418595
 20
-42.245298
 30
0.0
  0
LWPOLYLINE
  5
2e1
100
AcDbEntity
  8
0
 62
7
100
AcDbPolyline
 90
2
 70
0
 10
230.990298
 20
-55.575075
 30
0.0
 10
244.320075
 20
-52.003372
 30
0.0
  0
LWPOLYLINE
  5
2e2
100
AcDbEntity
  8
0
 62
7
100
AcDbPolyline
 90
2
 70
0
 10
240.748372
 20
-38.673595
 30
0.0
 10
227.418595
 20
-42.245298
 30
0.0
  0
LWPOLYLINE
  5
2e3
100
AcDbEntity
  8
0
 62
7
100
AcDbPolyline
 90
2
 70
0
 10
183.917740
 20
-76.273901
 30
0.0
 10
170.587963
 20
-79.845604
 30
0.0
  0
LWPOLYLINE
  5
2e4
100
AcDbEntity
  8
0
 62
7
100
AcDbPolyline
 90
2
 70
0
 10
183.917740
 20
-76.273901
 30
0.0
 10
187.489443
 20
-89.603678
 30
0.0
  0
LWPOLYLINE
  5
2e5
100
AcDbEntity
  8
0
 62
7
100
AcDbPolyline
 90
2
 70
0
 10
174.159666
 20
-93.175381
 30
0.0
 10
170.587963
 20
-79.845604
 30
0.0
  0
LWPOLYLINE
  5
2e6
100
AcDbEntity
  8
0
 62
7
100
AcDbPolyline
 90
2
 70
0
 10
174.159666
 20
-93.175381
 30
0.0
 10
187.489443
 20
-89.603678
 30
0.0
  0
LWPOLYLINE
  5
2e7
100
AcDbEntity
  8
0
 62
7
100
AcDbPolyline
 90
2
 70
0
 10
206.002330
 20
-70.321600
 30
0.0
 10
209.574033
 20
-83.651377
 30
0.0
  0
LWPOLYLINE
  5
2e8
100
AcDbEntity
  8
0
 62
7
100
AcDbPolyline
 90
2
 70
0
 10
196.244256
 20
-87.223080
 30
0.0
 10
209.574033
 20
-83.651377
 30
0.0
  0
LWPOLYLINE
  5
2e9
100
AcDbEntity
  8
0
 62
7
100
AcDbPolyline
 90
2
 70
0
 10
196.244256
 20
-87.223080
 30
0.0
 10
192.672553
 20
-73.893303
 30
0.0
  0
LWPOLYLINE
  5
2ea
100
AcDbEntity
  8
0
 62
7
100
AcDbPolyline
 90
2
 70
0
 10
206.002330
 20
-70.321600
 30
0.0
 10
192.672553
 20
-73.893303
 30
0.0
  0
LWPOLYLINE
  5
2eb
100
AcDbEntity
  8
0
 62
7
100
AcDbPolyline
 90
2
 70
0
 10
252.578132
 20
-62.731589
 30
0.0
 10
265.907909
 20
-59.159886
 30
0.0
  0
LWPOLYLINE
  5
2ec
100
AcDbEntity
  8
0
 62
7
100
AcDbPolyline
 90
2
 70
0
 10
252.578132
 20
-62.731589
 30
0.0
 10
249.006429
 20
-49.401812
 30
0.0
  0
LWPOLYLINE
  5
2ed
100
AcDbEntity
  8
0
 62
7
100
AcDbPolyline
 90
2
 70
0
 10
262.336206
 20
-45.830109
 30
0.0
 10
249.006429
 20
-49.401812
 30
0.0
  0
LWPOLYLINE
  5
2ee
100
AcDbEntity
  8
0
 62
7
100
AcDbPolyline
 90
2
 70
0
 10
262.336206
 20
-45.830109
 30
0.0
 10
265.907909
 20
-59.159886
 30
0.0
  0
LWPOLYLINE
  5
2ef
100
AcDbEntity
  8
0
 62
7
100
AcDbPolyline
 90
2
 70
0
 10
186.337654
 20
-55.841094
 30
0.0
 10
173.007877
 20
-59.412797
 30
0.0
  0
LWPOLYLINE
  5
2f0
100
AcDbEntity
  8
0
 62
7
100
AcDbPolyline
 90
2
 70
0
 10
176.579580
 20
-72.742574
 30
0.0
 10
189.909357
 20
-69.170871
 30
0.0
  0
LWPOLYLINE
  5
2f1
100
AcDbEntity
  8
0
 62
7
100
AcDbPolyline
 90
2
 70
0
 10
176.579580
 20
-72.742574
 30
0.0
 10
173.007877
 20
-59.412797
 30
0.0
  0
LWPOLYLINE
  5
2f2
100
AcDbEntity
  8
0
 62
7
100
AcDbPolyline
 90
2
 70
0
 10
186.337654
 20
-55.841094
 30
0.0
 10
189.909357
 20
-69.170871
 30
0.0
  0
LWPOLYLINE
  5
2f3
100
AcDbEntity
  8
0
 62
7
100
AcDbPolyline
 90
2
 70
0
 10
194.285129
 20
-65.410208
 30
0.0
 10
190.713426
 20
-52.080431
 30
0.0
  0
LWPOLYLINE
  5
2f4
100
AcDbEntity
  8
0
 62
7
100
AcDbPolyline
 90
2
 70
0
 10
204.043203
 20
-48.508728
 30
0.0
 10
190.713426
 20
-52.080431
 30
0.0
  0
LWPOLYLINE
  5
2f5
100
AcDbEntity
  8
0
 62
7
100
AcDbPolyline
 90
2
 70
0
 10
194.285129
 20
-65.410208
 30
0.0
 10
207.614906
 20
-61.838505
 30
0.0
  0
LWPOLYLINE
  5
2f6
100
AcDbEntity
  8
0
 62
7
100
AcDbPolyline
 90
2
 70
0
 10
204.043203
 20
-48.508728
 30
0.0
 10
207.614906
 20
-61.838505
 30
0.0
  0
LWPOLYLINE
  5
2f7
100
AcDbEntity
  8
0
 62
7
100
AcDbPolyline
 90
2
 70
0
 10
221.101687
 20
-38.761525
 30
0.0
 10
207.771910
 20
-42.333228
 30
0.0
  0
LWPOLYLINE
  5
2f8
100
AcDbEntity
  8
0
 62
7
100
AcDbPolyline
 90
2
 70
0
 10
221.101687
 20
-38.761525
 30
0.0
 10
224.673390
 20
-52.091302
 30
0.0
  0
LWPOLYLINE
  5
2f9
100
AcDbEntity
  8
0
 62
7
100
AcDbPolyline
 90
2
 70
0
 10
211.343613
 20
-55.663005
 30
0.0
 10
224.673390
 20
-52.091302
 30
0.0
  0
LWPOLYLINE
  5
2fa
100
AcDbEntity
  8
0
 62
7
100
AcDbPolyline
 90
2
 70
0
 10
211.343613
 20
-55.663005
 30
0.0
 10
207.771910
 20
-42.333228
 30
0.0
  0
LWPOLYLINE
  5
2fb
100
AcDbEntity
  8
0
 62
7
100
AcDbPolyline
 90
2
 70
0
 10
257.418642
 20
-27.477515
 30
0.0
 10
260.990345
 20
-40.807292
 30
0.0
  0
LWPOLYLINE
  5
2fc
100
AcDbEntity
  8
0
 62
7
100
AcDbPolyline
 90
2
 70
0
 10
257.418642
 20
-27.477515
 30
0.0
 10
244.088865
 20
-31.049218
 30
0.0
  0
LWPOLYLINE
  5
2fd
100
AcDbEntity
  8
0
 62
7
100
AcDbPolyline
 90
2
 70
0
 10
247.660568
 20
-44.378995
 30
0.0
 10
260.990345
 20
-40.807292
 30
0.0
  0
LWPOLYLINE
  5
2fe
100
AcDbEntity
  8
0
 62
7
100
AcDbPolyline
 90
2
 70
0
 10
247.660568
 20
-44.378995
 30
0.0
 10
244.088865
 20
-31.049218
 30
0.0
  0
LWPOLYLINE
  5
2ff
100
AcDbEntity
  8
0
 62
7
100
AcDbPolyline
 90
2
 70
0
 10
194.208078
 20
-11.803540
 30
0.0
 10
180.878301
 20
-15.375243
 30
0.0
  0
LWPOLYLINE
  5
300
100
AcDbEntity
  8
0
 62
7
100
AcDbPolyline
 90
2
 70
0
 10
184.450004
 20
-28.705020
 30
0.0
 10
197.779781
 20
-25.133317
 30
0.0
  0
LWPOLYLINE
  5
301
100
AcDbEntity
  8
0
 62
7
100
AcDbPolyline
 90
2
 70
0
 10
194.208078
 20
-11.803540
 30
0.0
 10
197.779781
 20
-25.133317
 30
0.0
  0
LWPOLYLINE
  5
302
100
AcDbEntity
  8
0
 62
7
100
AcDbPolyline
 90
2
 70
0
 10
184.450004
 20
-28.705020
 30
0.0
 10
180.878301
 20
-15.375243
 30
0.0
  0
LWPOLYLINE
  5
303
100
AcDbEntity
  8
0
 62
7
100
AcDbPolyline
 90
2
 70
0
 10
221.155177
 20
-18.869898
 30
0.0
 10
217.583474
 20
-5.540121
 30
0.0
  0
LWPOLYLINE
  5
304
100
AcDbEntity
  8
0
 62
7
100
AcDbPolyline
 90
2
 70
0
 10
221.155177
 20
-18.869898
 30
0.0
 10
234.484954
 20
-15.298195
 30
0.0
  0
LWPOLYLINE
  5
305
100
AcDbEntity
  8
0
 62
7
100
AcDbPolyline
 90
2
 70
0
 10
230.913251
 20
-1.968418
 30
0.0
 10
217.583474
 20
-5.540121
 30
0.0
  0
LWPOLYLINE
  5
306
100
AcDbEntity
  8
0
 62
7
100
AcDbPolyline
 90
2
 70
0
 10
230.913251
 20
-1.968418
 30
0.0
 10
234.484954
 20
-15.298195
 30
0.0
  0
LWPOLYLINE
  5
307
100
AcDbEntity
  8
0
 62
7
100
AcDbPolyline
 90
2
 70
0
 10
201.508489
 20
-18.957830
 30
0.0
 10
197.936786
 20
-5.628053
 30
0.0
  0
LWPOLYLINE
  5
308
100
AcDbEntity
  8
0
 62
7
100
AcDbPolyline
 90
2
 70
0
 10
211.266563
 20
-2.056350
 30
0.0
 10
197.936786
 20
-5.628053
 30
0.0
  0
LWPOLYLINE
  5
309
100
AcDbEntity
  8
0
 62
7
100
AcDbPolyline
 90
2
 70
0
 10
201.508489
 20
-18.957830
 30
0.0
 10
214.838266
 20
-15.386127
 30
0.0
  0
LWPOLYLINE
  5
30a
100
AcDbEntity
  8
0
 62
7
100
AcDbPolyline
 90
2
 70
0
 10
211.266563
 20
-2.056350
 30
0.0
 10
214.838266
 20
-15.386127
 30
0.0
  0
LWPOLYLINE
  5
30b
100
AcDbEntity
  8
0
 62
7
100
AcDbPolyline
 90
2
 70
0
 10
171.662020
 20
-54.389991
 30
0.0
 10
184.991797
 20
-50.818288
 30
0.0
  0
LWPOLYLINE
  5
30c
100
AcDbEntity
  8
0
 62
7
100
AcDbPolyline
 90
2
 70
0
 10
181.420094
 20
-37.488511
 30
0.0
 10
168.090317
 20
-41.060214
 30
0.0
  0
LWPOLYLINE
  5
30d
100
AcDbEntity
  8
0
 62
7
100
AcDbPolyline
 90
2
 70
0
 10
181.420094
 20
-37.488511
 30
0.0
 10
184.991797
 20
-50.818288
 30
0.0
  0
LWPOLYLINE
  5
30e
100
AcDbEntity
  8
0
 62
7
100
AcDbPolyline
 90
2
 70
0
 10
171.662020
 20
-54.389991
 30
0.0
 10
168.090317
 20
-41.060214
 30
0.0
  0
LWPOLYLINE
  5
30f
100
AcDbEntity
  8
0
 62
7
100
AcDbPolyline
 90
2
 70
0
 10
235.830816
 20
-20.321015
 30
0.0
 10
239.402519
 20
-33.650792
 30
0.0
  0
LWPOLYLINE
  5
310
100
AcDbEntity
  8
0
 62
7
100
AcDbPolyline
 90
2
 70
0
 10
226.072742
 20
-37.222495
 30
0.0
 10
222.501039
 20
-23.892718
 30
0.0
  0
LWPOLYLINE
  5
311
100
AcDbEntity
  8
0
 62
7
100
AcDbPolyline
 90
2
 70
0
 10
226.072742
 20
-37.222495
 30
0.0
 10
239.402519
 20
-33.650792
 30
0.0
  0
LWPOLYLINE
  5
312
100
AcDbEntity
  8
0
 62
7
100
AcDbPolyline
 90
2
 70
0
 10
235.830816
 20
-20.321015
 30
0.0
 10
222.501039
 20
-23.892718
 30
0.0
  0
LWPOLYLINE
  5
313
100
AcDbEntity
  8
0
 62
7
100
AcDbPolyline
 90
2
 70
0
 10
189.367557
 20
-47.057613
 30
0.0
 10
185.795854
 20
-33.727836
 30
0.0
  0
LWPOLYLINE
  5
314
100
AcDbEntity
  8
0
 62
7
100
AcDbPolyline
 90
2
 70
0
 10
199.125631
 20
-30.156133
 30
0.0
 10
185.795854
 20
-33.727836
 30
0.0
  0
LWPOLYLINE
  5
315
100
AcDbEntity
  8
0
 62
7
100
AcDbPolyline
 90
2
 70
0
 10
199.125631
 20
-30.156133
 30
0.0
 10
202.697334
 20
-43.485910
 30
0.0
  0
LWPOLYLINE
  5
316
100
AcDbEntity
  8
0
 62
7
100
AcDbPolyline
 90
2
 70
0
 10
189.367557
 20
-47.057613
 30
0.0
 10
202.697334
 20
-43.485910
 30
0.0
  0
LWPOLYLINE
  5
317
100
AcDbEntity
  8
0
 62
7
100
AcDbPolyline
 90
2
 70
0
 10
216.184129
 20
-20.408933
 30
0.0
 10
219.755832
 20
-33.738710
 30
0.0
  0
LWPOLYLINE
  5
318
100
AcDbEntity
  8
0
 62
7
100
AcDbPolyline
 90
2
 70
0
 10
206.426055
 20
-37.310413
 30
0.0
 10
219.755832
 20
-33.738710
 30
0.0
  0
LWPOLYLINE
  5
319
100
AcDbEntity
  8
0
 62
7
100
AcDbPolyline
 90
2
 70
0
 10
216.184129
 20
-20.408933
 30
0.0
 10
202.854352
 20
-23.980636
 30
0.0
  0
LWPOLYLINE
  5
31a
100
AcDbEntity
  8
0
 62
7
100
AcDbPolyline
 90
2
 70
0
 10
206.426055
 20
-37.310413
 30
0.0
 10
202.854352
 20
-23.980636
 30
0.0
  0
LWPOLYLINE
  5
31b
100
AcDbEntity
  8
0
 62
7
100
AcDbPolyline
 90
2
 70
0
 10
252.501079
 20
-9.124926
 30
0.0
 10
256.072782
 20
-22.454703
 30
0.0
  0
LWPOLYLINE
  5
31c
100
AcDbEntity
  8
0
 62
7
100
AcDbPolyline
 90
2
 70
0
 10
242.743005
 20
-26.026406
 30
0.0
 10
256.072782
 20
-22.454703
 30
0.0
  0
LWPOLYLINE
  5
31d
100
AcDbEntity
  8
0
 62
7
100
AcDbPolyline
 90
2
 70
0
 10
252.501079
 20
-9.124926
 30
0.0
 10
239.171302
 20
-12.696629
 30
0.0
  0
LWPOLYLINE
  5
31e
100
AcDbEntity
  8
0
 62
7
100
AcDbPolyline
 90
2
 70
0
 10
242.743005
 20
-26.026406
 30
0.0
 10
239.171302
 20
-12.696629
 30
0.0
  0
LWPOLYLINE
  5
31f
100
AcDbEntity
  8
0
 62
7
100
AcDbPolyline
 90
2
 70
0
 10
166.744455
 20
-36.037401
 30
0.0
 10
180.074232
 20
-32.465698
 30
0.0
  0
LWPOLYLINE
  5
320
100
AcDbEntity
  8
0
 62
7
100
AcDbPolyline
 90
2
 70
0
 10
166.744455
 20
-36.037401
 30
0.0
 10
163.172752
 20
-22.707624
 30
0.0
  0
LWPOLYLINE
  5
321
100
AcDbEntity
  8
0
 62
7
100
AcDbPolyline
 90
2
 70
0
 10
176.502529
 20
-19.135921
 30
0.0
 10
163.172752
 20
-22.707624
 30
0.0
  0
LWPOLYLINE
  5
322
100
AcDbEntity
  8
0
 62
7
100
AcDbPolyline
 90
2
 70
0
 10
176.502529
 20
-19.135921
 30
0.0
 10
180.074232
 20
-32.465698
 30
0.0
  0
LWPOLYLINE
  5
323
100
AcDbEntity
  8
0
 62
7
100
AcDbPolyline
 90
2
 70
0
 10
25.875224
 20
-14.279453
 30
0.0
 10
22.303521
 20
-27.609230
 30
0.0
  0
LWPOLYLINE
  5
324
100
AcDbEntity
  8
0
 62
7
100
AcDbPolyline
 90
2
 70
0
 10
8.973744
 20
-24.037527
 30
0.0
 10
22.303521
 20
-27.609230
 30
0.0
  0
LWPOLYLINE
  5
325
100
AcDbEntity
  8
0
 62
7
100
AcDbPolyline
 90
2
 70
0
 10
25.875224
 20
-14.279453
 30
0.0
 10
12.545447
 20
-10.707750
 30
0.0
  0
LWPOLYLINE
  5
326
100
AcDbEntity
  8
0
 62
7
100
AcDbPolyline
 90
2
 70
0
 10
8.973744
 20
-24.037527
 30
0.0
 10
12.545447
 20
-10.707750
 30
0.0
  0
LWPOLYLINE
  5
327
100
AcDbEntity
  8
0
 62
7
100
AcDbPolyline
 90
2
 70
0
 10
263.873248
 20
-27.611502
 30
0.0
 10
277.203025
 20
-24.039799
 30
0.0
  0
LWPOLYLINE
  5
328
100
AcDbEntity
  8
0
 62
7
100
AcDbPolyline
 90
2
 70
0
 10
273.631322
 20
-10.710022
 30
0.0
 10
260.301545
 20
-14.281725
 30
0.0
  0
LWPOLYLINE
  5
329
100
AcDbEntity
  8
0
 62
7
100
AcDbPolyline
 90
2
 70
0
 10
263.873248
 20
-27.611502
 30
0.0
 10
260.301545
 20
-14.281725
 30
0.0
  0
LWPOLYLINE
  5
32a
100
AcDbEntity
  8
0
 62
7
100
AcDbPolyline
 90
2
 70
0
 10
273.631322
 20
-10.710022
 30
0.0
 10
277.203025
 20
-24.039799
 30
0.0
  0
LWPOLYLINE
  5
32b
100
AcDbEntity
  8
0
 62
7
100
AcDbPolyline
 90
2
 70
0
 10
4.056192
 20
-42.390118
 30
0.0
 10
17.385969
 20
-45.961821
 30
0.0
  0
LWPOLYLINE
  5
32c
100
AcDbEntity
  8
0
 62
7
100
AcDbPolyline
 90
2
 70
0
 10
20.957672
 20
-32.632044
 30
0.0
 10
17.385969
 20
-45.961821
 30
0.0
  0
LWPOLYLINE
  5
32d
100
AcDbEntity
  8
0
 62
7
100
AcDbPolyline
 90
2
 70
0
 10
20.957672
 20
-32.632044
 30
0.0
 10
7.627895
 20
-29.060341
 30
0.0
  0
LWPOLYLINE
  5
32e
100
AcDbEntity
  8
0
 62
7
100
AcDbPolyline
 90
2
 70
0
 10
4.056192
 20
-42.390118
 30
0.0
 10
7.627895
 20
-29.060341
 30
0.0
  0
LWPOLYLINE
  5
32f
100
AcDbEntity
  8
0
 62
7
100
AcDbPolyline
 90
2
 70
0
 10
278.548886
 20
-29.062625
 30
0.0
 10
282.120589
 20
-42.392402
 30
0.0
  0
LWPOLYLINE
  5
330
100
AcDbEntity
  8
0
 62
7
100
AcDbPolyline
 90
2
 70
0
 10
268.790812
 20
-45.964105
 30
0.0
 10
282.120589
 20
-42.392402
 30
0.0
  0
LWPOLYLINE
  5
331
100
AcDbEntity
  8
0
 62
7
100
AcDbPolyline
 90
2
 70
0
 10
268.790812
 20
-45.964105
 30
0.0
 10
265.219109
 20
-32.634328
 30
0.0
  0
LWPOLYLINE
  5
332
100
AcDbEntity
  8
0
 62
7
100
AcDbPolyline
 90
2
 70
0
 10
278.548886
 20
-29.062625
 30
0.0
 10
265.219109
 20
-32.634328
 30
0.0
  0
LWPOLYLINE
  5
333
100
AcDbEntity
  8
0
 62
7
100
AcDbPolyline
 90
2
 70
0
 10
7.525001
 20
-87.054638
 30
0.0
 10
21.325001
 20
-87.054638
 30
0.0
  0
LWPOLYLINE
  5
334
100
AcDbEntity
  8
0
 62
7
100
AcDbPolyline
 90
2
 70
0
 10
21.325001
 20
-73.254638
 30
0.0
 10
7.525001
 20
-73.254638
 30
0.0
  0
LWPOLYLINE
  5
335
100
AcDbEntity
  8
0
 62
7
100
AcDbPolyline
 90
2
 70
0
 10
21.325001
 20
-73.254638
 30
0.0
 10
21.325001
 20
-87.054638
 30
0.0
  0
LWPOLYLINE
  5
336
100
AcDbEntity
  8
0
 62
7
100
AcDbPolyline
 90
2
 70
0
 10
7.525001
 20
-87.054638
 30
0.0
 10
7.525001
 20
-73.254638
 30
0.0
  0
LWPOLYLINE
  5
337
100
AcDbEntity
  8
0
 62
7
100
AcDbPolyline
 90
2
 70
0
 10
277.815001
 20
-73.684634
 30
0.0
 10
264.015001
 20
-73.684634
 30
0.0
  0
LWPOLYLINE
  5
338
100
AcDbEntity
  8
0
 62
7
100
AcDbPolyline
 90
2
 70
0
 10
277.815001
 20
-73.684634
 30
0.0
 10
277.815001
 20
-87.484634
 30
0.0
  0
LWPOLYLINE
  5
339
100
AcDbEntity
  8
0
 62
7
100
AcDbPolyline
 90
2
 70
0
 10
264.015001
 20
-87.484634
 30
0.0
 10
264.015001
 20
-73.684634
 30
0.0
  0
LWPOLYLINE
  5
33a
100
AcDbEntity
  8
0
 62
7
100
AcDbPolyline
 90
2
 70
0
 10
264.015001
 20
-87.484634
 30
0.0
 10
277.815001
 20
-87.484634
 30
0.0
  0
LWPOLYLINE
  5
33b
100
AcDbEntity
  8
0
 62
7
100
AcDbPolyline
 90
2
 70
0
 10
285.025001
 20
-0.024642
 30
0.0
 10
285.024999
 20
-94.624636
 30
0.0
  0
LWPOLYLINE
  5
33c
100
AcDbEntity
  8
0
 62
7
100
AcDbPolyline
 90
2
 70
0
 10
0.025000
 20
-94.624646
 30
0.0
 10
285.024999
 20
-94.624636
 30
0.0
  0
LWPOLYLINE
  5
33d
100
AcDbEntity
  8
0
 62
7
100
AcDbPolyline
 90
2
 70
0
 10
0.025002
 20
-0.024642
 30
0.0
 10
285.025001
 20
-0.024642
 30
0.0
  0
LWPOLYLINE
  5
33e
100
AcDbEntity
  8
0
 62
7
100
AcDbPolyline
 90
2
 70
0
 10
0.025002
 20
-0.024642
 30
0.0
 10
0.025000
 20
-94.624646
 30
0.0
  0
LWPOLYLINE
  5
33f
100
AcDbEntity
  8
0
 62
7
100
AcDbPolyline
 90
2
 70
0
 10
237.544914
 20
-63.283902
 30
0.0
 10
237.441422
 20
-62.897547
 30
0.0
  0
ENDSEC
  0
SECTION
  2
OBJECTS
  0
DICTIONARY
  5
C
330
0
100
AcDbDictionary
  3
ACAD_GROUP
350
D
  3
ACAD_MLINESTYLE
350
17
  0
DICTIONARY
  5
D
330
C
100
AcDbDictionary
  0
DICTIONARY
  5
1A
330
C
100
AcDbDictionary
  0
DICTIONARY
  5
17
330
C
100
AcDbDictionary
  3
STANDARD
350
18
  0
DICTIONARY
  5
19
330
C
100
AcDbDictionary
  0
ENDSEC
  0
EOF
