0
SECTION
2
HEADER
9
$INSUNITS
70
4
9
$ACADVER
1
AC1014
9
$HANDSEED
5
FFFF
0
ENDSEC
0
SECTION
2
TABLES
0
TABLE
2
VPORT
5
8
100
AcDbSymbolTable
0
ENDTAB
0
TABLE
2
LTYPE
5
5
100
AcDbSymbolTable
0
LTYPE
5
14
100
AcDbSymbolTableRecord
100
AcDbLinetypeTableRecord
2
BYBLOCK
70
0
0
LTYPE
5
15
100
AcDbSymbolTableRecord
100
AcDbLinetypeTableRecord
2
BYLAYER
70
0
0
ENDTAB
0
TABLE
2
LAYER
5
2
100
AcDbSymbolTable
70
2
0
LAYER
5
50
100
AcDbSymbolTableRecord
100
AcDbLayerTableRecord
2
0
70
0
6
CONTINUOUS
0
ENDTAB
0
TABLE
2
STYLE
5
3
100
AcDbSymbolTable
70
1
0
STYLE
5
11
100
AcDbSymbolTableRecord
100
AcDbTextStyleTableRecord
2
STANDARD
70
0
0
ENDTAB
0
TABLE
2
VIEW
5
6
100
AcDbSymbolTable
70
0
0
ENDTAB
0
TABLE
2
UCS
5
7
100
AcDbSymbolTable
70
0
0
ENDTAB
0
TABLE
2
APPID
5
9
100
AcDbSymbolTable
70
2
0
APPID
5
12
100
AcDbSymbolTableRecord
100
AcDbRegAppTableRecord
2
ACAD
70
0
0
ENDTAB
0
TABLE
2
DIMSTYLE
5
A
100
AcDbSymbolTable
70
1
0
ENDTAB
0
TABLE
2
BLOCK_RECORD
5
1
100
AcDbSymbolTable
70
1
0
BLOCK_RECORD
5
1F
100
AcDbSymbolTableRecord
100
AcDbBlockTableRecord
2
*MODEL_SPACE
0
BLOCK_RECORD
5
1B
100
AcDbSymbolTableRecord
100
AcDbBlockTableRecord
2
*PAPER_SPACE
0
ENDTAB
0
ENDSEC
0
SECTION
2
BLOCKS
0
BLOCK
5
20
100
AcDbEntity
100
AcDbBlockBegin
2
*MODEL_SPACE
0
ENDBLK
5
21
100
AcDbEntity
100
AcDbBlockEnd
0
BLOCK
5
1C
100
AcDbEntity
100
AcDbBlockBegin
2
*PAPER_SPACE
0
ENDBLK
5
1D
100
AcDbEntity
100
AcDbBlockEnd
0
ENDSEC
0
SECTION
2
ENTITIES
0
LWPOLYLINE
5
100
100
AcDbEntity
8
0
100
AcDbPolyline
90
4
70
1
43
0.0
10
49.018468000000006
20
-63.216878000000001
10
65.922169999999994
20
-67.746213999999995
10
62.246943000000002
20
-81.462361000000016
10
45.343235999999997
20
-76.933025999999998
0
LWPOLYLINE
5
101
100
AcDbEntity
8
0
100
AcDbPolyline
90
4
70
1
43
0.0
10
130.33497870827142
20
-31.399350429695776
10
159.61988904271908
20
-31.399350429695776
10
159.6198901211788
20
-60.841301013874201
10
130.33497762981168
20
-60.841301013874201
0
LWPOLYLINE
5
102
100
AcDbEntity
8
0
100
AcDbPolyline
90
4
70
1
43
0.0
10
229.49212799999998
20
-83.411974999999998
10
244.85033999999999
20
-79.296757000000014
10
239.98454300000006
20
-61.137355000000007
10
224.62631600000003
20
-65.252576000000005
0
SPLINE
5
103
100
AcDbEntity
8
0
100
AcDbSpline
70
0
71
3
72
8
73
4
74
0
42
0.000000001
43
0.0000000001
44
0.0000000001
40
0
40
0
40
0
40
0
40
1
40
1
40
1
40
1
10
2.4999980000000002
20
-0.024641999999999997
30
0
10
2.2238560000000001
20
-0.024643000000000005
30
0
10
1.9999990000000001
20
-0.2485
30
0
10
1.9999980000000002
20
-0.52464200000000005
30
0
0
LINE
5
104
100
AcDbEntity
8
0
100
AcDbLine
10
286.99999800000001
20
-0.52464200000000005
30
0
11
286.99999600000001
21
-94.12463600000001
31
0
0
SPLINE
5
105
100
AcDbEntity
8
0
100
AcDbSpline
70
0
71
3
72
8
73
4
74
0
42
0.000000001
43
0.0000000001
44
0.0000000001
40
0
40
0
40
0
40
0
40
1
40
1
40
1
40
1
10
286.49999500000001
20
-94.624635999999995
30
0
10
286.63260299999996
20
-94.624636999999993
30
0
10
286.75978100000003
20
-94.571957999999995
30
0
10
286.85354900000004
20
-94.478190000000012
30
0
0
LWPOLYLINE
5
106
100
AcDbEntity
8
0
100
AcDbPolyline
90
4
70
1
43
0.0
10
224.20738300000005
20
-67.74596200000002
10
241.111085
20
-63.216630000000009
10
244.786317
20
-76.932776000000004
10
227.88261500000002
20
-81.462109999999996
0
SPLINE
5
107
100
AcDbEntity
8
0
100
AcDbSpline
70
0
71
3
72
8
73
4
74
0
42
0.000000001
43
0.0000000001
44
0.0000000001
40
0
40
0
40
0
40
0
40
1
40
1
40
1
40
1
10
286.85354900000004
20
-94.478190000000012
30
0
10
286.947317
20
-94.384422000000001
30
0
10
286.99999600000001
20
-94.257244999999998
30
0
10
286.99999600000001
20
-94.12463600000001
30
0
0
LINE
5
108
100
AcDbEntity
8
0
100
AcDbLine
10
2.4999959999999999
20
-94.624646000000013
30
0
11
286.49999500000001
21
-94.624635999999995
31
0
0
LWPOLYLINE
5
109
100
AcDbEntity
8
0
100
AcDbPolyline
90
4
70
1
43
0.0
10
153.60162400000002
20
-68.145527999999999
10
136.10162400000002
20
-68.145527999999999
10
136.10162500000001
20
-53.945528000000003
10
153.60162400000002
20
-53.945526999999998
0
LWPOLYLINE
5
110
100
AcDbEntity
8
0
100
AcDbPolyline
90
4
70
1
43
0.0
10
60.740970999999995
20
-83.025851000000003
10
45.382746999999995
20
-78.910626000000008
10
50.24854400000001
20
-60.751221000000001
10
65.606764999999996
20
-64.866444999999999
0
LINE
5
111
100
AcDbEntity
8
0
100
AcDbLine
10
1.9999980000000002
20
-0.52464200000000005
30
0
11
1.999997
21
-94.124645999999998
31
0
0
SPLINE
5
112
100
AcDbEntity
8
0
100
AcDbSpline
70
0
71
3
72
8
73
4
74
0
42
0.000000001
43
0.0000000001
44
0.0000000001
40
0
40
0
40
0
40
0
40
1
40
1
40
1
40
1
10
1.999997
20
-94.124645999999998
30
0
10
1.999997
20
-94.400788000000006
30
0
10
2.2238540000000002
20
-94.624646000000013
30
0
10
2.4999959999999999
20
-94.624646000000013
30
0
0
LINE
5
113
100
AcDbEntity
8
0
100
AcDbLine
10
2.4999980000000002
20
-0.024641999999999997
30
0
11
286.49999800000001
21
-0.024643000000000005
31
0
0
SPLINE
5
114
100
AcDbEntity
8
0
100
AcDbSpline
70
0
71
3
72
8
73
4
74
0
42
0.000000001
43
0.0000000001
44
0.0000000001
40
0
40
0
40
0
40
0
40
1
40
1
40
1
40
1
10
286.99999800000001
20
-0.52464200000000005
30
0
10
286.99999600000001
20
-0.24850100000000003
30
0
10
286.776139
20
-0.024645
30
0
10
286.49999800000001
20
-0.024643000000000005
30
0
0
LWPOLYLINE
5
115
100
AcDbEntity
8
0
100
AcDbPolyline
90
4
70
1
43
0.0
10
120.1873174658423
20
-40.9830353405032
10
106.66436036864793
20
-37.35956650106359
10
103.04088747618671
20
-50.882528652250436
10
116.56385268932306
20
-54.505998506182792
0
LWPOLYLINE
5
116
100
AcDbEntity
8
0
100
AcDbPolyline
90
4
70
1
43
0.0
10
97.56421052248713
20
-52.0032393382062
10
84.041244304756745
20
-48.379770501418946
10
80.417779535483874
20
-61.90273566904019
10
93.940737637272278
20
-65.526203491334698
0
LWPOLYLINE
5
117
100
AcDbEntity
8
0
100
AcDbPolyline
90
4
70
1
43
0.0
10
85.423271522001727
20
-23.903456349205822
10
71.900307316111721
20
-20.279986493331794
10
68.276841521476527
20
-33.802950687026076
10
81.799799640410043
20
-37.426415470436325
0
LWPOLYLINE
5
118
100
AcDbEntity
8
0
100
AcDbPolyline
90
4
70
1
43
0.0
10
60.859018486515382
20
-42.168124326625914
10
47.336051266843313
20
-38.544655493201731
10
43.712591556962863
20
-52.067622738591467
10
57.235552689678428
20
-55.691082441580882
0
LWPOLYLINE
5
119
100
AcDbEntity
8
0
100
AcDbPolyline
90
4
70
1
43
0.0
10
44.188755500748009
20
-30.972036340147845
10
30.665793329278284
20
-27.348567500222821
10
27.042326513744747
20
-40.871527659852148
10
40.565286656228963
20
-44.494996499777166
0
LWPOLYLINE
5
120
100
AcDbEntity
8
0
100
AcDbPolyline
90
4
70
1
43
0.0
10
27.976062485414491
20
-14.204551328792865
10
14.45310031889413
20
-10.581083504686777
10
10.829634521831883
20
-24.104044663960764
10
24.352595673859486
20
-27.727513502559606
0
LWPOLYLINE
5
121
100
AcDbEntity
8
0
100
AcDbPolyline
90
4
70
1
43
0.0
10
70.694146531545115
20
-5.4629393333868865
10
57.171180325039614
20
-1.8394715141000928
10
53.547712504686771
20
-15.362435695598627
10
67.070673638728522
20
-18.98589945691441
0
LWPOLYLINE
5
122
100
AcDbEntity
8
0
100
AcDbPolyline
90
4
70
1
43
0.0
10
107.3993164699509
20
-15.298061317923308
10
93.87635831902422
20
-11.674595511447736
10
90.252892522802725
20
-25.197555653091193
10
103.7758516882222
20
-28.821025517537791
0
LWPOLYLINE
5
123
100
AcDbEntity
8
0
100
AcDbPolyline
90
4
70
1
43
0.0
10
125.10486647153724
20
-22.630430319249481
10
111.58190130886535
20
-19.006962507824547
10
107.9584365284628
20
-32.529924673504148
10
121.48140169113466
20
-36.153393499421824
0
LWPOLYLINE
5
124
100
AcDbEntity
8
0
100
AcDbPolyline
90
4
70
1
43
0.0
10
90.340821417189403
20
-5.5508643129739355
10
76.817864365024747
20
-1.9273975145855093
10
73.194391466868581
20
-15.450359687026056
10
86.717364750917312
20
-19.073826485414497
0
LWPOLYLINE
5
125
100
AcDbEntity
8
0
100
AcDbPolyline
90
4
70
1
43
0.0
10
49.106324482276726
20
-12.619441327952106
10
35.583362328792873
20
-8.99597350733913
10
31.959894503230529
20
-22.51893669378703
10
45.482858685699881
20
-26.142401470921747
0
LWPOLYLINE
5
126
100
AcDbEntity
8
0
100
AcDbPolyline
90
4
70
1
43
0.0
10
23.058510497124814
20
-32.557141324684274
10
9.5355483152709439
20
-28.933674510962319
10
5.9120825246143092
20
-42.456636660822973
10
19.435041662989924
20
-46.080105503530433
0
LWPOLYLINE
5
127
100
AcDbEntity
8
0
100
AcDbPolyline
90
4
70
1
43
0.0
10
39.27119650618279
20
-49.324630332416042
10
25.748233324684264
20
-45.701162508179898
10
22.124765508309959
20
-59.224127689323083
10
35.64772666082299
20
-62.847592470080976
0
LWPOLYLINE
5
128
100
AcDbEntity
8
0
100
AcDbPolyline
90
4
70
1
43
0.0
10
65.776581489878453
20
-23.815532331930637
10
52.25362031937955
20
-20.19206450287518
10
48.630154524614312
20
-33.71502565357661
10
62.153113666127702
20
-37.33849551161758
0
LWPOLYLINE
5
129
100
AcDbEntity
8
0
100
AcDbPolyline
90
4
70
1
43
0.0
10
102.48176647308868
20
-33.650649313459347
10
88.958809360916121
20
-30.027184527977361
10
85.33533546169393
20
-43.550150708279808
10
98.85830170430124
20
-47.173612450283514
0
LWPOLYLINE
5
130
100
AcDbEntity
8
0
100
AcDbPolyline
90
4
70
1
43
0.0
10
80.505699476486598
20
-42.256042279039072
10
66.982735305727573
20
-38.63258054852038
10
63.359270523513409
20
-52.15553866298994
10
76.882234694272455
20
-55.779008509450627
0
LWPOLYLINE
5
131
100
AcDbEntity
8
0
100
AcDbPolyline
90
4
70
1
43
0.0
10
115.26975353361686
20
-59.335612313104022
10
101.74678030679361
20
-55.712145530049071
10
98.123315517107812
20
-69.235105701388747
10
111.64628164248177
20
-72.858570455458164
0
LWPOLYLINE
5
132
100
AcDbEntity
8
0
100
AcDbPolyline
90
4
70
1
43
0.0
10
100.54331352691135
20
-89.768102630511322
10
104.16677932106109
20
-76.245143511092408
10
117.6897445238133
20
-79.868611333256837
10
114.0662716282143
20
-93.391575525139515
0
LWPOLYLINE
5
133
100
AcDbEntity
8
0
100
AcDbPolyline
90
4
70
1
43
0.0
10
78.458321572426428
20
-83.71610864270707
10
82.081780266713224
20
-70.193150531860667
10
95.604752529022818
20
-73.816615299321967
10
91.981279631837481
20
-87.339581526110351
0
LWPOLYLINE
5
134
100
AcDbEntity
8
0
100
AcDbPolyline
90
4
70
1
43
0.0
10
120.11831047725273
20
-90.204115704301259
10
123.74178235703282
20
-76.681149488382431
10
137.26474947926903
20
-80.304622353669743
10
133.64128368644543
20
-93.827580453646604
0
LWPOLYLINE
5
135
100
AcDbEntity
8
0
100
AcDbPolyline
90
4
70
1
43
0.0
10
23.403364992753623
20
-73.150440000000003
10
23.403366007246376
20
-87.150442992753625
10
9.4033649927536231
20
-87.150444007246378
10
9.4033660072463743
20
-73.150440000000003
0
LWPOLYLINE
5
136
100
AcDbEntity
8
0
100
AcDbPolyline
90
4
70
1
43
0.0
10
176.06732131226326
20
-93.293660483117463
10
172.44385653186069
20
-79.770701360916149
10
185.96681468773679
20
-76.147229466157867
10
189.5902794681393
20
-89.670195689808509
0
LWPOLYLINE
5
137
100
AcDbEntity
8
0
100
AcDbPolyline
90
4
70
1
43
0.0
10
156.49226331407482
20
-93.829357533356728
10
152.86879853004911
20
-80.306392310676941
10
166.3917566859252
20
-76.682927517367943
10
170.01522146995092
20
-90.205885638598446
0
LWPOLYLINE
5
138
100
AcDbEntity
8
0
100
AcDbPolyline
90
4
70
1
43
0.0
10
198.15191732132126
20
-87.341366540603104
10
194.52845152461435
20
-73.818400310191507
10
208.05141069317156
20
-70.194935517367938
10
211.67487446089297
20
-83.717893631837484
0
LWPOLYLINE
5
139
100
AcDbEntity
8
0
100
AcDbPolyline
90
4
70
1
43
0.0
10
265.89337899999998
20
-87.580442992753632
10
265.89337899999998
20
-73.580441007246392
10
279.89336600000001
20
-73.580439992753639
10
279.89336600000001
20
-87.580444007246371
0
LWPOLYLINE
5
140
100
AcDbEntity
8
0
100
AcDbPolyline
90
4
70
1
43
0.0
10
183.46916469135999
20
-37.361844486926167
10
169.94620651604177
20
-40.985313343415697
10
173.56967231588641
20
-54.50827045510281
10
187.09262947671189
20
-50.884809714555345
0
LWPOLYLINE
5
141
100
AcDbEntity
8
0
100
AcDbPolyline
90
4
70
1
43
0.0
10
178.55160770093815
20
-19.009255544411751
10
165.02863351733311
20
-22.632720283017626
10
168.65209930630823
20
-36.155686484573728
10
182.17507247542051
20
-32.532217687996898
0
LWPOLYLINE
5
142
100
AcDbEntity
8
0
100
AcDbPolyline
90
4
70
1
43
0.0
10
188.38672159719198
20
-55.714429541143929
10
174.86376341776506
20
-59.337894340763341
10
178.48724340280802
20
-72.860853415377875
10
192.01020158223497
20
-69.237394702714994
0
LWPOLYLINE
5
143
100
AcDbEntity
8
0
100
AcDbPolyline
90
4
70
1
43
0.0
10
201.17470169365697
20
-30.029467531730624
10
187.65174253451306
20
-33.65293029304641
10
191.27520629909665
20
-47.175896511747631
10
204.79816647273333
20
-43.552427663475335
0
LWPOLYLINE
5
144
100
AcDbEntity
8
0
100
AcDbPolyline
90
4
70
1
43
0.0
10
196.25715879410066
20
-11.676873471947962
10
182.73420163194885
20
-15.300340299807369
10
186.35765120589934
20
-28.823303520805645
10
199.88060836805118
20
-25.199837707439002
0
LWPOLYLINE
5
145
100
AcDbEntity
8
0
100
AcDbPolyline
90
4
70
1
43
0.0
10
206.09227359175719
20
-48.382062542600167
10
192.56931543720725
20
-52.005527335553829
10
196.19279440099646
20
-65.528493486385329
10
209.71575357003917
20
-61.905024635460649
0
LWPOLYLINE
5
146
100
AcDbEntity
8
0
100
AcDbPolyline
90
4
70
1
43
0.0
10
218.2332035886194
20
-20.282267545382588
10
204.71024462916645
20
-23.905732282176846
10
208.33369419398932
20
-37.428696483602941
10
221.85668358822483
20
-33.805227688837611
0
LWPOLYLINE
5
147
100
AcDbEntity
8
0
100
AcDbPolyline
90
4
70
1
43
0.0
10
213.31563058137306
20
-1.9296835236434755
10
199.79267241825053
20
-5.5531513623724171
10
203.416153418627
20
-19.076111454617408
10
216.9391115817495
20
-15.452646659366732
0
LWPOLYLINE
5
148
100
AcDbEntity
8
0
100
AcDbPolyline
90
4
70
1
43
0.0
10
223.15076070818458
20
-38.634859551658124
10
209.62778541362161
20
-42.258323301618958
10
213.25126641500378
20
-55.781289484573733
10
226.77422446318997
20
-52.157820662149163
0
LWPOLYLINE
5
149
100
AcDbEntity
8
0
100
AcDbPolyline
90
4
70
1
43
0.0
10
237.87988569630932
20
-20.194346483658329
10
224.35692853729546
20
-23.817815339662435
10
227.98039229644431
20
-37.340776465617019
10
241.50335046995093
20
-33.717314711062215
0
LWPOLYLINE
5
150
100
AcDbEntity
8
0
100
AcDbPolyline
90
4
70
1
43
0.0
10
232.9623296955034
20
-1.8417515241288851
10
219.43935542086797
20
-5.4652193306044676
10
223.06283541319218
20
-18.988181475871112
10
236.58579447043633
20
-15.364713669395542
0
LWPOLYLINE
5
151
100
AcDbEntity
8
0
100
AcDbPolyline
90
4
70
1
43
0.0
10
242.79744257642366
20
-38.546926519664943
10
229.27448342996087
20
-42.170395364539353
10
232.89796341633001
20
-55.69335748758143
10
246.42092357728558
20
-52.069887628214275
0
LWPOLYLINE
5
152
100
AcDbEntity
8
0
100
AcDbPolyline
90
4
70
1
43
0.0
10
259.46771458402537
20
-27.350849528237489
10
245.94475753367232
20
-30.974316326140517
10
249.56822130003263
20
-44.497277479008886
10
263.09119458226979
20
-40.873809666613106
0
LWPOLYLINE
5
153
100
AcDbEntity
8
0
100
AcDbPolyline
90
4
70
1
43
0.0
10
254.55014258451081
20
-8.9982595228027051
10
241.02718442682306
20
-12.621727360075406
10
244.65066441548919
20
-26.144688477197295
10
258.173622573177
20
-22.521220639924596
0
LWPOLYLINE
5
154
100
AcDbEntity
8
0
100
AcDbPolyline
90
4
70
1
43
0.0
10
264.38528679957028
20
-45.703443514100087
10
250.86231452325333
20
-49.32690828531463
10
254.48577930912549
20
-62.849873514885424
10
268.00873636805113
20
-59.22640468569989
0
LWPOLYLINE
5
155
100
AcDbEntity
8
0
100
AcDbPolyline
90
4
70
1
43
0.0
10
275.68039057677902
20
-10.583356535483865
10
262.15743443274323
20
-14.206822347879648
10
265.78091340872828
20
-27.729784486255248
10
279.30387158174949
20
-24.106315630381204
0
LWPOLYLINE
5
156
100
AcDbEntity
8
0
100
AcDbPolyline
90
4
70
1
43
0.0
10
280.59796379096287
20
-28.935959481976784
10
267.07500562602871
20
-32.559425292205631
10
270.69845520903715
20
-46.082386518023227
10
284.2214133739713
20
-42.45892070779437
0
ENDSEC
0
SECTION
2
OBJECTS
0
DICTIONARY
5
C
100
AcDbDictionary
3
ACAD_GROUP
350
D
3
ACAD_MLINESTYLE
350
17
0
DICTIONARY
5
D
100
AcDbDictionary
0
DICTIONARY
5
1A
330
C
100
AcDbDictionary
0
DICTIONARY
5
17
100
AcDbDictionary
0
ENDSEC
0
EOF
