<?xml version="1.0" standalone="no"?>
 <!DOCTYPE svg PUBLIC "-//W3C//DTD SVG 1.1//EN" 
 "http://www.w3.org/Graphics/SVG/1.1/DTD/svg11.dtd"> 
<svg
  xmlns:svg="http://www.w3.org/2000/svg"
  xmlns="http://www.w3.org/2000/svg"
  xmlns:xlink="http://www.w3.org/1999/xlink"
  version="1.1"
  width="28.897580cm" height="9.464040cm" viewBox="0 0 288975800 94640400">
<title>SVG Picture created as template-brd.svg date 2022/07/21 01:44:14 </title>
  <desc>Picture generated by PCBNEW </desc>
<g style="fill:#000000; fill-opacity:1.000000;stroke:#000000; stroke-opacity:1.000000;
stroke-linecap:round; stroke-linejoin:round;"
 transform="translate(0 0) scale(1 1)">
</g>
<g style="fill:#000000; fill-opacity:0.0; 
stroke:#000000; stroke-width:0.000000; stroke-opacity:1; 
stroke-linecap:round; stroke-linejoin:round;">
</g>
<g style="fill:#C2C200; fill-opacity:0.0; 
stroke:#C2C200; stroke-width:0.000000; stroke-opacity:1; 
stroke-linecap:round; stroke-linejoin:round;">
</g>
<g style="fill:#C2C200; fill-opacity:0.0; 
stroke:#C2C200; stroke-width:150000.000000; stroke-opacity:1; 
stroke-linecap:round; stroke-linejoin:round;">
<path d="M213321977 55659173
L226651750 52087468
" />
<path d="M60740971 83026209
L65606765 64866803
" />
<path d="M183398454 37484677
L186970155 50814457
" />
<path d="M265993379 87480801
L279793366 87480802
" />
<path d="M173640383 54386154
L170068681 41056382
" />
<path d="M98245790 69164753
L101817491 55834978
" />
</g>
<g style="fill:#C2C200; fill-opacity:0.0; 
stroke:#C2C200; stroke-width:50000.000000; stroke-opacity:1; 
stroke-linecap:round; stroke-linejoin:round;">
<path d="M153601624 68145886
L153601624 53945885
" />
</g>
<g style="fill:#C2C200; fill-opacity:0.0; 
stroke:#C2C200; stroke-width:150000.000000; stroke-opacity:1; 
stroke-linecap:round; stroke-linejoin:round;">
<path d="M264314576 45826276
L267886262 59156052
" />
<path d="M68399316 33732598
L71971018 20402819
" />
<path d="M23303365 73250798
L23303366 87050801
" />
<path d="M218162493 20405100
L221734209 33734875
" />
<path d="M53670187 15292083
L66999963 18863783
" />
</g>
<g style="fill:#C2C200; fill-opacity:0.0; 
stroke:#C2C200; stroke-width:50000.000000; stroke-opacity:1; 
stroke-linecap:round; stroke-linejoin:round;">
<path d="M1999997.000000 94125004.000000 A500000.000000 500000.000000 0.0 0 0 2499996.000000 94625003.999999" />
</g>
<g style="fill:#C2C200; fill-opacity:0.0; 
stroke:#C2C200; stroke-width:150000.000000; stroke-opacity:1; 
stroke-linecap:round; stroke-linejoin:round;">
<path d="M176138032 93171544
L189467805 89599843
" />
<path d="M259397004 27473682
L262968720 40803457
" />
<path d="M228051103 37218660
L224479403 23888884
" />
<path d="M188316011 55837262
L174986238 59408963
" />
<path d="M275609680 10706189
L279181397 24035963
" />
<path d="M249638932 44375161
L262968720 40803457
" />
<path d="M65654107 23886601
L62082403 37216379
" />
<path d="M203486864 18953995
L199915147 5624220
" />
<path d="M196263505 65406377
L209593279 61834672
" />
</g>
<g style="fill:#C2C200; fill-opacity:0.0; 
stroke:#C2C200; stroke-width:50000.000000; stroke-opacity:1; 
stroke-linecap:round; stroke-linejoin:round;">
<path d="M62246943 81462719
L45343236 76933384
" />
</g>
<g style="fill:#C2C200; fill-opacity:0.0; 
stroke:#C2C200; stroke-width:150000.000000; stroke-opacity:1; 
stroke-linecap:round; stroke-linejoin:round;">
<path d="M224626316 65252934
L239984543 61137713
" />
<path d="M156562974 93707241
L169892747 90135533
" />
<path d="M117567270 79939680
L104237490 76367976
" />
<path d="M80383225 42327111
L76811524 55656892
" />
<path d="M196186448 11799706
L199758134 25129485
" />
<path d="M9503365 87050802
L9503366 73250798
" />
<path d="M107276842 15369130
L93947069 11797428
" />
<path d="M90375367 25127203
L93947069 11797428
" />
<path d="M95482278 73887684
L82152491 70315983
" />
<path d="M254479432 9121092
L258051148 22450868
" />
<path d="M43835066 51997270
L57164842 55568966
" />
<path d="M206021563 48504895
L209593279 61834672
" />
<path d="M100665788 89697750
L104237490 76367976
" />
<path d="M22247240 59153775
L35577016 62725476
" />
</g>
<g style="fill:#C2C200; fill-opacity:0.0; 
stroke:#C2C200; stroke-width:50000.000000; stroke-opacity:1; 
stroke-linecap:round; stroke-linejoin:round;">
<path d="M2499998 25000
L286499998 25001
" />
</g>
<g style="fill:#C2C200; fill-opacity:0.0; 
stroke:#C2C200; stroke-width:150000.000000; stroke-opacity:1; 
stroke-linecap:round; stroke-linejoin:round;">
<path d="M78580796 83645756
L91910569 87217465
" />
<path d="M23303365 73250798
L9503366 73250798
" />
<path d="M68399316 33732598
L81729089 37304299
" />
<path d="M213244920 2052516
L216816637 15382294
" />
<path d="M244850340 79297115
L239984543 61137713
" />
<path d="M242726732 38669759
L229396958 42241464
" />
<path d="M45382747 78910984
L50248544 60751579
" />
<path d="M90218347 5621933
L76888575 2050230
" />
<path d="M223080050 38757692
L226651750 52087468
" />
<path d="M232891619 1964584
L219561830 5536288
" />
<path d="M198222628 87219250
L211552400 83647541
" />
<path d="M48752629 33644673
L62082403 37216379
" />
<path d="M10952109 24033692
L24281885 27605397
" />
</g>
<g style="fill:#C2C200; fill-opacity:0.0; 
stroke:#C2C200; stroke-width:50000.000000; stroke-opacity:1; 
stroke-linecap:round; stroke-linejoin:round;">
<path d="M286999997.999984 525000.000000 A500003.000000 500003.000000 0.0 0 0 286499998.000000 25001.000009" />
</g>
<g style="fill:#C2C200; fill-opacity:0.0; 
stroke:#C2C200; stroke-width:150000.000000; stroke-opacity:1; 
stroke-linecap:round; stroke-linejoin:round;">
<path d="M95482278 73887684
L91910569 87217465
" />
<path d="M44066281 31043105
L30736504 27471400
" />
<path d="M10952109 24033692
L14523811 10703916
" />
<path d="M188316011 55837262
L191887727 69167042
" />
<path d="M229492128 83412333
L224626316 65252934
" />
<path d="M213321977 55659173
L209750260 42329392
" />
<path d="M65606765 64866803
L50248544 60751579
" />
</g>
<g style="fill:#C2C200; fill-opacity:0.0; 
stroke:#C2C200; stroke-width:50000.000000; stroke-opacity:1; 
stroke-linecap:round; stroke-linejoin:round;">
<path d="M136101625 53945886
L153601624 53945885
" />
</g>
<g style="fill:#C2C200; fill-opacity:0.0; 
stroke:#C2C200; stroke-width:119999.000000; stroke-opacity:1; 
stroke-linecap:round; stroke-linejoin:round;">
<path d="M158163363 59470810
L130763368 59470810
" />
</g>
<g style="fill:#C2C200; fill-opacity:0.0; 
stroke:#C2C200; stroke-width:150000.000000; stroke-opacity:1; 
stroke-linecap:round; stroke-linejoin:round;">
<path d="M85300797 23974525
L71971018 20402819
" />
</g>
<g style="fill:#C2C200; fill-opacity:0.0; 
stroke:#C2C200; stroke-width:50000.000000; stroke-opacity:1; 
stroke-linecap:round; stroke-linejoin:round;">
<path d="M2499998.000000 25000.000001 A500001.000000 500001.000000 0.0 0 0 1999998.000001 525000.000000" />
</g>
<g style="fill:#C2C200; fill-opacity:0.0; 
stroke:#C2C200; stroke-width:150000.000000; stroke-opacity:1; 
stroke-linecap:round; stroke-linejoin:round;">
<path d="M265851624 27607668
L279181397 24035963
" />
<path d="M120240785 90133763
L133570573 93705464
" />
<path d="M196263505 65406377
L192691790 52076596
" />
<path d="M191345917 47053780
L187774217 33723999
" />
</g>
<g style="fill:#C2C200; fill-opacity:0.0; 
stroke:#C2C200; stroke-width:50000.000000; stroke-opacity:1; 
stroke-linecap:round; stroke-linejoin:round;">
<path d="M244786317 76933134
L227882615 81462468
" />
</g>
<g style="fill:#C2C200; fill-opacity:0.0; 
stroke:#C2C200; stroke-width:150000.000000; stroke-opacity:1; 
stroke-linecap:round; stroke-linejoin:round;">
<path d="M103163362 50812176
L116493142 54383882
" />
<path d="M223080050 38757692
L209750260 42329392
" />
<path d="M185896104 76270062
L172566331 79841770
" />
<path d="M97441736 52074308
L84111955 48502603
" />
<path d="M85457810 43479798
L98787591 47051496
" />
<path d="M265993379 87480801
L265993379 73680799
" />
<path d="M53670187 15292083
L57241891 1962304
" />
<path d="M65654107 23886601
L52324331 20314897
" />
<path d="M259397004 27473682
L246067232 31045385
" />
</g>
<g style="fill:#C2C200; fill-opacity:0.0; 
stroke:#C2C200; stroke-width:50000.000000; stroke-opacity:1; 
stroke-linecap:round; stroke-linejoin:round;">
<path d="M224207383 67746320
L227882615 81462468
" />
</g>
<g style="fill:#C2C200; fill-opacity:0.0; 
stroke:#C2C200; stroke-width:150000.000000; stroke-opacity:1; 
stroke-linecap:round; stroke-linejoin:round;">
<path d="M279793366 73680798
L279793366 87480802
" />
<path d="M27164801 40801175
L40494576 44372880
" />
<path d="M232891619 1964584
L236463320 15294361
" />
<path d="M85300797 23974525
L81729089 37304299
" />
<path d="M270769166 45960270
L267197480 32630494
" />
<path d="M201103991 30152300
L204675692 43482075
" />
<path d="M207980700 70317768
L194650926 73889469
" />
</g>
<g style="fill:#C2C200; fill-opacity:0.0; 
stroke:#C2C200; stroke-width:50000.000000; stroke-opacity:1; 
stroke-linecap:round; stroke-linejoin:round;">
<path d="M49018468 63217236
L65922170 67746572
" />
</g>
<g style="fill:#C2C200; fill-opacity:0.0; 
stroke:#C2C200; stroke-width:150000.000000; stroke-opacity:1; 
stroke-linecap:round; stroke-linejoin:round;">
<path d="M229492128 83412333
L244850340 79297115
" />
<path d="M117567270 79939680
L113995561 93269459
" />
</g>
<g style="fill:#C2C200; fill-opacity:0.0; 
stroke:#C2C200; stroke-width:119999.000000; stroke-opacity:1; 
stroke-linecap:round; stroke-linejoin:round;">
<path d="M130763369 32170811
L158163362 32170811
" />
</g>
<g style="fill:#C2C200; fill-opacity:0.0; 
stroke:#C2C200; stroke-width:150000.000000; stroke-opacity:1; 
stroke-linecap:round; stroke-linejoin:round;">
<path d="M242726732 38669759
L246298449 51999535
" />
<path d="M237809175 20317179
L241380876 33646962
" />
<path d="M264314576 45826276
L250984789 49397977
" />
<path d="M115147279 59406681
L111575571 72736454
" />
<path d="M48983850 12690510
L45412148 26020285
" />
<path d="M48752629 33644673
L52324331 20314897
" />
<path d="M186428362 28701187
L199758134 25129485
" />
<path d="M120240785 90133763
L123812493 76803982
" />
<path d="M232968674 55571241
L229396958 42241464
" />
<path d="M203486864 18953995
L216816637 15382294
" />
</g>
<g style="fill:#C2C200; fill-opacity:0.0; 
stroke:#C2C200; stroke-width:50000.000000; stroke-opacity:1; 
stroke-linecap:round; stroke-linejoin:round;">
<path d="M286999998 525000
L286999996 94124994
" />
</g>
<g style="fill:#C2C200; fill-opacity:0.0; 
stroke:#C2C200; stroke-width:150000.000000; stroke-opacity:1; 
stroke-linecap:round; stroke-linejoin:round;">
<path d="M102359292 33721718
L98787591 47051496
" />
<path d="M208404405 37306580
L204832719 23976801
" />
<path d="M279793366 73680798
L265993379 73680799
" />
<path d="M191345917 47053780
L204675692 43482075
" />
<path d="M265851624 27607668
L262279909 14277891
" />
<path d="M196186448 11799706
L182856676 15371409
" />
<path d="M27164801 40801175
L30736504 27471400
" />
<path d="M213244920 2052516
L199915147 5624220
" />
<path d="M120064843 41054104
L116493142 54383882
" />
<path d="M228051103 37218660
L241380876 33646962
" />
<path d="M223133546 18866065
L236463320 15294361
" />
</g>
<g style="fill:#C2C200; fill-opacity:0.0; 
stroke:#C2C200; stroke-width:50000.000000; stroke-opacity:1; 
stroke-linecap:round; stroke-linejoin:round;">
<path d="M62246943 81462719
L65922170 67746572
" />
</g>
<g style="fill:#C2C200; fill-opacity:0.0; 
stroke:#C2C200; stroke-width:150000.000000; stroke-opacity:1; 
stroke-linecap:round; stroke-linejoin:round;">
<path d="M178557954 72738737
L191887727 69167042
" />
</g>
<g style="fill:#C2C200; fill-opacity:0.0; 
stroke:#C2C200; stroke-width:50000.000000; stroke-opacity:1; 
stroke-linecap:round; stroke-linejoin:round;">
<path d="M286499995.000000 94624993.999999 A500000.000000 500000.000000 0.0 0 0 286999996.000000 94124994.000000" />
</g>
<g style="fill:#C2C200; fill-opacity:0.0; 
stroke:#C2C200; stroke-width:150000.000000; stroke-opacity:1; 
stroke-linecap:round; stroke-linejoin:round;">
<path d="M60736544 42239193
L57164842 55568966
" />
<path d="M80383225 42327111
L67053446 38755413
" />
</g>
<g style="fill:#C2C200; fill-opacity:0.0; 
stroke:#C2C200; stroke-width:50000.000000; stroke-opacity:1; 
stroke-linecap:round; stroke-linejoin:round;">
<path d="M224207383 67746320
L241111085 63216988
" />
</g>
<g style="fill:#C2C200; fill-opacity:0.0; 
stroke:#C2C200; stroke-width:150000.000000; stroke-opacity:1; 
stroke-linecap:round; stroke-linejoin:round;">
<path d="M22936036 32628210
L9606259 29056507
" />
<path d="M280527253 29058792
L267197480 32630494
" />
</g>
<g style="fill:#C2C200; fill-opacity:0.0; 
stroke:#C2C200; stroke-width:50000.000000; stroke-opacity:1; 
stroke-linecap:round; stroke-linejoin:round;">
<path d="M2499996 94625004
L286499995 94624994
" />
</g>
<g style="fill:#C2C200; fill-opacity:0.0; 
stroke:#C2C200; stroke-width:150000.000000; stroke-opacity:1; 
stroke-linecap:round; stroke-linejoin:round;">
<path d="M100665788 89697750
L113995561 93269459
" />
<path d="M254556490 62727757
L267886262 59156052
" />
<path d="M6034557 42386284
L9606259 29056507
" />
<path d="M97441736 52074308
L93870027 65404087
" />
<path d="M63481745 52085186
L76811524 55656892
" />
<path d="M254556490 62727757
L250984789 49397977
" />
<path d="M98245790 69164753
L111575571 72736454
" />
<path d="M249638932 44375161
L246067232 31045385
" />
<path d="M115147279 59406681
L101817491 55834978
" />
<path d="M218162493 20405100
L204832719 23976801
" />
<path d="M102359292 33721718
L89029520 30150017
" />
<path d="M275609680 10706189
L262279909 14277891
" />
<path d="M39148722 49395699
L35577016 62725476
" />
<path d="M168722810 36033570
L165151108 22703789
" />
<path d="M183398454 37484677
L170068681 41056382
" />
</g>
<g style="fill:#C2C200; fill-opacity:0.0; 
stroke:#C2C200; stroke-width:119999.000000; stroke-opacity:1; 
stroke-linecap:round; stroke-linejoin:round;">
<path d="M130763368 59470810
L130763369 32170811
" />
</g>
<g style="fill:#C2C200; fill-opacity:0.0; 
stroke:#C2C200; stroke-width:150000.000000; stroke-opacity:1; 
stroke-linecap:round; stroke-linejoin:round;">
<path d="M178480897 19132088
L165151108 22703789
" />
<path d="M80540254 61832383
L93870027 65404087
" />
<path d="M232968674 55571241
L246298449 51999535
" />
<path d="M254479432 9121092
L241149659 12692796
" />
<path d="M186428362 28701187
L182856676 15371409
" />
<path d="M178480897 19132088
L182052598 32461865
" />
<path d="M208404405 37306580
L221734209 33734875
" />
<path d="M108080911 32459572
L111652612 19129795
" />
<path d="M244721375 26022572
L258051148 22450868
" />
<path d="M22247240 59153775
L25818944 45823995
" />
</g>
<g style="fill:#C2C200; fill-opacity:0.0; 
stroke:#C2C200; stroke-width:119999.000000; stroke-opacity:1; 
stroke-linecap:round; stroke-linejoin:round;">
<path d="M158163362 32170811
L158163363 59470810
" />
</g>
<g style="fill:#C2C200; fill-opacity:0.0; 
stroke:#C2C200; stroke-width:150000.000000; stroke-opacity:1; 
stroke-linecap:round; stroke-linejoin:round;">
<path d="M43835066 51997270
L47406762 38667488
" />
<path d="M178557954 72738737
L174986238 59408963
" />
<path d="M107276842 15369130
L103705141 28698909
" />
<path d="M60736544 42239193
L47406762 38667488
" />
<path d="M244721375 26022572
L241149659 12692796
" />
<path d="M120064843 41054104
L106735071 37482399
" />
<path d="M207980700 70317768
L211552400 83647541
" />
<path d="M166321046 76805760
L152991273 80377461
" />
<path d="M166321046 76805760
L169892747 90135533
" />
</g>
<g style="fill:#C2C200; fill-opacity:0.0; 
stroke:#C2C200; stroke-width:50000.000000; stroke-opacity:1; 
stroke-linecap:round; stroke-linejoin:round;">
<path d="M49018468 63217236
L45343236 76933384
" />
</g>
<g style="fill:#C2C200; fill-opacity:0.0; 
stroke:#C2C200; stroke-width:150000.000000; stroke-opacity:1; 
stroke-linecap:round; stroke-linejoin:round;">
<path d="M173640383 54386154
L186970155 50814457
" />
<path d="M70571672 5534008
L57241891 1962304
" />
<path d="M80540254 61832383
L84111955 48502603
" />
<path d="M27853588 14275620
L14523811 10703916
" />
<path d="M73316866 15380007
L86646654 18951710
" />
<path d="M60740971 83026209
L45382747 78910984
" />
<path d="M6034557 42386284
L19364331 45957989
" />
<path d="M103163362 50812176
L106735071 37482399
" />
<path d="M137142275 80375691
L123812493 76803982
" />
<path d="M124982392 22701499
L121410691 36031277
" />
<path d="M280527253 29058792
L284098939 42388568
" />
<path d="M73316866 15380007
L76888575 2050230
" />
<path d="M223133546 18866065
L219561830 5536288
" />
</g>
<g style="fill:#C2C200; fill-opacity:0.0; 
stroke:#C2C200; stroke-width:50000.000000; stroke-opacity:1; 
stroke-linecap:round; stroke-linejoin:round;">
<path d="M244786317 76933134
L241111085 63216988
" />
</g>
<g style="fill:#C2C200; fill-opacity:0.0; 
stroke:#C2C200; stroke-width:150000.000000; stroke-opacity:1; 
stroke-linecap:round; stroke-linejoin:round;">
<path d="M206021563 48504895
L192691790 52076596
" />
<path d="M237809175 20317179
L224479403 23888884
" />
</g>
<g style="fill:#C2C200; fill-opacity:0.0; 
stroke:#C2C200; stroke-width:50000.000000; stroke-opacity:1; 
stroke-linecap:round; stroke-linejoin:round;">
<path d="M136101625 53945886
L136101624 68145886
" />
</g>
<g style="fill:#C2C200; fill-opacity:0.0; 
stroke:#C2C200; stroke-width:150000.000000; stroke-opacity:1; 
stroke-linecap:round; stroke-linejoin:round;">
<path d="M63481745 52085186
L67053446 38755413
" />
<path d="M90218347 5621933
L86646654 18951710
" />
<path d="M70571672 5534008
L66999963 18863783
" />
<path d="M176138032 93171544
L172566331 79841770
" />
<path d="M90375367 25127203
L103705141 28698909
" />
<path d="M85457810 43479798
L89029520 30150017
" />
<path d="M27853588 14275620
L24281885 27605397
" />
<path d="M9503365 87050802
L23303366 87050801
" />
<path d="M22936036 32628210
L19364331 45957989
" />
<path d="M32082369 22448584
L35654073 9118806
" />
<path d="M156562974 93707241
L152991273 80377461
" />
<path d="M78580796 83645756
L82152491 70315983
" />
<path d="M198222628 87219250
L194650926 73889469
" />
<path d="M44066281 31043105
L40494576 44372880
" />
</g>
<g style="fill:#C2C200; fill-opacity:0.0; 
stroke:#C2C200; stroke-width:50000.000000; stroke-opacity:1; 
stroke-linecap:round; stroke-linejoin:round;">
<path d="M1999998 525000
L1999997 94125004
" />
<path d="M153601624 68145886
L136101624 68145886
" />
</g>
<g style="fill:#C2C200; fill-opacity:0.0; 
stroke:#C2C200; stroke-width:150000.000000; stroke-opacity:1; 
stroke-linecap:round; stroke-linejoin:round;">
<path d="M201103991 30152300
L187774217 33723999
" />
<path d="M108080911 32459572
L121410691 36031277
" />
<path d="M32082369 22448584
L45412148 26020285
" />
<path d="M124982392 22701499
L111652612 19129795
" />
<path d="M39148722 49395699
L25818944 45823995
" />
<path d="M185896104 76270062
L189467805 89599843
" />
<path d="M48983850 12690510
L35654073 9118806
" />
<path d="M168722810 36033570
L182052598 32461865
" />
<path d="M270769166 45960270
L284098939 42388568
" />
<path d="M137142275 80375691
L133570573 93705464
" />
<g >
</g>
<g >
</g>
<g >
</g>
<g >
</g>
<g >
</g>
<g >
</g>
<g >
</g>
<g >
</g>
<g >
</g>
</g> 
</svg>
