G04 #@! TF.GenerationSoftware,KiCad,Pcbnew,7.0.5*
G04 #@! TF.CreationDate,2023-09-27T00:01:17-07:00*
G04 #@! TF.ProjectId,fox-ne,666f782d-6e65-42e6-9b69-6361645f7063,rev?*
G04 #@! TF.SameCoordinates,Original*
G04 #@! TF.FileFunction,Legend,Top*
G04 #@! TF.FilePolarity,Positive*
%FSLAX46Y46*%
G04 Gerber Fmt 4.6, Leading zero omitted, Abs format (unit mm)*
G04 Created by KiCad (PCBNEW 7.0.5) date 2023-09-27 00:01:17*
%MOMM*%
%LPD*%
G01*
G04 APERTURE LIST*
%ADD10C,0.500000*%
G04 APERTURE END LIST*
D10*
X153899775Y-72723342D02*
X153384450Y-72341119D01*
X152905929Y-71904039D01*
X152458186Y-71418685D01*
X152138953Y-71026950D01*
X151831104Y-70614541D01*
X151532096Y-70184236D01*
X151239389Y-69738811D01*
X150950442Y-69281045D01*
X150662712Y-68813713D01*
X150470315Y-68498217D01*
X142205334Y-80598925D02*
X142205334Y-80598925D01*
X127818204Y-61413598D02*
X127944361Y-60904993D01*
X128094810Y-60402191D01*
X128211257Y-60063357D01*
X144081557Y-75069273D02*
X144193146Y-75565929D01*
X144536079Y-75987268D01*
X145040698Y-76201652D01*
X145212975Y-76214851D01*
X135147757Y-81656278D02*
X134813498Y-81262159D01*
X134452261Y-80864265D01*
X134194537Y-80598863D01*
X122487233Y-74352860D02*
X123074287Y-74755240D01*
X123571969Y-75098434D01*
X124187624Y-75525128D01*
X124899762Y-76021564D01*
X125686896Y-76573983D01*
X126101870Y-76866886D01*
X126527535Y-77168625D01*
X126961205Y-77477481D01*
X127400193Y-77791732D01*
X127841813Y-78109661D01*
X128283379Y-78429546D01*
X128722204Y-78749668D01*
X129155604Y-79068307D01*
X129580892Y-79383743D01*
X129995381Y-79694256D01*
X130396386Y-79998127D01*
X131147197Y-80579061D01*
X131811838Y-81112787D01*
X132368819Y-81585546D01*
X132796652Y-81983579D01*
X122499997Y-72710000D02*
X121266569Y-73521936D01*
X142205334Y-80598925D02*
X141854564Y-80963936D01*
X141500422Y-81361259D01*
X141252034Y-81656338D01*
X142061526Y-83823938D02*
X142368453Y-83425825D01*
X142686595Y-83024521D01*
X143022671Y-82622729D01*
X143383399Y-82223152D01*
X143603184Y-81996857D01*
X137077894Y-83110618D02*
X137086632Y-82881354D01*
X139322032Y-83110613D02*
X139340907Y-83620554D01*
X139351670Y-83971376D01*
X132318243Y-75069271D02*
X132206631Y-74572583D01*
X131863835Y-74151254D01*
X131359668Y-73936890D01*
X131187610Y-73923695D01*
X138199936Y-84496448D02*
X137673944Y-84395043D01*
X137221774Y-84121713D01*
X137048268Y-83971376D01*
X150105851Y-67902033D02*
X150276159Y-67386703D01*
X150420738Y-66878308D01*
X150540898Y-66377429D01*
X150637946Y-65884647D01*
X150767954Y-64925692D01*
X150821239Y-64006090D01*
X150808281Y-63130486D01*
X150739560Y-62303524D01*
X150625554Y-61529851D01*
X150476742Y-60814110D01*
X150303604Y-60160947D01*
X150116619Y-59575008D01*
X149926265Y-59060936D01*
X149657341Y-58434744D01*
X149384792Y-57894714D01*
X149290738Y-57731184D01*
X145212979Y-73923692D02*
X144722569Y-74036646D01*
X144306402Y-74383824D01*
X144094598Y-74894796D01*
X144081557Y-75069273D01*
X137048268Y-83971376D02*
X137064819Y-83457439D01*
X137077894Y-83110618D01*
X155133331Y-73535218D02*
X153899775Y-72723342D01*
X130015115Y-63352336D02*
X129605220Y-63695562D01*
X129218324Y-64051128D01*
X128852631Y-64417836D01*
X128506342Y-64794488D01*
X128177661Y-65179887D01*
X127864790Y-65572834D01*
X127743667Y-65731859D01*
X134338341Y-83823934D02*
X134729393Y-84328960D01*
X135125553Y-84812712D01*
X135537359Y-85260992D01*
X135975350Y-85659604D01*
X136450064Y-85994349D01*
X136972042Y-86251029D01*
X137551821Y-86415447D01*
X138199942Y-86473406D01*
X131187610Y-73923695D02*
X131187610Y-73923695D01*
X132796683Y-81996858D02*
X133174482Y-82393957D01*
X133523808Y-82794812D01*
X133851379Y-83196722D01*
X134163914Y-83596988D01*
X134338341Y-83823934D01*
X148189812Y-60061983D02*
X148357921Y-60565067D01*
X148516952Y-61137280D01*
X148655708Y-61773373D01*
X148739736Y-62289205D01*
X148801339Y-62835802D01*
X148835795Y-63410949D01*
X148838381Y-64012432D01*
X148804374Y-64638035D01*
X148729051Y-65285545D01*
X148653551Y-65728295D01*
X126379082Y-71474902D02*
X126661675Y-71055272D01*
X126936215Y-70630128D01*
X127204521Y-70201623D01*
X127468412Y-69771910D01*
X127617924Y-69526648D01*
X145757818Y-62888519D02*
X148189812Y-60061983D01*
X138199942Y-86473406D02*
X138848055Y-86415444D01*
X139427829Y-86251023D01*
X139949804Y-85994342D01*
X140424516Y-85659598D01*
X140862506Y-85260988D01*
X141274312Y-84812710D01*
X141670472Y-84328960D01*
X142061526Y-83823938D01*
X145212979Y-73923692D02*
X145212979Y-73923692D01*
X148782076Y-69526649D02*
X149044254Y-69956055D01*
X149309812Y-70385513D01*
X149580568Y-70812855D01*
X149858343Y-71235913D01*
X150020923Y-71474903D01*
X130642037Y-62888654D02*
X130227128Y-63187534D01*
X130015115Y-63352336D01*
X130056192Y-75069265D02*
X130167780Y-75565920D01*
X130510715Y-75987260D01*
X131015337Y-76201647D01*
X131187616Y-76214846D01*
X138199928Y-60833170D02*
X137583607Y-60842535D01*
X136983089Y-60870681D01*
X136398161Y-60917671D01*
X135828610Y-60983571D01*
X135274221Y-61068445D01*
X134734783Y-61172359D01*
X134210080Y-61295377D01*
X133699900Y-61437564D01*
X133204030Y-61598985D01*
X132722255Y-61779706D01*
X132408798Y-61910941D01*
X128211257Y-60063357D02*
X130642037Y-62888654D01*
X131653547Y-72854315D02*
X132212230Y-72901391D01*
X132713183Y-73043513D01*
X133159741Y-73282014D01*
X133555238Y-73618229D01*
X132408798Y-61910941D02*
X127816891Y-56573910D01*
X148582913Y-56573974D02*
X143991073Y-61910943D01*
X133555238Y-73618229D02*
X133953551Y-74123694D01*
X134282275Y-74725407D01*
X134547665Y-75407819D01*
X134692495Y-75899916D01*
X134813809Y-76416362D01*
X134913460Y-76952552D01*
X134993303Y-77503877D01*
X135055189Y-78065731D01*
X135100973Y-78633508D01*
X135132506Y-79202600D01*
X135151644Y-79768401D01*
X135160238Y-80326304D01*
X135160141Y-80871703D01*
X135153208Y-81399990D01*
X135147757Y-81656278D01*
X139261109Y-80904526D02*
X139261109Y-80904526D01*
X150020923Y-71474903D02*
X149455500Y-71354941D01*
X148859596Y-71242999D01*
X148235038Y-71141534D01*
X147583654Y-71053004D01*
X147078609Y-70996575D01*
X146560273Y-70949842D01*
X146029415Y-70913842D01*
X145486808Y-70889612D01*
X144933221Y-70878190D01*
X144746386Y-70877409D01*
X148653551Y-65728295D02*
X148346821Y-65333253D01*
X148025027Y-64945280D01*
X147686379Y-64565564D01*
X147329089Y-64195291D01*
X146951366Y-63835648D01*
X146551423Y-63487820D01*
X146384824Y-63352264D01*
X131187616Y-76214846D02*
X131677553Y-76101884D01*
X132093468Y-75754690D01*
X132305202Y-75243731D01*
X132318243Y-75069271D01*
X127109059Y-57731126D02*
X126822480Y-58266925D01*
X126566758Y-58832258D01*
X126378651Y-59308661D01*
X126188670Y-59859255D01*
X126007294Y-60479394D01*
X125845004Y-61164433D01*
X125712278Y-61909726D01*
X125619596Y-62710627D01*
X125577438Y-63562490D01*
X125596284Y-64460671D01*
X125686614Y-65400522D01*
X125858906Y-66377399D01*
X125979064Y-66878270D01*
X126123642Y-67386655D01*
X126293951Y-67901974D01*
X148189812Y-60061983D02*
X148189812Y-60061983D01*
X134979626Y-72247355D02*
X134551754Y-71854115D01*
X134088836Y-71526811D01*
X133591580Y-71265736D01*
X133060696Y-71071182D01*
X132496893Y-70943444D01*
X131900881Y-70882814D01*
X131653617Y-70877418D01*
X139313292Y-82881363D02*
X139322032Y-83110613D01*
X145151928Y-64897640D02*
X145581741Y-65263035D01*
X145985920Y-65649935D01*
X146366931Y-66055808D01*
X146727237Y-66478119D01*
X147069302Y-66914337D01*
X147395591Y-67361929D01*
X147708568Y-67818360D01*
X148010696Y-68281100D01*
X148304440Y-68747615D01*
X148592264Y-69215371D01*
X148782076Y-69526649D01*
X149290738Y-57731184D02*
X148582913Y-56573974D01*
X127743667Y-65731859D02*
X127654498Y-65200703D01*
X127593429Y-64666643D01*
X127560478Y-64129897D01*
X127555665Y-63590686D01*
X127579011Y-63049231D01*
X127630536Y-62505751D01*
X127710260Y-61960466D01*
X127818204Y-61413598D01*
X131653617Y-70877418D02*
X131096540Y-70884338D01*
X130550187Y-70904412D01*
X130015326Y-70936602D01*
X129492730Y-70979871D01*
X128983169Y-71033183D01*
X128325362Y-71118093D01*
X127693927Y-71216554D01*
X127090690Y-71326107D01*
X126517479Y-71444294D01*
X126379082Y-71474902D01*
X146384824Y-63352264D02*
X145976834Y-63042525D01*
X145757818Y-62888519D01*
X127816891Y-56573910D02*
X127109059Y-57731126D01*
X127818204Y-61413598D02*
X127818204Y-61413598D01*
X139261109Y-80904526D02*
X137138823Y-80904528D01*
X135147757Y-81656278D02*
X135147757Y-81656278D01*
X134194537Y-80598863D02*
X133685562Y-80126188D01*
X133260391Y-79762348D01*
X132776362Y-79365776D01*
X132241901Y-78941826D01*
X131665430Y-78495851D01*
X131055373Y-78033204D01*
X130420154Y-77559241D01*
X129768197Y-77079313D01*
X129107926Y-76598776D01*
X128447764Y-76122983D01*
X127796135Y-75657287D01*
X127161463Y-75207043D01*
X126552172Y-74777604D01*
X125976685Y-74374324D01*
X125443425Y-74002557D01*
X125195264Y-73830164D01*
X127617924Y-69526648D02*
X127903168Y-69059452D01*
X128192691Y-68591817D01*
X128488955Y-68126274D01*
X128794425Y-67665354D01*
X129111566Y-67211590D01*
X129442840Y-66767514D01*
X129790712Y-66335656D01*
X130157646Y-65918549D01*
X130546107Y-65518725D01*
X130958557Y-65138715D01*
X131248069Y-64897633D01*
X139351670Y-83971376D02*
X138936380Y-84290088D01*
X138433427Y-84477739D01*
X138199936Y-84496448D01*
X137086632Y-82881354D02*
X139313292Y-82881363D01*
X125929464Y-68484866D02*
X125641147Y-68957047D01*
X125353299Y-69421509D01*
X125063378Y-69875475D01*
X124768847Y-70316169D01*
X124467165Y-70740815D01*
X124155793Y-71146637D01*
X123832193Y-71530858D01*
X123377314Y-72004754D01*
X122890161Y-72428733D01*
X122499997Y-72710000D01*
X131187610Y-73923695D02*
X130697205Y-74036651D01*
X130281042Y-74383826D01*
X130069236Y-74894792D01*
X130056192Y-75069265D01*
X153899775Y-72723342D02*
X153899775Y-72723342D01*
X150470315Y-68498217D02*
X150208929Y-68069956D01*
X150105851Y-67902033D01*
X126293951Y-67901974D02*
X126031481Y-68330777D01*
X125929484Y-68498149D01*
X143991073Y-61910943D02*
X143518576Y-61717304D01*
X143032129Y-61543014D01*
X142531517Y-61388007D01*
X142016526Y-61252218D01*
X141486941Y-61135579D01*
X140942546Y-61038024D01*
X140383129Y-60959489D01*
X139808473Y-60899905D01*
X139218364Y-60859208D01*
X138612588Y-60837331D01*
X138199928Y-60833170D01*
X145212975Y-76214851D02*
X145702915Y-76101885D01*
X146118833Y-75754687D01*
X146330566Y-75243725D01*
X146343605Y-75069264D01*
X151202290Y-73831749D02*
X150693224Y-74185814D01*
X150137783Y-74574026D01*
X149544383Y-74991035D01*
X148921440Y-75431493D01*
X148277370Y-75890050D01*
X147620590Y-76361358D01*
X146959516Y-76840067D01*
X146302565Y-77320828D01*
X145658153Y-77798293D01*
X145034696Y-78267112D01*
X144440610Y-78721936D01*
X143884313Y-79157417D01*
X143374221Y-79568206D01*
X142918749Y-79948952D01*
X142526314Y-80294308D01*
X142205334Y-80598925D01*
X125195264Y-73830164D02*
X125790485Y-73659472D01*
X126284371Y-73530873D01*
X126816302Y-73405107D01*
X127383901Y-73285170D01*
X127984789Y-73174062D01*
X128616588Y-73074778D01*
X129276918Y-72990317D01*
X129963402Y-72923675D01*
X130673661Y-72877851D01*
X131405317Y-72855841D01*
X131653547Y-72854315D01*
X142844557Y-73618310D02*
X143240044Y-73282061D01*
X143686588Y-73043559D01*
X144187542Y-72901450D01*
X144746258Y-72854378D01*
X138200000Y-62810000D02*
X138739463Y-62818011D01*
X139264041Y-62842083D01*
X139773925Y-62882274D01*
X140511617Y-62972907D01*
X141217318Y-63100130D01*
X141891671Y-63264135D01*
X142535320Y-63465117D01*
X143148908Y-63703269D01*
X143733077Y-63978786D01*
X144288471Y-64291860D01*
X144815732Y-64642686D01*
X145151928Y-64897640D01*
X143603184Y-81996857D02*
X144031006Y-81598822D01*
X144587978Y-81126061D01*
X145252612Y-80592332D01*
X146003418Y-80011394D01*
X146404420Y-79707522D01*
X146818907Y-79397007D01*
X147244193Y-79081569D01*
X147677591Y-78762929D01*
X148116416Y-78442805D01*
X148557981Y-78122919D01*
X148999601Y-77804989D01*
X149438589Y-77490736D01*
X149872258Y-77181880D01*
X150297924Y-76880140D01*
X150712900Y-76587236D01*
X151500037Y-76034818D01*
X152212180Y-75538384D01*
X152827840Y-75111692D01*
X153325530Y-74768503D01*
X153803861Y-74440382D01*
X153912610Y-74366144D01*
X138199936Y-84496448D02*
X138199936Y-84496448D01*
X141420369Y-72247357D02*
X141081194Y-72638527D01*
X140778332Y-73065903D01*
X140509837Y-73526010D01*
X140273762Y-74015371D01*
X140068161Y-74530512D01*
X139891087Y-75067957D01*
X139740593Y-75624231D01*
X139614734Y-76195857D01*
X139511562Y-76779361D01*
X139429132Y-77371268D01*
X139365496Y-77968101D01*
X139318708Y-78566385D01*
X139286822Y-79162645D01*
X139267891Y-79753405D01*
X139259969Y-80335191D01*
X139261109Y-80904526D01*
X131248069Y-64897633D02*
X131756933Y-64521550D01*
X132293500Y-64183341D01*
X132858415Y-63882813D01*
X133452320Y-63619774D01*
X134075857Y-63394030D01*
X134729670Y-63205389D01*
X135414401Y-63053660D01*
X136130694Y-62938648D01*
X136879192Y-62860163D01*
X137396399Y-62828036D01*
X137928396Y-62812001D01*
X138200000Y-62810000D01*
X144746258Y-72854378D02*
X145481868Y-72867814D01*
X146197594Y-72906112D01*
X146890985Y-72966268D01*
X147559585Y-73045273D01*
X148200943Y-73140123D01*
X148812604Y-73247809D01*
X149392116Y-73365326D01*
X149937025Y-73489669D01*
X150444878Y-73617829D01*
X151060132Y-73789452D01*
X151202290Y-73831749D01*
X146343605Y-75069264D02*
X146232033Y-74572581D01*
X145889250Y-74151255D01*
X145385054Y-73936889D01*
X145212979Y-73923692D01*
X141252034Y-81656338D02*
X141242377Y-81138335D01*
X141238631Y-80600915D01*
X141242649Y-80048687D01*
X141256283Y-79486256D01*
X141281387Y-78918231D01*
X141319815Y-78349217D01*
X141373418Y-77783823D01*
X141444051Y-77226655D01*
X141533567Y-76682320D01*
X141643818Y-76155426D01*
X141776659Y-75650580D01*
X141933941Y-75172388D01*
X142219748Y-74515156D01*
X142570974Y-73943812D01*
X142844557Y-73618310D01*
X144746386Y-70877409D02*
X144137709Y-70911118D01*
X143560945Y-71012051D01*
X143016807Y-71179914D01*
X142506006Y-71414416D01*
X142029256Y-71715264D01*
X141587270Y-72082166D01*
X141420369Y-72247357D01*
X153912610Y-74366144D02*
X155133331Y-73535218D01*
X121266569Y-73521936D02*
X122487233Y-74352860D01*
X137138823Y-80904528D02*
X137139962Y-80335204D01*
X137132038Y-79753428D01*
X137113105Y-79162676D01*
X137081216Y-78566423D01*
X137034426Y-77968143D01*
X136970788Y-77371314D01*
X136888355Y-76779410D01*
X136785183Y-76195906D01*
X136659325Y-75624278D01*
X136508834Y-75068002D01*
X136331764Y-74530553D01*
X136126170Y-74015407D01*
X135890105Y-73526038D01*
X135621624Y-73065923D01*
X135318779Y-72638537D01*
X134979626Y-72247355D01*
%LPC*%
%LPD*%
M02*
