G04 #@! TF.GenerationSoftware,KiCad,Pcbnew,7.0.5*
G04 #@! TF.CreationDate,2023-09-27T00:01:17-07:00*
G04 #@! TF.ProjectId,fox-ne,666f782d-6e65-42e6-9b69-6361645f7063,rev?*
G04 #@! TF.SameCoordinates,Original*
G04 #@! TF.FileFunction,Legend,Bot*
G04 #@! TF.FilePolarity,Positive*
%FSLAX46Y46*%
G04 Gerber Fmt 4.6, Leading zero omitted, Abs format (unit mm)*
G04 Created by KiCad (PCBNEW 7.0.5) date 2023-09-27 00:01:17*
%MOMM*%
%LPD*%
G01*
G04 APERTURE LIST*
%ADD10C,0.500000*%
G04 APERTURE END LIST*
D10*
X135129354Y-81641491D02*
X135129354Y-81641491D01*
X130037779Y-75054486D02*
X130149371Y-75551142D01*
X130492308Y-75972483D01*
X130996928Y-76186867D01*
X131169205Y-76200065D01*
X155114922Y-73520436D02*
X153881372Y-72708561D01*
X144727975Y-70862631D02*
X144119298Y-70896335D01*
X143542533Y-70997266D01*
X142998393Y-71165129D01*
X142487592Y-71399632D01*
X142010842Y-71700481D01*
X141568859Y-72067384D01*
X141401961Y-72232575D01*
X145194569Y-76200068D02*
X145684508Y-76087095D01*
X146100426Y-75739900D01*
X146312156Y-75228944D01*
X146325194Y-75054484D01*
X122481590Y-72695211D02*
X121248164Y-73507147D01*
X150451905Y-68483422D02*
X150190517Y-68055174D01*
X150087437Y-67887255D01*
X138181519Y-60818378D02*
X137565194Y-60827747D01*
X136964674Y-60855895D01*
X136379744Y-60902888D01*
X135810192Y-60968789D01*
X135255804Y-61053664D01*
X134716365Y-61157579D01*
X134191664Y-61280598D01*
X133681485Y-61422787D01*
X133185617Y-61584210D01*
X132703844Y-61764933D01*
X132390389Y-61896169D01*
X142826151Y-73603506D02*
X143221636Y-73267266D01*
X143668176Y-73028769D01*
X144169127Y-72886663D01*
X144727846Y-72839601D01*
X139242692Y-80889737D02*
X137120410Y-80889737D01*
X131169194Y-73908907D02*
X131169194Y-73908907D01*
X137059488Y-83095832D02*
X137068221Y-82866578D01*
X145739411Y-62873734D02*
X148171400Y-60047190D01*
X121248164Y-73507147D02*
X122468817Y-74338071D01*
X146366413Y-63337483D02*
X145958422Y-63027742D01*
X145739411Y-62873734D01*
X131635198Y-70862624D02*
X131078123Y-70869545D01*
X130531771Y-70889620D01*
X129996912Y-70921810D01*
X129474317Y-70965080D01*
X128964757Y-71018392D01*
X128306952Y-71103304D01*
X127675517Y-71201767D01*
X127072280Y-71311322D01*
X126499066Y-71429513D01*
X126360669Y-71460122D01*
X143972656Y-61896164D02*
X143500162Y-61702523D01*
X143013716Y-61528232D01*
X142513105Y-61373224D01*
X141998114Y-61237432D01*
X141468529Y-61120792D01*
X140924134Y-61023236D01*
X140364716Y-60944699D01*
X139790060Y-60885115D01*
X139199952Y-60844417D01*
X138594178Y-60822539D01*
X138181519Y-60818378D01*
X127799803Y-61398815D02*
X127925953Y-60890203D01*
X128076402Y-60387406D01*
X128192852Y-60048583D01*
X135129354Y-81641491D02*
X134795092Y-81247375D01*
X134433852Y-80849477D01*
X134176123Y-80584072D01*
X150002515Y-71460123D02*
X149437091Y-71340158D01*
X148841186Y-71228215D01*
X148216627Y-71126749D01*
X147565241Y-71038221D01*
X147060196Y-70981793D01*
X146541860Y-70935061D01*
X146011003Y-70899062D01*
X145468396Y-70874834D01*
X144914810Y-70863412D01*
X144727975Y-70862631D01*
X128192852Y-60048583D02*
X130623633Y-62873856D01*
X127090646Y-57716338D02*
X126804067Y-58252137D01*
X126548346Y-58817470D01*
X126360239Y-59293873D01*
X126170257Y-59844467D01*
X125988881Y-60464606D01*
X125826590Y-61149645D01*
X125693864Y-61894938D01*
X125601181Y-62695840D01*
X125559023Y-63547703D01*
X125577868Y-64445883D01*
X125668196Y-65385735D01*
X125840488Y-66362611D01*
X125960644Y-66863482D01*
X126105222Y-67371867D01*
X126275530Y-67887186D01*
X146325194Y-75054484D02*
X146213623Y-74557800D01*
X145870837Y-74136474D01*
X145366645Y-73922105D01*
X145194574Y-73908906D01*
X144727846Y-72839601D02*
X145463458Y-72853032D01*
X146179187Y-72891328D01*
X146872578Y-72951481D01*
X147541179Y-73030487D01*
X148182536Y-73125336D01*
X148794197Y-73233023D01*
X149373708Y-73350541D01*
X149918616Y-73474884D01*
X150426468Y-73603044D01*
X151041721Y-73774665D01*
X151183879Y-73816961D01*
X125911051Y-68470079D02*
X125622733Y-68942260D01*
X125334883Y-69406722D01*
X125044963Y-69860689D01*
X124750432Y-70301384D01*
X124448750Y-70726031D01*
X124137380Y-71131853D01*
X123813781Y-71516074D01*
X123358903Y-71989969D01*
X122871753Y-72413946D01*
X122481590Y-72695211D01*
X145133517Y-64882843D02*
X145563332Y-65248241D01*
X145967514Y-65635144D01*
X146348527Y-66041018D01*
X146708835Y-66463332D01*
X147050902Y-66899551D01*
X147377192Y-67347144D01*
X147690168Y-67803577D01*
X147992295Y-68266317D01*
X148286038Y-68732832D01*
X148573859Y-69200588D01*
X148763668Y-69511865D01*
X129996705Y-63337556D02*
X129586813Y-63680780D01*
X129199918Y-64036344D01*
X128834225Y-64403050D01*
X128487935Y-64779701D01*
X128159253Y-65165100D01*
X127846380Y-65558050D01*
X127725256Y-65717076D01*
X145194574Y-73908906D02*
X145194574Y-73908906D01*
X141401961Y-72232575D02*
X141062787Y-72623744D01*
X140759925Y-73051119D01*
X140491430Y-73511225D01*
X140255355Y-74000586D01*
X140049753Y-74515727D01*
X139872678Y-75053172D01*
X139722183Y-75609446D01*
X139596323Y-76181072D01*
X139493150Y-76764577D01*
X139410718Y-77356483D01*
X139347081Y-77953316D01*
X139300293Y-78551600D01*
X139268406Y-79147860D01*
X139249474Y-79738619D01*
X139241552Y-80320404D01*
X139242692Y-80889737D01*
X134961210Y-72232574D02*
X134533337Y-71839331D01*
X134070419Y-71512025D01*
X133573164Y-71250949D01*
X133042281Y-71056395D01*
X132478478Y-70928654D01*
X131882464Y-70868021D01*
X131635198Y-70862624D01*
X148171400Y-60047190D02*
X148339511Y-60550277D01*
X148498542Y-61122492D01*
X148637299Y-61758585D01*
X148721326Y-62274417D01*
X148782929Y-62821014D01*
X148817385Y-63396160D01*
X148819970Y-63997641D01*
X148785963Y-64623243D01*
X148710639Y-65270750D01*
X148635139Y-65713499D01*
X143584774Y-81982070D02*
X144012596Y-81584035D01*
X144569568Y-81111275D01*
X145234202Y-80577546D01*
X145985008Y-79996609D01*
X146386010Y-79692737D01*
X146800497Y-79382222D01*
X147225783Y-79066785D01*
X147659182Y-78748145D01*
X148098007Y-78428022D01*
X148539572Y-78108136D01*
X148981192Y-77790206D01*
X149420180Y-77475954D01*
X149853850Y-77167097D01*
X150279516Y-76865358D01*
X150694492Y-76572454D01*
X151481629Y-76020035D01*
X152193772Y-75523600D01*
X152809432Y-75096908D01*
X153307121Y-74753717D01*
X153785452Y-74425594D01*
X153894199Y-74351353D01*
X142043111Y-83809148D02*
X142350036Y-83411034D01*
X142668180Y-83009731D01*
X143004258Y-82607941D01*
X143364988Y-82208365D01*
X143584774Y-81982070D01*
X138181529Y-84481653D02*
X137655529Y-84380261D01*
X137203359Y-84106933D01*
X137029855Y-83956599D01*
X149272330Y-57716407D02*
X148564503Y-56559180D01*
X134319927Y-83809162D02*
X134710981Y-84314181D01*
X135107142Y-84797928D01*
X135518947Y-85246205D01*
X135956937Y-85644815D01*
X136431650Y-85979559D01*
X136953626Y-86236239D01*
X137533404Y-86400657D01*
X138181523Y-86458617D01*
X126360669Y-71460122D02*
X126643263Y-71040490D01*
X126917802Y-70615342D01*
X127186106Y-70186834D01*
X127449994Y-69757122D01*
X127599505Y-69511862D01*
X137029855Y-83956599D02*
X137046410Y-83442653D01*
X137059488Y-83095832D01*
X148763668Y-69511865D02*
X149025846Y-69941272D01*
X149291404Y-70370730D01*
X149562162Y-70798072D01*
X149839936Y-71221131D01*
X150002515Y-71460123D01*
X127798477Y-56559118D02*
X127090646Y-57716338D01*
X138181588Y-62795220D02*
X138721049Y-62803229D01*
X139245626Y-62827300D01*
X139755509Y-62867490D01*
X140493200Y-62958122D01*
X141198900Y-63085345D01*
X141873254Y-63249350D01*
X142516904Y-63450331D01*
X143130493Y-63688483D01*
X143714663Y-63963998D01*
X144270058Y-64277070D01*
X144797320Y-64627893D01*
X145133517Y-64882843D01*
X144063140Y-75054483D02*
X144174731Y-75551141D01*
X144517668Y-75972480D01*
X145022291Y-76186867D01*
X145194569Y-76200068D01*
X151183879Y-73816961D02*
X150674815Y-74171027D01*
X150119375Y-74559241D01*
X149525976Y-74976251D01*
X148903033Y-75416710D01*
X148258964Y-75875268D01*
X147602184Y-76346577D01*
X146941110Y-76825287D01*
X146284159Y-77306049D01*
X145639746Y-77783514D01*
X145016289Y-78252334D01*
X144422203Y-78707159D01*
X143865904Y-79142640D01*
X143355810Y-79553428D01*
X142900337Y-79934175D01*
X142507900Y-80279531D01*
X142186917Y-80584148D01*
X137068221Y-82866578D02*
X139294890Y-82866579D01*
X130623633Y-62873856D02*
X130208718Y-63172755D01*
X129996705Y-63337556D01*
X132299829Y-75054483D02*
X132188216Y-74557801D01*
X131845422Y-74136472D01*
X131341253Y-73922104D01*
X131169194Y-73908907D01*
X127599505Y-69511862D02*
X127884752Y-69044667D01*
X128174276Y-68577032D01*
X128470542Y-68111490D01*
X128776014Y-67650572D01*
X129093155Y-67196809D01*
X129424430Y-66752732D01*
X129772302Y-66320874D01*
X130139236Y-65903767D01*
X130527696Y-65503941D01*
X130940146Y-65123929D01*
X131229658Y-64882845D01*
X141233626Y-81641555D02*
X141223969Y-81123550D01*
X141220224Y-80586130D01*
X141224241Y-80033901D01*
X141237876Y-79471469D01*
X141262980Y-78903443D01*
X141301408Y-78334428D01*
X141355012Y-77769033D01*
X141425645Y-77211864D01*
X141515161Y-76667528D01*
X141625412Y-76140633D01*
X141758253Y-75635785D01*
X141915535Y-75157592D01*
X142201342Y-74500357D01*
X142552568Y-73929010D01*
X142826151Y-73603506D01*
X125176860Y-73815371D02*
X125772082Y-73644682D01*
X126265969Y-73516084D01*
X126797900Y-73390319D01*
X127365499Y-73270384D01*
X127966387Y-73159277D01*
X128598184Y-73059993D01*
X129258514Y-72975533D01*
X129944998Y-72908891D01*
X130655257Y-72863067D01*
X131386913Y-72841057D01*
X131635143Y-72839531D01*
X126275530Y-67887186D02*
X126013068Y-68315992D01*
X125911073Y-68483359D01*
X132390389Y-61896169D02*
X127798477Y-56559118D01*
X142186917Y-80584148D02*
X142186917Y-80584148D01*
X139294890Y-82866579D02*
X139303619Y-83095829D01*
X139303619Y-83095829D02*
X139322496Y-83605773D01*
X139333256Y-83956591D01*
X139333256Y-83956591D02*
X138917970Y-84275301D01*
X138415019Y-84462953D01*
X138181529Y-84481653D01*
X127799803Y-61398815D02*
X127799803Y-61398815D01*
X131169205Y-76200065D02*
X131659140Y-76087097D01*
X132075055Y-75739902D01*
X132286789Y-75228943D01*
X132299829Y-75054483D01*
X150087437Y-67887255D02*
X150257745Y-67371924D01*
X150402324Y-66863529D01*
X150522483Y-66362650D01*
X150619532Y-65869866D01*
X150749539Y-64910911D01*
X150802824Y-63991308D01*
X150789866Y-63115703D01*
X150721145Y-62288741D01*
X150607139Y-61515067D01*
X150458328Y-60799326D01*
X150285190Y-60146164D01*
X150098204Y-59560224D01*
X149907851Y-59046154D01*
X149638929Y-58419962D01*
X149366382Y-57879934D01*
X149272330Y-57716407D01*
X131169194Y-73908907D02*
X130678792Y-74021862D01*
X130262630Y-74369039D01*
X130050823Y-74880010D01*
X130037779Y-75054486D01*
X127725256Y-65717076D02*
X127636088Y-65185920D01*
X127575019Y-64651858D01*
X127542068Y-64115112D01*
X127537256Y-63575901D01*
X127560603Y-63034446D01*
X127612130Y-62490966D01*
X127691856Y-61945682D01*
X127799803Y-61398815D01*
X122468817Y-74338071D02*
X123055870Y-74740456D01*
X123553552Y-75083651D01*
X124169207Y-75510346D01*
X124881346Y-76006782D01*
X125668480Y-76559201D01*
X126083455Y-76852104D01*
X126509121Y-77153843D01*
X126942790Y-77462699D01*
X127381778Y-77776950D01*
X127823399Y-78094879D01*
X128264965Y-78414764D01*
X128703791Y-78734886D01*
X129137191Y-79053524D01*
X129562479Y-79368960D01*
X129976969Y-79679474D01*
X130377974Y-79983344D01*
X131128786Y-80564279D01*
X131793428Y-81098005D01*
X132350409Y-81570765D01*
X132778242Y-81968799D01*
X153881372Y-72708561D02*
X153366048Y-72326340D01*
X152887526Y-71889260D01*
X152439782Y-71403906D01*
X152120549Y-71012169D01*
X151812698Y-70599758D01*
X151513690Y-70169451D01*
X151220982Y-69724023D01*
X150932033Y-69266254D01*
X150644303Y-68798920D01*
X150451905Y-68483422D01*
X139242692Y-80889737D02*
X139242692Y-80889737D01*
X153894199Y-74351353D02*
X155114922Y-73520436D01*
X145194574Y-73908906D02*
X144704160Y-74021861D01*
X144287993Y-74369039D01*
X144076184Y-74880008D01*
X144063140Y-75054483D01*
X131229658Y-64882845D02*
X131738523Y-64506762D01*
X132275092Y-64168554D01*
X132840007Y-63868026D01*
X133433912Y-63604987D01*
X134057449Y-63379244D01*
X134711262Y-63190605D01*
X135395993Y-63038876D01*
X136112285Y-62923866D01*
X136860782Y-62845381D01*
X137377988Y-62813256D01*
X137909984Y-62797221D01*
X138181588Y-62795220D01*
X132778268Y-81982078D02*
X133156070Y-82379172D01*
X133505398Y-82780028D01*
X133832969Y-83181941D01*
X134145502Y-83582212D01*
X134319927Y-83809162D01*
X148171400Y-60047190D02*
X148171400Y-60047190D01*
X133536826Y-73603444D02*
X133935138Y-74108909D01*
X134263862Y-74710622D01*
X134529252Y-75393035D01*
X134674081Y-75885131D01*
X134795395Y-76401577D01*
X134895047Y-76937766D01*
X134974890Y-77489090D01*
X135036777Y-78050944D01*
X135082561Y-78618721D01*
X135114096Y-79187813D01*
X135133234Y-79753614D01*
X135141830Y-80311517D01*
X135141735Y-80856916D01*
X135134804Y-81385203D01*
X135129354Y-81641491D01*
X134176123Y-80584072D02*
X133667150Y-80111396D01*
X133241979Y-79747556D01*
X132757951Y-79350983D01*
X132223491Y-78927033D01*
X131647021Y-78481058D01*
X131036965Y-78018411D01*
X130401747Y-77544448D01*
X129749792Y-77064521D01*
X129089521Y-76583984D01*
X128429360Y-76108191D01*
X127777732Y-75642495D01*
X127143060Y-75192251D01*
X126533768Y-74762812D01*
X125958281Y-74359532D01*
X125425021Y-73987764D01*
X125176860Y-73815371D01*
X131635143Y-72839531D02*
X132193824Y-72886607D01*
X132694776Y-73028729D01*
X133141331Y-73267230D01*
X133536826Y-73603444D01*
X153881372Y-72708561D02*
X153881372Y-72708561D01*
X148635139Y-65713499D02*
X148328409Y-65318461D01*
X148006615Y-64930493D01*
X147667967Y-64550780D01*
X147310677Y-64180509D01*
X146932954Y-63820866D01*
X146533012Y-63473039D01*
X146366413Y-63337483D01*
X137120410Y-80889737D02*
X137121550Y-80320414D01*
X137113627Y-79738640D01*
X137094694Y-79147889D01*
X137062806Y-78551636D01*
X137016016Y-77953358D01*
X136952377Y-77356529D01*
X136869945Y-76764626D01*
X136766772Y-76181123D01*
X136640913Y-75609496D01*
X136490422Y-75053220D01*
X136313352Y-74515771D01*
X136107757Y-74000625D01*
X135871692Y-73511257D01*
X135603210Y-73051142D01*
X135300364Y-72623756D01*
X134961210Y-72232574D01*
X138181523Y-86458617D02*
X138829640Y-86400657D01*
X139409416Y-86236239D01*
X139931392Y-85979559D01*
X140406105Y-85644815D01*
X140844094Y-85246204D01*
X141255899Y-84797925D01*
X141652058Y-84314173D01*
X142043111Y-83809148D01*
X138181529Y-84481653D02*
X138181529Y-84481653D01*
X142186917Y-80584148D02*
X141836152Y-80949157D01*
X141482012Y-81346477D01*
X141233626Y-81641555D01*
X148564503Y-56559180D02*
X143972656Y-61896164D01*
%LPC*%
%LPD*%
M02*
