G04 #@! TF.GenerationSoftware,KiCad,Pcbnew,7.0.5*
G04 #@! TF.CreationDate,2023-09-27T00:01:17-07:00*
G04 #@! TF.ProjectId,fox-ne,666f782d-6e65-42e6-9b69-6361645f7063,rev?*
G04 #@! TF.SameCoordinates,Original*
G04 #@! TF.FileFunction,Profile,NP*
%FSLAX46Y46*%
G04 Gerber Fmt 4.6, Leading zero omitted, Abs format (unit mm)*
G04 Created by KiCad (PCBNEW 7.0.5) date 2023-09-27 00:01:17*
%MOMM*%
%LPD*%
G01*
G04 APERTURE LIST*
G04 #@! TA.AperFunction,Profile*
%ADD10C,0.050000*%
G04 #@! TD*
G04 APERTURE END LIST*
D10*
X250820261Y-44400762D02*
X247196781Y-30877801D01*
X12081680Y-67959647D02*
X15705148Y-54436682D01*
X212085993Y-27344760D02*
X215709473Y-40867722D01*
X200980332Y-59308237D02*
X214503322Y-55684769D01*
X188839432Y-87408034D02*
X202362392Y-83784566D01*
X167510401Y-81217435D02*
X171133881Y-94740394D01*
X205962269Y-23809225D02*
X192439310Y-27432692D01*
X-5353365Y-116004187D02*
G75*
G03*
X-4853366Y-116504187I500000J0D01*
G01*
X276868051Y-64338462D02*
X273244602Y-50815500D01*
X104228539Y-40886504D02*
X100605075Y-54409466D01*
X239067562Y-73949429D02*
X235444081Y-60426468D01*
X225608968Y-23721293D02*
X212085993Y-27344760D01*
X65841029Y-37329901D02*
X79364003Y-40953367D01*
X247132417Y-84729415D02*
X260655374Y-81105946D01*
X74446438Y-59305956D02*
X78069910Y-45782997D01*
X198738912Y-70261604D02*
X185215953Y-73885068D01*
X260655374Y-81105946D02*
X257031925Y-67582985D01*
X181033360Y-77593971D02*
X167510401Y-81217435D01*
X86587376Y-87405744D02*
X90210849Y-73882780D01*
X116388420Y-98560690D02*
X129911387Y-102184163D01*
X90210849Y-73882780D02*
X76687882Y-70259312D01*
X126287922Y-115707121D02*
X112764948Y-112083657D01*
X100045954Y-37177602D02*
X86522996Y-33554137D01*
X16050004Y-109029984D02*
X2050003Y-109029985D01*
X187175090Y-95697941D02*
X200698049Y-92074477D01*
X-4853364Y-21904183D02*
X279146636Y-21904184D01*
X255737833Y-62753351D02*
X252114353Y-49230391D01*
X192527246Y-47079379D02*
X188903797Y-33556414D01*
X193821340Y-51909009D02*
X180298381Y-55532471D01*
X219420862Y-74037362D02*
X215797399Y-60514401D01*
X7099738Y-32460625D02*
X3476273Y-45983586D01*
X233673822Y-34501268D02*
X237297302Y-48024229D01*
X263345093Y-67961928D02*
X276868051Y-64338462D01*
X184656840Y-91116936D02*
X181033360Y-77593971D01*
X95128404Y-55530190D02*
X81605447Y-51906726D01*
X171133881Y-94740394D02*
X184656840Y-91116936D01*
X235444081Y-60426468D02*
X221921121Y-64049936D01*
X117751504Y-44509971D02*
X104228539Y-40886504D01*
X73064418Y-83782277D02*
X86587376Y-87405744D01*
X279646616Y-22404183D02*
G75*
G03*
X279146636Y-21904184I-500016J-17D01*
G01*
X63340785Y-27342480D02*
X49817818Y-23719013D01*
X54799752Y-59218037D02*
X58423219Y-45695073D01*
X162661859Y-112085427D02*
X149138901Y-115708899D01*
X197444804Y-65431969D02*
X193821340Y-51909009D01*
X268327029Y-32462898D02*
X254804072Y-36086363D01*
X204321512Y-105597435D02*
X190798555Y-109220908D01*
X110336383Y-101748152D02*
X106712910Y-115271117D01*
X49817818Y-23719013D02*
X46194351Y-37241977D01*
X-4853364Y-21904183D02*
G75*
G03*
X-5353364Y-22404183I1J-500001D01*
G01*
X243508953Y-71206449D02*
X247132417Y-84729415D01*
X36835394Y-52851577D02*
X23312431Y-49228109D01*
X230526524Y-42073887D02*
X217003567Y-45697356D01*
X14771404Y-81103669D02*
X28294365Y-84727133D01*
X161298737Y-58035227D02*
X174821710Y-54411759D01*
X36359230Y-73947164D02*
X49882191Y-77570623D01*
X209585750Y-37332188D02*
X205962269Y-23809225D01*
X129911387Y-102184163D02*
X126287922Y-115707121D01*
X165090495Y-101650242D02*
X178613453Y-98026770D01*
X259721644Y-54438966D02*
X263345093Y-67961928D01*
X2182186Y-50813216D02*
X-1441279Y-64336178D01*
X171198246Y-40888797D02*
X157675272Y-44512261D01*
X77981973Y-65429692D02*
X91504940Y-69053153D01*
X44900258Y-42071606D02*
X41276793Y-55594567D01*
X56005909Y-74035080D02*
X69528873Y-77658550D01*
X197356883Y-45785273D02*
X200980332Y-59308237D01*
X258540017Y-109459984D02*
X258540017Y-95459982D01*
X94393418Y-77591687D02*
X90769954Y-91114647D01*
X46194351Y-37241977D02*
X59717312Y-40865440D01*
X19688965Y-62751069D02*
X33211925Y-66374537D01*
X2050004Y-95029981D02*
X16050003Y-95029981D01*
X41752962Y-34498982D02*
X28230000Y-30875515D01*
X109210491Y-76385540D02*
X112833955Y-62862576D01*
X229232432Y-37244255D02*
X225608968Y-23721293D01*
X166216310Y-76387811D02*
X179739267Y-72764351D01*
X179739267Y-72764351D02*
X176115803Y-59241385D01*
X272540004Y-109459985D02*
X258540017Y-109459984D01*
X157675272Y-44512261D02*
X161298737Y-58035227D01*
X60923480Y-55682492D02*
X74446438Y-59305956D01*
X114128040Y-58032934D02*
X117751504Y-44509971D01*
X202362392Y-83784566D02*
X198738912Y-70261604D01*
X96813417Y-98124685D02*
X110336383Y-101748152D01*
X28294365Y-84727133D02*
X31917835Y-71204171D01*
X82987459Y-27430405D02*
X69464502Y-23806939D01*
X183921844Y-69055438D02*
X197444804Y-65431969D01*
X20622700Y-36084092D02*
X7099738Y-32460625D01*
X162592845Y-62864854D02*
X166216310Y-76387811D01*
X78069910Y-45782997D02*
X64546945Y-42159527D01*
X247196781Y-30877801D02*
X233673822Y-34501268D01*
X59717312Y-40865440D02*
X63340785Y-27342480D01*
X145515437Y-102185933D02*
X159038395Y-98562469D01*
X279646636Y-22404183D02*
X279646634Y-116004177D01*
X257031925Y-67582985D02*
X243508953Y-71206449D01*
X174821710Y-54411759D02*
X171198246Y-40888797D01*
X76687882Y-70259312D02*
X73064418Y-83782277D01*
X58423219Y-45695073D02*
X44900258Y-42071606D01*
X112764948Y-112083657D02*
X116388420Y-98560690D01*
X49882191Y-77570623D02*
X53505656Y-64047665D01*
X214503322Y-55684769D02*
X210879842Y-42161809D01*
X279146633Y-116504234D02*
G75*
G03*
X279646634Y-116004177I-33J500034D01*
G01*
X202274423Y-64137864D02*
X205897904Y-77660830D01*
X179004289Y-50702845D02*
X192527246Y-47079379D01*
X33211925Y-66374537D02*
X36835394Y-52851577D01*
X-4853366Y-116504187D02*
X279146633Y-116504177D01*
X24606533Y-44398478D02*
X38129497Y-48021942D01*
X90769954Y-91114647D02*
X104292920Y-94738111D01*
X18394871Y-67580704D02*
X14771404Y-81103669D01*
X217003567Y-45697356D02*
X220627030Y-59220317D01*
X196062791Y-40955652D02*
X209585750Y-37332188D01*
X215709473Y-40867722D02*
X229232432Y-37244255D01*
X180298381Y-55532471D02*
X183921844Y-69055438D01*
X205897904Y-77660830D02*
X219420862Y-74037362D01*
X112833955Y-62862576D02*
X99310998Y-59239108D01*
X252114353Y-49230391D02*
X238591396Y-52853857D01*
X271950510Y-45985857D02*
X268327029Y-32462898D01*
X84627918Y-109219123D02*
X71104960Y-105595650D01*
X254804072Y-36086363D02*
X258427551Y-49609325D01*
X-1441279Y-64336178D02*
X12081680Y-67959647D01*
X220627030Y-59220317D02*
X234149988Y-55596856D01*
X86522996Y-33554137D02*
X82899531Y-47077097D01*
X149138901Y-115708899D02*
X145515437Y-102185933D01*
X81605447Y-51906726D02*
X77981973Y-65429692D01*
X16050003Y-95029981D02*
X16050004Y-109029984D01*
X74728418Y-92072692D02*
X88251391Y-95696156D01*
X234149988Y-55596856D02*
X230526524Y-42073887D01*
X258540017Y-95459982D02*
X272540004Y-95459981D01*
X178613453Y-98026770D02*
X182236917Y-111549737D01*
X71104960Y-105595650D02*
X74728418Y-92072692D01*
X272540004Y-95459981D02*
X272540004Y-109459985D01*
X79364003Y-40953367D02*
X82987459Y-27430405D01*
X100605075Y-54409466D02*
X114128040Y-58032934D01*
X93189952Y-111647644D02*
X96813417Y-98124685D01*
X107916392Y-81215153D02*
X94393418Y-77591687D01*
X182236917Y-111549737D02*
X168713959Y-115173201D01*
X96422490Y-50700567D02*
X100045954Y-37177602D01*
X53505656Y-64047665D02*
X39982689Y-60424196D01*
X3476273Y-45983586D02*
X16999234Y-49607055D01*
X15705148Y-54436682D02*
X2182186Y-50813216D01*
X215797399Y-60514401D02*
X202274423Y-64137864D01*
X210879842Y-42161809D02*
X197356883Y-45785273D01*
X273244602Y-50815500D02*
X259721644Y-54438966D01*
X185215953Y-73885068D02*
X188839432Y-87408034D01*
X176115803Y-59241385D02*
X162592845Y-62864854D01*
X23312431Y-49228109D02*
X19688965Y-62751069D01*
X16999234Y-49607055D02*
X20622700Y-36084092D01*
X258427551Y-49609325D02*
X271950510Y-45985857D01*
X221921121Y-64049936D02*
X225544601Y-77572898D01*
X69528873Y-77658550D02*
X73152337Y-64135583D01*
X73152337Y-64135583D02*
X59629373Y-60512122D01*
X28230000Y-30875515D02*
X24606533Y-44398478D01*
X88251391Y-95696156D02*
X84627918Y-109219123D01*
X106712910Y-115271117D02*
X93189952Y-111647644D01*
X82899531Y-47077097D02*
X96422490Y-50700567D01*
X237297302Y-48024229D02*
X250820261Y-44400762D01*
X69464502Y-23806939D02*
X65841029Y-37329901D01*
X104292920Y-94738111D02*
X107916392Y-81215153D01*
X2050003Y-109029985D02*
X2050004Y-95029981D01*
X31917835Y-71204171D02*
X18394871Y-67580704D01*
X188903797Y-33556414D02*
X175380840Y-37179881D01*
X168713959Y-115173201D02*
X165090495Y-101650242D01*
X95687525Y-72762070D02*
X109210491Y-76385540D01*
X225544601Y-77572898D02*
X239067562Y-73949429D01*
X99310998Y-59239108D02*
X95687525Y-72762070D01*
X64546945Y-42159527D02*
X60923480Y-55682492D01*
X39982689Y-60424196D02*
X36359230Y-73947164D01*
X38129497Y-48021942D02*
X41752962Y-34498982D01*
X242214859Y-66376818D02*
X255737833Y-62753351D01*
X192439310Y-27432692D02*
X196062791Y-40955652D01*
X175380840Y-37179881D02*
X179004289Y-50702845D01*
X-5353364Y-22404183D02*
X-5353365Y-116004187D01*
X200698049Y-92074477D02*
X204321512Y-105597435D01*
X159038395Y-98562469D02*
X162661859Y-112085427D01*
X91504940Y-69053153D02*
X95128404Y-55530190D01*
X190798555Y-109220908D02*
X187175090Y-95697941D01*
X59629373Y-60512122D02*
X56005909Y-74035080D01*
X41276793Y-55594567D02*
X54799752Y-59218037D01*
X238591396Y-52853857D02*
X242214859Y-66376818D01*
M02*
