%TF.GenerationSoftware,KiCad,Pcbnew,7.0.5*%
%TF.CreationDate,2023-09-27T00:01:30-07:00*%
%TF.ProjectId,fox-ne,666f782d-6e65-42e6-9b69-6361645f7063,rev?*%
%TF.SameCoordinates,Original*%
%TF.FileFunction,Drillmap*%
%TF.FilePolarity,Positive*%
%FSLAX45Y45*%
G04 Gerber Fmt 4.5, Leading zero omitted, Abs format (unit mm)*
G04 Created by KiCad (PCBNEW 7.0.5) date 2023-09-27 00:01:30*
%MOMM*%
%LPD*%
G01*
G04 APERTURE LIST*
%ADD10C,0.050000*%
%ADD11C,0.200000*%
G04 APERTURE END LIST*
D10*
X25082026Y-4440076D02*
X24719678Y-3087780D01*
X1208168Y-6795965D02*
X1570515Y-5443668D01*
X21208599Y-2734476D02*
X21570947Y-4086772D01*
X20098033Y-5930824D02*
X21450332Y-5568477D01*
X18883943Y-8740803D02*
X20236239Y-8378457D01*
X16751040Y-8121743D02*
X17113388Y-9474039D01*
X20596227Y-2380923D02*
X19243931Y-2743269D01*
X-535337Y-11600419D02*
G75*
G03*
X-485337Y-11650419I50000J0D01*
G01*
X27686805Y-6433846D02*
X27324460Y-5081550D01*
X10422854Y-4088650D02*
X10060508Y-5440947D01*
X23906756Y-7394943D02*
X23544408Y-6042647D01*
X22560897Y-2372129D02*
X21208599Y-2734476D01*
X6584103Y-3732990D02*
X7936400Y-4095337D01*
X24713242Y-8472942D02*
X26065537Y-8110595D01*
X7444644Y-5930596D02*
X7806991Y-4578300D01*
X19873891Y-7026160D02*
X18521595Y-7388507D01*
X26065537Y-8110595D02*
X25703192Y-6758298D01*
X18103336Y-7759397D02*
X16751040Y-8121743D01*
X8658738Y-8740574D02*
X9021085Y-7388278D01*
X11638842Y-9856069D02*
X12991139Y-10218416D01*
X9021085Y-7388278D02*
X7668788Y-7025931D01*
X12628792Y-11570712D02*
X11276495Y-11208366D01*
X10004595Y-3717760D02*
X8652300Y-3355414D01*
X1605000Y-10902998D02*
X205000Y-10902999D01*
X18717509Y-9569794D02*
X20069805Y-9207448D01*
X-485336Y-2190418D02*
X27914664Y-2190418D01*
X25573783Y-6275335D02*
X25211435Y-4923039D01*
X19252725Y-4707938D02*
X18890380Y-3355641D01*
X19382134Y-5190901D02*
X18029838Y-5553247D01*
X21942086Y-7403736D02*
X21579740Y-6051440D01*
X709974Y-3246062D02*
X347627Y-4598359D01*
X23367382Y-3450127D02*
X23729730Y-4802423D01*
X26334509Y-6796193D02*
X27686805Y-6433846D01*
X18465684Y-9111694D02*
X18103336Y-7759397D01*
X9512840Y-5553019D02*
X8160545Y-5190673D01*
X17113388Y-9474039D02*
X18465684Y-9111694D01*
X23544408Y-6042647D02*
X22192112Y-6404994D01*
X11775150Y-4450997D02*
X10422854Y-4088650D01*
X7306442Y-8378228D02*
X8658738Y-8740574D01*
X27964662Y-2240418D02*
G75*
G03*
X27914664Y-2190418I-50002J-2D01*
G01*
X6334078Y-2734248D02*
X4981782Y-2371901D01*
X5479975Y-5921804D02*
X5842322Y-4569507D01*
X16266186Y-11208543D02*
X14913890Y-11570890D01*
X19744480Y-6543197D02*
X19382134Y-5190901D01*
X26832703Y-3246290D02*
X25480407Y-3608636D01*
X20432151Y-10559744D02*
X19079856Y-10922091D01*
X11033638Y-10174815D02*
X10671291Y-11527112D01*
X4981782Y-2371901D02*
X4619435Y-3724198D01*
X-485336Y-2190418D02*
G75*
G03*
X-535336Y-2240418I0J-50000D01*
G01*
X24350895Y-7120645D02*
X24713242Y-8472942D01*
X3683539Y-5285158D02*
X2331243Y-4922811D01*
X23052652Y-4207389D02*
X21700357Y-4569736D01*
X1477140Y-8110367D02*
X2829436Y-8472713D01*
X16129874Y-5803523D02*
X17482171Y-5441176D01*
X3635923Y-7394716D02*
X4988219Y-7757062D01*
X20958575Y-3733219D02*
X20596227Y-2380923D01*
X12991139Y-10218416D02*
X12628792Y-11570712D01*
X16509049Y-10165024D02*
X17861345Y-9802677D01*
X25972164Y-5443897D02*
X26334509Y-6796193D01*
X218219Y-5081322D02*
X-144128Y-6433618D01*
X17119825Y-4088880D02*
X15767527Y-4451226D01*
X7798197Y-6542969D02*
X9150494Y-6905315D01*
X4490026Y-4207161D02*
X4127679Y-5559457D01*
X5600591Y-7403508D02*
X6952887Y-7765855D01*
X19735688Y-4578527D02*
X20098033Y-5930824D01*
X25854002Y-10945998D02*
X25854002Y-9545998D01*
X9439342Y-7759169D02*
X9076995Y-9111465D01*
X4619435Y-3724198D02*
X5971731Y-4086544D01*
X1968896Y-6275107D02*
X3321192Y-6637454D01*
X205000Y-9502998D02*
X1605000Y-9502998D01*
X4175296Y-3449898D02*
X2823000Y-3087551D01*
X10921049Y-7638554D02*
X11283395Y-6286258D01*
X22923243Y-3724425D02*
X22560897Y-2372129D01*
X16621631Y-7638781D02*
X17973927Y-7276435D01*
X17973927Y-7276435D02*
X17611580Y-5924138D01*
X27254000Y-10945999D02*
X25854002Y-10945998D01*
X15767527Y-4451226D02*
X16129874Y-5803523D01*
X6092348Y-5568249D02*
X7444644Y-5930596D01*
X11412804Y-5803293D02*
X11775150Y-4450997D01*
X20236239Y-8378457D02*
X19873891Y-7026160D01*
X9681342Y-9812469D02*
X11033638Y-10174815D01*
X2829436Y-8472713D02*
X3191783Y-7120417D01*
X8298746Y-2743041D02*
X6946450Y-2380694D01*
X18392184Y-6905544D02*
X19744480Y-6543197D01*
X2062270Y-3608409D02*
X709974Y-3246062D01*
X16259284Y-6286485D02*
X16621631Y-7638781D01*
X7806991Y-4578300D02*
X6454694Y-4215953D01*
X24719678Y-3087780D02*
X23367382Y-3450127D01*
X5971731Y-4086544D02*
X6334078Y-2734248D01*
X14551544Y-10218593D02*
X15903839Y-9856247D01*
X27964664Y-2240418D02*
X27964663Y-11600418D01*
X25703192Y-6758298D02*
X24350895Y-7120645D01*
X17482171Y-5441176D02*
X17119825Y-4088880D01*
X7668788Y-7025931D02*
X7306442Y-8378228D01*
X5842322Y-4569507D02*
X4490026Y-4207161D01*
X11276495Y-11208366D02*
X11638842Y-9856069D01*
X4988219Y-7757062D02*
X5350566Y-6404766D01*
X21450332Y-5568477D02*
X21087984Y-4216181D01*
X27914663Y-11650423D02*
G75*
G03*
X27964663Y-11600418I-3J50003D01*
G01*
X20227442Y-6413786D02*
X20589790Y-7766083D01*
X17900429Y-5070285D02*
X19252725Y-4707938D01*
X3321192Y-6637454D02*
X3683539Y-5285158D01*
X-485337Y-11650419D02*
X27914663Y-11650418D01*
X2460653Y-4439848D02*
X3812950Y-4802194D01*
X9076995Y-9111465D02*
X10429292Y-9473811D01*
X1839487Y-6758070D02*
X1477140Y-8110367D01*
X21700357Y-4569736D02*
X22062703Y-5922032D01*
X19606279Y-4095565D02*
X20958575Y-3733219D01*
X21570947Y-4086772D02*
X22923243Y-3724425D01*
X18029838Y-5553247D02*
X18392184Y-6905544D01*
X20589790Y-7766083D02*
X21942086Y-7403736D01*
X11283395Y-6286258D02*
X9931100Y-5923911D01*
X25211435Y-4923039D02*
X23859140Y-5285386D01*
X27195051Y-4598586D02*
X26832703Y-3246290D01*
X8462792Y-10921912D02*
X7110496Y-10559565D01*
X25480407Y-3608636D02*
X25842755Y-4960933D01*
X-144128Y-6433618D02*
X1208168Y-6795965D01*
X22062703Y-5922032D02*
X23414999Y-5559686D01*
X8652300Y-3355414D02*
X8289953Y-4707710D01*
X14913890Y-11570890D02*
X14551544Y-10218593D01*
X8160545Y-5190673D02*
X7798197Y-6542969D01*
X1605000Y-9502998D02*
X1605000Y-10902998D01*
X7472842Y-9207269D02*
X8825139Y-9569616D01*
X23414999Y-5559686D02*
X23052652Y-4207389D01*
X25854002Y-9545998D02*
X27254000Y-9545998D01*
X17861345Y-9802677D02*
X18223692Y-11154974D01*
X7110496Y-10559565D02*
X7472842Y-9207269D01*
X27254000Y-9545998D02*
X27254000Y-10945999D01*
X7936400Y-4095337D02*
X8298746Y-2743041D01*
X10060508Y-5440947D02*
X11412804Y-5803293D01*
X9318995Y-11164764D02*
X9681342Y-9812469D01*
X10791639Y-8121515D02*
X9439342Y-7759169D01*
X18223692Y-11154974D02*
X16871396Y-11517320D01*
X9642249Y-5070057D02*
X10004595Y-3717760D01*
X5350566Y-6404766D02*
X3998269Y-6042420D01*
X347627Y-4598359D02*
X1699923Y-4960706D01*
X1570515Y-5443668D02*
X218219Y-5081322D01*
X21579740Y-6051440D02*
X20227442Y-6413786D01*
X21087984Y-4216181D02*
X19735688Y-4578527D01*
X27324460Y-5081550D02*
X25972164Y-5443897D01*
X18521595Y-7388507D02*
X18883943Y-8740803D01*
X17611580Y-5924138D02*
X16259284Y-6286485D01*
X2331243Y-4922811D02*
X1968896Y-6275107D01*
X1699923Y-4960706D02*
X2062270Y-3608409D01*
X25842755Y-4960933D02*
X27195051Y-4598586D01*
X22192112Y-6404994D02*
X22554460Y-7757290D01*
X6952887Y-7765855D02*
X7315234Y-6413558D01*
X7315234Y-6413558D02*
X5962937Y-6051212D01*
X2823000Y-3087551D02*
X2460653Y-4439848D01*
X8825139Y-9569616D02*
X8462792Y-10921912D01*
X10671291Y-11527112D02*
X9318995Y-11164764D01*
X8289953Y-4707710D02*
X9642249Y-5070057D01*
X23729730Y-4802423D02*
X25082026Y-4440076D01*
X6946450Y-2380694D02*
X6584103Y-3732990D01*
X10429292Y-9473811D02*
X10791639Y-8121515D01*
X205000Y-10902999D02*
X205000Y-9502998D01*
X3191783Y-7120417D02*
X1839487Y-6758070D01*
X18890380Y-3355641D02*
X17538084Y-3717988D01*
X16871396Y-11517320D02*
X16509049Y-10165024D01*
X9568753Y-7276207D02*
X10921049Y-7638554D01*
X22554460Y-7757290D02*
X23906756Y-7394943D01*
X9931100Y-5923911D02*
X9568753Y-7276207D01*
X6454694Y-4215953D02*
X6092348Y-5568249D01*
X3998269Y-6042420D02*
X3635923Y-7394716D01*
X3812950Y-4802194D02*
X4175296Y-3449898D01*
X24221486Y-6637682D02*
X25573783Y-6275335D01*
X19243931Y-2743269D02*
X19606279Y-4095565D01*
X17538084Y-3717988D02*
X17900429Y-5070285D01*
X-535336Y-2240418D02*
X-535337Y-11600419D01*
X20069805Y-9207448D02*
X20432151Y-10559744D01*
X15903839Y-9856247D02*
X16266186Y-11208543D01*
X9150494Y-6905315D02*
X9512840Y-5553019D01*
X19079856Y-10922091D02*
X18717509Y-9569794D01*
X5962937Y-6051212D02*
X5600591Y-7403508D01*
X4127679Y-5559457D02*
X5479975Y-5921804D01*
X23859140Y-5285386D02*
X24221486Y-6637682D01*
D11*
X-277060Y-11964402D02*
X-277060Y-11764402D01*
X-277060Y-11764402D02*
X-229441Y-11764402D01*
X-229441Y-11764402D02*
X-200869Y-11773926D01*
X-200869Y-11773926D02*
X-181821Y-11792974D01*
X-181821Y-11792974D02*
X-172298Y-11812021D01*
X-172298Y-11812021D02*
X-162774Y-11850117D01*
X-162774Y-11850117D02*
X-162774Y-11878688D01*
X-162774Y-11878688D02*
X-172298Y-11916783D01*
X-172298Y-11916783D02*
X-181821Y-11935831D01*
X-181821Y-11935831D02*
X-200869Y-11954879D01*
X-200869Y-11954879D02*
X-229441Y-11964402D01*
X-229441Y-11964402D02*
X-277060Y-11964402D01*
X-77060Y-11964402D02*
X-77060Y-11831069D01*
X-77060Y-11869164D02*
X-67536Y-11850117D01*
X-67536Y-11850117D02*
X-58012Y-11840593D01*
X-58012Y-11840593D02*
X-38964Y-11831069D01*
X-38964Y-11831069D02*
X-19917Y-11831069D01*
X46750Y-11964402D02*
X46750Y-11831069D01*
X46750Y-11764402D02*
X37226Y-11773926D01*
X37226Y-11773926D02*
X46750Y-11783450D01*
X46750Y-11783450D02*
X56274Y-11773926D01*
X56274Y-11773926D02*
X46750Y-11764402D01*
X46750Y-11764402D02*
X46750Y-11783450D01*
X170559Y-11964402D02*
X151512Y-11954879D01*
X151512Y-11954879D02*
X141988Y-11935831D01*
X141988Y-11935831D02*
X141988Y-11764402D01*
X275321Y-11964402D02*
X256274Y-11954879D01*
X256274Y-11954879D02*
X246750Y-11935831D01*
X246750Y-11935831D02*
X246750Y-11764402D01*
X503893Y-11964402D02*
X503893Y-11764402D01*
X503893Y-11764402D02*
X570559Y-11907260D01*
X570559Y-11907260D02*
X637226Y-11764402D01*
X637226Y-11764402D02*
X637226Y-11964402D01*
X818178Y-11964402D02*
X818178Y-11859641D01*
X818178Y-11859641D02*
X808655Y-11840593D01*
X808655Y-11840593D02*
X789607Y-11831069D01*
X789607Y-11831069D02*
X751512Y-11831069D01*
X751512Y-11831069D02*
X732464Y-11840593D01*
X818178Y-11954879D02*
X799131Y-11964402D01*
X799131Y-11964402D02*
X751512Y-11964402D01*
X751512Y-11964402D02*
X732464Y-11954879D01*
X732464Y-11954879D02*
X722940Y-11935831D01*
X722940Y-11935831D02*
X722940Y-11916783D01*
X722940Y-11916783D02*
X732464Y-11897736D01*
X732464Y-11897736D02*
X751512Y-11888212D01*
X751512Y-11888212D02*
X799131Y-11888212D01*
X799131Y-11888212D02*
X818178Y-11878688D01*
X913416Y-11831069D02*
X913416Y-12031069D01*
X913416Y-11840593D02*
X932464Y-11831069D01*
X932464Y-11831069D02*
X970559Y-11831069D01*
X970559Y-11831069D02*
X989607Y-11840593D01*
X989607Y-11840593D02*
X999131Y-11850117D01*
X999131Y-11850117D02*
X1008655Y-11869164D01*
X1008655Y-11869164D02*
X1008655Y-11926307D01*
X1008655Y-11926307D02*
X999131Y-11945355D01*
X999131Y-11945355D02*
X989607Y-11954879D01*
X989607Y-11954879D02*
X970559Y-11964402D01*
X970559Y-11964402D02*
X932464Y-11964402D01*
X932464Y-11964402D02*
X913416Y-11954879D01*
X1094369Y-11945355D02*
X1103893Y-11954879D01*
X1103893Y-11954879D02*
X1094369Y-11964402D01*
X1094369Y-11964402D02*
X1084845Y-11954879D01*
X1084845Y-11954879D02*
X1094369Y-11945355D01*
X1094369Y-11945355D02*
X1094369Y-11964402D01*
X1094369Y-11840593D02*
X1103893Y-11850117D01*
X1103893Y-11850117D02*
X1094369Y-11859641D01*
X1094369Y-11859641D02*
X1084845Y-11850117D01*
X1084845Y-11850117D02*
X1094369Y-11840593D01*
X1094369Y-11840593D02*
X1094369Y-11859641D01*
M02*
